# https://github.com/mikedh/trimesh
v 0.17689038 0.05862236 0.02625405
v 0.17689038 0.05862236 0.00174914
v 0.17664792 0.05862236 0.02888452
v 0.17689038 0.05424158 0.02975779
v 0.17689038 -0.17323593 0.00174914
v 0.17668255 0.05862236 0.00107821
v 0.17640545 0.05862236 0.02980039
v 0.17657864 0.05774620 0.02975779
v 0.17675183 -0.03325864 0.08574315
v 0.17682109 -0.02276784 0.07874631
v 0.17685573 -0.04026788 0.08924690
v 0.17689038 -0.02975402 0.08223941
v 0.17689038 -0.17323593 0.06123824
v 0.17595517 -0.17595663 0.00174914
v 0.17560880 -0.17563382 -0.00063639
v 0.17595517 -0.17323593 -0.00095588
v 0.17595517 0.05862236 -0.00095588
v 0.17602445 -0.02973096 0.08588160
v 0.17654401 -0.02627246 0.08223941
v 0.17567809 0.05862236 0.03153629
v 0.17640545 -0.04377250 0.09273999
v 0.17685573 -0.04725406 0.09273999
v 0.17689038 -0.05075868 0.09273999
v 0.17689038 -0.16624975 0.06824573
v 0.17668255 -0.17323593 0.06474199
v 0.17595517 -0.17595663 0.06123824
v 0.17321887 -0.17692501 0.00525288
v 0.17321887 -0.17690195 0.00174914
v 0.17321887 -0.17595663 -0.00095588
v 0.17321887 -0.17323593 -0.00192500
v 0.17321887 0.05862236 -0.00192500
v 0.17557417 -0.02627246 0.08468883
v 0.17540098 -0.03086074 0.08788374
v 0.17578200 -0.03325864 0.08856532
v 0.17547026 0.05862236 0.03193033
v 0.17682109 -0.05426330 0.09624373
v 0.17553954 -0.03750107 0.09155788
v 0.17592054 -0.04725406 0.09578580
v 0.17685573 -0.06473105 0.09973683
v 0.17689038 -0.05776792 0.09624373
v 0.17689038 -0.14524508 0.08223941
v 0.17682109 -0.15223127 0.07874631
v 0.17678646 -0.16274513 0.07173882
v 0.17650936 -0.15924050 0.07524257
v 0.17602445 -0.16627280 0.07186662
v 0.17571272 -0.17323593 0.06754285
v 0.17533172 -0.17531105 0.06678672
v 0.17571272 -0.17570300 0.06474199
v 0.17321887 -0.17692501 0.06123824
v -0.17321887 -0.17692501 0.00525288
v -0.17321887 -0.17690195 0.00174914
v -0.17321887 -0.17595663 -0.00095588
v -0.17321887 -0.17323593 -0.00192500
v -0.17321887 0.05862236 -0.00192500
v 0.17512390 -0.02435875 0.08409245
v 0.17321887 -0.03053795 0.08807543
v 0.17501999 -0.04197408 0.09450784
v 0.17401551 0.05862236 0.03228177
v 0.17657864 -0.06124948 0.09973683
v 0.17585126 -0.05426330 0.09901265
v 0.17543563 -0.04377250 0.09495512
v 0.17550489 -0.05140427 0.09846952
v 0.17654401 -0.07524491 0.10324057
v 0.17675183 -0.07874953 0.10324057
v 0.17685573 -0.08223109 0.10324057
v 0.17689038 -0.06823567 0.09973683
v 0.17689038 -0.13124967 0.08924690
v 0.17685573 -0.13473122 0.08924690
v 0.17675183 -0.14174046 0.08574315
v 0.17654401 -0.14874970 0.08223941
v 0.17605908 -0.15585117 0.07890606
v 0.17550489 -0.15474445 0.08100405
v 0.17543563 -0.16511997 0.07394331
v 0.17560880 -0.16910878 0.07078035
v 0.17512390 -0.16113116 0.07708496
v 0.17321887 -0.17323593 0.06860782
v 0.17321887 -0.17547243 0.06692517
v 0.17321887 -0.17644081 0.06474199
v -0.17321887 -0.17692501 0.06123824
v -0.17595517 -0.17595663 0.00174914
v -0.17560880 -0.17563382 -0.00063639
v -0.17595517 -0.17323593 -0.00095588
v -0.17391161 0.05862236 -0.00168006
v 0.17321887 0.05862236 0.03235631
v 0.17321887 -0.02878564 0.08698916
v 0.16972055 -0.03325864 0.08969418
v 0.16972055 -0.03524152 0.09085500
v 0.17321887 -0.03524152 0.09082305
v 0.16972055 -0.02878564 0.08701046
v -0.17321887 -0.03053795 0.08807543
v 0.17321887 -0.03699382 0.09183477
v 0.17321887 -0.04022176 0.09358131
v 0.17321887 -0.04197408 0.09451849
v 0.17321887 -0.04377250 0.09541306
v 0.17321887 -0.04725406 0.09709571
v 0.17321887 -0.04907554 0.09794768
v 0.17321887 -0.05082785 0.09871446
v 0.17560880 -0.06124948 0.10205846
v 0.17592054 -0.06473105 0.10252704
v 0.17526244 -0.05896687 0.10168572
v 0.17557417 -0.07524491 0.10546636
v 0.17578200 -0.07874953 0.10570065
v 0.17588591 -0.08223109 0.10584975
v 0.17592054 -0.08573571 0.10592429
v 0.17689038 -0.08573571 0.10324057
v 0.17689038 -0.11723118 0.09624373
v 0.17685573 -0.12774504 0.09273999
v 0.17640545 -0.13124967 0.09273999
v 0.17602445 -0.14526814 0.08588160
v 0.17557417 -0.14874970 0.08468883
v 0.17540098 -0.14413835 0.08788374
v 0.17512390 -0.15066341 0.08410310
v 0.17321887 -0.15513642 0.08125964
v 0.17321887 -0.16120033 0.07713821
v 0.17321887 -0.16295264 0.07591350
v 0.17321887 -0.16544276 0.07416695
v 0.17321887 -0.16719507 0.07293159
v 0.17321887 -0.16966214 0.07117439
v 0.17321887 -0.17141445 0.06991773
v 0.16972055 -0.17323593 0.06861847
v -0.17321887 -0.17547243 0.06692517
v -0.17321887 -0.17644081 0.06474199
v -0.17571272 -0.17570300 0.06474199
v -0.17595517 -0.17595663 0.06123824
v -0.17689038 -0.17323593 0.00174914
v -0.17619765 0.05862236 -0.00028495
v -0.17595517 0.05862236 -0.00095588
v -0.17321887 0.05862236 0.03235631
v -0.16972055 -0.03325864 0.08969418
v -0.16972055 -0.03524152 0.09085500
v -0.16972055 -0.02878564 0.08701046
v -0.17321887 -0.02878564 0.08698916
v -0.17512390 -0.02435875 0.08409245
v -0.17540098 -0.03086074 0.08788374
v -0.17501999 -0.04197408 0.09450784
v -0.17321887 -0.03524152 0.09082305
v -0.17321887 -0.03699382 0.09183477
v -0.17321887 -0.04022176 0.09358131
v -0.17321887 -0.04197408 0.09451849
v 0.16972055 -0.04725406 0.09710636
v -0.17321887 -0.04377250 0.09541306
v 0.16972055 -0.04907554 0.09795833
v 0.16972055 -0.05426330 0.10012022
v 0.17321887 -0.05426330 0.10007762
v -0.17321887 -0.05082785 0.09871446
v 0.17529707 -0.07233976 0.10522141
v 0.17321887 -0.05693788 0.10111064
v 0.17321887 -0.05869019 0.10178157
v 0.17321887 -0.06124948 0.10262289
v 0.17321887 -0.06473105 0.10362396
v 0.17321887 -0.07874953 0.10640353
v 0.17321887 -0.08223109 0.10671237
v 0.17321887 -0.08573571 0.10686146
v 0.17592054 -0.08924033 0.10592429
v 0.17321887 -0.08924033 0.10687211
v 0.17689038 -0.08924033 0.10324057
v 0.17689038 -0.10674037 0.09973683
v 0.17685573 -0.11024499 0.09973683
v 0.17682109 -0.12073580 0.09624373
v 0.17592054 -0.12774504 0.09578580
v 0.17553954 -0.13749803 0.09155788
v 0.17578200 -0.14174046 0.08856532
v 0.17498534 -0.13302503 0.09450784
v 0.17321887 -0.14446116 0.08807543
v 0.17321887 -0.14621346 0.08698916
v 0.17321887 -0.14874970 0.08540236
v 0.17321887 -0.15073258 0.08415635
v 0.17321887 -0.15248489 0.08300619
v 0.16972055 -0.15688872 0.08008817
v -0.17321887 -0.15513642 0.08125964
v 0.16972055 -0.15924050 0.07848007
v -0.17321887 -0.16120033 0.07713821
v -0.17321887 -0.16295264 0.07591350
v -0.17321887 -0.16544276 0.07416695
v 0.16972055 -0.16966214 0.07118504
v -0.17321887 -0.16719507 0.07293159
v 0.16972055 -0.17141445 0.06992838
v -0.16972055 -0.17323593 0.06861847
v -0.17321887 -0.17323593 0.06860782
v -0.17533172 -0.17531105 0.06678672
v -0.17668255 -0.17323593 0.06474199
v -0.17689038 -0.17323593 0.06123824
v -0.17689038 0.05862236 0.00174914
v -0.17547026 0.05862236 0.03193033
v -0.17557417 -0.02627246 0.08468883
v -0.17602445 -0.02973096 0.08588160
v -0.17578200 -0.03325864 0.08856532
v -0.17553954 -0.03750107 0.09155788
v -0.17543563 -0.04377250 0.09495512
v -0.17550489 -0.05140427 0.09846952
v -0.17321887 -0.04907554 0.09794768
v -0.17321887 -0.04725406 0.09709571
v -0.16972055 -0.04725406 0.09710636
v -0.16972055 -0.04907554 0.09795833
v 0.16972055 -0.05693788 0.10115324
v -0.16972055 -0.05426330 0.10012022
v -0.17526244 -0.05896687 0.10168572
v -0.17321887 -0.05426330 0.10007762
v 0.17321887 -0.06998798 0.10498712
v 0.17321887 -0.07174029 0.10532791
v 0.17321887 -0.07524491 0.10593494
v -0.17321887 -0.05869019 0.10178157
v 0.16972055 -0.06473105 0.10366656
v -0.17321887 -0.06124948 0.10262289
v -0.17321887 -0.07874953 0.10640353
v -0.17321887 -0.08223109 0.10671237
v -0.17321887 -0.08573571 0.10686146
v 0.17588591 -0.09274495 0.10584975
v 0.17685573 -0.09274495 0.10324057
v 0.17321887 -0.09274495 0.10671237
v -0.17321887 -0.08924033 0.10687211
v 0.17675183 -0.09624957 0.10324057
v 0.17657864 -0.09973113 0.10324057
v 0.17657864 -0.11374962 0.09973683
v 0.17585126 -0.12073580 0.09900200
v 0.17550489 -0.12359483 0.09846952
v 0.17543563 -0.13124967 0.09494447
v 0.17321887 -0.13477734 0.09358131
v 0.17321887 -0.13800528 0.09183477
v 0.17321887 -0.13975758 0.09082305
v 0.17321887 -0.12414819 0.09870381
v 0.17321887 -0.12590050 0.09793703
v 0.17321887 -0.12774504 0.09708506
v 0.17321887 -0.13124967 0.09540241
v -0.17498534 -0.13302503 0.09450784
v 0.16972055 -0.14621346 0.08701046
v 0.16972055 -0.13975758 0.09085500
v 0.16972055 -0.14174046 0.08969418
v -0.17321887 -0.14446116 0.08807543
v 0.16972055 -0.14874970 0.08542366
v -0.17321887 -0.15073258 0.08415635
v -0.17321887 -0.15248489 0.08300619
v -0.16972055 -0.15688872 0.08008817
v -0.17512390 -0.15066341 0.08410310
v -0.17512390 -0.16113116 0.07708496
v -0.16972055 -0.15924050 0.07848007
v -0.16972055 -0.16966214 0.07118504
v -0.17321887 -0.16966214 0.07117439
v -0.16972055 -0.17141445 0.06992838
v -0.17321887 -0.17141445 0.06991773
v -0.17543563 -0.16511997 0.07394331
v -0.17560880 -0.16910878 0.07078035
v -0.17571272 -0.17323593 0.06754285
v -0.17602445 -0.16627280 0.07186662
v -0.17650936 -0.15924050 0.07524257
v -0.17678646 -0.16274513 0.07173882
v -0.17689038 -0.16624975 0.06824573
v -0.17689038 0.05862236 0.02625405
v -0.17640545 0.05862236 0.02980039
v -0.17654401 -0.02627246 0.08223941
v -0.17675183 -0.03325864 0.08574315
v -0.17640545 -0.04377250 0.09273999
v -0.17592054 -0.04725406 0.09578580
v -0.17585126 -0.05426330 0.09901265
v -0.17560880 -0.06124948 0.10205846
v -0.16972055 -0.05693788 0.10115324
v -0.17529707 -0.07233976 0.10522141
v -0.17321887 -0.06473105 0.10362396
v -0.17321887 -0.05693788 0.10111064
v 0.16972055 -0.06823567 0.10457178
v -0.17321887 -0.06998798 0.10498712
v -0.17321887 -0.07174029 0.10532791
v -0.17321887 -0.07524491 0.10593494
v -0.16972055 -0.06473105 0.10366656
v -0.17557417 -0.07524491 0.10546636
v -0.17578200 -0.07874953 0.10570065
v -0.17588591 -0.08223109 0.10584975
v -0.17592054 -0.08573571 0.10592429
v 0.17578200 -0.09624957 0.10570065
v 0.17321887 -0.09624957 0.10641418
v 0.17560880 -0.09973113 0.10547701
v -0.17321887 -0.09274495 0.10671237
v -0.17592054 -0.08924033 0.10592429
v -0.17588591 -0.09274495 0.10584975
v 0.17592054 -0.11024499 0.10252704
v 0.17560880 -0.11374962 0.10205846
v 0.17526244 -0.11603224 0.10168572
v -0.17321887 -0.13477734 0.09358131
v -0.17321887 -0.13800528 0.09183477
v 0.16972055 -0.12590050 0.09794768
v 0.17321887 -0.12073580 0.10006697
v 0.16972055 -0.12073580 0.10012022
v -0.17321887 -0.12414819 0.09870381
v 0.16972055 -0.12774504 0.09709571
v -0.17321887 -0.13124967 0.09540241
v -0.17321887 -0.12774504 0.09708506
v -0.17321887 -0.12590050 0.09793703
v -0.17550489 -0.12359483 0.09846952
v -0.17543563 -0.13124967 0.09494447
v -0.17553954 -0.13749803 0.09155788
v -0.17540098 -0.14413835 0.08788374
v -0.17321887 -0.13975758 0.09082305
v -0.16972055 -0.14621346 0.08701046
v -0.16972055 -0.13975758 0.09085500
v -0.16972055 -0.14174046 0.08969418
v -0.17321887 -0.14621346 0.08698916
v -0.16972055 -0.14874970 0.08542366
v -0.17321887 -0.14874970 0.08540236
v -0.17550489 -0.15474445 0.08100405
v -0.17605908 -0.15585117 0.07890606
v -0.17654401 -0.14874970 0.08223941
v -0.17682109 -0.15223127 0.07874631
v -0.17689038 -0.14524508 0.08223941
v -0.17689038 0.05424158 0.02975779
v -0.17657864 0.05774620 0.02975779
v -0.17682109 -0.02276784 0.07874631
v -0.17685573 -0.04026788 0.08924690
v -0.17685573 -0.04725406 0.09273999
v -0.17682109 -0.05426330 0.09624373
v -0.17657864 -0.06124948 0.09973683
v -0.17592054 -0.06473105 0.10252704
v -0.16972055 -0.06823567 0.10457178
v -0.17654401 -0.07524491 0.10324057
v -0.17675183 -0.07874953 0.10324057
v -0.17685573 -0.08223109 0.10324057
v -0.17689038 -0.08573571 0.10324057
v 0.17321887 -0.09973113 0.10595624
v 0.17498534 -0.10498807 0.10499777
v 0.17522781 -0.10323576 0.10516817
v -0.17321887 -0.09624957 0.10641418
v -0.17578200 -0.09624957 0.10570065
v -0.17560880 -0.09973113 0.10547701
v -0.17689038 -0.08924033 0.10324057
v -0.17685573 -0.09274495 0.10324057
v -0.17675183 -0.09624957 0.10324057
v 0.17321887 -0.11374962 0.10262289
v 0.17321887 -0.11628585 0.10178157
v -0.16972055 -0.12590050 0.09794768
v 0.16972055 -0.11803817 0.10115324
v -0.16972055 -0.12073580 0.10012022
v -0.17321887 -0.12073580 0.10006697
v -0.17526244 -0.11603224 0.10168572
v -0.16972055 -0.12774504 0.09709571
v -0.17560880 -0.11374962 0.10205846
v -0.17585126 -0.12073580 0.09900200
v -0.17592054 -0.12774504 0.09578580
v -0.17640545 -0.13124967 0.09273999
v -0.17578200 -0.14174046 0.08856532
v -0.17557417 -0.14874970 0.08468883
v -0.17602445 -0.14526814 0.08588160
v -0.17675183 -0.14174046 0.08574315
v -0.17685573 -0.13473122 0.08924690
v -0.17689038 -0.13124967 0.08924690
v -0.17689038 -0.02975402 0.08223941
v -0.17685573 -0.06473105 0.09973683
v -0.17689038 -0.05075868 0.09273999
v -0.17689038 -0.05776792 0.09624373
v -0.17689038 -0.06823567 0.09973683
v 0.17321887 -0.10323576 0.10534921
v -0.17321887 -0.09973113 0.10595624
v 0.17321887 -0.10501112 0.10499777
v 0.16972055 -0.10676344 0.10458243
v 0.16972055 -0.11024499 0.10367721
v 0.17321887 -0.11024499 0.10362396
v -0.17522781 -0.10323576 0.10516817
v -0.17498534 -0.10498807 0.10499777
v -0.17657864 -0.09973113 0.10324057
v -0.17592054 -0.11024499 0.10252704
v -0.17689038 -0.10674037 0.09973683
v -0.17685573 -0.11024499 0.09973683
v -0.17321887 -0.11374962 0.10262289
v -0.17321887 -0.11628585 0.10178157
v -0.16972055 -0.11803817 0.10115324
v -0.17657864 -0.11374962 0.09973683
v -0.17682109 -0.12073580 0.09624373
v -0.17685573 -0.12774504 0.09273999
v -0.17689038 -0.11723118 0.09624373
v -0.17321887 -0.10323576 0.10534921
v -0.17321887 -0.10501112 0.10499777
v -0.16972055 -0.10676344 0.10458243
v -0.16972055 -0.11024499 0.10367721
v -0.17321887 -0.11024499 0.10362396
f 1 2 6
f 1 6 17
f 1 17 31
f 1 31 54
f 1 54 83
f 1 83 127
f 1 127 126
f 1 126 183
f 1 183 248
f 1 248 249
f 1 249 184
f 1 184 128
f 1 128 84
f 1 84 58
f 1 58 35
f 1 35 20
f 1 20 7
f 1 7 3
f 1 3 4
f 1 4 12
f 1 12 23
f 1 23 40
f 1 40 66
f 1 66 105
f 1 105 156
f 1 156 157
f 1 157 106
f 1 106 67
f 1 67 41
f 1 41 24
f 1 24 13
f 1 13 5
f 1 5 2
f 2 5 6
f 3 7 8
f 3 8 9
f 3 9 10
f 3 10 4
f 4 10 11
f 4 11 12
f 5 13 26
f 5 26 14
f 5 14 15
f 5 15 16
f 5 16 6
f 6 16 17
f 7 18 19
f 7 19 8
f 7 20 18
f 8 19 9
f 9 19 18
f 9 18 21
f 9 21 11
f 9 11 10
f 11 21 22
f 11 22 12
f 12 22 23
f 13 24 25
f 13 25 26
f 14 26 49
f 14 49 27
f 14 27 28
f 14 28 15
f 15 28 29
f 15 29 30
f 15 30 16
f 16 30 31
f 16 31 17
f 18 20 32
f 18 32 33
f 18 33 34
f 18 34 21
f 20 35 33
f 20 33 32
f 21 36 22
f 21 34 37
f 21 37 38
f 21 38 36
f 22 36 39
f 22 39 40
f 22 40 23
f 24 41 42
f 24 42 43
f 24 43 25
f 25 43 44
f 25 44 45
f 25 45 46
f 25 46 47
f 25 47 48
f 25 48 26
f 26 48 49
f 27 49 79
f 27 79 50
f 27 50 51
f 27 51 28
f 28 51 52
f 28 52 29
f 29 52 53
f 29 53 30
f 30 53 54
f 30 54 31
f 33 55 56
f 33 56 57
f 33 57 37
f 33 37 34
f 33 35 55
f 35 58 55
f 36 59 39
f 36 38 60
f 36 60 59
f 37 57 61
f 37 61 38
f 38 61 62
f 38 62 60
f 39 59 63
f 39 63 64
f 39 64 65
f 39 65 105
f 39 105 66
f 39 66 40
f 41 67 68
f 41 68 42
f 42 68 69
f 42 69 70
f 42 70 43
f 43 70 44
f 44 70 71
f 44 71 45
f 45 71 72
f 45 72 73
f 45 73 74
f 45 74 46
f 46 74 47
f 47 74 73
f 47 73 75
f 47 75 76
f 47 76 77
f 47 77 78
f 47 78 48
f 48 78 49
f 49 78 122
f 49 122 79
f 50 79 124
f 50 124 80
f 50 80 51
f 51 80 81
f 51 81 52
f 52 81 53
f 53 81 82
f 53 82 83
f 53 83 54
f 55 58 84
f 55 84 85
f 55 85 56
f 56 86 87
f 56 87 88
f 56 88 57
f 56 85 89
f 56 89 131
f 56 131 90
f 56 90 129
f 56 129 86
f 57 62 61
f 57 88 91
f 57 91 92
f 57 92 93
f 57 93 94
f 57 94 95
f 57 95 96
f 57 96 97
f 57 97 62
f 59 60 98
f 59 98 99
f 59 99 63
f 60 62 98
f 62 97 100
f 62 100 98
f 63 99 101
f 63 101 102
f 63 102 64
f 64 102 103
f 64 103 65
f 65 103 104
f 65 104 105
f 67 106 107
f 67 107 68
f 68 107 108
f 68 108 69
f 69 108 109
f 69 109 70
f 70 109 71
f 71 109 72
f 72 110 111
f 72 111 112
f 72 112 75
f 72 75 73
f 72 109 110
f 75 112 113
f 75 113 114
f 75 114 115
f 75 115 116
f 75 116 117
f 75 117 118
f 75 118 119
f 75 119 76
f 76 119 177
f 76 177 120
f 76 120 77
f 77 120 178
f 77 178 121
f 77 121 122
f 77 122 78
f 79 122 123
f 79 123 124
f 80 124 182
f 80 182 125
f 80 125 81
f 81 125 82
f 82 126 127
f 82 127 83
f 82 125 126
f 84 89 85
f 84 128 131
f 84 131 89
f 86 129 130
f 86 130 87
f 87 91 88
f 87 130 137
f 87 137 91
f 90 131 132
f 90 132 133
f 90 133 134
f 90 134 135
f 90 135 136
f 90 136 130
f 90 130 129
f 91 137 138
f 91 138 92
f 92 138 139
f 92 139 93
f 93 139 141
f 93 141 94
f 94 140 95
f 94 141 193
f 94 193 140
f 95 140 142
f 95 142 96
f 96 142 97
f 97 143 144
f 97 144 100
f 97 142 194
f 97 194 145
f 97 145 196
f 97 196 143
f 98 100 146
f 98 146 99
f 99 146 101
f 100 144 147
f 100 147 148
f 100 148 149
f 100 149 150
f 100 150 146
f 101 146 151
f 101 151 152
f 101 152 102
f 102 152 103
f 103 152 153
f 103 153 104
f 104 154 156
f 104 156 105
f 104 153 155
f 104 155 154
f 106 157 158
f 106 158 159
f 106 159 107
f 107 159 108
f 108 159 160
f 108 160 161
f 108 161 162
f 108 162 109
f 109 162 110
f 110 162 111
f 111 163 112
f 111 162 161
f 111 161 163
f 112 163 164
f 112 164 165
f 112 165 166
f 112 166 167
f 112 167 168
f 112 168 113
f 113 169 114
f 113 168 232
f 113 232 170
f 113 170 233
f 113 233 169
f 114 169 171
f 114 171 236
f 114 236 172
f 114 172 173
f 114 173 115
f 115 173 174
f 115 174 116
f 116 174 176
f 116 176 117
f 117 175 118
f 117 176 237
f 117 237 175
f 118 175 177
f 118 177 119
f 120 177 239
f 120 239 178
f 121 178 179
f 121 179 180
f 121 180 122
f 122 180 123
f 123 180 181
f 123 181 124
f 124 181 182
f 125 182 247
f 125 247 303
f 125 303 343
f 125 343 367
f 125 367 359
f 125 359 323
f 125 323 316
f 125 316 348
f 125 348 347
f 125 347 346
f 125 346 344
f 125 344 304
f 125 304 248
f 125 248 183
f 125 183 126
f 128 184 133
f 128 133 132
f 128 132 131
f 130 136 137
f 133 184 134
f 134 184 185
f 134 185 186
f 134 186 187
f 134 187 188
f 134 188 135
f 135 188 189
f 135 189 190
f 135 190 145
f 135 145 191
f 135 191 192
f 135 192 141
f 135 141 139
f 135 139 138
f 135 138 137
f 135 137 136
f 140 193 194
f 140 194 142
f 141 192 193
f 143 195 147
f 143 147 144
f 143 196 256
f 143 256 195
f 145 194 191
f 145 190 197
f 145 197 198
f 145 198 196
f 146 150 199
f 146 199 200
f 146 200 201
f 146 201 151
f 147 195 148
f 148 195 256
f 148 256 202
f 148 202 204
f 148 204 149
f 149 203 150
f 149 204 264
f 149 264 203
f 150 203 199
f 151 201 263
f 151 263 205
f 151 205 206
f 151 206 152
f 152 206 207
f 152 207 153
f 153 207 211
f 153 211 155
f 154 208 209
f 154 209 156
f 154 155 208
f 155 210 208
f 155 211 272
f 155 272 210
f 156 209 158
f 156 158 157
f 158 209 212
f 158 212 213
f 158 213 214
f 158 214 159
f 159 214 215
f 159 215 160
f 160 215 216
f 160 216 217
f 160 217 161
f 161 217 163
f 163 218 219
f 163 219 220
f 163 220 164
f 163 217 216
f 163 216 221
f 163 221 222
f 163 222 223
f 163 223 224
f 163 224 285
f 163 285 225
f 163 225 278
f 163 278 218
f 164 226 165
f 164 220 227
f 164 227 228
f 164 228 295
f 164 295 229
f 164 229 293
f 164 293 226
f 165 226 230
f 165 230 166
f 166 230 167
f 167 230 297
f 167 297 231
f 167 231 232
f 167 232 168
f 169 233 236
f 169 236 171
f 170 232 234
f 170 234 235
f 170 235 172
f 170 172 233
f 172 236 233
f 172 235 173
f 173 235 174
f 174 235 176
f 175 237 239
f 175 239 177
f 176 235 238
f 176 238 237
f 178 239 240
f 178 240 179
f 179 240 235
f 179 235 180
f 180 235 241
f 180 241 242
f 180 242 243
f 180 243 181
f 181 243 244
f 181 244 245
f 181 245 246
f 181 246 247
f 181 247 182
f 184 249 186
f 184 186 185
f 186 249 250
f 186 250 251
f 186 251 252
f 186 252 187
f 187 252 188
f 188 252 253
f 188 253 189
f 189 253 190
f 190 253 254
f 190 254 255
f 190 255 197
f 191 194 193
f 191 193 192
f 196 198 259
f 196 259 256
f 197 255 257
f 197 257 258
f 197 258 204
f 197 204 202
f 197 202 259
f 197 259 198
f 199 203 260
f 199 260 312
f 199 312 261
f 199 261 262
f 199 262 200
f 200 262 263
f 200 263 201
f 202 256 259
f 203 264 312
f 203 312 260
f 204 258 264
f 205 263 257
f 205 257 265
f 205 265 206
f 206 265 266
f 206 266 267
f 206 267 207
f 207 267 268
f 207 268 211
f 208 269 212
f 208 212 209
f 208 210 269
f 210 270 271
f 210 271 269
f 210 272 320
f 210 320 270
f 211 268 273
f 211 273 274
f 211 274 272
f 212 269 213
f 213 269 271
f 213 271 275
f 213 275 214
f 214 275 276
f 214 276 215
f 215 276 216
f 216 277 221
f 216 276 277
f 218 278 279
f 218 279 219
f 219 227 220
f 219 279 294
f 219 294 227
f 221 280 222
f 221 277 281
f 221 281 282
f 221 282 330
f 221 330 283
f 221 283 328
f 221 328 280
f 222 280 284
f 222 284 223
f 223 284 224
f 224 284 333
f 224 333 285
f 225 285 286
f 225 286 287
f 225 287 283
f 225 283 288
f 225 288 289
f 225 289 290
f 225 290 291
f 225 291 234
f 225 234 229
f 225 229 292
f 225 292 279
f 225 279 278
f 226 293 297
f 226 297 230
f 227 294 295
f 227 295 228
f 229 295 294
f 229 294 292
f 229 234 296
f 229 296 293
f 231 297 298
f 231 298 234
f 231 234 232
f 234 291 299
f 234 299 235
f 234 298 296
f 235 299 241
f 235 240 238
f 237 238 240
f 237 240 239
f 241 299 244
f 241 244 242
f 242 244 243
f 244 300 245
f 244 299 300
f 245 301 246
f 245 300 301
f 246 301 302
f 246 302 247
f 247 302 303
f 248 304 305
f 248 305 249
f 249 305 250
f 250 305 251
f 251 305 306
f 251 306 307
f 251 307 252
f 252 307 308
f 252 308 309
f 252 309 253
f 253 309 254
f 254 309 310
f 254 310 255
f 255 310 311
f 255 311 257
f 257 311 265
f 257 263 262
f 257 262 261
f 257 261 258
f 258 261 264
f 261 312 264
f 265 311 313
f 265 313 266
f 266 313 314
f 266 314 267
f 267 314 315
f 267 315 268
f 268 315 316
f 268 316 323
f 268 323 273
f 270 317 318
f 270 318 319
f 270 319 271
f 270 320 350
f 270 350 317
f 271 319 275
f 272 274 321
f 272 321 322
f 272 322 320
f 273 323 324
f 273 324 274
f 274 324 325
f 274 325 321
f 275 319 276
f 276 319 318
f 276 318 277
f 277 318 326
f 277 326 327
f 277 327 281
f 279 292 294
f 280 328 333
f 280 333 284
f 281 327 282
f 282 327 329
f 282 329 363
f 282 363 330
f 283 330 331
f 283 331 332
f 283 332 288
f 283 287 328
f 285 333 286
f 286 333 328
f 286 328 287
f 288 332 334
f 288 334 335
f 288 335 336
f 288 336 289
f 289 336 290
f 290 336 337
f 290 337 338
f 290 338 291
f 291 338 339
f 291 339 299
f 293 296 298
f 293 298 297
f 299 339 340
f 299 340 300
f 300 340 301
f 301 340 341
f 301 341 302
f 302 341 342
f 302 342 303
f 303 342 343
f 304 307 306
f 304 306 305
f 304 344 307
f 307 344 308
f 308 345 309
f 308 344 346
f 308 346 347
f 308 347 345
f 309 345 310
f 310 345 313
f 310 313 311
f 313 345 314
f 314 345 315
f 315 345 348
f 315 348 316
f 317 349 318
f 317 350 368
f 317 368 349
f 318 349 351
f 318 351 352
f 318 352 353
f 318 353 354
f 318 354 326
f 320 322 355
f 320 355 356
f 320 356 350
f 321 325 357
f 321 357 322
f 322 357 358
f 322 358 355
f 323 359 360
f 323 360 324
f 324 360 325
f 325 360 357
f 326 354 353
f 326 353 371
f 326 371 361
f 326 361 362
f 326 362 327
f 327 362 363
f 327 363 329
f 330 363 362
f 330 362 331
f 331 362 332
f 332 356 334
f 332 362 361
f 332 361 356
f 334 358 364
f 334 364 335
f 334 356 355
f 334 355 358
f 335 364 365
f 335 365 336
f 336 365 337
f 337 365 366
f 337 366 342
f 337 342 341
f 337 341 340
f 337 340 338
f 338 340 339
f 342 366 343
f 343 366 367
f 345 347 348
f 349 368 369
f 349 369 351
f 350 356 368
f 351 369 370
f 351 370 352
f 352 370 371
f 352 371 353
f 356 361 372
f 356 372 371
f 356 371 370
f 356 370 369
f 356 369 368
f 357 360 364
f 357 364 358
f 359 367 360
f 360 365 364
f 360 367 365
f 361 371 372
f 365 367 366

