# https://github.com/mikedh/trimesh
v 0.17689038 0.10984859 0.02314808
v 0.17689038 0.10984859 0.00174890
v 0.17685573 0.10984859 0.02624489
v 0.17689038 0.06475486 0.02624489
v 0.17689038 0.05862236 0.00174890
v 0.17668255 0.05862236 0.00107451
v 0.17595517 0.10984859 -0.00096207
v 0.17588591 0.10984859 0.02905987
v 0.17640545 0.05862236 0.02979129
v 0.17664792 0.05862236 0.02887198
v 0.17689038 0.05862236 0.02624489
v 0.17595517 0.05862236 -0.00096207
v 0.17321887 0.10984859 -0.00192500
v 0.17321887 0.10984859 0.03017042
v 0.17547026 0.05862236 0.03191846
v 0.17567809 0.05862236 0.03153262
v 0.17321887 0.05862236 -0.00192500
v -0.17321887 0.10984859 -0.00192500
v 0.17401551 0.05862236 0.03227746
v 0.16972055 0.10984859 0.03021740
v 0.17321887 0.05862236 0.03234792
v -0.17321887 0.05862236 -0.00192500
v -0.17391161 0.05862236 -0.00168343
v -0.17564344 0.10984859 -0.00107279
v 0.16972055 0.05862236 0.03235128
v -0.17013618 0.10984859 0.03021740
v -0.17595517 0.05862236 -0.00096207
v -0.17595517 0.10984859 -0.00096207
v -0.16972055 0.05862236 0.03235128
v -0.17321887 0.10984859 0.03017042
v -0.17321887 0.05862236 0.03234792
v -0.17619765 0.05862236 -0.00028769
v -0.17678646 0.10984859 0.00143687
v -0.17353060 0.10984859 0.03008990
v -0.17547026 0.05862236 0.03191846
v -0.17689038 0.05862236 0.00174890
v -0.17689038 0.10984859 0.00174890
v -0.17588591 0.10984859 0.02905987
v -0.17602445 0.10984859 0.02877803
v -0.17640545 0.05862236 0.02979129
v -0.17689038 0.05862236 0.02624489
v -0.17689038 0.10984859 0.02584563
v -0.17685573 0.10984859 0.02624489
v -0.17689038 0.06475486 0.02624489
f 1 2 7
f 1 7 13
f 1 13 18
f 1 18 24
f 1 24 28
f 1 28 33
f 1 33 37
f 1 37 42
f 1 42 43
f 1 43 39
f 1 39 38
f 1 38 34
f 1 34 30
f 1 30 26
f 1 26 20
f 1 20 14
f 1 14 8
f 1 8 3
f 1 3 4
f 1 4 11
f 1 11 5
f 1 5 2
f 2 5 6
f 2 6 7
f 3 8 9
f 3 9 10
f 3 10 4
f 4 10 11
f 5 11 10
f 5 10 9
f 5 9 16
f 5 16 15
f 5 15 19
f 5 19 21
f 5 21 25
f 5 25 29
f 5 29 31
f 5 31 35
f 5 35 40
f 5 40 41
f 5 41 36
f 5 36 32
f 5 32 27
f 5 27 23
f 5 23 22
f 5 22 17
f 5 17 12
f 5 12 6
f 6 12 7
f 7 12 17
f 7 17 13
f 8 14 15
f 8 15 16
f 8 16 9
f 13 17 22
f 13 22 18
f 14 19 15
f 14 20 21
f 14 21 19
f 18 22 23
f 18 23 24
f 20 25 21
f 20 26 29
f 20 29 25
f 23 27 24
f 24 27 28
f 26 30 31
f 26 31 29
f 27 32 28
f 28 32 33
f 30 34 35
f 30 35 31
f 32 36 33
f 33 36 37
f 34 38 35
f 35 38 39
f 35 39 40
f 36 41 44
f 36 44 42
f 36 42 37
f 39 43 40
f 40 43 44
f 40 44 41
f 42 44 43

