# https://github.com/mikedh/trimesh
v -0.17321887 0.10985515 -0.00192500
v -0.17564344 0.10985515 -0.00107175
v -0.17321887 0.17324814 -0.00192500
v 0.17321887 0.10985515 -0.00192500
v -0.17595517 0.10985515 -0.00095754
v -0.17595517 0.17324814 -0.00095754
v -0.17560880 0.17563809 -0.00064177
v -0.17321887 0.17595982 -0.00095754
v 0.17321887 0.17324814 -0.00192500
v 0.17595517 0.10985515 -0.00095754
v -0.17678646 0.10985515 0.00144097
v -0.17689038 0.17324814 0.00175001
v -0.17595517 0.17595982 0.00175001
v -0.17321887 0.17691844 0.00175001
v 0.17321887 0.17595982 -0.00095754
v 0.17560880 0.17563809 -0.00064177
v 0.17595517 0.17324814 -0.00095754
v 0.17689038 0.10985515 0.00175001
v -0.17689038 0.10985515 0.00175001
v -0.17689038 0.17324814 0.05774194
v -0.17595517 0.17595982 0.06124228
v -0.17321887 0.17692501 0.00525035
v 0.17321887 0.17691844 0.00175001
v 0.17595517 0.17595982 0.00175001
v 0.17689038 0.17324814 0.00175001
v 0.17689038 0.10985515 0.02315514
v -0.17689038 0.10985515 0.02584925
v -0.17689038 0.16974857 0.05774194
v -0.17685573 0.17324814 0.06124228
v -0.17560880 0.17563809 0.06474262
v -0.17321887 0.17692501 0.06124228
v 0.17321887 0.17692501 0.00525035
v 0.17595517 0.17595982 0.06124228
v 0.17689038 0.17324814 0.05774194
v 0.17689038 0.11025566 0.02625236
v 0.17685573 0.10985515 0.02625236
v -0.17685573 0.10985515 0.02625236
v -0.17689038 0.11025566 0.02625236
v -0.17585126 0.17342542 0.06476277
v -0.17519316 0.17521133 0.06663723
v -0.17321887 0.17628155 0.06474262
v 0.17321887 0.17692501 0.06124228
v 0.17560880 0.17563809 0.06474262
v 0.17685573 0.17324814 0.06124228
v 0.17689038 0.16974857 0.05774194
v 0.17585126 0.17342542 0.06476277
v 0.17588591 0.10985515 0.02906069
v -0.17602445 0.10985515 0.02878523
v -0.17588591 0.10985515 0.02906069
v -0.17519316 0.17471232 0.06663723
v -0.17321887 0.17532294 0.06671113
v 0.17321887 0.17628155 0.06474262
v 0.17519316 0.17521133 0.06663723
v 0.17519316 0.17471232 0.06663723
v 0.17321887 0.10985515 0.03017596
v -0.17353060 0.10985515 0.03009534
v -0.17321887 0.10985515 0.03017596
v -0.17321887 0.17457443 0.06671113
v 0.17321887 0.17532294 0.06671113
v 0.17321887 0.17457443 0.06671113
v 0.16972055 0.10985515 0.03022299
v -0.17013618 0.10985515 0.03022299
f 1 2 3
f 1 3 9
f 1 9 4
f 1 4 10
f 1 10 18
f 1 18 26
f 1 26 36
f 1 36 47
f 1 47 55
f 1 55 61
f 1 61 62
f 1 62 57
f 1 57 56
f 1 56 49
f 1 49 48
f 1 48 37
f 1 37 27
f 1 27 19
f 1 19 11
f 1 11 5
f 1 5 2
f 2 5 6
f 2 6 3
f 3 6 7
f 3 7 8
f 3 8 15
f 3 15 9
f 4 9 17
f 4 17 10
f 5 11 6
f 6 11 12
f 6 12 7
f 7 12 13
f 7 13 14
f 7 14 8
f 8 14 23
f 8 23 15
f 9 15 16
f 9 16 17
f 10 17 25
f 10 25 18
f 11 19 12
f 12 19 27
f 12 27 38
f 12 38 28
f 12 28 20
f 12 20 21
f 12 21 13
f 13 21 31
f 13 31 22
f 13 22 14
f 14 22 32
f 14 32 23
f 15 23 16
f 16 24 25
f 16 25 17
f 16 23 24
f 18 25 34
f 18 34 45
f 18 45 35
f 18 35 26
f 20 28 29
f 20 29 21
f 21 30 31
f 21 29 30
f 22 31 42
f 22 42 32
f 23 32 24
f 24 32 42
f 24 42 33
f 24 33 34
f 24 34 25
f 26 35 36
f 27 37 38
f 28 38 29
f 29 38 37
f 29 37 39
f 29 39 40
f 29 40 30
f 30 40 41
f 30 41 31
f 31 41 52
f 31 52 42
f 33 42 43
f 33 43 44
f 33 44 34
f 34 44 45
f 35 45 44
f 35 44 36
f 36 44 46
f 36 46 47
f 37 48 39
f 39 48 49
f 39 49 50
f 39 50 40
f 40 50 58
f 40 58 51
f 40 51 41
f 41 51 59
f 41 59 52
f 42 52 43
f 43 52 53
f 43 53 44
f 44 53 46
f 46 53 54
f 46 54 47
f 47 54 55
f 49 56 50
f 50 56 57
f 50 57 58
f 51 58 60
f 51 60 59
f 52 59 53
f 53 59 60
f 53 60 54
f 54 60 55
f 55 60 61
f 57 62 58
f 58 62 61
f 58 61 60

