# https://github.com/mikedh/trimesh
v 0.17689038 0.08605876 0.04024635
v 0.17689038 0.08605876 0.00175279
v 0.17644010 0.08605876 0.04374878
v 0.17689038 0.08224294 0.04024635
v 0.17689038 0.00001341 0.00175279
v 0.17682109 0.08605876 0.00150634
v 0.17547026 0.08605876 0.04599052
v 0.17595517 0.00001341 0.02563472
v 0.17644010 0.00001341 0.02417972
v 0.17689038 0.00001341 0.02274841
v 0.17595517 0.00001341 -0.00095816
v 0.17595517 0.08605876 -0.00095816
v 0.17460434 0.00001341 0.02624136
v 0.17321887 0.08605876 0.04648816
v 0.17321887 0.00001341 0.02686223
v 0.17571272 0.08605876 -0.00104820
v 0.17321887 0.00001341 -0.00192500
v 0.16972055 0.00001341 0.02695228
v -0.17321887 0.08605876 0.04648816
v 0.17321887 0.08605876 -0.00192500
v -0.17321887 0.00001341 -0.00192500
v -0.16972055 0.00001341 0.02695228
v -0.17522781 0.08605876 0.04609953
v -0.17321887 0.00001341 0.02686223
v -0.17145239 0.00001341 0.02690962
v -0.17321887 0.08605876 -0.00192500
v -0.17460434 0.00001341 -0.00143684
v -0.17547026 0.08605876 0.04599052
v -0.17595517 0.00001341 0.02563472
v -0.17595517 0.08605876 -0.00095816
v -0.17595517 0.00001341 -0.00095816
v -0.17633619 0.08605876 0.04401418
v -0.17644010 0.08605876 0.04374878
v -0.17689038 0.00001341 0.02274841
v -0.17644010 0.00001341 0.00040679
v -0.17689038 0.08605876 0.00175279
v -0.17689038 0.08605876 0.04056389
v -0.17689038 0.08224294 0.04024635
v -0.17689038 0.00001341 0.00175279
f 1 2 6
f 1 6 12
f 1 12 16
f 1 16 20
f 1 20 26
f 1 26 30
f 1 30 36
f 1 36 37
f 1 37 33
f 1 33 32
f 1 32 28
f 1 28 23
f 1 23 19
f 1 19 14
f 1 14 7
f 1 7 3
f 1 3 4
f 1 4 10
f 1 10 5
f 1 5 2
f 2 5 6
f 3 7 8
f 3 8 9
f 3 9 10
f 3 10 4
f 5 10 9
f 5 9 8
f 5 8 13
f 5 13 15
f 5 15 18
f 5 18 22
f 5 22 25
f 5 25 24
f 5 24 29
f 5 29 34
f 5 34 39
f 5 39 35
f 5 35 31
f 5 31 27
f 5 27 21
f 5 21 17
f 5 17 11
f 5 11 6
f 6 11 12
f 7 13 8
f 7 14 15
f 7 15 13
f 11 16 12
f 11 17 16
f 14 18 15
f 14 19 22
f 14 22 18
f 16 17 20
f 17 21 26
f 17 26 20
f 19 23 24
f 19 24 25
f 19 25 22
f 21 27 26
f 23 28 29
f 23 29 24
f 26 27 30
f 27 31 30
f 28 32 29
f 29 32 33
f 29 33 34
f 30 31 35
f 30 35 36
f 33 37 38
f 33 38 34
f 34 38 37
f 34 37 36
f 34 36 39
f 35 39 36

