# https://github.com/mikedh/trimesh
v -0.17321887 -0.09897577 -0.00192500
v -0.17384233 -0.09897577 -0.00171078
v -0.17346132 -0.05396391 -0.00184467
v -0.17321887 -0.05396391 -0.00192500
v 0.17321887 -0.09897577 -0.00192500
v -0.17595517 -0.05396391 -0.00096100
v -0.17595517 -0.09897577 -0.00096100
v 0.17321887 -0.05396391 -0.00192500
v 0.17595517 -0.09897577 -0.00096100
v -0.17616299 -0.09897577 -0.00036119
v -0.17689038 -0.05396391 0.00175423
v 0.17595517 -0.05396391 -0.00096100
v 0.17682109 -0.05396391 0.00152930
v 0.17689038 -0.09897577 0.00175423
v -0.17689038 -0.09897577 0.00175423
v -0.17689038 -0.05396391 0.02974746
v 0.17689038 -0.05396391 0.00175423
v 0.17689038 -0.09897577 0.04724925
v -0.17689038 -0.09897577 0.04724925
v -0.17682109 -0.09624791 0.04724925
v -0.17678646 -0.06125288 0.03324996
v -0.17640545 -0.05775383 0.03324996
v -0.17682109 -0.05396391 0.02998310
v 0.17689038 -0.05396391 0.02974746
v 0.17619765 -0.09897577 0.05043578
v 0.17682109 -0.09624791 0.04724925
v -0.17605908 -0.09897577 0.05089635
v -0.17581663 -0.05396391 0.03328745
v 0.17595517 -0.05396391 0.03291257
v 0.17640545 -0.05775383 0.03324996
v 0.17678646 -0.06125288 0.03324996
v 0.17605908 -0.09897577 0.05089635
v -0.17401551 -0.09897577 0.05258334
v -0.17585126 -0.09624791 0.05016265
v -0.17543563 -0.05775383 0.03537074
v -0.17508925 -0.05575310 0.03507083
v -0.17332278 -0.05396391 0.03457277
v 0.17581663 -0.05396391 0.03328745
v 0.17321887 -0.09897577 0.05276543
v 0.17585126 -0.09624791 0.05016265
v -0.17550489 -0.09348921 0.04949857
v -0.17321887 -0.09897577 0.05276543
v -0.16989373 -0.05396391 0.03462097
v 0.17359987 -0.05396391 0.03438533
v 0.17508925 -0.05575310 0.03507083
v 0.17543563 -0.05775383 0.03537074
v 0.16972055 -0.09897577 0.05278149
v 0.17550489 -0.09348921 0.04949857
v 0.17321887 -0.05396391 0.03457277
v 0.16972055 -0.05396391 0.03462097
v -0.17124456 -0.09897577 0.05278149
v -0.16639540 -0.05396391 0.03462633
v 0.16622222 -0.09897577 0.05278685
v 0.16622222 -0.05396391 0.03462633
v -0.16774625 -0.09897577 0.05278685
f 1 2 3
f 1 3 4
f 1 4 8
f 1 8 5
f 1 5 9
f 1 9 14
f 1 14 18
f 1 18 25
f 1 25 32
f 1 32 39
f 1 39 47
f 1 47 53
f 1 53 55
f 1 55 51
f 1 51 42
f 1 42 33
f 1 33 27
f 1 27 19
f 1 19 15
f 1 15 10
f 1 10 7
f 1 7 2
f 2 6 3
f 2 7 6
f 3 6 11
f 3 11 16
f 3 16 23
f 3 23 28
f 3 28 37
f 3 37 43
f 3 43 52
f 3 52 54
f 3 54 50
f 3 50 49
f 3 49 44
f 3 44 38
f 3 38 29
f 3 29 24
f 3 24 17
f 3 17 13
f 3 13 12
f 3 12 8
f 3 8 4
f 5 8 12
f 5 12 9
f 6 7 10
f 6 10 11
f 9 12 13
f 9 13 14
f 10 15 11
f 11 15 19
f 11 19 16
f 13 17 14
f 14 17 24
f 14 24 18
f 16 19 20
f 16 20 21
f 16 21 22
f 16 22 23
f 18 24 26
f 18 26 25
f 19 27 20
f 20 27 22
f 20 22 21
f 22 27 28
f 22 28 23
f 24 29 30
f 24 30 31
f 24 31 26
f 25 26 30
f 25 30 32
f 26 31 30
f 27 33 34
f 27 34 28
f 28 34 35
f 28 35 36
f 28 36 37
f 29 38 30
f 30 38 32
f 32 38 40
f 32 40 39
f 33 36 41
f 33 41 34
f 33 42 36
f 34 41 36
f 34 36 35
f 36 42 37
f 37 42 43
f 38 44 45
f 38 45 46
f 38 46 40
f 39 40 48
f 39 48 45
f 39 45 49
f 39 49 50
f 39 50 47
f 40 46 45
f 40 45 48
f 42 51 43
f 43 51 55
f 43 55 52
f 44 49 45
f 47 50 54
f 47 54 53
f 52 55 53
f 52 53 54

