# https://github.com/mikedh/trimesh
v 0.17689038 0.00000813 0.02274802
v 0.17689038 0.00000813 0.00175305
v 0.17644010 0.00000813 0.02417917
v 0.17689038 -0.05074733 0.02974992
v 0.17689038 -0.05395950 0.00175305
v 0.17682109 -0.05395950 0.00152765
v 0.17595517 0.00000813 -0.00095897
v 0.17595517 0.00000813 0.02563178
v 0.17595517 -0.05395950 0.03291276
v 0.17689038 -0.05395950 0.02974992
v 0.17595517 -0.05395950 -0.00095897
v 0.17321887 0.00000813 -0.00192500
v 0.17581663 -0.05395950 0.03328843
v 0.17460434 0.00000813 0.02624360
v 0.17321887 -0.05395950 0.03457647
v 0.17321887 -0.05395950 -0.00192500
v -0.17321887 0.00000813 -0.00192500
v 0.17321887 0.00000813 0.02686257
v 0.17148703 0.00000813 0.02690909
v 0.16972055 0.00000813 0.02695560
v 0.16972055 -0.05395950 0.03462298
v -0.17321887 -0.05395950 -0.00192500
v -0.17346132 -0.05395950 -0.00184271
v -0.17460434 0.00000813 -0.00143841
v -0.16972055 0.00000813 0.02695560
v -0.16989373 -0.05395950 0.03462298
v -0.17595517 -0.05395950 -0.00095897
v -0.17595517 0.00000813 -0.00095897
v -0.17321887 0.00000813 0.02686257
v -0.17321887 -0.05395950 0.03457647
v -0.17644010 0.00000813 0.00040420
v -0.17689038 -0.05395950 0.00175305
v -0.17595517 0.00000813 0.02563178
v -0.17332278 -0.05395950 0.03457289
v -0.17689038 0.00000813 0.00175305
v -0.17689038 -0.05395950 0.02974992
v -0.17592054 -0.05074733 0.03256928
v -0.17581663 -0.05395950 0.03328843
v -0.17689038 0.00000813 0.02274802
v -0.17689038 -0.05074733 0.02974992
v -0.17682109 -0.05395950 0.02998248
f 1 2 7
f 1 7 12
f 1 12 17
f 1 17 24
f 1 24 28
f 1 28 31
f 1 31 35
f 1 35 39
f 1 39 33
f 1 33 29
f 1 29 25
f 1 25 20
f 1 20 19
f 1 19 18
f 1 18 14
f 1 14 8
f 1 8 3
f 1 3 4
f 1 4 10
f 1 10 5
f 1 5 2
f 2 5 6
f 2 6 7
f 3 8 4
f 4 8 9
f 4 9 10
f 5 10 9
f 5 9 13
f 5 13 15
f 5 15 21
f 5 21 26
f 5 26 30
f 5 30 34
f 5 34 38
f 5 38 41
f 5 41 36
f 5 36 32
f 5 32 27
f 5 27 23
f 5 23 22
f 5 22 16
f 5 16 11
f 5 11 6
f 6 11 7
f 7 11 16
f 7 16 12
f 8 13 9
f 8 14 15
f 8 15 13
f 12 16 22
f 12 22 17
f 14 18 15
f 15 18 19
f 15 19 20
f 15 20 21
f 17 22 23
f 17 23 24
f 20 25 26
f 20 26 21
f 23 27 24
f 24 27 28
f 25 29 30
f 25 30 26
f 27 31 28
f 27 32 31
f 29 33 34
f 29 34 30
f 31 32 35
f 32 36 40
f 32 40 39
f 32 39 35
f 33 37 38
f 33 38 34
f 33 39 40
f 33 40 37
f 36 41 40
f 37 40 38
f 38 40 41

