# https://github.com/mikedh/trimesh
v -0.17321887 0.08606718 -0.00192500
v -0.17595517 0.08606718 -0.00095342
v -0.17321887 0.17324302 -0.00192500
v 0.17321887 0.08606718 -0.00192500
v -0.17595517 0.17324302 -0.00095342
v -0.17689038 0.08606718 0.00175010
v -0.17560880 0.17563542 -0.00063661
v -0.17321887 0.17595559 -0.00095342
v 0.17321887 0.17324302 -0.00192500
v 0.17571272 0.08606718 -0.00104847
v -0.17689038 0.17324302 0.00175010
v -0.17689038 0.08606718 0.04057102
v -0.17595517 0.17595559 0.00175010
v -0.17321887 0.17692501 0.00175010
v 0.17321887 0.17595559 -0.00095342
v 0.17560880 0.17563542 -0.00063661
v 0.17595517 0.17324302 -0.00095342
v 0.17595517 0.08606718 -0.00095342
v -0.17689038 0.17324302 0.09974229
v -0.17644010 0.08606718 0.04376033
v -0.17685573 0.08925112 0.04376033
v -0.17595517 0.17595559 0.10324842
v -0.17321887 0.17692501 0.10324842
v 0.17321887 0.17692501 0.00175010
v 0.17595517 0.17595559 0.00175010
v 0.17689038 0.17324302 0.00175010
v 0.17682109 0.08606718 0.00150721
v -0.17612836 0.17302068 0.10347019
v -0.17560880 0.17563542 0.10563512
v -0.17633619 0.08606718 0.04402435
v -0.17560880 0.17403457 0.10563512
v -0.17321887 0.17595559 0.10596251
v 0.17321887 0.17692501 0.10324842
v 0.17595517 0.17595559 0.10324842
v 0.17689038 0.08606718 0.00175010
v 0.17689038 0.17324302 0.09974229
v -0.17547026 0.08606718 0.04599919
v -0.17522781 0.08606718 0.04610479
v -0.17321887 0.17355430 0.10596251
v 0.17321887 0.17595559 0.10596251
v 0.17560880 0.17563542 0.10563512
v 0.17689038 0.08606718 0.04025420
v 0.17612836 0.17302068 0.10347019
v 0.17644010 0.08606718 0.04376033
v 0.17685573 0.08925112 0.04376033
v -0.17321887 0.08606718 0.04649554
v 0.17321887 0.17355430 0.10596251
v 0.17560880 0.17403457 0.10563512
v 0.17547026 0.08606718 0.04599919
v 0.17321887 0.08606718 0.04649554
f 1 2 5
f 1 5 3
f 1 3 9
f 1 9 4
f 1 4 10
f 1 10 18
f 1 18 27
f 1 27 35
f 1 35 42
f 1 42 44
f 1 44 49
f 1 49 50
f 1 50 46
f 1 46 38
f 1 38 37
f 1 37 30
f 1 30 20
f 1 20 12
f 1 12 6
f 1 6 2
f 2 6 11
f 2 11 5
f 3 5 7
f 3 7 8
f 3 8 15
f 3 15 9
f 4 9 10
f 5 11 7
f 6 12 19
f 6 19 11
f 7 11 13
f 7 13 14
f 7 14 8
f 8 14 24
f 8 24 15
f 9 15 16
f 9 16 17
f 9 17 10
f 10 17 18
f 11 19 22
f 11 22 13
f 12 20 21
f 12 21 19
f 13 22 23
f 13 23 14
f 14 23 33
f 14 33 24
f 15 24 16
f 16 25 26
f 16 26 17
f 16 24 25
f 17 26 27
f 17 27 18
f 19 21 20
f 19 20 28
f 19 28 29
f 19 29 22
f 20 30 31
f 20 31 28
f 22 29 23
f 23 29 32
f 23 32 40
f 23 40 33
f 24 33 34
f 24 34 25
f 25 34 36
f 25 36 26
f 26 35 27
f 26 36 42
f 26 42 35
f 28 31 29
f 29 31 39
f 29 39 32
f 30 37 31
f 31 37 38
f 31 38 39
f 32 39 47
f 32 47 40
f 33 40 41
f 33 41 34
f 34 41 36
f 36 43 44
f 36 44 45
f 36 45 42
f 36 41 43
f 38 46 39
f 39 46 50
f 39 50 47
f 40 47 48
f 40 48 41
f 41 48 43
f 42 45 44
f 43 48 44
f 44 48 49
f 47 50 49
f 47 49 48

