# https://github.com/mikedh/trimesh
v -0.17321887 -0.17324750 -0.00192500
v -0.17321887 -0.17595605 -0.00095342
v -0.17560880 -0.17563559 -0.00063661
v -0.17595517 -0.17324750 -0.00095342
v -0.17321887 -0.09898017 -0.00192500
v 0.17321887 -0.17324750 -0.00192500
v -0.17321887 -0.17692501 0.00175010
v 0.17321887 -0.17595605 -0.00095342
v -0.17595517 -0.17595605 0.00175010
v -0.17689038 -0.17324750 0.00175010
v -0.17616299 -0.09898017 -0.00036202
v -0.17595517 -0.09898017 -0.00095342
v 0.17321887 -0.09898017 -0.00192500
v 0.17595517 -0.17324750 -0.00095342
v 0.17560880 -0.17563559 -0.00063661
v -0.17321887 -0.17692501 0.10324842
v 0.17321887 -0.17692501 0.00175010
v -0.17595517 -0.17595605 0.10324842
v -0.17689038 -0.09898017 0.00175010
v -0.17689038 -0.17324750 0.09974229
v 0.17595517 -0.09898017 -0.00095342
v 0.17689038 -0.17324750 0.00175010
v 0.17595517 -0.17595605 0.00175010
v -0.17321887 -0.17595605 0.10596251
v -0.17560880 -0.17563559 0.10563512
v 0.17321887 -0.17692501 0.10324842
v -0.17689038 -0.09898017 0.04725590
v -0.17612836 -0.17301860 0.10347019
v -0.17682109 -0.10325279 0.05075147
v 0.17689038 -0.09898017 0.00175010
v 0.17689038 -0.17324750 0.09974229
v 0.17595517 -0.17595605 0.10324842
v -0.17321887 -0.17356032 0.10596251
v 0.17321887 -0.17595605 0.10596251
v -0.17560880 -0.17403336 0.10563512
v 0.17560880 -0.17563559 0.10563512
v -0.17605908 -0.09898017 0.05089932
v 0.17689038 -0.09898017 0.04725590
v 0.17612836 -0.17301860 0.10347019
v 0.17682109 -0.10325279 0.05075147
v -0.16972055 -0.17180549 0.10471635
v -0.17124456 -0.09898017 0.05277912
v -0.17321887 -0.09898017 0.05276856
v -0.17401551 -0.09898017 0.05257846
v 0.17321887 -0.17356032 0.10596251
v -0.17553954 -0.10048322 0.05303257
v 0.17560880 -0.17403336 0.10563512
v 0.17619765 -0.09898017 0.05044522
v 0.17605908 -0.09898017 0.05089932
v 0.16972055 -0.17180549 0.10471635
v 0.16972055 -0.09898017 0.05277912
v 0.17321887 -0.09898017 0.05276856
v 0.17553954 -0.10048322 0.05303257
f 1 2 3
f 1 3 4
f 1 4 12
f 1 12 5
f 1 5 13
f 1 13 6
f 1 6 8
f 1 8 2
f 2 7 3
f 2 8 17
f 2 17 7
f 3 9 10
f 3 10 4
f 3 7 9
f 4 11 12
f 4 10 11
f 5 12 11
f 5 11 19
f 5 19 27
f 5 27 37
f 5 37 44
f 5 44 43
f 5 43 42
f 5 42 51
f 5 51 52
f 5 52 49
f 5 49 48
f 5 48 38
f 5 38 30
f 5 30 21
f 5 21 13
f 6 13 21
f 6 21 14
f 6 14 15
f 6 15 8
f 7 16 18
f 7 18 9
f 7 17 26
f 7 26 16
f 8 15 17
f 9 18 20
f 9 20 10
f 10 19 11
f 10 20 27
f 10 27 19
f 14 21 30
f 14 30 22
f 14 22 15
f 15 22 23
f 15 23 17
f 16 24 25
f 16 25 18
f 16 26 34
f 16 34 24
f 17 23 32
f 17 32 26
f 18 25 20
f 20 25 28
f 20 28 29
f 20 29 27
f 22 30 38
f 22 38 31
f 22 31 32
f 22 32 23
f 24 33 35
f 24 35 25
f 24 34 45
f 24 45 33
f 25 35 28
f 26 32 36
f 26 36 34
f 27 29 37
f 28 35 37
f 28 37 29
f 31 39 36
f 31 36 32
f 31 38 40
f 31 40 39
f 33 41 42
f 33 42 43
f 33 43 44
f 33 44 35
f 33 45 50
f 33 50 41
f 34 36 47
f 34 47 45
f 35 44 46
f 35 46 37
f 36 39 47
f 37 46 44
f 38 48 40
f 39 40 48
f 39 48 49
f 39 49 47
f 41 50 51
f 41 51 42
f 45 47 52
f 45 52 51
f 45 51 50
f 47 49 53
f 47 53 52
f 49 52 53

