# https://github.com/mikedh/trimesh
v 33.47635852 46.31333621 42.69641655
v 33.78652909 46.31333621 43.34994820
v 33.48401896 46.31333621 42.34442591
v 33.65058976 45.93050846 41.83306349
v 33.63335892 45.93050846 42.69641655
v 34.02585604 45.25040178 43.25249356
v 34.57152334 46.31333621 43.58843199
v 33.88608906 45.93050846 43.33962974
v 34.57152334 45.93050846 43.57696704
v 33.49550447 46.31333621 41.83306349
v 33.68888166 45.93050846 40.97085820
v 34.00287987 45.17768547 40.97085820
v 33.98564903 45.15416048 41.83306349
v 33.97224584 45.13491299 42.69641655
v 35.00039726 42.90638656 43.13210389
v 34.89700707 43.34268185 43.23644006
v 34.70363246 44.20671613 43.35109469
v 35.43501650 46.31333621 43.60104343
v 35.43501650 44.20671613 43.58843199
v 35.43501650 45.06861165 43.60104343
v 35.43501650 43.34268185 43.47377736
v 33.53379638 46.31333621 40.97085820
v 33.55868765 46.31333621 40.56727272
v 33.58740658 46.31333621 40.10865292
v 33.74440697 45.93050846 40.10865292
v 34.03159880 45.24184805 40.10865292
v 34.21540301 44.80983027 40.10865292
v 34.18859919 44.74780644 40.97085820
v 34.17902622 44.72214269 41.83306349
v 35.00039726 42.90638656 43.05070018
v 35.73561153 41.81778710 43.25937253
v 35.67434346 41.70871328 42.69641655
v 36.59144682 40.10040974 42.69641655
v 36.63165383 40.16884983 43.23529357
v 35.44267437 42.56419383 43.30523490
v 36.29659713 45.93050846 43.60104343
v 36.29659713 46.31333621 43.59875044
v 36.29659713 43.34268185 43.60104343
v 36.29659713 42.48078504 43.58269951
v 38.02166834 39.89295586 43.60104343
v 36.47274090 40.75485267 43.32701830
v 37.16009029 40.75485267 43.56435302
v 33.62570105 46.31333621 39.66493883
v 33.81907566 45.93050846 39.24530114
v 34.06989070 45.34022811 39.24530114
v 34.26326788 44.90821033 39.24530114
v 34.58683907 44.20671613 39.24530114
v 34.50259484 44.20671613 40.10865292
v 34.44515698 44.20671613 40.97085820
v 34.41835317 44.20671613 41.83306349
v 35.01188534 42.93205031 42.47513147
v 35.69923473 41.74721083 40.97085820
v 35.68391643 41.72368454 41.83306349
v 35.92515849 41.29380552 41.83306349
v 36.23724160 40.75485267 41.83306349
v 35.93856169 41.31519304 40.97085820
v 36.60868023 40.12821352 41.83306349
v 36.87289589 39.69833449 41.83306349
v 36.86140781 39.66839453 42.69641655
v 37.57939123 38.58193381 43.14357140
v 38.34715464 37.58102064 43.23987955
v 37.12562604 39.88653960 43.38205262
v 53.03421169 26.95809517 43.60104343
v 37.15051732 46.31333621 43.37861314
v 52.68383669 27.81999198 43.59760394
v 53.03421169 27.84993451 43.52766519
v 38.88516408 38.16916481 43.56779508
v 39.74674213 37.30512925 43.59875044
v 40.61023529 36.44323244 43.60104343
v 38.02166834 39.03106162 43.49441426
v 33.66207784 46.31333621 39.25676609
v 33.94926967 45.84496092 38.29710488
v 33.75206484 46.31333621 38.33952648
v 34.10818517 45.42791441 38.52756064
v 34.68065629 44.20671613 38.38309586
v 34.94104430 43.64637703 38.38309586
v 34.89700707 43.56296696 39.24530114
v 34.85871517 43.49025065 40.10865292
v 34.82999624 43.43250689 40.97085820
v 35.02720108 42.96199156 41.83306349
v 35.31439547 42.48078504 40.97085820
v 35.72795366 41.79853832 40.10865292
v 35.96728061 41.36652054 40.10865292
v 36.27170585 40.75485267 40.97085820
v 36.62973872 40.16457232 40.97085820
v 36.89395695 39.73255454 40.97085820
v 37.32474598 39.03961406 40.97085820
v 37.59662464 38.60759885 40.97085820
v 37.58513399 38.59048883 42.00963270
v 37.57747612 38.57979506 42.69641655
v 37.86658563 38.14991603 42.69641655
v 38.29737466 37.51258313 42.69641655
v 38.60371501 37.08056534 42.69641655
v 40.15072734 35.11723912 43.16076883
v 39.12257592 36.62929879 43.28230243
v 38.85453004 37.29871299 43.38319912
v 53.03421169 26.09405960 43.60104343
v 37.55258742 46.31333621 42.93489905
v 53.03421169 28.55998245 43.31899283
v 40.61023529 35.58133563 43.50817477
v 41.47181592 34.71943882 43.54600910
v 42.33530908 33.85754201 43.55862055
v 43.19688970 32.99564777 43.56894157
v 44.05846776 32.13161221 43.56894157
v 44.92004838 32.13161221 43.60104343
v 34.14073174 45.50062943 37.95199321
v 33.81333291 46.31333621 37.85682900
v 33.98373392 46.00536352 37.52203707
v 34.97742109 43.72123081 37.78115648
v 35.15548254 43.21649800 38.38309586
v 35.11336042 43.13095046 39.24530114
v 35.07698363 43.05823287 40.10865292
v 35.04826214 43.00262787 40.97085820
v 35.37183333 42.48078504 40.10865292
v 35.45224735 42.48078504 39.24530114
v 35.77199089 41.88194840 39.24530114
v 36.01323295 41.44993061 39.24530114
v 36.75036232 40.36347119 38.17557000
v 36.72164083 40.31427987 38.75113871
v 36.33105881 40.75485267 40.10865292
v 36.66037276 40.21376106 40.10865292
v 36.92459099 39.78174328 40.10865292
v 37.35538258 39.08452787 40.10865292
v 37.62725611 38.65464884 40.10865292
v 37.96806071 38.16916481 40.10865292
v 37.90679264 38.16916481 40.97085820
v 38.31077785 37.53824816 41.83306349
v 38.62286096 37.10836913 41.83306349
v 39.07662615 36.54802875 40.97085820
v 39.39445201 36.11814972 40.97085820
v 39.38104882 36.09676220 41.83306349
v 39.03450403 36.51380871 42.69641655
v 40.14306947 35.10654536 42.69641655
v 40.49918981 34.67666633 42.69641655
v 40.92997883 34.16551727 42.69641655
v 40.96252798 34.20187349 43.21007068
v 40.64852976 34.78574015 43.29147696
v 52.68383669 26.09405960 43.60104343
v 53.03421169 25.19794275 43.47836334
v 37.56598804 46.31333621 42.91540735
v 53.03421169 28.85298387 42.71132098
v 41.49670719 33.89176205 43.33160428
v 42.34679716 33.01489397 43.35109469
v 43.20263246 32.13802846 43.36026922
v 44.92004838 31.26971540 43.55862055
v 48.37019595 28.68188879 43.59875044
v 47.50861533 29.54378559 43.60104343
v 34.17328089 45.57334574 37.52203707
v 34.52940122 45.06861165 36.65868400
v 34.40112233 45.06861165 37.52203707
v 33.85737014 46.31333621 37.52203707
v 34.05649008 46.16362737 36.65868400
v 34.23646407 45.73160959 36.65868400
v 35.02145832 43.81319461 37.20788205
v 35.18228636 43.39828685 37.50598485
v 35.68200389 42.43159372 37.56445866
v 35.54414945 42.48078504 38.38309586
v 35.82368341 41.97391219 38.38309586
v 36.06301036 41.54189570 38.38309586
v 36.55315492 40.87675900 37.52203707
v 36.80013974 40.44687998 37.52203707
v 37.14668710 39.89295586 37.52203707
v 37.44536958 39.24279300 38.38309586
v 36.97054075 39.97422589 38.43125121
v 37.39750213 39.16365915 39.24530114
v 36.96479800 39.84590587 39.24530114
v 35.85431745 42.02951848 37.87976018
v 36.69866723 40.27792365 39.24530114
v 37.67895120 38.73164137 39.24530114
v 38.43522653 37.71148199 38.66743944
v 38.40459249 37.67084569 39.24530114
v 38.36438548 37.61524069 40.10865292
v 38.33183634 37.57032688 40.97085820
v 39.10917273 36.59080381 40.10865292
v 39.42700116 36.15878603 40.10865292
v 39.85779019 35.61769442 40.10865292
v 39.89033933 35.49792684 40.95251428
v 39.79077936 35.58133563 41.83306349
v 40.15647010 35.12365538 41.83306349
v 40.52024830 34.69163760 41.83306349
v 40.95103989 34.18476347 41.83306349
v 41.78006880 33.29078794 40.97085820
v 41.76475307 33.27581667 41.83306349
v 41.32247596 33.73349949 42.69641655
v 41.80112986 33.31431422 43.22726810
v 42.15341998 32.83310513 42.69641655
v 42.58421158 32.37114738 42.69641655
v 51.82034352 26.09405960 43.56435302
v 50.95876290 26.95809517 43.60104343
v 52.63022648 25.17014153 43.39695963
v 53.03421169 24.60980116 43.26854449
v 40.11052033 46.31333621 31.88903714
v 53.03421169 31.54774555 31.88903714
v 42.64164943 32.42889113 43.24217254
v 43.49174197 31.57768809 43.24217254
v 44.07761628 31.28040916 43.35109469
v 45.78354154 30.40781859 43.54600910
v 49.23368911 27.81999198 43.56779508
v 34.67108331 45.06861165 35.79647872
v 34.86446050 44.34145369 36.65868400
v 33.96267286 46.31333621 36.86277038
v 34.11009771 46.28553371 36.05215993
v 34.28624405 45.97114476 35.77698702
v 35.06932320 43.90943591 36.65868400
v 35.35268738 43.34268185 36.65868400
v 34.93530154 44.49758008 35.79647872
v 35.71838068 42.63690885 36.65868400
v 35.95004977 42.20489235 36.65868400
v 35.89835468 42.10864976 37.30533925
v 36.62399597 41.00722035 36.65868400
v 36.27553350 41.61888823 36.65868400
v 36.88055376 40.57520257 36.65868400
v 37.60811016 39.48874186 36.32618506
v 37.55833017 39.41388808 36.90060599
v 37.50663765 39.33689555 37.52203707
v 38.46969078 37.76281206 38.09301851
v 38.71476049 37.37570552 38.38194936
v 39.14937974 36.65282507 39.24530114
v 38.71859071 37.23882791 39.24530114
v 38.67838370 37.18322291 40.10865292
v 39.47869625 36.22080729 39.24530114
v 39.90948528 35.67543818 39.24530114
v 40.25603264 35.24555915 39.24530114
v 40.21008030 35.18781540 40.10865292
v 40.18519159 35.15787286 40.65211720
v 40.16795818 35.14076283 41.22768591
v 40.97592860 34.21256726 40.97085820
v 41.34927978 33.78054948 40.97085820
v 41.81453306 33.32714674 40.10865292
v 42.18979934 32.85877016 40.97085820
v 42.59952731 32.39253233 41.83306349
v 43.00351252 31.93912960 42.69641655
v 50.95110503 26.06197831 43.38205262
v 51.82034352 25.40753538 43.32701830
v 50.09526974 26.95809517 43.49441426
v 52.88295663 24.66968623 43.25937253
v 53.03421169 24.46650986 42.70788150
v 35.05975022 46.31333621 31.88903714
v 53.03421169 26.15608343 31.88903714
v 43.43430154 31.51994433 42.69641655
v 44.37821130 30.73504005 43.22726810
v 44.95451006 30.43134487 43.33160428
v 46.64512217 29.54378559 43.50817477
v 48.36253552 27.79004944 43.38319912
v 34.84914219 45.04080915 34.96752307
v 34.98316642 44.59809889 35.27709212
v 34.47196337 45.93050846 34.93427344
v 33.99713455 46.31333621 36.65868400
v 34.10243984 46.31333621 36.03610772
v 34.18859919 46.31333621 35.54423828
v 34.22306087 46.31333621 35.36537608
v 35.14973722 44.06770105 35.79647872
v 35.51351542 43.34268185 35.79647872
v 35.79687960 42.78020272 35.79647872
v 36.01897571 42.34818494 35.79647872
v 36.68334893 41.11201667 35.98909886
v 36.47848366 41.54189570 35.73915141
v 37.39367449 40.00202968 35.79647872
v 37.65789271 39.57001190 35.79647872
v 36.73695913 41.20184172 35.41353143
v 38.00826772 39.03106162 35.79647872
v 37.82063329 39.08880537 36.63116684
v 38.29737466 38.36806368 36.65868400
v 38.22653361 38.25898985 37.52203707
v 38.51564055 37.82697207 37.52203707
v 38.89282194 37.30512925 37.52203707
v 39.26042779 36.80467395 37.52203707
v 39.19724718 36.72126259 38.38309586
v 39.96692313 35.74387827 38.38309586
v 40.30772516 35.31613799 38.38309586
v 40.74043187 34.79001766 38.38309586
v 41.10229496 34.35799988 38.38309586
v 41.06400049 34.31522482 39.03662879
v 40.75383249 34.64886255 39.29231000
v 40.60832275 34.71943882 40.10865292
v 41.38182892 33.82118578 40.10865292
v 41.86814326 33.38916800 39.24530114
v 42.27404101 32.95715022 39.24530114
v 42.74312451 32.54010371 38.65024202
v 42.70483261 32.50160616 39.24530114
v 42.22426102 32.89726771 40.10865292
v 42.65696516 32.45455617 40.10865292
v 42.62058837 32.41819737 40.97085820
v 43.02648869 31.96051455 41.83306349
v 43.45536260 31.53491303 41.83306349
v 51.23255410 25.56793927 43.23529357
v 48.64589969 27.28103913 43.23987955
v 53.03421169 24.47934238 42.09677016
v 52.77382368 24.60980116 42.69641655
v 34.92955621 46.19784613 32.51963953
v 35.02911619 46.31333621 31.99566630
v 35.84283193 44.58954388 31.88903714
v 35.12484851 45.91767594 32.27771754
v 53.03421169 26.02134458 32.32243277
v 52.37749634 26.51538362 31.88903714
v 43.90721269 31.10289782 41.83306349
v 44.33800429 30.70082001 41.83306349
v 43.89763972 31.08792655 42.69641655
v 45.26468063 29.89666952 43.21007068
v 45.84863983 29.58441933 43.29147696
v 47.69433465 28.05738839 43.28230243
v 35.04634703 44.73497521 34.70152341
v 34.66725309 45.93050846 34.07206815
v 34.92764111 45.33167310 34.07206815
v 35.82751363 43.70198203 33.48159501
v 35.76241791 43.56938322 34.07206815
v 35.69540452 43.30846180 34.96866957
v 35.84665958 42.87430527 35.27823861
v 34.31496298 46.31333621 34.93427344
v 34.50834016 46.31333621 34.06748217
v 36.08790164 42.54494505 34.96866957
v 36.54166684 41.72796205 34.93427344
v 38.22079086 38.98400906 34.95720462
v 38.42756866 38.56268504 35.25989341
v 37.48557402 40.15173980 34.93427344
v 37.75170736 39.71972202 34.93427344
v 36.79248187 41.29594427 34.93427344
v 37.61959824 40.37202620 33.76708638
v 37.11796817 40.75485267 34.93427344
v 38.37395846 38.48569251 35.79647872
v 38.59605457 37.93818465 36.65868400
v 39.07662615 37.25593793 36.71027884
v 39.30446502 36.86027895 37.03245933
v 40.15647010 35.98341087 36.10719426
v 40.03393653 35.82728706 37.52203707
v 40.37473856 35.39740803 37.52203707
v 40.80552759 34.86701019 37.52203707
v 41.16930579 34.43713116 37.52203707
v 41.94089941 33.46616053 38.21913938
v 41.60584014 33.79552075 38.45762188
v 41.03336902 34.28100478 39.61219750
v 42.78333152 32.58287876 38.07581980
v 43.64108192 31.71456569 38.05403640
v 43.60087491 31.67606814 38.62960382
v 43.56449555 31.63971192 39.24530114
v 43.51854578 31.59265936 40.10865292
v 43.48216899 31.55630056 40.97085820
v 43.92061588 31.12642153 40.97085820
v 44.35332002 30.71151377 40.97085820
v 51.16554071 25.52730554 42.69641655
v 49.64724730 26.51324487 43.14357140
v 46.17986889 29.08610278 43.16076883
v 52.35835039 24.86003009 41.83306349
v 52.79105452 24.62049492 41.83306349
v 52.81211558 24.63546619 40.97085820
v 53.03421169 24.50714359 41.23227189
v 34.84722709 46.31333621 32.65263936
v 34.89509196 46.31333621 32.46689820
v 35.49053925 45.06861165 32.34650981
v 35.05783511 45.62253577 33.00233701
v 34.86446050 45.91767594 33.25801694
v 35.85623256 44.56174009 31.88903714
v 35.98259634 44.01423223 32.34650981
v 35.77581854 44.44411126 32.34650981
v 53.03421169 25.89302198 32.78219971
v 52.61490947 26.26301593 32.29376911
v 52.28176530 26.54318741 31.97044213
v 52.30474018 26.55601992 31.88903714
v 45.22830127 29.86458823 42.69641655
v 44.79751224 30.25811103 42.69641655
v 44.32843131 30.69012624 42.69641655
v 35.12101829 44.89965532 34.07206815
v 35.89835468 43.84099840 32.90717408
v 34.70171735 46.31333621 33.23623354
v 34.98699407 45.46641067 33.57790444
v 36.06684058 43.38545433 33.20068963
v 35.98259634 43.13736544 34.07206815
v 35.90984276 42.99835036 34.70381640
v 36.33488903 42.48078504 34.07206815
v 36.89204184 41.47987187 34.07206815
v 36.64888467 41.90975090 34.07206815
v 37.82446351 39.94214717 34.06060192
v 38.29163190 39.21712797 34.07206815
v 38.49840971 38.66534260 34.68432598
v 39.35041736 37.78633577 33.78428380
v 39.28148885 37.68795571 34.35985251
v 39.21064781 37.59385316 34.93427344
v 39.52464602 37.16183538 34.93427344
v 39.42891627 37.02923528 35.79647872
v 39.11491805 37.45911431 35.79647872
v 38.68412903 38.05367473 35.79647872
v 37.43005128 40.91953406 33.20871637
v 37.35538258 40.69924766 34.06060192
v 37.69235440 40.48965503 33.20871637
v 38.14803470 39.81596333 33.14450881
v 39.36190287 36.93727148 36.45689191
v 40.21008030 36.05185096 35.53162555
v 40.88785672 34.97180650 36.65868400
v 41.25737767 34.53978872 36.65868400
v 41.68816927 34.05002719 36.65868400
v 41.60200992 33.96234089 37.52203707
v 42.00025237 33.53032311 37.52203707
v 42.83311150 32.63420626 37.52203707
v 43.26390053 32.19577222 37.52203707
v 42.43104140 33.06622404 37.52203707
v 44.48542913 30.83555886 38.79585329
v 44.45287999 30.80348014 39.24530114
v 44.38969938 30.74787257 40.10865292
v 43.69277702 31.76589319 37.52203707
v 44.12548115 31.36595670 37.52203707
v 44.59456208 30.93393892 37.52203707
v 45.02535111 30.54041869 37.52203707
v 45.42167845 30.03782464 38.38309586
v 43.95890779 31.16278033 40.10865292
v 44.88175648 30.31585479 40.10865292
v 44.84346458 30.28163474 40.97085820
v 45.24744722 29.88597576 41.83306349
v 52.38132656 24.87286261 40.97085820
v 51.82034352 25.17228029 41.83306349
v 50.73475168 25.79678068 42.69641655
v 50.76155807 25.80747444 41.83306349
v 51.19425963 25.54441299 41.83306349
v 48.14618473 27.53768175 42.69641655
v 48.57697376 27.23184781 42.69641655
v 49.21454316 26.80196878 42.69641655
v 49.64533219 26.51324487 42.69641655
v 50.09526974 26.21596594 42.69641655
v 45.73759177 29.43470920 42.69641655
v 46.17029591 29.07754777 42.69641655
v 47.57945637 27.96969953 42.69641655
v 53.03421169 24.55847109 40.32535073
v 53.03421169 24.51783736 40.97085820
v 52.86381068 24.66326998 40.10865292
v 35.67817367 44.15966485 33.20068963
v 35.21674804 45.13491299 33.25801694
v 36.05343739 44.15752610 31.88903714
v 36.31957073 43.63140576 31.88903714
v 53.03421169 25.80319694 33.10667319
v 52.14008450 26.45977605 32.54601020
v 51.83948947 26.71855999 32.29376911
v 52.20326767 26.61804118 31.88903714
v 45.75482262 29.45395798 41.83306349
v 36.46891068 43.34268185 31.88903714
v 36.71015274 42.87858277 31.88903714
v 36.72164083 42.85719525 31.88903714
v 36.64314192 42.75881519 32.34650981
v 36.78865422 42.15784108 33.00463000
v 36.55507003 42.45939751 33.25916344
v 36.71206785 42.02096347 33.58019743
v 36.98203141 41.68732575 33.25916344
v 38.38353143 39.35828051 33.38987156
v 38.57882373 38.78724894 34.07206815
v 39.12640614 38.32314987 33.20871637
v 39.42508605 37.89327084 33.20871637
v 39.89991230 37.25807668 33.22476730
v 40.06839821 36.73195635 34.07206815
v 39.95543762 36.57797129 34.93427344
v 37.52195338 41.07138037 32.55632865
v 37.78617161 40.77196269 32.29950223
v 38.24950978 40.01700095 32.34650981
v 38.46394545 39.47804810 32.81430285
v 40.28475156 36.14595351 34.93427344
v 40.77489355 35.54070189 34.99848101
v 41.03145391 35.14076283 35.32868696
v 40.97975882 35.08088033 35.79647872
v 41.35119489 34.64886255 35.79647872
v 41.78198391 34.14840725 35.79647872
v 42.16490806 33.71852822 35.79647872
v 42.08066640 33.62014816 36.65868400
v 42.51145542 33.15391033 36.65868400
v 42.92309850 32.72403131 36.65868400
v 42.59569966 33.24801289 35.79647872
v 43.35197499 32.28987477 36.65868400
v 45.37572868 29.99718833 39.02401734
v 44.21738326 31.44508798 36.65868400
v 44.68072143 31.01521153 36.65868400
v 43.78659166 31.85785956 36.65868400
v 45.11151045 30.62168872 36.65868400
v 45.50209247 30.10840091 37.52203707
v 45.93288150 29.73840696 37.52203707
v 45.85246748 29.66996687 38.38309586
v 45.34317954 29.96724579 39.59843827
v 45.31254551 29.94372208 40.10865292
v 45.27425360 29.90950204 40.97085820
v 45.86204045 29.40904674 40.96053975
v 51.82034352 25.20649776 40.97085820
v 52.43110654 24.90280258 40.10865292
v 49.67213601 26.53035489 40.97085820
v 50.10484271 26.25873843 40.97085820
v 50.79793486 25.82885940 40.97085820
v 51.22872389 25.56580052 40.97085820
v 47.16015543 28.31616977 41.83306349
v 47.17930138 28.32900229 40.97085820
v 47.61009041 28.01033583 40.97085820
v 48.17298855 27.55693052 41.83306349
v 48.60377758 27.24681908 41.83306349
v 49.66447814 26.52607738 41.41915955
v 49.65682027 26.51966113 41.99358048
v 46.18752675 29.09038029 41.83306349
v 46.64512217 28.72466127 41.83306349
v 53.03421169 24.57344236 40.10865292
v 52.94613981 24.70818121 39.24530114
v 53.03421169 24.66113122 39.24530114
v 53.03421169 25.68770686 33.53089686
v 51.56569827 26.63515121 33.20871637
v 53.03421169 25.61712801 33.79689653
v 52.97102851 25.58077179 34.07206815
v 51.99648730 26.36995357 33.20871637
v 51.08321415 27.18479782 32.34650981
v 51.47379617 27.07786275 31.88903714
v 46.20284505 29.10535156 41.24029735
v 36.94565205 42.45512000 31.88903714
v 36.88055376 42.32679741 32.34650981
v 38.65349499 39.05458533 33.14450881
v 39.22979376 38.47072124 32.49900134
v 39.98798419 37.49333435 32.34650981
v 39.51124540 38.17771982 32.26510546
v 40.22922625 36.93727148 32.94844918
v 40.14498458 36.83033641 33.52401661
v 37.32666109 41.55472693 32.29950223
v 37.38410151 41.67449452 31.88903714
v 37.61194038 41.22322924 31.98190772
v 37.94699965 40.72704888 31.88903714
v 38.14420448 40.40624367 31.88903714
v 38.32226337 40.12607477 31.88903714
v 38.83346898 39.34972550 31.88903714
v 38.53478650 39.58498317 32.34650981
v 40.40728770 36.29993857 34.07206815
v 40.96252798 35.91497335 33.20871637
v 41.31098788 35.48295557 33.20871637
v 40.83807673 35.76526323 34.07206815
v 41.19419706 35.33538677 34.07206815
v 41.10612261 35.22631295 34.75426474
v 41.47947378 34.72799383 34.96293709
v 41.85474007 34.23181603 35.17275594
v 42.68185644 33.33997668 35.07873822
v 43.02074336 32.81813386 35.79647872
v 46.30814778 29.18876034 39.24530114
v 45.71078539 29.68707689 39.28543103
v 44.31885834 31.53491303 35.79647872
v 44.77453607 31.10289782 35.79647872
v 43.45153496 32.39039358 35.79647872
v 43.88806674 31.95837580 35.79647872
v 45.20532767 30.70937502 35.79647872
v 45.60356755 30.18967094 36.65868400
v 46.03435658 29.82395450 36.65868400
v 46.45748774 29.30638918 37.52203707
v 46.37324607 29.23794909 38.38309586
v 46.25262504 29.14598529 40.10865292
v 45.78354154 29.54378559 40.10865292
v 46.22199101 29.12032282 40.66472993
v 51.82034352 25.26638284 40.10865292
v 52.51534949 24.94771638 39.24530114
v 51.42784383 25.68556810 38.18588845
v 48.63441418 27.26820661 40.97085820
v 49.23368911 26.90462635 40.10865292
v 49.71808834 26.56243618 40.10865292
v 50.15079248 26.29081972 40.10865292
v 50.84771485 25.85880194 40.10865292
v 51.27850387 25.59574306 40.10865292
v 46.56470815 28.82518008 40.96053975
v 46.68341407 28.79309879 40.10865292
v 47.22333604 28.36108101 40.10865292
v 47.65412764 28.04241712 40.10865292
v 48.20362258 27.57831805 40.97085820
v 53.03421169 24.75951128 38.38997483
v 51.44699235 26.56029743 33.77969782
v 51.00854289 26.76133505 34.06862867
v 50.88217653 27.08855652 33.14680180
v 53.03421169 25.54655174 34.07206815
v 53.03421169 25.52516678 34.16035212
v 52.79105452 25.47597547 34.93427344
v 52.54023949 25.83099815 34.07206815
v 51.76864843 26.29295847 34.06862867
v 51.19234709 27.25751284 31.88903714
v 50.54520472 27.39866796 32.81774234
v 50.01102550 27.92051079 32.26395896
v 49.67596623 28.25842602 31.88903714
v 39.31786821 38.60332134 31.92343327
v 39.90374252 37.81627831 31.88903714
v 40.06839821 37.59385316 31.88903714
v 40.62746870 36.86669521 31.88903714
v 40.32495857 37.06131657 32.34650981
v 39.35616011 38.56696254 31.88903714
v 41.03145391 36.00052089 32.74895008
v 40.49152937 36.50311494 33.22476730
v 37.58130634 41.32802556 31.88903714
v 37.62725611 41.24889299 31.88903714
v 37.69618462 41.13554295 31.88903714
v 39.30254991 38.64609383 31.88903714
v 41.83750923 35.07660282 32.59645854
v 41.74177690 34.96752900 33.20871637
v 41.62498609 34.83065139 34.07206815
v 41.92941133 34.31736357 34.59833373
v 42.00216491 34.39863361 34.07206815
v 42.76610068 33.42552680 34.50317080
v 43.70234999 32.64062252 33.91384415
v 43.62193597 32.55935248 34.48826508
v 43.56066790 32.49946740 34.93427344
v 46.73893938 28.84442886 39.24530114
v 44.42990639 31.64185067 34.93427344
v 45.28956934 30.78423137 35.16358398
v 43.99720226 32.06745219 34.93427344
v 46.20284505 29.96510961 35.32754046
v 45.71078539 30.27949599 35.79647872
v 46.14157698 29.91591830 35.79647872
v 47.12186353 29.15026279 35.54309178
v 47.05102248 29.09251904 36.11865921
v 46.98783931 29.04332772 36.65868400
v 46.89019444 28.96633519 37.52203707
v 47.87239353 28.19854094 37.52203707
v 47.35736026 28.47015740 38.38309586
v 47.28843433 28.41454983 39.24530114
v 51.38189406 25.65776432 38.76031067
v 52.60725031 24.99904388 38.38309586
v 51.03917692 25.90585450 38.43698369
v 50.30970541 26.38278352 38.38309586
v 50.40352263 26.44266860 37.52203707
v 50.95876290 26.08336584 37.52203707
v 51.51208807 25.73475942 37.52203707
v 51.94287709 25.48880799 37.52203707
v 53.03421169 24.81511628 37.94396647
v 50.91281313 25.90157699 39.24530114
v 48.67844884 27.30028790 40.10865292
v 48.73588669 27.34092163 39.24530114
v 48.77800881 27.37086417 38.65941398
v 48.82396115 27.40294546 38.08384655
v 49.79658726 26.61376368 39.24530114
v 50.22929139 26.33359477 39.24530114
v 47.78814929 28.13438092 38.38309586
v 47.71922335 28.08518961 39.24530114
v 48.30509766 27.65531058 39.24530114
v 48.24765981 27.61039934 40.10865292
v 51.32828386 26.48971859 34.35526653
v 50.28290159 27.22543155 34.07206815
v 50.78644678 26.68433995 34.93427344
v 50.42266858 27.31953410 33.39331105
v 53.03421169 25.34123662 34.94573967
v 53.03421169 25.27493785 35.26792016
v 52.60916542 25.41822915 35.74373739
v 52.27027850 25.67487434 35.42041040
v 52.36026550 25.72834316 34.93427344
v 50.11824334 27.58901182 33.14680180
v 49.53811435 28.16432089 32.49785484
v 49.24326209 28.44663112 32.26395896
v 49.63384411 28.28836598 31.88903714
v 39.32552608 38.61187635 31.88903714
v 41.03145391 36.35554614 31.88903714
v 41.12718367 36.11814972 32.17338137
v 42.07492107 35.10654536 31.88903714
v 42.73929429 34.36441614 31.88903714
v 42.77758619 34.30025355 31.94636445
v 42.67611368 34.19331848 32.52193252
v 42.13235892 34.53551122 33.20871637
v 41.17696365 36.17803480 31.88903714
v 41.35311000 35.96416466 31.88903714
v 41.87963134 35.33324801 31.88903714
v 41.94472706 35.19850916 32.02089048
v 42.56315052 34.07355090 33.20871637
v 42.96713573 33.64153569 33.20871637
v 43.39792475 33.18171412 33.20871637
v 43.80956783 32.75183509 33.20871637
v 44.24035686 32.32409482 33.20871637
v 44.48925935 31.70173318 34.50202430
v 44.96982836 31.14994781 34.89987730
v 45.37955633 30.86336265 34.58916177
v 46.40004989 30.13192719 34.07206815
v 45.79119941 30.41209609 34.95835111
v 46.60683026 29.71274192 34.99733451
v 47.21376306 29.22297782 34.93427344
v 47.64455466 28.88934266 34.93427344
v 48.09065942 28.35894225 35.79647872
v 47.44926237 28.84229010 35.81711691
v 47.99875732 28.29478224 36.46377088
v 47.92791627 28.24131599 37.03933959
v 48.37019595 27.82854699 37.52203707
v 49.87700128 26.66723250 38.38309586
v 49.97081849 26.72925376 37.52203707
v 50.48010643 26.49399609 36.90863274
v 50.55669280 26.54318741 36.33306403
v 51.64036696 25.81389070 36.65868400
v 52.07307110 25.55938426 36.65868400
v 52.68383669 25.21505277 36.65868400
v 53.03421169 24.89852764 37.39476971
v 53.03421169 24.83222630 37.82587235
v 48.44294954 27.64889432 38.37621689
v 48.89097197 27.44999545 37.52203707
v 49.32176100 27.16127154 37.52203707
v 51.21723580 26.42128107 34.93427344
v 51.82034352 26.05556205 34.93427344
v 50.04931740 27.15699403 34.96179060
v 49.73149154 27.43502419 34.69349794
v 49.85211257 27.51415547 34.07206815
v 51.06981096 26.32931727 35.79647872
v 50.63710682 26.59451490 35.79647872
v 53.03421169 25.17655779 35.77125455
v 52.17646129 25.61926677 35.99597911
v 49.39451715 28.06166590 33.20871637
v 48.96372813 28.36749727 33.20871637
v 48.55974292 28.92569889 32.34650981
v 48.88714176 28.83373509 31.88903714
v 41.96961834 35.22631295 31.88903714
v 42.86183043 34.23181603 31.88903714
v 43.61427554 33.42766555 31.88903714
v 43.54152195 33.33569918 32.34650981
v 43.96273800 32.90368397 32.34650981
v 44.39544214 32.47380494 32.34650981
v 44.69986738 31.89421579 33.20871637
v 44.58116146 31.78514197 33.92760337
v 44.88941434 31.43653554 34.15691263
v 45.46380057 30.94035518 34.07206815
v 46.03627169 30.68157380 33.20871637
v 45.89458960 30.56394497 34.07206815
v 46.83083891 29.77048568 34.07206815
v 46.54364709 30.25169477 33.20871637
v 47.36501813 29.33846790 34.07206815
v 46.97443611 29.89239202 33.20871637
v 48.42763380 28.53217866 34.07780063
v 48.22468364 28.45732488 34.93427344
v 47.79580973 29.00483017 34.07206815
v 49.63193157 27.36444791 35.26792016
v 49.12455617 27.61895435 35.79647872
v 49.00393514 27.53126549 36.65868400
v 48.32041597 28.01461334 36.71486611
v 50.15462270 26.75705754 36.63575411
v 50.09526974 26.94954015 35.79647872
v 53.03421169 25.02043141 36.65868400
v 53.03421169 24.94343888 37.12303757
v 49.43663927 27.23398656 36.65868400
v 49.30069994 27.67669811 34.96179060
v 48.75503264 28.21565096 34.36902447
v 48.85651029 28.29050474 33.79345576
v 48.32424361 28.84229010 33.22820807
v 48.52910888 29.10321280 31.88903714
v 48.65930289 29.00269142 31.88903714
v 48.00450264 29.16523406 32.95418166
v 47.06059546 29.96297086 32.73748384
v 47.48563916 29.74054571 32.40842439
v 43.62002086 33.41911054 31.89591611
v 44.47011340 32.57432375 31.88903714
v 44.48351403 32.55721373 31.89935624
v 44.94685220 31.98190208 32.28230352
v 45.25319254 31.61190813 32.52766499
v 46.14349209 30.77567635 32.59645854
v 45.13065641 31.50069556 33.20871637
v 45.60548266 31.07081653 33.20871637
v 47.56988340 29.42187669 33.22820807
v 47.89728481 29.08182527 33.52860387
v 49.55534519 27.31311785 35.79647872
v 47.41671322 29.97152330 31.88903714
v 47.18312903 30.06134835 32.16191577
v 46.65852536 30.41851235 32.37976073
v 44.49500211 32.55079747 31.88903714
v 45.37955633 31.72525946 31.88903714
v 45.75482262 31.24405036 32.27427806
v 46.25836780 30.87619517 32.02203697
v 47.24439710 30.11053966 31.88903714
v 46.74085192 30.52544742 31.88903714
v 47.03378907 30.28377350 31.88903714
v 46.16838080 31.00665651 31.88903714
v 46.28708672 30.90185763 31.88903714
v 46.39430713 30.81203258 31.88903714
f 1 2 7
f 1 7 18
f 1 18 37
f 1 37 64
f 1 64 98
f 1 98 140
f 1 140 192
f 1 192 238
f 1 238 291
f 1 291 348
f 1 348 347
f 1 347 364
f 1 364 310
f 1 310 309
f 1 309 251
f 1 251 250
f 1 250 249
f 1 249 248
f 1 248 201
f 1 201 151
f 1 151 107
f 1 107 73
f 1 73 71
f 1 71 43
f 1 43 24
f 1 24 23
f 1 23 22
f 1 22 10
f 1 10 3
f 1 3 4
f 1 4 5
f 1 5 6
f 1 6 2
f 2 6 8
f 2 8 9
f 2 9 7
f 3 10 4
f 4 10 22
f 4 22 11
f 4 11 12
f 4 12 13
f 4 13 14
f 4 14 5
f 5 14 15
f 5 15 6
f 6 15 16
f 6 16 17
f 6 17 8
f 7 9 19
f 7 19 20
f 7 20 18
f 8 17 21
f 8 21 9
f 9 21 19
f 11 22 23
f 11 23 24
f 11 24 25
f 11 25 26
f 11 26 12
f 12 26 27
f 12 27 28
f 12 28 13
f 13 28 14
f 14 28 29
f 14 29 30
f 14 30 15
f 15 31 16
f 15 30 32
f 15 32 33
f 15 33 34
f 15 34 31
f 16 31 35
f 16 35 17
f 17 35 21
f 18 36 37
f 18 20 38
f 18 38 40
f 18 40 69
f 18 69 105
f 18 105 147
f 18 147 189
f 18 189 138
f 18 138 97
f 18 97 63
f 18 63 36
f 19 38 20
f 19 21 39
f 19 39 40
f 19 40 38
f 21 35 41
f 21 41 42
f 21 42 39
f 24 43 25
f 25 43 44
f 25 44 26
f 26 44 45
f 26 45 27
f 27 45 46
f 27 46 47
f 27 47 48
f 27 48 49
f 27 49 28
f 28 49 50
f 28 50 29
f 29 50 30
f 30 50 49
f 30 49 51
f 30 51 52
f 30 52 53
f 30 53 32
f 31 34 41
f 31 41 35
f 32 53 54
f 32 54 33
f 33 55 56
f 33 56 57
f 33 57 58
f 33 58 59
f 33 59 60
f 33 60 34
f 33 54 55
f 34 60 61
f 34 61 62
f 34 62 41
f 36 63 37
f 37 63 65
f 37 65 66
f 37 66 64
f 39 42 40
f 40 42 67
f 40 67 68
f 40 68 69
f 41 62 42
f 42 62 70
f 42 70 67
f 43 71 44
f 44 72 45
f 44 71 73
f 44 73 72
f 45 72 74
f 45 74 46
f 46 74 75
f 46 75 47
f 47 75 76
f 47 76 77
f 47 77 48
f 48 77 78
f 48 78 49
f 49 78 79
f 49 79 51
f 51 79 80
f 51 80 81
f 51 81 52
f 52 81 82
f 52 82 83
f 52 83 56
f 52 56 53
f 53 56 54
f 54 56 55
f 56 83 84
f 56 84 57
f 57 84 85
f 57 85 86
f 57 86 58
f 58 86 87
f 58 87 88
f 58 88 59
f 59 88 89
f 59 89 90
f 59 90 60
f 60 90 91
f 60 91 92
f 60 92 93
f 60 93 94
f 60 94 61
f 61 95 96
f 61 96 62
f 61 94 95
f 62 96 70
f 63 97 139
f 63 139 191
f 63 191 237
f 63 237 288
f 63 288 346
f 63 346 422
f 63 422 421
f 63 421 491
f 63 491 493
f 63 493 556
f 63 556 612
f 63 612 675
f 63 675 674
f 63 674 718
f 63 718 717
f 63 717 686
f 63 686 629
f 63 629 628
f 63 628 561
f 63 561 560
f 63 560 496
f 63 496 494
f 63 494 428
f 63 428 355
f 63 355 294
f 63 294 239
f 63 239 193
f 63 193 141
f 63 141 99
f 63 99 66
f 63 66 65
f 64 66 99
f 64 99 98
f 67 96 100
f 67 100 101
f 67 101 68
f 67 70 96
f 68 101 102
f 68 102 103
f 68 103 69
f 69 103 104
f 69 104 105
f 72 106 74
f 72 73 107
f 72 107 108
f 72 108 106
f 74 106 75
f 75 109 76
f 75 106 109
f 76 109 110
f 76 110 77
f 77 110 111
f 77 111 78
f 78 111 112
f 78 112 79
f 79 112 113
f 79 113 80
f 80 113 81
f 81 114 82
f 81 113 112
f 81 112 114
f 82 114 115
f 82 115 116
f 82 116 83
f 83 116 117
f 83 117 118
f 83 118 119
f 83 119 120
f 83 120 84
f 84 120 85
f 85 121 122
f 85 122 86
f 85 120 121
f 86 122 123
f 86 123 87
f 87 123 88
f 88 123 124
f 88 124 125
f 88 125 126
f 88 126 127
f 88 127 92
f 88 92 91
f 88 91 89
f 89 91 90
f 92 127 93
f 93 127 128
f 93 128 129
f 93 129 130
f 93 130 131
f 93 131 132
f 93 132 94
f 94 133 134
f 94 134 135
f 94 135 136
f 94 136 95
f 94 132 133
f 95 136 137
f 95 137 96
f 96 137 100
f 97 138 139
f 98 99 140
f 99 141 140
f 100 137 142
f 100 142 101
f 101 142 143
f 101 143 144
f 101 144 102
f 102 144 103
f 103 144 104
f 104 144 145
f 104 145 146
f 104 146 147
f 104 147 105
f 106 108 148
f 106 148 149
f 106 149 150
f 106 150 109
f 107 151 108
f 108 151 152
f 108 152 153
f 108 153 148
f 109 154 155
f 109 155 110
f 109 150 149
f 109 149 154
f 110 155 156
f 110 156 157
f 110 157 115
f 110 115 111
f 111 115 114
f 111 114 112
f 115 157 116
f 116 157 158
f 116 158 159
f 116 159 117
f 117 159 118
f 118 160 161
f 118 161 162
f 118 162 163
f 118 163 164
f 118 164 165
f 118 165 124
f 118 124 166
f 118 166 119
f 118 159 167
f 118 167 160
f 119 166 122
f 119 122 168
f 119 168 120
f 120 168 121
f 121 168 122
f 122 166 123
f 123 166 124
f 124 165 163
f 124 163 169
f 124 169 170
f 124 170 171
f 124 171 125
f 125 171 172
f 125 172 173
f 125 173 126
f 126 173 127
f 127 173 128
f 128 173 129
f 129 174 175
f 129 175 130
f 129 173 174
f 130 175 176
f 130 176 177
f 130 177 178
f 130 178 131
f 131 178 133
f 131 133 132
f 133 179 134
f 133 178 179
f 134 179 180
f 134 180 135
f 135 181 182
f 135 182 183
f 135 183 184
f 135 184 136
f 135 180 181
f 136 185 142
f 136 142 137
f 136 184 186
f 136 186 187
f 136 187 185
f 138 188 139
f 138 189 188
f 139 190 191
f 139 188 190
f 140 141 192
f 141 193 192
f 142 185 194
f 142 194 143
f 143 194 144
f 144 194 195
f 144 195 196
f 144 196 197
f 144 197 145
f 145 197 146
f 146 197 198
f 146 198 189
f 146 189 147
f 148 153 149
f 149 153 199
f 149 199 200
f 149 200 154
f 151 201 152
f 152 202 203
f 152 203 153
f 152 201 202
f 153 203 199
f 154 204 205
f 154 205 155
f 154 200 206
f 154 206 204
f 155 205 207
f 155 207 156
f 156 208 209
f 156 209 167
f 156 167 157
f 156 207 208
f 157 167 158
f 158 167 159
f 160 210 161
f 160 167 209
f 160 209 211
f 160 211 210
f 161 210 212
f 161 212 213
f 161 213 162
f 162 213 214
f 162 214 215
f 162 215 163
f 163 165 164
f 163 215 216
f 163 216 169
f 169 216 170
f 170 216 217
f 170 217 218
f 170 218 219
f 170 219 171
f 171 219 220
f 171 220 172
f 172 220 173
f 173 220 174
f 174 220 219
f 174 219 218
f 174 218 175
f 175 218 221
f 175 221 222
f 175 222 176
f 176 222 223
f 176 223 224
f 176 224 225
f 176 225 177
f 177 225 226
f 177 226 179
f 177 179 178
f 179 226 180
f 180 226 181
f 181 226 225
f 181 225 227
f 181 227 228
f 181 228 182
f 182 228 229
f 182 229 230
f 182 230 187
f 182 187 183
f 183 187 186
f 183 186 184
f 185 187 194
f 187 230 231
f 187 231 232
f 187 232 194
f 188 233 234
f 188 234 190
f 188 189 198
f 188 198 235
f 188 235 233
f 190 234 191
f 191 236 237
f 191 234 236
f 192 193 239
f 192 239 295
f 192 295 358
f 192 358 431
f 192 431 500
f 192 500 565
f 192 565 568
f 192 568 636
f 192 636 691
f 192 691 725
f 192 725 724
f 192 724 740
f 192 740 747
f 192 747 749
f 192 749 748
f 192 748 752
f 192 752 751
f 192 751 750
f 192 750 744
f 192 744 743
f 192 743 730
f 192 730 694
f 192 694 693
f 192 693 641
f 192 641 640
f 192 640 692
f 192 692 647
f 192 647 646
f 192 646 645
f 192 645 638
f 192 638 572
f 192 572 571
f 192 571 570
f 192 570 574
f 192 574 637
f 192 637 580
f 192 580 516
f 192 516 515
f 192 515 514
f 192 514 513
f 192 513 579
f 192 579 578
f 192 578 577
f 192 577 511
f 192 511 502
f 192 502 435
f 192 435 434
f 192 434 433
f 192 433 427
f 192 427 426
f 192 426 352
f 192 352 292
f 192 292 238
f 194 232 195
f 195 232 240
f 195 240 241
f 195 241 242
f 195 242 196
f 196 242 197
f 197 242 243
f 197 243 198
f 198 244 235
f 198 243 244
f 199 245 246
f 199 246 206
f 199 206 200
f 199 203 247
f 199 247 245
f 201 248 202
f 202 248 249
f 202 249 250
f 202 250 203
f 203 250 251
f 203 251 247
f 204 252 205
f 204 206 252
f 205 253 254
f 205 254 255
f 205 255 207
f 205 252 253
f 206 246 252
f 207 255 208
f 208 255 211
f 208 211 209
f 210 256 212
f 210 211 257
f 210 257 256
f 211 255 257
f 212 258 259
f 212 259 213
f 212 256 260
f 212 260 258
f 213 259 261
f 213 261 262
f 213 262 214
f 214 262 263
f 214 263 264
f 214 264 215
f 215 264 216
f 216 265 266
f 216 266 267
f 216 267 268
f 216 268 217
f 216 264 265
f 217 268 218
f 218 268 221
f 221 268 269
f 221 269 222
f 222 269 270
f 222 270 223
f 223 270 271
f 223 271 272
f 223 272 273
f 223 273 274
f 223 274 224
f 224 274 273
f 224 273 275
f 224 275 225
f 225 275 276
f 225 276 227
f 227 276 228
f 228 276 229
f 229 276 273
f 229 273 272
f 229 272 277
f 229 277 278
f 229 278 279
f 229 279 280
f 229 280 281
f 229 281 230
f 230 281 282
f 230 282 283
f 230 283 231
f 231 283 284
f 231 284 232
f 232 284 285
f 232 285 240
f 233 286 234
f 233 235 244
f 233 244 287
f 233 287 286
f 234 286 236
f 236 286 237
f 237 286 289
f 237 289 288
f 238 290 291
f 238 292 293
f 238 293 290
f 239 294 295
f 240 285 296
f 240 296 297
f 240 297 298
f 240 298 299
f 240 299 241
f 241 299 242
f 242 299 300
f 242 300 243
f 243 300 244
f 244 300 301
f 244 301 287
f 245 302 246
f 245 247 303
f 245 303 304
f 245 304 302
f 246 302 305
f 246 305 306
f 246 306 307
f 246 307 308
f 246 308 252
f 247 251 309
f 247 309 310
f 247 310 303
f 252 308 253
f 253 308 254
f 254 308 255
f 255 311 312
f 255 312 257
f 255 308 311
f 256 257 260
f 257 312 260
f 258 260 259
f 259 313 314
f 259 314 261
f 259 260 315
f 259 315 316
f 259 316 313
f 260 312 317
f 260 317 318
f 260 318 319
f 260 319 315
f 261 314 320
f 261 320 263
f 261 263 262
f 263 320 321
f 263 321 265
f 263 265 264
f 265 321 322
f 265 322 266
f 266 322 323
f 266 323 267
f 267 324 325
f 267 325 269
f 267 269 268
f 267 323 324
f 269 325 326
f 269 326 270
f 270 326 327
f 270 327 271
f 271 327 272
f 272 327 328
f 272 328 329
f 272 329 330
f 272 330 277
f 273 331 275
f 273 276 331
f 275 331 276
f 277 330 329
f 277 329 332
f 277 332 279
f 277 279 278
f 279 332 333
f 279 333 334
f 279 334 280
f 280 334 335
f 280 335 282
f 280 282 281
f 282 335 336
f 282 336 337
f 282 337 283
f 283 337 284
f 284 337 285
f 285 337 338
f 285 338 339
f 285 339 296
f 286 340 289
f 286 287 341
f 286 341 340
f 287 301 342
f 287 342 341
f 288 289 343
f 288 343 344
f 288 344 345
f 288 345 346
f 289 340 343
f 290 347 348
f 290 348 291
f 290 293 349
f 290 349 350
f 290 350 351
f 290 351 347
f 292 352 353
f 292 353 354
f 292 354 349
f 292 349 293
f 294 355 356
f 294 356 357
f 294 357 295
f 295 357 358
f 296 339 297
f 297 339 359
f 297 359 360
f 297 360 361
f 297 361 298
f 298 361 299
f 299 361 360
f 299 360 359
f 299 359 342
f 299 342 301
f 299 301 300
f 302 304 362
f 302 362 363
f 302 363 305
f 303 310 364
f 303 364 351
f 303 351 304
f 304 351 365
f 304 365 362
f 305 363 366
f 305 366 367
f 305 367 368
f 305 368 306
f 306 368 307
f 307 368 308
f 308 368 311
f 311 369 312
f 311 368 367
f 311 367 369
f 312 370 317
f 312 369 371
f 312 371 370
f 313 316 318
f 313 318 372
f 313 372 373
f 313 373 374
f 313 374 314
f 314 374 375
f 314 375 376
f 314 376 377
f 314 377 378
f 314 378 379
f 314 379 380
f 314 380 381
f 314 381 320
f 315 319 318
f 315 318 316
f 317 370 382
f 317 382 383
f 317 383 318
f 318 383 382
f 318 382 384
f 318 384 385
f 318 385 373
f 318 373 372
f 320 381 321
f 321 381 322
f 322 381 380
f 322 380 379
f 322 379 386
f 322 386 323
f 323 386 387
f 323 387 324
f 324 387 327
f 324 327 326
f 324 326 325
f 327 388 328
f 327 387 388
f 328 388 389
f 328 389 390
f 328 390 391
f 328 391 329
f 329 391 392
f 329 392 332
f 332 393 394
f 332 394 333
f 332 392 395
f 332 395 393
f 333 396 397
f 333 397 398
f 333 398 334
f 333 394 399
f 333 399 400
f 333 400 401
f 333 401 402
f 333 402 403
f 333 403 396
f 334 398 335
f 335 398 404
f 335 404 336
f 336 404 338
f 336 338 337
f 338 404 398
f 338 398 339
f 339 398 405
f 339 405 406
f 339 406 407
f 339 407 359
f 340 408 409
f 340 409 343
f 340 341 410
f 340 410 411
f 340 411 412
f 340 412 408
f 341 342 413
f 341 413 414
f 341 414 415
f 341 415 416
f 341 416 417
f 341 417 410
f 342 359 418
f 342 418 419
f 342 419 420
f 342 420 413
f 343 408 344
f 343 409 408
f 344 408 345
f 345 421 422
f 345 422 346
f 345 408 423
f 345 423 421
f 347 351 364
f 349 354 350
f 350 354 363
f 350 363 424
f 350 424 425
f 350 425 362
f 350 362 365
f 350 365 351
f 352 426 353
f 353 426 427
f 353 427 363
f 353 363 354
f 355 428 356
f 356 428 429
f 356 429 357
f 357 430 431
f 357 431 358
f 357 429 430
f 359 407 432
f 359 432 418
f 362 425 424
f 362 424 363
f 363 427 433
f 363 433 434
f 363 434 435
f 363 435 436
f 363 436 437
f 363 437 438
f 363 438 366
f 366 438 369
f 366 369 367
f 369 438 439
f 369 439 371
f 370 371 440
f 370 440 382
f 371 439 440
f 373 441 442
f 373 442 374
f 373 385 441
f 374 442 443
f 374 443 444
f 374 444 375
f 375 444 445
f 375 445 446
f 375 446 447
f 375 447 378
f 375 378 376
f 376 378 377
f 378 447 379
f 379 447 387
f 379 387 386
f 382 448 384
f 382 440 448
f 384 448 449
f 384 449 450
f 384 450 385
f 385 450 451
f 385 451 441
f 387 447 452
f 387 452 453
f 387 453 454
f 387 454 455
f 387 455 388
f 388 455 389
f 389 455 456
f 389 456 457
f 389 457 390
f 390 457 458
f 390 458 459
f 390 459 391
f 391 459 392
f 392 460 395
f 392 459 460
f 393 461 394
f 393 395 460
f 393 460 462
f 393 462 461
f 394 461 463
f 394 463 399
f 396 403 397
f 397 403 398
f 398 403 464
f 398 464 405
f 399 465 466
f 399 466 400
f 399 463 467
f 399 467 465
f 400 466 401
f 401 466 468
f 401 468 402
f 402 468 469
f 402 469 403
f 403 469 470
f 403 470 471
f 403 471 464
f 405 464 472
f 405 472 473
f 405 473 474
f 405 474 406
f 406 474 407
f 407 474 475
f 407 475 432
f 408 412 476
f 408 476 477
f 408 477 423
f 410 417 478
f 410 478 411
f 411 479 480
f 411 480 481
f 411 481 412
f 411 478 479
f 412 481 476
f 413 420 482
f 413 482 483
f 413 483 484
f 413 484 485
f 413 485 486
f 413 486 414
f 414 486 478
f 414 478 415
f 415 478 487
f 415 487 488
f 415 488 416
f 416 488 417
f 417 488 487
f 417 487 478
f 418 432 489
f 418 489 419
f 419 489 490
f 419 490 482
f 419 482 420
f 421 423 491
f 423 477 492
f 423 492 493
f 423 493 491
f 428 494 429
f 429 495 430
f 429 494 496
f 429 496 497
f 429 497 498
f 429 498 495
f 430 495 499
f 430 499 500
f 430 500 431
f 432 475 501
f 432 501 489
f 435 502 503
f 435 503 436
f 436 503 437
f 437 440 439
f 437 439 438
f 437 503 448
f 437 448 440
f 441 451 504
f 441 504 442
f 442 504 443
f 443 504 505
f 443 505 444
f 444 506 445
f 444 505 507
f 444 507 506
f 445 506 508
f 445 508 509
f 445 509 446
f 446 452 447
f 446 509 452
f 448 503 510
f 448 510 511
f 448 511 512
f 448 512 449
f 449 513 514
f 449 514 450
f 449 512 513
f 450 514 515
f 450 515 516
f 450 516 517
f 450 517 451
f 451 517 505
f 451 505 504
f 452 509 518
f 452 518 519
f 452 519 520
f 452 520 521
f 452 521 522
f 452 522 453
f 453 522 523
f 453 523 454
f 454 523 524
f 454 524 525
f 454 525 457
f 454 457 456
f 454 456 455
f 457 525 458
f 458 525 526
f 458 526 462
f 458 462 459
f 459 462 460
f 461 462 463
f 462 526 527
f 462 527 463
f 463 527 467
f 464 471 528
f 464 528 529
f 464 529 472
f 465 467 530
f 465 530 531
f 465 531 466
f 466 531 534
f 466 534 468
f 467 527 532
f 467 532 533
f 467 533 530
f 468 534 469
f 469 534 535
f 469 535 470
f 470 535 536
f 470 536 537
f 470 537 538
f 470 538 471
f 471 538 528
f 472 529 539
f 472 539 540
f 472 540 473
f 473 540 541
f 473 541 474
f 474 541 475
f 475 541 501
f 476 542 477
f 476 481 542
f 477 543 492
f 477 542 544
f 477 544 543
f 478 486 545
f 478 545 546
f 478 546 547
f 478 547 548
f 478 548 479
f 479 548 480
f 480 549 550
f 480 550 481
f 480 548 549
f 481 550 542
f 482 490 483
f 483 490 489
f 483 489 551
f 483 551 541
f 483 541 552
f 483 552 553
f 483 553 554
f 483 554 484
f 484 554 623
f 484 623 555
f 484 555 485
f 485 555 545
f 485 545 486
f 489 501 551
f 492 556 493
f 492 543 556
f 495 498 557
f 495 557 558
f 495 558 559
f 495 559 499
f 496 560 497
f 497 560 561
f 497 561 562
f 497 562 563
f 497 563 498
f 498 563 564
f 498 564 557
f 499 565 500
f 499 559 566
f 499 566 567
f 499 567 568
f 499 568 565
f 501 541 551
f 502 511 510
f 502 510 503
f 505 569 507
f 505 517 569
f 506 570 571
f 506 571 572
f 506 572 573
f 506 573 508
f 506 507 570
f 507 569 574
f 507 574 570
f 508 573 575
f 508 575 519
f 508 519 576
f 508 576 509
f 509 576 519
f 509 519 518
f 511 577 512
f 512 577 578
f 512 578 579
f 512 579 513
f 516 580 569
f 516 569 517
f 519 575 520
f 520 581 582
f 520 582 522
f 520 522 521
f 520 575 581
f 522 582 583
f 522 583 523
f 523 583 524
f 524 583 584
f 524 584 525
f 525 584 526
f 526 584 585
f 526 585 586
f 526 586 587
f 526 587 588
f 526 588 589
f 526 589 527
f 527 589 532
f 528 538 590
f 528 590 553
f 528 553 552
f 528 552 539
f 528 539 529
f 530 591 531
f 530 533 591
f 531 592 534
f 531 591 592
f 532 589 593
f 532 593 533
f 533 593 591
f 534 594 595
f 534 595 535
f 534 592 594
f 535 595 536
f 536 595 596
f 536 596 597
f 536 597 598
f 536 598 537
f 537 598 599
f 537 599 600
f 537 600 538
f 538 600 601
f 538 601 602
f 538 602 603
f 538 603 590
f 539 541 540
f 539 552 541
f 542 550 604
f 542 604 544
f 543 605 556
f 543 544 605
f 544 606 607
f 544 607 608
f 544 608 609
f 544 609 610
f 544 610 611
f 544 611 612
f 544 612 605
f 544 604 613
f 544 613 548
f 544 548 547
f 544 547 606
f 545 555 623
f 545 623 614
f 545 614 546
f 546 614 615
f 546 615 547
f 547 615 616
f 547 616 617
f 547 617 618
f 547 618 607
f 547 607 619
f 547 619 606
f 548 613 549
f 549 604 550
f 549 613 604
f 553 590 603
f 553 603 620
f 553 620 621
f 553 621 554
f 554 621 622
f 554 622 615
f 554 615 623
f 556 605 612
f 557 624 558
f 557 564 624
f 558 625 559
f 558 624 626
f 558 626 625
f 559 625 627
f 559 627 566
f 561 628 562
f 562 628 629
f 562 629 630
f 562 630 631
f 562 631 632
f 562 632 563
f 563 632 564
f 564 632 624
f 566 627 633
f 566 633 634
f 566 634 567
f 567 634 568
f 568 635 636
f 568 634 635
f 569 580 637
f 569 637 574
f 572 638 575
f 572 575 573
f 575 638 639
f 575 639 581
f 581 640 641
f 581 641 642
f 581 642 643
f 581 643 644
f 581 644 582
f 581 639 645
f 581 645 646
f 581 646 647
f 581 647 648
f 581 648 640
f 582 644 585
f 582 585 583
f 583 585 584
f 585 644 586
f 586 644 649
f 586 649 650
f 586 650 651
f 586 651 652
f 586 652 587
f 587 652 653
f 587 653 654
f 587 654 588
f 588 654 593
f 588 593 589
f 591 654 655
f 591 655 592
f 591 593 654
f 592 655 656
f 592 656 657
f 592 657 658
f 592 658 594
f 594 657 659
f 594 659 660
f 594 660 597
f 594 597 596
f 594 596 595
f 594 658 657
f 597 660 661
f 597 661 662
f 597 662 663
f 597 663 598
f 598 663 664
f 598 664 665
f 598 665 599
f 599 665 601
f 599 601 600
f 601 665 666
f 601 666 617
f 601 617 620
f 601 620 602
f 602 620 603
f 606 619 607
f 607 618 667
f 607 667 608
f 608 667 617
f 608 617 668
f 608 668 669
f 608 669 609
f 609 669 670
f 609 670 610
f 610 671 672
f 610 672 611
f 610 670 671
f 611 673 674
f 611 674 675
f 611 675 612
f 611 672 673
f 614 623 615
f 615 622 616
f 616 622 621
f 616 621 676
f 616 676 617
f 617 676 620
f 617 666 677
f 617 677 678
f 617 678 668
f 617 667 618
f 620 676 621
f 624 679 626
f 624 632 680
f 624 680 679
f 625 626 681
f 625 681 682
f 625 682 683
f 625 683 633
f 625 633 627
f 626 679 631
f 626 631 684
f 626 684 685
f 626 685 681
f 629 686 630
f 630 686 673
f 630 673 672
f 630 672 687
f 630 687 631
f 631 687 671
f 631 671 684
f 631 679 680
f 631 680 632
f 633 683 688
f 633 688 634
f 634 688 689
f 634 689 635
f 635 689 690
f 635 690 691
f 635 691 636
f 638 645 639
f 640 648 692
f 641 693 642
f 642 693 694
f 642 694 643
f 643 694 695
f 643 695 651
f 643 651 650
f 643 650 649
f 643 649 644
f 647 692 648
f 651 695 652
f 652 696 697
f 652 697 653
f 652 695 696
f 653 697 698
f 653 698 699
f 653 699 654
f 654 699 700
f 654 700 656
f 654 656 655
f 656 700 701
f 656 701 702
f 656 702 703
f 656 703 657
f 657 704 659
f 657 703 702
f 657 702 705
f 657 705 704
f 659 704 660
f 660 706 710
f 660 710 661
f 660 704 707
f 660 707 706
f 661 708 709
f 661 709 662
f 661 710 708
f 662 664 663
f 662 709 711
f 662 711 712
f 662 712 713
f 662 713 664
f 664 713 714
f 664 714 677
f 664 677 666
f 664 666 665
f 668 678 669
f 669 678 715
f 669 715 670
f 670 715 716
f 670 716 685
f 670 685 671
f 671 687 672
f 671 685 684
f 673 686 717
f 673 717 718
f 673 718 674
f 677 714 713
f 677 713 719
f 677 719 678
f 678 719 715
f 681 685 711
f 681 711 682
f 682 688 683
f 682 711 720
f 682 720 721
f 682 721 722
f 682 722 688
f 685 716 711
f 688 722 689
f 689 722 708
f 689 708 710
f 689 710 723
f 689 723 690
f 690 724 725
f 690 725 691
f 690 723 726
f 690 726 727
f 690 727 728
f 690 728 724
f 694 729 695
f 694 730 729
f 695 729 696
f 696 730 697
f 696 729 730
f 697 730 731
f 697 731 732
f 697 732 733
f 697 733 698
f 698 733 734
f 698 734 735
f 698 735 699
f 699 735 700
f 700 735 701
f 701 735 736
f 701 736 702
f 702 734 705
f 702 736 734
f 704 705 707
f 705 734 727
f 705 727 707
f 706 737 738
f 706 738 710
f 706 707 737
f 707 727 737
f 708 722 709
f 709 722 721
f 709 721 720
f 709 720 711
f 710 738 723
f 711 716 739
f 711 739 713
f 711 713 712
f 713 739 719
f 715 719 716
f 716 719 739
f 723 738 726
f 724 728 740
f 726 738 737
f 726 737 727
f 727 741 728
f 727 734 742
f 727 742 741
f 728 741 740
f 730 743 731
f 731 743 744
f 731 744 732
f 732 744 733
f 733 744 745
f 733 745 734
f 734 736 735
f 734 745 746
f 734 746 742
f 740 741 747
f 741 742 746
f 741 746 748
f 741 748 749
f 741 749 747
f 744 750 746
f 744 746 745
f 746 750 751
f 746 751 752
f 746 752 748

