# https://github.com/mikedh/trimesh
v 74.03760147 21.13805784 30.25203138
v 74.24861630 21.13805784 30.25203138
v 73.82402888 21.14011176 30.25203138
v 73.82402888 21.25302351 29.87920847
v 74.24861630 21.25302351 29.87668927
v 75.11185851 21.14832231 30.25203138
v 75.11185851 21.25507486 29.88928529
v 73.82402888 25.88648233 30.25203138
v 73.82402888 21.39056948 29.44844643
v 74.24861630 21.39056948 29.44592723
v 75.53900368 21.16679990 30.25203138
v 75.11185851 21.39467475 29.45852325
v 75.97382183 21.27560380 29.95226153
v 86.88903988 28.27403737 30.25203138
v 73.82402888 42.10872174 11.30102875
v 73.82402888 21.48500364 29.17386734
v 74.24861630 21.58354308 28.89424983
v 75.97382183 21.18732884 30.25203138
v 75.97382183 21.41520369 29.52149949
v 75.11185851 21.59381012 28.89424983
v 75.97382183 21.63486800 28.89424983
v 78.12745142 21.35156295 30.18905514
v 76.35876391 21.21196563 30.25203138
v 86.44015371 42.10872174 13.72437898
v 86.88903988 23.24641566 30.25203138
v 86.88903988 35.81444426 19.09252830
v 73.82402888 42.10872174 4.51967795
v 73.82402888 21.58354308 28.89424983
v 73.82402888 21.73546136 28.46852620
v 74.24861630 21.89353627 28.03020720
v 76.83706404 21.99618355 28.03020720
v 76.83706404 21.69440348 28.89424983
v 75.97382183 21.94485863 28.03020720
v 74.24861630 22.13167560 27.37524757
v 75.11185851 21.91201129 28.03020720
v 78.42031403 21.36798661 30.25203138
v 78.17860636 21.33924712 30.25203138
v 78.06478622 21.32898008 30.25203138
v 77.69902736 21.76625477 28.89424983
v 77.37291351 22.20147554 27.56921664
v 78.56354845 21.85247839 28.89424983
v 78.56354845 21.55069831 29.75577390
v 86.44015371 42.10872174 6.90020492
v 86.56420523 23.13966310 30.25203138
v 86.03347064 23.03085920 30.05050535
v 86.32249789 23.22178144 29.75829310
v 86.88903988 23.40859841 29.75829310
v 86.88903988 35.81444426 11.48492101
v 74.24989518 42.10872174 4.51715875
v 73.82402888 38.57563066 6.88760890
v 73.82402888 21.89353627 28.03020720
v 73.82402888 22.01055330 27.70776579
v 76.83706404 22.18094660 27.51631593
v 75.97382183 22.15836374 27.45585825
v 73.82402888 22.13167560 27.37524757
v 74.24861630 22.29180443 26.94448554
v 75.11185851 22.14399399 27.41303371
v 79.42551177 21.66771534 29.75577390
v 79.42551177 21.51169178 30.25203138
v 76.83706404 22.35133990 27.08303469
v 77.69902736 22.75371334 26.30715970
v 77.67600749 22.36776357 27.23669842
v 78.56354845 22.49709642 27.16868313
v 77.94840863 22.23432288 27.65486508
v 78.56354845 22.11114665 28.18135108
v 79.42551177 22.31644122 27.88913884
v 79.42551177 22.16452293 28.31990088
v 79.94857243 22.19737027 28.41814469
v 86.44015371 41.83568244 7.05890706
v 86.32761342 41.65091811 7.12692043
v 86.13066565 42.10872174 6.79692270
v 86.13450229 23.00006578 30.25203138
v 85.45286096 22.78861202 30.25203138
v 85.44135102 22.94668951 29.75829310
v 85.71630928 23.12529336 29.47615639
v 86.88903988 23.50919177 29.45852325
v 86.32249789 23.51740232 28.89424983
v 86.88903988 35.57014573 11.69652386
v 86.20739854 35.81444426 11.20278494
v 86.44015371 36.33793999 10.86522895
v 86.44015371 36.43648200 10.78461828
v 86.44015371 36.60687273 10.64606849
v 86.44015371 37.12215792 10.24301641
v 86.44015371 37.31308273 10.09691029
v 86.44015371 37.93511790 9.62584356
v 86.44015371 38.35802285 9.31599818
v 86.44015371 38.98621722 8.87264012
v 86.44015371 39.02932902 8.84241096
v 86.44015371 39.76632987 8.34363427
v 86.44015371 40.39657816 7.92546826
v 86.44015371 40.49306881 7.86500993
v 86.44015371 40.91597119 7.60050765
v 86.44015371 41.54621948 7.22768345
v 75.11313739 42.10872174 4.55746344
v 75.54539809 38.60026745 6.90272413
v 74.24989518 38.57973851 6.88760890
v 73.82402888 38.14451774 7.17982114
v 75.97382183 22.32670312 27.02509621
v 75.11185851 22.30822810 26.98227167
v 73.82402888 22.29180443 26.94448554
v 74.24861630 22.56073717 26.30715970
v 75.11185851 22.58947923 26.30715970
v 80.28747477 21.79910211 29.75577390
v 80.25422449 21.63897328 30.25203138
v 75.97382183 22.62643184 26.30715970
v 76.83706404 22.67570284 26.30715970
v 77.69902736 23.00827633 25.71769617
v 78.39345751 23.04522894 25.80082540
v 78.63388662 22.89536458 26.22403047
v 79.42551177 22.59974370 27.16868313
v 78.56354845 22.26922156 27.74807049
v 80.28747477 22.72497385 27.16868313
v 80.25678226 22.36570965 28.09066488
v 80.52023059 22.24458735 28.55417528
v 80.25678226 22.09677691 28.86150146
v 84.96049281 41.22596181 6.92539439
v 85.45925408 41.79667720 6.75661801
v 86.04370170 41.96296394 6.85234262
v 85.88384278 42.10872174 6.71631203
v 85.09093874 22.68801867 30.25203138
v 84.59857060 22.71060153 29.75577390
v 85.14209401 23.04522894 29.23684358
v 85.44135102 23.24025646 28.92699820
v 86.88903988 23.70216537 28.89928824
v 86.28413144 23.81507712 28.04532178
v 86.88903988 23.89719546 28.33501482
v 86.38771957 35.59272860 11.46980707
v 86.88903988 35.22525385 11.99629371
v 85.79432106 35.81444426 11.04408344
v 86.14345446 35.89245475 11.11209809
v 86.32249789 35.00764347 11.95346917
v 85.46053424 35.30942354 11.35644867
v 86.00789301 36.81421864 10.30599394
v 85.81861853 37.77293772 9.51752422
v 85.03850459 38.59410825 8.62325178
v 86.32249789 38.32928079 9.29332534
v 86.14601223 39.32289855 8.53508349
v 86.39027733 39.81765479 8.29073356
v 86.32249789 40.45406228 7.84737679
v 86.32249789 40.88517520 7.58035402
v 75.97510071 42.10872174 4.62547938
v 76.83706404 38.67417267 6.95058643
v 75.88941596 38.96363435 6.68608286
v 75.88941596 38.25537557 7.15967008
v 75.97510071 37.55737869 7.64081234
v 75.11313739 37.53479839 7.62317920
v 75.11313739 38.16094141 7.19241716
v 74.24989518 38.14656909 7.18234035
v 73.82402888 37.52453135 7.61058446
v 73.82402888 22.56073717 26.30715970
v 73.82402888 22.73318440 25.91670300
v 74.24861630 22.91384217 25.51113172
v 75.11185851 23.11297496 25.09800347
v 75.11185851 22.92616056 25.52876551
v 81.14815954 21.93869943 29.75577390
v 81.14815954 21.78062452 30.25203138
v 80.77984292 21.72109161 30.25203138
v 75.97382183 22.94463558 25.57410861
v 75.97382183 23.13350648 25.14334722
v 76.83706404 22.97132372 25.63960470
v 77.69902736 23.19714465 25.28693413
v 78.63388662 23.20741170 25.48594097
v 78.96895232 23.07807628 25.88143607
v 79.42551177 22.92821192 26.38777037
v 80.28747477 22.99185266 26.53891490
v 80.88598945 23.04317502 26.65731106
v 81.16478500 22.90973433 27.11578306
v 81.14815954 22.55047270 28.03020720
v 81.14815954 22.30206890 28.71287614
v 81.14815954 22.15015319 29.14363817
v 84.38499801 41.06994082 6.83218899
v 84.64333146 41.55443131 6.63822056
v 85.43623549 42.10872174 6.57272383
v 84.56276191 22.54226215 30.25203138
v 83.73404919 22.49504507 29.75577390
v 83.73404919 22.78656067 28.89424983
v 84.19316641 23.06781181 28.44081624
v 84.52695323 22.98569347 28.92699820
v 85.46053424 23.57898915 28.03020720
v 85.97080673 23.91361656 27.54150668
v 86.54630089 24.00599937 27.76822348
v 86.88903988 24.06758619 27.91936801
v 86.81102810 35.12260657 12.05423219
v 86.88903988 34.25421896 12.86537411
v 85.46053424 35.74053904 10.98110655
v 85.45925408 36.25787557 10.55034388
v 85.46053424 34.82082650 11.78721006
v 86.32249789 34.57652797 12.33384970
v 84.90550090 35.19651179 11.25820421
v 85.45925408 36.68899107 10.20775012
v 85.24312437 37.63333783 9.41172279
v 84.59729172 38.07061252 8.87264012
v 84.59729172 38.50172544 8.55775633
v 84.13305897 39.47481426 7.77432373
v 84.59729172 40.01678759 7.56272216
v 85.53470938 39.89771921 7.94310140
v 85.87105396 40.33499133 7.77180452
v 84.64333146 40.77226602 7.09921176
v 76.19634659 42.10872174 4.64815222
v 77.70030624 39.15661052 6.70623650
v 77.70030624 38.72549502 6.98837192
v 76.83706404 38.16915195 7.29318018
v 76.83706404 37.60870361 7.67356071
v 75.97510071 37.12626576 7.94813981
v 75.11313739 37.10368290 7.93302458
v 74.24989518 37.52658527 7.61562159
v 73.82402888 37.30486961 7.76928532
v 73.82402888 23.10681834 25.08037033
v 74.24861630 23.10681834 25.08037033
v 75.11185851 23.34495766 24.58159300
v 81.65971026 22.19737027 29.27966876
v 81.97431450 22.10088218 29.74317788
v 81.99477660 21.94075335 30.25203138
v 76.83706404 23.16429989 25.20632410
v 75.97382183 23.38601555 24.58159300
v 77.69902736 23.51945624 24.58159300
v 78.56354845 23.60773121 24.58159300
v 79.42551177 23.33674455 25.44311707
v 79.42551177 23.11092361 25.95700834
v 80.28747477 23.17661571 26.10815287
v 81.14815954 23.60978513 25.44311707
v 81.16478500 23.22794064 26.34494583
v 81.46148425 23.09860522 26.79334101
v 82.00884366 22.97748292 27.35761379
v 82.00884366 22.71470680 28.03020720
v 81.97431450 22.37392020 28.95218895
v 83.73532807 40.92007646 6.74150278
v 83.68928833 41.68581937 6.29310760
v 84.00389257 42.10872174 6.14196308
v 84.61008053 42.10872174 6.31829707
v 83.73532807 40.48896097 7.00600635
v 83.73404919 22.33697016 30.25203138
v 83.30306737 22.23226895 30.25203138
v 82.67386018 22.15836374 30.02027618
v 82.92451969 22.30822810 29.74317788
v 82.87336507 22.58126611 28.89424983
v 83.73404919 23.00622498 28.27959618
v 83.73404919 23.17251044 27.84883351
v 84.66379356 23.72269688 27.09814927
v 85.46053424 23.84176526 27.35761379
v 84.99630150 23.94851782 26.76059329
v 85.46053424 24.02036911 26.92685240
v 85.46053424 24.28930442 26.30715970
v 86.28413144 24.15380981 27.21906464
v 86.88903988 24.68141339 26.46586120
v 86.88903988 24.39400306 27.13593540
v 86.88903988 34.20905323 12.90819865
v 86.32249789 34.10230067 12.76713030
v 84.33128498 35.08360004 11.15996040
v 84.76994074 36.11211906 10.43194771
v 85.46053424 34.38971100 12.17010979
v 84.99885926 34.29938211 12.08697992
v 84.59729172 37.06467636 9.63592038
v 84.59729172 37.49579186 9.30592136
v 83.73532807 37.90021922 8.74920555
v 83.41944560 36.82859096 9.45454669
v 83.73532807 38.33133471 8.43683968
v 83.80182992 39.05396581 7.96325503
v 83.55884305 39.35779724 7.69623226
v 83.80182992 39.81560087 7.46195914
v 85.29683740 40.18923224 7.67859783
v 76.83706404 42.10872174 4.71868479
v 78.56226957 39.23051574 6.75409880
v 78.56226957 38.79940281 7.03623423
v 77.70030624 38.16915195 7.37379086
v 77.70030624 37.67439571 7.72142301
v 77.70030624 37.24328022 8.03126840
v 76.83706404 37.17553419 7.98592530
v 76.83706404 36.59866218 8.41416941
v 75.97510071 36.55555038 8.38141976
v 75.11313739 36.53091616 8.36378790
v 74.24989518 37.09546978 7.92798618
v 74.24989518 36.08337700 8.68119090
v 74.24989518 36.51449249 8.35874950
v 73.82402888 37.09341843 7.92546826
v 73.82402888 23.33674455 24.58159300
v 74.24861630 23.33674455 24.58159300
v 75.11185851 23.73911798 23.76541267
v 75.97382183 23.75964692 23.80319880
v 82.23520507 22.25279790 29.44592723
v 82.78000671 22.11320058 30.25203138
v 76.83706404 23.45170765 24.58159300
v 76.83706404 23.79454818 23.86617569
v 77.69902736 23.82944687 23.93922875
v 78.56354845 23.87666652 24.02991560
v 79.13904325 23.91567048 24.10296866
v 79.42551177 23.75759557 24.52365452
v 80.28747477 23.46607997 25.44311707
v 80.28747477 23.79660210 24.72014215
v 81.14815954 23.86845340 24.86876747
v 81.67761460 23.91567048 24.96701193
v 82.00884366 23.41270369 26.30715970
v 82.00884366 23.15403542 26.92685240
v 82.61375274 23.03906974 27.50623976
v 82.89126941 22.91384217 27.98486410
v 83.17517985 40.37399786 6.93295200
v 82.88103836 40.69836080 6.66593052
v 82.87208619 41.48052480 6.20494061
v 83.37084809 42.01634022 6.02104642
v 83.43862882 42.10872174 5.98829934
v 83.19052643 23.10271049 27.66494125
v 84.41952717 23.86845340 26.56662422
v 84.66379356 24.05321645 26.28952591
v 86.35319105 24.59313842 26.26181660
v 85.41321562 24.65883052 25.44815483
v 86.08462591 24.73889494 25.74036772
v 86.65884247 24.83127775 25.94441296
v 86.88903988 24.85591196 26.06280912
v 86.32249789 33.67118518 13.18781616
v 86.88903988 33.35914063 13.74705053
v 85.38380135 33.82926266 12.66636728
v 85.61783540 33.52542866 13.04422860
v 83.73404919 34.97069086 11.06675499
v 84.19572417 36.00126123 10.34377943
v 83.73404919 34.53957536 11.43705870
v 84.52823211 36.41595048 10.11958313
v 84.66635133 33.88263893 12.36155902
v 84.42208493 34.18852428 11.98873610
v 83.99494040 36.94355406 9.54271368
v 82.86824954 37.36235117 8.90538849
v 83.15343950 37.79346666 8.66859617
v 82.87208619 36.72388976 9.37645522
v 82.87208619 36.29277683 9.71149264
v 82.57794406 37.68671410 8.59050341
v 81.69935559 38.55510172 7.73401775
v 82.27485040 38.66596212 7.80959130
v 82.87208619 38.78708442 7.89020069
v 82.87208619 39.21819735 7.60554606
v 77.70030624 42.10872174 4.83708224
v 79.42551177 39.33316302 6.81959425
v 79.42551177 39.89361136 6.46944160
v 79.42551177 38.90204753 7.10173096
v 79.42551177 38.26769139 7.53501092
v 78.81676605 37.76883244 7.78691846
v 78.54308634 38.10140593 7.51989698
v 78.24127124 37.71956144 7.75165218
v 78.54308634 37.38082876 8.02874919
v 78.56226957 36.71773313 8.50737482
v 77.70030624 36.22708216 8.79454865
v 76.83706404 35.81444426 9.02126545
v 75.97510071 36.12443488 8.71393927
v 75.11313739 36.09774674 8.69630484
v 73.82402888 36.79779755 8.14462744
v 73.82402888 36.08337700 8.68119090
v 73.82402888 36.29482818 8.51996956
v 74.24861630 35.58041020 9.07164696
v 73.84704875 35.81444426 8.88775406
v 73.82402888 23.53382599 24.17098395
v 73.82402888 23.73706663 23.74777953
v 74.24861630 23.73706663 23.75281729
v 74.24861630 23.95673093 23.31953670
v 75.11185851 23.96494148 23.33213208
v 75.97382183 23.98341650 23.36991821
v 76.83706404 24.31393864 22.85602694
v 78.56354845 24.10043353 23.59915420
v 76.83706404 24.66909499 22.17335736
v 77.69902736 24.71015288 22.24892962
v 79.65954647 24.82511855 22.47060833
v 80.28747477 24.65883052 22.99961386
v 80.28747477 24.29751497 23.71755037
v 80.28747477 24.01010464 24.28938076
v 80.28747477 24.87644091 22.56885214
v 81.14815954 24.08401243 24.43800608
v 81.14815954 24.73478966 23.15831600
v 82.23136842 24.84359357 23.36739900
v 82.87336507 24.91339352 23.51350512
v 82.87336507 24.70194233 23.94426716
v 82.87336507 24.38989778 24.58159300
v 82.25310941 23.98341650 25.11311805
v 82.87336507 23.86229420 25.70510079
v 81.98326667 23.78633506 25.41540711
v 82.87336507 23.60157201 26.30715970
v 82.89126941 23.22794064 27.19891229
v 82.59968504 40.26519138 6.86493735
v 81.99605549 38.98416329 7.53249171
v 82.01012254 39.72322063 7.06646339
v 82.01012254 40.75584235 6.42913691
v 81.53949603 41.20132759 6.04875767
v 82.87208619 41.91164030 5.96058810
v 83.27237421 42.10872174 5.94547545
v 83.95785283 23.98752178 25.98975606
v 84.59857060 24.41453200 25.44311707
v 85.09349650 24.77995282 24.96953049
v 85.66899066 24.87438955 25.16349956
v 86.35319105 24.96266452 25.44815483
v 86.88903988 25.14332229 25.44563627
v 86.32249789 33.24212360 13.61857755
v 86.88903988 32.51333588 14.59849778
v 85.04489900 33.41867610 12.93590861
v 85.61399875 32.66935687 13.91330964
v 85.03978347 32.55644511 13.79995124
v 84.59857060 32.47227542 13.71430280
v 83.73532807 35.81444426 10.35889465
v 82.87336507 34.38971100 11.30606716
v 82.87336507 34.82082650 10.93828201
v 82.87336507 35.76311933 10.14225339
v 83.73532807 35.91708897 10.27324686
v 83.73404919 34.06124279 11.86782074
v 84.59857060 33.33656034 12.85781714
v 83.73404919 33.63012729 12.27591122
v 82.01012254 36.14907167 9.59813360
v 82.01012254 36.58018459 9.26813587
v 82.01012254 37.15911310 8.83737255
v 82.01012254 37.59022602 8.51996956
v 81.14688066 38.48119650 7.68111704
v 80.60080013 39.49329185 6.92287519
v 81.14688066 39.57540762 6.97325670
v 81.14688066 40.00652312 6.70119809
v 81.14688066 37.46089317 8.42172574
v 79.91787927 36.85733045 8.61569545
v 79.34622111 42.10872174 5.09150899
v 80.28619589 40.56697403 6.18730618
v 80.30410024 39.82586534 6.65837291
v 80.02786309 39.41528136 6.87249368
v 79.42551177 37.83657847 7.83478077
v 79.42551177 37.30486961 8.20760497
v 79.42551177 36.79779755 8.57035106
v 78.56226957 36.28661764 8.84493016
v 77.70030624 35.81444426 9.11447214
v 76.83706404 35.18008812 9.51500501
v 76.31272418 35.15339998 9.49485138
v 75.98916841 35.81444426 8.95828920
v 75.11313739 35.81444426 8.91798451
v 73.82402888 35.81444426 8.88775406
v 73.82402888 35.33816303 9.26309746
v 75.11185851 35.12055265 9.46714271
v 74.24861630 35.10207763 9.45202748
v 73.82402888 35.10002371 9.45202748
v 73.82402888 23.95467701 23.31701749
v 74.24861630 24.61571871 22.07511354
v 74.24861630 24.84564749 21.64183262
v 75.11185851 24.21950448 22.85602694
v 75.97382183 24.25645709 22.85602694
v 78.56354845 24.49049114 22.85602694
v 75.97382183 24.64446078 22.13305202
v 76.83706404 24.90107769 21.74259532
v 77.69902736 24.94008165 21.81816759
v 79.08405134 24.79021729 22.40511224
v 78.56354845 24.99756321 21.91389252
v 79.39226085 25.01809215 22.06755625
v 79.42551177 25.48616025 21.26649018
v 80.28747477 25.19874992 21.99198399
v 81.14815954 24.96061060 22.72755396
v 81.97175674 25.02630527 22.92404159
v 82.87336507 25.26033932 22.85602694
v 83.72253926 25.00577633 23.76289347
v 83.42711889 24.76763700 24.08281631
v 83.69440386 25.48205498 22.83335475
v 83.69440386 24.15175845 25.50609396
v 83.38235803 23.92182968 25.83609297
v 82.01012254 40.15433355 6.79692270
v 80.96400123 41.09662896 5.98578014
v 81.20954586 41.54006028 5.79181171
v 81.99221884 42.10872174 5.65074400
v 82.01012254 41.73098252 5.86234428
v 82.87208619 42.10872174 5.84975083
v 81.20954586 40.78868969 6.22761087
v 83.72253926 24.61982656 24.54632607
v 84.59857060 24.71015288 24.83098198
v 84.59857060 24.92571191 24.40021995
v 84.59857060 25.26854987 23.71755037
v 85.41193674 25.50668919 23.70999340
v 85.66643290 25.73045878 23.41526131
v 86.12171348 25.58470226 23.99212947
v 86.37365187 25.41430896 24.51861611
v 86.88903988 25.30550248 25.10304188
v 86.32249789 32.81100811 14.05941640
v 86.88903988 31.76401664 15.41719795
v 86.82509580 31.66752856 15.49277022
v 86.32249789 31.95904416 14.95116835
v 86.32249789 32.39015966 14.49017844
v 84.59857060 32.90544484 13.28354141
v 85.46053424 31.79686398 14.77231450
v 84.66379356 31.97957310 14.26094244
v 83.73404919 31.88719029 14.00903489
v 83.73404919 32.32035971 13.55812051
v 82.35414106 34.30964658 11.23805187
v 82.18277092 35.22114601 10.41431457
v 82.87336507 33.91959154 11.73682855
v 82.87336507 33.48847605 12.13988063
v 83.73404919 32.75352656 13.12735847
v 83.73404919 33.18464205 12.70667261
v 81.37707871 36.06489941 9.53011895
v 80.49081631 36.93739487 8.67363329
v 81.97303562 35.81444426 9.86767558
v 81.14815954 35.07538949 10.29087872
v 80.28747477 34.95837246 10.19767331
v 81.14688066 37.02977768 8.74164794
v 79.42551177 36.36668205 8.90790769
v 80.28619589 35.92530209 9.41928040
v 81.16734276 42.10872174 5.47440743
v 78.56354845 35.74464431 9.27569220
v 77.69902736 35.24167752 9.56538652
v 77.69902736 35.67279044 9.22531069
v 76.83706404 34.71612786 9.90798027
v 77.35373061 34.27269397 10.34126023
v 76.83706404 34.24395448 10.31355155
v 75.97382183 34.20905323 10.28584159
v 75.11185851 34.68943972 9.83492721
v 75.11185851 34.18647036 10.26568925
v 74.24861630 34.67096213 9.82233248
v 73.82402888 34.66891078 9.82233248
v 73.82402888 24.61571871 22.07763242
v 73.82402888 24.73068182 21.86351101
v 73.82402888 24.84770141 21.64687071
v 73.82402888 25.14332229 21.13046024
v 74.24861630 25.14126837 21.13046024
v 75.11185851 25.17001043 21.13046024
v 75.11185851 24.86001724 21.66702338
v 75.11185851 24.62598319 22.09778509
v 75.97382183 24.87849483 21.70229031
v 75.97382183 25.21312224 21.13046024
v 76.83706404 25.26239324 21.13046024
v 77.69902736 25.34245509 21.13046024
v 78.49065252 25.47384186 21.07755952
v 80.28747477 25.55596020 21.38236778
v 78.72980242 25.69966536 20.75763700
v 79.42551177 25.74688244 20.83572847
v 80.93330807 25.61754959 21.48564969
v 81.19164151 25.42046815 21.92144981
v 82.00884366 25.48205498 22.11038047
v 82.87336507 25.57854306 22.27915846
v 83.38235803 25.64012989 22.38495957
v 83.95785283 25.72430215 22.52854681
v 84.59857060 25.57648914 23.12808683
v 85.09093874 25.64628909 23.25655981
v 84.95793505 26.54547268 21.59648920
v 85.46053424 26.37918466 22.16580007
v 85.46053424 26.62553710 21.73503835
v 86.04242281 26.47361882 22.33205918
v 86.32761342 26.29296104 22.82075937
v 86.88903988 26.38328993 23.01724764
v 86.37365187 25.82078766 23.70999340
v 86.69720892 25.68529562 24.19113630
v 86.88903988 25.63602461 24.42792991
v 86.88903988 31.62236283 15.58093722
v 86.32249789 31.57309439 15.38193038
v 86.88903988 30.88946726 16.45001858
v 86.88903988 30.75602913 16.60872040
v 86.71511326 30.85456857 16.40971324
v 86.14089670 30.74165682 16.27620218
v 85.46053424 30.97774479 15.69177705
v 85.46053424 31.40886029 15.20307590
v 84.91956860 30.87715143 15.57338025
v 84.99502262 31.71064036 14.67910845
v 84.41824829 31.61004700 14.56323150
v 82.87336507 31.76196272 13.87300430
v 84.34407380 30.77450415 15.45750265
v 83.73404919 31.49918918 14.43979693
v 82.87336507 30.94079218 14.77987147
v 82.34518889 30.86277912 14.69674224
v 82.79407441 32.26492951 13.33140372
v 83.03066687 32.63856345 13.01903784
v 81.77736673 34.23163609 11.16751801
v 81.14815954 34.64427400 10.66118371
v 81.60855500 35.13903024 10.34629863
v 82.43598884 33.42483530 12.07942295
v 82.10859643 33.82926266 11.62095160
v 81.94234246 35.53729840 10.09187188
v 82.79407441 32.95266192 12.64369573
v 80.28747477 35.49213267 9.76691256
v 80.28747477 34.52725697 10.56042069
v 79.42551177 34.86804358 10.12210233
v 79.42551177 35.39564716 9.68881981
v 79.42551177 35.81444426 9.34874526
v 79.42551177 34.43692808 10.48232922
v 78.56354845 35.31558274 9.62584356
v 78.56354845 34.79824363 10.05660560
v 77.66449756 34.64837927 10.06164400
v 77.92922541 34.31785970 10.37904700
v 78.49321028 33.79231005 10.92316743
v 77.69902736 33.38582877 11.18011339
v 76.83706404 33.33656034 11.13476964
v 75.97382183 33.29960516 11.10202192
v 75.97382183 33.77793773 10.67126053
v 75.11185851 33.26676039 11.07431196
v 75.11185851 33.75535744 10.64354928
v 74.24861630 33.74098512 10.62843663
v 74.24861630 34.17210062 10.25309323
v 73.82402888 34.41639914 10.04149037
v 73.82402888 25.52927206 20.48557711
v 74.24861630 25.52927206 20.48557711
v 75.11185851 25.54364438 20.50824866
v 75.97382183 25.56827859 20.54351559
v 75.97382183 25.83310606 20.11023467
v 76.83706404 25.59496673 20.58885901
v 77.69902736 25.63602461 20.65435510
v 78.15430761 25.66065883 20.69466012
v 80.28747477 25.81668239 20.95160575
v 79.42551177 26.09177433 20.26641728
v 81.14815954 26.32991365 20.37977568
v 82.00884366 26.41613727 20.51832483
v 82.00884366 26.05277036 21.13046024
v 81.50880287 25.67913642 21.58641271
v 82.00884366 25.73251270 21.67961876
v 82.87336507 25.83105213 21.84587754
v 82.60735833 26.48183194 20.62664514
v 83.18285314 26.55984243 20.75259892
v 83.73404919 26.63374765 20.87855269
v 84.38244025 26.46540827 21.45794005
v 84.59857060 25.81668239 22.69480592
v 84.64205257 26.72202519 21.15565099
v 85.31602062 27.29479192 20.55611096
v 85.54494043 27.06691450 21.04481180
v 86.32761342 26.75486995 22.02473203
v 85.89151607 27.38922608 20.69969820
v 86.88903988 26.62348318 22.59404290
v 86.88903988 26.00349936 23.71503116
v 86.88903988 25.72019430 24.25915159
v 86.88903988 30.09703878 17.40726694
v 85.46053424 30.18120847 16.64398733
v 85.46053424 30.61232397 16.12505765
v 84.78656491 30.05803225 16.49536200
v 84.56659856 30.41729388 15.97139456
v 82.42447890 31.70242724 13.80750885
v 82.08685544 31.99189150 13.41201375
v 81.76969344 30.78476862 14.60857460
v 84.21234963 29.95949282 16.37192711
v 83.73404919 30.25100842 15.85551696
v 83.73404919 30.68212134 15.35170186
v 83.73404919 31.06807368 14.92093983
v 82.87336507 30.56099904 15.21315271
v 82.20834855 30.03750331 15.60360941
v 81.63285375 29.95949282 15.51040336
v 82.00884366 32.49485829 12.87545093
v 82.45517206 32.55644511 12.93842781
v 81.14815954 34.15157167 11.09194575
v 81.86049403 33.34682481 12.00636989
v 81.14815954 33.25238807 11.92072145
v 81.14815954 32.37578734 12.75705412
v 81.14815954 32.82127515 12.32377353
v 80.28747477 34.04481912 10.99118273
v 79.42551177 33.95449023 10.91309126
v 78.56354845 34.36712814 10.42187218
v 78.73363906 33.46589318 11.25316645
v 78.15814426 33.41867610 11.21286111
v 77.69902736 32.95471327 11.57560785
v 76.83706404 32.90339092 11.53278395
v 75.97382183 32.86849223 11.50507400
v 74.24861630 33.25033672 11.05919738
v 75.11185851 32.83564490 11.47736404
v 73.82402888 33.74098512 10.63095455
v 73.82402888 33.95449023 10.44454245
v 73.82402888 25.80231264 20.05481507
v 74.24861630 25.80231264 20.05481507
v 75.11185851 25.81462847 20.07748678
v 75.97382183 26.26422155 19.42252716
v 76.83706404 26.56394770 19.03458967
v 76.83706404 26.29501496 19.46535154
v 77.69902736 26.33812677 19.53588556
v 78.56354845 26.38328993 19.61145782
v 79.42551177 26.43872013 19.69962546
v 80.04832520 26.49004248 19.78023597
v 80.62126224 26.54547268 19.86588441
v 81.14815954 26.59679504 19.94649492
v 82.00884366 26.68301865 20.08756312
v 82.88743277 26.75486995 20.31176071
v 83.79799327 27.08539209 20.19084502
v 84.59857060 27.18598545 20.38733297
v 84.59857060 27.46929050 19.95657110
v 85.03211019 28.24940315 18.97413182
v 86.32249789 27.20651439 21.26145210
v 86.88903988 26.98890400 21.97435052
v 86.72534432 28.26172155 19.85076999
v 86.88903988 28.29251496 19.89611341
v 86.88903988 28.00715598 20.32687529
v 86.88903988 27.55551154 21.03221642
v 86.88903988 27.33174453 21.39748204
v 86.57955181 30.03955723 17.33421388
v 86.88903988 29.78088639 17.82291439
v 85.83012975 29.13626836 18.14535612
v 85.25463430 29.02951580 18.00932617
v 86.00405637 29.93485603 17.20070281
v 85.46053424 29.83631659 17.07474904
v 81.84898410 31.62852202 13.72689818
v 81.14815954 31.94467442 13.20041153
v 81.14815954 30.27974791 15.01414588
v 81.14815954 30.71086340 14.52544472
v 81.14815954 31.54229841 13.63117357
v 83.99110375 29.16295650 17.32161850
v 83.41688783 29.08083816 17.21077931
v 82.87336507 29.00077374 17.11253517
v 83.73404919 29.89174422 16.28879756
v 84.59857060 28.92481717 17.86825782
v 82.87336507 30.12988612 15.71192940
v 82.87336507 29.77472720 16.14521064
v 81.14815954 29.90816789 15.44742647
v 82.00884366 29.23070252 16.53566702
v 82.00884366 28.88581064 16.96642873
v 81.37579983 29.15474338 16.44246129
v 81.11107197 29.42778396 16.03185224
v 80.28747477 33.15179472 11.82499620
v 80.28747477 32.27930183 12.65881031
v 80.28747477 32.72068179 12.22804891
v 80.28747477 31.84818633 13.09712931
v 79.42551177 33.52337474 11.31110493
v 78.28858986 32.53181090 12.05171363
v 77.69902736 32.48869909 12.00636989
v 76.83706404 32.44558728 11.96606455
v 74.24861630 32.81922123 11.46224946
v 73.82402888 33.03477769 11.26576183
v 73.82402888 33.25444200 11.06171658
v 73.82402888 33.49258132 10.85011437
v 75.97382183 32.41684779 11.93583603
v 75.11185851 32.39015966 11.90812607
v 73.82402888 26.00760463 19.73489255
v 73.82402888 26.51057143 18.95397931
v 74.24861630 26.51262535 18.95649836
v 75.48145401 26.52699509 18.97916991
v 75.97382183 26.53520821 18.99176529
v 75.97382183 26.84519884 18.54588899
v 76.83706404 26.90473431 18.54588899
v 77.69902736 26.99916847 18.54588899
v 77.69902736 26.61116479 19.10512368
v 78.56354845 26.66248971 19.18069595
v 79.42551177 26.72202519 19.27138263
v 80.31561017 26.75486995 19.46031329
v 81.14815954 26.95811059 19.40741274
v 81.97047785 27.15929731 19.36206948
v 82.87336507 27.22088413 19.59130531
v 83.55116976 27.31532086 19.72985446
v 84.59857060 28.18781375 18.88344514
v 84.59857060 28.49370168 18.45268326
v 85.43239885 28.69283447 18.55848437
v 86.32249789 28.91865797 18.70459081
v 86.88903988 28.65588186 19.37466485
v 85.60632546 28.35410178 19.12779539
v 86.88903988 28.38284385 19.76512139
v 85.50913175 29.36003794 17.70451791
v 86.88903988 29.31076694 18.46024055
v 86.32249789 29.22864860 18.27382877
v 80.28747477 30.19147295 14.91590206
v 80.28747477 30.62258844 14.42720091
v 80.28747477 31.01674875 13.99643887
v 80.28747477 31.44786425 13.52789135
v 83.71614485 28.84269883 17.63650294
v 82.87592283 28.52860036 17.73474675
v 82.87336507 29.34361427 16.68177346
v 82.00884366 28.45469514 17.52566374
v 83.73404919 28.36847153 18.27886718
v 80.28747477 29.39288270 15.87315010
v 80.28747477 29.82399820 15.34666346
v 81.11107197 28.84269883 16.76742190
v 81.14815954 28.36026098 17.39719077
v 80.28747477 29.04388555 16.30643134
v 79.42551177 32.20334268 12.58071884
v 78.86408467 32.58518718 12.09957594
v 79.42551177 32.63650953 12.14995745
v 79.42551177 30.93257906 13.90575267
v 78.77712071 30.87304616 13.84025658
v 79.42551177 31.77222719 13.01903784
v 78.83339151 31.72295619 12.96613713
v 78.25789670 31.67779303 12.91827482
v 77.69902736 32.05758360 12.44972730
v 76.83706404 32.01242044 12.40186499
v 75.97382183 31.55872208 12.79735946
v 74.24861630 32.37784126 11.89301149
v 73.82402888 32.59750557 11.68392848
v 73.82402888 32.82332650 11.46728786
v 75.11185851 31.53203394 12.77216870
v 73.82402888 26.65222524 18.73985774
v 74.24861630 26.80208703 18.52321744
v 75.16173489 26.76102915 18.62398046
v 75.11185851 27.24962619 17.92115853
v 75.97382183 27.26810378 17.94886817
v 76.83706404 27.29684327 17.98917350
v 77.69902736 27.34406036 18.05215039
v 78.53413417 27.14492756 18.47787402
v 78.80269835 27.41180895 18.14535612
v 79.42551177 27.15313811 18.64413313
v 80.28747477 27.22909725 18.75245312
v 81.14815954 27.31942614 18.87336880
v 81.65459473 27.37280242 18.95146011
v 81.97047785 27.67458249 18.61642317
v 82.22881066 27.43644317 19.04466600
v 82.87336507 27.51650758 19.16306248
v 83.73404919 28.06669145 18.70962890
v 86.88903988 29.05620394 18.81039192
v 86.88903988 29.02541053 18.85321613
v 86.88903988 28.84269883 19.11016193
v 79.42551177 30.11140853 14.82521522
v 79.42551177 30.54252402 14.33903391
v 83.16367056 28.29046104 18.16802767
v 82.58817511 28.21039662 18.05970736
v 82.00884366 28.14059667 17.95894466
v 79.42551177 28.95971586 16.20566832
v 79.42551177 29.31692613 15.77490629
v 79.42551177 29.74803906 15.25597661
v 80.23120463 28.56555297 16.90093296
v 79.90509045 28.24324395 17.24100815
v 81.14815954 28.04821643 17.82795280
v 80.23120463 28.01947437 17.63146485
v 79.42551177 28.52860036 16.74978843
v 78.52006679 30.53636483 14.17025559
v 78.20162591 30.82582651 13.78987507
v 77.69902736 31.64289434 12.88048933
v 76.83706404 31.59567469 12.83262639
v 75.97382183 31.12760915 13.24323543
v 75.11185851 31.10092102 13.21048771
v 74.24861630 31.94672577 12.32881193
v 73.82402888 31.73116930 12.54797111
v 73.82402888 31.94877969 12.32881193
v 73.82402888 32.16023088 12.11720908
v 73.82402888 32.37989518 11.89804990
v 73.82402888 26.80003568 18.52321744
v 73.82402888 27.01148687 18.21589030
v 73.82402888 27.23115117 17.89848666
v 74.24861630 27.23320253 17.90100586
v 75.11185851 27.56167074 17.49039649
v 75.97382183 27.58425360 17.51558725
v 75.97382183 28.33151892 16.49788088
v 76.83706404 27.61710094 17.55589258
v 77.69902736 28.08722040 17.03192482
v 77.69902736 27.65610490 17.62138835
v 78.22720354 27.37690769 18.09497461
v 78.56354845 28.13443748 17.09490171
v 78.53413417 27.65610490 17.75741862
v 79.42551177 27.83881660 17.68184636
v 79.42551177 27.45902603 18.21337109
v 81.14815954 27.61710094 18.44260709
v 82.87592283 27.98662704 18.49046939
v 78.56354845 30.03955723 14.74208534
v 78.56354845 28.46085434 16.66162079
v 78.56354845 28.89196983 16.12505765
v 78.56354845 29.68029303 15.17284738
v 79.42551177 28.20013215 17.18306935
v 77.93434094 29.99439150 14.68918527
v 77.69902736 30.79913837 13.76216511
v 76.83706404 31.16456176 13.28354141
v 77.66705532 30.30027685 14.31636171
v 75.97382183 30.71907652 13.67399747
v 75.11185851 30.69033446 13.64124974
v 74.24861630 31.09270790 13.20544994
v 74.24861630 31.52382339 12.75957333
v 73.82402888 31.30415908 12.98629012
v 73.82402888 27.54935492 17.46772494
v 74.24861630 27.55140627 17.47024383
v 75.11185851 27.99484016 16.90345216
v 76.83706404 28.36847153 16.54574351
v 75.11185851 28.31304390 16.47269013
v 75.72444088 29.09931575 15.51292257
v 75.99812058 28.82422381 15.88070771
v 76.29993568 29.12189604 15.53559412
v 77.69902736 28.41158334 16.60116311
v 77.69902736 28.84269883 16.05956156
v 77.69902736 29.19374991 15.62880017
v 76.83706404 29.14653283 15.57086104
v 77.35756693 29.96770336 14.65643690
v 76.83706404 30.75808049 13.71682201
v 76.83706404 30.32696499 14.20048411
v 75.97382183 30.28590711 14.16017942
v 75.11185851 30.25921897 14.13246946
v 74.24861630 30.25305977 14.11987408
v 74.24861630 30.68417527 13.63621198
v 73.82402888 31.09270790 13.20796915
v 73.82402888 28.14265060 16.68429266
v 74.24861630 27.98252176 16.89841376
v 76.83706404 28.79958702 16.00162308
v 74.24861630 28.30893863 16.46765204
v 73.82402888 28.49986087 16.21574450
v 73.82402888 28.88581064 15.72452478
v 75.11185851 28.71952261 15.95879854
v 75.11185851 29.08905128 15.50032719
v 75.11185851 29.88763895 14.56323150
v 75.97382183 29.91022181 14.59094146
v 76.83706404 29.94512050 14.63124615
v 74.24861630 29.87737448 14.55063548
v 73.82402888 30.25511369 14.11987408
v 73.82402888 30.68622919 13.63873054
v 73.82402888 30.88536198 13.42712833
v 73.82402888 28.30893863 16.46513284
v 73.82402888 29.07673288 15.48521261
v 74.24861630 29.44625898 15.05696978
v 73.82402888 29.44625898 15.05445057
v 73.82402888 29.87737448 14.55315468
f 1 2 6
f 1 6 11
f 1 11 18
f 1 18 23
f 1 23 38
f 1 38 37
f 1 37 36
f 1 36 59
f 1 59 104
f 1 104 157
f 1 157 156
f 1 156 213
f 1 213 281
f 1 281 233
f 1 233 232
f 1 232 174
f 1 174 120
f 1 120 73
f 1 73 72
f 1 72 44
f 1 44 25
f 1 25 14
f 1 14 8
f 1 8 3
f 1 3 4
f 1 4 5
f 1 5 2
f 2 5 7
f 2 7 6
f 3 8 15
f 3 15 27
f 3 27 50
f 3 50 97
f 3 97 149
f 3 149 207
f 3 207 275
f 3 275 343
f 3 343 345
f 3 345 344
f 3 344 424
f 3 424 425
f 3 425 428
f 3 428 502
f 3 502 580
f 3 580 643
f 3 643 642
f 3 642 703
f 3 703 702
f 3 702 701
f 3 701 759
f 3 759 758
f 3 758 804
f 3 804 803
f 3 803 802
f 3 802 801
f 3 801 835
f 3 835 855
f 3 855 870
f 3 870 869
f 3 869 868
f 3 868 875
f 3 875 874
f 3 874 872
f 3 872 861
f 3 861 860
f 3 860 871
f 3 871 856
f 3 856 836
f 3 836 807
f 3 807 806
f 3 806 805
f 3 805 761
f 3 761 707
f 3 707 706
f 3 706 644
f 3 644 581
f 3 581 506
f 3 506 505
f 3 505 504
f 3 504 503
f 3 503 429
f 3 429 349
f 3 349 348
f 3 348 276
f 3 276 208
f 3 208 151
f 3 151 150
f 3 150 100
f 3 100 55
f 3 55 52
f 3 52 51
f 3 51 29
f 3 29 28
f 3 28 16
f 3 16 9
f 3 9 4
f 4 9 10
f 4 10 5
f 5 10 7
f 6 7 11
f 7 10 12
f 7 12 19
f 7 19 13
f 7 13 11
f 8 14 15
f 9 16 10
f 10 16 17
f 10 17 12
f 11 13 18
f 12 17 20
f 12 20 21
f 12 21 19
f 13 19 22
f 13 22 23
f 13 23 18
f 14 24 15
f 14 25 47
f 14 47 76
f 14 76 124
f 14 124 126
f 14 126 182
f 14 182 246
f 14 246 245
f 14 245 308
f 14 308 386
f 14 386 466
f 14 466 535
f 14 535 609
f 14 609 608
f 14 608 532
f 14 532 607
f 14 607 663
f 14 663 668
f 14 668 667
f 14 667 666
f 14 666 665
f 14 665 728
f 14 728 726
f 14 726 780
f 14 780 779
f 14 779 778
f 14 778 730
f 14 730 670
f 14 670 610
f 14 610 539
f 14 539 538
f 14 538 536
f 14 536 468
f 14 468 388
f 14 388 310
f 14 310 247
f 14 247 184
f 14 184 128
f 14 128 78
f 14 78 48
f 14 48 26
f 14 26 24
f 15 24 43
f 15 43 71
f 15 71 119
f 15 119 173
f 15 173 230
f 15 230 229
f 15 229 300
f 15 300 380
f 15 380 456
f 15 456 454
f 15 454 491
f 15 491 411
f 15 411 329
f 15 329 262
f 15 262 199
f 15 199 141
f 15 141 94
f 15 94 49
f 15 49 27
f 16 28 17
f 17 28 29
f 17 29 30
f 17 30 20
f 19 21 31
f 19 31 32
f 19 32 22
f 20 33 21
f 20 30 34
f 20 34 35
f 20 35 33
f 21 33 31
f 22 36 37
f 22 37 38
f 22 38 23
f 22 32 39
f 22 39 40
f 22 40 41
f 22 41 42
f 22 42 36
f 24 26 48
f 24 48 43
f 25 44 45
f 25 45 46
f 25 46 47
f 27 49 50
f 29 51 30
f 30 51 52
f 30 52 34
f 31 33 53
f 31 53 40
f 31 40 32
f 32 40 39
f 33 35 54
f 33 54 53
f 34 52 55
f 34 55 100
f 34 100 56
f 34 56 35
f 35 56 57
f 35 57 54
f 36 42 58
f 36 58 59
f 40 53 60
f 40 60 61
f 40 61 62
f 40 62 63
f 40 63 64
f 40 64 65
f 40 65 41
f 41 65 66
f 41 66 67
f 41 67 68
f 41 68 42
f 42 68 58
f 43 69 70
f 43 70 71
f 43 48 69
f 44 72 45
f 45 72 73
f 45 73 74
f 45 74 75
f 45 75 46
f 46 76 47
f 46 75 77
f 46 77 76
f 48 78 79
f 48 79 80
f 48 80 81
f 48 81 82
f 48 82 83
f 48 83 84
f 48 84 85
f 48 85 86
f 48 86 87
f 48 87 88
f 48 88 89
f 48 89 90
f 48 90 91
f 48 91 92
f 48 92 93
f 48 93 69
f 49 94 95
f 49 95 96
f 49 96 50
f 50 96 97
f 53 54 98
f 53 98 60
f 54 57 56
f 54 56 99
f 54 99 98
f 56 100 150
f 56 150 101
f 56 101 102
f 56 102 99
f 58 103 59
f 58 68 103
f 59 103 104
f 60 98 105
f 60 105 106
f 60 106 61
f 61 106 107
f 61 107 108
f 61 108 109
f 61 109 63
f 61 63 62
f 63 110 111
f 63 111 64
f 63 109 110
f 64 111 65
f 65 111 66
f 66 111 110
f 66 110 112
f 66 112 113
f 66 113 68
f 66 68 67
f 68 113 114
f 68 114 115
f 68 115 103
f 69 93 70
f 70 93 92
f 70 92 116
f 70 116 117
f 70 117 118
f 70 118 71
f 71 117 119
f 71 118 117
f 73 120 121
f 73 121 74
f 74 121 122
f 74 122 123
f 74 123 75
f 75 123 77
f 76 77 124
f 77 125 126
f 77 126 124
f 77 123 125
f 78 127 79
f 78 128 127
f 79 129 130
f 79 130 80
f 79 127 131
f 79 131 132
f 79 132 129
f 80 130 81
f 81 130 133
f 81 133 82
f 82 133 83
f 83 133 84
f 84 133 85
f 85 133 134
f 85 134 135
f 85 135 136
f 85 136 86
f 86 136 135
f 86 135 87
f 87 135 88
f 88 135 137
f 88 137 89
f 89 138 90
f 89 137 138
f 90 139 91
f 90 138 135
f 90 135 139
f 91 139 92
f 92 140 116
f 92 139 140
f 94 141 142
f 94 142 143
f 94 143 95
f 95 143 142
f 95 142 144
f 95 144 145
f 95 145 146
f 95 146 147
f 95 147 148
f 95 148 96
f 96 148 97
f 97 148 149
f 98 99 102
f 98 102 105
f 101 150 151
f 101 151 152
f 101 152 153
f 101 153 154
f 101 154 102
f 102 154 105
f 103 155 156
f 103 156 157
f 103 157 104
f 103 115 155
f 105 154 153
f 105 153 158
f 105 158 106
f 106 158 159
f 106 159 160
f 106 160 161
f 106 161 107
f 107 161 162
f 107 162 108
f 108 162 163
f 108 163 109
f 109 163 110
f 110 163 164
f 110 164 112
f 112 164 165
f 112 165 166
f 112 166 167
f 112 167 168
f 112 168 113
f 113 168 114
f 114 169 170
f 114 170 155
f 114 155 115
f 114 168 169
f 116 171 117
f 116 140 171
f 117 171 172
f 117 172 173
f 117 173 119
f 120 174 121
f 121 175 176
f 121 176 177
f 121 177 178
f 121 178 122
f 121 174 175
f 122 178 177
f 122 177 123
f 123 177 179
f 123 179 125
f 125 179 180
f 125 180 181
f 125 181 126
f 126 181 182
f 127 128 131
f 128 183 131
f 128 184 183
f 129 132 185
f 129 185 186
f 129 186 130
f 130 186 133
f 131 187 132
f 131 183 188
f 131 188 187
f 132 187 189
f 132 189 185
f 133 190 191
f 133 191 134
f 133 186 190
f 134 191 135
f 135 192 193
f 135 193 194
f 135 194 195
f 135 195 196
f 135 196 197
f 135 197 139
f 135 138 137
f 135 191 192
f 139 197 140
f 140 197 198
f 140 198 171
f 141 199 200
f 141 200 201
f 141 201 142
f 142 201 202
f 142 202 144
f 144 202 203
f 144 203 145
f 145 203 204
f 145 204 146
f 146 204 205
f 146 205 206
f 146 206 148
f 146 148 147
f 148 206 149
f 149 206 205
f 149 205 207
f 151 208 152
f 152 208 209
f 152 209 153
f 153 209 210
f 153 210 159
f 153 159 158
f 155 170 211
f 155 211 212
f 155 212 213
f 155 213 156
f 159 214 160
f 159 210 215
f 159 215 214
f 160 214 161
f 161 214 216
f 161 216 217
f 161 217 162
f 162 217 218
f 162 218 163
f 163 218 219
f 163 219 164
f 164 219 165
f 165 219 220
f 165 220 166
f 166 220 221
f 166 221 222
f 166 222 223
f 166 223 167
f 167 224 225
f 167 225 168
f 167 223 224
f 168 225 169
f 169 225 226
f 169 226 211
f 169 211 170
f 171 227 228
f 171 228 229
f 171 229 230
f 171 230 172
f 171 198 195
f 171 195 231
f 171 231 227
f 172 230 173
f 174 232 175
f 175 232 233
f 175 233 234
f 175 234 235
f 175 235 236
f 175 236 176
f 176 236 237
f 176 237 177
f 177 237 238
f 177 238 239
f 177 239 240
f 177 240 179
f 179 240 180
f 180 240 241
f 180 241 242
f 180 242 243
f 180 243 244
f 180 244 181
f 181 244 245
f 181 245 246
f 181 246 182
f 183 184 188
f 184 247 248
f 184 248 188
f 185 189 249
f 185 249 250
f 185 250 186
f 186 250 190
f 187 188 251
f 187 251 252
f 187 252 189
f 188 248 251
f 189 252 249
f 190 253 191
f 190 250 253
f 191 253 254
f 191 254 192
f 192 255 193
f 192 254 256
f 192 256 255
f 193 255 257
f 193 257 258
f 193 258 194
f 194 258 259
f 194 259 260
f 194 260 231
f 194 231 195
f 195 198 261
f 195 261 196
f 196 261 197
f 197 261 198
f 199 262 200
f 200 263 264
f 200 264 201
f 200 262 263
f 201 264 265
f 201 265 203
f 201 203 202
f 203 266 267
f 203 267 268
f 203 268 204
f 203 265 266
f 204 268 269
f 204 269 270
f 204 270 271
f 204 271 205
f 205 272 207
f 205 271 273
f 205 273 274
f 205 274 272
f 207 272 275
f 208 276 277
f 208 277 209
f 209 277 210
f 210 277 278
f 210 278 279
f 210 279 215
f 211 226 280
f 211 280 212
f 212 280 234
f 212 234 213
f 213 234 281
f 214 215 282
f 214 282 216
f 215 279 283
f 215 283 282
f 216 282 283
f 216 283 284
f 216 284 217
f 217 284 285
f 217 285 286
f 217 286 287
f 217 287 218
f 218 288 219
f 218 287 289
f 218 289 288
f 219 288 220
f 220 288 221
f 221 288 290
f 221 290 291
f 221 291 222
f 222 292 223
f 222 291 292
f 223 292 293
f 223 293 224
f 224 294 225
f 224 293 294
f 225 294 295
f 225 295 226
f 226 295 236
f 226 236 280
f 227 231 296
f 227 296 297
f 227 297 298
f 227 298 299
f 227 299 228
f 228 299 229
f 229 299 300
f 231 260 296
f 233 281 234
f 234 280 236
f 234 236 235
f 236 295 237
f 237 295 301
f 237 301 238
f 238 301 302
f 238 302 239
f 239 302 241
f 239 241 240
f 241 302 303
f 241 303 243
f 241 243 242
f 243 304 244
f 243 303 305
f 243 305 306
f 243 306 304
f 244 304 307
f 244 307 308
f 244 308 245
f 247 309 248
f 247 310 309
f 248 311 251
f 248 309 312
f 248 312 311
f 249 313 314
f 249 314 250
f 249 252 315
f 249 315 313
f 250 314 256
f 250 256 316
f 250 316 253
f 251 311 252
f 252 311 317
f 252 317 318
f 252 318 315
f 253 319 254
f 253 316 319
f 254 319 256
f 255 320 321
f 255 321 257
f 255 256 322
f 255 322 320
f 256 319 316
f 256 314 323
f 256 323 322
f 257 321 324
f 257 324 325
f 257 325 326
f 257 326 327
f 257 327 258
f 258 327 326
f 258 326 259
f 259 328 260
f 259 326 328
f 260 328 296
f 262 329 263
f 263 330 332
f 263 332 264
f 263 329 331
f 263 331 330
f 264 332 333
f 264 333 334
f 264 334 335
f 264 335 265
f 265 335 336
f 265 336 266
f 266 336 337
f 266 337 338
f 266 338 267
f 267 338 268
f 268 338 269
f 269 338 339
f 269 339 340
f 269 340 341
f 269 341 270
f 270 341 342
f 270 342 271
f 271 342 273
f 272 274 343
f 272 343 275
f 273 344 345
f 273 345 274
f 273 342 346
f 273 346 347
f 273 347 424
f 273 424 344
f 274 345 343
f 276 348 277
f 277 348 349
f 277 349 350
f 277 350 278
f 278 350 351
f 278 351 352
f 278 352 353
f 278 353 279
f 279 353 354
f 279 354 283
f 283 354 284
f 284 355 285
f 284 354 356
f 284 356 357
f 284 357 355
f 285 355 358
f 285 358 286
f 286 359 360
f 286 360 361
f 286 361 289
f 286 289 287
f 286 358 362
f 286 362 359
f 288 289 290
f 289 361 290
f 290 361 363
f 290 363 291
f 291 363 364
f 291 364 365
f 291 365 366
f 291 366 367
f 291 367 368
f 291 368 369
f 291 369 370
f 291 370 371
f 291 371 292
f 292 372 373
f 292 373 294
f 292 294 293
f 292 371 372
f 294 373 301
f 294 301 295
f 296 374 297
f 296 328 326
f 296 326 325
f 296 325 375
f 296 375 376
f 296 376 374
f 297 374 377
f 297 377 378
f 297 378 298
f 298 378 379
f 298 379 299
f 299 379 380
f 299 380 300
f 301 373 381
f 301 381 302
f 302 381 303
f 303 381 382
f 303 382 305
f 304 306 307
f 305 382 383
f 305 383 384
f 305 384 306
f 306 384 385
f 306 385 307
f 307 385 386
f 307 386 308
f 309 310 387
f 309 387 312
f 310 388 387
f 311 312 389
f 311 389 317
f 312 387 390
f 312 390 391
f 312 391 392
f 312 392 389
f 313 393 314
f 313 315 394
f 313 394 395
f 313 395 396
f 313 396 393
f 314 393 397
f 314 397 323
f 315 318 398
f 315 398 394
f 317 389 399
f 317 399 400
f 317 400 398
f 317 398 318
f 320 324 321
f 320 322 324
f 322 323 401
f 322 401 402
f 322 402 403
f 322 403 324
f 323 397 396
f 323 396 401
f 324 404 325
f 324 403 404
f 325 405 406
f 325 406 407
f 325 407 408
f 325 408 376
f 325 376 375
f 325 404 403
f 325 403 409
f 325 409 410
f 325 410 405
f 329 411 412
f 329 412 331
f 330 331 412
f 330 412 413
f 330 413 414
f 330 414 405
f 330 405 332
f 332 405 333
f 333 405 415
f 333 415 334
f 334 415 416
f 334 416 417
f 334 417 338
f 334 338 337
f 334 337 336
f 334 336 335
f 338 417 489
f 338 489 418
f 338 418 419
f 338 419 339
f 339 419 340
f 340 419 420
f 340 420 421
f 340 421 341
f 341 421 422
f 341 422 423
f 341 423 342
f 342 423 346
f 346 425 424
f 346 424 347
f 346 423 426
f 346 426 427
f 346 427 428
f 346 428 425
f 349 429 350
f 350 429 351
f 351 429 430
f 351 430 352
f 352 430 431
f 352 431 432
f 352 432 433
f 352 433 353
f 353 433 356
f 353 356 354
f 355 357 434
f 355 434 358
f 356 433 435
f 356 435 436
f 356 436 437
f 356 437 357
f 357 437 438
f 357 438 434
f 358 438 437
f 358 437 439
f 358 439 440
f 358 440 441
f 358 441 442
f 358 442 362
f 358 434 438
f 359 363 360
f 359 362 363
f 360 363 361
f 362 442 443
f 362 443 364
f 362 364 363
f 364 443 365
f 365 443 444
f 365 444 445
f 365 445 366
f 366 446 447
f 366 447 367
f 366 445 448
f 366 448 446
f 367 447 368
f 368 447 449
f 368 449 369
f 369 449 381
f 369 381 450
f 369 450 370
f 370 450 372
f 370 372 371
f 372 450 381
f 372 381 373
f 374 451 377
f 374 376 451
f 376 408 451
f 377 451 378
f 378 452 453
f 378 453 454
f 378 454 455
f 378 455 456
f 378 456 379
f 378 451 457
f 378 457 452
f 379 456 380
f 381 449 382
f 382 449 458
f 382 458 459
f 382 459 383
f 383 459 460
f 383 460 461
f 383 461 462
f 383 462 463
f 383 463 464
f 383 464 384
f 384 464 465
f 384 465 385
f 385 465 466
f 385 466 386
f 387 388 467
f 387 467 390
f 388 468 469
f 388 469 470
f 388 470 471
f 388 471 467
f 389 392 472
f 389 472 399
f 390 467 471
f 390 471 391
f 391 471 473
f 391 473 474
f 391 474 392
f 392 474 475
f 392 475 476
f 392 476 481
f 392 481 472
f 393 396 397
f 394 477 478
f 394 478 395
f 394 398 479
f 394 479 477
f 395 478 396
f 396 478 401
f 398 400 480
f 398 480 479
f 399 472 481
f 399 481 482
f 399 482 400
f 400 482 480
f 401 483 484
f 401 484 402
f 401 478 485
f 401 485 486
f 401 486 487
f 401 487 483
f 402 484 488
f 402 488 403
f 403 488 409
f 405 416 415
f 405 414 406
f 405 410 416
f 406 414 413
f 406 413 412
f 406 412 408
f 406 408 407
f 408 412 452
f 408 452 457
f 408 457 451
f 409 488 484
f 409 484 410
f 410 489 417
f 410 417 416
f 410 484 483
f 410 483 490
f 410 490 489
f 411 491 453
f 411 453 452
f 411 452 412
f 418 489 492
f 418 492 493
f 418 493 494
f 418 494 419
f 419 494 420
f 420 495 421
f 420 494 493
f 420 493 496
f 420 496 495
f 421 495 497
f 421 497 498
f 421 498 499
f 421 499 426
f 421 426 423
f 421 423 422
f 426 499 427
f 427 499 500
f 427 500 501
f 427 501 502
f 427 502 428
f 429 503 431
f 429 431 430
f 431 503 504
f 431 504 505
f 431 505 506
f 431 506 507
f 431 507 508
f 431 508 509
f 431 509 510
f 431 510 432
f 432 510 433
f 433 510 435
f 435 510 509
f 435 509 511
f 435 511 436
f 436 511 512
f 436 512 513
f 436 513 514
f 436 514 437
f 437 514 515
f 437 515 441
f 437 441 439
f 439 441 440
f 441 516 442
f 441 515 517
f 441 517 518
f 441 518 589
f 441 589 516
f 442 516 519
f 442 519 520
f 442 520 443
f 443 520 521
f 443 521 444
f 444 521 445
f 445 521 522
f 445 522 523
f 445 523 448
f 446 461 460
f 446 460 459
f 446 459 447
f 446 448 461
f 447 459 458
f 447 458 449
f 448 523 524
f 448 524 525
f 448 525 461
f 453 491 454
f 454 456 455
f 461 525 526
f 461 526 463
f 461 463 462
f 463 526 527
f 463 527 528
f 463 528 529
f 463 529 530
f 463 530 531
f 463 531 532
f 463 532 533
f 463 533 464
f 464 534 466
f 464 466 465
f 464 533 534
f 466 534 535
f 468 536 469
f 469 537 470
f 469 536 538
f 469 538 539
f 469 539 540
f 469 540 541
f 469 541 542
f 469 542 537
f 470 473 471
f 470 537 543
f 470 543 473
f 473 543 544
f 473 544 545
f 473 545 474
f 474 545 546
f 474 546 475
f 475 547 476
f 475 546 548
f 475 548 549
f 475 549 550
f 475 550 551
f 475 551 547
f 476 547 552
f 476 552 553
f 476 553 481
f 477 554 555
f 477 555 556
f 477 556 478
f 477 479 557
f 477 557 558
f 477 558 554
f 478 556 559
f 478 559 485
f 479 480 557
f 480 482 481
f 480 481 553
f 480 553 560
f 480 560 557
f 483 487 561
f 483 561 490
f 485 559 486
f 486 559 556
f 486 556 555
f 486 555 562
f 486 562 487
f 487 563 564
f 487 564 565
f 487 565 561
f 487 562 566
f 487 566 563
f 489 565 492
f 489 490 565
f 490 561 565
f 492 565 564
f 492 564 567
f 492 567 493
f 493 567 568
f 493 568 569
f 493 569 496
f 495 496 497
f 496 570 571
f 496 571 572
f 496 572 573
f 496 573 497
f 496 569 570
f 497 573 574
f 497 574 575
f 497 575 498
f 498 500 499
f 498 575 576
f 498 576 577
f 498 577 500
f 500 577 578
f 500 578 579
f 500 579 501
f 501 579 502
f 502 579 580
f 506 581 507
f 507 581 582
f 507 582 583
f 507 583 508
f 508 583 512
f 508 512 511
f 508 511 509
f 512 583 584
f 512 584 513
f 513 584 585
f 513 585 586
f 513 586 514
f 514 586 587
f 514 587 588
f 514 588 515
f 515 588 517
f 516 589 519
f 517 588 590
f 517 590 518
f 518 590 589
f 519 589 591
f 519 591 592
f 519 592 593
f 519 593 594
f 519 594 520
f 520 594 521
f 521 594 595
f 521 595 522
f 522 595 596
f 522 596 523
f 523 596 597
f 523 597 598
f 523 598 599
f 523 599 600
f 523 600 527
f 523 527 524
f 524 601 526
f 524 526 525
f 524 527 601
f 526 601 527
f 527 600 602
f 527 602 603
f 527 603 604
f 527 604 529
f 527 529 528
f 529 605 530
f 529 604 606
f 529 606 605
f 530 605 607
f 530 607 531
f 531 607 532
f 532 608 533
f 533 608 534
f 534 608 609
f 534 609 535
f 537 542 544
f 537 544 543
f 539 541 540
f 539 610 541
f 541 610 611
f 541 611 612
f 541 612 542
f 542 612 544
f 544 548 545
f 544 612 613
f 544 613 614
f 544 614 548
f 545 548 546
f 547 615 616
f 547 616 552
f 547 551 617
f 547 617 615
f 548 614 618
f 548 618 619
f 548 619 620
f 548 620 621
f 548 621 549
f 549 621 550
f 550 621 620
f 550 620 551
f 551 620 622
f 551 622 623
f 551 623 624
f 551 624 617
f 552 616 625
f 552 625 626
f 552 626 553
f 553 626 560
f 554 627 562
f 554 562 555
f 554 558 628
f 554 628 629
f 554 629 627
f 557 560 626
f 557 626 625
f 557 625 630
f 557 630 631
f 557 631 628
f 557 628 558
f 562 627 632
f 562 632 633
f 562 633 566
f 563 568 567
f 563 567 564
f 563 566 568
f 566 633 571
f 566 571 634
f 566 634 568
f 568 634 569
f 569 634 570
f 570 634 571
f 571 635 636
f 571 636 572
f 571 633 635
f 572 636 637
f 572 637 573
f 573 637 638
f 573 638 574
f 574 638 639
f 574 639 641
f 574 641 576
f 574 576 575
f 576 640 577
f 576 641 700
f 576 700 640
f 577 640 578
f 578 642 643
f 578 643 580
f 578 580 579
f 578 640 642
f 581 644 645
f 581 645 582
f 582 645 646
f 582 646 583
f 583 646 710
f 583 710 647
f 583 647 585
f 583 585 584
f 585 647 648
f 585 648 649
f 585 649 586
f 586 649 587
f 587 649 648
f 587 648 650
f 587 650 651
f 587 651 588
f 588 651 652
f 588 652 590
f 589 590 653
f 589 653 654
f 589 654 591
f 590 652 653
f 591 654 655
f 591 655 592
f 592 655 656
f 592 656 597
f 592 597 593
f 593 595 594
f 593 597 595
f 595 597 596
f 597 656 657
f 597 657 598
f 598 657 599
f 599 657 658
f 599 658 659
f 599 659 602
f 599 602 600
f 602 659 603
f 603 606 604
f 603 659 660
f 603 660 661
f 603 661 606
f 605 606 662
f 605 662 663
f 605 663 607
f 606 664 665
f 606 665 666
f 606 666 667
f 606 667 668
f 606 668 662
f 606 661 664
f 610 669 611
f 610 670 671
f 610 671 672
f 610 672 669
f 611 669 673
f 611 673 674
f 611 674 613
f 611 613 612
f 613 618 614
f 613 674 672
f 613 672 618
f 615 675 676
f 615 676 616
f 615 617 675
f 616 676 630
f 616 630 625
f 617 624 677
f 617 677 678
f 617 678 679
f 617 679 676
f 617 676 675
f 618 680 681
f 618 681 682
f 618 682 683
f 618 683 619
f 618 672 684
f 618 684 680
f 619 685 620
f 619 683 685
f 620 685 622
f 622 685 623
f 623 685 686
f 623 686 624
f 624 687 677
f 624 686 688
f 624 688 689
f 624 689 690
f 624 690 691
f 624 691 687
f 627 629 632
f 628 631 629
f 629 631 694
f 629 694 692
f 629 692 632
f 630 693 694
f 630 694 631
f 630 676 695
f 630 695 693
f 632 692 696
f 632 696 633
f 633 696 635
f 635 696 697
f 635 697 636
f 636 697 698
f 636 698 637
f 637 698 638
f 638 698 699
f 638 699 639
f 639 699 641
f 640 700 701
f 640 701 702
f 640 702 703
f 640 703 642
f 641 699 704
f 641 704 705
f 641 705 700
f 644 706 645
f 645 706 707
f 645 707 708
f 645 708 709
f 645 709 646
f 646 709 710
f 647 710 648
f 648 710 711
f 648 711 712
f 648 712 713
f 648 713 714
f 648 714 650
f 650 714 651
f 651 714 715
f 651 715 652
f 652 715 716
f 652 716 653
f 653 716 717
f 653 717 654
f 654 717 655
f 655 717 718
f 655 718 719
f 655 719 656
f 656 719 720
f 656 720 657
f 657 720 721
f 657 721 658
f 658 721 659
f 659 721 660
f 660 721 661
f 661 722 723
f 661 723 672
f 661 672 724
f 661 724 725
f 661 725 726
f 661 726 727
f 661 727 664
f 661 721 722
f 662 668 663
f 664 727 726
f 664 726 728
f 664 728 665
f 669 672 729
f 669 729 673
f 670 730 731
f 670 731 671
f 671 731 725
f 671 725 724
f 671 724 672
f 672 674 729
f 672 723 684
f 673 729 674
f 676 679 695
f 677 732 733
f 677 733 678
f 677 687 732
f 678 733 734
f 678 734 735
f 678 735 695
f 678 695 679
f 680 684 736
f 680 736 681
f 681 736 737
f 681 737 682
f 682 689 738
f 682 738 683
f 682 737 739
f 682 739 689
f 683 738 686
f 683 686 685
f 684 723 740
f 684 740 736
f 686 738 688
f 687 691 741
f 687 741 742
f 687 742 732
f 688 738 689
f 689 743 690
f 689 739 744
f 689 744 743
f 690 743 691
f 691 743 745
f 691 745 741
f 692 694 696
f 693 746 747
f 693 747 748
f 693 748 694
f 693 695 751
f 693 751 746
f 694 748 696
f 695 735 749
f 695 749 750
f 695 750 751
f 696 748 747
f 696 747 697
f 697 747 746
f 697 746 752
f 697 752 753
f 697 753 698
f 698 753 754
f 698 754 755
f 698 755 699
f 699 755 756
f 699 756 704
f 700 705 757
f 700 757 758
f 700 758 759
f 700 759 701
f 704 756 705
f 705 756 760
f 705 760 757
f 707 761 708
f 708 761 762
f 708 762 709
f 709 762 763
f 709 763 710
f 710 763 711
f 711 763 764
f 711 764 765
f 711 765 766
f 711 766 712
f 712 766 767
f 712 767 713
f 713 767 768
f 713 768 714
f 714 768 715
f 715 768 769
f 715 769 770
f 715 770 716
f 716 770 771
f 716 771 717
f 717 771 772
f 717 772 718
f 718 772 719
f 719 772 773
f 719 773 774
f 719 774 775
f 719 775 720
f 720 775 776
f 720 776 777
f 720 777 722
f 720 722 721
f 722 777 740
f 722 740 723
f 725 778 779
f 725 779 780
f 725 780 726
f 725 731 778
f 730 778 731
f 732 781 733
f 732 742 781
f 733 781 782
f 733 782 749
f 733 749 734
f 734 749 735
f 736 740 737
f 737 740 783
f 737 783 784
f 737 784 739
f 739 784 785
f 739 785 744
f 740 777 783
f 741 745 786
f 741 786 742
f 742 786 787
f 742 787 788
f 742 788 781
f 743 744 789
f 743 789 745
f 744 790 789
f 744 785 791
f 744 791 792
f 744 792 790
f 745 789 793
f 745 793 786
f 746 751 752
f 749 782 750
f 750 782 781
f 750 781 794
f 750 794 795
f 750 795 752
f 750 752 751
f 752 795 753
f 753 795 754
f 754 795 796
f 754 796 797
f 754 797 755
f 755 797 756
f 756 797 798
f 756 798 799
f 756 799 760
f 757 760 800
f 757 800 801
f 757 801 802
f 757 802 803
f 757 803 804
f 757 804 758
f 760 799 800
f 761 805 762
f 762 805 806
f 762 806 807
f 762 807 808
f 762 808 763
f 763 808 764
f 764 808 809
f 764 809 765
f 765 809 810
f 765 810 766
f 766 810 811
f 766 811 812
f 766 812 813
f 766 813 814
f 766 814 767
f 767 815 768
f 767 814 816
f 767 816 815
f 768 815 769
f 769 815 817
f 769 817 816
f 769 816 818
f 769 818 819
f 769 819 770
f 770 819 771
f 771 819 792
f 771 792 791
f 771 791 820
f 771 820 772
f 772 820 773
f 773 820 774
f 774 820 785
f 774 785 775
f 775 785 784
f 775 784 776
f 776 784 821
f 776 821 777
f 777 821 783
f 781 822 794
f 781 788 822
f 783 821 784
f 785 820 791
f 786 793 823
f 786 823 824
f 786 824 825
f 786 825 787
f 787 825 788
f 788 825 822
f 789 790 793
f 790 826 793
f 790 792 818
f 790 818 826
f 792 819 818
f 793 826 823
f 794 822 827
f 794 827 795
f 795 828 829
f 795 829 797
f 795 797 796
f 795 827 830
f 795 830 828
f 797 829 798
f 798 829 831
f 798 831 832
f 798 832 799
f 799 832 833
f 799 833 834
f 799 834 800
f 800 834 801
f 801 834 835
f 807 836 837
f 807 837 808
f 808 837 840
f 808 840 838
f 808 838 809
f 809 838 811
f 809 811 810
f 811 839 812
f 811 838 840
f 811 840 841
f 811 841 842
f 811 842 843
f 811 843 839
f 812 839 813
f 813 839 844
f 813 844 816
f 813 816 814
f 815 816 817
f 816 844 823
f 816 823 826
f 816 826 818
f 822 825 827
f 823 844 845
f 823 845 824
f 824 845 846
f 824 846 827
f 824 827 825
f 827 846 847
f 827 847 843
f 827 843 848
f 827 848 830
f 828 849 829
f 828 830 849
f 829 849 831
f 830 848 849
f 831 849 850
f 831 850 851
f 831 851 832
f 832 851 852
f 832 852 853
f 832 853 854
f 832 854 833
f 833 854 855
f 833 855 835
f 833 835 834
f 836 856 857
f 836 857 837
f 837 857 840
f 839 843 858
f 839 858 844
f 840 857 859
f 840 859 860
f 840 860 861
f 840 861 862
f 840 862 841
f 841 843 842
f 841 862 863
f 841 863 864
f 841 864 852
f 841 852 865
f 841 865 843
f 843 847 858
f 843 865 866
f 843 866 848
f 844 858 845
f 845 858 847
f 845 847 846
f 848 866 851
f 848 851 850
f 848 850 849
f 851 866 865
f 851 865 852
f 852 864 867
f 852 867 853
f 853 867 868
f 853 868 854
f 854 869 870
f 854 870 855
f 854 868 869
f 856 871 859
f 856 859 857
f 859 871 860
f 861 872 862
f 862 872 863
f 863 872 873
f 863 873 867
f 863 867 864
f 867 873 872
f 867 872 874
f 867 874 875
f 867 875 868

