# https://github.com/mikedh/trimesh
v 53.32726453 62.32263572 4.00886050
v 53.32726453 62.75520558 4.00886050
v 53.35433954 62.75520558 1.29415084
v 53.35511330 62.32263572 1.29415084
v 53.36130206 61.46058572 4.00886050
v 61.23000493 62.75520558 4.00886050
v 60.31487708 78.13615388 3.86930688
v 60.24448332 78.07435883 3.86930688
v 59.77957065 77.64796813 3.86930688
v 59.34250675 77.22466731 3.86930688
v 58.92400784 76.79209813 3.86930688
v 58.49390517 76.32245038 3.86930688
v 58.11253752 75.88370144 3.86930688
v 57.68707739 75.35534853 3.86930688
v 57.35212351 74.92277807 3.86930688
v 56.97384960 74.38824539 3.86930688
v 56.62342575 73.87225072 3.86930688
v 56.36118690 73.44586130 3.86930688
v 55.92644298 72.70122315 3.86930688
v 55.68122289 72.26556345 3.86930688
v 55.45534155 71.80827523 3.86930688
v 55.05308765 70.93695582 3.86930688
v 54.85350885 70.48275748 3.86930688
v 54.68796501 70.05327754 3.86930688
v 54.39555741 69.21903542 3.86930688
v 54.12635732 68.35698566 3.86930688
v 53.98788979 67.89042779 3.86930688
v 53.88036348 67.46094785 3.86930688
v 53.70476468 66.63288549 3.86930688
v 53.70244341 66.62052629 3.86930688
v 53.56552210 65.77083541 3.86930688
v 53.56397459 65.75847653 3.86930688
v 53.46031706 64.90878565 3.86930688
v 53.39069705 64.04673557 3.86930688
v 53.38992330 64.03437653 3.86930688
v 53.39456455 64.04673557 1.29415084
v 53.35433954 63.18159592 1.29415084
v 53.37986705 62.75520558 0.43137616
v 53.37986705 62.32263572 0.43181445
v 53.41467705 61.46058572 0.43181445
v 53.39456455 61.46058572 1.29415084
v 53.42628081 60.59544600 4.00886050
v 61.23000493 62.75520558 -0.47440492
v 60.31565084 78.12997540 3.15617935
v 60.31565084 78.12379564 3.86930688
v 61.23000493 46.57091325 4.00886050
v 60.31565084 78.12997540 0.43137616
v 60.24757706 78.07126895 0.43137616
v 59.77492940 77.63869849 0.43137616
v 59.34328050 77.22157872 0.43137616
v 58.92710158 76.79209813 0.43137616
v 58.49545268 76.31936050 0.43137616
v 58.12336753 75.88679133 0.43137616
v 57.69249239 75.35225865 0.43137616
v 57.35753851 74.91968819 0.43137616
v 56.98854839 74.39442515 1.29415084
v 56.62806700 73.86607224 1.29415084
v 56.36273312 73.43659166 0.43137616
v 55.93108423 72.69195351 0.43137616
v 55.69205290 72.25938369 0.43137616
v 55.46771906 71.80827523 0.43137616
v 55.06778515 70.94313559 1.29415084
v 54.86047008 70.46421884 1.29415084
v 54.69492753 70.03473890 0.43137616
v 54.40406743 69.21903542 1.29415084
v 54.13563982 68.35698566 1.29415084
v 53.99485102 67.85953027 1.29415084
v 53.89196724 67.43005001 0.43137616
v 53.72332967 66.63288549 0.43137616
v 53.57789962 65.77083541 0.43137616
v 53.46882708 64.90878565 1.29415084
v 53.47656207 64.90878565 0.43137616
v 53.41467705 64.04673557 0.43137616
v 53.37986705 63.18159592 0.43137616
v 53.69161340 62.75520558 -0.23698794
v 53.69238716 62.32263572 -0.23654837
v 53.70708466 61.46058572 -0.23654837
v 53.73183841 60.59544600 -0.23479520
v 53.77902721 59.73339624 -0.21416858
v 53.47656207 60.59544600 0.43181445
v 53.52374959 59.73339624 4.00886050
v 61.23000493 48.60090198 -0.47440492
v 54.41102866 62.75520558 -0.47440492
v 60.31565084 75.25647491 -0.47396535
v 60.31565084 76.11852468 -0.47089346
v 60.31565084 76.98366432 -0.42261986
v 60.31565084 77.78391903 -0.21416858
v 60.63281219 47.00966219 4.00886050
v 61.21530743 46.62961842 0.43181445
v 61.23000493 46.62034878 0.41733289
v 59.85460694 77.56454392 -0.12990892
v 59.00213787 76.71176380 -0.12990892
v 58.17906379 75.82190511 -0.11016144
v 57.38074475 74.88879066 -0.05662322
v 56.99550961 74.39442515 0.43137616
v 56.63502823 73.86607224 0.43137616
v 55.69592039 72.25320393 -0.01142150
v 55.07320143 70.94313559 0.43137616
v 54.86588508 70.46421884 0.43137616
v 54.74366256 69.90805764 -0.11542864
v 54.41180242 69.21903542 0.43137616
v 54.14878981 68.35698566 0.43137616
v 54.00026602 67.85953027 0.43137616
v 53.92058848 67.30645863 -0.07944258
v 53.85096848 66.63288549 -0.15755590
v 53.77825346 65.77083541 -0.21416858
v 53.73183841 64.90878565 -0.23523221
v 53.69161340 63.18159592 -0.23698794
v 53.70708466 64.04673557 -0.23698794
v 54.41102866 61.46058572 -0.47440492
v 54.41102866 60.59544600 -0.47220962
v 54.41102866 59.73339624 -0.45158556
v 54.41102866 58.87134615 -0.39453330
v 53.85174224 58.87134615 -0.15755590
v 53.57789962 59.73339624 0.43181445
v 53.65370966 58.87134615 4.00886050
v 61.23000493 48.52365625 -0.47177261
v 60.44638339 48.52365625 -0.45290172
v 59.58385806 49.38570729 -0.45290172
v 57.85880870 51.97185658 -0.47440492
v 54.41025491 64.04673557 -0.47396535
v 55.27278023 68.35698566 -0.47396535
v 57.85880870 73.53237539 -0.47396535
v 59.58463182 75.25647491 -0.47396535
v 59.58463182 76.11852468 -0.45290172
v 59.57380181 76.99293396 -0.25059164
v 59.73857189 47.82845491 4.00886050
v 59.77492940 47.86553219 0.43181445
v 60.24757706 47.43296301 0.43181445
v 60.67845349 47.06218888 0.43181445
v 60.74497975 47.11780417 -0.10972187
v 61.23000493 46.87989105 -0.17686637
v 58.71746524 76.11234491 -0.23918325
v 57.87892120 75.20703811 -0.19529768
v 57.21520220 74.39442515 -0.16106736
v 56.43080690 73.32535980 -0.13429696
v 55.58607410 71.80827523 -0.11850052
v 55.39113655 70.94313559 -0.22821186
v 54.63072124 69.21903542 -0.20495292
v 54.41025491 66.63288549 -0.39453330
v 54.41025491 65.77083541 -0.45158556
v 54.41025491 64.90878565 -0.47264919
v 55.27278023 57.14415643 -0.47440492
v 55.27278023 56.28519591 -0.44193033
v 54.63072124 56.28519591 -0.20451334
v 53.92136224 58.19777302 -0.07944258
v 53.72332967 58.87134615 0.43181445
v 53.83085598 58.02474515 4.00886050
v 61.23000493 47.73885093 -0.43929802
v 59.57380181 48.51129801 -0.25059164
v 58.72133402 50.24775705 -0.43798186
v 56.99783088 52.83390634 -0.45641318
v 56.13530556 54.56109638 -0.46474969
v 55.27278023 69.21903542 -0.44236990
v 56.13530556 70.94313559 -0.46518926
v 56.99705713 72.67032499 -0.45641318
v 58.72210649 75.25647491 -0.43798186
v 58.88765033 48.67505655 4.00886050
v 59.34328050 48.28265325 0.43181445
v 59.85460694 47.93968805 -0.12947191
v 60.45334590 47.65542672 -0.23874367
v 61.23000493 46.93550762 -0.20100188
v 57.85880870 74.39442515 -0.39848434
v 56.94136087 73.57872232 -0.26990211
v 56.13530556 71.80827523 -0.35547793
v 56.13994680 72.59308054 -0.18257056
v 56.13530556 53.69904662 -0.35503835
v 55.39113655 54.56109638 -0.22777228
v 54.74443503 55.59926421 -0.11498906
v 54.00103978 57.64470138 0.43181445
v 53.89274100 58.07418164 0.43181445
v 54.41257617 56.28519591 0.43181445
v 54.14878981 57.14415643 0.43181445
v 54.13563982 57.14415643 1.29415084
v 54.35455865 56.28519591 4.00886050
v 61.23000493 47.65851660 -0.41911097
v 59.00213787 48.79246817 -0.12947191
v 58.71746524 49.39188577 -0.23874367
v 57.85880870 51.10980682 -0.39804477
v 58.92710158 48.71213384 0.43181445
v 58.07231252 49.57109372 4.00886050
v 56.94213334 51.92550965 -0.26990211
v 56.43080690 52.18196205 -0.13429696
v 56.13994680 52.91115143 -0.18213356
v 55.58607410 53.69904662 -0.11806095
v 54.86588508 55.04001313 0.43181445
v 54.69492753 55.46949307 0.43181445
v 55.69592039 53.25102740 -0.01142150
v 54.64232501 55.43241579 4.00886050
v 58.17906379 49.68541545 -0.10972187
v 57.87892120 50.29410398 -0.19485811
v 57.21674971 51.10980682 -0.16106736
v 58.49545268 49.18796006 0.43181445
v 57.30261472 50.53510697 4.00886050
v 57.69249239 50.15197332 0.43181445
v 58.12336753 49.61744064 0.43181445
v 57.38074475 50.61544131 -0.05662322
v 55.07320143 54.56109638 0.43181445
v 55.63016788 53.18614183 4.00886050
v 55.46771906 53.69904662 0.43181445
v 56.63502823 51.63815973 0.43181445
v 56.36273312 52.06763967 0.43181445
v 55.93185798 52.81227781 0.43181445
v 55.40041904 53.69904662 4.00886050
v 56.99628337 51.10980682 0.43181445
v 57.35753851 50.58454378 0.43181445
v 56.31786687 52.03674215 4.00886050
f 1 2 37
f 1 37 3
f 1 3 4
f 1 4 5
f 1 5 42
f 1 42 81
f 1 81 116
f 1 116 148
f 1 148 175
f 1 175 189
f 1 189 204
f 1 204 199
f 1 199 207
f 1 207 194
f 1 194 181
f 1 181 158
f 1 158 127
f 1 127 88
f 1 88 46
f 1 46 6
f 1 6 2
f 2 6 7
f 2 7 8
f 2 8 9
f 2 9 10
f 2 10 11
f 2 11 12
f 2 12 13
f 2 13 14
f 2 14 15
f 2 15 16
f 2 16 17
f 2 17 18
f 2 18 19
f 2 19 20
f 2 20 21
f 2 21 22
f 2 22 23
f 2 23 24
f 2 24 25
f 2 25 26
f 2 26 27
f 2 27 28
f 2 28 29
f 2 29 30
f 2 30 31
f 2 31 32
f 2 32 33
f 2 33 34
f 2 34 35
f 2 35 36
f 2 36 37
f 3 38 39
f 3 39 4
f 3 37 74
f 3 74 38
f 4 39 40
f 4 40 41
f 4 41 5
f 5 41 42
f 6 43 47
f 6 47 44
f 6 44 45
f 6 45 7
f 6 46 90
f 6 90 132
f 6 132 162
f 6 162 176
f 6 176 149
f 6 149 117
f 6 117 82
f 6 82 43
f 7 44 47
f 7 47 48
f 7 48 8
f 7 45 44
f 8 48 49
f 8 49 9
f 9 49 50
f 9 50 10
f 10 50 51
f 10 51 11
f 11 51 12
f 12 51 52
f 12 52 13
f 13 53 54
f 13 54 14
f 13 52 53
f 14 54 55
f 14 55 15
f 15 55 16
f 16 56 57
f 16 57 17
f 16 55 56
f 17 57 58
f 17 58 18
f 18 58 19
f 19 58 59
f 19 59 20
f 20 59 60
f 20 60 61
f 20 61 21
f 21 61 22
f 22 61 62
f 22 62 23
f 23 62 63
f 23 63 64
f 23 64 24
f 24 64 65
f 24 65 25
f 25 65 26
f 26 66 27
f 26 65 66
f 27 66 67
f 27 67 68
f 27 68 28
f 28 68 29
f 29 68 69
f 29 69 30
f 30 70 31
f 30 69 70
f 31 70 32
f 32 70 71
f 32 71 33
f 33 71 36
f 33 36 34
f 34 36 35
f 36 71 72
f 36 72 73
f 36 73 37
f 37 73 74
f 38 74 108
f 38 108 75
f 38 75 39
f 39 76 77
f 39 77 78
f 39 78 40
f 39 75 76
f 40 78 79
f 40 79 80
f 40 80 41
f 41 80 42
f 42 80 81
f 43 82 120
f 43 120 143
f 43 143 110
f 43 110 83
f 43 83 124
f 43 124 84
f 43 84 85
f 43 85 86
f 43 86 87
f 43 87 47
f 46 88 89
f 46 89 90
f 47 87 91
f 47 91 48
f 48 91 49
f 49 91 50
f 50 91 92
f 50 92 51
f 51 92 93
f 51 93 52
f 52 93 53
f 53 93 94
f 53 94 54
f 54 94 55
f 55 94 95
f 55 95 56
f 56 95 96
f 56 96 57
f 57 96 58
f 58 97 59
f 58 96 97
f 59 97 60
f 60 97 61
f 61 98 62
f 61 97 98
f 62 98 99
f 62 99 63
f 63 99 64
f 64 99 100
f 64 100 101
f 64 101 65
f 65 101 66
f 66 102 103
f 66 103 67
f 66 101 102
f 67 103 68
f 68 104 69
f 68 103 104
f 69 104 70
f 70 104 105
f 70 105 72
f 70 72 71
f 72 105 106
f 72 106 73
f 73 106 107
f 73 107 74
f 74 107 109
f 74 109 108
f 75 110 76
f 75 108 83
f 75 83 110
f 76 110 111
f 76 111 77
f 77 111 78
f 78 111 112
f 78 112 79
f 79 112 113
f 79 113 114
f 79 114 80
f 80 114 115
f 80 115 81
f 81 115 116
f 82 117 118
f 82 118 119
f 82 119 120
f 83 108 121
f 83 121 122
f 83 122 123
f 83 123 124
f 84 124 85
f 85 124 123
f 85 123 125
f 85 125 86
f 86 125 126
f 86 126 87
f 87 126 91
f 88 127 128
f 88 128 129
f 88 129 130
f 88 130 89
f 89 130 90
f 90 130 131
f 90 131 132
f 91 126 92
f 92 133 93
f 92 126 133
f 93 133 134
f 93 134 94
f 94 134 135
f 94 135 136
f 94 136 97
f 94 97 96
f 94 96 95
f 97 136 137
f 97 137 100
f 97 100 99
f 97 99 98
f 100 137 138
f 100 138 139
f 100 139 104
f 100 104 101
f 101 104 102
f 102 104 103
f 104 139 105
f 105 139 140
f 105 140 106
f 106 140 141
f 106 141 107
f 107 141 142
f 107 142 109
f 108 109 142
f 108 142 121
f 110 143 111
f 111 143 112
f 112 143 144
f 112 144 113
f 113 144 145
f 113 145 114
f 114 145 146
f 114 146 115
f 115 146 147
f 115 147 116
f 116 147 148
f 117 149 118
f 118 150 119
f 118 149 150
f 119 150 151
f 119 151 120
f 120 151 152
f 120 152 153
f 120 153 143
f 121 142 122
f 122 154 155
f 122 155 123
f 122 142 141
f 122 141 154
f 123 156 157
f 123 157 125
f 123 155 156
f 125 157 126
f 126 157 133
f 127 158 159
f 127 159 128
f 128 159 160
f 128 160 131
f 128 131 129
f 129 131 130
f 131 160 161
f 131 161 162
f 131 162 132
f 133 157 163
f 133 163 134
f 134 163 135
f 135 163 164
f 135 164 136
f 136 164 165
f 136 165 166
f 136 166 137
f 137 166 138
f 138 154 139
f 138 166 165
f 138 165 154
f 139 154 140
f 140 154 141
f 143 153 144
f 144 153 167
f 144 167 168
f 144 168 145
f 145 168 169
f 145 169 146
f 146 170 171
f 146 171 147
f 146 169 172
f 146 172 173
f 146 173 170
f 147 171 148
f 148 171 170
f 148 170 173
f 148 173 174
f 148 174 175
f 149 176 150
f 150 176 161
f 150 161 160
f 150 160 177
f 150 177 178
f 150 178 151
f 151 179 152
f 151 178 179
f 152 179 167
f 152 167 153
f 154 165 155
f 155 165 156
f 156 165 163
f 156 163 157
f 158 180 159
f 158 181 180
f 159 180 177
f 159 177 160
f 161 176 162
f 163 165 164
f 167 179 182
f 167 182 183
f 167 183 184
f 167 184 168
f 168 184 185
f 168 185 169
f 169 186 187
f 169 187 172
f 169 185 188
f 169 188 186
f 172 175 173
f 172 187 189
f 172 189 175
f 173 175 174
f 177 180 190
f 177 190 178
f 178 190 191
f 178 191 179
f 179 191 192
f 179 192 182
f 180 181 193
f 180 193 190
f 181 194 195
f 181 195 196
f 181 196 193
f 182 192 183
f 183 188 185
f 183 185 184
f 183 192 197
f 183 197 188
f 186 198 189
f 186 189 187
f 186 188 198
f 188 199 200
f 188 200 198
f 188 197 201
f 188 201 202
f 188 202 203
f 188 203 199
f 189 198 204
f 190 196 197
f 190 197 191
f 190 193 196
f 191 197 192
f 194 201 205
f 194 205 206
f 194 206 195
f 194 207 201
f 195 206 197
f 195 197 196
f 197 206 205
f 197 205 201
f 198 200 199
f 198 199 204
f 199 203 202
f 199 202 207
f 201 207 202

