# https://github.com/mikedh/trimesh
v 100.75851369 76.35867937 11.72334696
v 100.75851369 76.98437895 11.99482846
v 101.27771907 76.35867937 12.16021421
v 100.75851369 76.35867937 19.36852767
v 100.75709985 89.35303826 32.94886434
v 100.75709985 95.43645066 32.94886434
v 100.75851369 77.30732034 12.14149112
v 101.13766161 76.98437895 12.31935849
v 101.29893950 76.35867937 12.17893729
v 101.62856964 76.98437895 12.74998557
v 111.19493581 76.35867937 42.69412999
v 100.75709985 92.00923298 42.69412999
v 100.75851369 95.42837635 32.91765963
v 100.75851369 95.32342065 32.57752724
v 100.75851369 95.23259307 32.29356346
v 100.75851369 94.99846133 31.61641878
v 100.75851369 94.95002064 31.48223839
v 100.75851369 94.83093427 31.16082845
v 100.75851369 94.73001444 30.89870784
v 100.75851369 94.52615942 30.39318971
v 100.75851369 94.37881684 30.03121415
v 100.75851369 94.27789701 29.78469590
v 100.75851369 93.91055079 28.95152766
v 100.75851369 93.88431251 28.89223832
v 100.75851369 93.73495199 28.57706983
v 100.75851369 93.46045130 28.01226237
v 100.75851369 93.12943560 27.34447922
v 100.75851369 93.04062852 27.16973258
v 100.75851369 92.87511939 26.84832264
v 100.75851369 92.70759489 26.54875651
v 100.75851369 92.56832661 26.30535898
v 100.75851369 92.26960557 25.79672013
v 100.75851369 92.15455763 25.60325040
v 100.75851369 91.89822348 25.18510559
v 100.75851369 91.40371916 24.38314206
v 100.75851369 91.24628433 24.13662381
v 100.75851369 91.10499812 23.92755173
v 100.75851369 90.90114053 23.62798527
v 100.75851369 90.51159190 23.08502162
v 100.75851369 90.15433793 22.62006974
v 100.75851369 89.67800015 22.00221408
v 100.75851369 89.42771980 21.68080477
v 100.75851369 88.82825979 20.94749148
v 100.75851369 88.62642013 20.70721404
v 100.75851369 88.44476496 20.49814196
v 100.75851369 87.80292062 19.80227483
v 100.75851369 87.38309527 19.36540694
v 100.75851369 86.95318025 18.92541896
v 100.75851369 86.51720886 18.49791326
v 100.75851369 86.07921954 18.07976845
v 100.75851369 85.89958230 17.91126262
v 100.75851369 85.62710211 17.65850356
v 100.75851369 85.38287557 17.43382847
v 100.75851369 85.18103848 17.25284102
v 100.75851369 84.94286831 17.05312984
v 100.75851369 84.50891742 16.69739445
v 100.75851369 84.20010286 16.45087749
v 100.75851369 83.86505129 16.18875688
v 100.75851369 82.80136239 15.36806962
v 100.75851369 82.25639944 14.97800944
v 100.75851369 81.95364124 14.76893736
v 100.75851369 81.74978494 14.63163560
v 100.75851369 81.50757890 14.47873277
v 100.75851369 80.28241801 13.72669639
v 100.75851369 80.20572110 13.67988932
v 100.75851369 79.57194850 13.31167167
v 100.75851369 79.33377833 13.17749192
v 100.75851369 79.03102142 13.00898545
v 100.75851369 78.66771107 12.81863645
v 100.75851369 78.54055296 12.75310630
v 100.75851369 78.01577320 12.48786496
v 100.75851369 77.61411440 12.29127451
v 100.75709985 95.51314756 33.20786422
v 101.48709834 77.53539827 12.88104587
v 102.21285016 76.35867937 13.00898545
v 102.06006044 76.98437895 13.15876884
v 102.20577840 76.38693687 13.01522690
v 111.48353891 76.35867937 43.33694859
v 100.75709985 92.52795765 43.37439476
v 100.78963871 95.41223031 32.94886434
v 100.97638371 95.08525305 32.37781734
v 100.75709985 95.76544842 34.06911837
v 100.80237098 95.73113583 34.06911837
v 101.38382126 94.63313305 32.00647896
v 100.83349343 94.88946977 31.48223839
v 100.97355346 94.40909355 30.55545472
v 101.26498680 94.53019529 31.48223839
v 101.00892000 94.07202149 29.80653972
v 101.31167177 93.70871371 29.55378065
v 101.13766161 93.55935319 28.89223832
v 101.48426809 92.99622369 28.34927467
v 101.46587533 92.11822711 26.66733454
v 101.32015994 92.84686317 27.77510566
v 101.60876304 92.25547746 27.16973258
v 101.28762108 91.95675642 26.09004544
v 101.59886102 91.37949881 25.60949121
v 101.06126546 91.71252987 25.33800939
v 101.40787194 91.20389744 25.03220212
v 101.25649863 91.05251899 24.58285292
v 100.97355346 90.76792605 23.74344322
v 101.30601384 90.23910914 23.45635872
v 101.59461694 89.66386947 23.06005772
v 101.37391924 89.44184791 22.48900944
v 101.59603077 88.81009324 21.99597326
v 101.19990908 88.39027046 20.98493700
v 101.46729174 87.81503079 20.64792535
v 101.22395977 87.55465821 20.07063625
v 101.48992601 86.97941853 19.76170858
v 101.23244794 86.68473593 19.18753957
v 101.22254336 85.81481109 18.33564824
v 101.46870558 85.23957142 18.06104536
v 100.92403825 85.53829246 17.75211769
v 101.20273676 84.91864796 17.48375627
v 101.43899696 84.34340829 17.23411793
v 100.88866914 84.62800123 16.92206953
v 101.30601384 82.42796237 15.64891331
v 100.97496730 82.14135150 15.10906974
v 101.37109156 83.39073145 16.43839457
v 101.58188467 82.81549178 16.21996159
v 101.25932631 81.29766622 14.82822605
v 101.40645810 80.84756673 14.67844266
v 101.59461694 80.27232706 14.50369602
v 101.28762108 79.78791497 13.92640757
v 101.46163381 79.21267530 13.76414256
v 101.14614978 78.71211589 13.19621372
v 101.32157635 78.11063794 13.03394870
v 102.03884000 78.71211589 14.03250333
v 102.20294815 78.13283907 13.88271995
v 102.35573787 77.55760069 13.72981712
v 103.02914681 76.35867937 13.82031052
v 102.49721174 76.98437895 13.58939463
v 112.20080513 76.35867937 43.58034740
v 100.75709985 93.35145973 43.55226084
v 101.25083813 95.03075599 32.94886434
v 101.48851218 94.72597857 32.58376870
v 100.75709985 95.79370463 34.16897396
v 100.75709985 96.00967239 34.96781612
v 101.34562447 95.46067100 34.75562460
v 101.23386178 95.36782548 34.06911837
v 102.37695831 93.88834838 32.51823854
v 102.27226996 93.79146699 31.94094881
v 102.17465338 93.70265734 31.48223839
v 101.74316257 94.09826234 31.48223839
v 101.55641758 93.92468147 30.61786479
v 101.44607130 93.82577958 30.12794902
v 102.21143633 92.87108352 29.48512977
v 101.62998348 93.12741767 28.89223832
v 101.82946073 93.34943923 29.80965980
v 102.06006044 92.72777680 28.89223832
v 102.20294815 91.99914074 27.74702168
v 102.04167025 91.84776229 27.16973258
v 102.34159177 91.27454055 26.63300942
v 101.81955615 91.61363055 26.36152759
v 102.17323954 91.10499812 26.05884073
v 101.93414908 90.86682795 25.32240703
v 102.26943971 90.33801104 25.03532285
v 101.68798686 90.62058604 24.58285292
v 101.50266085 90.43287449 24.03052740
v 101.83653507 89.90203965 23.74344322
v 102.16899545 89.37120480 23.45947944
v 101.91010097 89.11890652 22.78233476
v 102.22416859 88.56183340 22.50461180
v 102.08694138 87.54860440 21.13472039
v 102.30056473 86.92290353 20.68225014
v 101.76579942 87.23777319 20.37644320
v 102.06571837 86.64033110 20.10808178
v 102.30197857 86.06509143 19.82099727
v 101.77287118 86.37592265 19.50270806
v 101.48002400 86.11151419 18.91293734
v 102.28782990 85.18709228 18.97534676
v 102.08976905 84.74910296 18.34188906
v 102.26519562 84.29496760 18.13593706
v 101.62291171 84.67644192 17.73651534
v 102.07562295 83.95789682 17.63666039
v 102.22275475 83.37256619 17.32149126
v 102.43213402 82.79732652 17.09681682
v 101.50266085 81.85272270 15.44296196
v 102.15767703 82.41181504 16.52264781
v 101.83087714 82.13327720 15.98280424
v 101.68798686 81.29766622 15.25573240
v 101.93132140 80.55893793 15.01545561
v 102.17040929 79.82020834 14.77517881
v 101.81672847 79.51543350 14.26653996
v 102.34159177 79.24496867 14.60979307
v 102.48447691 78.71211589 14.46624985
v 103.21871948 77.55760069 14.59106999
v 103.07017385 76.39097273 13.87647977
v 103.93457187 76.38289971 14.74085337
v 103.93881338 76.35867937 14.73461192
v 103.36019335 76.98437895 14.45064750
v 113.06095649 76.35867937 43.60218992
v 112.20080513 76.98639688 43.60218992
v 100.98769956 93.36962371 43.60218992
v 100.75709985 94.23349475 43.60218992
v 101.80399621 94.55441564 32.94886434
v 102.49862558 94.00137838 33.20786422
v 101.59603077 94.81478822 33.20786422
v 102.17040929 94.56450788 34.06911837
v 100.75709985 96.08636930 35.28610598
v 101.43050879 95.53535255 35.32979232
v 101.02872660 95.78966876 34.99902084
v 102.25387720 94.63918942 34.59647903
v 101.73891848 94.93588996 34.06911837
v 102.72215095 93.70871371 32.94886434
v 103.23852608 93.02851835 32.34349126
v 103.15647201 92.94980093 31.88478084
v 102.45618471 93.10117939 30.61786479
v 101.98649454 93.53311491 30.61786479
v 103.07583177 92.00519711 29.48512977
v 102.50003942 92.29584385 28.89223832
v 102.33593127 92.99016989 30.06241887
v 103.03480474 92.83273506 31.31061183
v 102.88767551 92.68539248 30.61786479
v 103.32482424 92.25547746 30.61786479
v 102.35573787 92.15051920 28.32431077
v 102.48447691 91.41582934 27.16973258
v 103.18618062 90.39654397 26.66733454
v 102.68395417 90.75178001 26.36152759
v 103.06734360 91.13325433 27.74702168
v 102.91597029 90.97178364 27.16973258
v 103.02490272 90.22296310 26.09004544
v 102.45052421 90.52975845 25.60949121
v 102.78157075 89.99286723 25.33800939
v 102.35856812 89.56900602 24.03364813
v 102.68254033 89.02606100 23.76840712
v 102.43213402 88.79596513 23.07878048
v 103.04895341 87.64952166 22.56078041
v 102.47316106 87.98659373 22.16759982
v 102.46608672 87.11666888 21.13472039
v 102.74054371 88.22476133 22.81978061
v 103.29511563 87.07630249 22.22376843
v 103.08431995 86.82602215 21.64960006
v 103.59079306 86.49298852 21.97725018
v 103.31350582 86.25280041 21.33755166
v 103.10271271 85.98637402 20.76338265
v 103.32906833 85.41315228 20.46693725
v 103.10412655 85.12855935 19.89276824
v 102.45052421 86.40014300 20.34523849
v 102.44486628 85.52820022 19.48398562
v 102.91455388 84.80360003 19.36540694
v 103.32482424 84.55331968 19.62752755
v 103.08290611 84.23239751 19.05335918
v 102.77874050 83.97606208 18.46982863
v 103.04895341 83.32210628 18.22955184
v 102.47457490 83.71972793 17.89253954
v 103.00651253 82.39163057 17.40886522
v 102.74054371 83.06173498 17.65226274
v 102.35432403 81.83657537 16.31669645
v 102.11806383 81.29766622 15.69884111
v 102.26802587 80.84554751 15.54281626
v 102.68112392 82.11309400 16.85965947
v 102.45052421 80.27030784 15.34934654
v 102.68395417 79.51946937 15.12779283
v 103.18759703 79.21873039 15.48040684
v 102.91597029 78.71211589 14.90623783
v 103.06734360 78.13283907 14.74709354
v 103.56815621 77.83411931 15.10282829
v 104.06896883 77.53337905 15.46168376
v 103.79309800 76.98437895 14.89063548
v 104.19771044 76.98437895 15.31814182
v 104.74945210 76.35867937 15.62706950
v 113.92393810 76.35867937 43.59906920
v 113.06095649 78.71211589 43.60218992
v 100.75709985 95.09534272 43.60218992
v 102.02752158 94.43129340 33.20786422
v 102.93011639 93.59971958 33.20786422
v 103.14939767 93.80559510 34.48726254
v 100.75709985 96.18325326 35.71049032
v 101.48992601 95.58782911 35.79474484
v 101.92283323 95.21442652 35.79474484
v 102.33876152 94.71185046 35.17376876
v 102.65990348 94.35459649 34.90540670
v 103.33897034 93.12741767 32.94886434
v 103.64030827 92.83071456 32.94886434
v 103.66860305 92.60465713 32.34349126
v 104.02086746 92.08996833 31.87853938
v 103.52995943 92.46135298 31.59457561
v 103.93598571 91.14132864 29.49137123
v 103.36160719 91.42995744 28.89223832
v 103.21730564 91.28665072 28.32431077
v 103.90203301 91.96684866 31.30437038
v 103.75490121 91.81950607 30.61786479
v 102.71224894 91.64390470 28.03722627
v 103.75348480 90.07562051 27.16973258
v 104.02652795 89.50845515 26.70478039
v 103.52712918 89.86570913 26.39897312
v 103.32199399 90.53984812 27.16973258
v 103.91476527 90.25121932 27.77510566
v 103.79309800 90.99196812 28.89223832
v 104.06614115 90.41672845 28.34927467
v 103.86666389 89.33487428 26.13061170
v 103.29087154 89.64772343 25.64381665
v 102.96123884 89.28441308 24.58285292
v 104.12414454 88.75963461 25.68750364
v 103.19042471 88.67688133 24.08045520
v 103.00651253 88.46696737 23.50628651
v 103.25267475 87.89172770 23.13494909
v 103.56108188 87.31648803 22.87906962
v 104.07179908 86.97941853 23.19423843
v 103.86949414 86.72913819 22.62006974
v 103.88788433 85.88949006 21.73073257
v 104.09584976 86.15591902 22.30490094
v 103.90486068 85.04378814 20.84763589
v 103.61484375 84.79754623 20.22353973
v 103.89920276 84.15973518 19.98326229
v 103.59362074 83.90945612 19.39037084
v 103.28945513 83.65715784 18.80684093
v 103.25267475 82.74686661 17.98303359
v 103.19891288 81.81639089 17.19355168
v 103.51439691 82.06465202 17.76147923
v 103.11261472 80.81527336 16.42591295
v 103.02631656 79.79397006 15.66139494
v 103.91617911 78.10861872 15.63019023
v 103.32482424 78.71211589 15.33686491
v 104.24580924 79.50332333 16.83469621
v 104.02228387 79.16625254 16.37598515
v 104.14253473 78.71211589 16.23868468
v 104.88809572 77.45466293 16.36974498
v 104.62778483 76.98437895 15.81117833
v 104.85414045 79.10973754 17.27468419
v 104.76925870 76.35867937 15.64891331
v 113.92393810 76.98639688 43.59906920
v 114.81521449 76.35867937 43.36815330
v 112.20080513 80.43783491 43.60218992
v 112.20080513 81.29968544 43.58658885
v 100.75709985 95.95719326 43.53041832
v 100.98769956 95.09534272 43.60218992
v 103.21023131 93.86412803 34.93349068
v 103.64172211 93.43421302 34.93349068
v 104.87394705 92.07987609 34.49350399
v 103.92466728 92.85493748 33.91309353
v 103.81290460 92.74392541 33.20786422
v 103.38282763 93.16778663 33.20786422
v 100.75709985 96.30233706 36.31274460
v 101.60310511 95.67865670 36.65911715
v 102.03317951 95.30929255 36.65911715
v 102.41798535 94.78451151 35.79474484
v 102.84947615 94.39698081 35.79474484
v 103.76904731 92.70355645 32.94886434
v 104.10009385 92.17272161 32.34349126
v 104.28117835 91.66610711 31.54776854
v 104.16799925 91.38757055 30.61786479
v 104.05765041 91.26646881 30.06553959
v 104.59241829 91.61564848 32.27172029
v 104.86121479 91.20389744 31.94094881
v 104.41699172 90.75985432 29.80965980
v 104.77633047 90.24112708 29.55065992
v 104.19771044 90.56003260 28.89223832
v 104.14536498 89.64368756 27.16973258
v 104.62354074 89.05835565 27.10732252
v 104.85131278 88.60219979 26.77967208
v 104.24863949 89.05028135 26.37400922
v 104.62778483 90.06956671 28.89223832
v 104.88809572 89.51047308 28.42416572
v 104.74803826 89.34698446 27.84999735
v 103.61767143 89.10679635 25.37857564
v 104.72681526 88.44880340 26.30847907
v 104.92912276 87.83723321 25.77799736
v 104.44245625 88.19650512 25.44722620
v 104.01096544 87.76659010 24.14910576
v 103.94588772 88.55375909 25.11333463
v 103.50873899 88.11778770 23.82769614
v 103.82846711 87.55465821 23.57493707
v 104.18921969 87.29428819 23.80585297
v 104.81877391 86.83409645 24.24272021
v 104.69993689 86.51720886 23.64358763
v 104.86262863 86.03077885 23.30345524
v 104.26702968 86.45464006 22.88531076
v 104.71408299 85.82893919 22.85722645
v 104.87960755 85.19314866 22.41411775
v 104.10716819 85.31425296 21.42492498
v 104.39859896 84.69460847 21.19400973
v 104.11423995 84.46854847 20.55431057
v 104.71266915 83.02338524 20.05503325
v 104.85980095 82.57732289 19.85532271
v 104.09443336 83.58449551 19.73362395
v 104.39152720 83.81661060 20.33587694
v 103.86383365 83.24338886 19.15633486
v 104.01237928 81.73767477 18.11097316
v 104.05765041 82.66814919 18.91605742
v 103.82846711 82.31089522 18.34188906
v 103.94730156 80.76481216 17.32461198
v 103.35594927 81.29766622 17.01880440
v 103.61625759 80.50242293 16.77852696
v 103.28521104 80.23801447 16.23556395
v 104.11848404 80.18957249 17.13114226
v 103.86100597 79.74149093 16.55697325
v 104.99561432 76.98437895 16.24492485
v 104.99278408 78.53449787 17.10929845
v 105.11162110 77.78567734 16.82221458
v 105.70580621 77.35979819 17.28404573
v 104.72540142 79.57396643 17.42758766
v 105.07625199 79.57396643 17.85509401
v 105.65770484 78.98661659 18.21706957
v 105.79776230 78.41137692 18.03296138
v 105.93781976 77.84824742 17.86133482
v 105.83595909 76.78455852 17.13114226
v 105.57848101 76.35867937 16.60690104
v 113.92393810 77.85026536 43.53665977
v 113.06095649 79.57396643 43.57410594
v 114.52236730 77.85026536 43.29950242
v 114.67374319 76.98639688 43.36191184
v 115.20992234 76.35867937 42.69412999
v 109.61044389 85.61095350 43.60218992
v 112.20080513 82.16153470 43.47112962
v 111.33782352 83.02540317 43.58034740
v 100.75709985 96.67573965 43.30886461
v 101.85068117 95.09534272 43.54290123
v 100.98769956 95.95719326 43.50545506
v 101.85068117 94.23349475 43.60218992
v 103.57664439 93.36962371 43.56786448
v 102.71366278 94.23349475 43.55538157
v 103.31774991 93.96504786 35.79474484
v 103.74924071 93.54320715 35.79474484
v 104.93053660 92.13841159 34.93349068
v 104.18073152 93.11328956 35.79474484
v 105.71146414 91.18775140 34.59023886
v 105.63365415 91.10297762 34.06911837
v 105.13708562 91.67619935 34.15024959
v 104.78340480 91.98299470 33.91621426
v 104.24015131 92.31401039 33.20786422
v 105.42144463 91.59344607 34.89916524
v 103.89778635 92.57438041 32.94886434
v 100.75709985 96.39921845 36.84322598
v 101.17302814 96.19132757 37.52037131
v 101.07399772 96.11058965 36.65911715
v 101.70354937 95.76140998 37.52037131
v 102.13645659 95.39810220 37.52037131
v 102.51984602 94.87937753 36.65911715
v 102.95133682 94.48377253 36.65911715
v 104.49904580 91.95675642 32.94886434
v 105.16679424 90.67508053 31.48223839
v 104.59949006 90.91930708 30.61786479
v 104.89516749 90.37837742 30.12794902
v 105.70156212 90.31580862 32.00959969
v 105.02673678 91.38353468 32.94886434
v 104.95600113 91.30683520 32.51511782
v 105.84020317 88.75357824 29.08882878
v 104.99702816 89.63763119 28.89223832
v 105.83171500 89.60735704 30.80509370
v 105.71570822 89.46808619 30.23092470
v 105.61667780 89.35303826 29.75661192
v 104.99278408 88.77174479 27.35384077
v 105.70863389 88.59816392 28.51153968
v 105.59121328 88.45082133 28.03098545
v 105.93498951 88.02090631 28.03098545
v 105.79634846 87.84732545 27.47553953
v 105.65204691 87.66163183 26.89825043
v 105.87840253 87.08841267 26.45826246
v 105.73127074 86.89868319 25.88409377
v 105.06918022 88.01686788 26.30847907
v 105.11303494 89.05835565 28.09339488
v 104.75935412 87.62328338 25.20382868
v 104.60232031 87.33465458 24.55164789
v 105.77936954 86.10343989 24.93546726
v 105.60818963 85.87334402 24.36129857
v 105.33939056 85.66545057 23.65606958
v 105.64638641 85.06195468 23.43451555
v 105.85152160 84.48671501 23.10374438
v 105.02815319 85.39700624 22.85722645
v 105.66194893 84.21221432 22.53269610
v 105.01824860 84.67845985 22.07710577
v 105.47095984 84.76525157 22.83538296
v 104.88809572 84.34542623 21.54038293
v 104.88102139 83.47146680 20.68849160
v 104.69003231 84.04670647 20.96309383
v 105.03098086 83.02338524 20.48566033
v 105.04229929 82.00208322 19.62128673
v 104.68861847 82.24025211 19.36540694
v 105.64780025 82.45621859 20.82891280
v 105.34505106 82.23015987 20.21417818
v 104.93195044 80.11085636 18.03920220
v 104.14394857 81.29766622 17.94870815
v 104.17931768 82.07878142 18.59464812
v 104.81452983 81.64079209 19.04711772
v 104.75935412 80.68609603 18.25451573
v 104.43962600 80.43783491 17.68034673
v 106.51502852 77.23465801 18.22643111
v 106.17549380 77.00859930 17.67098518
v 105.54452574 79.64864541 18.51975643
v 106.02553176 78.70606081 18.51975643
v 106.41033760 77.92696484 18.52599724
v 106.66357416 79.27322746 19.75234704
v 106.63952347 76.65941834 18.05792528
v 106.20378858 76.35867937 17.36205751
v 105.92508750 76.35867937 17.02192512
v 113.74709769 79.57396643 43.34006932
v 114.41201845 78.43559727 43.20277013
v 113.60704023 80.25617973 43.25269664
v 115.18445782 76.35867937 41.83287712
v 115.16889530 76.40510213 41.83287712
v 114.97083446 76.98639688 41.83287712
v 114.98781081 76.98639688 42.69412999
v 107.02715699 89.05835565 43.60218992
v 110.47342550 84.74910296 43.56162303
v 108.75029253 87.33263664 43.56474376
v 107.89013860 88.19448718 43.59594847
v 112.92938721 81.29968544 43.34943150
v 112.19231696 82.94264989 43.30262315
v 111.89805336 83.68743327 43.25893810
v 111.16239695 84.74910296 43.32446825
v 110.50879461 85.61902781 43.38063621
v 101.78560345 95.91884480 43.29014024
v 100.98769956 96.59298637 43.26830028
v 100.75709985 96.97647862 42.69412999
v 104.43396807 93.36356991 43.35879112
v 103.55825420 94.22138201 43.34943150
v 102.67971008 95.07112237 43.33070970
v 104.43821216 92.50777317 43.56786448
v 103.41536649 94.05183958 36.65911715
v 103.84685730 93.64412440 36.65911715
v 104.28259219 93.21420939 36.65911715
v 104.61222232 92.67731817 35.79474484
v 105.03098086 92.24538522 35.79474484
v 105.46247167 91.78115505 35.79474484
v 105.78219979 91.27050468 35.16440658
v 106.80221521 89.73451515 34.06911837
v 106.00431132 90.67104466 34.06911837
v 106.60274052 90.35819552 35.33603378
v 106.53058846 90.27543966 34.76186477
v 105.84444726 90.47929725 32.94886434
v 105.79068796 90.41672845 32.58688814
v 105.62233573 90.72957760 32.94886434
v 105.49925462 90.95563760 33.20786422
v 105.06776381 91.42995744 33.20786422
v 104.67022571 91.86189039 33.20786422
v 100.75709985 96.52032276 37.52037131
v 100.75709985 96.54858154 37.70135812
v 100.82359141 96.60105810 38.38162289
v 101.25508222 96.25793223 38.38162289
v 101.77994552 95.82599928 38.38162289
v 102.21143633 95.46470687 38.38162289
v 102.61038827 94.96616668 37.52037131
v 103.04187907 94.56652581 37.52037131
v 105.59970145 90.19874275 31.48223839
v 104.99419791 90.48737156 30.61786479
v 105.45398349 90.91526864 32.94886434
v 106.67347617 89.58313413 33.20786422
v 106.60415436 89.50038084 32.74915315
v 106.51361211 89.38533291 32.17186470
v 105.96187044 89.76680723 31.48223839
v 105.97743296 88.92312324 29.75661192
v 106.40750735 88.38825253 29.75661192
v 106.63810963 87.82108459 29.22612989
v 106.17549380 88.20861529 28.87039515
v 105.47520393 89.04826341 28.83919044
v 106.52634437 88.53963098 30.37134718
v 106.51219827 87.64952166 28.65196089
v 106.40750735 87.35080062 27.95297303
v 106.48390350 86.74932267 27.16973258
v 106.66357416 86.13573454 26.59868430
v 106.19954449 86.51922680 26.24294924
v 106.52210029 85.93187695 26.02451529
v 105.92791774 86.30124110 25.44722620
v 105.95904020 85.59682539 24.62029845
v 106.38204283 85.63113798 25.40353954
v 105.81615249 85.29810435 24.01180464
v 106.02270408 84.76525157 23.72159973
v 106.13871085 83.84486810 22.90091311
v 106.58859185 84.30707777 24.16470811
v 106.46409690 84.10725734 23.72159973
v 106.60698461 83.47348473 23.27225053
v 105.85010776 83.63899258 22.25185305
v 105.48369211 83.90945612 21.97725018
v 105.47095984 83.03953256 21.12535885
v 105.61667780 81.52574416 19.99886464
v 105.83878933 82.76099600 21.40620254
v 106.59991027 82.59952402 22.42035888
v 106.01704358 82.16758978 21.12535885
v 105.82181298 81.88097892 20.57303365
v 105.59687120 80.43783491 19.15945494
v 105.72136615 79.98571619 18.99406984
v 104.98712615 81.06555242 18.83180483
v 105.77795570 80.95050449 19.78043102
v 106.59000826 78.26605227 18.98782903
v 106.72157754 77.69081260 18.80060012
v 107.49967483 77.51117664 19.78043102
v 106.84748633 76.96217654 18.52599724
v 106.19247015 79.63048143 19.37164775
v 106.47965941 78.71211589 19.13137096
v 106.51219827 79.84846713 19.95517830
v 106.87153702 79.56589213 20.25474444
v 107.43884120 79.10166452 20.73529867
v 107.26341720 78.77266676 20.26098525
v 106.79797112 78.71211589 19.56511812
v 106.69894070 76.35867937 17.97991286
v 107.41762076 76.45757997 19.03151537
v 106.97764178 76.35867937 18.36061214
v 112.63370977 82.59952402 43.13099852
v 114.67940111 77.85026536 42.69412999
v 114.43748298 78.50018529 42.69412999
v 114.26488666 78.93211952 42.69412999
v 114.00174809 79.57396643 42.69412999
v 113.66079953 80.37122767 42.69412999
v 112.73557045 82.16153470 43.23397227
v 115.14484462 76.35867937 40.96850352
v 114.93829560 76.98639688 40.96850352
v 114.66242476 77.85026536 41.83287712
v 114.63837408 77.85026536 40.96850352
v 109.61044389 86.47482197 43.49297215
v 108.77858730 88.20255892 43.38063621
v 107.02715699 89.92020619 43.50545506
v 106.16417538 90.78205673 43.54290123
v 105.30119377 91.64592520 43.55538157
v 111.00253289 85.33645281 43.23397227
v 109.28647169 87.91998649 43.24021373
v 102.36988397 95.60599566 43.20900901
v 101.45455948 96.41536706 43.15907993
v 100.75709985 96.96033001 41.83287712
v 101.46446149 96.42344137 42.69412999
v 105.28987535 92.48759126 43.34943150
v 104.99419791 93.07292317 43.24021373
v 104.14253473 93.92669940 43.24021373
v 103.25550243 94.76634753 43.22773081
v 103.50590874 94.13459286 37.52037131
v 103.93739954 93.73293406 37.52037131
v 104.71408299 92.77823800 36.65911715
v 104.37313444 93.30301904 37.52037131
v 104.80462524 92.86906559 37.52037131
v 105.12010927 92.34630248 36.65911715
v 105.85576568 91.35124003 35.79474484
v 105.55160008 91.88005694 36.65911715
v 105.94772177 91.45014192 36.65911715
v 106.28725649 90.85068190 35.79474484
v 106.85739092 89.96057258 35.00214156
v 107.34829895 89.35303826 34.93349068
v 107.23370601 89.20569824 34.06911837
v 106.09485357 90.18259414 32.94886434
v 106.65366957 90.42076432 35.79474484
v 107.42045101 89.43982998 35.56070822
v 100.75709985 96.65353724 38.38162289
v 100.89291322 96.65757310 39.24287705
v 101.32440403 96.31041137 39.24287705
v 103.10412655 94.62506132 38.21935788
v 101.38382126 96.35885206 40.10725065
v 102.29066015 95.53333204 39.61733487
v 103.24277017 94.75423736 40.10725065
v 103.18476678 94.69772236 39.24287705
v 103.14939767 94.66744564 38.79352689
v 103.98832860 93.78339269 38.07893796
v 107.40488849 88.55981546 32.94886434
v 106.82909614 89.08257600 32.41526223
v 107.31010216 88.44072909 32.34349126
v 107.54070187 87.87154579 31.68506966
v 106.73289597 88.80201893 31.48223839
v 106.39194741 89.23193652 31.48223839
v 106.74138414 87.95631701 29.75661192
v 107.43459711 87.73429545 31.10778056
v 107.34122718 87.60309890 30.61786479
v 107.20824149 87.30841630 29.72540721
v 107.42045101 86.85024249 29.41647889
v 107.62134210 86.26894645 28.89223832
v 107.31010216 86.69684610 28.89223832
v 106.63386297 88.67486083 30.94551555
v 107.20965790 88.17430270 31.42919051
v 107.50391892 86.10747576 28.35863557
v 106.72299138 87.07428199 28.18700965
v 106.59000826 86.89262939 27.61596137
v 106.79797112 86.32142558 27.16973258
v 106.86304884 85.63113798 26.31159980
v 107.37093579 85.91573091 27.78134647
v 107.25775670 85.62306367 27.11980479
v 107.42893918 85.13865159 26.79839484
v 107.47986823 84.35148260 25.83416597
v 106.71308937 85.35865522 25.66253974
v 107.31010216 84.95901692 26.30847907
v 106.55463915 85.12048761 25.08837073
v 106.42448627 83.17476369 22.69496112
v 107.01866881 84.73699279 25.45970815
v 107.32283442 84.10523940 25.25999729
v 107.50391892 83.52999973 24.92922644
v 107.34405486 83.26962843 24.35505776
v 106.73430981 83.67532310 23.72159973
v 107.16438677 82.99714567 23.74032281
v 107.35537328 82.42998030 23.46572026
v 107.53079985 81.85474063 23.16927453
v 106.71733346 82.94264989 22.93211783
v 106.13163652 82.96888945 22.04902179
v 105.96470069 81.26335364 20.27970833
v 106.73289597 82.16153470 22.22064770
v 106.45136464 82.16153470 21.78690118
v 106.58576417 81.71345313 21.58094918
v 106.71874729 80.22590430 20.52934667
v 106.44853439 81.37436442 21.08167187
v 106.55746940 80.79912475 20.76026257
v 105.92084341 80.43783491 19.59008202
v 107.36952196 78.08641631 19.96453985
v 107.69632184 77.81998992 20.26098525
v 108.27353060 77.31741258 20.77274419
v 108.39661171 76.74217291 20.58863601
v 107.61426777 76.98437895 19.62128673
v 108.15469358 77.84824742 20.96621456
v 107.57041048 78.52642485 20.53870821
v 107.32000674 79.57396643 20.92252758
v 107.47421031 80.03819404 21.53726220
v 108.36831694 79.24295074 22.34546719
v 108.46027303 78.63138055 22.03341879
v 107.43742736 76.35867937 19.00655147
v 108.05283291 76.35867937 19.88340734
v 112.63370977 82.59952402 43.04986473
v 111.95888700 83.79642612 42.69412999
v 111.04214609 85.40507798 42.69412999
v 114.42899480 78.46990985 41.83287712
v 114.26064257 78.90184409 41.83287712
v 113.98335790 79.57396643 41.83287712
v 113.64806727 80.35104319 41.83287712
v 113.45425051 80.78096077 41.83287712
v 113.21374621 81.29968544 41.83287712
v 115.08967148 76.35867937 40.10725065
v 114.88453630 76.98639688 40.10725065
v 114.41626254 78.43156011 40.96850352
v 114.58320094 77.85026536 40.10725065
v 114.38938161 78.36293494 40.10725065
v 108.50978824 88.87064411 43.28078062
v 106.98896020 90.71746742 43.29014024
v 106.14012469 91.61161262 43.33070970
v 110.05608337 86.91886767 43.14035813
v 107.48411232 90.38443380 43.15907993
v 104.20053812 93.98321441 42.69412999
v 103.73650845 94.41312942 42.69412999
v 103.30501764 94.81277029 42.69412999
v 102.83674389 95.24470324 42.69412999
v 102.40525308 95.63626980 42.69412999
v 101.89595229 96.06820533 42.69412999
v 100.98769956 96.77867741 41.83287712
v 100.75709985 96.92601743 40.95602189
v 101.44748514 96.41133119 41.83287712
v 105.83595909 92.18685229 43.22773081
v 105.05078746 93.13145611 42.69412999
v 104.63202892 93.56338906 42.69412999
v 104.85414045 92.92154472 38.07269650
v 105.20357719 92.43914800 37.52037131
v 106.37921258 90.96572727 36.65911715
v 105.63506799 91.97088453 37.52037131
v 106.03260609 91.53894900 37.52037131
v 106.46409690 91.06462916 37.52037131
v 107.68075933 88.92110531 34.93349068
v 107.56899664 88.77578065 34.06911837
v 107.49118666 88.67082496 33.52615407
v 106.74704207 90.53379432 36.65911715
v 107.17853287 90.00497741 36.65911715
v 107.52513936 89.57304446 36.65911715
v 108.32870374 88.64054824 37.03357626
v 108.27353060 88.56385133 36.45940597
v 108.20420879 88.47100581 35.79474484
v 100.75709985 96.76454673 39.24287705
v 100.75709985 96.79280552 39.48315384
v 100.95374686 96.71005224 40.10725065
v 101.41494628 96.38307241 40.63149186
v 101.85068117 95.95921119 40.10725065
v 102.31895492 95.55755239 40.10725065
v 102.75044573 95.18415237 40.10725065
v 103.67426097 94.34248631 40.10725065
v 104.06896883 93.86211010 39.24287705
v 104.03218588 93.82376164 38.65310568
v 102.79147277 95.21846496 40.96850352
v 103.27955312 94.78653201 40.96850352
v 103.71104392 94.37679890 40.96850352
v 107.64539279 88.00879614 32.34349126
v 107.78969434 87.40126182 31.42919051
v 108.12356856 87.31850854 32.25923867
v 108.31597148 86.89868319 31.91598555
v 107.65105071 87.17318388 30.61786479
v 107.53221369 87.00565682 29.99376863
v 107.77130158 86.52730110 29.72540721
v 108.07688359 85.59480746 28.87351524
v 108.22259898 85.89756437 29.75661192
v 108.27211419 85.10635694 28.57082838
v 107.69490800 85.62306367 28.05594935
v 107.04696359 86.50106282 27.98729847
v 107.56475255 85.34250918 27.37568394
v 107.59729142 84.52708140 26.30847907
v 107.88023658 84.73295692 27.19469648
v 108.03585656 83.85496034 26.32408175
v 108.23674765 83.31201404 26.04635878
v 107.62275594 83.84486810 25.50651554
v 107.65246455 82.99714567 24.62029845
v 107.51806759 82.69237083 24.04300935
v 108.08254152 83.02338524 25.44098538
v 107.67510140 82.14942452 23.74032281
v 108.25655168 81.61657046 24.26768411
v 108.11508038 81.31583149 23.70599737
v 108.25513784 80.74059181 23.40643124
v 107.66519939 81.26739079 22.87282881
v 107.34829895 81.53381718 22.59510585
v 106.74704207 81.14023268 21.33755166
v 107.02008265 80.41966836 21.15032275
v 107.50533533 80.96059544 22.34858792
v 108.42065983 77.84824742 21.39684100
v 109.07426217 78.02788338 22.60446739
v 108.59467256 77.01061723 21.09103341
v 108.46876120 76.35867937 20.47941888
v 109.14358398 76.45354411 21.63087698
v 108.76726888 76.35867937 20.95373229
v 108.08112768 80.44792715 22.86346727
v 108.22401539 79.81819041 22.57950349
v 108.53383892 79.54772687 22.86346727
v 109.12094970 79.00881900 23.40019011
v 108.93986520 78.71615176 22.87906962
v 113.18828169 81.29968544 40.96850352
v 112.80630610 82.07272633 40.96850352
v 112.62097751 82.57328574 42.47569572
v 112.31681190 83.02540317 40.96850352
v 111.93200606 83.75807767 40.96850352
v 111.69716227 84.19001190 40.96850352
v 111.94756857 83.78027879 41.83287712
v 111.70848069 84.21019510 41.83287712
v 110.77193318 85.83701350 42.69412999
v 111.36328805 84.74910296 40.96850352
v 111.02375333 85.37682176 41.83287712
v 110.76061476 85.80673678 41.83287712
v 114.23942213 78.86147642 40.96850352
v 113.94374470 79.57396643 40.96850352
v 113.62826067 80.32278697 40.96850352
v 113.44293208 80.75472121 40.96850352
v 115.08118330 76.35867937 39.99179270
v 115.01327533 76.35867937 39.21479307
v 114.93829560 76.35867937 38.38162289
v 114.80672631 76.98639688 39.24287705
v 114.72325840 76.98639688 38.38162289
v 114.48275410 77.90072527 39.27720249
v 114.36674733 78.30440201 39.58613016
v 113.81217542 79.57396643 39.24287705
v 114.21112736 78.79486918 40.10725065
v 106.67347617 91.30078140 43.20900901
v 110.35317464 86.47482197 42.69412999
v 110.05608337 86.92088560 42.69412999
v 109.33740331 87.98861166 42.69412999
v 109.03040745 88.41852668 42.69412999
v 108.59891665 88.98569461 42.69412999
v 107.49401690 90.39452604 42.69412999
v 107.13750584 90.82645899 42.69412999
v 106.70601503 91.33711192 42.69412999
v 104.17931768 93.96706579 41.83287712
v 103.72519002 94.39900131 41.83287712
v 103.29511563 94.80066012 41.83287712
v 102.38544649 95.61608532 41.83287712
v 101.87897594 96.04802085 41.83287712
v 101.07116747 96.67775758 40.94041953
v 100.75709985 96.88968691 40.44114158
v 101.43192263 96.39921845 41.20878031
v 105.48227827 92.66924387 42.69412999
v 105.85717952 92.21107263 40.96850352
v 105.44549532 92.64300558 40.96850352
v 105.03522495 93.10925369 41.83287712
v 104.61080848 93.54118664 41.83287712
v 105.69448779 92.03345333 38.22247861
v 104.89375365 92.96191111 38.64686423
v 105.76663728 92.11418867 39.24287705
v 105.73692866 92.07987609 38.79664762
v 106.83050998 90.63471414 37.52037131
v 106.02836201 91.70647607 38.45651523
v 106.52917462 91.13931071 38.38162289
v 108.10942245 88.33779133 34.93349068
v 108.35275443 87.81301286 34.36868386
v 107.72603045 88.24090994 33.22658858
v 107.70056593 88.16824633 32.94886434
v 108.58618438 87.38511320 34.07535854
v 108.19713445 87.59502716 33.20786422
v 107.26200079 90.10387930 37.52037131
v 108.03161247 89.12496289 37.52037131
v 108.36973078 88.69302737 37.52037131
v 108.73897411 88.19448718 37.52037131
v 109.11670561 87.67172407 37.52037131
v 108.55505936 88.24494581 36.70904623
v 108.51686257 88.03907029 35.79474484
v 109.20300377 86.93501371 35.26114144
v 100.75709985 96.86344862 40.10725065
v 102.35998196 95.59186498 40.96850352
v 104.11707020 93.91055079 40.10725065
v 104.15243674 93.94688131 40.96850352
v 104.50045963 93.43017715 39.24287705
v 108.23957533 86.78565319 31.48223839
v 108.12215472 86.46876817 30.54921455
v 108.40085580 87.02180543 32.49015328
v 108.80405183 86.62418249 32.94886434
v 109.09972926 85.91976678 32.34349126
v 109.27656967 85.32232470 31.63826259
v 109.00211268 85.61095350 31.40110588
v 108.52959484 86.35775610 31.48223839
v 108.38953738 85.29406848 29.14499739
v 108.50554415 85.46966728 29.75661192
v 108.30606946 86.02270454 30.21844307
v 108.64984570 85.68765298 30.54921455
v 109.20017352 83.48761412 28.41792491
v 108.41924599 84.48469451 28.03098545
v 108.32304581 84.32524432 27.59099747
v 108.19430421 84.11936751 27.01370838
v 108.14903308 84.91663003 28.03098545
v 108.58901206 84.79148985 28.87351524
v 109.29920395 83.64706560 28.89223832
v 108.37256103 83.54412912 26.62364788
v 109.13368196 81.64482925 25.97458750
v 108.39802555 82.73677437 25.72494916
v 108.52818100 83.02338524 26.32408175
v 109.26949534 81.89107116 26.54875651
v 108.24664967 82.46832876 25.14766007
v 108.10376196 82.17162694 24.56412984
v 108.40792756 81.89107116 24.84185280
v 109.28930193 81.06958958 25.67190096
v 109.13651221 80.78297871 25.09461186
v 108.40934397 81.04133079 23.98059993
v 108.99079425 79.60020471 23.69975656
v 108.39943939 80.16535214 23.15367218
v 109.00635677 80.47214749 24.55164789
v 109.13085171 79.90498084 24.24584062
v 109.24544465 78.43357933 23.17863608
v 109.19451560 77.45264371 22.40163580
v 109.03606538 76.98437895 21.81186508
v 109.16056290 76.35867937 21.59967227
v 109.08841084 76.35867937 21.48109359
v 109.29071577 76.98437895 22.24249151
v 109.72220658 76.91575378 22.93211783
v 110.05325312 76.58272015 23.27225053
v 110.09569400 76.35867937 23.19735884
v 109.27090917 79.32974117 23.97435879
v 109.84811794 78.72422607 24.58285292
v 109.40247846 78.71615176 23.69975656
v 109.80284681 77.83210010 23.75280476
v 113.41746756 80.69215112 40.10725065
v 113.13027830 81.29968544 40.10725065
v 112.77659748 82.01621133 40.10725065
v 112.60541500 82.54502824 41.83287712
v 112.26022236 83.02540317 40.10725065
v 111.90512770 83.70761775 40.10725065
v 111.66745365 84.13955199 40.10725065
v 110.03627677 86.89060888 40.96850352
v 110.27536465 86.55959576 41.78294932
v 110.73939432 85.77242419 40.96850352
v 111.30245441 84.74910296 40.10725065
v 110.97423812 85.29003004 40.10725065
v 110.30790352 86.46271180 40.96850352
v 113.59996590 80.26021688 40.10725065
v 114.82794675 76.35867937 37.52037131
v 114.61432339 76.98639688 37.52037131
v 114.46153367 77.69888690 38.38162289
v 114.07955807 78.71211589 38.38162289
v 113.73012134 79.57396643 38.38162289
v 113.56459936 80.16737008 39.24287705
v 106.31272102 91.76904487 42.69412999
v 105.88123021 92.23731091 42.69412999
v 110.04900903 86.90877543 42.03882847
v 109.32184080 87.96237338 41.83287712
v 109.01060085 88.39228840 41.83287712
v 108.55788961 88.95138203 40.96850352
v 108.23816149 89.38331498 40.96850352
v 108.25089375 89.40349946 41.83287712
v 107.84486747 89.92020619 41.83287712
v 107.47986823 90.37837742 41.83287712
v 107.11769924 90.81031295 41.83287712
v 106.68620843 91.31692744 41.83287712
v 105.86991179 92.22520074 41.83287712
v 106.28725649 91.72262211 40.96850352
v 105.82322682 92.17473954 40.10725065
v 105.01400451 93.08301541 40.96850352
v 105.40871237 92.60667506 40.10725065
v 104.58534396 93.51494836 40.96850352
v 104.93053660 92.99824163 39.24287705
v 106.89558770 90.70939312 38.38162289
v 107.32707851 90.18663258 38.38162289
v 106.57020166 91.18371553 39.04316587
v 108.42207624 87.90787631 34.93349068
v 109.13792605 86.84015025 34.68385299
v 109.05587198 86.71904852 34.06911837
v 108.50413031 87.16309164 33.20786422
v 107.66802707 89.75671499 38.38162289
v 108.09810403 89.20771617 38.38162289
v 108.43197825 88.77578065 38.38162289
v 109.16197674 87.73631338 38.10702194
v 109.83679951 86.59996215 37.52037131
v 109.80992115 86.41830697 36.63415390
v 109.33457306 87.12877906 36.65911715
v 109.03889563 87.56071458 36.65911715
v 108.94835338 87.44162820 35.79474484
v 109.25534923 87.00969525 35.79474484
v 109.61468798 86.47482197 35.79474484
v 109.40955280 86.52326524 34.95533450
v 104.97722156 93.04668232 40.10725065
v 108.40792756 86.17610093 30.79261208
v 108.97664815 86.45261956 33.14545479
v 108.90308225 86.47684248 32.94886434
v 109.38408827 85.48985176 32.34349126
v 109.09265493 86.19426748 32.94886434
v 109.25110515 86.14986265 33.39197304
v 109.50433913 84.82983831 31.40110588
v 109.17612284 85.17094624 31.06409358
v 109.85094819 84.72690312 32.29044338
v 110.02637219 84.28891251 31.96903343
v 109.09548517 85.04177020 30.61786479
v 108.96249948 84.72892105 29.73164802
v 109.14217014 84.25459992 29.42896116
v 109.73069475 82.95274213 28.95776847
v 109.33740331 82.99916489 28.09027479
v 109.07426217 83.26962843 27.84375654
v 108.46168686 83.85496034 27.25086509
v 109.44774958 83.93569569 29.73164802
v 109.89480290 83.19494817 29.75661192
v 110.05608337 82.61768928 29.28853932
v 108.93279087 82.99916489 27.18221421
v 109.10821744 82.46631083 26.89825043
v 109.44492191 81.33399803 26.28039509
v 109.39682053 82.16960772 27.18221421
v 109.80001656 82.12924133 28.04970789
v 109.85377586 81.29968544 27.15100950
v 109.88207064 80.46407319 26.27727436
v 109.45341008 80.47214749 25.40978067
v 109.28081376 80.20773904 24.82000931
v 109.93724635 77.15795982 23.48756375
v 109.33740331 77.78365812 22.87906962
v 110.17774807 76.91575378 23.75280476
v 110.25555806 76.35867937 23.48756375
v 109.43501732 79.60020471 24.55164789
v 109.87216862 79.60424187 25.42538303
v 109.98958924 79.02092918 25.12581658
v 110.11691443 78.44568951 24.86993710
v 109.97119905 78.10659950 24.29576842
v 110.09003607 77.53135983 24.06173244
v 113.37219644 80.59728767 39.24287705
v 113.04398014 81.29968544 39.24287705
v 112.73557045 81.93951313 39.24287705
v 112.51770300 82.36942815 39.24287705
v 112.17816828 83.02540317 39.24287705
v 111.86127041 83.62486447 39.24287705
v 111.61935228 84.05679742 39.24287705
v 110.87945178 85.13663366 38.19751535
v 110.91057680 85.18709228 38.77168436
v 109.72503683 87.33263664 40.96850352
v 110.00798200 86.84620663 40.10725065
v 110.70968571 85.72196557 40.10725065
v 110.27819490 86.41830697 40.10725065
v 110.93321108 85.22544331 39.24287705
v 114.79399405 76.35867937 37.30505777
v 114.36674733 77.44860655 37.01485189
v 114.24366622 77.98146062 37.52037131
v 114.69213338 76.35867937 36.66847934
v 114.27337483 77.17006999 35.79474484
v 114.32289004 77.32548560 36.43756344
v 113.96920923 78.71211589 37.52037131
v 113.61977249 79.60424187 37.59838309
v 113.52074207 80.06645154 38.38162289
v 113.49669138 80.00993782 37.93851547
v 109.30203420 87.93007873 40.96850352
v 108.98796658 88.36201168 40.96850352
v 108.52535075 88.91101307 40.10725065
v 108.20845288 89.34092808 40.10725065
v 107.77837591 89.88185517 40.10725065
v 107.74583705 90.00094154 40.95602189
v 107.46713597 90.36223138 41.23374485
v 106.66074391 91.29068916 40.96850352
v 106.25471763 91.68225572 40.10725065
v 106.60274052 91.22206399 39.61733487
v 106.88285544 90.85068190 39.29592557
v 107.38083781 90.25525775 39.24287705
v 107.72603045 89.82534017 39.24287705
v 109.34589148 86.29316937 34.06911837
v 108.15469358 89.27835928 39.24287705
v 108.48290987 88.84642376 39.24287705
v 108.91581452 88.12182357 38.38786435
v 109.19592944 87.78677201 38.68118967
v 109.95422270 86.76950715 39.24287705
v 109.90046340 86.68877180 38.38162289
v 110.18765265 86.26087472 38.38162289
v 110.12681902 86.16802919 37.52037131
v 110.02495835 86.01261230 36.33146639
v 110.07447356 86.09132972 36.90875613
v 109.97119905 85.92784109 35.79474484
v 109.88065680 85.78049850 34.93349068
v 109.45624033 85.63921229 32.94886434
v 109.76889411 85.14672590 32.94886434
v 109.94431811 84.14560708 31.48223839
v 109.36145142 84.60983468 30.61786479
v 109.93300226 84.99938331 33.20786422
v 110.10701242 84.42414364 32.54632253
v 110.53708939 83.86303336 32.94886434
v 110.92330907 83.48559491 33.57608187
v 110.83701091 83.33219852 32.94886434
v 110.99404472 82.75090376 32.34349126
v 110.92472291 82.62576359 31.85357549
v 110.09286375 83.54412912 30.90494930
v 109.24827490 84.42818208 30.00312953
v 109.94007402 82.39566772 28.71437095
v 109.23695647 82.69438876 27.47553953
v 109.81416524 83.85294112 30.61786479
v 110.13813487 82.76503187 29.75661192
v 109.99524973 83.37054697 30.32766020
v 110.92755315 80.91013682 29.26981623
v 110.09003607 81.82042805 28.34927467
v 110.73939432 82.16153470 30.57417781
v 110.98131245 81.87290590 30.83629842
v 110.88086562 81.68115977 30.25900932
v 109.99807741 80.77086853 26.84832264
v 109.96978264 81.58831425 27.77510566
v 109.99949382 79.91103593 25.97146741
v 110.13106311 80.19562886 26.54563578
v 110.63187572 76.92584602 24.65150348
v 110.75071274 76.35867937 24.45491303
v 110.13106311 79.33579626 25.69998526
v 110.27112057 78.72422607 25.42538303
v 110.83842474 78.11063794 26.01827448
v 110.23150737 77.83210010 24.58285292
v 112.94919381 81.29968544 38.38162289
v 112.69029932 81.85070348 38.38162289
v 112.47667596 82.28061978 38.38162289
v 112.08762603 83.02540317 38.38162289
v 111.81175520 83.53201767 38.38162289
v 111.56983707 83.96395190 38.38162289
v 110.66158433 85.53021815 38.44403360
v 110.83418066 85.05589831 37.52037131
v 110.48474393 85.61095350 37.52037131
v 109.66420319 87.33263664 40.10725065
v 110.23433762 86.34161006 39.24287705
v 109.22705446 87.82714097 39.24287705
v 114.19415101 77.78164018 36.69968405
v 114.63554383 76.35867937 36.32834695
v 114.41909279 76.73813576 35.79474484
v 114.37099142 76.60492256 35.28610598
v 114.19839510 76.92988188 34.97093685
v 113.86169063 77.85026536 34.93349068
v 114.02579877 77.85026536 35.79474484
v 113.83339585 78.71211589 36.65911715
v 113.57874546 79.34387056 36.65911715
v 113.45142026 79.91103593 37.36122702
v 113.28589827 80.35306241 37.59838309
v 112.80630610 81.36023631 37.51412985
v 112.65351637 81.77804116 37.80121371
v 109.26808150 87.88567390 40.10725065
v 108.95684155 88.31760685 40.10725065
v 108.91440068 88.25907392 39.24287705
v 107.42610893 90.31379069 40.10725065
v 107.45015962 90.34406484 40.65957584
v 106.62820505 91.25032020 40.10725065
v 110.08154789 85.24158935 34.35620223
v 109.80709090 85.56251281 34.06911837
v 110.00798200 85.12250555 33.77891378
v 110.28809692 85.67957867 36.63415390
v 110.75637067 84.92874020 36.65911715
v 110.23858171 85.49590557 35.79474484
v 110.14803946 85.35058348 34.93349068
v 110.19614083 84.56946829 33.20786422
v 110.73939432 84.03257708 34.06911837
v 110.98980063 83.60266206 34.06911837
v 111.05063426 82.94466782 32.94886434
v 111.30952875 82.16153470 32.34349126
v 111.06478037 82.16153470 31.53216554
v 110.82852273 82.44814557 31.27940712
v 110.26687648 83.05971576 30.61786479
v 111.01243491 81.07564338 29.75661192
v 111.32650510 80.43783491 29.75661192
v 111.04497377 80.40755819 28.94840693
v 110.81154381 80.67600379 28.69564787
v 110.23150737 81.29968544 28.04970789
v 111.15107853 81.35619916 30.57417781
v 111.52739619 81.23711407 31.53216554
v 110.11691443 81.01307458 27.42561173
v 110.95301768 80.10076412 28.35239475
v 110.82993657 79.84039282 27.77510566
v 110.83983858 79.00074470 26.89200930
v 110.28243899 79.60424187 26.27727436
v 110.70685546 78.71211589 26.30847907
v 110.97140787 78.42550503 26.59556357
v 110.67997452 77.83411931 25.47531082
v 110.81154381 77.17006999 25.20694940
v 110.92047882 76.59684825 24.98227432
v 110.96433610 76.35867937 24.89490100
v 110.95160384 77.53539827 25.78423850
v 111.07751263 77.83411931 26.30847907
v 112.45262528 82.10502098 37.51412985
v 111.95181266 83.07586308 37.56093692
v 111.77921634 83.47550395 37.87922678
v 111.07751263 84.62396536 37.52037131
v 111.00960723 84.49882518 36.65911715
v 114.50114686 76.35867937 35.54510586
v 114.42050663 76.35867937 35.12072024
v 114.31298803 76.42528532 34.70881625
v 113.98052765 76.98639688 34.06911837
v 113.65231136 77.88659588 34.06287691
v 113.53206049 78.37100796 34.34371932
v 113.59430797 78.52440563 34.93349068
v 113.66079953 78.76661296 35.78226193
v 113.39341687 79.77378558 36.65911715
v 113.52498616 79.21671246 36.05998617
v 112.95343789 80.43783491 35.79474484
v 113.09773944 80.43783491 36.65911715
v 112.76527906 81.15839794 36.65911715
v 112.60965909 81.68721485 37.22392526
v 110.51728279 84.74910296 34.93349068
v 110.84266883 84.21423225 34.93349068
v 110.27819490 84.79956416 34.06911837
v 110.94877359 84.39386949 35.98821457
v 110.89642813 84.30102268 35.41404556
v 110.71109955 84.70873657 35.73857559
v 111.09307514 83.78229801 34.93349068
v 111.54437254 82.95677928 34.97405758
v 111.29821032 83.02540317 34.06911837
v 111.38875257 82.30887728 32.94886434
v 111.48495275 82.12722211 32.94886434
v 111.72970113 81.64886511 32.93014254
v 111.65330498 81.48335855 32.34349126
v 111.67311158 79.61635204 29.67547941
v 111.40714276 79.57396643 28.89223832
v 111.60520361 80.42774267 30.58978016
v 111.73677546 79.93323834 30.28397322
v 111.78770452 80.90811888 31.85357549
v 111.69574843 80.71031638 31.27940712
v 111.07185470 79.56185626 28.04970789
v 111.08741464 78.71211589 27.17597340
v 111.77355841 78.29027261 28.44912962
v 111.50334551 77.76953001 27.25086509
v 111.68159976 76.98437895 26.95129864
v 111.03224150 76.92584602 25.47531082
v 111.23030235 76.35867937 25.45346733
v 111.39724075 76.98437895 26.30847907
v 111.79902294 76.35867937 26.67669608
v 111.61227794 76.35867937 26.27103354
v 111.76365383 76.54235247 26.75158777
v 112.56297412 81.59033218 36.65911715
v 112.28002896 82.16153470 36.65911715
v 111.91502971 82.86595169 36.65911715
v 111.68301616 83.29788593 36.65911715
v 111.73394522 83.39678654 37.30505777
v 111.14683444 83.96395190 35.73857559
v 114.30166961 76.35867937 34.55591342
v 114.18566283 76.35867937 34.03167220
v 113.99750400 76.35867937 33.20786422
v 113.77822271 76.98639688 33.20786422
v 113.55611118 77.58585690 33.20786422
v 113.46273868 78.19944631 33.76643087
v 113.15574283 79.57396643 34.93349068
v 113.41463731 78.95633987 34.93349068
v 113.12179013 78.71211589 33.20786422
v 112.76810931 79.58607661 33.25155184
v 112.96617016 79.57396643 34.06911837
v 113.47122686 79.09157228 35.48269515
v 113.33965757 79.53157954 35.78226193
v 112.65068612 80.91013682 35.26738290
v 112.69454341 81.00701820 35.79474484
v 111.60662002 83.14852541 35.79474484
v 111.78346043 82.62374565 35.28922543
v 111.72404320 82.50466057 34.71505770
v 111.64764705 82.35731798 34.06911837
v 111.56134889 82.11309400 33.21722640
v 111.86834475 81.92538374 34.06911837
v 112.18099853 81.29968544 34.06911837
v 112.59126890 80.77692234 34.69009445
v 112.51487275 80.61343371 34.06911837
v 112.22626966 80.60132353 32.94886434
v 112.13997150 80.43783491 32.34349126
v 111.76507024 79.13597711 29.33222630
v 112.62805185 79.13597711 31.92222637
v 111.68018592 78.93010159 28.89223832
v 111.49627117 78.63138055 28.11211796
v 111.82873155 80.13507671 30.86126231
v 112.51345891 79.58607661 32.26547884
v 111.85985400 78.49816607 28.89223832
v 112.12723923 77.84824742 28.89223832
v 111.77355841 77.43246051 27.58787675
v 111.95888700 76.35867937 27.06363618
v 112.12016490 76.98437895 28.03098545
v 111.90654154 76.35867937 26.93569596
v 112.48516414 81.43693451 35.79474484
v 112.12016490 82.16153470 35.79474484
v 111.83297564 82.71659117 35.79474484
v 113.93242628 76.35867937 32.94886434
v 113.78529448 76.35867937 32.36533443
v 113.58581979 76.95612016 32.41526223
v 113.49810522 77.43447845 32.75227388
v 113.52357232 77.49906647 32.94886434
v 113.39341687 78.01577320 33.20786422
v 113.45425051 77.68273957 32.94886434
v 113.24487124 78.22972174 32.94886434
v 112.70727567 80.18351869 34.06911837
v 112.78084157 80.46811034 34.96157467
v 112.85016338 78.79285124 32.26547884
v 112.70303159 79.30552083 32.49639473
v 112.64927229 80.04425041 33.56984041
v 112.42008642 81.23711407 34.96157467
v 111.93766656 82.19584728 34.97405758
v 112.41159824 80.37526482 33.25155184
v 112.57004589 79.86259524 32.94886434
v 112.55448595 78.96239624 31.48223839
v 112.41018183 78.65761883 30.66467250
v 112.55731363 78.09852648 30.40879207
v 112.45403912 77.82604501 29.76285273
v 112.57995048 77.27502569 29.47888896
v 113.28023778 77.77154794 32.41526223
v 113.42171165 77.22254784 32.17810616
v 112.98597675 77.84824742 31.48223839
v 112.72849611 78.53046072 31.48223839
v 112.65209996 78.33265951 30.98608180
v 112.46535754 76.98639688 28.89847914
v 112.57287614 76.37886256 28.61451536
v 112.56297412 76.35867937 28.57394911
v 113.71314499 76.35867937 32.09697365
v 113.52781384 76.64932739 31.79740688
v 112.58560840 79.82828265 32.94886434
v 112.67332040 77.52328810 30.05305732
v 112.90816677 76.35867937 29.52569603
v 112.68039474 76.69978602 29.19180445
v 113.04398014 76.98437895 30.61786479
v 112.77235340 76.98639688 29.76285273
v 112.98456034 76.35867937 29.75661192
v 112.73132636 76.35867937 29.02329863
v 113.57874546 76.35867937 31.63514186
v 113.44859001 76.35867937 31.20139534
v 113.44010184 76.39904704 31.22011778
v 113.18686785 76.35867937 30.38070808
f 1 2 3
f 1 3 9
f 1 9 75
f 1 75 130
f 1 130 189
f 1 189 261
f 1 261 321
f 1 321 398
f 1 398 486
f 1 486 485
f 1 485 586
f 1 586 588
f 1 588 698
f 1 698 699
f 1 699 792
f 1 792 794
f 1 794 911
f 1 911 910
f 1 910 915
f 1 915 1011
f 1 1011 1096
f 1 1096 1164
f 1 1164 1211
f 1 1211 1214
f 1 1214 1213
f 1 1213 1259
f 1 1259 1257
f 1 1257 1292
f 1 1292 1302
f 1 1302 1297
f 1 1297 1301
f 1 1301 1306
f 1 1306 1304
f 1 1304 1303
f 1 1303 1293
f 1 1293 1264
f 1 1264 1263
f 1 1263 1224
f 1 1224 1223
f 1 1223 1222
f 1 1222 1173
f 1 1173 1172
f 1 1172 1114
f 1 1114 1035
f 1 1035 1032
f 1 1032 934
f 1 934 818
f 1 818 817
f 1 817 816
f 1 816 709
f 1 709 596
f 1 596 490
f 1 490 403
f 1 403 323
f 1 323 262
f 1 262 191
f 1 191 132
f 1 132 78
f 1 78 11
f 1 11 4
f 1 4 5
f 1 5 6
f 1 6 2
f 2 6 7
f 2 7 8
f 2 8 3
f 3 8 10
f 3 10 9
f 4 11 12
f 4 12 5
f 5 12 79
f 5 79 133
f 5 133 194
f 5 194 264
f 5 264 326
f 5 326 407
f 5 407 505
f 5 505 609
f 5 609 726
f 5 726 840
f 5 840 868
f 5 868 747
f 5 747 746
f 5 746 631
f 5 631 528
f 5 528 527
f 5 527 424
f 5 424 334
f 5 334 268
f 5 268 199
f 5 199 137
f 5 137 136
f 5 136 82
f 5 82 73
f 5 73 6
f 6 13 14
f 6 14 15
f 6 15 16
f 6 16 17
f 6 17 18
f 6 18 19
f 6 19 20
f 6 20 21
f 6 21 22
f 6 22 23
f 6 23 24
f 6 24 25
f 6 25 26
f 6 26 27
f 6 27 28
f 6 28 29
f 6 29 30
f 6 30 31
f 6 31 32
f 6 32 33
f 6 33 34
f 6 34 35
f 6 35 36
f 6 36 37
f 6 37 38
f 6 38 39
f 6 39 40
f 6 40 41
f 6 41 42
f 6 42 43
f 6 43 44
f 6 44 45
f 6 45 46
f 6 46 47
f 6 47 48
f 6 48 49
f 6 49 50
f 6 50 51
f 6 51 52
f 6 52 53
f 6 53 54
f 6 54 55
f 6 55 56
f 6 56 57
f 6 57 58
f 6 58 59
f 6 59 60
f 6 60 61
f 6 61 62
f 6 62 63
f 6 63 64
f 6 64 65
f 6 65 66
f 6 66 67
f 6 67 68
f 6 68 69
f 6 69 70
f 6 70 71
f 6 71 72
f 6 72 7
f 6 73 13
f 7 72 74
f 7 74 8
f 8 74 10
f 9 10 75
f 10 74 76
f 10 76 77
f 10 77 75
f 11 78 12
f 12 78 79
f 13 80 81
f 13 81 14
f 13 73 82
f 13 82 83
f 13 83 80
f 14 81 15
f 15 81 84
f 15 84 16
f 16 85 17
f 16 84 85
f 17 85 18
f 18 85 84
f 18 84 19
f 19 86 20
f 19 84 87
f 19 87 86
f 20 86 21
f 21 86 22
f 22 88 89
f 22 89 23
f 22 86 88
f 23 89 24
f 24 90 25
f 24 89 90
f 25 90 91
f 25 91 26
f 26 91 27
f 27 91 28
f 28 91 29
f 29 92 30
f 29 91 93
f 29 93 94
f 29 94 92
f 30 92 95
f 30 95 31
f 31 95 32
f 32 95 33
f 33 95 96
f 33 96 97
f 33 97 34
f 34 98 35
f 34 97 98
f 35 98 36
f 36 98 99
f 36 99 100
f 36 100 37
f 37 100 38
f 38 100 101
f 38 101 39
f 39 102 40
f 39 101 102
f 40 102 41
f 41 102 103
f 41 103 42
f 42 103 104
f 42 104 43
f 43 105 44
f 43 104 105
f 44 106 45
f 44 105 106
f 45 106 107
f 45 107 46
f 46 107 108
f 46 108 47
f 47 108 48
f 48 108 49
f 49 108 109
f 49 109 110
f 49 110 50
f 50 111 51
f 50 110 111
f 51 111 112
f 51 112 52
f 52 112 53
f 53 112 113
f 53 113 54
f 54 113 114
f 54 114 55
f 55 114 115
f 55 115 56
f 56 115 114
f 56 114 57
f 57 114 58
f 58 114 59
f 59 116 117
f 59 117 60
f 59 114 118
f 59 118 119
f 59 119 116
f 60 117 61
f 61 117 62
f 62 117 120
f 62 120 121
f 62 121 63
f 63 121 64
f 64 121 65
f 65 121 122
f 65 122 123
f 65 123 66
f 66 123 124
f 66 124 67
f 67 124 68
f 68 124 125
f 68 125 126
f 68 126 74
f 68 74 69
f 69 74 70
f 70 74 71
f 71 74 72
f 74 126 127
f 74 127 128
f 74 128 129
f 74 129 76
f 75 77 130
f 76 131 77
f 76 129 131
f 77 131 130
f 78 132 79
f 79 132 133
f 80 134 135
f 80 135 81
f 80 83 134
f 81 135 84
f 82 136 83
f 83 136 137
f 83 137 138
f 83 138 139
f 83 139 135
f 83 135 134
f 84 135 140
f 84 140 141
f 84 141 142
f 84 142 143
f 84 143 144
f 84 144 87
f 86 145 89
f 86 89 88
f 86 87 145
f 87 144 145
f 89 146 147
f 89 147 90
f 89 145 148
f 89 148 146
f 90 147 91
f 91 147 149
f 91 149 150
f 91 150 151
f 91 151 94
f 91 94 93
f 92 94 151
f 92 151 152
f 92 152 153
f 92 153 95
f 95 154 96
f 95 153 154
f 96 154 98
f 96 98 97
f 98 154 155
f 98 155 156
f 98 156 157
f 98 157 99
f 99 157 158
f 99 158 100
f 100 158 101
f 101 158 159
f 101 159 160
f 101 160 102
f 102 161 103
f 102 160 161
f 103 161 104
f 104 161 162
f 104 162 105
f 105 162 106
f 106 162 163
f 106 163 164
f 106 164 165
f 106 165 108
f 106 108 107
f 108 165 164
f 108 164 166
f 108 166 167
f 108 167 168
f 108 168 169
f 108 169 110
f 108 110 109
f 110 169 111
f 111 170 171
f 111 171 172
f 111 172 173
f 111 173 114
f 111 114 113
f 111 113 112
f 111 169 168
f 111 168 167
f 111 167 170
f 114 173 172
f 114 172 174
f 114 174 175
f 114 175 176
f 114 176 119
f 114 119 118
f 116 177 117
f 116 119 178
f 116 178 179
f 116 179 177
f 117 180 120
f 117 177 180
f 119 176 178
f 120 180 121
f 121 180 181
f 121 181 182
f 121 182 122
f 122 182 123
f 123 182 183
f 123 183 124
f 124 183 184
f 124 184 127
f 124 127 125
f 125 127 126
f 127 184 128
f 128 184 185
f 128 185 129
f 129 185 186
f 129 186 190
f 129 190 131
f 130 187 188
f 130 188 189
f 130 131 187
f 131 190 187
f 132 191 192
f 132 192 193
f 132 193 133
f 133 193 194
f 135 195 196
f 135 196 140
f 135 139 197
f 135 197 198
f 135 198 195
f 137 199 200
f 137 200 201
f 137 201 138
f 138 202 203
f 138 203 139
f 138 201 200
f 138 200 202
f 139 203 197
f 140 204 205
f 140 205 141
f 140 196 204
f 141 205 206
f 141 206 142
f 142 207 208
f 142 208 143
f 142 206 207
f 143 208 144
f 144 208 146
f 144 146 148
f 144 148 145
f 146 209 210
f 146 210 149
f 146 149 147
f 146 208 211
f 146 211 212
f 146 212 213
f 146 213 214
f 146 214 209
f 149 210 215
f 149 215 150
f 150 216 152
f 150 152 151
f 150 215 216
f 152 217 218
f 152 218 154
f 152 154 153
f 152 216 219
f 152 219 220
f 152 220 217
f 154 218 221
f 154 221 222
f 154 222 155
f 155 222 156
f 156 222 223
f 156 223 224
f 156 224 159
f 156 159 157
f 157 159 158
f 159 224 160
f 160 224 225
f 160 225 226
f 160 226 161
f 161 226 162
f 162 227 228
f 162 228 229
f 162 229 164
f 162 164 163
f 162 226 230
f 162 230 227
f 164 229 231
f 164 231 232
f 164 232 233
f 164 233 234
f 164 234 235
f 164 235 236
f 164 236 237
f 164 237 238
f 164 238 167
f 164 167 166
f 167 238 237
f 167 237 239
f 167 239 170
f 170 239 237
f 170 237 240
f 170 240 171
f 171 240 172
f 172 240 241
f 172 241 242
f 172 242 243
f 172 243 244
f 172 244 245
f 172 245 174
f 174 245 175
f 175 246 176
f 175 245 247
f 175 247 246
f 176 246 178
f 177 179 248
f 177 248 249
f 177 249 250
f 177 250 180
f 178 248 179
f 178 246 251
f 178 251 248
f 180 250 181
f 181 250 252
f 181 252 182
f 182 252 253
f 182 253 184
f 182 184 183
f 184 253 254
f 184 254 255
f 184 255 185
f 185 255 256
f 185 256 186
f 186 256 257
f 186 257 258
f 186 258 259
f 186 259 190
f 187 190 188
f 188 190 259
f 188 259 260
f 188 260 261
f 188 261 189
f 191 262 322
f 191 322 263
f 191 263 324
f 191 324 404
f 191 404 494
f 191 494 410
f 191 410 327
f 191 327 264
f 191 264 194
f 191 194 193
f 191 193 192
f 195 198 265
f 195 265 196
f 196 266 204
f 196 265 267
f 196 267 266
f 197 203 198
f 198 203 202
f 198 202 267
f 198 267 265
f 199 268 200
f 200 268 269
f 200 269 270
f 200 270 271
f 200 271 202
f 202 271 272
f 202 272 267
f 204 266 205
f 205 273 274
f 205 274 275
f 205 275 206
f 205 266 267
f 205 267 273
f 206 275 276
f 206 276 277
f 206 277 212
f 206 212 207
f 207 212 211
f 207 211 208
f 209 278 279
f 209 279 210
f 209 214 278
f 210 279 280
f 210 280 215
f 212 277 214
f 212 214 213
f 214 277 276
f 214 276 281
f 214 281 282
f 214 282 278
f 215 280 283
f 215 283 216
f 216 283 219
f 217 284 285
f 217 285 286
f 217 286 221
f 217 221 218
f 217 220 287
f 217 287 288
f 217 288 284
f 219 283 280
f 219 280 289
f 219 289 290
f 219 290 220
f 220 290 287
f 221 291 292
f 221 292 222
f 221 286 291
f 222 292 223
f 223 292 224
f 224 292 293
f 224 293 225
f 225 293 294
f 225 294 295
f 225 295 296
f 225 296 226
f 226 297 230
f 226 296 297
f 227 231 228
f 227 230 297
f 227 297 298
f 227 298 231
f 228 231 229
f 231 298 299
f 231 299 300
f 231 300 232
f 232 300 233
f 233 301 234
f 233 300 302
f 233 302 301
f 234 301 235
f 235 301 303
f 235 303 236
f 236 304 237
f 236 303 304
f 237 241 240
f 237 304 241
f 241 304 305
f 241 305 306
f 241 306 242
f 242 306 307
f 242 307 244
f 242 244 243
f 244 307 308
f 244 308 245
f 245 308 247
f 246 309 251
f 246 247 308
f 246 308 310
f 246 310 309
f 248 250 249
f 248 251 309
f 248 309 250
f 250 309 252
f 252 309 311
f 252 311 312
f 252 312 253
f 253 312 254
f 254 313 258
f 254 258 314
f 254 314 255
f 254 312 315
f 254 315 316
f 254 316 317
f 254 317 313
f 255 314 258
f 255 258 257
f 255 257 256
f 258 318 319
f 258 319 260
f 258 260 259
f 258 313 317
f 258 317 320
f 258 320 318
f 260 319 321
f 260 321 261
f 262 323 322
f 263 322 325
f 263 325 324
f 264 327 326
f 267 272 328
f 267 328 329
f 267 329 330
f 267 330 331
f 267 331 332
f 267 332 333
f 267 333 273
f 268 334 335
f 268 335 269
f 269 335 336
f 269 336 270
f 270 337 271
f 270 336 337
f 271 337 338
f 271 338 328
f 271 328 272
f 273 333 274
f 274 339 275
f 274 333 332
f 274 332 339
f 275 340 276
f 275 339 340
f 276 341 342
f 276 342 343
f 276 343 281
f 276 340 344
f 276 344 345
f 276 345 341
f 278 282 343
f 278 343 346
f 278 346 347
f 278 347 348
f 278 348 289
f 278 289 279
f 279 289 280
f 281 343 282
f 284 288 285
f 285 288 290
f 285 290 349
f 285 349 350
f 285 350 351
f 285 351 352
f 285 352 291
f 285 291 286
f 287 290 288
f 289 348 290
f 290 348 353
f 290 353 354
f 290 354 355
f 290 355 349
f 291 294 292
f 291 352 294
f 292 356 293
f 292 294 356
f 293 356 294
f 294 352 357
f 294 357 358
f 294 358 359
f 294 359 360
f 294 360 361
f 294 361 295
f 295 362 296
f 295 361 362
f 296 362 363
f 296 363 299
f 296 299 297
f 297 299 298
f 299 363 360
f 299 360 364
f 299 364 365
f 299 365 366
f 299 366 367
f 299 367 368
f 299 368 300
f 300 368 302
f 301 302 303
f 302 368 369
f 302 369 370
f 302 370 371
f 302 371 303
f 303 371 370
f 303 370 372
f 303 372 373
f 303 373 304
f 304 373 305
f 305 374 375
f 305 375 376
f 305 376 306
f 305 373 377
f 305 377 374
f 306 378 308
f 306 308 307
f 306 376 378
f 308 379 310
f 308 378 380
f 308 380 381
f 308 381 379
f 309 310 379
f 309 379 382
f 309 382 383
f 309 383 311
f 311 384 385
f 311 385 312
f 311 383 384
f 312 385 386
f 312 386 387
f 312 387 315
f 315 386 320
f 315 320 316
f 315 387 386
f 316 320 317
f 318 388 319
f 318 320 389
f 318 389 390
f 318 390 391
f 318 391 388
f 319 388 321
f 320 391 389
f 320 386 392
f 320 392 393
f 320 393 394
f 320 394 395
f 320 395 396
f 320 396 391
f 321 388 397
f 321 397 398
f 322 323 399
f 322 399 400
f 322 400 325
f 323 401 402
f 323 402 399
f 323 403 401
f 324 325 404
f 325 400 405
f 325 405 406
f 325 406 404
f 326 327 408
f 326 408 409
f 326 409 407
f 327 410 411
f 327 411 412
f 327 412 408
f 328 338 413
f 328 413 414
f 328 414 416
f 328 416 329
f 329 415 330
f 329 416 415
f 330 417 418
f 330 418 419
f 330 419 420
f 330 420 421
f 330 421 331
f 330 415 422
f 330 422 417
f 331 421 332
f 332 421 423
f 332 423 339
f 334 424 425
f 334 425 426
f 334 426 335
f 335 426 427
f 335 427 428
f 335 428 336
f 336 429 337
f 336 428 429
f 337 429 338
f 338 429 430
f 338 430 413
f 339 423 340
f 340 423 421
f 340 421 420
f 340 420 431
f 340 431 344
f 341 345 432
f 341 432 433
f 341 433 342
f 342 433 343
f 343 433 434
f 343 434 346
f 344 435 345
f 344 431 436
f 344 436 437
f 344 437 435
f 345 435 432
f 346 434 347
f 347 438 439
f 347 439 353
f 347 353 348
f 347 434 440
f 347 440 441
f 347 441 442
f 347 442 438
f 349 355 350
f 350 355 351
f 351 355 443
f 351 443 444
f 351 444 445
f 351 445 446
f 351 446 447
f 351 447 448
f 351 448 449
f 351 449 450
f 351 450 451
f 351 451 357
f 351 357 352
f 353 439 444
f 353 444 354
f 354 444 452
f 354 452 355
f 355 452 443
f 357 451 450
f 357 450 358
f 358 450 365
f 358 365 453
f 358 453 359
f 359 453 364
f 359 364 360
f 360 363 362
f 360 362 361
f 364 453 454
f 364 454 365
f 365 454 453
f 365 450 455
f 365 455 367
f 365 367 366
f 367 455 456
f 367 456 457
f 367 457 458
f 367 458 459
f 367 459 460
f 367 460 369
f 367 369 368
f 369 460 370
f 370 461 462
f 370 462 372
f 370 460 463
f 370 463 461
f 372 464 373
f 372 462 464
f 373 465 377
f 373 464 466
f 373 466 465
f 374 377 467
f 374 467 375
f 375 468 469
f 375 469 380
f 375 380 376
f 375 467 470
f 375 470 471
f 375 471 468
f 376 380 378
f 377 465 467
f 379 472 473
f 379 473 382
f 379 381 380
f 379 380 474
f 379 474 469
f 379 469 468
f 379 468 475
f 379 475 476
f 379 476 472
f 380 469 474
f 382 386 383
f 382 473 477
f 382 477 386
f 383 386 384
f 384 386 385
f 386 477 392
f 388 391 397
f 389 391 390
f 391 396 478
f 391 478 479
f 391 479 397
f 392 477 472
f 392 472 393
f 393 472 480
f 393 480 394
f 394 481 482
f 394 482 395
f 394 480 483
f 394 483 481
f 395 482 478
f 395 478 396
f 397 479 484
f 397 484 485
f 397 485 486
f 397 486 398
f 399 402 401
f 399 401 487
f 399 487 400
f 400 487 405
f 401 488 489
f 401 489 487
f 401 403 488
f 403 490 491
f 403 491 492
f 403 492 493
f 403 493 488
f 404 406 495
f 404 495 496
f 404 496 497
f 404 497 494
f 405 487 498
f 405 498 499
f 405 499 500
f 405 500 501
f 405 501 502
f 405 502 495
f 405 495 406
f 407 503 504
f 407 504 505
f 407 409 503
f 408 412 506
f 408 506 507
f 408 507 508
f 408 508 409
f 409 508 503
f 410 494 411
f 411 494 509
f 411 509 506
f 411 506 412
f 413 430 510
f 413 510 511
f 413 511 414
f 414 511 512
f 414 512 416
f 415 416 513
f 415 513 514
f 415 514 515
f 415 515 516
f 415 516 422
f 416 512 617
f 416 617 513
f 417 517 518
f 417 518 418
f 417 422 516
f 417 516 519
f 417 519 520
f 417 520 517
f 418 518 521
f 418 521 522
f 418 522 523
f 418 523 524
f 418 524 525
f 418 525 419
f 419 525 420
f 420 525 526
f 420 526 431
f 424 527 425
f 425 527 528
f 425 528 529
f 425 529 530
f 425 530 427
f 425 427 426
f 427 530 531
f 427 531 532
f 427 532 428
f 428 533 429
f 428 532 533
f 429 533 430
f 430 533 534
f 430 534 615
f 430 615 510
f 431 526 436
f 432 535 536
f 432 536 433
f 432 435 535
f 433 536 434
f 434 536 535
f 434 535 440
f 435 437 436
f 435 436 525
f 435 525 537
f 435 537 524
f 435 524 523
f 435 523 522
f 435 522 538
f 435 538 539
f 435 539 540
f 435 540 541
f 435 541 535
f 436 526 525
f 438 442 542
f 438 542 543
f 438 543 544
f 438 544 545
f 438 545 444
f 438 444 546
f 438 546 439
f 439 546 444
f 440 547 542
f 440 542 441
f 440 535 541
f 440 541 547
f 441 542 442
f 443 452 444
f 444 545 548
f 444 548 446
f 444 446 445
f 446 549 550
f 446 550 447
f 446 548 549
f 447 550 449
f 447 449 448
f 449 550 551
f 449 551 552
f 449 552 450
f 450 552 553
f 450 553 554
f 450 554 455
f 455 555 456
f 455 554 553
f 455 553 556
f 455 556 555
f 456 555 557
f 456 557 458
f 456 458 457
f 458 557 558
f 458 558 459
f 459 559 461
f 459 461 463
f 459 463 460
f 459 558 560
f 459 560 561
f 459 561 562
f 459 562 559
f 461 563 564
f 461 564 464
f 461 464 462
f 461 559 563
f 464 564 466
f 465 466 565
f 465 565 470
f 465 470 467
f 466 564 565
f 468 471 566
f 468 566 475
f 470 567 568
f 470 568 569
f 470 569 570
f 470 570 471
f 470 565 563
f 470 563 567
f 471 570 566
f 472 571 572
f 472 572 480
f 472 477 473
f 472 476 475
f 472 475 573
f 472 573 566
f 472 566 574
f 472 574 571
f 475 566 573
f 478 482 575
f 478 575 576
f 478 576 577
f 478 577 578
f 478 578 484
f 478 484 479
f 480 572 579
f 480 579 483
f 481 483 580
f 481 580 482
f 482 580 575
f 483 581 582
f 483 582 583
f 483 583 584
f 483 584 585
f 483 585 580
f 483 579 581
f 484 586 485
f 484 578 587
f 484 587 588
f 484 588 586
f 487 489 498
f 488 589 489
f 488 493 590
f 488 590 591
f 488 591 592
f 488 592 593
f 488 593 594
f 488 594 589
f 489 589 595
f 489 595 498
f 490 596 597
f 490 597 491
f 491 597 492
f 492 598 590
f 492 590 493
f 492 597 599
f 492 599 598
f 494 497 509
f 495 502 600
f 495 600 496
f 496 600 601
f 496 601 602
f 496 602 603
f 496 603 497
f 497 603 604
f 497 604 509
f 498 595 499
f 499 595 500
f 500 595 589
f 500 589 605
f 500 605 501
f 501 605 502
f 502 601 600
f 502 605 606
f 502 606 601
f 503 508 607
f 503 607 504
f 504 607 608
f 504 608 505
f 505 608 610
f 505 610 609
f 506 611 612
f 506 612 613
f 506 613 507
f 506 509 604
f 506 604 603
f 506 603 611
f 507 613 508
f 508 613 614
f 508 614 607
f 510 615 616
f 510 616 511
f 511 616 618
f 511 618 512
f 512 618 619
f 512 619 617
f 513 617 514
f 514 617 620
f 514 620 515
f 515 621 516
f 515 620 622
f 515 622 623
f 515 623 621
f 516 621 624
f 516 624 519
f 517 520 625
f 517 625 626
f 517 626 627
f 517 627 538
f 517 538 628
f 517 628 521
f 517 521 518
f 519 624 629
f 519 629 630
f 519 630 626
f 519 626 625
f 519 625 520
f 521 628 522
f 522 628 538
f 524 537 525
f 528 631 529
f 529 631 632
f 529 632 530
f 530 632 633
f 530 633 531
f 531 633 532
f 532 634 533
f 532 633 635
f 532 635 636
f 532 636 637
f 532 637 638
f 532 638 639
f 532 639 634
f 533 634 640
f 533 640 534
f 534 640 615
f 538 627 539
f 539 641 642
f 539 642 540
f 539 627 641
f 540 642 643
f 540 643 644
f 540 644 645
f 540 645 646
f 540 646 541
f 541 646 547
f 542 547 543
f 543 647 544
f 543 547 648
f 543 648 647
f 544 647 648
f 544 648 649
f 544 649 650
f 544 650 651
f 544 651 652
f 544 652 653
f 544 653 548
f 544 548 545
f 547 646 654
f 547 654 655
f 547 655 648
f 548 656 657
f 548 657 549
f 548 653 652
f 548 652 656
f 549 658 550
f 549 657 658
f 550 659 551
f 550 658 659
f 551 660 553
f 551 553 552
f 551 659 661
f 551 661 662
f 551 662 663
f 551 663 660
f 553 664 665
f 553 665 556
f 553 660 666
f 553 666 664
f 555 556 558
f 555 558 557
f 556 665 667
f 556 667 558
f 558 667 560
f 559 668 563
f 559 562 668
f 560 667 669
f 560 669 664
f 560 664 670
f 560 670 671
f 560 671 672
f 560 672 673
f 560 673 561
f 561 673 562
f 562 673 672
f 562 672 674
f 562 674 675
f 562 675 676
f 562 676 677
f 562 677 668
f 563 668 678
f 563 678 567
f 563 565 564
f 566 570 679
f 566 679 574
f 567 678 568
f 568 680 681
f 568 681 569
f 568 678 668
f 568 668 677
f 568 677 676
f 568 676 680
f 569 681 682
f 569 682 570
f 570 683 679
f 570 682 684
f 570 684 685
f 570 685 683
f 571 686 572
f 571 574 686
f 572 686 581
f 572 581 579
f 574 679 683
f 574 683 581
f 574 581 686
f 575 580 585
f 575 585 576
f 576 585 687
f 576 687 577
f 577 687 688
f 577 688 689
f 577 689 690
f 577 690 691
f 577 691 578
f 578 691 587
f 581 683 582
f 582 683 583
f 583 692 689
f 583 689 693
f 583 693 584
f 583 683 694
f 583 694 695
f 583 695 696
f 583 696 697
f 583 697 692
f 584 693 687
f 584 687 585
f 587 698 588
f 587 691 690
f 587 690 699
f 587 699 698
f 589 700 701
f 589 701 702
f 589 702 605
f 589 594 700
f 590 598 591
f 591 598 703
f 591 703 704
f 591 704 592
f 592 704 593
f 593 704 705
f 593 705 594
f 594 705 706
f 594 706 707
f 594 707 708
f 594 708 700
f 596 709 710
f 596 710 597
f 597 710 599
f 598 599 703
f 599 711 703
f 599 710 712
f 599 712 713
f 599 713 711
f 601 606 714
f 601 714 715
f 601 715 602
f 602 715 716
f 602 716 603
f 603 716 611
f 605 717 606
f 605 702 717
f 606 717 718
f 606 718 714
f 607 614 613
f 607 613 719
f 607 719 720
f 607 720 721
f 607 721 722
f 607 722 723
f 607 723 608
f 608 723 724
f 608 724 610
f 609 725 726
f 609 610 725
f 610 724 727
f 610 727 725
f 611 716 612
f 612 716 728
f 612 728 729
f 612 729 730
f 612 730 613
f 613 730 719
f 615 640 616
f 616 640 618
f 617 619 620
f 618 640 731
f 618 731 619
f 619 731 732
f 619 732 620
f 620 732 622
f 621 623 733
f 621 733 624
f 622 732 734
f 622 734 623
f 623 734 735
f 623 735 736
f 623 736 733
f 624 733 629
f 626 737 738
f 626 738 627
f 626 630 737
f 627 738 739
f 627 739 641
f 629 733 740
f 629 740 630
f 630 740 741
f 630 741 742
f 630 742 743
f 630 743 744
f 630 744 745
f 630 745 737
f 631 746 632
f 632 746 747
f 632 747 748
f 632 748 633
f 633 748 635
f 634 639 640
f 635 748 749
f 635 749 750
f 635 750 636
f 636 750 751
f 636 751 752
f 636 752 637
f 637 753 754
f 637 754 755
f 637 755 638
f 637 752 756
f 637 756 757
f 637 757 758
f 637 758 753
f 638 755 639
f 639 755 640
f 640 755 731
f 641 759 643
f 641 643 642
f 641 739 759
f 643 759 644
f 644 760 648
f 644 648 655
f 644 655 645
f 644 759 761
f 644 761 762
f 644 762 760
f 645 655 654
f 645 654 646
f 648 760 763
f 648 763 649
f 649 763 764
f 649 764 650
f 650 764 651
f 651 764 765
f 651 765 652
f 652 766 656
f 652 765 767
f 652 767 766
f 656 766 768
f 656 768 769
f 656 769 661
f 656 661 659
f 656 659 770
f 656 770 657
f 657 770 658
f 658 770 659
f 660 663 666
f 661 769 662
f 662 769 771
f 662 771 663
f 663 772 666
f 663 771 773
f 663 773 772
f 664 666 772
f 664 772 774
f 664 774 775
f 664 775 776
f 664 776 670
f 664 669 665
f 665 669 667
f 670 776 671
f 671 777 778
f 671 778 672
f 671 776 775
f 671 775 779
f 671 779 777
f 672 778 675
f 672 675 674
f 675 778 780
f 675 780 676
f 676 780 781
f 676 781 782
f 676 782 783
f 676 783 784
f 676 784 785
f 676 785 682
f 676 682 680
f 680 682 681
f 682 786 684
f 682 785 786
f 683 685 787
f 683 787 695
f 683 695 694
f 684 786 685
f 685 786 788
f 685 788 787
f 687 693 688
f 688 693 689
f 689 692 789
f 689 789 790
f 689 790 791
f 689 791 690
f 690 792 699
f 690 791 793
f 690 793 794
f 690 794 792
f 692 697 789
f 695 787 788
f 695 788 795
f 695 795 796
f 695 796 797
f 695 797 696
f 696 797 798
f 696 798 799
f 696 799 697
f 697 799 789
f 700 708 800
f 700 800 801
f 700 801 802
f 700 802 803
f 700 803 804
f 700 804 805
f 700 805 806
f 700 806 807
f 700 807 701
f 701 807 702
f 702 808 717
f 702 807 805
f 702 805 809
f 702 809 810
f 702 810 811
f 702 811 808
f 703 711 704
f 704 711 812
f 704 812 705
f 705 812 813
f 705 813 814
f 705 814 815
f 705 815 706
f 706 815 707
f 707 815 708
f 708 815 800
f 709 816 710
f 710 816 817
f 710 817 818
f 710 818 819
f 710 819 712
f 711 713 812
f 712 819 820
f 712 820 821
f 712 821 822
f 712 822 713
f 713 822 823
f 713 823 824
f 713 824 812
f 714 718 825
f 714 825 715
f 715 825 716
f 716 825 728
f 717 808 826
f 717 826 827
f 717 827 828
f 717 828 829
f 717 829 718
f 718 829 830
f 718 830 831
f 718 831 832
f 718 832 833
f 718 833 825
f 719 730 834
f 719 834 758
f 719 758 757
f 719 757 835
f 719 835 836
f 719 836 720
f 720 836 721
f 721 836 722
f 722 836 723
f 723 836 757
f 723 757 837
f 723 837 838
f 723 838 724
f 724 838 727
f 725 727 839
f 725 839 726
f 726 839 840
f 727 838 841
f 727 841 839
f 728 825 729
f 729 842 843
f 729 843 844
f 729 844 845
f 729 845 730
f 729 825 842
f 730 845 846
f 730 846 834
f 731 847 735
f 731 735 734
f 731 734 732
f 731 755 848
f 731 848 849
f 731 849 850
f 731 850 847
f 733 736 851
f 733 851 740
f 735 847 736
f 736 847 852
f 736 852 853
f 736 853 959
f 736 959 851
f 737 854 855
f 737 855 738
f 737 745 854
f 738 856 857
f 738 857 739
f 738 855 858
f 738 858 859
f 738 859 856
f 739 857 759
f 740 851 741
f 741 851 860
f 741 860 742
f 742 860 743
f 743 860 861
f 743 861 862
f 743 862 863
f 743 863 864
f 743 864 865
f 743 865 744
f 744 866 745
f 744 865 866
f 745 866 867
f 745 867 854
f 747 868 748
f 748 868 840
f 748 840 839
f 748 839 749
f 749 752 751
f 749 751 750
f 749 839 841
f 749 841 837
f 749 837 869
f 749 869 756
f 749 756 752
f 753 870 754
f 753 758 871
f 753 871 870
f 754 872 848
f 754 848 755
f 754 870 872
f 756 869 837
f 756 837 757
f 757 836 835
f 758 834 871
f 759 857 859
f 759 859 761
f 760 873 874
f 760 874 763
f 760 762 873
f 761 859 875
f 761 875 762
f 762 875 876
f 762 876 877
f 762 877 878
f 762 878 879
f 762 879 880
f 762 880 873
f 763 874 765
f 763 765 764
f 765 874 767
f 766 767 881
f 766 881 768
f 767 882 881
f 767 874 883
f 767 883 884
f 767 884 882
f 768 885 886
f 768 886 887
f 768 887 888
f 768 888 889
f 768 889 769
f 768 881 890
f 768 890 891
f 768 891 885
f 769 889 771
f 771 889 773
f 772 773 888
f 772 888 774
f 773 889 888
f 774 888 892
f 774 892 775
f 775 893 894
f 775 894 779
f 775 892 895
f 775 895 896
f 775 896 893
f 777 779 780
f 777 780 778
f 779 894 897
f 779 897 780
f 780 897 898
f 780 898 781
f 781 898 899
f 781 899 900
f 781 900 901
f 781 901 902
f 781 902 782
f 782 902 783
f 783 903 798
f 783 798 904
f 783 904 795
f 783 795 784
f 783 902 905
f 783 905 906
f 783 906 903
f 784 795 788
f 784 788 785
f 785 788 786
f 789 799 907
f 789 907 790
f 790 907 908
f 790 908 791
f 791 909 793
f 791 908 909
f 793 910 911
f 793 911 794
f 793 909 912
f 793 912 913
f 793 913 914
f 793 914 915
f 793 915 910
f 795 904 797
f 795 797 796
f 797 904 798
f 798 907 799
f 798 903 916
f 798 916 917
f 798 917 918
f 798 918 919
f 798 919 907
f 800 815 920
f 800 920 921
f 800 921 922
f 800 922 801
f 801 803 923
f 801 923 802
f 801 922 924
f 801 924 803
f 802 923 803
f 803 924 925
f 803 925 804
f 804 925 805
f 805 807 806
f 805 925 926
f 805 926 809
f 808 811 927
f 808 927 928
f 808 928 826
f 809 929 810
f 809 926 930
f 809 930 931
f 809 931 929
f 810 929 811
f 811 929 932
f 811 932 927
f 812 824 813
f 813 824 933
f 813 933 814
f 814 933 920
f 814 920 815
f 818 934 935
f 818 935 820
f 818 820 819
f 820 936 821
f 820 935 936
f 821 936 822
f 822 936 937
f 822 937 938
f 822 938 823
f 823 939 933
f 823 933 824
f 823 938 939
f 825 833 940
f 825 940 941
f 825 941 842
f 826 928 927
f 826 927 942
f 826 942 827
f 827 942 828
f 828 942 927
f 828 927 943
f 828 943 829
f 829 943 944
f 829 944 945
f 829 945 946
f 829 946 830
f 830 946 947
f 830 947 831
f 831 947 948
f 831 948 949
f 831 949 832
f 832 949 950
f 832 950 833
f 833 950 951
f 833 951 843
f 833 843 940
f 834 846 871
f 837 841 838
f 842 941 952
f 842 952 843
f 843 952 940
f 843 951 953
f 843 953 954
f 843 954 844
f 844 955 845
f 844 954 956
f 844 956 978
f 844 978 955
f 845 955 846
f 846 955 957
f 846 957 871
f 847 850 852
f 848 872 958
f 848 958 954
f 848 954 849
f 849 852 850
f 849 954 853
f 849 853 852
f 851 959 960
f 851 960 860
f 853 954 961
f 853 961 959
f 854 962 963
f 854 963 855
f 854 867 962
f 855 963 858
f 856 859 857
f 858 963 964
f 858 964 965
f 858 965 859
f 859 965 875
f 860 960 966
f 860 966 861
f 861 966 967
f 861 967 862
f 862 967 968
f 862 968 863
f 863 968 969
f 863 969 864
f 864 969 970
f 864 970 971
f 864 971 972
f 864 972 973
f 864 973 865
f 865 973 974
f 865 974 866
f 866 974 867
f 867 974 973
f 867 973 975
f 867 975 976
f 867 976 977
f 867 977 963
f 867 963 962
f 870 978 958
f 870 958 872
f 870 871 957
f 870 957 978
f 873 880 979
f 873 979 874
f 874 979 883
f 875 965 964
f 875 964 876
f 876 980 981
f 876 981 877
f 876 964 980
f 877 982 878
f 877 981 983
f 877 983 984
f 877 984 982
f 878 985 986
f 878 986 879
f 878 982 987
f 878 987 988
f 878 988 985
f 879 986 884
f 879 884 880
f 880 884 979
f 881 882 989
f 881 989 990
f 881 990 991
f 881 991 890
f 882 884 986
f 882 986 989
f 883 979 884
f 885 891 992
f 885 992 993
f 885 993 994
f 885 994 892
f 885 892 995
f 885 995 886
f 886 995 887
f 887 995 888
f 888 995 892
f 890 991 891
f 891 991 996
f 891 996 997
f 891 997 998
f 891 998 992
f 892 994 999
f 892 999 1000
f 892 1000 895
f 893 896 1001
f 893 1001 900
f 893 900 899
f 893 899 894
f 894 899 897
f 895 1000 896
f 896 1000 1002
f 896 1002 1003
f 896 1003 1004
f 896 1004 1001
f 897 899 898
f 900 1001 1005
f 900 1005 1006
f 900 1006 901
f 901 1007 906
f 901 906 905
f 901 905 902
f 901 1006 1007
f 903 906 916
f 906 1007 916
f 907 919 1008
f 907 1008 914
f 907 914 913
f 907 913 1009
f 907 1009 908
f 908 1009 913
f 908 913 912
f 908 912 909
f 914 1008 1010
f 914 1010 1011
f 914 1011 915
f 916 1007 1012
f 916 1012 1013
f 916 1013 1014
f 916 1014 917
f 917 1014 1015
f 917 1015 918
f 918 1015 1016
f 918 1016 919
f 919 1017 1010
f 919 1010 1008
f 919 1016 1017
f 920 933 939
f 920 939 1018
f 920 1018 1019
f 920 1019 921
f 921 1019 1020
f 921 1020 922
f 922 1020 1021
f 922 1021 924
f 924 1021 1022
f 924 1022 925
f 925 1022 1023
f 925 1023 926
f 926 1023 1024
f 926 1024 1025
f 926 1025 1026
f 926 1026 930
f 927 1027 943
f 927 932 1028
f 927 1028 1027
f 929 931 1029
f 929 1029 1030
f 929 1030 932
f 930 1026 1031
f 930 1031 931
f 931 1031 1029
f 932 1030 1028
f 934 1032 935
f 935 1033 1034
f 935 1034 936
f 935 1032 1035
f 935 1035 1036
f 935 1036 1037
f 935 1037 1033
f 936 1034 1038
f 936 1038 937
f 937 1038 1039
f 937 1039 938
f 938 1040 939
f 938 1039 1041
f 938 1041 1040
f 939 1040 1018
f 940 952 941
f 943 1027 1042
f 943 1042 944
f 944 1042 1043
f 944 1043 945
f 945 1043 1044
f 945 1044 1045
f 945 1045 946
f 946 1045 1046
f 946 1046 1047
f 946 1047 948
f 946 948 947
f 948 1047 949
f 949 1047 1048
f 949 1048 950
f 950 1048 951
f 951 1048 1049
f 951 1049 953
f 953 1049 1131
f 953 1131 1050
f 953 1050 954
f 954 1050 1051
f 954 1051 961
f 954 958 956
f 955 978 957
f 956 958 978
f 959 961 1052
f 959 1052 1053
f 959 1053 960
f 960 1053 1054
f 960 1054 966
f 961 1051 1052
f 963 977 1055
f 963 1055 964
f 964 1055 980
f 966 1054 1056
f 966 1056 967
f 967 1056 968
f 968 1056 1057
f 968 1057 1058
f 968 1058 969
f 969 1058 1059
f 969 1059 1028
f 969 1028 1060
f 969 1060 1061
f 969 1061 1062
f 969 1062 1063
f 969 1063 970
f 970 1063 971
f 971 1064 976
f 971 976 975
f 971 975 972
f 971 1063 1065
f 971 1065 1064
f 972 975 973
f 976 1064 1066
f 976 1066 977
f 977 1067 1055
f 977 1066 1067
f 980 983 981
f 980 1055 984
f 980 984 983
f 982 984 1068
f 982 1068 1069
f 982 1069 987
f 984 1055 1068
f 985 1070 1071
f 985 1071 986
f 985 988 1070
f 986 1071 989
f 987 1069 1072
f 987 1072 1073
f 987 1073 988
f 988 1073 1074
f 988 1074 1075
f 988 1075 1076
f 988 1076 1077
f 988 1077 1078
f 988 1078 1079
f 988 1079 1070
f 989 1071 1080
f 989 1080 990
f 990 1080 991
f 991 1080 996
f 992 998 1081
f 992 1081 993
f 993 1081 1003
f 993 1003 1082
f 993 1082 994
f 994 1082 999
f 996 1080 1071
f 996 1071 1083
f 996 1083 997
f 997 1084 998
f 997 1083 1085
f 997 1085 1084
f 998 1086 1087
f 998 1087 1081
f 998 1084 1088
f 998 1088 1089
f 998 1089 1090
f 998 1090 1086
f 999 1082 1000
f 1000 1082 1002
f 1001 1004 1091
f 1001 1091 1005
f 1002 1082 1003
f 1003 1092 1004
f 1003 1081 1087
f 1003 1087 1092
f 1004 1092 1091
f 1005 1093 1006
f 1005 1091 1094
f 1005 1094 1093
f 1006 1093 1013
f 1006 1013 1012
f 1006 1012 1007
f 1010 1017 1095
f 1010 1095 1096
f 1010 1096 1011
f 1013 1093 1097
f 1013 1097 1014
f 1014 1097 1098
f 1014 1098 1015
f 1015 1098 1099
f 1015 1099 1016
f 1016 1099 1100
f 1016 1100 1017
f 1017 1100 1095
f 1018 1040 1101
f 1018 1101 1019
f 1019 1101 1102
f 1019 1102 1020
f 1020 1102 1103
f 1020 1103 1021
f 1021 1103 1022
f 1022 1103 1104
f 1022 1104 1023
f 1023 1104 1105
f 1023 1105 1106
f 1023 1106 1024
f 1024 1106 1025
f 1025 1062 1107
f 1025 1107 1026
f 1025 1106 1108
f 1025 1108 1109
f 1025 1109 1062
f 1026 1107 1030
f 1026 1030 1031
f 1027 1028 1110
f 1027 1110 1042
f 1028 1030 1107
f 1028 1107 1111
f 1028 1111 1062
f 1028 1062 1060
f 1028 1059 1112
f 1028 1112 1110
f 1029 1031 1030
f 1033 1113 1034
f 1033 1037 1113
f 1034 1113 1038
f 1035 1114 1115
f 1035 1115 1036
f 1036 1115 1116
f 1036 1116 1117
f 1036 1117 1118
f 1036 1118 1119
f 1036 1119 1037
f 1037 1119 1113
f 1038 1113 1119
f 1038 1119 1120
f 1038 1120 1121
f 1038 1121 1039
f 1039 1121 1122
f 1039 1122 1041
f 1040 1041 1101
f 1041 1122 1123
f 1041 1123 1124
f 1041 1124 1125
f 1041 1125 1101
f 1042 1110 1126
f 1042 1126 1127
f 1042 1127 1043
f 1043 1127 1044
f 1044 1127 1128
f 1044 1128 1057
f 1044 1057 1045
f 1045 1057 1056
f 1045 1056 1054
f 1045 1054 1046
f 1046 1129 1130
f 1046 1130 1047
f 1046 1054 1053
f 1046 1053 1129
f 1047 1130 1048
f 1048 1130 1049
f 1049 1130 1131
f 1050 1131 1051
f 1051 1131 1129
f 1051 1129 1052
f 1052 1129 1053
f 1055 1067 1132
f 1055 1132 1133
f 1055 1133 1134
f 1055 1134 1072
f 1055 1072 1068
f 1057 1128 1058
f 1058 1128 1059
f 1059 1128 1112
f 1060 1062 1061
f 1062 1109 1063
f 1062 1111 1107
f 1063 1109 1065
f 1064 1065 1109
f 1064 1109 1135
f 1064 1135 1136
f 1064 1136 1137
f 1064 1137 1066
f 1066 1137 1138
f 1066 1138 1067
f 1067 1138 1132
f 1068 1072 1069
f 1070 1079 1085
f 1070 1085 1083
f 1070 1083 1071
f 1072 1139 1073
f 1072 1134 1139
f 1073 1139 1140
f 1073 1140 1141
f 1073 1141 1075
f 1073 1075 1074
f 1075 1141 1142
f 1075 1142 1077
f 1075 1077 1076
f 1077 1143 1078
f 1077 1142 1143
f 1078 1144 1145
f 1078 1145 1146
f 1078 1146 1079
f 1078 1143 1144
f 1079 1146 1085
f 1084 1085 1146
f 1084 1146 1145
f 1084 1145 1088
f 1086 1090 1147
f 1086 1147 1148
f 1086 1148 1149
f 1086 1149 1150
f 1086 1150 1151
f 1086 1151 1087
f 1087 1151 1092
f 1088 1145 1089
f 1089 1152 1090
f 1089 1145 1144
f 1089 1144 1153
f 1089 1153 1152
f 1090 1152 1147
f 1091 1092 1154
f 1091 1154 1150
f 1091 1150 1155
f 1091 1155 1156
f 1091 1156 1157
f 1091 1157 1094
f 1092 1151 1154
f 1093 1094 1158
f 1093 1158 1159
f 1093 1159 1097
f 1094 1157 1160
f 1094 1160 1158
f 1095 1100 1161
f 1095 1161 1162
f 1095 1162 1163
f 1095 1163 1096
f 1096 1163 1164
f 1097 1159 1099
f 1097 1099 1098
f 1099 1165 1162
f 1099 1162 1161
f 1099 1161 1100
f 1099 1159 1160
f 1099 1160 1166
f 1099 1166 1165
f 1101 1125 1102
f 1102 1125 1103
f 1103 1125 1167
f 1103 1167 1168
f 1103 1168 1104
f 1104 1168 1169
f 1104 1169 1105
f 1105 1169 1106
f 1106 1169 1108
f 1108 1169 1170
f 1108 1170 1171
f 1108 1171 1136
f 1108 1136 1135
f 1108 1135 1109
f 1110 1112 1126
f 1112 1128 1127
f 1112 1127 1126
f 1114 1172 1115
f 1115 1172 1116
f 1116 1173 1117
f 1116 1172 1173
f 1117 1173 1174
f 1117 1174 1175
f 1117 1175 1118
f 1118 1175 1176
f 1118 1176 1177
f 1118 1177 1178
f 1118 1178 1179
f 1118 1179 1119
f 1119 1179 1120
f 1120 1179 1121
f 1121 1180 1122
f 1121 1179 1181
f 1121 1181 1182
f 1121 1182 1180
f 1122 1180 1182
f 1122 1182 1183
f 1122 1183 1123
f 1123 1183 1184
f 1123 1184 1185
f 1123 1185 1124
f 1124 1185 1125
f 1125 1185 1167
f 1129 1131 1130
f 1132 1138 1186
f 1132 1186 1187
f 1132 1187 1188
f 1132 1188 1134
f 1132 1134 1133
f 1134 1188 1139
f 1136 1171 1189
f 1136 1189 1190
f 1136 1190 1191
f 1136 1191 1137
f 1137 1191 1190
f 1137 1190 1138
f 1138 1190 1186
f 1139 1188 1140
f 1140 1188 1187
f 1140 1187 1141
f 1141 1187 1192
f 1141 1192 1193
f 1141 1193 1194
f 1141 1194 1142
f 1142 1195 1143
f 1142 1194 1195
f 1143 1195 1196
f 1143 1196 1197
f 1143 1197 1198
f 1143 1198 1144
f 1144 1198 1153
f 1147 1152 1148
f 1148 1199 1200
f 1148 1200 1149
f 1148 1152 1153
f 1148 1153 1201
f 1148 1201 1202
f 1148 1202 1199
f 1149 1200 1155
f 1149 1155 1150
f 1150 1154 1151
f 1153 1198 1203
f 1153 1203 1204
f 1153 1204 1201
f 1155 1200 1205
f 1155 1205 1156
f 1156 1205 1157
f 1157 1205 1206
f 1157 1206 1160
f 1158 1160 1159
f 1160 1206 1207
f 1160 1207 1208
f 1160 1208 1209
f 1160 1209 1166
f 1162 1165 1163
f 1163 1165 1210
f 1163 1210 1211
f 1163 1211 1164
f 1165 1166 1212
f 1165 1212 1213
f 1165 1213 1214
f 1165 1214 1210
f 1166 1209 1215
f 1166 1215 1213
f 1166 1213 1212
f 1167 1185 1216
f 1167 1216 1217
f 1167 1217 1218
f 1167 1218 1168
f 1168 1218 1219
f 1168 1219 1220
f 1168 1220 1169
f 1169 1220 1170
f 1170 1220 1171
f 1171 1220 1219
f 1171 1219 1221
f 1171 1221 1189
f 1173 1222 1174
f 1174 1222 1223
f 1174 1223 1175
f 1175 1223 1224
f 1175 1224 1225
f 1175 1225 1176
f 1176 1225 1226
f 1176 1226 1227
f 1176 1227 1177
f 1177 1228 1229
f 1177 1229 1178
f 1177 1227 1230
f 1177 1230 1231
f 1177 1231 1232
f 1177 1232 1228
f 1178 1229 1233
f 1178 1233 1179
f 1179 1233 1181
f 1181 1233 1234
f 1181 1234 1182
f 1182 1234 1235
f 1182 1235 1183
f 1183 1235 1236
f 1183 1236 1184
f 1184 1216 1185
f 1184 1236 1216
f 1186 1190 1187
f 1187 1190 1192
f 1189 1221 1190
f 1190 1221 1192
f 1192 1221 1237
f 1192 1237 1193
f 1193 1237 1238
f 1193 1238 1239
f 1193 1239 1194
f 1194 1239 1240
f 1194 1240 1241
f 1194 1241 1196
f 1194 1196 1195
f 1196 1241 1197
f 1197 1241 1240
f 1197 1240 1242
f 1197 1242 1243
f 1197 1243 1244
f 1197 1244 1245
f 1197 1245 1198
f 1198 1245 1246
f 1198 1246 1247
f 1198 1247 1203
f 1199 1248 1200
f 1199 1202 1249
f 1199 1249 1248
f 1200 1250 1251
f 1200 1251 1206
f 1200 1206 1205
f 1200 1248 1250
f 1201 1204 1252
f 1201 1252 1202
f 1202 1252 1249
f 1203 1252 1204
f 1203 1247 1253
f 1203 1253 1249
f 1203 1249 1252
f 1206 1251 1207
f 1207 1251 1250
f 1207 1250 1254
f 1207 1254 1255
f 1207 1255 1256
f 1207 1256 1208
f 1208 1256 1209
f 1209 1257 1215
f 1209 1256 1258
f 1209 1258 1257
f 1210 1214 1211
f 1213 1215 1259
f 1215 1257 1259
f 1216 1236 1235
f 1216 1235 1260
f 1216 1260 1217
f 1217 1260 1261
f 1217 1261 1262
f 1217 1262 1218
f 1218 1262 1237
f 1218 1237 1219
f 1219 1237 1221
f 1224 1263 1225
f 1225 1263 1264
f 1225 1264 1265
f 1225 1265 1266
f 1225 1266 1267
f 1225 1267 1226
f 1226 1268 1227
f 1226 1267 1269
f 1226 1269 1268
f 1227 1268 1270
f 1227 1270 1230
f 1228 1232 1271
f 1228 1271 1244
f 1228 1244 1272
f 1228 1272 1233
f 1228 1233 1229
f 1230 1270 1273
f 1230 1273 1249
f 1230 1249 1274
f 1230 1274 1231
f 1231 1275 1232
f 1231 1274 1275
f 1232 1275 1271
f 1233 1272 1235
f 1233 1235 1234
f 1235 1272 1244
f 1235 1244 1276
f 1235 1276 1277
f 1235 1277 1238
f 1235 1238 1261
f 1235 1261 1260
f 1237 1262 1238
f 1238 1277 1239
f 1238 1262 1261
f 1239 1244 1242
f 1239 1242 1240
f 1239 1277 1276
f 1239 1276 1244
f 1242 1244 1243
f 1244 1271 1245
f 1245 1271 1275
f 1245 1275 1278
f 1245 1278 1246
f 1246 1279 1247
f 1246 1278 1279
f 1247 1279 1253
f 1248 1249 1280
f 1248 1280 1281
f 1248 1281 1282
f 1248 1282 1283
f 1248 1283 1284
f 1248 1284 1255
f 1248 1255 1254
f 1248 1254 1250
f 1249 1253 1279
f 1249 1279 1274
f 1249 1273 1285
f 1249 1285 1286
f 1249 1286 1287
f 1249 1287 1288
f 1249 1288 1289
f 1249 1289 1280
f 1255 1284 1290
f 1255 1290 1256
f 1256 1290 1258
f 1257 1258 1291
f 1257 1291 1292
f 1258 1290 1291
f 1264 1293 1265
f 1265 1293 1294
f 1265 1294 1286
f 1265 1286 1266
f 1266 1286 1285
f 1266 1285 1273
f 1266 1273 1270
f 1266 1270 1269
f 1266 1269 1267
f 1268 1269 1270
f 1274 1279 1295
f 1274 1295 1275
f 1275 1295 1279
f 1275 1279 1278
f 1280 1289 1281
f 1281 1289 1282
f 1282 1289 1296
f 1282 1296 1283
f 1283 1296 1284
f 1284 1297 1298
f 1284 1298 1290
f 1284 1296 1299
f 1284 1299 1300
f 1284 1300 1301
f 1284 1301 1297
f 1286 1294 1287
f 1287 1289 1288
f 1287 1294 1296
f 1287 1296 1289
f 1290 1298 1291
f 1291 1298 1302
f 1291 1302 1292
f 1293 1303 1294
f 1294 1303 1304
f 1294 1304 1305
f 1294 1305 1299
f 1294 1299 1296
f 1297 1302 1298
f 1299 1305 1304
f 1299 1304 1300
f 1300 1304 1306
f 1300 1306 1301

