# https://github.com/mikedh/trimesh
v 89.96536071 77.57488294 12.10457064
v 89.96536071 77.57488294 5.48223624
v 73.82402888 77.57488294 8.39827786
v 94.33651128 75.45843539 13.66292968
v 87.76874206 77.57488294 -0.11872159
v 94.33651128 75.45843539 6.85791057
v 73.82402888 77.57488294 -0.47301936
v 73.82402888 62.75539288 5.53205993
v 94.33651128 62.75539288 11.21605639
v 94.33651128 75.45118111 13.66154540
v 87.77677395 77.56472901 -0.12841025
v 87.75870252 77.57488294 -0.13256179
v 94.33651128 75.14074962 6.74857583
v 94.25418857 63.18477513 0.43348535
v 94.22005465 64.04644059 0.43348535
v 94.15781103 64.90955716 0.43348535
v 94.05540795 65.77267340 0.43348535
v 93.71206101 67.30887565 -0.07858656
v 92.89083907 69.90692850 -0.11318706
v 91.93910436 72.25402460 -0.00938814
v 91.20422170 73.32457898 -0.13256179
v 90.25248699 74.88834209 -0.05505771
v 89.45134413 75.82254006 -0.10903551
v 88.63012218 76.71321749 -0.12841025
v 85.73275352 77.57488294 -0.47301936
v 89.96536071 72.47741951 -0.47440492
v 73.82402888 62.75539288 -0.47301936
v 94.33651128 62.75539288 4.15223406
v 87.46153670 77.57488294 -0.24189525
v 88.05787728 76.99318588 -0.25019834
v 94.33651128 74.36031822 6.49530843
v 94.27828296 63.18477513 1.29570349
v 94.26623577 62.75539288 0.86113437
v 94.25418857 62.75539288 0.43348535
v 94.09757377 62.75539288 0.09579377
v 93.94095897 63.18477513 -0.23497515
v 93.92690413 64.04644059 -0.23497515
v 93.90280974 64.90955716 -0.23359216
v 94.33651128 73.53926979 6.24757556
v 94.33651128 72.96337589 6.08288260
v 94.33651128 72.46581446 5.94448447
v 93.85461968 65.77267340 -0.21283186
v 93.78233652 66.63433918 -0.15608807
v 93.00328039 69.22078729 -0.20314578
v 92.24229441 70.94411820 -0.22667206
v 92.04753038 71.80723477 -0.11595561
v 91.49335563 72.59346870 -0.18100249
v 91.49937987 71.80723477 -0.35399983
v 90.69221276 73.58133792 -0.26819265
v 90.41713240 74.39513336 -0.15885663
v 89.96536071 74.95071938 -0.18376847
v 89.96536071 75.07402156 -0.13533035
v 89.75252525 75.20892880 -0.19484012
v 88.91524081 76.11266239 -0.23912926
v 86.59413363 77.57488294 -0.44118999
v 87.18444997 76.98303195 -0.45226163
v 88.04783645 76.12136649 -0.45226163
v 89.77260433 73.53346790 -0.47301936
v 90.63599210 71.80723477 -0.47440492
v 89.96536071 62.75539288 -0.47440492
v 94.27828296 62.75539288 1.29570349
v 94.33651128 63.18477513 4.15223406
v 88.90921657 75.25824993 -0.43703587
v 94.33651128 71.80723477 5.77010414
v 94.33651128 70.92380969 5.57219496
v 94.33651128 68.46646692 5.07257897
v 94.33651128 67.49745574 4.88435844
v 94.33651128 67.19282646 4.82899893
v 94.33651128 64.04644059 4.28371080
v 93.94095897 62.75539288 -0.23497515
v 93.22414775 64.04644059 -0.47440492
v 93.22414775 64.90955716 -0.47163637
v 93.22414775 65.77267340 -0.44949308
v 93.22414775 66.63433918 -0.39274930
v 92.36075998 69.22078729 -0.43980443
v 91.49937987 70.94411820 -0.46471627
v 90.63599210 72.67035134 -0.45503019
v 89.96536071 74.22541099 -0.37060601
v 89.96536071 74.39513336 -0.32770242
v 89.77260433 74.39513336 -0.39690084
v 89.96536071 73.34053544 -0.47025338
v 91.49937987 70.08390322 -0.47440492
v 93.22414775 62.75539288 -0.47440492
v 92.36075998 68.35912120 -0.47440492
f 1 2 5
f 1 5 12
f 1 12 29
f 1 29 55
f 1 55 25
f 1 25 7
f 1 7 3
f 1 3 4
f 1 4 6
f 1 6 2
f 2 6 5
f 3 7 27
f 3 27 8
f 3 8 9
f 3 9 10
f 3 10 4
f 4 10 9
f 4 9 28
f 4 28 62
f 4 62 69
f 4 69 68
f 4 68 67
f 4 67 66
f 4 66 65
f 4 65 64
f 4 64 41
f 4 41 40
f 4 40 39
f 4 39 31
f 4 31 13
f 4 13 6
f 5 11 12
f 5 6 11
f 6 13 14
f 6 14 15
f 6 15 16
f 6 16 17
f 6 17 18
f 6 18 19
f 6 19 20
f 6 20 21
f 6 21 22
f 6 22 23
f 6 23 24
f 6 24 11
f 7 25 26
f 7 26 60
f 7 60 27
f 8 27 60
f 8 60 83
f 8 83 70
f 8 70 35
f 8 35 34
f 8 34 33
f 8 33 61
f 8 61 28
f 8 28 9
f 11 24 12
f 12 24 30
f 12 30 29
f 13 31 14
f 14 32 33
f 14 33 34
f 14 34 35
f 14 35 36
f 14 36 37
f 14 37 38
f 14 38 15
f 14 31 39
f 14 39 40
f 14 40 41
f 14 41 32
f 15 38 42
f 15 42 16
f 16 42 43
f 16 43 17
f 17 43 18
f 18 43 44
f 18 44 19
f 19 44 45
f 19 45 46
f 19 46 20
f 20 46 21
f 21 47 48
f 21 48 49
f 21 49 50
f 21 50 22
f 21 46 47
f 22 50 51
f 22 51 52
f 22 52 23
f 23 52 53
f 23 53 54
f 23 54 24
f 24 54 30
f 25 55 56
f 25 56 57
f 25 57 58
f 25 58 59
f 25 59 26
f 26 59 82
f 26 82 84
f 26 84 71
f 26 71 83
f 26 83 60
f 28 61 32
f 28 32 62
f 29 30 55
f 30 57 56
f 30 56 55
f 30 54 63
f 30 63 57
f 32 61 33
f 32 41 64
f 32 64 65
f 32 65 66
f 32 66 67
f 32 67 68
f 32 68 69
f 32 69 62
f 35 70 36
f 36 70 83
f 36 83 71
f 36 71 72
f 36 72 37
f 37 72 38
f 38 72 73
f 38 73 42
f 42 73 74
f 42 74 43
f 43 74 44
f 44 75 45
f 44 74 75
f 45 48 47
f 45 47 46
f 45 75 48
f 48 75 76
f 48 76 77
f 48 77 78
f 48 78 49
f 49 78 79
f 49 79 51
f 49 51 50
f 51 79 53
f 51 53 52
f 53 80 54
f 53 79 80
f 54 80 63
f 57 63 81
f 57 81 58
f 58 81 76
f 58 76 59
f 59 76 82
f 63 80 77
f 63 77 81
f 71 84 72
f 72 84 73
f 73 84 75
f 73 75 74
f 75 84 76
f 76 84 82
f 76 81 77
f 77 80 78
f 78 80 79

