# https://github.com/mikedh/trimesh
v 74.25111751 85.38226633 5.90118887
v 73.82666377 85.38226633 5.90435844
v 73.82666377 85.39289840 5.90911151
v 74.25111751 85.82724002 6.17374746
v 75.11320840 85.81964642 6.17691575
v 75.11320840 85.38682146 5.91545065
v 75.11584457 85.38226633 5.91386586
v 73.82666377 85.38226633 12.59313299
v 73.82666377 85.82268231 6.17533225
v 74.25111751 86.47267551 6.59050735
v 73.82666377 86.14464173 6.37975023
v 73.82666377 86.69743992 6.73629471
v 75.11320840 86.47267551 6.60318563
v 75.54557193 86.90550046 6.90109821
v 75.89093423 86.54101791 6.68558674
v 75.97529801 85.78015918 6.20068624
v 75.97529801 85.38226633 5.95823599
v 74.25111751 86.92675946 6.88683643
v 75.18966239 85.38226633 5.91703543
v 73.82666377 95.07597827 22.08989330
v 84.06102002 85.38226633 14.22689912
v 96.91328552 85.38378556 22.08989330
v 73.82666377 86.92675946 6.88525165
v 75.11320840 87.34287798 7.18950209
v 75.11320840 87.97009037 7.62369461
v 75.97529801 87.94731214 7.63954117
v 75.89093423 87.25023811 7.15939503
v 76.83738890 86.82956446 6.95022141
v 76.83738890 86.39826131 6.66815539
v 77.69947915 86.34662534 6.70460158
v 76.83738890 85.72245141 6.23713243
v 76.67393433 85.38226633 6.01369832
v 74.25111751 87.35654595 7.18157945
v 73.82666377 87.13937514 7.02786944
v 73.82666377 87.35958441 7.17840988
v 73.82666377 100.89402851 22.08989330
v 84.06102002 85.38226633 7.34162859
v 100.75709985 85.38378556 22.08989330
v 75.11320840 88.39987686 7.93111462
v 74.25111751 87.97768397 7.61260240
v 75.97529801 88.37709605 7.94854596
v 76.83738890 88.32697932 7.98340866
v 76.83738890 87.89567617 7.67440259
v 76.83738890 87.33528438 7.29250411
v 77.69947915 86.77944772 6.98666889
v 78.56156939 86.27524703 6.75372606
v 77.69947915 85.65866414 6.27199513
v 76.83738890 85.38226633 6.02796010
v 73.82666377 87.98224167 7.60943283
v 74.23529922 100.89706698 22.08989330
v 73.82666377 100.77253604 21.86012004
v 83.77365725 85.38226633 7.25288834
v 84.60674773 85.38378556 7.49850816
v 85.02329297 85.38378556 7.63161725
v 85.35547444 85.38378556 7.73937363
v 85.70874653 85.38378556 7.85505265
v 85.85374600 85.38378556 7.90417713
v 86.35992863 85.38378556 8.07848805
v 87.19301783 85.38378556 8.38432327
v 87.45665510 85.38378556 8.48891008
v 87.69129068 85.38378556 8.58240340
v 87.87319906 85.38378556 8.65846665
v 88.18692736 85.38378556 8.79157574
v 89.56574427 85.38378556 9.38898569
v 90.00865246 85.38378556 9.59340495
v 90.63083416 85.38378556 9.91508803
v 91.26092435 85.38378556 10.24786202
v 91.69592405 85.38378556 10.48238963
v 92.35765211 85.38378556 10.85002633
v 92.77683223 85.38378556 11.08455330
v 92.89283258 85.38378556 11.15269327
v 93.01674271 85.38378556 11.22717109
v 93.39637776 85.38378556 11.46486763
v 94.08446877 85.38378556 11.91015172
v 94.39819450 85.38378556 12.11773991
v 95.34992150 85.38378556 12.75476627
v 95.49755714 85.38378556 12.85618351
v 95.59246686 85.38378556 12.92590763
v 95.96946574 85.38378556 13.20480472
v 96.48619561 85.38378556 13.60096497
v 96.53364919 85.38378556 13.63899660
v 97.69101264 85.38378556 14.56759705
v 97.88873931 85.38378556 14.72923033
v 98.56628180 85.38378556 15.31396329
v 98.81673695 85.38378556 15.53264433
v 99.03555552 85.38378556 15.74023189
v 99.89501025 85.38378556 16.57375391
v 100.38010097 85.38378556 17.04756188
v 100.56991785 85.38378556 17.23613426
v 100.75709985 85.38378556 17.43262993
v 100.75709985 89.74997998 22.08989330
v 75.11320840 88.97393661 8.36213757
v 74.25111751 88.41050893 7.92636155
v 74.25111751 88.99215971 8.35896800
v 74.25111751 89.42194620 8.67906629
v 75.97529801 88.94963915 8.37956892
v 76.83738890 88.90407754 8.41601512
v 78.56156939 88.78865687 8.50792493
v 78.54311494 88.12499571 8.02619400
v 77.69947915 87.83037223 7.72035749
v 77.69947915 87.33528438 7.37332172
v 78.54311494 87.40362421 7.51752301
v 78.56156939 86.70503352 7.03579208
v 78.50356922 85.53261654 6.28467213
v 77.98156958 85.38226633 6.13096212
v 79.42365964 86.60328338 7.10234791
v 79.42365964 86.17045843 6.81869582
v 79.42365964 85.61158587 6.46849047
v 77.69947915 85.38226633 6.10402335
v 73.82666377 88.41202559 7.92477676
v 74.69929933 100.88491825 22.08989330
v 74.25111751 100.66015384 21.64619335
v 73.82666377 100.65863460 21.64777814
v 83.00383927 85.38226633 7.05322343
v 82.27620383 86.83867729 7.80909774
v 83.80265701 85.68903854 7.46047589
v 84.13747529 86.02922362 7.77265154
v 84.60147411 85.48857417 7.56347792
v 85.04174743 86.91157226 8.62360395
v 86.39420009 85.68752188 8.29082867
v 87.19038167 85.46275747 8.43503254
v 87.54365504 86.86449399 9.51734170
v 88.04719894 86.27676627 9.33035507
v 88.57974453 86.10971219 9.44444930
v 88.88556304 85.62525384 9.25270703
v 89.15710753 85.92139655 9.57438882
v 89.77401689 86.75211179 10.46178871
v 90.33028926 86.13249299 10.28747779
v 91.07374236 86.91005559 11.21132517
v 88.95938086 86.50456914 9.89607189
v 89.33374357 86.89942353 10.35561840
v 91.54301608 85.62525384 10.56796031
v 92.32601553 85.59943714 10.98155191
v 92.01228723 86.10819296 11.16695505
v 92.58701535 85.88039265 11.33809640
v 93.29883187 86.51823711 12.24926550
v 93.63628696 86.02770439 12.08763157
v 94.64337732 86.15830969 12.85301394
v 95.85873901 85.65562824 13.33632966
v 95.21810415 85.89709909 13.05743257
v 96.18564943 85.98973639 13.84500001
v 97.12419431 86.06415316 14.64682922
v 98.29737476 85.50528060 15.17926878
v 97.18219513 86.98598903 15.45341151
v 98.92482879 86.14616096 16.29644160
v 98.03637495 86.11578656 15.46291958
v 98.61110306 85.81660795 15.72280118
v 99.23328476 86.44230110 16.84631250
v 99.54173815 86.73996305 17.39935265
v 99.79746307 86.16286483 17.14580987
v 100.37219119 85.83483362 17.43896842
v 100.75709985 85.62829231 17.65447990
v 100.75709985 89.68164014 21.99956891
v 100.30628315 90.11598176 21.99323041
v 100.34319206 90.15243053 22.08989330
v 75.11320840 89.40523976 8.69332806
v 73.82666377 88.99215971 8.35579971
v 74.25111751 90.40149241 9.44920237
v 73.82666377 89.42194620 8.67906629
v 73.82666377 89.66949141 8.87239334
v 73.82666377 90.16154080 9.25746139
v 75.97529801 89.37942306 8.71551377
v 76.31275309 90.35137567 9.49357250
v 76.83738890 89.89121735 9.17822857
v 76.83738890 89.33538069 8.74720561
v 77.69947915 89.27918959 8.79157574
v 78.56156939 89.21844336 8.84386978
v 79.42365964 88.70512983 8.56814162
v 77.69947915 89.83198778 9.22259869
v 78.24256940 87.78784910 7.75205062
v 78.81729623 87.73773236 7.78532854
v 79.42365964 87.23657014 7.53495436
v 78.36120592 85.38226633 6.17533225
v 79.42365964 85.38226633 6.32904225
v 81.15047695 87.02395446 7.68074173
v 80.02738688 86.08996986 6.87098987
v 80.30420435 85.67992828 6.65706318
v 79.71629604 85.38226633 6.37341237
v 75.13693519 100.87276951 22.08989330
v 75.11320840 100.64648587 21.66996320
v 74.25111751 100.36401112 21.13118515
v 73.82666377 100.50828697 21.38631240
v 82.72965798 85.38226633 6.98666889
v 81.99674891 86.51975377 7.53178479
v 81.70147635 86.94954026 7.73461927
v 82.87202128 87.38843701 8.35896800
v 83.73674834 87.17278544 8.43661604
v 82.87465745 86.71718225 7.88832928
v 83.56011165 86.14616096 7.69500351
v 84.06102002 86.12338016 7.81385210
v 84.60147411 87.00421213 8.55863291
v 85.24738388 87.86985947 9.40958661
v 85.82210943 87.73166056 9.51734170
v 86.32565461 87.60712706 9.60925152
v 86.97156438 87.01484420 9.40958661
v 86.72638285 86.02466592 8.63945052
v 86.14901856 86.17957126 8.53327892
v 84.60147411 87.43399862 8.87239334
v 87.19038167 85.89406062 8.72660598
v 87.22992803 87.31554204 9.73285318
v 87.19038167 87.95794164 10.20349190
v 87.71238130 87.81974273 10.31124828
v 88.01819981 87.35502671 10.09098245
v 88.04719894 86.70958865 9.62509808
v 90.63610778 87.05281220 11.10198400
v 90.05083499 87.67395023 11.29055671
v 90.63610778 87.48411535 11.43951300
v 91.17128825 87.84100430 12.01632267
v 91.40856128 87.27149967 11.69780981
v 92.13092375 87.05736733 11.95769141
v 92.70301441 86.83564139 12.13041691
v 91.64847047 86.68377195 11.38246588
v 88.75901802 87.08166480 10.21933846
v 89.76874327 87.36565878 10.91816566
v 92.36028699 86.47115884 11.64868598
v 93.74701368 86.98446980 12.87836858
v 94.05546836 86.45597164 12.68504216
v 94.32437668 86.73236945 13.07644870
v 95.61092132 86.25398803 13.63107332
v 94.97028517 86.49393708 13.35376101
v 96.25946725 86.92068509 14.65158294
v 96.59692234 86.39978054 14.49787293
v 95.86401392 86.51368198 14.02723421
v 96.83419537 86.63821292 14.87977141
v 96.56792065 87.24112527 15.17609985
v 96.30164850 87.82126197 15.47559722
v 96.87901150 87.56004879 15.71804747
v 97.20592192 87.86530177 16.29327236
v 97.48273874 87.28668688 16.00169827
v 98.07592131 87.01484420 16.28851832
v 97.75955556 86.68984632 15.71170833
v 98.65064686 86.72022072 16.54839960
v 98.96701004 87.04218013 17.12362481
v 99.81855497 87.04521860 17.97457754
v 100.09537179 86.44230110 17.70677298
v 99.25437410 87.33072925 17.68617271
v 100.75709985 85.90165422 17.90643789
v 100.75709985 89.42953980 21.67788648
v 100.56991785 89.51002837 21.54002240
v 100.02155398 89.82439418 21.26112531
v 99.69728101 90.36048851 21.55428418
v 99.87391834 90.52906181 21.99323041
v 99.99519231 90.48653868 22.08989330
v 75.11320840 90.38326931 9.46663372
v 75.73802626 90.36504364 9.47931072
v 76.00693458 90.00663545 9.20833691
v 74.25111751 90.83279556 9.82159342
v 75.11320840 91.31725391 10.26529337
v 73.82666377 90.40453087 9.44920237
v 73.82666377 90.83431479 9.82000864
v 76.00693458 90.70826462 9.78197766
v 75.97529801 91.29599234 10.28430951
v 76.83738890 91.25954614 10.31600135
v 76.83738890 90.78571729 9.90874889
v 76.83738890 90.32252050 9.51575820
v 78.56156939 89.75757358 9.27489145
v 79.42365964 89.67860167 9.33827771
v 79.42365964 89.13795479 8.90725476
v 77.69947915 90.26177427 9.56488139
v 79.91929568 88.64742207 8.61568131
v 80.28838670 87.56308469 7.90893020
v 79.42365964 88.19941248 8.20842756
v 79.42365964 87.66787329 7.83445173
v 81.15047695 87.45526018 7.99133130
v 81.15047695 86.47267551 7.32102767
v 80.60211372 86.01099795 6.92169785
v 81.15047695 85.49768700 6.69984852
v 80.29629584 85.38226633 6.47007526
v 75.97529801 100.83783998 22.08989330
v 75.11320840 100.33363929 21.13118515
v 75.97529801 100.62522430 21.70165633
v 74.25111751 99.97675034 20.48782029
v 73.82666377 99.97523111 20.48782029
v 73.82666377 100.36097523 21.13118515
v 75.11320840 99.96156314 20.51000535
v 82.44493008 85.38226633 6.91852828
v 82.01256720 85.78015918 7.06748521
v 82.01256720 88.34368575 8.83594586
v 82.58202105 87.81822350 8.59032604
v 81.81220372 85.38226633 6.77274220
v 81.15047695 85.92747092 6.97240711
v 81.15047695 88.04298791 8.42235426
v 83.15674789 87.71191566 8.66638929
v 83.73674834 87.60560782 8.74720561
v 84.06365683 87.10900073 8.48257094
v 83.80265701 86.44989471 7.96280774
v 85.46356500 88.81599538 10.20824625
v 86.01192759 88.68994520 10.30649392
v 84.60147411 88.00957761 9.30499980
v 84.60147411 88.44088076 9.63619029
v 83.42302068 88.67627467 9.45395673
v 87.19038167 88.38924479 10.54418982
v 86.58665442 88.54415013 10.42058816
v 87.85210844 88.75372734 11.11466164
v 88.42683527 88.60034123 11.23826394
v 88.28710813 87.65724379 10.43801951
v 90.63610778 88.01413274 11.87212073
v 89.47610816 87.85011456 11.14952370
v 88.91192600 88.45454872 11.35394232
v 88.86447242 89.06657648 11.82458104
v 89.58156255 88.78258250 11.95293706
v 90.63610778 88.44543846 12.23341893
v 90.81274254 89.33234480 13.07803349
v 91.25301585 88.75676580 12.83399845
v 91.82774269 88.55782066 12.99880131
v 92.36028699 87.93364417 12.80230532
v 91.74601508 87.63142709 12.18746402
v 93.14065156 87.29731895 12.75793520
v 93.81028683 87.88960180 13.69287415
v 94.06601432 87.32161641 13.38386935
v 93.37528714 87.55852955 13.11606447
v 94.71983130 87.08470327 13.65008881
v 95.29719559 86.82956446 13.86401550
v 95.81128544 87.11507767 14.48361115
v 95.35255895 87.74532596 14.68327607
v 95.81128544 87.54638082 14.85600156
v 96.31483062 88.69298110 16.32654963
v 96.88955616 88.44088076 16.56741541
v 95.73483016 88.14473804 15.32664028
v 95.39474019 88.64438360 15.51204341
v 95.97210319 88.39532172 15.75132474
v 97.22173892 88.74157860 17.14264062
v 98.09964810 87.89415693 17.12996331
v 97.78064746 87.58890396 16.55473810
v 98.67437621 87.61775912 17.39618308
v 99.54437561 87.61927836 18.26615195
v 100.10328415 87.31706128 18.56564932
v 100.65428291 87.01484420 18.86356190
v 100.39591797 86.72022072 18.28992148
v 100.64373567 86.14616096 18.01419363
v 98.96964749 87.90478900 17.97140829
v 100.75709985 86.08085702 18.07599478
v 100.75709985 89.18503306 21.37521954
v 100.34319206 89.27767293 20.96638230
v 99.76846652 89.56470281 20.61142195
v 99.39673740 91.04541123 22.08989330
v 99.20692052 90.55032338 21.21200147
v 99.82646476 90.64599915 22.08989330
v 99.91082725 90.56702725 22.08989330
v 74.25111751 91.33092188 10.25261638
v 75.11320840 91.75007887 10.64402228
v 74.25111751 91.76374426 10.62976050
v 73.82666377 91.33092188 10.25261638
v 75.11320840 92.23605388 11.07346044
v 75.97529801 91.72729806 10.67254584
v 76.83738890 92.16923328 11.13367713
v 77.35411556 91.23069098 10.34135662
v 77.66520640 90.85405712 10.05928932
v 78.56156939 90.18887673 9.62509808
v 79.42365964 90.10838816 9.68848305
v 80.28838670 90.54576568 10.19873883
v 80.28838670 89.57988744 9.41909403
v 78.56156939 90.70674795 10.05770582
v 79.42365964 90.63688889 10.11950601
v 81.11620421 89.11820988 9.22576826
v 80.49402251 88.56693093 8.67431322
v 81.15838609 85.38226633 6.63170919
v 76.83738890 100.78772324 22.08989330
v 76.83738890 100.60548197 21.74602581
v 75.97529801 100.29111616 21.13118515
v 74.25111751 99.70186920 20.05362841
v 75.11320840 99.68972047 20.07739762
v 73.82666377 99.70186920 20.05679734
v 75.97529801 99.93726311 20.54328262
v 75.97529801 99.67149480 20.11067553
v 75.97529801 99.24019165 19.42135576
v 82.01256720 85.38226633 6.81711232
v 82.01256720 88.92230064 9.26696881
v 82.87465745 88.78106327 9.37472391
v 82.87202128 88.14473804 8.90408519
v 81.15047695 88.47429106 8.74403733
v 84.77283782 89.39309103 10.43168037
v 85.46356500 89.24729853 10.54894418
v 86.14638239 89.61330031 11.11149271
v 86.36783714 89.08328035 10.76604044
v 82.87465745 89.21236899 9.71066876
v 83.72093005 89.00431102 9.80257729
v 87.19038167 88.92685835 10.97679756
v 88.10256359 89.04987005 11.46169806
v 87.19038167 89.35816150 11.32541876
v 88.54547178 89.52977327 12.04484623
v 88.91192600 88.02324557 11.01641333
v 90.15628939 88.59882457 12.10347813
v 89.12019862 89.35816150 12.19380316
v 89.83201642 89.06657648 12.32532811
v 90.57019717 89.05138928 12.70881137
v 91.32419751 89.65430421 13.65325838
v 91.89892434 89.47206293 13.82123016
v 91.57728754 89.11365475 13.32523745
v 90.23537954 89.51002837 12.92273806
v 90.54647039 89.86995578 13.41873141
v 92.36028699 88.36342809 13.16518831
v 92.79792414 87.77266446 12.93541569
v 92.86119729 88.68235160 13.75626040
v 93.43328795 88.46669746 13.94958618
v 94.47728722 89.46446933 15.55324397
v 94.43246853 88.56237580 14.71972291
v 94.38501367 87.66028226 13.89570863
v 95.01774131 88.24497152 14.87343291
v 94.77783083 87.98831604 14.47093352
v 94.94655838 89.26552162 15.74657103
v 95.40264998 89.51154760 16.36775050
v 95.97737553 89.26704086 16.60861629
v 96.60482956 89.00431102 16.87642053
v 94.94655838 88.83421847 15.34248685
v 96.89483107 89.31563836 17.42787621
v 97.22173892 89.59355797 18.00310110
v 97.50910298 89.03620208 17.70518852
v 97.79910192 88.46973593 17.40727561
v 98.09964810 88.75980427 17.98091604
v 99.80010052 88.74005937 19.71926899
v 99.81064519 87.89263770 18.84137684
v 99.24910176 88.18574452 18.55614125
v 100.75709985 87.64661429 19.63211353
v 100.75709985 87.38540111 19.36113940
v 100.75709985 87.11051997 19.07748859
v 100.75709985 86.95713386 18.92060902
v 100.75709985 86.80071186 18.76848348
v 100.75709985 86.51823711 18.49592488
v 98.67437621 88.48036799 18.27249045
v 100.75709985 88.83118001 20.94419723
v 100.62264633 88.70209394 20.61776109
v 100.07164501 89.00886615 20.32777115
v 99.50482925 89.31411913 20.03778185
v 99.19373840 89.86236218 20.33886400
v 98.88264755 90.40453087 20.64153030
v 98.80882973 91.20031657 21.58597731
v 98.89055477 91.49494005 22.08989330
v 97.99419370 91.24132047 20.67005385
v 98.61901028 91.02566890 21.13118515
v 74.25111751 92.25427698 11.05919866
v 73.82666377 91.76374426 10.62976050
v 75.11320840 92.66735703 11.47595984
v 75.97529801 92.20416282 11.10198400
v 76.83738890 92.59901720 11.53142217
v 77.69947915 92.54890046 11.57420751
v 77.69947915 92.11759731 11.18121682
v 78.16084244 92.08570625 11.21132517
v 77.92884239 91.18816784 10.37780282
v 78.56156939 91.13653187 10.42058816
v 80.28838670 90.97555216 10.56003638
v 81.15047695 90.42882834 10.29064736
v 81.37984019 89.44016930 9.53160348
v 79.42365964 91.06667280 10.48080485
v 82.01256720 89.35512303 9.59974409
v 77.69947915 100.70875134 22.08989330
v 76.83738890 100.24099942 21.13118515
v 77.69947915 100.56295883 21.82050428
v 77.69947915 100.15899162 21.13118515
v 74.25111751 98.99264643 18.95388661
v 73.82666377 98.99416567 18.95230183
v 75.48229878 98.97594257 18.97765614
v 75.97529801 98.96834897 18.99033313
v 76.83738890 99.90992717 20.58923753
v 76.83738890 99.20981724 19.46572589
v 76.83738890 98.93949123 19.03470325
v 84.33520196 90.42123474 11.15903112
v 85.46356500 89.76212871 10.98155191
v 84.06365683 89.52673480 10.32234049
v 84.06365683 90.47287071 11.11466164
v 86.32565461 90.49565151 11.95293706
v 86.39156392 89.90944045 11.46962134
v 87.13765447 89.94436999 11.80715033
v 86.72110923 89.47509883 11.22875588
v 85.46356500 90.19343443 11.35552711
v 82.87465745 89.74086971 10.14327650
v 83.73674834 89.58748104 10.27321601
v 88.04719894 89.65278498 11.93867528
v 87.38547217 90.24507040 12.17637181
v 86.87665465 91.27625001 12.88312229
v 87.44874532 91.13349597 13.01781680
v 88.04719894 90.55032338 12.75793520
v 88.58765431 90.41212448 12.88470707
v 89.20719856 91.14564471 13.86876985
v 89.16238114 90.25569990 13.03049380
v 89.77401689 89.64822984 12.79913640
v 90.28283440 90.40149241 13.75942933
v 90.85756123 90.22836397 13.92423219
v 91.61947007 89.99904442 14.16034394
v 91.91210646 90.34530130 14.67376800
v 92.36028699 90.18887673 14.82272429
v 93.90255911 89.66493371 15.35833341
v 93.47546920 89.36119996 14.78152374
v 92.36028699 89.30045116 13.97652559
v 92.91392320 90.44097707 15.44073452
v 93.49128620 90.24051270 15.64198421
v 92.90601470 91.29751158 16.30278010
v 93.88146849 90.51842974 16.21562496
v 94.45619532 90.31037177 16.43430537
v 95.37101341 91.21246531 18.11878012
v 95.38683041 90.36200774 17.24247308
v 94.94655838 89.69075298 16.17759334
v 96.32010295 89.55710921 17.18384118
v 96.59955722 89.86236218 17.74321982
v 96.30164850 90.40453087 18.06014822
v 96.87637661 90.16761773 18.33112203
v 97.17428534 90.41364114 18.90634724
v 97.48537619 89.88058785 18.59575734
v 98.07855619 89.59203874 18.86039265
v 97.79646447 89.33386403 18.28675223
v 98.37383004 89.04227645 18.56564932
v 100.37482864 88.44088076 20.04253556
v 100.64373567 87.86530177 19.73511491
v 100.09273691 88.16599961 19.44037190
v 98.95119303 88.74917220 18.84771534
v 99.22800985 89.03316361 19.44037190
v 100.75709985 87.80607477 19.80008531
v 100.75709985 88.63071563 20.70333177
v 100.75709985 88.44695512 20.49574357
v 98.65064686 89.32475120 19.15989002
v 98.92746368 89.58292591 19.73511491
v 98.18928549 91.40837455 21.13118515
v 97.89664652 92.02343821 21.64302443
v 98.54255501 91.79108277 22.08989330
v 98.34482834 89.87603015 19.46097217
v 98.03637495 90.41819884 19.76522325
v 97.12682919 91.23524611 19.81593187
v 97.46164683 91.39167068 20.33569443
v 97.05564883 92.04318311 20.75087082
v 97.32192098 92.24972185 21.32609571
v 74.25111751 92.68406347 11.46169806
v 73.82666377 92.24972185 11.06078345
v 75.11320840 93.11384995 11.90698279
v 76.83738890 93.05917552 11.96244512
v 77.69947915 93.01361648 12.00523046
v 78.29002427 92.96957411 12.04960058
v 78.73556927 92.03862541 11.25411051
v 78.49302391 91.71059163 10.92133523
v 80.28838670 91.45849128 10.99105934
v 81.15047695 91.35218345 11.09089179
v 81.15047695 90.86165072 10.65986884
v 81.61184024 90.36352440 10.34452491
v 81.94402171 89.96563155 10.08939766
v 79.42365964 91.54809269 10.91341194
v 78.56156939 100.60244350 22.08989330
v 77.69947915 99.86892327 20.65579208
v 79.37356861 100.50069337 22.08989330
v 78.56156939 100.50676773 21.91558302
v 78.49038774 100.03142221 21.08047653
v 78.15556946 99.84310400 20.69540849
v 74.25111751 98.70106142 18.52286398
v 73.82666377 98.70561655 18.52127919
v 75.16066198 98.74358456 18.62586568
v 75.97529801 98.65853829 18.54346426
v 76.83738890 98.60082795 18.54346426
v 77.69947915 99.16729411 19.53703478
v 77.69947915 98.89241296 19.10601215
v 77.69947915 98.50515218 18.54346426
v 84.66738343 90.81305322 11.62174720
v 84.90992879 90.30581664 11.25886358
v 83.73674834 90.96643933 11.43792885
v 83.73674834 90.53361694 11.06395302
v 85.46356500 90.68244792 11.78655006
v 86.32565461 90.92847390 12.33483617
v 86.81338279 90.38175007 12.05435430
v 82.87465745 91.11375107 11.30481848
v 82.18656708 90.28151660 10.41583381
v 86.32565461 91.40230018 12.76744327
v 86.32565461 91.83360590 13.18737337
v 86.88720060 92.14037811 13.74199862
v 87.45929127 92.00673434 13.87510835
v 88.04719894 91.43722972 13.59145755
v 88.63247172 91.29447568 13.72773684
v 88.04719894 90.98162653 13.15884981
v 88.91983578 91.65288129 14.22689912
v 89.20719856 92.01280871 14.73398469
v 89.77401689 91.42204251 14.45667174
v 89.77401689 90.98314576 14.02564943
v 89.77401689 90.55184261 13.62315003
v 90.87074335 91.09704720 14.78152374
v 91.33737963 90.52146821 14.49945708
v 90.29601652 91.27169488 14.60879760
v 91.63001602 90.86620843 15.01446592
v 91.91737879 91.20942941 15.53105955
v 92.36028699 90.62929528 15.25374724
v 92.36028699 91.06059843 15.68159998
v 92.86119729 92.12671015 17.19651817
v 93.43592284 91.93231757 17.41678368
v 93.85510553 91.35825781 17.09510125
v 94.42983108 91.15627420 17.31536644
v 93.48074153 91.09248950 16.51987604
v 92.36028699 91.47519772 16.11262294
v 91.89101584 92.05685108 16.41370509
v 92.36028699 91.90802010 16.58326166
v 94.15565042 90.83735326 16.76391108
v 95.04937660 91.72122370 18.45472433
v 95.30246792 92.02495744 19.04262654
v 95.81128544 91.39774505 18.75739095
v 96.25155747 91.22461661 18.96656361
v 95.81128544 91.03478173 18.32478353
v 94.79628529 91.41748738 17.89059165
v 94.38501367 91.99306637 18.21861258
v 96.56528577 90.69763512 18.64805042
v 100.75709985 88.22370995 20.25170854
v 96.95282931 92.82378161 21.73017989
v 97.43528516 92.69773144 22.08989330
v 97.59610292 92.57168126 22.08989330
v 97.82810361 92.38488486 22.08989330
v 98.27628543 92.01584718 22.08989330
v 95.85873901 91.85182900 19.36113940
v 96.18037453 92.03407028 19.89516405
v 96.72873841 91.86853544 20.21684648
v 96.48092071 92.26338982 20.47038894
v 96.10392183 92.83744957 20.83802628
v 96.37810377 93.04702678 21.41483595
v 74.25111751 93.12751792 11.89272101
v 73.82666377 92.68254423 11.46645241
v 73.82666377 92.89971504 11.67720953
v 75.11320840 93.54211721 12.33958989
v 75.97529801 93.94304595 12.79596683
v 76.83738890 93.48744277 12.40139072
v 76.83738890 93.90508052 12.83082888
v 77.69947915 93.86103815 12.87995272
v 78.20302433 94.67656618 13.79112246
v 78.25838769 93.82307015 12.91798434
v 78.83311452 93.77751112 12.96552340
v 79.42365964 93.72891361 13.01623202
v 80.28838670 93.22167446 12.65810275
v 78.86211493 92.91945738 12.10189335
v 79.42365964 92.86630474 12.14943304
v 79.42365964 92.43651826 11.74059515
v 79.42365964 91.97939841 11.31115698
v 80.28838670 91.89131367 11.39197395
v 81.15047695 92.24972185 11.91807500
v 81.15047695 91.78500840 11.48863683
v 81.78056715 91.27017564 11.16695505
v 82.35529398 91.19272297 11.23509437
v 78.56156939 99.12021584 19.61151325
v 80.16184104 100.37919833 22.08989330
v 80.28838670 100.30478155 21.99481456
v 79.42365964 100.01775167 21.26904859
v 78.73029630 99.80665780 20.75879410
v 78.49038774 99.58948699 20.35312578
v 74.25111751 98.27127494 17.90009940
v 73.82666377 98.27431341 17.89851493
v 75.97529801 98.23786464 17.94605398
v 75.11320840 98.25456850 17.92069967
v 76.83738890 98.20597100 17.98883932
v 77.69947915 98.16041197 18.05222494
v 78.56156939 98.84077956 19.18049030
v 78.53520580 98.35935968 18.47849386
v 85.00220106 91.20639094 12.08763157
v 83.73674834 91.44178485 11.86736638
v 84.06365683 91.38255785 11.92441350
v 85.46356500 91.11375107 12.16844853
v 82.87465745 91.58302222 11.73742622
v 85.38710973 91.67414286 12.66602603
v 85.62174659 91.97787917 13.04317079
v 86.32565461 92.26187058 13.61839632
v 86.88456444 92.99994852 14.60245910
v 88.04719894 92.29528345 14.44399474
v 88.04719894 91.86701620 14.01455658
v 88.63247172 92.15556532 14.58661254
v 88.58501686 92.99387415 15.46767329
v 89.15974369 92.85111754 15.62296872
v 89.77401689 93.08803068 16.22671717
v 90.24328933 92.96501898 16.36299647
v 89.77401689 92.25883469 15.33139464
v 89.77401689 91.85334824 14.89878690
v 90.57283463 91.61339662 15.13172973
v 91.34265196 91.38103861 15.35674863
v 90.84965273 91.95661761 15.65624599
v 91.61683390 91.71970446 15.88126490
v 92.80583264 92.95135101 18.10134909
v 93.81028683 92.18593715 17.99200857
v 94.12137768 91.67566209 17.65447990
v 91.31365155 92.22542438 16.22988674
v 90.82065232 92.79796491 16.55156917
v 91.24510735 93.04702678 17.12520927
v 91.82247035 92.87693681 17.32487419
v 94.72773980 92.22542438 18.79225300
v 94.31119456 92.79948414 19.15513599
v 95.21283053 92.82530084 19.98390366
v 95.52919628 93.05158449 20.55912919
v 95.85346668 92.54434533 20.22635391
v 93.38055947 92.75847767 18.33112203
v 93.14592389 93.12903716 18.58783406
v 93.73646901 92.99691005 18.90634724
v 96.61273934 93.33102076 22.08989330
v 95.76119441 93.33405666 21.18189313
v 95.41319465 93.82762785 21.52576062
v 95.98792277 93.62108654 21.83476606
v 73.82666377 93.12447945 11.89588994
v 73.82666377 93.33405666 12.10664770
v 73.82666377 93.76384315 12.53925480
v 74.25111751 93.98101396 12.75793520
v 75.11320840 94.40168761 13.20955843
v 75.97529801 94.37435167 13.23966677
v 76.83738890 94.33790291 13.28562104
v 77.69947915 94.70390469 13.75942933
v 77.93411536 95.50880322 14.68486021
v 78.51938751 94.96511530 14.16826722
v 78.77775116 94.62796868 13.84183108
v 80.28838670 93.65298018 13.09704898
v 80.28838670 92.78125847 12.22708043
v 81.15047695 93.12903716 12.75476627
v 81.15047695 92.68254423 12.32532811
v 81.86229475 92.15708198 12.00523046
v 82.43702158 92.07962931 12.07812414
v 79.42365964 99.06554397 19.70183764
v 80.28838670 100.35793676 22.08989330
v 80.28838670 99.94789260 21.38314283
v 81.19265884 100.08609408 21.92350566
v 80.93429518 99.88562714 21.48772964
v 79.42365964 99.75806030 20.83644150
v 79.42365964 99.41332008 20.26755510
v 74.25111751 97.95235399 17.46907677
v 75.11320840 97.94324116 17.48967704
v 75.11320840 97.51041877 16.90177484
v 73.82666377 98.11181446 17.67983421
v 75.97529801 97.92197959 17.51503135
v 76.83738890 97.88856929 17.55623223
v 75.97529801 97.49067644 16.92712915
v 77.69947915 97.84756539 17.61961784
v 77.69947915 97.41474043 17.02854639
v 78.53520580 97.84908205 17.75748160
v 78.56156939 97.37070063 17.09034722
v 78.80411476 98.09207213 18.14571890
v 79.42365964 98.78306923 19.27081501
v 79.42365964 98.35176608 18.64329671
v 85.04701976 92.08570625 12.93383091
v 84.06102002 91.78652506 12.30472783
v 82.87465745 92.01584718 12.13992497
v 83.73674834 91.87460980 12.27461949
v 84.60147411 93.03032292 13.71189028
v 85.04174743 92.94527665 13.79746096
v 85.61647426 92.83289444 13.91313998
v 86.32565461 92.69013784 14.05417299
v 87.14292809 93.35076310 15.11429838
v 87.45665510 92.86630474 14.74032318
v 86.32565461 93.11233072 14.48678008
v 86.32565461 93.54211721 14.94632659
v 86.82919979 93.83370222 15.48827421
v 88.04719894 92.72506737 14.89561797
v 88.04719894 93.12144356 15.32664028
v 88.04719894 93.55274671 15.80678707
v 88.84074434 93.34013103 15.99377499
v 89.09647183 93.68639048 16.52146083
v 89.83992620 93.56337620 16.81145013
v 90.27492590 92.12063578 15.48035093
v 90.17210767 93.78510472 17.27099664
v 90.57547079 93.17763466 16.83046594
v 92.71883270 93.75928802 19.03153401
v 92.36028699 93.08347555 17.94446952
v 91.74074275 93.69550331 18.24396689
v 92.40510569 93.54515310 18.53554097
v 94.63810498 93.02424598 19.73194598
v 94.87274056 93.32342716 20.33410965
v 94.53528547 93.81395988 20.68431563
v 95.11001359 93.62412501 20.95212052
v 93.29619698 93.63019938 19.35321644
v 94.04755986 93.18826416 19.42769426
v 95.74801229 93.95975239 22.08989330
v 94.87274056 93.95367802 21.19615491
v 93.83401362 94.78287402 21.39740461
v 94.40610429 94.59303915 21.67313277
v 94.96501283 94.41839147 21.97421428
v 95.02564982 94.45332101 22.08989330
v 73.82666377 94.19211040 12.97978517
v 74.25111751 94.41079787 13.20321993
v 75.11320840 94.81324843 13.64216617
v 75.97529801 94.78591249 13.67227387
v 76.83738890 94.74490859 13.71505921
v 76.83738890 95.17773097 14.19679078
v 77.66784257 95.20202844 14.31088502
v 78.56156939 96.60984190 16.12054622
v 78.56156939 95.82316904 15.16817657
v 78.56156939 95.46476085 14.73873840
v 77.35938853 95.53613916 14.65316772
v 76.29957097 96.38356083 15.53264433
v 76.83738890 96.35622489 15.56592161
v 77.69947915 96.30762739 15.62296872
v 79.42365964 94.96056016 14.33307008
v 79.42365964 94.57026092 13.90680084
v 80.28838670 94.05694739 13.52965607
v 81.15047695 94.39409401 14.09220397
v 81.15047695 93.96127162 13.62948853
v 81.15047695 93.55578517 13.20005036
v 82.42647563 93.79877268 13.80696838
v 82.01256720 93.01057801 12.87202944
v 82.45811220 92.94831255 12.93699984
v 83.03283904 92.86326627 13.01623202
v 80.04847750 99.01542724 19.78106982
v 81.18474969 100.17873395 22.08989330
v 80.28838670 99.68668200 20.95212052
v 81.15047695 99.17488771 20.38006455
v 81.91502195 100.03142221 22.08989330
v 81.50902202 99.82640014 21.58914623
v 82.01256720 99.08680297 20.51951278
v 74.25111751 97.52256751 16.89543634
v 73.82666377 97.73518318 17.17591790
v 75.11320840 97.18997602 16.47075221
v 75.97529801 97.17327216 16.49610652
v 76.83738890 97.13682339 16.54364589
v 77.69947915 97.09126436 16.59593897
v 79.42365964 97.30539670 17.17908714
v 78.56156939 97.04114762 16.65932459
v 79.42365964 97.66532411 17.68141867
v 80.31738647 98.74965892 19.45938739
v 80.28838670 98.27431341 18.75105245
v 80.28838670 97.96753862 18.32002950
v 84.60147411 92.16771405 12.85618351
v 83.73674834 92.75240330 13.12557254
v 84.60147411 92.59749796 13.28086733
v 84.66738343 93.52085564 14.25859161
v 85.46356500 93.70461358 14.76884674
v 84.06102002 93.12751792 13.61522675
v 84.06102002 93.58160187 14.09220397
v 87.40129045 93.70461358 15.63723050
v 86.32565461 93.93089722 15.37893369
v 85.46356500 94.09491540 15.19986905
v 85.46356500 94.52469931 15.68952391
v 86.38892776 94.41383634 15.97317471
v 86.71847306 94.64923025 16.40578181
v 87.19038167 94.55203525 16.51987604
v 87.85474460 94.77528042 17.12045556
v 88.52174500 93.82155348 16.36458125
v 89.59474339 93.92785875 17.09668572
v 88.42683527 94.64163665 17.28050438
v 89.82410792 94.25893100 17.65131065
v 90.05083499 94.58848402 18.20752005
v 90.48583469 94.81628432 18.78274526
v 91.06056152 94.66138155 18.97924092
v 92.14410587 93.92634209 18.81919178
v 91.50083355 94.53836728 19.14879749
v 91.50083355 94.85425233 19.57982012
v 92.36292444 94.23463354 19.40392506
v 92.57910556 94.54444165 20.00608872
v 92.93501511 94.75250219 20.57972947
v 93.05892396 93.96886522 19.60517475
v 93.63101462 93.78965985 19.85554764
v 93.50974065 94.57481605 20.82217972
v 94.03965008 95.06990390 22.04076946
v 93.22237788 94.96056016 21.11850751
v 92.79001435 95.52702632 21.56379225
v 93.22237788 95.40097615 21.76504194
v 94.18728571 95.00308330 22.08989330
v 73.82666377 94.40928121 13.20797365
v 73.82666377 94.60822635 13.41714662
v 74.25111751 94.81780356 13.63582703
v 74.25111751 95.24910928 14.11755860
v 75.11320840 95.24303491 14.12706667
v 75.97529801 95.21569641 14.15559023
v 76.83738890 95.55740072 14.62622895
v 77.69947915 96.66147787 16.05557582
v 79.42365964 96.54454053 16.20294765
v 79.42365964 96.18613235 15.77192501
v 79.42365964 95.75330997 15.25374724
v 79.42365964 95.39034408 14.82272429
v 75.97529801 95.59233026 14.58819732
v 75.72484414 96.40330316 15.50887449
v 75.99638863 96.67818430 15.87492704
v 76.83738890 96.70552024 15.99852870
v 80.28838670 95.31289398 14.91146454
v 80.28838670 94.88006903 14.42497925
v 80.28838670 94.48673388 13.99554108
v 81.15047695 94.79350609 14.52481171
v 81.77265800 94.71757266 14.60404389
v 81.85174880 93.87318688 13.72773684
v 82.87465745 93.73802645 13.87193878
v 82.79556665 93.23534242 13.32999116
v 83.73674834 93.18218979 13.55817963
v 80.62320434 98.96075537 19.86822528
v 81.15047695 98.90911940 19.94904160
v 82.01256720 100.01016064 22.08989330
v 82.01256720 99.77172827 21.67947127
v 82.01256720 99.44976885 21.13118515
v 82.01256720 98.82103723 20.08849047
v 82.61102146 99.02150160 20.62726852
v 74.25111751 97.19605296 16.46441371
v 73.82666377 97.35703267 16.67358637
v 75.11320840 96.78297291 15.95574336
v 74.25111751 96.79664088 15.95574336
v 79.42365964 96.97584368 16.74806451
v 79.90611420 97.26287356 17.23771905
v 81.15047695 98.54615608 19.40709398
v 81.15047695 98.18470943 18.87465443
v 81.15047695 97.88856929 18.44204702
v 81.15047695 97.45574690 17.82720604
v 80.48084103 97.20972093 17.31061241
v 84.42220190 93.89444845 14.56284269
v 84.67265576 94.26045024 15.06517454
v 83.73674834 93.61197628 14.00504915
v 84.92047474 94.62645202 15.57067532
v 85.46356500 94.89070110 16.12054622
v 86.14374623 94.76161245 16.27425654
v 86.58401826 95.46476085 17.33121301
v 87.19038167 94.91499856 16.95248346
v 88.07356318 95.10787190 17.66557243
v 87.19038167 95.34782352 17.48016930
v 87.71765492 95.57258535 18.05222494
v 88.91192600 94.52469931 17.42787621
v 88.91192600 94.86336516 17.85889884
v 89.47610816 94.72820215 18.03004020
v 89.76610710 94.96511530 18.51494070
v 89.77401689 95.42375695 19.11710468
v 90.34347138 95.59688539 19.73669969
v 90.69937964 95.13216937 19.35955493
v 90.91819693 95.44805442 19.95221117
v 91.54301608 95.30985551 20.25170854
v 92.00701490 94.70845982 19.77631611
v 92.32074191 94.89222033 20.28340103
v 93.98955905 95.13065271 22.08989330
v 92.27328705 96.13753485 22.08989330
v 93.22237788 95.59992386 22.08989330
v 92.44465205 95.38275305 21.08047653
v 91.85674181 95.48754165 20.75720932
v 92.21792369 95.68345090 21.33243421
v 91.11065255 96.41393266 21.52734540
v 91.44019785 96.55668927 22.03284618
v 91.54301608 96.53694693 22.08989330
v 73.82666377 94.81476766 13.63741181
v 73.82666377 95.02738077 13.87352357
v 73.82666377 95.24759004 14.11914339
v 73.82666377 95.43590568 14.33148529
v 73.82666377 95.62725979 14.54858091
v 74.25111751 95.62574056 14.54699677
v 75.11320840 95.61510849 14.55967376
v 80.28838670 96.45949426 16.30278010
v 80.28838670 96.11019891 15.87175747
v 80.28838670 95.67889319 15.34090206
v 75.11320840 96.04793345 15.06517454
v 75.11320840 96.41393266 15.49619685
v 81.15047695 95.59384692 15.44390409
v 81.15047695 95.22329001 15.01129699
v 81.63556768 95.54221352 15.50728970
v 81.99147593 95.09116547 15.09845181
v 82.34738548 94.64011999 14.69119935
v 82.87465745 94.13136160 14.29820802
v 81.97302148 98.34417247 19.36113940
v 82.87465745 99.81425140 22.08989330
v 82.87465745 99.67301403 21.84744305
v 82.88783957 98.74965892 20.31034044
v 82.87465745 98.28342367 19.59249712
v 83.18574829 98.94556817 20.75403975
v 73.82666377 96.80119601 15.95574336
v 73.82666377 97.19605296 16.46282892
v 74.25111751 96.42304549 15.48668943
v 73.82666377 96.42608396 15.48035093
v 81.65665830 98.13307603 18.95071736
v 82.01256720 97.36310703 17.95714652
v 81.15047695 97.14593622 17.39618308
v 84.34838408 94.72668292 15.45341151
v 84.06102002 93.95215879 14.49628815
v 83.73674834 94.00379476 14.43765625
v 84.56720201 95.08661034 15.96842036
v 84.79129228 95.44349929 16.49135248
v 85.46356500 95.32048501 16.64189356
v 86.00929143 95.56803022 17.19810296
v 85.26056471 96.47316223 18.00785514
v 85.83529155 96.36837362 18.14254965
v 88.29238175 95.44046082 18.22653586
v 87.19038167 95.67737396 17.91277671
v 87.21938207 96.14360921 18.56564932
v 87.52783675 96.35622489 19.02202626
v 88.04719894 96.55668927 19.60517475
v 88.04719894 96.24384269 19.17415180
v 88.58765431 96.43975193 19.76839282
v 88.76165419 95.65459573 18.80334553
v 89.33638102 95.52398785 18.97924092
v 89.77401689 95.73356763 19.54971178
v 89.16238114 96.30762739 19.96171924
v 89.82674408 96.19372595 20.25646225
v 90.14837960 96.36381592 20.74136275
v 91.28201626 95.64396366 20.52902085
v 90.63610778 96.52935333 21.35145034
v 90.62292566 96.96976932 22.02492290
v 91.38219704 96.62047397 22.08989330
v 90.65192478 96.99406935 22.08989330
v 73.82666377 95.83835624 14.79420073
v 73.82666377 96.23928498 15.26167053
v 81.11356804 96.07526938 16.03022183
v 81.11356804 96.65843940 16.76391108
v 81.37720402 96.34863129 16.43905940
v 81.95984000 95.78823950 15.91612759
v 82.87465745 95.72749070 16.14114649
v 82.21029451 95.46476085 15.60078366
v 82.01256720 96.61895473 16.96516045
v 82.01256720 96.27269785 16.53413782
v 82.87465745 94.94233707 15.20937712
v 83.73674834 94.82084203 15.34724120
v 82.87465745 94.56266732 14.77677002
v 83.73674834 94.43661714 14.91780303
v 82.23138513 98.06929133 19.04262654
v 83.58120291 99.62897166 22.08989330
v 83.69720198 99.58037416 22.05820081
v 84.06365683 98.66157419 20.69382370
v 84.60147411 98.31835320 20.38957262
v 84.06365683 98.38517638 20.25646225
v 83.80002020 98.41858668 20.19307664
v 83.55483867 98.18926713 19.73194598
v 84.60147411 97.31754543 18.88099293
v 84.06365683 97.39347886 18.77323719
v 83.73674834 97.43904047 18.70826711
v 82.87465745 97.98728353 19.16147448
v 83.73674834 99.12780944 21.31183393
v 84.06102002 99.08376707 21.38631240
v 83.73674834 98.86963216 20.87922683
v 81.97302148 97.83085895 18.61635762
v 82.58993084 97.29324796 18.05697897
v 82.01256720 97.04874122 17.52453910
v 84.21656544 95.54373276 16.36775050
v 83.73674834 95.25062594 15.85274134
v 85.46356500 95.66674446 17.07291619
v 85.03647381 97.25376073 18.97290210
v 85.43456459 96.81182808 18.55772604
v 84.60147411 96.57947007 17.86682181
v 84.60147411 97.01077322 18.45155508
v 85.61120064 97.15049136 19.12502796
v 86.32565461 96.58554443 18.70351308
v 86.32565461 96.27573375 18.27249045
v 86.95574609 96.46556863 18.86990040
v 87.21938207 96.70552024 19.34846240
v 87.19038167 97.15808496 19.97914994
v 88.06829084 97.01381169 20.28657059
v 88.36883574 97.20668246 20.77305588
v 88.89083537 96.63110347 20.25646225
v 89.57365277 96.49897893 20.53535934
v 89.75028881 96.81486398 21.14703107
v 89.92956231 97.12771055 21.75870345
v 90.55965251 97.03962839 22.08989330
v 82.87465745 95.37364022 15.70853940
v 82.87465745 96.16031565 16.67834040
v 83.73674834 95.60903412 16.28534907
v 82.87465745 96.50201740 17.10936303
v 83.66820285 99.60467419 22.08989330
v 84.46438378 99.38142645 22.08989330
v 84.96001982 98.95771690 21.59865430
v 84.38529299 99.03820804 21.45920608
v 84.06102002 98.83926033 20.97905929
v 84.64365664 98.78306923 21.15653914
v 85.31856553 98.20900947 20.55595962
v 84.60147411 98.03588103 19.95854967
v 84.06365683 98.11485036 19.83970172
v 84.06365683 97.08822589 18.34221456
v 83.16465767 97.21579529 18.16631949
v 82.87729361 96.97280521 17.73371208
v 83.41774770 96.42304549 17.20761070
v 83.99247454 96.33951846 17.31695123
v 85.89329236 98.11636960 20.70016220
v 86.15429218 97.34640060 19.70025285
v 84.06365683 96.62958680 17.72578880
v 86.72901901 97.24313123 19.85237871
v 86.39420009 97.05785148 19.41026355
v 87.19038167 97.44207637 20.41175704
v 87.79410891 97.32361980 20.58765275
v 88.06829084 97.52408674 21.08839981
v 88.04719894 97.97057709 21.79673443
v 88.87501709 97.80655892 22.08989330
v 88.91192600 97.35703267 21.39581982
v 89.35483548 97.25831843 21.55269939
v 88.91192600 97.08367075 20.96479751
v 89.82410792 97.38133013 22.08989330
v 89.69492545 97.40107247 22.02492290
v 83.71829324 96.66147787 17.63546409
v 84.63574685 99.32979305 22.08989330
v 85.19465540 99.16121974 22.08989330
v 85.46356500 99.07921194 22.08989330
v 85.46356500 98.87874499 21.73493360
v 85.54792877 98.43680978 21.04561447
v 86.33092823 98.74965892 22.02492290
v 86.32565461 98.29861087 21.26112531
v 86.32565461 98.03588103 20.83010300
v 87.21147229 97.89767955 21.14861586
v 87.51465463 98.07536570 21.62717786
v 88.04719894 98.14977990 22.08989330
v 88.82756222 97.82630382 22.08989330
v 86.27029124 98.80888592 22.08989330
v 87.20883612 98.46718418 22.08989330
v 87.21147229 98.38061867 21.94569072
v 86.93992780 98.18470943 21.44969801
v 87.63592732 98.30772371 22.08989330
f 1 2 3
f 1 3 4
f 1 4 5
f 1 5 6
f 1 6 7
f 1 7 19
f 1 19 17
f 1 17 32
f 1 32 48
f 1 48 109
f 1 109 105
f 1 105 173
f 1 173 174
f 1 174 178
f 1 178 268
f 1 268 357
f 1 357 280
f 1 280 367
f 1 367 276
f 1 276 183
f 1 183 114
f 1 114 52
f 1 52 37
f 1 37 21
f 1 21 8
f 1 8 2
f 2 8 20
f 2 20 36
f 2 36 51
f 2 51 113
f 2 113 182
f 2 182 274
f 2 274 273
f 2 273 363
f 2 363 451
f 2 451 542
f 2 542 635
f 2 635 710
f 2 710 791
f 2 791 871
f 2 871 937
f 2 937 936
f 2 936 939
f 2 939 971
f 2 971 970
f 2 970 916
f 2 916 915
f 2 915 914
f 2 914 913
f 2 913 912
f 2 912 839
f 2 839 838
f 2 838 759
f 2 759 685
f 2 685 684
f 2 684 683
f 2 683 608
f 2 608 607
f 2 607 522
f 2 522 432
f 2 432 343
f 2 343 250
f 2 250 249
f 2 249 161
f 2 161 160
f 2 160 159
f 2 159 157
f 2 157 110
f 2 110 49
f 2 49 35
f 2 35 34
f 2 34 23
f 2 23 12
f 2 12 11
f 2 11 9
f 2 9 3
f 3 9 4
f 4 10 5
f 4 9 11
f 4 11 12
f 4 12 10
f 5 13 14
f 5 14 15
f 5 15 16
f 5 16 17
f 5 17 6
f 5 10 18
f 5 18 13
f 6 17 19
f 6 19 7
f 8 21 22
f 8 22 20
f 10 12 23
f 10 23 18
f 13 18 14
f 14 24 25
f 14 25 26
f 14 26 27
f 14 27 28
f 14 28 15
f 14 18 24
f 15 28 29
f 15 29 16
f 16 29 30
f 16 30 31
f 16 31 32
f 16 32 17
f 18 33 24
f 18 23 34
f 18 34 35
f 18 35 33
f 20 22 38
f 20 38 91
f 20 91 155
f 20 155 243
f 20 243 339
f 20 339 338
f 20 338 336
f 20 336 428
f 20 428 514
f 20 514 599
f 20 599 598
f 20 598 597
f 20 597 596
f 20 596 679
f 20 679 753
f 20 753 758
f 20 758 837
f 20 837 903
f 20 903 905
f 20 905 904
f 20 904 911
f 20 911 968
f 20 968 969
f 20 969 1021
f 20 1021 1053
f 20 1053 1049
f 20 1049 1067
f 20 1067 1066
f 20 1066 1072
f 20 1072 1069
f 20 1069 1068
f 20 1068 1058
f 20 1058 1057
f 20 1057 1056
f 20 1056 1027
f 20 1027 1026
f 20 1026 985
f 20 985 931
f 20 931 865
f 20 865 787
f 20 787 784
f 20 784 701
f 20 701 629
f 20 629 537
f 20 537 535
f 20 535 446
f 20 446 358
f 20 358 269
f 20 269 179
f 20 179 111
f 20 111 50
f 20 50 36
f 21 37 90
f 21 90 38
f 21 38 22
f 24 33 25
f 25 39 26
f 25 33 40
f 25 40 39
f 26 39 41
f 26 41 42
f 26 42 43
f 26 43 44
f 26 44 27
f 27 44 28
f 28 44 45
f 28 45 29
f 29 45 30
f 30 45 46
f 30 46 47
f 30 47 31
f 31 47 32
f 32 47 48
f 33 35 49
f 33 49 40
f 36 50 51
f 37 52 53
f 37 53 54
f 37 54 55
f 37 55 56
f 37 56 57
f 37 57 58
f 37 58 59
f 37 59 60
f 37 60 61
f 37 61 62
f 37 62 63
f 37 63 64
f 37 64 65
f 37 65 66
f 37 66 67
f 37 67 68
f 37 68 69
f 37 69 70
f 37 70 71
f 37 71 72
f 37 72 73
f 37 73 74
f 37 74 75
f 37 75 76
f 37 76 77
f 37 77 78
f 37 78 79
f 37 79 80
f 37 80 81
f 37 81 82
f 37 82 83
f 37 83 84
f 37 84 85
f 37 85 86
f 37 86 87
f 37 87 88
f 37 88 89
f 37 89 90
f 38 90 152
f 38 152 237
f 38 237 332
f 38 332 419
f 38 419 418
f 38 418 417
f 38 417 416
f 38 416 415
f 38 415 414
f 38 414 507
f 38 507 594
f 38 594 509
f 38 509 508
f 38 508 421
f 38 421 333
f 38 333 238
f 38 238 153
f 38 153 91
f 39 92 41
f 39 40 49
f 39 49 93
f 39 93 94
f 39 94 95
f 39 95 92
f 41 96 97
f 41 97 42
f 41 92 96
f 42 97 98
f 42 98 99
f 42 99 100
f 42 100 43
f 43 100 101
f 43 101 45
f 43 45 44
f 45 101 102
f 45 102 103
f 45 103 46
f 46 104 105
f 46 105 47
f 46 103 106
f 46 106 107
f 46 107 108
f 46 108 104
f 47 105 109
f 47 109 48
f 49 110 93
f 50 111 112
f 50 112 51
f 51 112 113
f 52 114 115
f 52 115 116
f 52 116 117
f 52 117 118
f 52 118 53
f 53 118 54
f 54 119 55
f 54 118 119
f 55 119 56
f 56 119 57
f 57 119 58
f 58 120 121
f 58 121 59
f 58 119 120
f 59 121 60
f 60 121 61
f 61 121 122
f 61 122 123
f 61 123 62
f 62 123 63
f 63 123 124
f 63 124 125
f 63 125 64
f 64 125 124
f 64 124 126
f 64 126 65
f 65 127 128
f 65 128 129
f 65 129 66
f 65 126 130
f 65 130 131
f 65 131 127
f 66 129 67
f 67 129 132
f 67 132 68
f 68 133 69
f 68 132 129
f 68 129 133
f 69 133 70
f 70 133 134
f 70 134 71
f 71 134 135
f 71 135 72
f 72 135 136
f 72 136 137
f 72 137 73
f 73 137 74
f 74 137 75
f 75 138 76
f 75 137 138
f 76 138 77
f 77 139 78
f 77 138 140
f 77 140 139
f 78 139 79
f 79 139 141
f 79 141 80
f 80 141 142
f 80 142 81
f 81 142 82
f 82 142 83
f 83 143 84
f 83 142 144
f 83 144 143
f 84 143 85
f 85 145 86
f 85 143 146
f 85 146 147
f 85 147 145
f 86 145 148
f 86 148 149
f 86 149 150
f 86 150 87
f 87 150 88
f 88 150 89
f 89 150 149
f 89 149 151
f 89 151 152
f 89 152 90
f 91 153 154
f 91 154 155
f 92 156 96
f 92 95 156
f 93 110 157
f 93 157 94
f 94 157 95
f 95 158 156
f 95 157 159
f 95 159 160
f 95 160 161
f 95 161 158
f 96 162 163
f 96 163 164
f 96 164 165
f 96 165 97
f 96 156 162
f 97 165 166
f 97 166 98
f 98 167 168
f 98 168 99
f 98 166 169
f 98 169 167
f 99 170 100
f 99 168 171
f 99 171 170
f 100 170 101
f 101 170 102
f 102 170 171
f 102 171 103
f 103 171 172
f 103 172 106
f 104 173 105
f 104 108 174
f 104 174 173
f 106 172 175
f 106 175 176
f 106 176 107
f 107 176 177
f 107 177 108
f 108 177 178
f 108 178 174
f 111 179 112
f 112 179 180
f 112 180 181
f 112 181 182
f 112 182 113
f 114 183 184
f 114 184 115
f 115 184 185
f 115 185 186
f 115 186 187
f 115 187 188
f 115 188 189
f 115 189 116
f 116 189 190
f 116 190 117
f 117 191 119
f 117 119 118
f 117 190 191
f 119 192 193
f 119 193 194
f 119 194 195
f 119 195 122
f 119 122 196
f 119 196 197
f 119 197 120
f 119 191 198
f 119 198 192
f 120 196 121
f 120 197 196
f 121 199 122
f 121 196 199
f 122 195 200
f 122 200 201
f 122 201 202
f 122 202 203
f 122 203 204
f 122 204 123
f 122 199 196
f 123 204 124
f 124 204 126
f 126 204 130
f 127 205 129
f 127 129 128
f 127 131 205
f 129 205 206
f 129 206 207
f 129 207 208
f 129 208 209
f 129 209 210
f 129 210 211
f 129 211 212
f 129 212 134
f 129 134 133
f 130 213 131
f 130 204 213
f 131 213 214
f 131 214 205
f 134 212 135
f 135 211 136
f 135 212 215
f 135 215 211
f 136 216 137
f 136 211 216
f 137 216 217
f 137 217 138
f 138 217 216
f 138 216 218
f 138 218 140
f 139 140 219
f 139 219 141
f 140 220 219
f 140 218 220
f 141 221 222
f 141 222 142
f 141 219 223
f 141 223 221
f 142 222 224
f 142 224 144
f 143 144 146
f 144 224 221
f 144 221 225
f 144 225 226
f 144 226 227
f 144 227 228
f 144 228 229
f 144 229 230
f 144 230 231
f 144 231 146
f 145 147 232
f 145 232 233
f 145 233 148
f 146 231 147
f 147 231 232
f 148 233 149
f 149 234 235
f 149 235 151
f 149 233 236
f 149 236 234
f 151 235 152
f 152 235 237
f 153 238 239
f 153 239 154
f 154 239 240
f 154 240 241
f 154 241 242
f 154 242 243
f 154 243 155
f 156 244 245
f 156 245 163
f 156 163 246
f 156 246 162
f 156 158 244
f 158 247 248
f 158 248 244
f 158 161 249
f 158 249 250
f 158 250 247
f 162 246 163
f 163 245 244
f 163 244 251
f 163 251 252
f 163 252 253
f 163 253 254
f 163 254 255
f 163 255 164
f 164 255 169
f 164 169 166
f 164 166 165
f 167 256 257
f 167 257 258
f 167 258 168
f 167 169 259
f 167 259 256
f 168 258 260
f 168 260 261
f 168 261 262
f 168 262 171
f 169 255 259
f 171 262 263
f 171 263 172
f 172 263 175
f 175 264 185
f 175 185 265
f 175 265 266
f 175 266 176
f 175 263 261
f 175 261 260
f 175 260 264
f 176 266 177
f 177 266 267
f 177 267 268
f 177 268 178
f 179 269 180
f 180 270 181
f 180 269 271
f 180 271 270
f 181 272 273
f 181 273 274
f 181 274 182
f 181 270 275
f 181 275 272
f 183 276 184
f 184 276 277
f 184 277 185
f 185 278 279
f 185 279 186
f 185 277 280
f 185 280 267
f 185 267 281
f 185 281 265
f 185 264 282
f 185 282 278
f 186 279 283
f 186 283 187
f 187 283 284
f 187 284 285
f 187 285 188
f 188 285 191
f 188 191 286
f 188 286 190
f 188 190 189
f 190 286 191
f 191 285 284
f 191 284 198
f 192 287 288
f 192 288 193
f 192 198 289
f 192 289 290
f 192 290 287
f 193 288 194
f 194 288 200
f 194 200 195
f 198 284 291
f 198 291 289
f 200 288 201
f 201 292 202
f 201 288 293
f 201 293 292
f 202 292 294
f 202 294 295
f 202 295 296
f 202 296 203
f 203 296 213
f 203 213 204
f 205 214 206
f 206 297 207
f 206 214 298
f 206 298 299
f 206 299 300
f 206 300 301
f 206 301 297
f 207 297 208
f 208 297 302
f 208 302 303
f 208 303 304
f 208 304 305
f 208 305 306
f 208 306 307
f 208 307 209
f 209 307 210
f 210 307 308
f 210 308 216
f 210 216 211
f 211 215 212
f 213 298 214
f 213 296 298
f 216 309 310
f 216 310 218
f 216 308 311
f 216 311 309
f 218 310 312
f 218 312 220
f 219 220 313
f 219 313 223
f 220 312 313
f 221 226 225
f 221 224 222
f 221 223 313
f 221 313 312
f 221 312 314
f 221 314 315
f 221 315 316
f 221 316 226
f 226 317 318
f 226 318 227
f 226 316 319
f 226 319 320
f 226 320 321
f 226 321 317
f 227 318 322
f 227 322 228
f 228 322 323
f 228 323 324
f 228 324 229
f 229 324 233
f 229 233 230
f 230 232 231
f 230 233 232
f 233 325 236
f 233 324 323
f 233 323 325
f 234 236 326
f 234 326 327
f 234 327 328
f 234 328 329
f 234 329 330
f 234 330 237
f 234 237 235
f 236 325 331
f 236 331 326
f 237 330 332
f 238 333 239
f 239 334 335
f 239 335 240
f 239 333 334
f 240 335 241
f 241 336 242
f 241 335 337
f 241 337 336
f 242 336 338
f 242 338 339
f 242 339 243
f 244 248 251
f 247 340 248
f 247 250 340
f 248 341 252
f 248 252 251
f 248 340 342
f 248 342 341
f 250 343 340
f 252 341 344
f 252 344 345
f 252 345 346
f 252 346 253
f 253 346 347
f 253 347 254
f 254 347 255
f 255 347 348
f 255 348 259
f 256 349 257
f 256 259 349
f 257 350 351
f 257 351 352
f 257 352 258
f 257 349 350
f 258 352 260
f 259 348 353
f 259 353 354
f 259 354 349
f 260 352 355
f 260 355 356
f 260 356 282
f 260 282 264
f 261 263 262
f 265 281 266
f 266 281 267
f 267 280 357
f 267 357 268
f 269 358 359
f 269 359 271
f 270 271 360
f 270 360 275
f 271 359 360
f 272 361 273
f 272 275 362
f 272 362 361
f 273 361 363
f 275 360 364
f 275 364 365
f 275 365 366
f 275 366 362
f 276 367 277
f 277 367 280
f 278 282 368
f 278 368 369
f 278 369 279
f 279 369 370
f 279 370 283
f 282 371 368
f 282 356 371
f 283 370 284
f 284 370 369
f 284 369 291
f 287 290 372
f 287 372 373
f 287 373 288
f 288 374 375
f 288 375 293
f 288 373 374
f 289 291 290
f 290 291 372
f 291 369 376
f 291 376 377
f 291 377 372
f 292 378 294
f 292 293 378
f 293 375 378
f 294 379 295
f 294 378 380
f 294 380 379
f 295 379 381
f 295 381 300
f 295 300 299
f 295 299 382
f 295 382 296
f 296 382 298
f 297 301 383
f 297 383 302
f 298 382 299
f 300 384 301
f 300 381 384
f 301 384 385
f 301 385 383
f 302 383 386
f 302 386 303
f 303 387 388
f 303 388 389
f 303 389 304
f 303 386 385
f 303 385 384
f 303 384 390
f 303 390 391
f 303 391 387
f 304 389 305
f 305 388 392
f 305 392 393
f 305 393 306
f 305 389 388
f 306 393 307
f 307 393 308
f 308 393 311
f 309 311 394
f 309 394 395
f 309 395 396
f 309 396 397
f 309 397 398
f 309 398 310
f 310 398 312
f 311 393 388
f 311 388 394
f 312 398 315
f 312 315 314
f 315 399 320
f 315 320 319
f 315 319 316
f 315 398 400
f 315 400 399
f 317 321 320
f 317 320 401
f 317 401 402
f 317 402 403
f 317 403 404
f 317 404 322
f 317 322 318
f 320 399 405
f 320 405 396
f 320 396 401
f 322 404 406
f 322 406 407
f 322 407 408
f 322 408 409
f 322 409 323
f 323 409 325
f 325 409 410
f 325 410 331
f 326 411 412
f 326 412 327
f 326 331 413
f 326 413 411
f 327 414 415
f 327 415 328
f 327 412 414
f 328 415 416
f 328 416 417
f 328 417 329
f 329 417 418
f 329 418 419
f 329 419 332
f 329 332 330
f 331 410 420
f 331 420 413
f 333 421 334
f 334 421 422
f 334 422 335
f 335 422 423
f 335 423 411
f 335 411 424
f 335 424 425
f 335 425 426
f 335 426 337
f 336 337 427
f 336 427 428
f 337 426 429
f 337 429 430
f 337 430 427
f 340 343 432
f 340 432 342
f 341 342 431
f 341 431 344
f 342 432 431
f 344 433 434
f 344 434 345
f 344 431 433
f 345 434 346
f 346 435 436
f 346 436 437
f 346 437 347
f 346 434 435
f 347 437 438
f 347 438 439
f 347 439 348
f 348 439 440
f 348 440 353
f 349 354 350
f 350 354 351
f 351 441 442
f 351 442 443
f 351 443 352
f 351 354 444
f 351 444 441
f 352 443 355
f 353 440 444
f 353 444 354
f 355 443 445
f 355 445 368
f 355 368 356
f 356 368 371
f 358 446 359
f 359 447 360
f 359 446 448
f 359 448 449
f 359 449 447
f 360 447 364
f 361 450 451
f 361 451 363
f 361 362 452
f 361 452 450
f 362 366 453
f 362 453 452
f 364 447 454
f 364 454 365
f 365 454 455
f 365 455 366
f 366 455 456
f 366 456 453
f 368 445 369
f 369 445 376
f 372 457 458
f 372 458 373
f 372 377 376
f 372 376 459
f 372 459 460
f 372 460 457
f 373 458 374
f 374 461 462
f 374 462 463
f 374 463 464
f 374 464 375
f 374 458 465
f 374 465 461
f 375 464 380
f 375 380 378
f 376 466 467
f 376 467 459
f 376 445 466
f 379 380 381
f 380 464 468
f 380 468 381
f 381 468 469
f 381 469 470
f 381 470 471
f 381 471 472
f 381 472 473
f 381 473 474
f 381 474 475
f 381 475 476
f 381 476 384
f 383 385 386
f 384 476 390
f 387 391 477
f 387 477 478
f 387 478 388
f 388 478 479
f 388 479 480
f 388 480 481
f 388 481 482
f 388 482 396
f 388 396 483
f 388 483 484
f 388 484 394
f 388 393 392
f 390 476 477
f 390 477 391
f 394 483 395
f 394 484 483
f 395 483 396
f 396 482 485
f 396 485 486
f 396 486 487
f 396 487 488
f 396 488 489
f 396 489 490
f 396 490 491
f 396 491 492
f 396 492 402
f 396 402 401
f 396 405 397
f 397 405 399
f 397 399 400
f 397 400 398
f 402 492 491
f 402 491 493
f 402 493 403
f 403 493 406
f 403 406 404
f 406 493 494
f 406 494 407
f 407 494 495
f 407 495 496
f 407 496 497
f 407 497 429
f 407 429 498
f 407 498 499
f 407 499 500
f 407 500 410
f 407 410 408
f 408 410 409
f 410 500 501
f 410 501 420
f 411 423 502
f 411 502 503
f 411 503 504
f 411 504 412
f 411 413 420
f 411 420 505
f 411 505 506
f 411 506 424
f 412 504 503
f 412 503 414
f 414 503 507
f 420 501 505
f 421 508 422
f 422 502 423
f 422 508 509
f 422 509 502
f 424 506 510
f 424 510 499
f 424 499 511
f 424 511 425
f 425 511 429
f 425 429 426
f 427 430 429
f 427 429 512
f 427 512 428
f 428 512 513
f 428 513 514
f 429 515 516
f 429 516 498
f 429 497 517
f 429 517 518
f 429 518 519
f 429 519 520
f 429 520 513
f 429 513 512
f 429 511 515
f 431 521 433
f 431 432 522
f 431 522 521
f 433 523 524
f 433 524 435
f 433 435 434
f 433 521 523
f 435 524 525
f 435 525 436
f 436 525 526
f 436 526 438
f 436 438 437
f 438 526 527
f 438 527 528
f 438 528 439
f 439 528 440
f 440 528 444
f 441 529 530
f 441 530 531
f 441 531 442
f 441 444 529
f 442 531 532
f 442 532 533
f 442 533 445
f 442 445 443
f 444 534 529
f 444 528 534
f 445 533 466
f 446 535 448
f 447 449 536
f 447 536 454
f 448 535 537
f 448 537 538
f 448 538 539
f 448 539 449
f 449 539 540
f 449 540 536
f 450 541 542
f 450 542 451
f 450 452 541
f 452 543 541
f 452 453 543
f 453 544 543
f 453 456 545
f 453 545 544
f 454 536 455
f 455 536 546
f 455 546 456
f 456 546 547
f 456 547 548
f 456 548 545
f 457 549 550
f 457 550 458
f 457 460 551
f 457 551 549
f 458 550 465
f 459 467 552
f 459 552 460
f 460 552 551
f 461 465 553
f 461 553 554
f 461 554 555
f 461 555 462
f 462 555 463
f 463 555 469
f 463 469 468
f 463 468 464
f 465 550 553
f 466 556 552
f 466 552 467
f 466 533 557
f 466 557 556
f 469 555 554
f 469 554 470
f 470 554 558
f 470 558 559
f 470 559 560
f 470 560 561
f 470 561 562
f 470 562 563
f 470 563 471
f 471 563 564
f 471 564 472
f 472 564 473
f 473 563 474
f 473 564 563
f 474 563 565
f 474 565 566
f 474 566 567
f 474 567 568
f 474 568 477
f 474 477 569
f 474 569 475
f 475 569 476
f 476 569 477
f 477 568 478
f 478 570 571
f 478 571 480
f 478 480 479
f 478 568 572
f 478 572 570
f 480 571 570
f 480 570 573
f 480 573 574
f 480 574 575
f 480 575 485
f 480 485 481
f 481 485 482
f 485 575 576
f 485 576 487
f 485 487 486
f 487 577 578
f 487 578 579
f 487 579 580
f 487 580 581
f 487 581 488
f 487 576 574
f 487 574 582
f 487 582 583
f 487 583 584
f 487 584 577
f 488 585 489
f 488 581 585
f 489 585 580
f 489 580 490
f 490 586 587
f 490 587 588
f 490 588 589
f 490 589 590
f 490 590 495
f 490 495 493
f 490 493 491
f 490 580 591
f 490 591 592
f 490 592 586
f 493 495 494
f 495 593 496
f 495 590 593
f 496 517 497
f 496 593 517
f 498 516 499
f 499 516 515
f 499 515 511
f 499 510 500
f 500 510 501
f 501 510 506
f 501 506 505
f 502 509 594
f 502 594 507
f 502 507 503
f 513 520 595
f 513 595 596
f 513 596 597
f 513 597 598
f 513 598 599
f 513 599 514
f 517 593 589
f 517 589 588
f 517 588 600
f 517 600 601
f 517 601 602
f 517 602 519
f 517 519 518
f 519 602 603
f 519 603 604
f 519 604 605
f 519 605 520
f 520 605 595
f 521 606 523
f 521 522 607
f 521 607 608
f 521 608 606
f 523 606 609
f 523 609 610
f 523 610 524
f 524 611 525
f 524 610 611
f 525 612 613
f 525 613 614
f 525 614 615
f 525 615 526
f 525 611 612
f 526 615 616
f 526 616 617
f 526 617 618
f 526 618 619
f 526 619 620
f 526 620 621
f 526 621 622
f 526 622 527
f 527 622 534
f 527 534 528
f 529 623 624
f 529 624 625
f 529 625 530
f 529 534 622
f 529 622 623
f 530 625 626
f 530 626 531
f 531 626 627
f 531 627 532
f 532 627 557
f 532 557 533
f 536 540 628
f 536 628 546
f 537 629 630
f 537 630 631
f 537 631 538
f 538 631 539
f 539 632 540
f 539 631 632
f 540 632 633
f 540 633 628
f 541 634 542
f 541 543 634
f 542 634 635
f 543 544 634
f 544 636 637
f 544 637 634
f 544 545 636
f 545 638 636
f 545 548 639
f 545 639 638
f 546 628 547
f 547 628 640
f 547 640 548
f 548 640 641
f 548 641 639
f 549 642 553
f 549 553 550
f 549 551 642
f 551 552 556
f 551 556 643
f 551 643 644
f 551 644 642
f 553 642 645
f 553 645 554
f 554 645 558
f 556 646 643
f 556 557 627
f 556 627 646
f 558 645 647
f 558 647 648
f 558 648 559
f 559 649 650
f 559 650 560
f 559 648 649
f 560 650 561
f 561 650 651
f 561 651 652
f 561 652 562
f 562 652 563
f 563 652 653
f 563 653 565
f 565 653 566
f 566 653 654
f 566 654 655
f 566 655 656
f 566 656 657
f 566 657 658
f 566 658 659
f 566 659 567
f 567 659 572
f 567 572 568
f 570 572 574
f 570 574 573
f 572 659 660
f 572 660 661
f 572 661 574
f 574 661 662
f 574 662 663
f 574 663 583
f 574 583 582
f 574 576 575
f 577 664 665
f 577 665 578
f 577 584 583
f 577 583 664
f 578 665 666
f 578 666 579
f 579 666 580
f 580 585 581
f 580 666 591
f 583 663 667
f 583 667 657
f 583 657 668
f 583 668 669
f 583 669 670
f 583 670 664
f 586 592 671
f 586 671 587
f 587 671 672
f 587 672 673
f 587 673 674
f 587 674 675
f 587 675 603
f 587 603 601
f 587 601 600
f 587 600 588
f 589 593 590
f 591 666 592
f 592 666 665
f 592 665 664
f 592 664 676
f 592 676 677
f 592 677 678
f 592 678 671
f 595 605 679
f 595 679 596
f 601 603 602
f 603 675 674
f 603 674 604
f 604 674 680
f 604 680 605
f 605 680 681
f 605 681 682
f 605 682 679
f 606 608 683
f 606 683 684
f 606 684 685
f 606 685 686
f 606 686 687
f 606 687 609
f 609 687 610
f 610 687 688
f 610 688 612
f 610 612 611
f 612 689 690
f 612 690 613
f 612 688 689
f 613 690 614
f 614 691 692
f 614 692 693
f 614 693 617
f 614 617 616
f 614 616 615
f 614 690 691
f 617 694 618
f 617 693 694
f 618 695 620
f 618 620 619
f 618 694 696
f 618 696 695
f 620 695 621
f 621 695 622
f 622 695 623
f 623 695 624
f 624 697 698
f 624 698 625
f 624 695 697
f 625 698 627
f 625 627 626
f 627 699 646
f 627 698 699
f 628 633 700
f 628 700 640
f 629 701 630
f 630 702 631
f 630 701 703
f 630 703 704
f 630 704 702
f 631 702 705
f 631 705 632
f 632 705 706
f 632 706 633
f 633 706 700
f 634 707 635
f 634 637 708
f 634 708 709
f 634 709 707
f 635 707 710
f 636 711 708
f 636 708 637
f 636 638 711
f 638 712 713
f 638 713 711
f 638 639 714
f 638 714 715
f 638 715 712
f 639 716 717
f 639 717 714
f 639 641 718
f 639 718 716
f 640 700 719
f 640 719 720
f 640 720 641
f 641 720 718
f 642 721 647
f 642 647 645
f 642 644 722
f 642 722 721
f 643 646 723
f 643 723 724
f 643 724 644
f 644 724 722
f 646 699 723
f 647 721 648
f 648 721 725
f 648 725 726
f 648 726 727
f 648 727 728
f 648 728 649
f 649 728 650
f 650 729 730
f 650 730 651
f 650 728 731
f 650 731 732
f 650 732 733
f 650 733 729
f 651 653 652
f 651 730 653
f 653 730 734
f 653 734 654
f 654 734 730
f 654 730 735
f 654 735 736
f 654 736 737
f 654 737 655
f 655 737 738
f 655 738 656
f 656 739 657
f 656 738 739
f 657 740 658
f 657 739 741
f 657 741 742
f 657 742 668
f 657 667 662
f 657 662 740
f 658 740 659
f 659 740 662
f 659 662 660
f 660 662 661
f 662 667 663
f 664 743 677
f 664 677 676
f 664 670 744
f 664 744 745
f 664 745 746
f 664 746 743
f 668 742 669
f 669 742 741
f 669 741 745
f 669 745 744
f 669 744 670
f 671 678 672
f 672 747 673
f 672 678 747
f 673 747 674
f 674 681 680
f 674 747 748
f 674 748 749
f 674 749 750
f 674 750 681
f 677 743 678
f 678 743 751
f 678 751 752
f 678 752 747
f 679 682 753
f 681 750 754
f 681 754 755
f 681 755 756
f 681 756 757
f 681 757 758
f 681 758 753
f 681 753 682
f 685 759 686
f 686 760 687
f 686 759 760
f 687 761 762
f 687 762 688
f 687 760 761
f 688 762 689
f 689 763 690
f 689 762 763
f 690 763 764
f 690 764 765
f 690 765 691
f 691 766 767
f 691 767 768
f 691 768 692
f 691 765 769
f 691 769 770
f 691 770 771
f 691 771 772
f 691 772 766
f 692 768 773
f 692 773 693
f 693 773 774
f 693 774 694
f 694 774 775
f 694 775 776
f 694 776 777
f 694 777 778
f 694 778 696
f 695 696 697
f 696 778 779
f 696 779 780
f 696 780 699
f 696 699 697
f 697 699 698
f 699 780 781
f 699 781 782
f 699 782 723
f 700 706 783
f 700 783 719
f 701 784 703
f 702 785 706
f 702 706 705
f 702 704 786
f 702 786 785
f 703 784 787
f 703 787 788
f 703 788 704
f 704 788 789
f 704 789 786
f 706 785 783
f 707 790 791
f 707 791 710
f 707 709 792
f 707 792 790
f 708 711 713
f 708 713 709
f 709 713 793
f 709 793 792
f 712 794 793
f 712 793 713
f 712 715 794
f 714 717 715
f 715 795 794
f 715 717 795
f 716 718 717
f 717 718 796
f 717 796 874
f 717 874 797
f 717 797 795
f 718 720 798
f 718 798 796
f 719 783 799
f 719 799 800
f 719 800 720
f 720 800 801
f 720 801 798
f 721 802 803
f 721 803 804
f 721 804 725
f 721 722 724
f 721 724 802
f 723 782 803
f 723 803 724
f 724 803 802
f 725 805 806
f 725 806 726
f 725 804 803
f 725 803 807
f 725 807 808
f 725 808 805
f 726 806 731
f 726 731 727
f 727 731 728
f 729 809 730
f 729 733 809
f 730 809 735
f 731 806 732
f 732 810 733
f 732 806 811
f 732 811 810
f 733 810 812
f 733 812 813
f 733 813 814
f 733 814 815
f 733 815 816
f 733 816 809
f 735 809 736
f 736 817 737
f 736 809 817
f 737 817 738
f 738 818 739
f 738 817 816
f 738 816 819
f 738 819 818
f 739 818 741
f 741 818 820
f 741 820 821
f 741 821 822
f 741 822 823
f 741 823 745
f 743 746 824
f 743 824 823
f 743 823 825
f 743 825 826
f 743 826 827
f 743 827 828
f 743 828 829
f 743 829 830
f 743 830 751
f 745 824 746
f 745 823 824
f 747 752 749
f 747 749 748
f 749 755 750
f 749 752 831
f 749 831 832
f 749 832 755
f 750 755 754
f 751 831 752
f 751 830 831
f 755 833 756
f 755 832 834
f 755 834 835
f 755 835 836
f 755 836 833
f 756 833 758
f 756 758 757
f 758 833 837
f 759 838 760
f 760 838 839
f 760 839 840
f 760 840 761
f 761 840 841
f 761 841 842
f 761 842 843
f 761 843 762
f 762 843 764
f 762 764 763
f 764 844 769
f 764 769 765
f 764 843 844
f 766 772 845
f 766 845 797
f 766 797 846
f 766 846 767
f 767 846 847
f 767 847 768
f 768 847 848
f 768 848 849
f 768 849 773
f 769 844 770
f 770 850 851
f 770 851 852
f 770 852 793
f 770 793 794
f 770 794 853
f 770 853 771
f 770 844 850
f 771 853 845
f 771 845 772
f 773 849 854
f 773 854 855
f 773 855 774
f 774 855 856
f 774 856 775
f 775 856 857
f 775 857 776
f 776 857 858
f 776 858 777
f 777 858 859
f 777 859 778
f 778 859 779
f 779 859 858
f 779 858 860
f 779 860 780
f 780 860 861
f 780 861 781
f 781 861 782
f 782 861 860
f 782 860 862
f 782 862 803
f 783 785 786
f 783 786 863
f 783 863 799
f 786 789 868
f 786 868 864
f 786 864 863
f 787 865 866
f 787 866 788
f 788 866 867
f 788 867 789
f 789 867 869
f 789 869 868
f 790 870 871
f 790 871 791
f 790 792 870
f 792 872 873
f 792 873 870
f 792 793 872
f 793 852 851
f 793 851 872
f 794 795 853
f 795 845 853
f 795 797 845
f 796 798 875
f 796 875 874
f 797 874 846
f 798 801 875
f 799 863 864
f 799 864 876
f 799 876 877
f 799 877 800
f 800 877 878
f 800 878 879
f 800 879 801
f 801 879 880
f 801 880 875
f 803 862 807
f 805 808 881
f 805 881 806
f 806 881 882
f 806 882 811
f 807 862 883
f 807 883 808
f 808 883 881
f 809 816 817
f 810 811 884
f 810 884 812
f 811 882 884
f 812 884 885
f 812 885 813
f 813 886 814
f 813 885 886
f 814 886 887
f 814 887 888
f 814 888 815
f 815 888 816
f 816 889 819
f 816 888 890
f 816 890 891
f 816 891 889
f 818 819 892
f 818 892 820
f 819 889 893
f 819 893 894
f 819 894 892
f 820 892 894
f 820 894 821
f 821 894 895
f 821 895 822
f 822 895 896
f 822 896 897
f 822 897 898
f 822 898 823
f 823 898 899
f 823 899 826
f 823 826 825
f 826 900 901
f 826 901 827
f 826 899 900
f 827 901 828
f 828 901 829
f 829 901 902
f 829 902 835
f 829 835 834
f 829 834 832
f 829 832 830
f 830 832 831
f 833 836 903
f 833 903 837
f 835 904 905
f 835 905 836
f 835 902 906
f 835 906 907
f 835 907 908
f 835 908 909
f 835 909 910
f 835 910 911
f 835 911 904
f 836 905 903
f 839 912 840
f 840 912 913
f 840 913 914
f 840 914 841
f 841 914 915
f 841 915 916
f 841 916 917
f 841 917 842
f 842 917 918
f 842 918 851
f 842 851 850
f 842 850 843
f 843 850 844
f 846 874 919
f 846 919 920
f 846 920 921
f 846 921 847
f 847 921 848
f 848 921 849
f 849 921 854
f 851 918 922
f 851 922 923
f 851 923 872
f 854 921 924
f 854 924 925
f 854 925 857
f 854 857 855
f 855 857 856
f 857 925 858
f 858 926 927
f 858 927 928
f 858 928 860
f 858 925 926
f 860 929 883
f 860 883 862
f 860 928 929
f 864 868 930
f 864 930 876
f 865 931 866
f 866 931 932
f 866 932 869
f 866 869 867
f 868 869 933
f 868 933 934
f 868 934 930
f 869 932 935
f 869 935 933
f 870 873 936
f 870 936 937
f 870 937 871
f 872 923 938
f 872 938 939
f 872 939 873
f 873 939 936
f 874 875 880
f 874 880 919
f 876 930 940
f 876 940 877
f 877 940 878
f 878 940 941
f 878 941 879
f 879 942 880
f 879 941 942
f 880 942 919
f 881 943 882
f 881 883 944
f 881 944 943
f 882 943 884
f 883 929 945
f 883 945 943
f 883 943 944
f 884 943 946
f 884 946 947
f 884 947 885
f 885 947 948
f 885 948 886
f 886 948 887
f 887 890 888
f 887 948 949
f 887 949 950
f 887 950 951
f 887 951 890
f 889 952 893
f 889 891 952
f 890 953 891
f 890 951 953
f 891 953 954
f 891 954 955
f 891 955 956
f 891 956 957
f 891 957 958
f 891 958 959
f 891 959 960
f 891 960 952
f 893 895 894
f 893 952 895
f 895 952 896
f 896 961 897
f 896 952 960
f 896 960 958
f 896 958 961
f 897 961 962
f 897 962 963
f 897 963 964
f 897 964 909
f 897 909 899
f 897 899 898
f 899 909 965
f 899 965 907
f 899 907 900
f 900 907 906
f 900 906 902
f 900 902 901
f 907 965 908
f 908 965 909
f 909 964 966
f 909 966 967
f 909 967 910
f 910 968 911
f 910 967 969
f 910 969 968
f 916 970 917
f 917 970 971
f 917 971 939
f 917 939 938
f 917 938 923
f 917 923 922
f 917 922 918
f 919 972 924
f 919 924 920
f 919 942 973
f 919 973 974
f 919 974 972
f 920 924 921
f 924 926 925
f 924 972 926
f 926 975 976
f 926 976 977
f 926 977 927
f 926 972 974
f 926 974 978
f 926 978 979
f 926 979 975
f 927 977 980
f 927 980 928
f 928 980 981
f 928 981 982
f 928 982 929
f 929 982 983
f 929 983 945
f 930 934 984
f 930 984 940
f 931 985 986
f 931 986 932
f 932 986 935
f 933 935 987
f 933 987 988
f 933 988 989
f 933 989 990
f 933 990 991
f 933 991 934
f 934 991 992
f 934 992 993
f 934 993 994
f 934 994 995
f 934 995 984
f 935 986 996
f 935 996 997
f 935 997 998
f 935 998 987
f 940 984 999
f 940 999 941
f 941 984 1000
f 941 1000 1001
f 941 1001 942
f 941 999 984
f 942 1001 978
f 942 978 974
f 942 974 973
f 943 1002 946
f 943 945 983
f 943 983 981
f 943 981 1003
f 943 1003 1002
f 946 1002 947
f 947 1002 950
f 947 950 1004
f 947 1004 948
f 948 1004 949
f 949 1004 950
f 950 1005 1006
f 950 1006 951
f 950 1002 1007
f 950 1007 1008
f 950 1008 1005
f 951 1006 1009
f 951 1009 1010
f 951 1010 1011
f 951 1011 953
f 953 1011 954
f 954 1011 955
f 955 1011 1012
f 955 1012 1013
f 955 1013 1014
f 955 1014 956
f 956 1015 958
f 956 958 957
f 956 1014 1015
f 958 1015 1016
f 958 1016 1017
f 958 1017 962
f 958 962 961
f 958 960 959
f 962 1017 1018
f 962 1018 963
f 963 1018 964
f 964 1018 1019
f 964 1019 1020
f 964 1020 966
f 966 1020 967
f 967 1020 1021
f 967 1021 969
f 975 979 976
f 976 1022 977
f 976 979 1023
f 976 1023 1024
f 976 1024 1022
f 977 1022 980
f 978 1001 1025
f 978 1025 1023
f 978 1023 979
f 980 1022 981
f 981 983 982
f 981 1022 1003
f 984 995 1000
f 985 1026 986
f 986 997 996
f 986 1026 1027
f 986 1027 1028
f 986 1028 1029
f 986 1029 997
f 987 998 1030
f 987 1030 1031
f 987 1031 988
f 988 1031 1032
f 988 1032 1033
f 988 1033 1034
f 988 1034 989
f 989 1034 991
f 989 991 990
f 991 1034 992
f 992 1005 1008
f 992 1008 1035
f 992 1035 993
f 992 1034 1005
f 993 1035 1036
f 993 1036 994
f 994 1036 995
f 995 1036 1000
f 997 1029 998
f 998 1029 1030
f 1000 1036 1037
f 1000 1037 1001
f 1001 1037 1025
f 1002 1003 1022
f 1002 1022 1024
f 1002 1024 1023
f 1002 1023 1025
f 1002 1025 1038
f 1002 1038 1039
f 1002 1039 1007
f 1005 1033 1032
f 1005 1032 1040
f 1005 1040 1041
f 1005 1041 1043
f 1005 1043 1009
f 1005 1009 1006
f 1005 1034 1033
f 1007 1039 1042
f 1007 1042 1035
f 1007 1035 1008
f 1009 1043 1044
f 1009 1044 1013
f 1009 1013 1010
f 1010 1013 1012
f 1010 1012 1011
f 1013 1044 1043
f 1013 1043 1014
f 1014 1043 1040
f 1014 1040 1045
f 1014 1045 1046
f 1014 1046 1015
f 1015 1046 1016
f 1016 1046 1047
f 1016 1047 1048
f 1016 1048 1049
f 1016 1049 1050
f 1016 1050 1051
f 1016 1051 1052
f 1016 1052 1017
f 1017 1052 1018
f 1018 1052 1019
f 1019 1052 1020
f 1020 1053 1021
f 1020 1052 1051
f 1020 1051 1054
f 1020 1054 1053
f 1025 1037 1055
f 1025 1055 1038
f 1027 1056 1028
f 1028 1056 1057
f 1028 1057 1058
f 1028 1058 1059
f 1028 1059 1060
f 1028 1060 1032
f 1028 1032 1031
f 1028 1031 1029
f 1029 1031 1030
f 1032 1060 1040
f 1035 1042 1036
f 1036 1042 1055
f 1036 1055 1037
f 1038 1055 1039
f 1039 1055 1042
f 1040 1060 1059
f 1040 1059 1061
f 1040 1061 1062
f 1040 1062 1063
f 1040 1063 1045
f 1040 1043 1041
f 1045 1063 1046
f 1046 1048 1047
f 1046 1063 1064
f 1046 1064 1065
f 1046 1065 1048
f 1048 1066 1067
f 1048 1067 1049
f 1048 1065 1066
f 1049 1054 1051
f 1049 1051 1050
f 1049 1053 1054
f 1058 1068 1059
f 1059 1068 1061
f 1061 1068 1069
f 1061 1069 1062
f 1062 1069 1070
f 1062 1070 1071
f 1062 1071 1063
f 1063 1071 1064
f 1064 1071 1065
f 1065 1071 1070
f 1065 1070 1072
f 1065 1072 1066
f 1069 1072 1070

