# https://github.com/mikedh/trimesh
v 86.88903988 23.50619957 43.60088405
v 86.88903988 22.64382720 43.60088405
v 86.88903988 24.07043701 43.58389485
v 85.46053424 23.50619957 43.60088405
v 84.59857060 21.78145483 43.60088405
v 85.46053424 21.78145483 43.59826973
v 86.88903988 22.34568969 43.58389485
v 86.88903988 24.36768509 43.53946431
v 73.82402888 21.78145483 43.60088405
v 81.14815954 20.91819045 43.60088405
v 82.01012254 20.91819045 43.59696386
v 82.87336507 20.91819045 43.56167958
v 86.32377549 21.78145483 43.54991901
v 86.88903988 21.73784689 43.44145700
v 86.88903988 24.79575697 43.38395745
v 73.82402888 22.55927963 43.36435393
v 73.82402888 20.91819045 43.60088405
v 73.82402888 20.49456830 43.59957561
v 74.24861630 20.05581808 43.59696386
v 75.11185851 20.05581808 43.58912348
v 75.97382183 20.05581808 43.57866878
v 76.83706404 20.05581808 43.56690821
v 77.69902736 20.05581808 43.53946431
v 83.73532807 20.91819045 43.48065890
v 82.01012254 20.23469955 43.35912787
v 82.87336507 20.30945565 43.32515203
v 85.46053424 21.07215494 43.36043374
v 86.32377549 21.18073007 43.31208302
v 86.88903988 21.50823430 43.34997904
v 86.88903988 24.97552788 43.30162832
v 73.82402888 22.96421340 42.69527905
v 73.82402888 20.05581808 43.59696386
v 73.82402888 19.73098214 43.48065890
v 74.24861630 19.39546530 43.36043374
v 75.11185851 19.41237481 43.35128749
v 75.97382183 19.42928433 43.34213866
v 76.83706404 19.44708327 43.33037809
v 78.56226957 20.05581808 43.48980515
v 77.69902736 19.48179174 43.30162832
v 78.56226957 19.53252028 43.25197173
v 79.42423289 19.58413826 43.18793767
v 79.93706249 19.61439441 43.14350714
v 83.73532807 20.39845296 43.24282290
v 84.26606266 20.45897041 43.16964260
v 86.88903988 21.26349620 43.23498252
v 86.88903988 25.14995962 42.88084285
v 86.88903988 28.27105802 30.25203267
v 73.82402888 25.88506850 30.25203267
v 73.82402888 19.39546530 43.36043374
v 74.24861630 19.17920449 42.69527905
v 75.11185851 19.20768178 42.69527905
v 75.97382183 19.24150080 42.69527905
v 76.83706404 19.28244044 42.69527905
v 77.69902736 19.35185736 42.69527905
v 78.56226957 19.44797271 42.69527905
v 79.42423289 19.55031923 42.69527905
v 79.94345690 19.61350498 42.69527905
v 80.37443873 19.68292190 42.69527905
v 81.14815954 19.82264775 42.69527905
v 82.01012254 19.97839111 42.69527905
v 82.87336507 20.13947364 42.69527905
v 86.32377549 21.01964754 42.69527905
v 86.88903988 21.18784810 42.69527905
v 86.88903988 21.23946608 43.14481301
v 83.73532807 20.32191543 42.69527905
v 84.29164029 20.45273923 42.69527905
v 86.88903988 23.24544139 30.25203267
v 73.82402888 21.13890100 30.25203267
v 73.82402888 19.28956105 43.03373668
v 73.82402888 19.18009392 42.69527905
v 73.82402888 19.19344570 42.27187926
v 74.24861630 19.20679234 41.83279871
v 75.11185851 19.24773198 40.97031709
v 75.11185851 19.22370186 41.83279871
v 75.97382183 19.25929975 41.83279871
v 75.97382183 19.28510874 40.97031709
v 76.83706404 19.31091773 41.83279871
v 77.69902736 19.37855578 41.83279871
v 78.56226957 19.48891234 40.97031709
v 78.56226957 19.46488222 41.83279871
v 79.48945521 19.57701765 41.83018440
v 79.89102276 19.61973615 42.11506524
v 81.14815954 19.82798692 41.83279871
v 82.01012254 19.98461972 41.83279871
v 82.87336507 20.15905146 41.83279871
v 85.46053424 20.79270581 41.83279871
v 86.32377549 21.04189622 41.83279871
v 86.88903988 21.19407928 42.47573813
v 82.87336507 20.18664188 40.97031709
v 83.73532807 20.35128472 41.83279871
v 84.23281174 20.47054075 41.83279871
v 84.66379356 20.57911587 41.83279871
v 85.46053424 20.81673593 40.97031709
v 86.56420523 23.13775571 30.25203267
v 86.88903988 23.16979587 30.48072048
v 86.60896480 23.12262763 30.34089438
v 74.24861630 21.13712213 30.25203267
v 73.82402888 21.02587614 30.62185374
v 73.82402888 19.20768178 41.83279871
v 74.24861630 19.24061137 40.97031709
v 75.11185851 19.29934995 40.10783675
v 76.83706404 19.34651562 40.97031709
v 75.97382183 19.33672672 40.10783675
v 76.83706404 19.39724417 40.10783675
v 77.69902736 19.41237481 40.97031709
v 79.31424971 19.57790708 40.97031709
v 78.56226957 19.53964089 40.10783675
v 79.12753332 19.60371607 40.10783675
v 79.82068491 19.62952506 41.54007749
v 80.22225245 19.68025360 41.83018440
v 81.14815954 19.86091652 40.97031709
v 82.01012254 20.00776040 40.97031709
v 86.32377549 21.07126294 40.97031709
v 86.88903988 21.21543853 41.83279871
v 83.80182992 20.40379213 40.99122520
v 82.87336507 20.23825986 40.10783675
v 84.13433785 20.49545773 40.71810749
v 84.18805088 20.48210852 41.29309396
v 84.52439546 20.57644500 40.99122520
v 84.59857060 20.64764336 40.10783675
v 85.46053424 20.86924334 40.10783675
v 86.13450229 22.99803243 30.25203267
v 86.88903988 23.03363032 30.91326781
v 86.32249789 22.94018585 30.62577458
v 75.11185851 21.14691104 30.25203267
v 74.24861630 21.02409470 30.62185374
v 73.82402888 20.77223600 31.48433473
v 73.82402888 19.24150080 40.97031709
v 74.24861630 19.29222935 40.10783675
v 74.24861630 19.36342514 39.24535512
v 74.24861630 19.44085210 38.38287478
v 75.11185851 19.37944522 39.24535512
v 75.97382183 19.41237481 39.24535512
v 76.83706404 19.46310336 39.24535512
v 77.69902736 19.46310336 40.10783675
v 79.74523089 19.64109540 40.97031709
v 77.69902736 19.53340971 39.24535512
v 78.49321028 19.60282664 39.32899013
v 78.99580883 19.62418332 39.67267639
v 80.28747477 19.92054196 38.38287478
v 80.28747477 19.84400700 39.24535512
v 79.55851482 19.66690439 40.10783675
v 80.28747477 19.72564040 40.97031709
v 81.14815954 19.91253449 40.10783675
v 82.01012254 20.05937838 40.10783675
v 86.88903988 21.25192586 40.97031709
v 86.88903988 21.22166713 41.65768833
v 86.32377549 21.12377292 40.10783675
v 83.61639272 20.41269160 40.10783675
v 82.87336507 20.31479739 39.24535512
v 83.36956921 20.47143018 38.66644847
v 83.47443751 20.44651063 39.24535512
v 83.90541933 20.54974658 39.24535512
v 84.59857060 20.72151002 39.24535512
v 85.46053424 20.95112004 39.24535512
v 86.73557537 21.35605124 38.88468223
v 85.45286096 22.78800022 30.25203267
v 85.46053424 22.66874676 30.62185374
v 86.88903988 22.85919858 31.49478942
v 86.32377549 22.67942510 31.48433473
v 75.97382183 21.18606924 30.25203267
v 75.11185851 21.03744648 30.62185374
v 74.24861630 20.77312543 31.48433473
v 73.82402888 20.56665610 32.22267036
v 73.82402888 19.29311878 40.10783675
v 73.82402888 19.32693781 39.68443696
v 73.82402888 19.36342514 39.24535512
v 73.82402888 19.39991761 38.82064946
v 73.82402888 19.43907323 38.38287478
v 75.11185851 19.46577166 38.38287478
v 74.24861630 19.54319862 37.52039444
v 75.97382183 19.49514352 38.38287478
v 76.83706404 19.53875145 38.38287478
v 77.31920080 19.61884672 37.91243014
v 80.28747477 19.77725838 40.10783675
v 77.64403545 19.60015834 38.44952058
v 78.16070202 19.62151502 38.78144499
v 79.42423289 19.80751710 38.38287478
v 81.14815954 20.06560698 38.38287478
v 81.14815954 19.98373028 39.24535512
v 80.28747477 20.02466992 37.52039444
v 82.01012254 20.14036308 39.24535512
v 86.88903988 21.30621470 40.09738205
v 86.88903988 21.36228242 39.39694308
v 82.91556752 20.40913130 38.38026047
v 83.23017176 20.50168891 38.09146072
v 83.68928833 20.57555557 38.38026047
v 84.59857060 20.80516559 38.38287478
v 85.46053424 21.04456452 38.38287478
v 86.21507183 21.25726503 38.38287478
v 86.64605366 21.38008136 38.38287478
v 86.88903988 21.45661889 38.38287478
v 86.88903988 21.39520944 39.00621326
v 85.09221634 22.68654570 30.25203267
v 85.40042681 22.38306902 31.54314079
v 84.77377610 22.27716220 31.29615726
v 84.53078987 22.39018706 30.69242038
v 84.56276191 22.53970182 30.25203267
v 86.88903988 22.69722404 32.04886778
v 86.88903988 22.60555844 32.36772382
v 86.25471588 22.39196849 32.41346151
v 76.83706404 21.24391582 30.25203267
v 76.83706404 21.13267239 30.62185374
v 75.97382183 21.07660468 30.62185374
v 75.97382183 20.83097458 31.48433473
v 75.11185851 20.79626612 31.48433473
v 74.24861630 20.56754553 32.22528468
v 73.82402888 20.45541010 32.65391182
v 73.82402888 19.54141975 37.52039444
v 75.97382183 19.58235939 37.64715282
v 74.24861630 19.61528384 37.02773454
v 74.77807136 19.62151502 37.06432469
v 75.08372311 19.57701765 37.46289490
v 76.83706404 19.60282664 37.79743362
v 78.56226957 19.81285627 37.52039444
v 79.42423289 19.91164249 37.52039444
v 77.89469561 19.65177374 38.20645853
v 76.83706404 19.66512295 37.36619217
v 77.69902736 19.84311757 36.65921998
v 78.56226957 19.92944401 36.65921998
v 82.01012254 20.23113925 38.38287478
v 81.14815954 20.16973237 37.52039444
v 79.42423289 20.03534826 36.65921998
v 80.28747477 20.15727259 36.65921998
v 81.14815954 20.29699587 36.65921998
v 82.01012254 20.33615664 37.52039444
v 82.61247386 20.45363124 37.52039444
v 83.04345568 20.53906567 37.52039444
v 83.73532807 20.69125130 37.52039444
v 84.59857060 20.91106984 37.52039444
v 85.46053424 21.15136077 37.52039444
v 86.02963400 21.31155387 37.52039444
v 86.46061582 21.43347821 37.52039444
v 86.88903988 21.56608345 37.52039444
v 85.64724968 22.28072250 32.17170597
v 85.07175423 22.20062724 31.87114436
v 84.19828194 22.20418497 31.02695846
v 84.59857060 21.94075592 32.34681571
v 83.73532807 21.71470620 32.34681571
v 83.73532807 22.28161194 30.41799487
v 84.15735772 22.43913673 30.25203267
v 86.88903988 22.38573732 33.20929605
v 86.54118536 22.27360189 33.20929605
v 85.92220923 22.20418497 32.74669307
v 78.06478622 21.32846339 30.25203267
v 76.83706404 20.87992168 31.48433473
v 76.83706404 20.63785189 32.34681571
v 76.34341733 20.48922913 32.78720342
v 76.02369789 20.57644500 32.41607583
v 75.11185851 20.46964875 32.71010292
v 74.24861630 20.45629954 32.65652485
v 73.82402888 20.39222178 32.93356403
v 73.82402888 19.61439441 37.02381435
v 75.35356649 19.63130392 37.13750500
v 75.97382183 19.64198483 37.21591265
v 74.24861630 19.68114303 36.59780024
v 75.11185851 19.81730858 35.79673964
v 75.08372311 19.67847473 36.73109312
v 75.97382183 19.72475097 36.65921998
v 75.97382183 19.85735621 35.79673964
v 76.83706404 19.77547951 36.65921998
v 77.69902736 19.97750168 35.79673964
v 78.56226957 20.05848638 35.79673964
v 81.67505684 20.46875931 36.11167484
v 81.98198779 20.43939002 36.73501331
v 79.42423289 20.17151381 35.79673964
v 80.28747477 20.30144818 35.79673964
v 81.39626129 20.51503812 35.53668838
v 82.45517206 20.48477939 37.07085791
v 82.25055164 20.52482703 36.49717861
v 82.79535329 20.60403286 36.73501331
v 83.73532807 20.82563541 36.65921998
v 84.59857060 21.04011478 36.65921998
v 85.19069022 21.30443327 35.94571328
v 85.47204289 21.26705650 36.72194559
v 85.91197817 21.34448347 37.04994980
v 85.76618567 21.38542053 36.47626921
v 86.24960035 21.49310622 36.72194559
v 86.88903988 21.60524165 37.26557053
v 83.73532807 22.14989870 30.84923504
v 83.73532807 21.96122574 31.48433473
v 82.87336507 21.76098501 31.48433473
v 84.59857060 21.72271624 33.20929605
v 83.69824050 21.47797815 33.24327317
v 83.07286996 21.39432001 32.97799456
v 82.82093092 21.49132736 32.40823545
v 83.22889288 22.21397645 30.25203267
v 83.30434625 22.23177540 30.25203267
v 83.73532807 22.33501135 30.25203267
v 86.88903988 22.24957434 33.79473850
v 86.72662191 22.22109449 33.68104785
v 86.10892466 22.14811726 33.20929605
v 85.46053424 21.76009558 34.07177767
v 85.46053424 21.96389661 33.20929605
v 78.17732748 21.33914173 30.25203267
v 77.69902736 20.95112004 31.48433473
v 77.69902736 20.71527885 32.34681571
v 76.83706404 20.50524921 32.86038372
v 75.11185851 20.35395559 33.20929605
v 76.83706404 20.41091273 33.29162389
v 75.97382183 20.19287049 34.07177767
v 75.11185851 20.15816202 34.07177767
v 74.24861630 20.33170433 33.20929605
v 73.82402888 20.32992547 33.20929605
v 73.82402888 19.68203247 36.59388005
v 74.24861630 19.80751710 35.79673964
v 75.11185851 19.97305194 34.93425801
v 75.97382183 20.01221014 34.93425801
v 76.83706404 19.91609223 35.79673964
v 76.83706404 20.07272759 34.93425801
v 77.69902736 20.13769478 34.93425801
v 78.56226957 20.21779004 34.93425801
v 79.42423289 20.32992547 34.93425801
v 81.98198779 20.57733444 35.81372756
v 80.82204601 20.47143018 35.28447750
v 81.12513967 20.58089474 34.97215532
v 82.01012254 20.74464814 34.93425801
v 82.87336507 20.77045713 35.79673964
v 83.73532807 20.97247930 35.79673964
v 85.02571578 21.35071207 35.37072553
v 85.47204289 21.42190786 35.71310464
v 86.32377549 21.66753796 35.79673964
v 86.88903988 21.69957813 36.67882221
v 86.88903988 21.75119610 36.36127141
v 82.92579857 22.04933361 30.56043465
v 82.01012254 21.57587236 31.48433473
v 82.01012254 21.82417333 30.62185374
v 84.53462652 21.49488509 34.13058309
v 83.96041060 21.39965918 33.88229369
v 83.38619467 21.33024225 33.55298231
v 82.01012254 21.13356183 33.20929605
v 82.49737516 21.33914173 32.73623838
v 82.01012254 20.93332110 34.07177767
v 82.78128559 22.11162993 30.25203267
v 86.88903988 22.16858708 34.18024097
v 86.32377549 21.83040193 34.93425801
v 86.39283509 22.04933361 34.00905078
v 85.46053424 21.56786232 34.93425801
v 84.84027794 21.39699088 34.93425801
v 78.42031403 21.36762159 30.25203267
v 78.56226957 21.25459673 30.71332913
v 78.56226957 21.04278565 31.48433473
v 78.56226957 20.81139419 32.34681571
v 77.69902736 20.54351798 33.03157392
v 77.69902736 20.44828950 33.46281280
v 77.69902736 20.31835512 34.07177767
v 76.83706404 20.24715933 34.07177767
v 74.24861630 20.14392338 34.07177767
v 73.82402888 20.23469955 33.64707073
v 73.82402888 19.81018797 35.79673964
v 73.82402888 19.96682077 34.93425801
v 74.24861630 19.96504190 34.93425801
v 78.53797081 20.40824186 34.03910771
v 78.80909276 20.50702808 33.72939857
v 79.42423289 20.54262597 33.91104218
v 79.42423289 20.45184980 34.34228235
v 80.21202140 20.44028203 34.97215532
v 79.87567618 20.48388996 34.48733580
v 80.44989274 20.52749790 34.70948975
v 80.21202140 20.60314342 34.14887817
v 81.14815954 20.77312543 34.07177767
v 82.87336507 20.92976079 34.93425801
v 82.87336507 21.11042114 34.07177767
v 83.73532807 21.13267239 34.93425801
v 83.69824050 21.28663432 34.13058309
v 86.88903988 21.84909031 35.79673964
v 82.01012254 21.40500092 32.12596828
v 81.53182274 21.35872211 31.94955138
v 81.20570921 21.42724960 31.47518719
v 81.14815954 21.66041993 30.62185374
v 81.99477660 21.93986649 30.25203267
v 81.14815954 20.96802956 33.20929605
v 81.20570921 21.21009936 32.28147578
v 86.88903988 22.00839398 34.95778044
v 78.56226957 21.38630997 30.25203267
v 78.56226957 21.37652106 30.28208896
v 79.42423289 21.31066444 30.91457497
v 79.42423289 21.15047134 31.48433473
v 79.42423289 20.91196185 32.34681571
v 79.42423289 20.69480903 33.20929605
v 78.53797081 20.58267361 33.26548844
v 78.23487683 20.47587992 33.58957246
v 73.82402888 20.14392338 34.07177767
v 73.82402888 20.05314721 34.50955235
v 80.28747477 20.81495450 33.20929605
v 80.95760682 21.30443327 31.75614720
v 80.46523868 21.38719940 31.18115945
v 80.22225245 21.49399566 30.69634121
v 79.42423289 21.43614908 30.48333416
v 80.77984292 21.71915594 30.25203267
v 81.14815954 21.77967339 30.25203267
v 80.28747477 21.03210474 32.34681571
v 79.42423289 21.50912630 30.25203267
v 79.89230164 21.34448347 31.03479948
v 80.22225245 21.26616450 31.47518719
f 1 2 7
f 1 7 14
f 1 14 29
f 1 29 45
f 1 45 64
f 1 64 63
f 1 63 88
f 1 88 114
f 1 114 147
f 1 147 146
f 1 146 183
f 1 183 184
f 1 184 193
f 1 193 192
f 1 192 234
f 1 234 279
f 1 279 323
f 1 323 324
f 1 324 366
f 1 366 374
f 1 374 335
f 1 335 290
f 1 290 242
f 1 242 200
f 1 200 199
f 1 199 159
f 1 159 123
f 1 123 95
f 1 95 67
f 1 67 47
f 1 47 46
f 1 46 30
f 1 30 15
f 1 15 8
f 1 8 3
f 1 3 4
f 1 4 9
f 1 9 17
f 1 17 10
f 1 10 5
f 1 5 2
f 2 5 6
f 2 6 7
f 3 8 9
f 3 9 4
f 5 10 6
f 6 11 12
f 6 12 13
f 6 13 7
f 6 10 11
f 7 13 14
f 8 15 16
f 8 16 9
f 9 16 31
f 9 31 48
f 9 48 68
f 9 68 98
f 9 98 127
f 9 127 164
f 9 164 208
f 9 208 252
f 9 252 304
f 9 304 349
f 9 349 383
f 9 383 384
f 9 384 351
f 9 351 350
f 9 350 305
f 9 305 253
f 9 253 209
f 9 209 169
f 9 169 168
f 9 168 167
f 9 167 166
f 9 166 165
f 9 165 128
f 9 128 99
f 9 99 71
f 9 71 70
f 9 70 69
f 9 69 49
f 9 49 33
f 9 33 32
f 9 32 18
f 9 18 17
f 10 17 18
f 10 18 19
f 10 19 11
f 11 19 20
f 11 20 21
f 11 21 22
f 11 22 23
f 11 23 12
f 12 24 13
f 12 23 25
f 12 25 26
f 12 26 24
f 13 24 27
f 13 27 28
f 13 28 14
f 14 28 29
f 15 30 16
f 16 30 31
f 18 32 19
f 19 32 33
f 19 33 34
f 19 34 20
f 20 34 21
f 21 34 22
f 22 34 35
f 22 35 36
f 22 36 37
f 22 37 23
f 23 38 25
f 23 37 39
f 23 39 38
f 24 26 27
f 25 39 26
f 25 38 39
f 26 28 27
f 26 39 40
f 26 40 41
f 26 41 42
f 26 42 43
f 26 43 28
f 28 43 44
f 28 44 45
f 28 45 29
f 30 46 31
f 31 46 47
f 31 47 48
f 33 49 34
f 34 49 50
f 34 50 35
f 35 50 36
f 36 50 37
f 37 50 51
f 37 51 52
f 37 52 53
f 37 53 39
f 39 53 40
f 40 53 41
f 41 53 42
f 42 44 43
f 42 53 54
f 42 54 55
f 42 55 56
f 42 56 57
f 42 57 58
f 42 58 59
f 42 59 60
f 42 60 61
f 42 61 44
f 44 62 63
f 44 63 64
f 44 64 45
f 44 61 65
f 44 65 66
f 44 66 62
f 47 67 94
f 47 94 122
f 47 122 157
f 47 157 194
f 47 194 198
f 47 198 241
f 47 241 289
f 47 289 288
f 47 288 287
f 47 287 334
f 47 334 371
f 47 371 391
f 47 391 390
f 47 390 393
f 47 393 375
f 47 375 340
f 47 340 295
f 47 295 245
f 47 245 202
f 47 202 161
f 47 161 125
f 47 125 97
f 47 97 68
f 47 68 48
f 49 69 50
f 50 69 70
f 50 70 71
f 50 71 72
f 50 72 73
f 50 73 74
f 50 74 51
f 51 74 52
f 52 74 75
f 52 75 53
f 53 75 76
f 53 76 77
f 53 77 78
f 53 78 54
f 54 78 79
f 54 79 80
f 54 80 55
f 55 80 56
f 56 80 81
f 56 81 57
f 57 81 82
f 57 82 83
f 57 83 58
f 58 83 59
f 59 83 60
f 60 83 84
f 60 84 61
f 61 84 85
f 61 85 65
f 62 66 86
f 62 86 87
f 62 87 63
f 63 87 88
f 65 85 89
f 65 89 90
f 65 90 66
f 66 90 91
f 66 91 92
f 66 92 93
f 66 93 86
f 67 95 96
f 67 96 94
f 68 97 126
f 68 126 98
f 71 99 72
f 72 99 128
f 72 128 100
f 72 100 73
f 73 76 75
f 73 75 74
f 73 100 129
f 73 129 101
f 73 101 103
f 73 103 76
f 76 102 77
f 76 103 104
f 76 104 102
f 77 102 105
f 77 105 78
f 78 105 79
f 79 106 80
f 79 105 135
f 79 135 107
f 79 107 108
f 79 108 106
f 80 106 81
f 81 106 82
f 82 106 109
f 82 109 110
f 82 110 83
f 83 110 111
f 83 111 112
f 83 112 84
f 84 112 85
f 85 112 89
f 86 93 87
f 87 93 113
f 87 113 114
f 87 114 88
f 89 115 90
f 89 112 145
f 89 145 116
f 89 116 117
f 89 117 115
f 90 115 118
f 90 118 91
f 91 118 119
f 91 119 92
f 92 119 93
f 93 119 120
f 93 120 121
f 93 121 148
f 93 148 113
f 94 96 122
f 95 123 96
f 96 123 124
f 96 124 122
f 97 125 126
f 98 126 127
f 100 128 165
f 100 165 129
f 101 129 130
f 101 130 131
f 101 131 132
f 101 132 133
f 101 133 103
f 102 104 135
f 102 135 105
f 103 133 173
f 103 173 134
f 103 134 104
f 104 134 135
f 106 136 109
f 106 108 142
f 106 142 136
f 107 135 137
f 107 137 138
f 107 138 139
f 107 139 108
f 108 139 140
f 108 140 141
f 108 141 142
f 109 136 110
f 110 136 143
f 110 143 111
f 111 143 175
f 111 175 144
f 111 144 145
f 111 145 112
f 113 146 147
f 113 147 114
f 113 148 146
f 115 117 118
f 116 149 117
f 116 145 150
f 116 150 151
f 116 151 152
f 116 152 149
f 117 149 120
f 117 120 119
f 117 119 118
f 120 149 152
f 120 152 153
f 120 153 154
f 120 154 121
f 121 154 155
f 121 155 156
f 121 156 148
f 122 124 158
f 122 158 157
f 123 159 160
f 123 160 124
f 124 160 158
f 125 161 204
f 125 204 162
f 125 162 126
f 126 162 163
f 126 163 127
f 127 163 164
f 129 165 166
f 129 166 130
f 130 166 167
f 130 167 168
f 130 168 169
f 130 169 131
f 131 170 132
f 131 169 209
f 131 209 171
f 131 171 170
f 132 170 172
f 132 172 133
f 133 172 173
f 134 137 135
f 134 173 174
f 134 174 137
f 136 142 175
f 136 175 143
f 137 174 176
f 137 176 138
f 138 176 177
f 138 177 139
f 139 177 178
f 139 178 140
f 140 179 180
f 140 180 141
f 140 178 216
f 140 216 181
f 140 181 222
f 140 222 179
f 141 180 144
f 141 144 175
f 141 175 142
f 144 180 145
f 145 180 182
f 145 182 150
f 146 148 183
f 148 156 184
f 148 184 183
f 150 182 151
f 151 153 152
f 151 182 185
f 151 185 186
f 151 186 187
f 151 187 153
f 153 187 154
f 154 188 155
f 154 187 188
f 155 188 189
f 155 189 190
f 155 190 191
f 155 191 156
f 156 191 192
f 156 192 193
f 156 193 184
f 157 158 194
f 158 160 195
f 158 195 196
f 158 196 197
f 158 197 198
f 158 198 194
f 159 199 160
f 160 199 200
f 160 200 201
f 160 201 195
f 161 202 203
f 161 203 204
f 162 204 205
f 162 205 206
f 162 206 163
f 163 206 207
f 163 207 164
f 164 207 251
f 164 251 208
f 170 171 210
f 170 210 172
f 171 209 211
f 171 211 212
f 171 212 213
f 171 213 210
f 172 210 214
f 172 214 173
f 173 214 174
f 174 215 216
f 174 216 178
f 174 178 217
f 174 217 177
f 174 177 176
f 174 214 218
f 174 218 219
f 174 219 220
f 174 220 215
f 177 217 178
f 179 221 182
f 179 182 180
f 179 222 221
f 181 216 223
f 181 223 224
f 181 224 225
f 181 225 222
f 182 221 185
f 185 221 186
f 186 221 222
f 186 222 226
f 186 226 227
f 186 227 228
f 186 228 229
f 186 229 187
f 187 229 188
f 188 229 230
f 188 230 189
f 189 230 231
f 189 231 232
f 189 232 190
f 190 232 233
f 190 233 191
f 191 233 234
f 191 234 192
f 195 201 235
f 195 235 236
f 195 236 196
f 196 237 197
f 196 236 238
f 196 238 239
f 196 239 237
f 197 237 240
f 197 240 241
f 197 241 198
f 200 242 243
f 200 243 201
f 201 243 244
f 201 244 235
f 202 245 203
f 203 245 246
f 203 246 204
f 204 246 205
f 205 246 247
f 205 247 248
f 205 248 249
f 205 249 206
f 206 249 207
f 207 249 248
f 207 248 250
f 207 250 251
f 208 251 252
f 209 253 211
f 210 213 254
f 210 254 255
f 210 255 214
f 211 253 256
f 211 256 257
f 211 257 212
f 212 254 213
f 212 257 258
f 212 258 254
f 214 255 218
f 215 220 216
f 216 220 223
f 218 255 259
f 218 259 260
f 218 260 261
f 218 261 262
f 218 262 219
f 219 262 263
f 219 263 220
f 220 263 223
f 222 225 264
f 222 264 265
f 222 265 226
f 223 263 266
f 223 266 224
f 224 266 267
f 224 267 268
f 224 268 264
f 224 264 225
f 226 265 269
f 226 269 227
f 227 269 228
f 228 269 270
f 228 270 271
f 228 271 229
f 229 271 272
f 229 272 273
f 229 273 230
f 230 273 274
f 230 274 275
f 230 275 231
f 231 275 276
f 231 276 232
f 232 276 233
f 233 276 277
f 233 277 278
f 233 278 279
f 233 279 234
f 235 238 236
f 235 244 238
f 237 280 240
f 237 239 281
f 237 281 282
f 237 282 280
f 238 244 283
f 238 283 284
f 238 284 239
f 239 282 281
f 239 284 285
f 239 285 286
f 239 286 282
f 240 287 288
f 240 288 289
f 240 289 241
f 240 280 287
f 242 290 291
f 242 291 243
f 243 292 244
f 243 291 293
f 243 293 292
f 244 292 293
f 244 293 294
f 244 294 283
f 245 295 296
f 245 296 246
f 246 296 247
f 247 296 297
f 247 297 298
f 247 298 248
f 248 299 250
f 248 298 300
f 248 300 301
f 248 301 302
f 248 302 299
f 250 299 251
f 251 299 302
f 251 302 303
f 251 303 304
f 251 304 252
f 253 305 256
f 254 258 255
f 255 258 257
f 255 257 259
f 256 305 306
f 256 306 257
f 257 306 307
f 257 307 308
f 257 308 260
f 257 260 259
f 260 308 309
f 260 309 261
f 261 309 262
f 262 309 310
f 262 310 311
f 262 311 312
f 262 312 263
f 263 312 313
f 263 313 266
f 264 268 314
f 264 314 270
f 264 270 265
f 265 270 269
f 266 313 315
f 266 315 267
f 267 315 268
f 268 315 316
f 268 316 317
f 268 317 314
f 270 314 318
f 270 318 271
f 271 318 272
f 272 318 319
f 272 319 320
f 272 320 273
f 273 320 274
f 274 320 321
f 274 321 277
f 274 277 275
f 275 277 276
f 277 321 322
f 277 322 278
f 278 323 279
f 278 322 324
f 278 324 323
f 280 282 325
f 280 325 287
f 282 326 327
f 282 327 325
f 282 286 326
f 283 294 293
f 283 293 328
f 283 328 329
f 283 329 284
f 284 329 330
f 284 330 285
f 285 331 332
f 285 332 286
f 285 330 333
f 285 333 331
f 286 332 326
f 287 325 334
f 290 335 291
f 291 335 336
f 291 336 337
f 291 337 293
f 293 337 338
f 293 338 320
f 293 320 339
f 293 339 328
f 295 340 341
f 295 341 342
f 295 342 296
f 296 342 297
f 297 342 343
f 297 343 344
f 297 344 298
f 298 344 345
f 298 345 300
f 300 345 346
f 300 346 347
f 300 347 301
f 301 347 308
f 301 308 307
f 301 307 302
f 302 348 303
f 302 307 348
f 303 348 304
f 304 348 349
f 305 350 306
f 306 350 351
f 306 351 352
f 306 352 307
f 307 352 348
f 308 310 309
f 308 347 310
f 310 347 311
f 311 347 346
f 311 346 312
f 312 346 345
f 312 345 353
f 312 353 354
f 312 354 355
f 312 355 356
f 312 356 313
f 313 357 315
f 313 356 358
f 313 358 357
f 314 317 318
f 315 357 358
f 315 358 359
f 315 359 316
f 316 359 360
f 316 360 361
f 316 361 317
f 317 362 318
f 317 361 333
f 317 333 363
f 317 363 362
f 318 320 319
f 318 362 320
f 320 362 364
f 320 364 365
f 320 365 329
f 320 329 339
f 320 338 336
f 320 336 321
f 321 336 322
f 322 366 324
f 322 336 366
f 325 327 334
f 326 367 368
f 326 368 369
f 326 369 370
f 326 370 327
f 326 332 367
f 327 370 371
f 327 371 334
f 328 339 329
f 329 365 330
f 330 365 362
f 330 362 363
f 330 363 333
f 331 372 332
f 331 333 372
f 332 372 373
f 332 373 368
f 332 368 367
f 333 361 372
f 335 374 336
f 336 374 366
f 336 338 337
f 340 375 376
f 340 376 341
f 341 377 378
f 341 378 379
f 341 379 342
f 341 376 377
f 342 379 343
f 343 379 380
f 343 380 344
f 344 380 381
f 344 381 354
f 344 354 382
f 344 382 345
f 345 382 353
f 348 383 349
f 348 352 383
f 351 384 352
f 352 384 383
f 353 382 354
f 354 381 380
f 354 380 355
f 355 380 385
f 355 385 360
f 355 360 358
f 355 358 356
f 358 360 359
f 360 385 361
f 361 385 372
f 362 365 364
f 368 386 369
f 368 373 386
f 369 386 370
f 370 386 387
f 370 387 388
f 370 388 389
f 370 389 390
f 370 390 391
f 370 391 371
f 372 385 373
f 373 392 386
f 373 385 392
f 375 393 376
f 376 393 389
f 376 389 377
f 377 394 395
f 377 395 378
f 377 389 394
f 378 395 392
f 378 392 379
f 379 392 385
f 379 385 380
f 386 392 387
f 387 395 394
f 387 394 389
f 387 389 388
f 387 392 395
f 389 393 390

