# https://github.com/mikedh/trimesh
v 117.38940912 62.75539223 42.69540501
v 117.38940912 62.31988484 42.69540501
v 117.35999613 62.75539223 41.83259820
v 117.17231029 62.75539223 43.35926411
v 117.17231029 62.31988484 43.35926411
v 117.13869177 60.59560281 43.34041635
v 117.12048666 59.73277897 43.32785118
v 117.35999613 61.45706133 42.69540501
v 117.34178588 61.45706133 41.83259820
v 117.31797683 61.45706133 40.96978883
v 117.35999613 62.31988484 41.83259820
v 117.32497919 62.75539223 40.96978883
v 116.51260016 62.75539223 43.59590991
v 116.51260016 62.31988484 43.59590991
v 116.51260016 61.45706133 43.58753227
v 116.51260016 60.59560281 43.57915463
v 116.51260016 59.73277897 43.56658946
v 116.51260016 58.86995513 43.53727158
v 117.08686814 58.86995513 43.30062835
v 117.28576187 59.73277897 42.69540501
v 117.32638275 60.59560281 42.69540501
v 117.30817250 60.59560281 41.83259820
v 117.32497919 62.31988484 40.96978883
v 117.28435831 60.59560281 40.96978883
v 117.26755162 61.45706133 40.10698202
v 117.29976659 62.75539223 40.53419789
v 116.08540229 62.75539223 43.59800239
v 115.64979850 55.42139041 43.60009744
v 115.64979850 54.55856690 43.59590991
v 116.51260016 58.00713161 43.48910594
v 115.64979850 53.69710838 43.56030687
v 116.33331767 54.55856690 43.35926411
v 117.03504451 58.00713161 43.25246014
v 116.98461930 57.14430810 43.18754180
v 116.95380790 56.63098236 43.14356369
v 117.21572800 58.86995513 42.69540501
v 117.18771342 58.86995513 41.83259820
v 117.25634888 59.73277897 41.83259820
v 117.27315556 62.31988484 40.10698202
v 117.22273035 59.73277897 40.96978883
v 117.23393824 60.59560281 40.10698202
v 117.18911698 61.45706133 39.24417521
v 117.13028585 62.31988484 38.38136583
v 117.20452525 62.31988484 39.24417521
v 117.27315556 62.75539223 40.10698202
v 115.64979850 62.75539223 43.60009744
v 114.78699426 51.97146070 43.60009744
v 114.78699426 51.10863718 43.59590991
v 114.78699426 50.24717867 43.54774170
v 115.64979850 52.83291922 43.47863325
v 116.25908341 53.69710838 43.32366364
v 116.16944088 52.83291922 43.24199002
v 116.10921134 52.30457659 43.16869404
v 116.42996256 53.69710838 42.69540501
v 116.58963639 54.55856690 42.69540501
v 116.88657600 56.19274433 42.69540501
v 116.95520631 56.62415609 42.69540501
v 117.01823783 57.14430810 42.69540501
v 117.12048666 58.00713161 42.69540501
v 117.10227641 58.00713161 41.83259820
v 117.07846222 58.00713161 40.96978883
v 117.15410004 58.86995513 40.96978883
v 117.23953704 62.75539223 39.67348356
v 117.17090673 59.73277897 40.10698202
v 117.10227641 59.73277897 39.24417521
v 116.95240434 59.22764482 37.89760797
v 117.02663860 59.73277897 38.38136583
v 117.15410004 60.59560281 39.24417521
v 117.10227641 61.45706133 38.38136583
v 117.13028585 62.75539223 38.38136583
v 117.02804216 62.31988484 37.52065279
v 117.20452525 62.75539223 39.24417521
v 114.78699426 62.75539223 43.60009744
v 113.92419259 49.38435515 43.60009744
v 113.92419259 48.80822862 43.59800239
v 114.25614656 48.80822862 43.51842382
v 114.73797261 48.80822862 43.36554670
v 115.38787583 50.24717867 43.31109847
v 115.49572604 51.10863718 43.35926411
v 115.29123094 49.58367817 43.22104721
v 115.32344590 49.48811294 42.69540501
v 115.54895065 50.24717867 42.69540501
v 116.11621627 52.27727150 42.69540501
v 116.24647711 52.83291922 42.69540501
v 116.41035390 53.69710838 41.83259820
v 116.58403502 54.55856690 41.83259820
v 116.73950590 55.42139041 41.83259820
v 116.88797441 56.34564973 41.82212551
v 116.94820395 56.67739998 42.10274813
v 116.99022325 57.07741166 41.82212551
v 116.99022325 57.24533460 40.96978883
v 116.96641420 57.43646635 40.10698202
v 117.02804216 58.00713161 40.10698202
v 117.10227641 58.86995513 40.10698202
v 117.03364096 58.86995513 39.24417521
v 116.96641420 59.73277897 37.79499282
v 116.97061459 58.91227711 38.44000416
v 116.94820395 58.39622139 38.76460360
v 116.91879096 58.65288393 38.19079576
v 116.75771614 58.00713161 37.52065279
v 116.63585865 58.00713161 36.65784470
v 116.50699879 58.00713161 35.79503789
v 116.72409762 58.86995513 36.65784470
v 116.65406632 59.73277897 35.79503789
v 116.79273051 59.73277897 36.65784470
v 116.71569428 60.59560281 35.79503789
v 116.90198170 59.73277897 37.36568319
v 117.06725948 60.59560281 38.38136583
v 116.98322089 60.59560281 37.65886969
v 116.99302522 61.47071323 37.46410951
v 117.02804216 62.75539223 37.52065279
v 116.94820395 61.76696776 37.05574269
v 116.95520631 62.31988484 37.02223470
v 112.19998767 49.38435515 43.57287204
v 112.19998767 48.80822862 43.59171980
v 112.48852393 48.80822862 43.60009744
v 114.40041469 62.75539223 43.48282335
v 113.35132560 48.80822862 43.60009744
v 114.94526968 48.80822862 43.00325174
v 115.08953524 48.80822862 42.69540501
v 115.17777678 49.05533425 42.69540501
v 115.16937344 49.10311815 41.83259820
v 115.30943861 49.53589555 41.83259820
v 115.52934199 50.24717867 41.83259820
v 115.77725737 51.10863718 41.83259820
v 115.75344575 51.10863718 40.96978883
v 115.99015581 51.90456427 41.83259820
v 116.09800602 52.33597667 41.83259820
v 116.21706154 52.83291922 41.83259820
v 116.38514129 53.69710838 40.96978883
v 116.56022340 54.55856690 40.96978883
v 116.70588995 55.42139041 40.96978883
v 116.84455670 56.28148394 40.96978883
v 116.93979804 56.74293078 41.52893901
v 116.92859529 56.81392284 40.96978883
v 116.90198170 57.00505460 40.10698202
v 116.72269921 56.28148394 39.24417521
v 116.64706396 56.28148394 38.38136583
v 116.94400100 57.57298922 39.67138979
v 116.96641420 58.06856677 39.32794131
v 116.84455670 60.59560281 36.65784470
v 116.92439233 60.59560281 37.22746629
v 116.93699864 61.19084187 37.13951008
v 116.91458800 57.82146049 39.09758067
v 116.87536811 58.06856677 38.44000416
v 116.75771614 57.14430810 38.38136583
v 116.65266534 57.14430810 37.52065279
v 116.53220882 57.14430810 36.65784470
v 116.58263146 58.86995513 35.79503789
v 116.40334897 57.14430810 35.79503789
v 116.35012436 58.00713161 34.93432356
v 116.49719446 59.73277897 34.93432356
v 116.56022340 60.59560281 34.93432356
v 116.75071121 61.45706133 35.79503789
v 116.95520631 62.75539223 37.02223470
v 116.88657600 62.31988484 36.59292507
v 114.00823118 62.75539223 43.36345421
v 111.63552660 48.80822862 43.42628008
v 115.06852816 48.80822862 41.83259820
v 115.03351122 48.80822862 40.96978883
v 115.14976478 49.16182203 40.96978883
v 115.29123094 49.59323443 40.96978883
v 115.49992899 50.24717867 40.96978883
v 115.70022114 51.10863718 40.10698202
v 115.92012451 51.97146070 40.10698202
v 116.07419440 52.43427318 40.71429784
v 115.99155680 52.04518341 40.98863658
v 116.08680070 52.38102929 41.28810696
v 116.16663890 52.76602343 40.98863658
v 116.33331767 53.69710838 40.10698202
v 116.50839721 54.55856690 40.10698202
v 116.65406632 55.42139041 40.10698202
v 116.79132952 56.28148394 40.10698202
v 116.58543344 55.42139041 39.24417521
v 116.50699879 55.42139041 38.38136583
v 116.40334897 55.42139041 37.52065279
v 116.54201315 56.28148394 37.52065279
v 116.42575960 58.86995513 34.93432356
v 116.27028616 56.28148394 35.79503789
v 116.13162197 56.34564973 34.97411413
v 116.24647711 57.14430810 34.93432356
v 116.41035390 56.28148394 36.65784470
v 116.16103496 58.02487947 34.04010382
v 116.09660503 58.32386432 33.57728749
v 116.12321862 58.86995513 33.44116436
v 116.25347947 58.86995513 34.06942170
v 116.32351334 59.73277897 34.06942170
v 116.59383935 61.45706133 34.93432356
v 116.15823556 59.73277897 33.29247605
v 116.37533696 60.59560281 34.06942170
v 116.41035390 61.45706133 34.06942170
v 116.75771614 62.31988484 35.79503789
v 116.88657600 62.75539223 36.59292507
v 111.39601456 48.80822862 43.34041635
v 113.60344394 62.75539223 42.69540501
v 114.97888563 48.80822862 40.10698202
v 115.26321636 49.67651341 40.10698202
v 115.44670181 50.24717867 40.10698202
v 115.21279372 49.83488008 38.88397274
v 115.61758353 51.10863718 39.24417521
v 115.77025501 51.97146070 38.38136583
v 115.84868965 51.97146070 39.24417521
v 116.15823556 52.95032891 40.10698202
v 116.01956880 52.66499628 39.24417521
v 116.12181764 53.09777368 39.24417521
v 116.09520662 53.20562646 38.68502503
v 116.25207848 53.69710838 39.24417521
v 116.42856157 54.55856690 39.24417521
v 116.33891904 54.55856690 38.38136583
v 116.23527179 54.55856690 37.52065279
v 116.04478141 54.32647816 36.49868627
v 116.09800602 54.90260405 36.13010873
v 116.27028616 55.42139041 36.65784470
v 116.04898437 55.18793668 35.55420584
v 116.09660503 55.76269757 35.28824345
v 116.13862433 55.45415613 35.82435577
v 115.98315345 55.45415613 34.97411413
v 116.03918003 56.10127409 34.71233928
v 116.08680070 56.67739998 34.47569605
v 116.11761725 57.14430810 34.33747915
v 116.06018968 57.74910343 33.73435086
v 115.86269694 57.14430810 33.20661490
v 115.98315345 58.02487947 33.25687559
v 116.02797472 58.86995513 33.00976095
v 116.60084171 62.31988484 34.93432356
v 116.42856157 62.31988484 34.06942170
v 116.06299165 59.73277897 32.86316642
v 116.16523792 60.59560281 33.13750645
v 116.21566056 61.45706133 33.20661490
v 116.24507612 62.31988484 33.20661490
v 116.75771614 62.75539223 35.79503789
v 111.12148559 48.80822862 42.81267910
v 111.07106295 48.80822862 42.69540501
v 106.23740710 62.75539223 22.20791030
v 103.08033549 48.80822862 22.20791030
v 114.95507401 48.80822862 39.82217187
v 115.11054745 49.43623276 39.20019711
v 115.23660534 49.75842738 39.45987563
v 115.01810295 49.38435515 38.38136583
v 115.18618270 49.92498533 38.38136583
v 115.31083960 50.35503144 38.38136583
v 115.52794100 51.10863718 38.38136583
v 115.99435877 52.88479811 38.39183852
v 115.66240223 51.97146070 37.52065279
v 115.87530324 52.83291922 37.52065279
v 116.15823556 53.65888203 38.39183852
v 116.06439007 53.34897559 38.10912214
v 116.02657373 53.53328107 37.52065279
v 116.08400130 54.11623323 37.07249539
v 115.96494578 53.77629172 36.73323573
v 115.80527194 53.69710838 35.79503789
v 115.99155680 54.59269761 35.82435577
v 115.82067765 54.55856690 34.93432356
v 115.79686603 55.42139041 34.06942170
v 115.96354479 56.34564973 34.14062521
v 115.74924279 56.28148394 33.20661490
v 116.02237077 57.14430810 33.90607574
v 115.65119948 57.14430810 32.34799562
v 115.75904969 58.00713161 32.34799562
v 115.85709557 58.86995513 32.34799562
v 116.60084171 62.75539223 34.93432356
v 116.42856157 62.75539223 34.06942170
v 116.07559796 60.30753986 32.80452937
v 115.92712687 59.73277897 32.34799562
v 115.83468493 60.16828636 31.91030899
v 115.85569458 60.59560281 31.91030899
v 116.08680070 60.88230043 32.75426868
v 116.09940701 61.45706133 32.71029058
v 116.11621627 62.31988484 32.65165353
v 116.24507612 62.75539223 33.20661490
v 112.03050951 62.75539223 22.20791030
v 109.38467694 48.80822862 22.20791030
v 114.90325038 48.80822862 39.23161004
v 114.82061021 48.80822862 38.38136583
v 114.78559584 48.80822862 38.09446191
v 114.91025274 49.38435515 37.52065279
v 114.87803778 48.80822862 38.95727001
v 115.13295809 50.11338708 37.52065279
v 115.42009079 51.10863718 37.52065279
v 115.30103527 51.10044592 36.72276561
v 115.26321636 51.38304791 35.96257267
v 115.52654001 51.97146070 36.65784470
v 115.74224043 52.83291922 36.65784470
v 115.60077427 52.83291922 35.79503789
v 115.64279357 53.69710838 34.93432356
v 115.63439022 54.55856690 34.06942170
v 115.60918019 55.42139041 33.20661490
v 115.53354237 56.28148394 32.34799562
v 115.47891678 56.71835697 31.91030899
v 115.42429375 57.14430810 31.48309376
v 115.64419455 58.00713161 31.91240340
v 115.53074297 58.00713161 31.48309376
v 115.73523807 58.86995513 31.91030899
v 115.77165342 59.30682816 31.91030899
v 115.98875740 60.59560281 32.41919784
v 115.68761483 59.73277897 31.48309376
v 115.74364142 60.59560281 31.48309376
v 115.89211250 61.45706133 31.91030899
v 115.99856173 62.31988484 32.22024949
v 116.05738771 62.75539223 32.43385678
v 116.11621627 62.75539223 32.65165353
v 115.77865835 61.45706133 31.48309376
v 112.03050951 62.31988484 22.20791030
v 112.62438615 62.75539223 23.30317408
v 109.60037736 49.36797261 22.20791030
v 110.05558981 48.92563895 23.27176115
v 109.94073467 48.80822862 23.15448578
v 114.71276000 48.80822862 37.52065279
v 114.57969976 48.80822862 36.68507010
v 114.77158856 49.38435515 36.65784470
v 114.90465137 50.24717867 35.79503789
v 115.07412953 50.32090009 36.72276561
v 115.18197974 50.80692137 36.47983851
v 115.22399904 50.65947725 37.05574269
v 115.14696281 51.10044592 35.72383439
v 115.21559569 51.55506584 35.38666978
v 115.43829847 52.83291922 34.93432356
v 115.28142660 52.87797184 34.13434262
v 115.23520435 53.19470455 33.56472232
v 115.45370674 53.69710838 34.06942170
v 115.17077442 53.49915035 32.99091319
v 115.43969945 54.55856690 33.20661490
v 115.22960298 54.07391125 32.73751469
v 115.27862463 54.55856690 32.55532097
v 115.36126224 55.36268589 32.27888717
v 115.41868981 56.30742338 31.91030899
v 115.22680101 56.65828681 31.02237119
v 115.26321636 57.14430810 30.89881323
v 115.31644354 58.00713161 30.72290082
v 115.61618255 58.86995513 31.48309376
v 115.43549907 59.73277897 30.62028567
v 115.50132741 60.59560281 30.62028567
v 115.99856173 62.75539223 32.22024949
v 115.79406406 62.31988484 31.48309376
v 115.53634434 61.45706133 30.62028567
v 111.99829455 61.33828664 22.20791030
v 112.62438615 62.31988484 23.30317408
v 112.35686211 61.45706133 22.85920486
v 112.83588618 62.75539223 23.73457749
v 109.88190869 50.13659461 22.20791030
v 109.99536027 49.95501912 22.51156885
v 109.89031203 49.38435515 22.69166944
v 110.14102939 49.38435515 23.12307285
v 110.46458001 49.38435515 23.72201231
v 110.09760911 48.80822862 23.43720216
v 114.43122867 48.80822862 35.79503789
v 114.62452102 49.38435515 35.79503789
v 114.37240269 48.90242885 35.28405463
v 114.74217556 50.24717867 34.93432356
v 114.99989527 51.10863718 34.93432356
v 115.16797245 51.74210260 34.93432356
v 115.22680101 52.37010738 34.46313087
v 115.16657147 52.61994366 33.88932175
v 115.09093622 52.87797184 33.25059300
v 114.85562714 52.83291922 32.34799562
v 115.07272855 53.75035227 32.40872643
v 115.16237108 54.55856690 32.12391628
v 115.20999175 55.03639627 31.94800451
v 115.20439037 55.06233572 31.91030899
v 115.26181794 55.61115717 31.76580950
v 115.30383724 56.33472783 31.48099935
v 115.17777678 56.08489155 31.18990597
v 114.89904743 55.42139041 30.62028567
v 115.07272855 56.33472783 30.68939412
v 115.13435650 57.14430810 30.46740983
v 115.18758368 58.00713161 30.29149741
v 115.21139273 58.52182234 30.21401197
v 115.33745319 58.83445942 30.54908345
v 115.23660534 59.09794823 30.13652716
v 115.26181794 59.73277897 30.05066537
v 115.29683231 60.59560281 29.95852034
v 115.79406406 62.75539223 31.48309376
v 115.54194829 62.31988484 30.62028567
v 115.31364157 61.45706133 29.90197706
v 115.31644354 62.31988484 29.88312930
v 111.97168353 60.59560281 22.20791030
v 112.61038143 61.45706133 23.33249260
v 112.83588618 62.31988484 23.73457749
v 112.32464714 60.59560281 22.85920486
v 113.23787402 62.75539223 24.58482041
v 110.06259217 50.65401597 22.20791030
v 110.26848826 50.24444739 22.82360376
v 110.09480713 50.52978066 22.33775084
v 110.74471036 50.19529977 23.72201231
v 110.88617651 49.87310643 24.19320629
v 110.79933595 49.38435515 24.37330688
v 110.25588195 48.80822862 23.74504889
v 114.40461765 48.80822862 35.64634959
v 114.32337846 48.80822862 35.19400466
v 114.25194618 48.80822862 34.85264994
v 114.31217315 49.08263934 34.71024551
v 114.40741705 49.65876587 34.26627693
v 114.34438811 49.85399390 33.69246781
v 114.51806923 50.18301223 34.01706725
v 114.80800648 51.10863718 34.06942170
v 115.07272855 52.03835714 34.13434262
v 114.85002577 51.97146070 33.20661490
v 114.63292437 51.97146070 32.34799562
v 114.51806923 52.01105269 31.91030899
v 114.62031807 52.40696809 31.91030899
v 114.60771176 52.83291922 31.48309376
v 114.83181553 53.26979225 31.91030899
v 114.92986140 53.72304782 31.91030899
v 115.02650629 54.18585966 31.91030899
v 114.98588799 54.55856690 31.48309376
v 114.74497496 54.55856690 30.62028567
v 115.13715847 55.36268589 31.48099935
v 114.62872141 55.42139041 29.75957263
v 114.77018757 56.28148394 29.75957263
v 114.90325038 57.14430810 29.75957263
v 115.01250158 58.00713161 29.75957263
v 114.81500884 58.86995513 28.89676453
v 115.11054745 58.83445942 29.81192709
v 115.12455217 59.73277897 29.61926132
v 114.88644112 59.73277897 28.89676453
v 115.15256675 60.59560281 29.52711693
v 115.54194829 62.75539223 30.62028567
v 115.16937344 61.45706133 29.47266742
v 114.99429133 62.31988484 28.89676453
v 115.17777678 62.31988484 29.45172590
v 115.31644354 62.75539223 29.88312930
v 115.24781066 62.75539223 29.66742760
v 111.91705793 59.73277897 22.20791030
v 112.82047790 61.45706133 23.76389601
v 112.59217119 60.59560281 23.37228189
v 113.23787402 62.31988484 24.58482041
v 113.45777482 61.45706133 25.09161485
v 113.21546339 61.45706133 24.58482041
v 112.27002155 59.73277897 22.85920486
v 113.34992462 62.75539223 24.82984063
v 110.19425400 51.05539329 22.20791030
v 110.82734796 50.92569670 23.43510775
v 111.05845665 51.17007234 23.72201231
v 110.98001943 50.45059796 24.01101128
v 111.52347343 51.15778480 24.64555186
v 111.78819550 51.47861314 24.97434012
v 111.60471005 50.21577859 25.45391044
v 111.73777286 49.90723651 25.94395153
v 111.00663302 49.38435515 24.80471029
v 110.92119345 48.91198640 24.98271711
v 110.83155092 48.80822862 24.88010132
v 110.67887944 48.80822862 24.57225523
v 114.07546308 48.80822862 34.05266900
v 114.25894853 49.37616388 34.01706725
v 114.07966604 49.38435515 33.20661490
v 114.28976251 50.04102937 33.20661490
v 114.41862494 50.47244049 33.20661490
v 114.60490979 51.10863718 33.20661490
v 114.36259836 50.65265098 32.75217491
v 114.42142434 51.17007234 32.41710407
v 114.37240269 51.47724814 31.91030899
v 114.36819973 51.49909196 31.87470788
v 114.28556212 51.80763404 31.29880435
v 114.42142434 52.04518341 31.54591898
v 114.36119737 52.38239429 31.03493637
v 114.34578910 53.30528797 30.22238896
v 114.52367317 53.63430758 30.55536604
v 114.80660549 53.69710838 31.48309376
v 114.41722395 53.88004886 30.01506361
v 114.47325054 54.58860198 29.73862982
v 114.37520209 54.89441278 29.27371971
v 114.42002335 55.42139041 29.13969099
v 114.32477945 56.04529956 28.55541111
v 114.37100170 56.62006046 28.42347679
v 114.71696296 58.00713161 28.89676453
v 114.48865624 58.89179894 27.97741316
v 114.57969976 59.73277897 28.03395644
v 114.93266337 60.59560281 28.89676453
v 114.96908130 61.45706133 28.89676453
v 114.99429133 62.75539223 28.89676453
v 115.08673584 62.75539223 29.17110392
v 114.68895095 62.31988484 28.03395644
v 114.84161986 62.75539223 28.46117231
v 111.83581874 58.86995513 22.20791030
v 112.79946826 60.59560281 23.80159153
v 112.56415918 59.73277897 23.42673140
v 113.46477975 62.31988484 25.08114408
v 113.65526756 61.45706133 25.52511330
v 113.63846088 60.59560281 25.56699700
v 113.43676518 60.59560281 25.13559295
v 113.17484251 60.59560281 24.58482041
v 112.18458197 58.86995513 22.85920486
v 113.46477975 62.75539223 25.08114408
v 110.46177804 51.94006062 22.20791030
v 110.91839148 51.49909196 23.26757233
v 111.30637203 51.97146070 23.72201231
v 111.65513526 51.97146070 24.39006023
v 111.85822937 51.97146070 24.82146428
v 112.13976070 51.97146070 25.44762786
v 112.50533062 51.90866054 26.30205895
v 112.28122686 51.10863718 26.31043531
v 111.90725103 51.15778480 25.45391044
v 111.98428726 50.21577859 26.26226903
v 111.83161835 50.48336304 25.74500318
v 111.87083568 49.53862555 26.51985507
v 111.49685984 48.80822862 26.29158755
v 110.95620781 48.80822862 25.13559295
v 114.01523611 48.80822862 33.78251779
v 113.87797291 48.80822862 33.20661490
v 113.80653805 48.80822862 32.91970969
v 113.86256464 49.38435515 32.34799562
v 114.17490994 50.31680509 32.41710407
v 114.28556212 50.92433171 32.17627138
v 114.17911290 51.17007234 31.54591898
v 113.89337861 51.10863718 30.62028567
v 114.17210797 52.04518341 30.69777047
v 114.28696311 52.83291922 30.41714914
v 113.85976266 51.97146070 29.75957263
v 114.07266111 52.83291922 29.75957263
v 113.77432309 52.83291922 28.89676453
v 113.97881819 53.69710838 28.89676453
v 114.31637610 54.31828689 29.43916073
v 114.26875286 55.42139041 28.70828695
v 113.84995833 54.55856690 28.03395644
v 114.02504044 55.42139041 28.03395644
v 114.20432294 56.31151902 28.09678231
v 114.24914420 57.14430810 27.89783460
v 114.40601864 57.14430810 28.32923800
v 114.46064423 58.00713161 28.18055034
v 114.33598476 58.61875322 27.65281373
v 114.36819973 59.19351411 27.57532828
v 114.38640997 59.73277897 27.52506824
v 114.40881804 60.59560281 27.46433614
v 114.62171905 60.59560281 28.03395644
v 114.65953539 61.45706133 28.03395644
v 114.68895095 62.75539223 28.03395644
v 114.42842927 61.45706133 27.41616986
v 114.44243399 62.31988484 27.38894510
v 114.56569247 62.75539223 27.70726260
v 111.74057484 58.00713161 22.20791030
v 111.81621008 58.00713161 22.34193902
v 112.77145625 59.73277897 23.85813480
v 112.52073890 58.86995513 23.51049879
v 113.04738364 58.86995513 24.58482041
v 112.73503833 58.86995513 23.94190284
v 113.65526756 62.31988484 25.51254813
v 113.99982784 62.31988484 26.31043531
v 113.99142449 61.45706133 26.31043531
v 113.95640756 60.59560281 26.31043531
v 113.89057664 59.73277897 26.31043531
v 113.60204295 59.73277897 25.63610545
v 113.40735218 59.73277897 25.20470140
v 113.11741751 59.73277897 24.58482041
v 112.08513511 58.00713161 22.85920486
v 111.78399512 57.46104048 22.39848229
v 113.65526756 62.75539223 25.51254813
v 110.76712099 53.02268597 22.20791030
v 110.84275623 52.62676993 22.53879296
v 110.98842278 51.97146070 23.14192061
v 111.07946630 52.88343312 22.84035710
v 111.73637188 52.53803033 24.22252481
v 112.41288869 52.88479811 25.51254813
v 112.57116154 52.62950057 26.01096622
v 112.70002139 52.15440118 26.58477470
v 112.61878478 51.57964093 26.76906411
v 112.55435485 51.10863718 26.93659953
v 112.42269302 50.29223129 27.22559786
v 112.02630655 49.30517245 27.09156978
v 111.76438645 48.96386401 26.75021635
v 111.73497089 48.80822862 26.82141857
v 113.67207682 48.80822862 32.39825631
v 113.54041500 48.80822862 31.91030899
v 113.52780869 48.85874251 31.79931685
v 113.73790517 49.38708514 31.91030899
v 113.87657192 49.81986254 31.91030899
v 113.88917566 50.24717867 31.48309376
v 113.63005496 50.24717867 30.62656826
v 113.54181341 50.53524193 30.04857096
v 113.62585457 51.11819345 29.75957263
v 113.53200908 51.41308299 29.22764720
v 113.58663468 52.04108713 28.92189488
v 113.50119510 52.37420302 28.44441832
v 113.55582070 52.83291922 28.28525989
v 113.46898014 53.38037567 27.67166149
v 113.52920968 53.95650156 27.51250242
v 113.59223862 54.55856690 27.35962658
v 113.66367091 55.40500788 27.11670012
v 113.84435439 56.28148394 27.17114899
v 113.96621189 57.14430810 27.17114899
v 114.29956941 58.00713161 27.74914629
v 114.07126269 58.00713161 27.17114899
v 113.72249946 58.00713161 26.31043531
v 113.51940535 58.00713161 25.81411163
v 113.81213943 58.86995513 26.31043531
v 114.21412727 59.73277897 27.09366419
v 114.24214184 60.59560281 27.03293209
v 114.26175051 61.45706133 26.98476581
v 114.44243399 62.75539223 27.38894510
v 114.26735445 62.31988484 26.95754106
v 114.35419501 62.75539223 27.17114899
v 111.70135494 57.67265073 22.20791030
v 112.95774368 58.00713161 24.58482041
v 112.68741509 58.00713161 24.04242422
v 112.46891527 58.00713161 23.61102017
v 113.37373623 58.86995513 25.28428061
v 113.33171694 58.00713161 25.38270758
v 113.99982784 62.75539223 26.31043531
v 114.13289065 62.75539223 26.63084721
v 113.56422405 58.86995513 25.71568466
v 112.65099974 57.44602294 24.11362643
v 111.94787191 57.16069063 22.80056718
v 111.74337681 56.88627991 22.47596710
v 111.61871734 57.06512476 22.20791030
v 111.65093230 57.29038722 22.20791030
v 110.86376588 53.37218440 22.20791030
v 110.92399285 53.20153082 22.39638789
v 112.42129203 54.59269761 24.64555186
v 112.65099974 54.90123905 24.97224571
v 112.58376784 54.32647816 25.11674519
v 112.50813260 53.69710838 25.28218685
v 112.64539580 53.20562646 25.84552456
v 111.56689371 52.83018923 23.76808483
v 111.80360378 53.11415622 24.08640232
v 112.77005526 52.88479811 26.30205895
v 113.13002124 52.83291922 27.17114899
v 112.84709150 51.90866054 27.10204054
v 112.72523400 51.10863718 27.36590917
v 112.65240073 50.61305963 27.54810353
v 112.55855524 50.03693438 27.79312439
v 112.44790563 49.40210268 28.06118120
v 112.51653594 48.80822862 28.76692463
v 112.08513511 48.80822862 27.68632043
v 111.91985733 48.80822862 27.27585855
v 111.79660142 48.80822862 26.97220064
v 113.49559373 48.80822862 31.75114992
v 113.44096813 49.10994443 31.22550772
v 113.62025063 49.39118013 31.50194152
v 113.44656951 49.95911540 30.33966369
v 113.53621204 49.68333968 30.91556723
v 113.06419290 49.38435515 29.75957263
v 113.34852363 50.24717867 29.75957263
v 113.44377011 50.83832145 29.47266742
v 112.98435470 51.10863718 28.03395644
v 113.42135947 51.80080777 28.65174367
v 113.27849233 52.04108713 28.10725371
v 113.39894884 52.83291922 27.85385649
v 113.34712521 53.67936020 27.20256192
v 113.41575553 54.55856690 26.93031694
v 113.47038113 55.10738834 26.79628822
v 113.52780869 55.68214924 26.66226014
v 113.57963232 56.28148394 26.54289100
v 113.49559373 57.56479795 25.87484308
v 114.26735445 62.75539223 26.95754106
v 112.81067357 57.15249936 24.52618272
v 113.28829666 57.22349079 25.53139589
v 112.60617847 56.86989737 24.20158264
v 112.27562549 56.28148394 23.72201231
v 111.91145399 56.28148394 23.00998694
v 111.68875121 56.28148394 22.57858289
v 111.48285512 56.28148394 22.20791030
v 110.94780447 53.69710838 22.20791030
v 111.87223666 53.69710838 23.95446801
v 111.94086698 54.60498452 23.69059938
v 112.49132591 55.42139041 24.44241469
v 112.69862041 55.42139041 24.87172497
v 112.95213973 55.42139041 25.44762786
v 113.15383286 54.55856690 26.31043531
v 112.97174839 53.69710838 26.31043531
v 112.70562534 53.69710838 25.71359025
v 111.29376573 53.69710838 22.85920486
v 112.74344167 50.29223129 28.06118120
v 112.66640544 49.70381849 28.36693352
v 112.57116154 49.12769196 28.61823697
v 112.67901175 48.80822862 29.18995168
v 113.14402853 48.80822862 30.62238008
v 113.34712521 49.39118013 30.62656826
v 112.86950213 48.80822862 29.76376016
v 112.76865428 49.40210268 28.90095271
v 113.04178226 50.24717867 28.89676453
v 113.39194391 56.28148394 26.11148696
v 113.10060825 56.28148394 25.44762786
v 112.56135721 56.28148394 24.29372703
v 112.77145625 56.28148394 24.72513107
v 112.12575342 55.42139041 23.72201231
v 111.60331163 55.42139041 22.73564755
v 111.30777302 55.38316406 22.20791030
v 111.83441776 55.42139041 23.16705095
v 110.97021510 53.79267425 22.20791030
v 111.71956519 54.34559133 23.38275330
v 111.78399512 54.92035223 23.26128975
v 111.14389622 54.56402753 22.20791030
f 1 2 11
f 1 11 3
f 1 3 12
f 1 12 26
f 1 26 45
f 1 45 63
f 1 63 72
f 1 72 70
f 1 70 111
f 1 111 155
f 1 155 193
f 1 193 231
f 1 231 261
f 1 261 262
f 1 262 270
f 1 270 301
f 1 301 300
f 1 300 333
f 1 333 372
f 1 372 417
f 1 417 421
f 1 421 422
f 1 422 471
f 1 471 470
f 1 470 473
f 1 473 526
f 1 526 529
f 1 529 588
f 1 588 590
f 1 590 643
f 1 643 598
f 1 598 597
f 1 597 546
f 1 546 483
f 1 483 430
f 1 430 380
f 1 380 339
f 1 339 304
f 1 304 271
f 1 271 234
f 1 234 195
f 1 195 157
f 1 157 117
f 1 117 73
f 1 73 46
f 1 46 27
f 1 27 13
f 1 13 4
f 1 4 5
f 1 5 2
f 2 5 6
f 2 6 7
f 2 7 8
f 2 8 9
f 2 9 10
f 2 10 11
f 3 11 23
f 3 23 12
f 4 13 14
f 4 14 5
f 5 14 15
f 5 15 16
f 5 16 17
f 5 17 6
f 6 17 7
f 7 17 18
f 7 18 19
f 7 19 20
f 7 20 21
f 7 21 8
f 8 21 22
f 8 22 9
f 9 22 24
f 9 24 10
f 10 23 11
f 10 24 41
f 10 41 25
f 10 25 23
f 12 23 26
f 13 27 14
f 14 27 28
f 14 28 29
f 14 29 15
f 15 29 16
f 16 29 17
f 17 29 18
f 18 30 19
f 18 29 31
f 18 31 30
f 19 30 32
f 19 32 33
f 19 33 20
f 20 33 34
f 20 34 35
f 20 35 36
f 20 36 37
f 20 37 38
f 20 38 24
f 20 24 22
f 20 22 21
f 23 25 39
f 23 39 26
f 24 38 40
f 24 40 41
f 25 41 42
f 25 42 43
f 25 43 44
f 25 44 39
f 26 39 45
f 27 46 28
f 28 46 73
f 28 73 116
f 28 116 118
f 28 118 74
f 28 74 47
f 28 47 48
f 28 48 29
f 29 48 31
f 30 31 32
f 31 49 50
f 31 50 51
f 31 51 32
f 31 48 49
f 32 51 33
f 33 51 34
f 34 51 35
f 35 51 52
f 35 52 53
f 35 53 54
f 35 54 55
f 35 55 56
f 35 56 57
f 35 57 58
f 35 58 59
f 35 59 36
f 36 59 60
f 36 60 61
f 36 61 37
f 37 61 62
f 37 62 40
f 37 40 38
f 39 63 45
f 39 44 63
f 40 62 94
f 40 94 64
f 40 64 41
f 41 64 65
f 41 65 66
f 41 66 67
f 41 67 68
f 41 68 42
f 42 68 108
f 42 108 69
f 42 69 43
f 43 70 72
f 43 72 44
f 43 69 71
f 43 71 111
f 43 111 70
f 44 72 63
f 47 74 75
f 47 75 48
f 48 75 49
f 49 75 76
f 49 76 77
f 49 77 78
f 49 78 79
f 49 79 50
f 50 79 51
f 51 78 52
f 51 79 78
f 52 78 53
f 53 78 80
f 53 80 81
f 53 81 82
f 53 82 83
f 53 83 84
f 53 84 54
f 54 84 85
f 54 85 86
f 54 86 55
f 55 86 56
f 56 86 87
f 56 87 88
f 56 88 89
f 56 89 57
f 57 89 58
f 58 89 90
f 58 90 60
f 58 60 59
f 60 90 91
f 60 91 61
f 61 91 92
f 61 92 93
f 61 93 62
f 62 93 94
f 64 94 95
f 64 95 65
f 65 95 66
f 66 96 67
f 66 95 97
f 66 97 98
f 66 98 99
f 66 99 100
f 66 100 101
f 66 101 102
f 66 102 103
f 66 103 104
f 66 104 105
f 66 105 106
f 66 106 107
f 66 107 96
f 67 96 108
f 67 108 68
f 69 108 96
f 69 96 109
f 69 109 110
f 69 110 71
f 71 110 112
f 71 112 113
f 71 113 155
f 71 155 111
f 73 114 115
f 73 115 116
f 73 117 114
f 74 118 75
f 75 118 116
f 75 116 115
f 75 115 158
f 75 158 194
f 75 194 232
f 75 232 233
f 75 233 235
f 75 235 272
f 75 272 307
f 75 307 345
f 75 345 387
f 75 387 442
f 75 442 441
f 75 441 497
f 75 497 496
f 75 496 560
f 75 560 624
f 75 624 623
f 75 623 622
f 75 622 621
f 75 621 664
f 75 664 667
f 75 667 665
f 75 665 625
f 75 625 562
f 75 562 561
f 75 561 500
f 75 500 499
f 75 499 498
f 75 498 443
f 75 443 390
f 75 390 389
f 75 389 388
f 75 388 346
f 75 346 309
f 75 309 308
f 75 308 275
f 75 275 274
f 75 274 277
f 75 277 273
f 75 273 236
f 75 236 196
f 75 196 160
f 75 160 159
f 75 159 120
f 75 120 119
f 75 119 77
f 75 77 76
f 77 119 80
f 77 80 78
f 80 119 120
f 80 120 121
f 80 121 81
f 81 121 122
f 81 122 123
f 81 123 124
f 81 124 82
f 82 124 125
f 82 125 83
f 83 125 126
f 83 126 127
f 83 127 128
f 83 128 129
f 83 129 84
f 84 129 130
f 84 130 85
f 85 130 131
f 85 131 86
f 86 131 87
f 87 131 132
f 87 132 133
f 87 133 88
f 88 133 134
f 88 134 89
f 89 134 91
f 89 91 90
f 91 134 135
f 91 135 92
f 92 135 136
f 92 136 137
f 92 137 138
f 92 138 139
f 92 139 93
f 93 139 140
f 93 140 97
f 93 97 95
f 93 95 94
f 96 107 106
f 96 106 141
f 96 141 142
f 96 142 143
f 96 143 110
f 96 110 109
f 97 140 98
f 98 144 145
f 98 145 99
f 98 140 139
f 98 139 144
f 99 146 147
f 99 147 100
f 99 145 146
f 100 147 148
f 100 148 101
f 101 148 150
f 101 150 102
f 102 149 103
f 102 150 181
f 102 181 151
f 102 151 178
f 102 178 149
f 103 149 104
f 104 106 105
f 104 149 178
f 104 178 152
f 104 152 153
f 104 153 106
f 106 154 141
f 106 153 154
f 110 143 112
f 112 143 141
f 112 141 154
f 112 154 113
f 113 154 156
f 113 156 193
f 113 193 155
f 114 117 157
f 114 157 158
f 114 158 115
f 120 159 121
f 121 159 122
f 122 159 160
f 122 160 161
f 122 161 162
f 122 162 123
f 123 162 163
f 123 163 124
f 124 163 126
f 124 126 125
f 126 163 198
f 126 198 164
f 126 164 165
f 126 165 166
f 126 166 167
f 126 167 127
f 127 167 128
f 128 167 168
f 128 168 129
f 129 168 169
f 129 169 130
f 130 166 170
f 130 170 171
f 130 171 131
f 130 169 166
f 131 171 172
f 131 172 132
f 132 172 133
f 133 135 134
f 133 172 173
f 133 173 135
f 135 173 136
f 136 173 137
f 137 174 138
f 137 173 172
f 137 172 174
f 138 146 139
f 138 174 175
f 138 175 176
f 138 176 177
f 138 177 147
f 138 147 146
f 139 146 144
f 141 143 142
f 144 146 145
f 147 177 148
f 148 177 150
f 150 179 180
f 150 180 181
f 150 177 182
f 150 182 179
f 151 181 183
f 151 183 184
f 151 184 185
f 151 185 186
f 151 186 178
f 152 178 186
f 152 186 187
f 152 187 153
f 153 188 154
f 153 187 189
f 153 189 190
f 153 190 191
f 153 191 188
f 154 192 156
f 154 188 225
f 154 225 192
f 156 192 231
f 156 231 193
f 157 194 158
f 157 195 194
f 160 196 161
f 161 196 162
f 162 196 197
f 162 197 198
f 162 198 163
f 164 198 199
f 164 199 200
f 164 200 201
f 164 201 202
f 164 202 165
f 165 203 166
f 165 202 204
f 165 204 203
f 166 169 168
f 166 168 167
f 166 203 170
f 170 203 205
f 170 205 206
f 170 206 207
f 170 207 208
f 170 208 171
f 171 208 175
f 171 175 174
f 171 174 172
f 175 208 209
f 175 209 210
f 175 210 176
f 176 210 211
f 176 211 212
f 176 212 213
f 176 213 182
f 176 182 177
f 179 214 215
f 179 215 180
f 179 182 213
f 179 213 212
f 179 212 216
f 179 216 214
f 180 215 217
f 180 217 218
f 180 218 219
f 180 219 181
f 181 219 220
f 181 220 183
f 183 221 184
f 183 220 221
f 184 221 222
f 184 222 223
f 184 223 224
f 184 224 185
f 185 187 186
f 185 224 189
f 185 189 187
f 188 191 226
f 188 226 225
f 189 224 227
f 189 227 190
f 190 227 228
f 190 228 191
f 191 228 229
f 191 229 230
f 191 230 226
f 192 225 261
f 192 261 231
f 194 195 232
f 195 233 232
f 195 234 235
f 195 235 233
f 196 236 237
f 196 237 197
f 197 237 238
f 197 238 198
f 198 238 199
f 199 238 237
f 199 237 239
f 199 239 240
f 199 240 241
f 199 241 200
f 200 241 242
f 200 242 201
f 201 243 204
f 201 204 202
f 201 242 279
f 201 279 244
f 201 244 245
f 201 245 243
f 203 204 205
f 204 243 205
f 205 243 206
f 206 246 208
f 206 208 207
f 206 243 247
f 206 247 246
f 208 246 209
f 209 247 210
f 209 246 247
f 210 248 249
f 210 249 211
f 210 247 248
f 211 250 251
f 211 251 252
f 211 252 212
f 211 249 250
f 212 252 214
f 212 214 216
f 214 253 217
f 214 217 215
f 214 252 253
f 217 253 254
f 217 254 218
f 218 254 219
f 219 254 255
f 219 255 256
f 219 256 257
f 219 257 220
f 220 257 221
f 221 257 222
f 222 257 256
f 222 256 258
f 222 258 259
f 222 259 224
f 222 224 223
f 224 259 260
f 224 260 227
f 225 226 262
f 225 262 261
f 226 230 270
f 226 270 262
f 227 263 228
f 227 260 264
f 227 264 265
f 227 265 266
f 227 266 263
f 228 263 267
f 228 267 268
f 228 268 229
f 229 268 269
f 229 269 230
f 230 269 301
f 230 301 270
f 234 271 303
f 234 303 336
f 234 336 376
f 234 376 423
f 234 423 474
f 234 474 530
f 234 530 591
f 234 591 604
f 234 604 603
f 234 603 650
f 234 650 676
f 234 676 681
f 234 681 678
f 234 678 651
f 234 651 605
f 234 605 547
f 234 547 484
f 234 484 431
f 234 431 381
f 234 381 340
f 234 340 305
f 234 305 272
f 234 272 235
f 236 273 237
f 237 273 239
f 239 274 275
f 239 275 276
f 239 276 240
f 239 273 277
f 239 277 274
f 240 276 278
f 240 278 241
f 241 278 279
f 241 279 242
f 243 245 247
f 244 279 280
f 244 280 281
f 244 281 282
f 244 282 283
f 244 283 245
f 245 248 247
f 245 283 251
f 245 251 250
f 245 250 248
f 248 250 249
f 251 284 317
f 251 317 285
f 251 285 253
f 251 253 252
f 251 283 284
f 253 285 286
f 253 286 254
f 254 286 287
f 254 287 255
f 255 287 256
f 256 287 288
f 256 288 258
f 258 288 289
f 258 289 290
f 258 290 259
f 259 290 291
f 259 291 260
f 260 291 292
f 260 292 293
f 260 293 294
f 260 294 264
f 263 266 295
f 263 295 267
f 264 294 296
f 264 296 265
f 265 296 297
f 265 297 266
f 266 297 298
f 266 298 295
f 267 295 268
f 268 295 298
f 268 298 269
f 269 299 300
f 269 300 301
f 269 298 302
f 269 302 299
f 271 304 337
f 271 337 303
f 272 305 306
f 272 306 307
f 275 308 276
f 276 308 309
f 276 309 310
f 276 310 311
f 276 311 312
f 276 312 278
f 278 312 313
f 278 313 314
f 278 314 279
f 279 314 313
f 279 313 280
f 280 313 281
f 281 313 315
f 281 315 316
f 281 316 282
f 282 316 283
f 283 316 284
f 284 316 317
f 285 317 318
f 285 318 319
f 285 319 320
f 285 320 286
f 286 320 321
f 286 321 322
f 286 322 287
f 287 322 323
f 287 323 324
f 287 324 325
f 287 325 288
f 288 325 326
f 288 326 289
f 289 326 290
f 290 326 327
f 290 327 328
f 290 328 292
f 290 292 291
f 292 328 329
f 292 329 330
f 292 330 293
f 293 330 294
f 294 330 296
f 296 330 331
f 296 331 332
f 296 332 297
f 297 302 298
f 297 332 335
f 297 335 302
f 299 333 300
f 299 302 334
f 299 334 372
f 299 372 333
f 302 335 334
f 303 337 338
f 303 338 336
f 304 339 378
f 304 378 337
f 305 340 341
f 305 341 342
f 305 342 306
f 306 342 343
f 306 343 344
f 306 344 345
f 306 345 307
f 309 346 310
f 310 346 347
f 310 347 311
f 311 347 348
f 311 348 349
f 311 349 315
f 311 315 313
f 311 313 312
f 315 349 350
f 315 350 316
f 316 350 351
f 316 351 352
f 316 352 317
f 317 352 318
f 318 352 353
f 318 353 319
f 319 353 354
f 319 354 321
f 319 321 320
f 321 354 355
f 321 355 356
f 321 356 323
f 321 323 322
f 323 356 357
f 323 357 324
f 324 357 358
f 324 358 325
f 325 358 359
f 325 359 360
f 325 360 326
f 326 360 361
f 326 361 327
f 327 361 362
f 327 362 363
f 327 363 364
f 327 364 365
f 327 365 328
f 328 365 366
f 328 366 329
f 329 366 367
f 329 367 330
f 330 367 368
f 330 368 331
f 331 368 367
f 331 367 369
f 331 369 370
f 331 370 332
f 332 370 371
f 332 371 335
f 334 335 373
f 334 373 417
f 334 417 372
f 335 371 374
f 335 374 375
f 335 375 373
f 336 338 376
f 337 377 338
f 337 378 377
f 338 377 379
f 338 379 376
f 339 380 426
f 339 426 378
f 340 381 341
f 341 382 343
f 341 343 342
f 341 381 383
f 341 383 382
f 343 384 344
f 343 382 384
f 344 384 385
f 344 385 386
f 344 386 387
f 344 387 345
f 346 388 348
f 346 348 347
f 348 388 389
f 348 389 349
f 349 390 391
f 349 391 392
f 349 392 393
f 349 393 394
f 349 394 395
f 349 395 350
f 349 389 390
f 350 396 351
f 350 395 397
f 350 397 396
f 351 396 352
f 352 396 353
f 353 396 354
f 354 397 355
f 354 396 397
f 355 397 398
f 355 398 399
f 355 399 400
f 355 400 401
f 355 401 402
f 355 402 356
f 356 402 403
f 356 403 404
f 356 404 357
f 357 404 405
f 357 405 358
f 358 405 406
f 358 406 359
f 359 406 407
f 359 407 360
f 360 407 362
f 360 362 361
f 362 407 363
f 363 407 406
f 363 406 408
f 363 408 364
f 364 408 409
f 364 409 365
f 365 409 410
f 365 410 366
f 366 410 411
f 366 411 412
f 366 412 413
f 366 413 367
f 367 413 369
f 369 413 414
f 369 414 370
f 370 414 371
f 371 414 415
f 371 415 416
f 371 416 374
f 373 375 421
f 373 421 417
f 374 416 418
f 374 418 419
f 374 419 420
f 374 420 375
f 375 420 422
f 375 422 421
f 376 379 429
f 376 429 423
f 377 378 424
f 377 424 425
f 377 425 379
f 378 426 427
f 378 427 428
f 378 428 424
f 379 425 429
f 380 430 426
f 381 431 383
f 382 383 432
f 382 432 384
f 383 431 432
f 384 432 433
f 384 433 434
f 384 434 385
f 385 434 435
f 385 435 436
f 385 436 437
f 385 437 438
f 385 438 439
f 385 439 386
f 386 439 440
f 386 440 441
f 386 441 442
f 386 442 387
f 390 392 391
f 390 443 444
f 390 444 392
f 392 444 393
f 393 444 445
f 393 445 446
f 393 446 394
f 394 446 395
f 395 446 447
f 395 447 448
f 395 448 397
f 397 448 449
f 397 449 398
f 398 449 450
f 398 450 451
f 398 451 452
f 398 452 399
f 399 452 453
f 399 453 454
f 399 454 455
f 399 455 401
f 399 401 400
f 401 455 456
f 401 456 457
f 401 457 458
f 401 458 402
f 402 458 403
f 403 458 404
f 404 458 405
f 405 458 406
f 406 457 459
f 406 459 460
f 406 460 408
f 406 458 457
f 408 460 461
f 408 461 462
f 408 462 409
f 409 462 463
f 409 463 464
f 409 464 410
f 410 464 465
f 410 465 411
f 411 465 412
f 412 415 414
f 412 414 413
f 412 465 466
f 412 466 467
f 412 467 415
f 415 468 416
f 415 467 468
f 416 468 469
f 416 469 418
f 418 469 419
f 419 470 471
f 419 471 420
f 419 469 472
f 419 472 473
f 419 473 470
f 420 471 422
f 423 429 474
f 424 475 425
f 424 428 475
f 425 476 429
f 425 475 476
f 426 430 477
f 426 477 427
f 427 477 478
f 427 478 479
f 427 479 480
f 427 480 481
f 427 481 428
f 428 481 475
f 429 476 482
f 429 482 474
f 430 483 477
f 431 484 485
f 431 485 432
f 432 485 433
f 433 485 486
f 433 486 487
f 433 487 434
f 434 487 435
f 435 487 436
f 436 487 488
f 436 488 489
f 436 489 490
f 436 490 491
f 436 491 492
f 436 492 493
f 436 493 494
f 436 494 437
f 437 494 438
f 438 494 493
f 438 493 495
f 438 495 496
f 438 496 497
f 438 497 440
f 438 440 439
f 440 497 441
f 443 498 444
f 444 498 445
f 445 499 500
f 445 500 501
f 445 501 446
f 445 498 499
f 446 501 502
f 446 502 449
f 446 449 447
f 447 449 448
f 449 502 503
f 449 503 450
f 450 503 451
f 451 504 505
f 451 505 452
f 451 503 504
f 452 505 453
f 453 505 506
f 453 506 455
f 453 455 454
f 455 506 507
f 455 507 456
f 456 459 457
f 456 507 508
f 456 508 509
f 456 509 459
f 459 509 510
f 459 510 511
f 459 511 512
f 459 512 460
f 460 512 461
f 461 513 463
f 461 463 462
f 461 512 514
f 461 514 515
f 461 515 513
f 463 515 516
f 463 516 464
f 463 513 515
f 464 516 517
f 464 517 518
f 464 518 465
f 465 518 519
f 465 519 466
f 466 519 520
f 466 520 521
f 466 521 467
f 467 521 522
f 467 522 523
f 467 523 524
f 467 524 468
f 468 524 525
f 468 525 469
f 469 525 472
f 472 526 473
f 472 525 527
f 472 527 528
f 472 528 529
f 472 529 526
f 474 482 531
f 474 531 530
f 475 532 476
f 475 481 532
f 476 533 482
f 476 532 534
f 476 534 535
f 476 535 533
f 477 483 546
f 477 546 536
f 477 536 478
f 478 536 537
f 478 537 538
f 478 538 479
f 479 538 539
f 479 539 540
f 479 540 541
f 479 541 542
f 479 542 480
f 480 542 543
f 480 543 481
f 481 543 532
f 482 544 545
f 482 545 531
f 482 533 544
f 484 547 548
f 484 548 549
f 484 549 485
f 485 549 486
f 486 549 548
f 486 548 550
f 486 550 551
f 486 551 487
f 487 551 488
f 488 551 552
f 488 552 553
f 488 553 489
f 489 553 554
f 489 554 490
f 490 554 555
f 490 555 491
f 491 555 556
f 491 556 493
f 491 493 492
f 493 556 557
f 493 557 495
f 495 558 559
f 495 559 496
f 495 557 558
f 496 559 560
f 500 561 501
f 501 561 562
f 501 562 563
f 501 563 564
f 501 564 565
f 501 565 502
f 502 565 566
f 502 566 504
f 502 504 503
f 504 566 505
f 505 567 568
f 505 568 569
f 505 569 508
f 505 508 506
f 505 566 567
f 506 508 507
f 508 569 570
f 508 570 571
f 508 571 510
f 508 510 509
f 510 571 572
f 510 572 573
f 510 573 574
f 510 574 511
f 511 574 512
f 512 574 514
f 514 574 575
f 514 575 515
f 515 575 576
f 515 576 577
f 515 577 578
f 515 578 516
f 516 578 517
f 517 519 518
f 517 578 579
f 517 579 580
f 517 580 519
f 519 580 520
f 520 580 579
f 520 579 581
f 520 581 582
f 520 582 521
f 521 582 583
f 521 583 584
f 521 584 540
f 521 540 585
f 521 585 522
f 522 585 539
f 522 539 586
f 522 586 523
f 523 527 525
f 523 525 524
f 523 586 587
f 523 587 527
f 527 587 528
f 528 588 529
f 528 587 538
f 528 538 589
f 528 589 590
f 528 590 588
f 530 531 591
f 531 545 591
f 532 543 534
f 533 535 592
f 533 592 593
f 533 593 594
f 533 594 544
f 534 543 542
f 534 542 595
f 534 595 596
f 534 596 592
f 534 592 535
f 536 546 597
f 536 597 537
f 537 597 598
f 537 598 589
f 537 589 538
f 538 587 539
f 539 587 586
f 539 585 540
f 540 584 599
f 540 599 541
f 541 599 595
f 541 595 542
f 544 594 545
f 545 594 600
f 545 600 601
f 545 601 602
f 545 602 603
f 545 603 604
f 545 604 591
f 547 605 606
f 547 606 548
f 548 606 550
f 550 606 551
f 551 607 608
f 551 608 609
f 551 609 610
f 551 610 611
f 551 611 552
f 551 606 612
f 551 612 613
f 551 613 607
f 552 611 614
f 552 614 553
f 553 614 554
f 554 615 555
f 554 614 615
f 555 615 616
f 555 616 556
f 556 616 617
f 556 617 618
f 556 618 557
f 557 618 619
f 557 619 620
f 557 620 558
f 558 620 621
f 558 621 622
f 558 622 623
f 558 623 559
f 559 623 624
f 559 624 560
f 562 625 563
f 563 625 626
f 563 626 627
f 563 627 564
f 564 627 566
f 564 566 565
f 566 627 567
f 567 628 568
f 567 627 629
f 567 629 628
f 568 628 630
f 568 630 631
f 568 631 632
f 568 632 569
f 569 632 570
f 570 632 618
f 570 618 633
f 570 633 634
f 570 634 572
f 570 572 571
f 572 634 635
f 572 635 636
f 572 636 574
f 572 574 573
f 574 637 575
f 574 636 615
f 574 615 637
f 575 637 576
f 576 637 638
f 576 638 577
f 577 638 639
f 577 639 640
f 577 640 578
f 578 640 641
f 578 641 642
f 578 642 579
f 579 642 581
f 581 642 582
f 582 642 583
f 583 599 584
f 583 642 596
f 583 596 599
f 589 598 643
f 589 643 590
f 592 596 644
f 592 644 600
f 592 600 593
f 593 600 594
f 595 599 596
f 596 645 644
f 596 642 645
f 600 646 647
f 600 647 602
f 600 602 601
f 600 644 646
f 602 647 648
f 602 648 649
f 602 649 650
f 602 650 603
f 605 651 606
f 606 651 612
f 607 613 652
f 607 652 653
f 607 653 608
f 608 653 654
f 608 654 655
f 608 655 656
f 608 656 640
f 608 640 657
f 608 657 658
f 608 658 609
f 609 658 659
f 609 659 610
f 610 659 611
f 611 659 658
f 611 658 614
f 612 651 660
f 612 660 613
f 613 660 652
f 614 658 615
f 615 658 637
f 615 636 616
f 616 636 635
f 616 635 617
f 617 635 634
f 617 634 633
f 617 633 618
f 618 632 661
f 618 661 619
f 619 661 662
f 619 662 663
f 619 663 620
f 620 663 621
f 621 663 664
f 625 665 626
f 626 665 666
f 626 666 629
f 626 629 627
f 628 629 666
f 628 666 630
f 630 666 667
f 630 667 664
f 630 664 631
f 631 664 632
f 632 664 668
f 632 668 669
f 632 669 661
f 637 658 657
f 637 657 638
f 638 657 639
f 639 657 640
f 640 656 670
f 640 670 641
f 641 670 642
f 642 670 671
f 642 671 645
f 644 672 646
f 644 645 673
f 644 673 672
f 645 671 673
f 646 672 647
f 647 672 654
f 647 654 674
f 647 674 648
f 648 674 649
f 649 675 676
f 649 676 650
f 649 674 677
f 649 677 675
f 651 678 660
f 652 660 679
f 652 679 653
f 653 679 680
f 653 680 674
f 653 674 654
f 654 672 673
f 654 673 655
f 655 673 671
f 655 671 656
f 656 671 670
f 660 678 679
f 661 669 668
f 661 668 662
f 662 668 663
f 663 668 664
f 665 667 666
f 674 680 677
f 675 681 676
f 675 677 680
f 675 680 681
f 678 681 679
f 679 681 680

