# https://github.com/mikedh/trimesh
v 100.75709985 85.38129464 26.68433917
v 100.75709985 75.45926570 18.91866178
v 100.75709985 85.38129464 17.43414402
v 89.96725911 85.38129464 16.83593846
v 89.96725911 75.45926570 11.24095538
v 100.75709985 75.45926570 11.34432243
v 100.75709985 85.38032551 17.43194486
v 100.57119545 85.38129464 17.23840765
v 89.96725911 85.38129464 9.57389783
v 89.96725911 75.45926570 4.21643777
v 100.61766962 75.45926570 11.22336144
v 100.75709985 75.48354774 11.35311908
v 100.75709985 85.17926219 17.24940410
v 100.62506528 85.25793847 17.18122622
v 100.38106495 85.38129464 17.04926909
v 90.00845453 85.38129464 9.59369158
v 90.16900751 85.15206507 9.50571995
v 89.96725911 85.22005530 9.46173413
v 89.96725911 80.98316031 7.00953067
v 90.08978754 80.76072745 6.95234988
v 90.98550724 79.92345072 6.93915233
v 91.53688259 80.47224646 7.48897375
v 92.12734031 80.21193171 7.65831952
v 92.70195275 79.90013909 7.81446904
v 93.23431454 79.59611615 7.95742230
v 94.09095315 79.55920595 8.41267460
v 94.06454650 78.70347220 8.00800689
v 93.76139628 78.41207613 7.70450450
v 94.06454650 77.78557580 7.60333790
v 94.54831978 77.45629784 7.74629116
v 94.70781753 76.98423757 7.65172204
v 95.13877750 76.98423757 7.90903816
v 95.31623100 76.45001079 7.80347323
v 94.99723679 76.14598786 7.49777168
v 95.49262926 75.87498963 7.69570785
v 95.61410117 75.45926570 7.61653287
v 100.58175811 75.45926570 11.19257124
v 100.53528137 75.64964297 11.23215873
v 100.75709985 76.09159361 11.60823669
v 100.75709985 84.93934399 17.04926909
v 100.75709985 84.69165997 16.84473575
v 100.33142121 84.91020606 16.60721273
v 99.75680877 85.25016750 16.32570422
v 99.89623643 85.38129464 16.57422337
v 90.63059895 85.38129464 9.91478726
v 91.26225079 85.38129464 10.24687876
v 91.86115813 85.12195287 10.38983202
v 90.63799332 84.96557199 9.63107862
v 90.63799332 84.53430483 9.34736998
v 89.96725911 84.06807215 8.73157112
v 89.96725911 84.94614584 9.28359170
v 89.96725911 81.30660940 7.17447683
v 90.67390612 80.45767621 7.06671145
v 90.66123170 81.32506514 7.50876749
v 91.27492650 81.05698070 7.66271913
v 91.84954023 80.78598247 7.80567111
v 92.38718335 81.31826586 8.36429046
v 92.69139009 81.62034541 8.68318698
v 92.96179579 81.04532424 8.53583411
v 93.23959715 80.44407765 8.37968460
v 93.80575998 80.16433804 8.54463076
v 94.38037242 79.83797387 8.70737905
v 94.60958399 79.26295270 8.57102328
v 94.91801554 78.63548068 8.47865332
v 94.88210274 77.78557580 8.08718059
v 95.55811829 77.84773973 8.51824082
v 96.17709442 77.31642803 8.66779156
v 95.85809893 77.01143340 8.35109420
v 96.35560573 76.74140686 8.55122954
v 95.79260991 76.14598786 7.97941521
v 96.03344067 75.45926570 7.88044777
v 100.10960273 75.45926570 10.80769663
v 99.98601778 76.12170453 10.97264344
v 100.41697903 76.12170453 11.33112617
v 100.75709985 76.92789994 11.96891922
v 100.75709985 84.50516432 16.69298488
v 100.57225197 84.33518489 16.37188919
v 99.46210817 84.90146339 15.75169041
v 98.88643664 85.23948402 15.47238138
v 99.03642953 85.38129464 15.74069395
v 91.31929020 85.38129464 10.27766832
v 92.78962362 84.31187326 10.35464414
v 92.21395465 84.54693170 10.19849462
v 91.10486738 84.34586837 9.47053078
v 91.69638034 85.38129464 10.48220198
v 92.35866365 85.38129464 10.84948264
v 92.94489656 85.30359005 11.12219419
v 92.44633452 84.79947419 10.49319907
v 91.43548077 83.84272549 9.32977668
v 90.61264319 83.84855308 8.91191271
v 90.30949298 83.53773086 8.57762077
v 89.96725911 83.00641917 8.10477517
v 89.96725911 82.08366559 7.57914583
v 90.38871295 81.89134364 7.67591411
v 90.96438191 81.63200187 7.81446904
v 91.53688259 81.32506514 7.93323023
v 92.11677765 81.90688559 8.52923663
v 92.38718335 82.18079761 8.82833941
v 92.90687071 82.69948244 9.42214664
v 93.20685264 82.13708814 9.27479377
v 93.75822671 81.83500730 9.42874541
v 93.23959715 81.31826586 8.83713605
v 93.53746604 80.73838751 8.69418279
v 94.09095315 80.44407765 8.85913025
v 94.59585305 80.95304940 9.43974122
v 94.90956592 80.36928556 9.32537836
v 95.40918449 80.03903720 9.47053078
v 94.91801554 79.55920595 8.91191271
v 95.18419772 78.87442461 8.75356403
v 95.39545226 78.29940344 8.61720826
v 95.98907697 77.84773973 8.79095236
v 96.40524948 78.50920944 9.38035998
v 97.20273692 79.28529393 10.28206664
v 96.68516389 77.82054260 9.24840382
v 97.16893589 77.51457757 9.44413955
v 96.65558638 77.01143340 8.87012606
v 96.96401921 76.12170453 8.72497235
v 97.09182768 75.66518492 8.63700201
v 96.53305795 76.12170453 8.43686667
v 96.71579535 75.45926570 8.31810548
v 100.00397610 75.45926570 10.72192480
v 99.45682556 76.12170453 10.54158322
v 99.81595865 76.78511634 11.11119838
v 100.57858854 77.45629784 12.05689085
v 100.75709985 77.30574327 12.14046352
v 99.66279876 77.36013751 11.23875622
v 100.75709985 84.19822759 16.44886405
v 100.75709985 83.87672189 16.19814541
v 100.50676295 83.39203347 15.57134946
v 99.70188241 84.32644222 15.51636719
v 99.20965822 84.66737536 15.32282999
v 98.81989366 84.30216018 14.67404048
v 98.61708746 84.74702333 14.84778394
v 97.98226604 85.19188905 14.65424674
v 98.17450959 85.38129464 14.97534307
v 98.56850024 85.38129464 15.31623186
v 98.81883714 85.38129464 15.53396113
v 93.22480840 83.67371646 10.21388876
v 92.59315655 83.27450360 9.59808990
v 92.01854411 83.52704609 9.44194038
v 91.68053634 84.10206726 9.62448113
v 93.22903449 84.75965020 10.91985969
v 93.82899706 84.48088228 11.10240044
v 93.22480840 84.10498106 10.48440114
v 92.78011748 85.38129464 11.08480650
v 92.89630805 85.38129464 11.15078523
v 93.01989172 85.38129464 11.22776040
v 93.39803709 85.38129464 11.46528278
v 93.51950900 85.05590345 11.30033662
v 91.80728829 82.48190675 8.68758531
v 91.51153246 83.01613224 8.86132812
v 90.88410542 83.30072903 8.71617570
v 91.23267585 82.72570786 8.54683121
v 89.96725911 82.50618880 7.81006943
v 93.66738756 83.46293878 10.34584621
v 94.53881364 82.60914969 10.33924872
v 93.48148315 82.41002847 9.59369158
v 92.32908870 83.00059158 9.28579086
v 94.06243345 82.13708814 9.78282982
v 94.33284044 81.52807057 9.60028906
v 94.06243345 81.26289992 9.29238964
v 94.74689989 82.15942808 10.20949043
v 95.37749521 81.72427671 10.35464414
v 95.17046549 80.61308667 9.62448113
v 95.61304465 81.14925555 10.19849462
v 95.79894905 80.41882391 9.92798224
v 96.42426175 80.22455987 10.23368250
v 96.99887676 79.86031510 10.42502119
v 96.69678050 79.57280451 10.08193259
v 95.58663670 79.57280451 9.35396875
v 96.20138932 79.08423060 9.51671576
v 95.79789252 78.69181702 9.06586178
v 97.96325376 78.27123591 10.35464414
v 97.39075437 78.71027148 10.14791132
v 96.97986192 78.08959873 9.57609571
v 97.58193882 79.63885393 10.74611687
v 97.82171306 78.71027148 10.46240823
v 98.14810164 77.69621346 10.22268669
v 98.72271408 77.23580836 10.43161867
v 98.42167692 76.96286803 10.09952718
v 97.32843235 76.98423757 9.32977668
v 97.91466655 76.45681007 9.52771157
v 97.59038844 76.15084375 9.17802549
v 97.44251116 75.45926570 8.80194817
v 97.36434643 75.45926570 8.74696655
v 97.14781056 75.45926570 8.59961368
v 99.61843506 75.45926570 10.40962577
v 98.88960621 76.66078719 10.30625871
v 99.27620377 77.01046299 10.77030894
v 100.12544801 77.78460410 11.83476261
v 99.67019185 79.10365675 12.09427854
v 100.41275294 78.03131901 12.19764495
v 100.75709985 77.87202305 12.41537423
v 100.75709985 77.61268128 12.28781574
v 99.08501675 77.84773973 11.01003049
v 99.51597801 77.84773973 11.35751805
v 100.75709985 82.84129434 15.39760536
v 100.18248484 83.09286642 15.03912199
v 99.62583073 83.36969224 14.72462443
v 99.05121572 83.72713901 14.47170663
v 98.95192566 82.74124853 13.69755781
v 98.71743404 83.31626969 13.89769250
v 98.04458807 82.68102670 12.87722465
v 97.79213812 83.25604786 13.08175767
v 97.89248470 84.23028189 13.86250462
v 98.18612877 84.74702333 14.48710141
v 97.69179154 85.38129464 14.56847491
v 97.88931513 85.38129464 14.73122192
v 97.31786969 84.54401919 13.63157908
v 96.71790583 84.79461829 13.33467611
v 97.05063355 85.11904036 13.84710920
v 94.10468538 84.75965020 11.47847904
v 94.87365313 84.67903053 11.93153153
v 95.41129496 84.34586837 12.05689085
v 94.40361079 84.20211436 11.29153932
v 94.69514182 83.62709191 11.09800212
v 94.03497155 83.83301242 10.81209560
v 94.10046058 85.38129464 11.91833592
v 94.53458883 85.19188905 12.06568750
v 94.24200128 83.18417086 10.52398863
v 94.90428459 82.97533656 10.80989579
v 95.54332953 82.76650355 11.09580296
v 95.17891639 82.15942808 10.48000282
v 96.18871361 80.79860934 10.38763286
v 95.82324394 82.15748598 10.92205950
v 96.35982926 81.86900370 11.12879232
v 95.86549459 81.38042979 10.49759740
v 96.69678050 80.48001615 10.56357612
v 97.16787936 80.94333633 11.16837917
v 97.36117686 80.43436457 11.01882842
v 97.96008419 79.99144224 11.22116227
v 98.42167692 77.92933109 10.53498444
v 98.15232774 79.41642107 11.06941172
v 98.42378996 78.70055840 10.91766053
v 98.07310648 75.88178891 9.41334999
v 97.54497079 75.45926570 8.87452438
v 99.22761398 75.45926570 10.10832383
v 99.02481035 76.12170453 10.20289295
v 98.60335523 75.45926570 9.63767739
v 98.18507225 75.45926570 9.32977668
v 99.08290370 79.57280451 11.87874843
v 99.51386496 79.57280451 12.21963786
v 99.82546479 80.19153516 12.82444154
v 100.11699582 79.50772551 12.69688306
v 100.57647549 79.17650545 12.92120983
v 100.75709985 78.66656200 12.81564425
v 100.12544801 78.77340710 12.32080511
v 98.91284458 78.40722023 11.14858542
v 98.72799670 78.98224140 11.29593829
v 100.75709985 82.74222022 15.32502915
v 100.43176779 82.42557041 14.77740689
v 99.85715278 82.79467107 14.52228993
v 99.52654067 82.37020448 13.94607728
v 98.61920051 82.31192604 13.12134516
v 98.83679290 81.73690358 12.93440544
v 98.35935747 82.07783800 12.75406385
v 97.90621436 81.64657212 12.12286958
v 97.58616491 82.23519185 12.24602909
v 97.09077116 82.57320991 12.08768041
v 97.51750632 82.98990681 12.68368680
v 97.21752568 83.57755485 12.85303194
v 96.96084964 84.15257602 13.05536644
v 96.53411447 85.38129464 13.63817721
v 96.38518067 84.47019880 12.83103967
v 96.10949235 85.04521997 13.03997166
v 95.10920127 84.92088954 12.25702619
v 95.75986540 84.69554417 12.54293271
v 95.98590997 84.04281713 12.25482638
v 95.27081207 83.34152471 11.28714036
v 94.71943671 85.38129464 12.32960240
v 95.35214508 85.38129464 12.75406385
v 95.53382339 85.31913199 12.83103967
v 96.25631568 83.46779596 12.06788731
v 96.45806279 83.02195983 11.92053508
v 96.11794454 82.44402487 11.30473494
v 96.65875595 81.25707234 10.98583842
v 97.33054540 81.99818874 11.91173779
v 96.93550079 81.51835749 11.33772430
v 97.79319464 80.43436457 11.34652159
v 98.11852670 81.07154967 11.96012257
v 98.40266464 80.40716745 11.80397305
v 98.90228192 80.10217282 12.02170233
v 100.40007723 79.75152662 13.08175767
v 99.26141501 80.43339288 12.50554502
v 98.99734588 81.29689633 12.80024947
v 99.62054811 80.76558463 13.00258333
v 100.35149001 81.29689633 13.98126581
v 100.52154914 80.81415000 13.83391358
v 100.71062311 80.24010053 13.65797096
v 100.75709985 79.33094551 13.17412827
v 100.75709985 79.02886467 13.00698230
v 100.75709985 82.25364631 14.97534307
v 100.75709985 81.95059506 14.76641044
v 100.64196452 81.85054796 14.58606949
v 100.08742088 82.10989101 14.26717297
v 99.74307654 81.79518331 13.75913757
v 99.18219376 82.05355467 13.44024104
v 99.42830714 81.29689633 13.16972930
v 98.40266464 81.33380652 12.33839905
v 98.69313914 80.67622358 12.18444933
v 96.88902405 83.02195983 12.23503328
v 96.60911220 83.81067119 12.55392980
v 96.48658378 85.38129464 13.60078888
v 95.97112122 85.38129464 13.20271866
v 95.50002236 85.38129464 12.85523174
v 100.75709985 79.56988944 13.31048340
v 100.75709985 80.20319033 13.67996387
v 99.92052875 81.29689633 13.60078888
v 100.75709985 81.50475893 14.47830412
v 100.75709985 80.69467804 13.97906665
v 100.75709985 80.27992451 13.72614885
v 100.75709985 81.74758835 14.63005467
f 1 2 6
f 1 6 12
f 1 12 39
f 1 39 75
f 1 75 125
f 1 125 194
f 1 194 193
f 1 193 246
f 1 246 291
f 1 291 290
f 1 290 306
f 1 306 307
f 1 307 311
f 1 311 310
f 1 310 309
f 1 309 312
f 1 312 293
f 1 293 292
f 1 292 250
f 1 250 197
f 1 197 128
f 1 128 127
f 1 127 76
f 1 76 41
f 1 41 40
f 1 40 13
f 1 13 7
f 1 7 3
f 1 3 8
f 1 8 15
f 1 15 44
f 1 44 80
f 1 80 137
f 1 137 136
f 1 136 135
f 1 135 208
f 1 208 207
f 1 207 263
f 1 263 303
f 1 303 304
f 1 304 305
f 1 305 271
f 1 271 270
f 1 270 218
f 1 218 148
f 1 148 147
f 1 147 146
f 1 146 145
f 1 145 86
f 1 86 85
f 1 85 81
f 1 81 46
f 1 46 45
f 1 45 16
f 1 16 9
f 1 9 4
f 1 4 5
f 1 5 2
f 2 5 10
f 2 10 36
f 2 36 71
f 2 71 120
f 2 120 186
f 2 186 185
f 2 185 184
f 2 184 236
f 2 236 240
f 2 240 239
f 2 239 237
f 2 237 187
f 2 187 121
f 2 121 72
f 2 72 37
f 2 37 11
f 2 11 6
f 3 7 8
f 4 9 18
f 4 18 51
f 4 51 50
f 4 50 92
f 4 92 154
f 4 154 93
f 4 93 52
f 4 52 19
f 4 19 10
f 4 10 5
f 6 11 12
f 7 13 14
f 7 14 8
f 8 14 15
f 9 16 17
f 9 17 18
f 10 19 20
f 10 20 21
f 10 21 22
f 10 22 23
f 10 23 24
f 10 24 25
f 10 25 26
f 10 26 27
f 10 27 28
f 10 28 29
f 10 29 30
f 10 30 31
f 10 31 32
f 10 32 33
f 10 33 34
f 10 34 35
f 10 35 36
f 11 37 38
f 11 38 12
f 12 38 39
f 13 40 14
f 14 40 41
f 14 41 42
f 14 42 43
f 14 43 44
f 14 44 15
f 16 45 17
f 17 45 46
f 17 46 47
f 17 47 48
f 17 48 49
f 17 49 50
f 17 50 51
f 17 51 18
f 19 52 20
f 20 52 53
f 20 53 21
f 21 53 54
f 21 54 55
f 21 55 22
f 22 55 56
f 22 56 23
f 23 56 57
f 23 57 58
f 23 58 59
f 23 59 60
f 23 60 61
f 23 61 24
f 24 61 25
f 25 61 26
f 26 61 62
f 26 62 63
f 26 63 27
f 27 63 29
f 27 29 28
f 29 63 64
f 29 64 65
f 29 65 30
f 30 32 31
f 30 65 66
f 30 66 67
f 30 67 68
f 30 68 32
f 32 68 33
f 33 35 34
f 33 68 69
f 33 69 70
f 33 70 35
f 35 70 36
f 36 70 71
f 37 72 73
f 37 73 38
f 38 74 39
f 38 73 74
f 39 74 75
f 41 76 77
f 41 77 42
f 42 77 78
f 42 78 43
f 43 78 79
f 43 79 44
f 44 79 80
f 46 81 47
f 47 82 83
f 47 83 84
f 47 84 48
f 47 81 85
f 47 85 86
f 47 86 87
f 47 87 88
f 47 88 82
f 48 84 49
f 49 89 90
f 49 90 50
f 49 84 89
f 50 90 91
f 50 91 92
f 52 93 94
f 52 94 54
f 52 54 53
f 54 94 95
f 54 95 55
f 55 95 96
f 55 96 56
f 56 96 97
f 56 97 57
f 57 97 58
f 58 97 98
f 58 98 99
f 58 99 100
f 58 100 101
f 58 101 102
f 58 102 103
f 58 103 61
f 58 61 59
f 59 61 60
f 61 103 104
f 61 104 62
f 62 104 105
f 62 105 106
f 62 106 107
f 62 107 108
f 62 108 63
f 63 108 109
f 63 109 110
f 63 110 64
f 64 110 65
f 65 110 66
f 66 110 67
f 67 110 111
f 67 111 112
f 67 112 113
f 67 113 114
f 67 114 115
f 67 115 116
f 67 116 69
f 67 69 68
f 69 116 117
f 69 117 118
f 69 118 119
f 69 119 71
f 69 71 70
f 71 119 120
f 72 121 122
f 72 122 73
f 73 122 123
f 73 123 74
f 74 123 75
f 75 124 125
f 75 123 126
f 75 126 124
f 76 127 77
f 77 127 128
f 77 128 129
f 77 129 130
f 77 130 78
f 78 130 79
f 79 130 131
f 79 131 132
f 79 132 133
f 79 133 134
f 79 134 135
f 79 135 136
f 79 136 137
f 79 137 80
f 82 138 99
f 82 99 139
f 82 139 140
f 82 140 141
f 82 141 84
f 82 84 83
f 82 88 87
f 82 87 142
f 82 142 143
f 82 143 144
f 82 144 138
f 84 141 140
f 84 140 89
f 86 145 87
f 87 145 146
f 87 146 147
f 87 147 148
f 87 148 149
f 87 149 142
f 89 150 151
f 89 151 90
f 89 140 150
f 90 151 152
f 90 152 91
f 91 153 154
f 91 154 92
f 91 152 153
f 93 154 94
f 94 154 150
f 94 150 95
f 95 150 97
f 95 97 96
f 97 150 98
f 98 150 99
f 99 138 155
f 99 155 156
f 99 156 157
f 99 157 100
f 99 150 158
f 99 158 139
f 100 157 101
f 101 157 159
f 101 159 160
f 101 160 161
f 101 161 102
f 102 161 103
f 103 161 104
f 104 161 105
f 105 160 162
f 105 162 163
f 105 163 106
f 105 161 160
f 106 163 164
f 106 164 107
f 107 164 163
f 107 163 165
f 107 165 166
f 107 166 167
f 107 167 168
f 107 168 169
f 107 169 170
f 107 170 108
f 108 170 171
f 108 171 109
f 109 171 172
f 109 172 110
f 110 172 111
f 111 172 171
f 111 171 112
f 112 171 113
f 113 173 174
f 113 174 175
f 113 175 114
f 113 171 169
f 113 169 168
f 113 168 176
f 113 176 177
f 113 177 173
f 114 175 115
f 115 175 174
f 115 174 178
f 115 178 179
f 115 179 180
f 115 180 181
f 115 181 116
f 116 181 117
f 117 181 182
f 117 182 183
f 117 183 184
f 117 184 185
f 117 185 118
f 118 186 120
f 118 120 119
f 118 185 186
f 121 187 122
f 122 187 188
f 122 188 123
f 123 188 189
f 123 189 126
f 124 190 191
f 124 191 192
f 124 192 193
f 124 193 194
f 124 194 125
f 124 126 190
f 126 189 179
f 126 179 195
f 126 195 196
f 126 196 191
f 126 191 190
f 128 197 129
f 129 197 198
f 129 198 130
f 130 198 199
f 130 199 132
f 130 132 131
f 132 199 252
f 132 252 200
f 132 200 201
f 132 201 202
f 132 202 203
f 132 203 204
f 132 204 205
f 132 205 206
f 132 206 134
f 132 134 133
f 134 207 208
f 134 208 135
f 134 206 205
f 134 205 209
f 134 209 210
f 134 210 211
f 134 211 207
f 138 144 155
f 139 158 140
f 140 158 150
f 142 149 143
f 143 149 212
f 143 212 213
f 143 213 214
f 143 214 215
f 143 215 216
f 143 216 217
f 143 217 144
f 144 217 155
f 148 218 149
f 149 218 219
f 149 219 212
f 150 153 152
f 150 152 151
f 150 154 153
f 155 217 220
f 155 220 156
f 156 162 159
f 156 159 157
f 156 220 217
f 156 217 216
f 156 216 221
f 156 221 222
f 156 222 223
f 156 223 162
f 159 162 160
f 162 223 163
f 163 224 165
f 163 223 222
f 163 222 225
f 163 225 226
f 163 226 227
f 163 227 224
f 165 224 167
f 165 167 166
f 167 224 168
f 168 228 229
f 168 229 230
f 168 230 231
f 168 231 176
f 168 224 228
f 169 171 170
f 173 178 174
f 173 177 232
f 173 232 179
f 173 179 178
f 176 233 177
f 176 231 233
f 177 233 234
f 177 234 232
f 179 232 195
f 179 189 188
f 179 188 180
f 180 188 181
f 181 188 182
f 182 188 235
f 182 235 183
f 183 235 184
f 184 235 236
f 187 237 238
f 187 238 188
f 188 238 239
f 188 239 240
f 188 240 235
f 191 241 242
f 191 242 243
f 191 243 244
f 191 244 245
f 191 245 246
f 191 246 247
f 191 247 192
f 191 196 195
f 191 195 248
f 191 248 249
f 191 249 233
f 191 233 241
f 192 247 193
f 193 247 246
f 195 232 248
f 197 250 251
f 197 251 198
f 198 251 199
f 199 251 252
f 200 252 201
f 201 253 254
f 201 254 203
f 201 203 202
f 201 252 253
f 203 254 255
f 203 255 256
f 203 256 257
f 203 257 258
f 203 258 259
f 203 259 260
f 203 260 261
f 203 261 204
f 204 261 262
f 204 262 205
f 205 262 209
f 207 211 263
f 209 262 210
f 210 262 264
f 210 264 265
f 210 265 211
f 211 265 263
f 212 219 213
f 213 219 266
f 213 266 214
f 214 266 267
f 214 267 268
f 214 268 269
f 214 269 215
f 215 269 216
f 216 269 221
f 218 270 219
f 219 270 271
f 219 271 272
f 219 272 266
f 221 269 222
f 222 269 268
f 222 268 273
f 222 273 274
f 222 274 259
f 222 259 275
f 222 275 225
f 224 227 226
f 224 226 276
f 224 276 228
f 225 275 226
f 226 275 259
f 226 259 277
f 226 277 278
f 226 278 229
f 226 229 276
f 228 276 229
f 229 278 257
f 229 257 230
f 230 257 279
f 230 279 231
f 231 279 257
f 231 257 280
f 231 280 281
f 231 281 282
f 231 282 241
f 231 241 233
f 232 234 248
f 233 249 234
f 234 249 248
f 235 240 236
f 237 239 238
f 241 282 242
f 242 282 243
f 243 283 244
f 243 282 284
f 243 284 285
f 243 285 286
f 243 286 287
f 243 287 288
f 243 288 289
f 243 289 283
f 244 283 245
f 245 283 290
f 245 290 291
f 245 291 246
f 250 292 251
f 251 292 293
f 251 293 294
f 251 294 295
f 251 295 253
f 251 253 252
f 253 295 296
f 253 296 297
f 253 297 254
f 254 297 255
f 255 297 296
f 255 296 298
f 255 298 286
f 255 286 285
f 255 285 299
f 255 299 257
f 255 257 256
f 257 277 258
f 257 299 300
f 257 300 280
f 257 278 277
f 258 277 259
f 259 274 301
f 259 301 260
f 260 302 261
f 260 301 302
f 261 302 264
f 261 264 262
f 263 265 303
f 264 302 273
f 264 273 268
f 264 268 267
f 264 267 265
f 265 267 272
f 265 272 304
f 265 304 303
f 266 272 267
f 271 305 272
f 272 305 304
f 273 302 301
f 273 301 274
f 280 300 281
f 281 300 282
f 282 300 284
f 283 306 290
f 283 289 307
f 283 307 306
f 284 300 285
f 285 300 299
f 286 298 296
f 286 296 308
f 286 308 287
f 287 308 294
f 287 294 288
f 288 294 309
f 288 309 310
f 288 310 289
f 289 310 311
f 289 311 307
f 293 312 294
f 294 312 309
f 294 308 296
f 294 296 295

