# https://github.com/mikedh/trimesh
v 73.82402888 85.61344700 6.04691968
v 73.59556086 85.61344700 6.04900830
v 73.82402888 85.82385194 6.17641962
v 73.82402888 85.61344700 12.74962568
v 73.38440079 85.61344700 6.05109693
v 73.38440079 85.82037390 6.17850953
v 73.82402888 86.14380628 6.37902531
v 56.14199430 85.61344700 17.94218649
v 73.82402888 98.30210948 27.38529483
v 56.14199430 93.60711267 27.38529483
v 72.52245386 85.61344700 6.06154134
v 72.52245386 85.81168008 6.18686403
v 73.38440079 86.92978507 6.88449589
v 73.82402888 86.69851186 6.73619703
v 56.14199430 85.61344700 10.52722632
v 73.82402888 103.37618480 27.38529483
v 56.14199430 99.31935892 27.38529483
v 72.02051660 85.61344700 6.08242760
v 71.66050628 85.78211799 6.20566295
v 72.13301962 86.90196329 6.90329480
v 72.70938201 86.91935094 6.89076305
v 73.82402888 86.92804477 6.88658580
v 73.38440079 87.36102910 7.17482901
v 73.82402888 87.14019002 7.02861878
v 56.14199430 85.64996260 10.55229112
v 56.72701002 85.92470751 10.43114440
v 57.01951917 85.61344700 10.06770809
v 73.38440079 103.37792253 27.38529483
v 73.82402888 103.29271688 27.15762434
v 56.91394010 99.68104721 27.38529483
v 56.14199430 99.22024366 27.14926919
v 71.66050628 85.61344700 6.09913661
v 71.04952797 85.61344700 6.14717886
v 70.79682867 86.40290127 6.66726981
v 70.79682867 86.83414529 6.94715852
v 71.66050628 86.87761956 6.91791647
v 71.66050628 87.33494506 7.22913585
v 72.46187536 87.25843580 7.12678933
v 73.82402888 87.35929136 7.17900626
v 72.52245386 87.97137825 7.61346098
v 73.38440079 87.98355012 7.60510648
v 73.82402888 87.66533352 7.38996646
v 56.14199430 86.30900179 11.01180999
v 57.30164303 86.12989667 10.28911270
v 57.79838636 85.62735917 9.68547158
v 56.56950579 86.90196329 11.21650432
v 57.80877165 85.61344700 9.67085120
v 73.38440079 103.21272959 26.94457487
v 72.52245386 103.35010075 27.38529483
v 73.82402888 103.21272959 26.94457487
v 57.34664424 99.87928028 27.38529483
v 57.01086519 99.63583521 27.17642261
v 56.14199430 99.18546579 27.06780957
v 70.79682867 85.61344700 6.16806511
v 70.79682867 85.72299638 6.23699362
v 69.93488109 86.78545782 6.97848919
v 71.66050628 87.93486264 7.64270175
v 71.66050628 88.36610667 7.95601103
v 71.66050628 88.94689373 8.38837585
v 72.52245386 88.40262227 7.93512349
v 73.38440079 88.41479414 7.92468036
v 73.82402888 88.41131610 7.92468036
v 73.82402888 87.98007207 7.60928373
v 56.14199430 86.74720191 11.33347314
v 57.86069681 86.75241769 10.46247635
v 58.29686228 86.90022299 10.35386267
v 57.86069681 86.32117366 10.15125569
v 58.48032974 85.92470751 9.57268064
v 56.14199430 86.90022299 11.45461858
v 56.14199430 87.34190114 11.80761240
v 56.46911937 87.83574482 12.02275050
v 56.99874988 88.01137190 11.87862889
v 57.57857296 87.66707383 11.29378733
v 58.15320468 87.85661308 11.14131058
v 58.71745110 85.61344700 9.25519539
v 73.82402888 103.07709616 26.62082309
v 73.38440079 102.94494077 26.30751509
v 72.52245386 102.91537868 26.30751509
v 72.52245386 103.19707967 26.98426069
v 71.80416453 103.31880093 27.38529483
v 57.66165270 100.01491371 27.38529483
v 57.86415815 100.01665145 27.17642261
v 58.15320468 99.90188628 26.59575830
v 57.57857296 99.77320894 26.89444528
v 56.37565561 99.06722001 26.54354008
v 56.14199430 98.85159929 26.31169234
v 70.02834549 85.61344700 6.24117087
v 69.93488109 85.65344065 6.27459017
v 69.93488109 86.35421122 6.70695627
v 69.07293384 86.27422393 6.75708457
v 69.07293384 86.70546795 7.03070740
v 69.09197278 87.40102275 7.51320181
v 69.39313527 87.78879508 7.74922809
v 69.93488109 87.33494506 7.36490295
v 70.79682867 87.88617260 7.67821095
v 70.79682867 88.31741663 7.98525308
v 70.79682867 88.91559391 8.41761790
v 70.79682867 89.34683793 8.73719306
v 72.52245386 88.97297777 8.36539968
v 71.66050628 89.37813776 8.71421689
v 73.38440079 89.42160945 8.67870897
v 73.38440079 88.99036799 8.35495655
v 73.82402888 89.42160945 8.67870897
v 58.87322531 87.08280615 10.22436145
v 58.63956400 87.35755106 10.52931495
v 59.58632200 86.69677413 9.63534327
v 59.05669149 86.10207489 9.44526933
v 56.14199430 88.19047959 12.50106765
v 56.38084826 88.76431056 12.82899732
v 56.99874988 88.44261592 12.22744546
v 57.47472391 88.60085535 12.10003351
v 58.05108566 88.77474469 11.95173465
v 58.72264375 88.46000614 11.35436005
v 58.72264375 88.02876212 11.00345485
v 60.44826893 85.90384181 8.71839414
v 59.57420668 85.61344700 8.89384642
v 73.82402888 102.94494077 26.30751509
v 73.82402888 102.76583308 25.90439168
v 73.82402888 102.59194631 25.51380066
v 73.38440079 102.39719127 25.08352447
v 72.52245386 102.38849488 25.10441137
v 72.52245386 102.57977187 25.53677683
v 71.66050628 102.88060082 26.30751509
v 71.66050628 102.56238422 25.57646265
v 71.66050628 103.17795172 27.03438963
v 71.66050628 103.31184484 27.38529483
v 57.88146611 100.10881319 27.38529483
v 58.73475906 100.00969793 26.30751509
v 58.45436652 99.77668699 26.01927124
v 57.86415815 99.64453160 26.30751509
v 58.80053085 100.48962943 27.38529483
v 58.80053085 100.43224813 27.24535047
v 56.65950821 98.93506463 25.96705302
v 56.14199430 98.82551524 26.25529687
v 69.68737412 85.61344700 6.27876742
v 67.57750702 86.08990045 6.86987551
v 69.13524333 85.61344700 6.34351739
v 68.20406391 85.61344700 6.47510724
v 67.00287595 86.02034729 6.91582784
v 68.20925591 87.23408950 7.53617797
v 68.20925591 87.66533352 7.83486560
v 68.81677288 87.73315152 7.78891326
v 69.93488109 87.83052904 7.71789741
v 69.09197278 88.12439933 8.03538138
v 69.07293384 88.77822274 8.51578845
v 69.93488109 88.85821261 8.46148161
v 69.93488109 88.26177306 8.02911679
v 69.93488109 89.28945406 8.78105549
v 69.93488109 89.82850974 9.21133296
v 70.79682867 89.88067782 9.16746925
v 72.52245386 90.38147759 9.46615559
v 72.52245386 89.40422180 8.69332935
v 72.52245386 89.92414952 9.10271928
v 73.38440079 89.92414952 9.06929870
v 73.82402888 89.66853257 8.87087025
v 59.34920063 87.65837743 10.43114440
v 60.10383591 86.85501356 9.52463968
v 59.58632200 86.26553010 9.33247840
v 56.14199430 89.02688360 13.20287804
v 56.81008977 89.33988184 13.07337746
v 57.05759643 89.05644312 12.70158472
v 57.38472149 89.51724923 12.91672346
v 59.11380930 89.51551149 12.05617044
v 58.78495292 89.06166147 11.83267720
v 59.20900436 88.60085535 11.23739186
v 60.88270438 86.03947524 8.62857938
v 60.44826893 85.61344700 8.53249745
v 59.64863117 85.61344700 8.86251575
v 73.82402888 102.49282848 25.29448532
v 73.82402888 102.39719127 25.08352447
v 73.82402888 102.28068580 24.82870056
v 73.38440079 102.16765580 24.58223115
v 72.52245386 102.15200589 24.58223115
v 71.66050628 102.36936692 25.14618582
v 70.79682867 102.83538882 26.30751509
v 70.79682867 102.53977822 25.63494674
v 70.79682867 103.15534572 27.10122887
v 70.79682867 103.26141706 27.38529483
v 59.58632200 100.33139257 26.30751509
v 59.02899824 99.88971442 25.77697972
v 58.93726451 100.54527556 27.38529483
v 59.28169882 100.67916869 27.38529483
v 59.58632200 100.61135326 26.95710726
v 58.73475906 99.61844756 25.47202622
v 58.12378012 99.05331041 24.86838574
v 57.84685019 99.21154727 25.42398590
v 57.23414121 99.06896032 25.69551946
v 56.96759401 98.80812502 25.42398590
v 56.14199430 98.36123108 25.31119497
v 56.14199430 98.81855915 26.24067585
v 68.16425470 85.61344700 6.48137440
v 67.31269241 85.68474047 6.65891402
v 66.48536139 85.61344700 6.76335045
v 66.48536139 85.94209515 6.96386881
v 66.48536139 86.47245701 7.32521777
v 67.34730833 87.56099992 7.90588145
v 67.34730833 87.12975589 7.61137107
v 67.38365556 88.25481698 8.38628722
v 67.69693400 88.64780509 8.61186909
v 69.07293384 89.20946676 8.84580674
v 69.07293384 89.75547596 9.27608165
v 69.07293384 90.18672255 9.62489886
v 69.93488109 90.25975376 9.56850339
v 70.79682867 90.31192185 9.52463968
v 71.42165361 90.33974363 9.50166351
v 71.99628532 90.36234963 9.48286588
v 71.66050628 91.29787146 10.28284554
v 72.52245386 90.81272161 9.83168181
v 73.38440079 90.40408102 9.44735667
v 73.82402888 89.92414952 9.07138861
v 59.92383107 87.81661686 10.31417621
v 59.56728273 88.20960498 10.77160711
v 60.67846763 87.01325042 9.40767150
v 60.41365301 86.52984087 9.16746925
v 56.14199430 89.13469525 13.29895933
v 56.14199430 89.27032868 13.42010540
v 56.32719178 89.65114492 13.64777590
v 57.08355965 89.87198143 13.41592815
v 58.46129047 90.25627572 13.02951439
v 59.03592219 90.42147124 12.87912691
v 57.35702824 90.39886524 13.76056683
v 59.58632200 90.07369255 12.31726087
v 60.44826893 89.35379402 11.32929525
v 59.78363479 88.75040096 11.11415716
v 59.58632200 89.64244853 11.95173465
v 61.22713741 86.47245701 8.81238616
v 61.45733610 86.18380250 8.53040883
v 62.10119966 85.61344700 7.94765653
v 61.31021587 85.61344700 8.21292357
v 60.94328352 85.61344700 8.34869067
v 73.82402888 102.16765580 24.58223115
v 73.38440079 101.76771417 23.74883155
v 72.52245386 101.76249582 23.75718606
v 71.66050628 102.11201224 24.58223115
v 69.93488109 102.75540152 26.30751509
v 69.98334396 103.13795550 27.24535047
v 69.93488109 102.49978457 25.72058425
v 70.79682867 102.33980740 25.20258128
v 69.93488109 101.97464107 24.58223115
v 69.93488109 102.30155149 25.29030742
v 70.50778215 103.23881106 27.38529483
v 60.03979671 100.69481860 26.75867882
v 60.37557447 100.60265943 26.25738550
v 60.95712886 100.67743095 25.93572235
v 60.44826893 100.25140270 25.44487280
v 59.98094759 99.85493655 24.98535456
v 59.40631716 99.74712490 25.20258128
v 59.98094759 98.99418623 23.26215926
v 59.58632200 100.79219612 27.38529483
v 59.04457617 99.02374832 24.06213956
v 58.74341433 99.16633784 24.58014253
v 58.46994445 98.90550254 24.29189868
v 57.54914968 98.92463050 25.12112102
v 57.56299502 98.05692666 23.40001498
v 57.24452522 98.20473196 23.97441342
v 56.66989350 98.06562049 24.24594698
v 56.36527032 98.21516609 24.82034542
v 56.14199430 97.94215893 24.51121466
v 67.41134881 85.61344700 6.60042993
v 66.97864468 85.61344700 6.67562431
v 65.62168315 85.61344700 6.95342439
v 65.62168315 85.78907408 7.06203807
v 65.66322302 86.51592870 7.53826660
v 65.97823149 86.92804477 7.74713818
v 66.48536139 87.00803464 7.69283133
v 66.48536139 87.43927866 7.99151896
v 67.12057162 88.57998966 8.66199868
v 67.38365556 88.98514964 8.93770885
v 68.20925591 90.10499238 9.68965011
v 68.20925591 89.67374835 9.34501015
v 68.20925591 90.63709196 10.11992502
v 69.07293384 90.70838801 10.05726367
v 69.07293384 91.13963203 10.41861264
v 69.72545234 91.18658177 10.37892747
v 70.30008374 91.22657542 10.34341954
v 70.79682867 91.25787524 10.31835346
v 71.68993019 90.70316966 9.78572947
v 72.52245386 91.31873716 10.26404662
v 71.66050628 91.72911549 10.65881617
v 73.82402888 90.40234328 9.44944658
v 73.38440079 90.83532504 9.82123868
v 73.82402888 91.33090902 10.25151487
v 73.82402888 90.83358731 9.82123868
v 60.44826893 88.38523463 10.54184799
v 61.04366995 88.54347148 10.41861264
v 61.31021587 87.17496789 9.28861469
v 61.61830167 88.69301709 10.30373308
v 56.14199430 89.86154987 13.96526115
v 56.14199430 90.22323816 14.31198910
v 56.29776851 90.52058649 14.50206304
v 56.78066650 90.22671620 13.92766460
v 57.86069681 90.54145475 13.62271110
v 58.73822168 90.77794374 13.37833096
v 59.01515161 91.29091538 13.72714753
v 59.58632200 90.99530478 13.15483772
v 59.58632200 90.56406075 12.74753706
v 57.33798897 91.27352516 14.61067608
v 57.86069681 91.42133045 14.46655447
v 57.86069681 90.97269878 14.03627828
v 60.24922482 90.24410385 12.17105000
v 60.91559027 89.47377754 11.22903672
v 60.44826893 88.92254999 10.97421280
v 62.17389412 86.78893329 8.70794973
v 62.17389412 86.35769184 8.41344064
v 63.03584170 85.61344700 7.64270175
v 62.62217619 86.89674494 8.63275663
v 73.82402888 101.76771417 23.75092018
v 73.38440079 101.55209087 23.31646610
v 72.52245386 101.54687509 23.32482124
v 71.66050628 101.52600683 23.36868431
v 71.66050628 101.73988982 23.79896050
v 70.79682867 102.04941259 24.58223115
v 69.23736170 102.45979092 25.80831039
v 68.66272998 102.42675079 25.88141551
v 68.99850871 102.61107426 26.22396620
v 68.20925591 102.57977187 26.37435368
v 69.07293384 103.00406238 27.17015673
v 69.73410632 103.16403954 27.38529483
v 69.89853386 103.18142976 27.38529483
v 69.98334396 103.19012359 27.38529483
v 69.07293384 101.62512465 24.02663163
v 69.07293384 101.88073903 24.58223115
v 68.99850871 102.28764189 25.48873587
v 69.93488109 101.67033408 23.93055035
v 60.61442715 100.80088994 26.51220941
v 61.53349189 100.77307073 25.73102803
v 61.27213862 100.54353526 25.44487280
v 60.95020619 99.81842094 24.19790666
v 60.44826893 99.94014220 24.81199027
v 61.27213862 100.91913572 26.25738550
v 60.44826893 99.72799694 24.38171408
v 60.44826893 99.39760848 23.71958951
v 59.40631716 98.87420272 23.48774112
v 60.44826893 99.07939188 23.10968251
v 60.44826893 98.82899329 22.67940632
v 60.12460649 98.07605462 21.62877935
v 59.58632200 98.22733796 22.24077498
v 59.65036248 98.66031972 22.92796371
v 58.13762803 98.18038823 23.17652174
v 60.13152916 100.98869146 27.38529483
v 58.74341433 98.73683155 23.75300881
v 56.97278665 97.92824932 23.70079059
v 57.85377286 97.87608123 22.87574614
v 57.32414363 97.30572831 22.34103352
v 57.02125048 97.47092125 22.86112511
v 56.40334886 97.33528782 23.15145695
v 56.14199430 97.50917716 23.70287986
v 64.95531834 85.61344700 7.12052217
v 64.75281290 85.61344700 7.17274038
v 64.76146688 86.28118001 7.60510648
v 64.76146688 86.71242404 7.89125978
v 65.40360041 86.83240756 7.81188943
v 65.66322302 87.26365158 8.05418030
v 65.62168315 87.91225664 8.51996570
v 66.48536139 88.05310585 8.42388377
v 66.48536139 88.48434988 8.73510315
v 66.25516270 89.43725936 9.53299547
v 66.82979442 89.51377118 9.47033284
v 67.34730833 89.57811114 9.42020454
v 67.34730833 90.00935517 9.76902046
v 67.34730833 90.53971445 10.20138528
v 68.20925591 91.06833599 10.47918664
v 69.15255161 91.70998753 10.92199459
v 69.93488109 92.11514751 11.18099639
v 70.79682867 92.17426912 11.12460093
v 69.98161329 91.56739802 10.68596959
v 70.79682867 91.68911927 10.69432410
v 73.38440079 91.33090902 10.25151487
v 72.52245386 91.74998118 10.64419451
v 71.66050628 92.21078730 11.09118099
v 72.52245386 92.22991525 11.07447134
v 73.82402888 91.76215305 10.62957284
v 61.26694597 89.08426747 10.76325260
v 61.82080711 87.72967348 9.51628518
v 62.13408555 87.39928501 9.16538062
v 62.17389412 88.81647865 10.20765244
v 62.13408555 88.16961133 9.73351254
v 61.49022071 89.61114870 11.10997990
v 62.17389412 89.24772268 10.55020249
v 56.14199430 90.70490996 14.77777385
v 56.14199430 90.90662109 14.97411367
v 56.76335854 91.09616034 14.78195110
v 58.44052118 91.13615399 13.87962364
v 58.43705856 92.00733587 14.73808868
v 59.58632200 92.29251490 14.44984482
v 59.58632200 91.43350232 13.58511455
v 60.18518435 91.14311008 13.01280474
v 57.05240378 91.61608806 15.12659042
v 57.34318162 92.13079743 15.47122974
v 57.86069681 91.85257448 14.89265341
v 60.82385654 90.37973728 12.05408117
v 60.50365543 90.76055353 12.53030970
v 63.03584170 85.91949173 7.84530873
v 63.50143173 86.02904111 7.77220297
v 63.83894080 85.61344700 7.41085529
v 62.96141657 87.32451092 8.82909645
v 63.19853857 87.02890033 8.54085196
v 73.82402888 101.55035313 23.32064335
v 73.38440079 101.30690805 22.85694722
v 73.82402888 101.42515126 23.08252909
v 73.82402888 101.09476280 22.46009033
v 73.38440079 100.88957620 22.08203203
v 73.38440079 100.65656526 21.64966658
v 72.52245386 101.29299588 22.85694722
v 71.66050628 101.24952419 22.85694722
v 70.79682867 101.49470700 23.43134566
v 70.79682867 100.83045203 22.19273402
v 70.79682867 101.18866227 22.85694722
v 70.79682867 101.70685226 23.86371111
v 68.20925591 102.39892901 25.94407749
v 67.34730833 102.51717222 26.52474181
v 68.20925591 102.89625073 27.17015673
v 67.34730833 102.33632936 26.09237635
v 69.07293384 103.08752772 27.38529483
v 69.93488109 101.46340718 23.50027352
v 69.07293384 101.41645744 23.59426618
v 68.50868741 101.58686874 24.10809125
v 68.20925591 102.16939611 25.44487280
v 60.37557447 100.95565133 27.09496299
v 60.40326772 101.08433124 27.38529483
v 61.19598282 101.35559810 27.38529483
v 61.36387234 101.34864201 27.22864083
v 62.23101064 100.84436420 25.44487280
v 61.98177396 100.63221895 25.15662959
v 61.26694597 100.08446945 24.52374706
v 62.17389412 101.21822436 26.30751509
v 63.66239794 101.51035691 26.00465021
v 62.22581928 99.99230771 23.72167813
v 61.26694597 99.68104721 23.72167813
v 62.17389412 101.48427287 26.94666349
v 61.30675453 99.20633149 22.81726204
v 61.01597798 98.93332689 22.50186477
v 62.54948173 99.86015233 23.25589338
v 60.42576833 98.38209935 21.94626493
v 60.42576833 97.89694950 21.15255115
v 59.83728998 97.32485626 20.58859616
v 59.56382139 97.52308677 21.08780054
v 59.58632200 97.96824297 21.80840953
v 59.11900194 98.12996044 22.40160624
v 58.54436894 98.00997693 22.60212331
v 56.14199430 97.48831147 23.66528267
v 58.72264375 97.35441578 21.39484266
v 57.94204525 97.39614974 22.02981382
v 56.74951063 97.15966074 22.57705916
v 57.70665391 97.12488288 21.76663508
v 57.47818525 96.36846617 20.73689534
v 56.99874988 96.25196069 20.92279171
v 56.99874988 96.52322755 21.35306822
v 56.53315985 96.40846239 21.53478702
v 56.14199430 97.03619918 22.87992339
v 63.83201749 85.68821851 7.46098359
v 63.83201749 86.44985100 7.96227691
v 63.89778863 87.18192398 8.43641681
v 64.45511239 87.72445770 8.65782014
v 64.75108223 87.39580697 8.35913380
v 65.02801280 87.81835717 8.58889292
v 64.75108223 88.14352728 8.90429084
v 65.62168315 88.90863782 9.27399431
v 65.62168315 89.33988184 9.60609994
v 65.43648567 90.28931585 10.40608089
v 66.51997796 89.85111574 9.81288289
v 66.48536139 90.42668702 10.29120004
v 67.34730833 90.97095847 10.56273425
v 67.34730833 91.45610832 10.99509970
v 68.20925591 91.54653232 10.91155082
v 68.91716027 92.03863569 11.25410151
v 69.49179199 92.08210995 11.21232707
v 68.78042565 92.92199200 12.09585625
v 69.35505737 92.96372339 12.05617044
v 69.93488109 93.00024157 12.02066187
v 70.79682867 92.60551315 11.54234472
v 71.66050628 92.64203132 11.50683680
v 73.38440079 91.76215305 10.63166275
v 73.38440079 92.24556516 11.06193894
v 72.52245386 93.10979095 11.91622608
v 72.52245386 92.66115928 11.48386063
v 73.38440079 92.67680919 11.46715098
v 73.82402888 92.24904064 11.05985032
v 62.39543883 87.86356660 9.41811591
v 62.86622150 89.39030962 10.43532293
v 63.10680549 89.08600520 10.11992502
v 63.03584170 88.43565984 9.63534327
v 63.03584170 88.00441838 9.30741232
v 62.17389412 89.75721626 10.98256795
v 61.31021587 90.48928667 11.95800053
v 62.17389412 91.11181025 12.17105000
v 62.62563752 91.20918777 12.08332386
v 56.14199430 91.11181025 15.17880864
v 56.29257586 91.38307711 15.35843881
v 57.86069681 92.26816859 15.32501887
v 58.74341433 92.50291985 15.10361489
v 59.58632200 92.72375893 14.89474203
v 60.17826168 92.86808618 14.74226593
v 60.17826168 92.00733587 13.87544639
v 61.31021587 91.82301496 13.19452354
v 60.75981606 91.27004711 12.88957004
v 60.75462342 92.13601321 13.74594581
v 57.86069681 92.69941262 15.80542464
v 56.76681987 91.95864839 15.65921441
v 56.14199430 92.57769136 16.75161550
v 56.37738564 93.05066935 17.12549654
v 57.40376076 92.95676987 16.37355688
v 61.31021587 90.92053069 12.34441429
v 63.89778863 87.61316800 8.73719306
v 73.82402888 100.77307073 21.86062742
v 73.82402888 100.65830299 21.64757795
v 73.82402888 100.36095209 21.13166393
v 73.38440079 100.35747405 21.13166393
v 72.52245386 100.33139257 21.13166393
v 72.52245386 100.64091277 21.67682000
v 72.52245386 100.88087981 22.10709651
v 71.66050628 100.62178482 21.71023962
v 69.93488109 101.12084684 22.85694722
v 70.79682867 100.59396304 21.76245751
v 67.34730833 102.04071876 25.44487280
v 66.74325334 102.46326639 26.65633102
v 67.34730833 102.76931369 27.17015673
v 67.35769362 102.85277903 27.38529483
v 68.20925591 102.97797833 27.38529483
v 66.46805344 102.27546745 26.34302301
v 66.48536139 101.88073903 25.44487280
v 69.07293384 101.02520706 22.85694722
v 68.21617922 101.37994184 23.78016223
v 68.26291110 100.88262012 22.80890690
v 67.34730833 100.85305803 23.01360186
v 67.93405601 101.54165674 24.20208391
v 67.34730833 101.70163390 24.73053065
v 68.21617922 101.73988982 24.52583569
v 67.34730833 101.21300858 23.71958951
v 61.29463922 101.38863566 27.38529483
v 61.51791396 101.45992913 27.38529483
v 61.82426973 101.55556891 27.38529483
v 64.23875968 101.59208452 25.82293142
v 63.03584170 101.07389711 25.44487280
v 62.55640440 100.71742460 24.98326594
v 63.03584170 100.24096857 23.71958951
v 63.23142383 101.63381847 26.57904865
v 62.98045584 101.44254148 26.29707132
v 62.65506208 101.55209087 26.77329984
v 63.92894386 101.70858999 26.29707132
v 62.98045584 101.77814573 27.10331750
v 62.16524014 101.65816221 27.38529483
v 63.01507176 101.90160729 27.38529483
v 61.59233973 99.02722636 22.34103352
v 62.17389412 98.87072724 21.74783649
v 61.75330530 98.11257023 20.70556467
v 63.03584170 99.93492642 23.12012628
v 63.03584170 99.68974103 22.68985009
v 62.17389412 99.12112584 22.18020162
v 60.69923692 98.18212596 21.45332676
v 60.44826893 97.43962143 20.41314357
v 60.44826893 97.15618270 19.98286706
v 59.56382139 97.01185545 20.28782056
v 59.26265826 97.21008853 20.77240391
v 58.72264375 97.08836727 20.96456615
v 58.28301694 97.25703826 21.55567424
v 57.87973608 96.81362237 21.14628495
v 58.05281825 96.50062155 20.53637827
v 57.80357900 96.19283909 20.25648956
v 57.00394252 95.80158871 20.24813474
v 56.34103841 95.65378341 20.52175725
v 56.14199430 95.95461236 21.15046220
v 56.14199430 96.47454008 21.97132973
v 56.14199430 96.54931160 22.09038686
v 56.14199430 96.90230606 22.66269667
v 63.91682790 88.24438284 9.21133296
v 64.21625908 88.67388913 9.45362383
v 64.76146688 88.76778861 9.38260799
v 64.76146688 89.19903263 9.71680353
v 64.76146688 89.74852244 10.14916835
v 66.01111738 90.36582768 10.34341954
v 64.76146688 90.17976646 10.49589565
v 64.76146688 90.67361014 10.92826111
v 65.29455872 91.19005981 11.23948049
v 65.86919044 91.26657164 11.17055262
v 66.48536139 91.34829924 11.09744751
v 66.48536139 91.77954327 11.48803788
v 66.48536139 92.24904064 11.91831471
v 67.34730833 91.88735235 11.39404586
v 68.20925591 91.97777635 11.31049698
v 68.20925591 92.86634587 12.15016310
v 68.72850113 93.79317388 12.95223138
v 69.30313285 93.83142979 12.91254621
v 70.79682867 93.04719130 11.97262155
v 69.93488109 93.43148559 12.44467218
v 71.66050628 93.08544722 11.93711298
v 72.52245386 93.54103498 12.33396988
v 73.38440079 93.12196282 11.89951644
v 73.82402888 92.89938600 11.67602320
v 73.82402888 92.68028723 11.46506235
v 63.44258389 89.50159932 10.34341954
v 62.73814055 90.30322803 11.25827876
v 63.08949689 89.90328125 10.79875988
v 63.89778863 90.02152704 10.63166275
v 63.63989733 88.56259944 9.54343860
v 61.31021587 91.39177094 12.77469048
v 62.23966591 91.66999131 12.66189955
v 63.20026924 91.31525911 11.98724257
v 63.89778863 90.52406453 11.06402757
v 62.96833924 90.81272161 11.62380498
v 62.57198233 92.09428182 12.92507796
v 56.14199430 91.56913575 15.65294789
v 58.47340579 92.85417400 15.62788374
v 59.04803751 92.99328548 15.46914047
v 59.58632200 93.12544086 15.32710749
v 60.75289340 93.00024157 14.60649883
v 60.49500145 93.35497377 15.11823527
v 61.31021587 92.25599672 13.62479973
v 61.99562059 91.97082026 13.04622404
v 57.86069681 93.07675339 16.23570148
v 58.54263891 93.68362449 16.53021120
v 56.14199430 91.75345923 15.84928771
v 56.14199430 91.90822061 16.01847411
v 56.14199430 92.67333115 16.86022886
v 56.14199430 93.36192985 17.64976571
v 56.99874988 93.65232467 17.43462729
v 57.47645522 93.77926428 17.28006192
v 57.06798172 93.17239060 16.83098681
v 57.80184898 93.55320685 16.81636579
v 73.82402888 100.16445932 20.80373458
v 73.38440079 99.97492007 20.48833763
v 72.52245386 99.96274820 20.50713622
v 71.66050628 100.30009275 21.13166393
v 71.66050628 99.94883602 20.52802345
v 70.79682867 100.24444662 21.13166393
v 69.93488109 100.79393642 22.26375051
v 66.48536139 101.41993548 24.46108508
v 66.48536139 101.62338434 24.89345053
v 65.62168315 102.09288428 26.30751509
v 66.16862162 102.40588510 26.79627537
v 65.62168315 102.52412831 27.36440793
v 66.22054614 102.64932760 27.38529483
v 66.46805344 102.59194631 27.11793852
v 66.47324608 102.69627734 27.38529483
v 67.13268757 102.81452312 27.38529483
v 66.00419407 101.57643461 24.99162044
v 65.67880032 101.71033030 25.41980865
v 69.07293384 100.74524638 22.35356592
v 68.58484320 100.71220882 22.40996138
v 68.01021180 100.66873455 22.48933237
v 67.34730833 100.61656904 22.58123641
v 66.48536139 100.78176456 23.14519107
v 67.34730833 101.49470700 24.30025382
v 66.48536139 101.06694102 23.71958951
v 64.76146688 101.65120869 25.69551946
v 64.76146688 101.44427922 25.26524327
v 64.76146688 101.11041271 24.58223115
v 64.20933641 100.73307451 24.08929298
v 63.91336592 100.50180387 23.76971845
v 63.63470469 100.66178104 24.23968110
v 63.03584170 100.57831313 24.41095613
v 63.03584170 100.78524003 24.84123232
v 64.76146688 101.91377916 26.30751509
v 63.89778863 102.05289063 27.17015673
v 63.71605313 102.08940624 27.38529483
v 62.69313934 98.95245485 21.60580351
v 62.32793701 98.20821001 20.55099929
v 62.09427699 98.42904908 21.04811504
v 62.09427699 97.94389923 20.26693334
v 61.48502935 97.34920000 19.70088972
v 60.90866632 97.24312609 19.85336647
v 63.94625182 100.02013207 22.82770517
v 63.69182121 99.78364307 22.52275232
v 63.00295644 99.23763131 21.93373286
v 60.42057568 96.70233267 19.35207331
v 59.58632200 96.55452738 19.61316359
v 59.05149884 96.43976221 19.77190621
v 58.74687438 96.63277694 20.25648956
v 58.47686712 96.30412878 19.96197983
v 57.29645038 95.59466181 19.74684174
v 56.72008735 95.44859425 19.94527019
v 56.14199430 95.38947264 20.30870778
v 56.14199430 95.88331632 21.04393747
v 63.89778863 89.59028301 10.27449104
v 63.89778863 90.95530856 11.44626408
v 64.76146688 91.10485417 11.31676285
v 65.19936366 92.07689160 12.07914596
v 65.77399538 92.16035951 12.00395222
v 66.48536139 92.68028723 12.32561537
v 67.34730833 92.34468042 11.82432205
v 67.34730833 92.77592444 12.23580061
v 68.20925591 93.30802403 12.58043928
v 68.20925591 93.73926806 13.00653822
v 67.34730833 94.48525063 13.99659182
v 67.34730833 94.88171679 14.42686865
v 68.20925591 94.56697824 13.90886568
v 68.20925591 94.95649088 14.34123114
v 69.07293384 95.46076869 14.74017730
v 69.69429743 95.50771842 14.68795909
v 69.48486868 94.66783380 13.79816338
v 69.93488109 94.29918942 13.33864514
v 69.93488109 93.86794540 12.87494901
v 70.79682867 93.47843533 12.39872049
v 71.66050628 93.95489135 12.78931150
v 71.66050628 93.51669124 12.35903467
v 72.52245386 93.97749735 12.76633598
v 73.82402888 93.12370313 11.89533918
v 73.38440079 93.55320685 12.32770400
v 63.31277227 90.41451515 11.16219748
v 63.03584170 92.17253138 12.84570697
v 63.89778863 91.86648666 12.27757441
v 63.89778863 91.43524263 11.87862889
v 63.89778863 92.74810266 13.13812807
v 61.31021587 93.11153126 14.48953064
v 62.02504386 92.83330831 13.91304358
v 62.25697387 93.21064651 14.21381919
v 62.59967558 92.94459800 13.80025265
v 63.20719255 93.90272327 14.56472438
v 63.89778863 93.60015658 14.01121349
v 58.79533821 93.33932385 15.99758721
v 59.58632200 93.55668489 15.81169116
v 60.23883953 93.70796823 15.63832687
v 60.81347125 93.83316753 15.49420527
v 61.31021587 93.54277528 14.95322677
v 58.05108566 93.93402309 17.10252069
v 59.11726935 93.82273597 16.36937963
v 58.78668423 94.05226887 16.81636579
v 56.14199430 93.39670772 17.69154015
v 56.45873408 93.86272962 18.04035640
v 56.99874988 94.00531913 17.86490380
v 57.81396429 94.26093608 17.64976571
v 73.82402888 99.97492007 20.48833763
v 73.82402888 99.70191547 20.05597249
v 73.38440079 99.70191547 20.05806112
v 72.52245386 99.68974103 20.07685971
v 70.79682867 99.92101424 20.57397514
v 72.78380713 98.98723272 18.96148246
v 71.66050628 99.67235338 20.09774694
v 69.93488109 100.15402519 21.13166393
v 69.93488109 100.55222908 21.83347400
v 69.93488109 99.87406450 20.64708058
v 65.62168315 102.35024154 26.93204247
v 65.17513239 102.43718492 27.38529483
v 65.59399054 102.52586861 27.38529483
v 65.42956235 101.51905331 25.11485515
v 65.94361557 100.72959647 23.23918373
v 69.12832001 100.02882589 21.07317951
v 68.87735138 99.81320259 20.74942774
v 68.20925591 100.01317598 21.25907588
v 67.34730833 100.28444284 21.99430557
v 66.48536139 100.54179752 22.71282561
v 65.64245309 100.87740177 23.68408094
v 64.76146688 100.80088994 23.95352588
v 64.76146688 100.58700952 23.52324969
v 64.75973621 102.27372971 27.20357603
v 64.92589442 102.38327910 27.38529483
v 63.89778863 102.13635597 27.38529483
v 64.65242519 102.31894171 27.38529483
v 63.00295644 98.77856551 21.15881703
v 63.03584170 98.31602166 20.38390152
v 63.03584170 98.03953902 19.95362501
v 62.17389412 97.47266156 19.52961470
v 61.81215313 96.36846617 18.14479251
v 61.31021587 96.58234916 18.70456960
v 61.24271406 97.05532714 19.41055757
v 60.69058423 96.46410595 18.86957875
v 64.26645293 99.85667428 22.39742898
v 65.36898385 100.66004073 23.37495019
v 64.45165041 98.94549876 20.75569394
v 63.89778863 99.12634162 21.31547135
v 65.02455147 99.02200801 20.62828198
v 60.11595251 96.35107852 19.02832154
v 59.58632200 96.23978882 19.18079829
v 59.35785333 95.44164073 18.22834140
v 58.88187929 95.65552372 18.80482846
v 58.30724757 95.52162803 18.98445847
v 57.86069681 95.72855493 19.56094537
v 57.86069681 95.41381638 19.12858023
v 58.15320468 94.73738954 18.01946918
v 57.16317678 94.80694527 18.79020744
v 56.58681375 94.65566193 18.98863588
v 56.14199430 94.07313456 18.54164972
v 56.14199430 94.37917929 18.94895022
v 56.14199430 94.85737305 19.58601017
v 56.14199430 95.32513526 20.22098132
v 64.76146688 91.57435410 11.74703968
v 63.89778863 92.31685864 12.70785124
v 64.82896869 92.54813185 12.64310063
v 65.15955510 92.95155152 12.92925585
v 65.54033471 92.47335776 12.36321192
v 65.62168315 93.01589148 12.86450524
v 66.48536139 93.12196282 12.75798019
v 67.34730833 93.21586229 12.66816542
v 66.48536139 93.55320685 13.20496667
v 67.34730833 94.05400661 13.53707359
v 66.48536139 94.39135116 14.09685100
v 66.48536139 94.79303567 14.52712719
v 67.34730833 95.31296082 14.91354095
v 68.20925591 95.38773490 14.82372619
v 69.07293384 95.83115080 15.17045349
v 69.93488109 96.31803839 15.61952860
v 69.96257434 95.82245697 15.02424326
v 70.26892915 95.53901825 14.65245052
v 69.96257434 95.19471761 14.31198910
v 70.79682867 94.74260789 13.71670376
v 70.79682867 94.34440142 13.28433830
v 70.79682867 93.91315740 12.82899732
v 71.66050628 94.38613538 13.23838661
v 73.38440079 93.98097283 12.76006946
v 72.52245386 94.40874138 13.21541044
v 73.82402888 93.55494715 12.32770400
v 62.17389412 93.70796823 14.77150797
v 62.63256148 93.79491419 14.67542669
v 63.89778863 94.01575070 14.44357830
v 62.96660921 94.26441156 15.06601770
v 63.30065695 94.72347993 15.45660807
v 63.89778863 94.44699472 14.91562958
v 59.58632200 93.92880731 16.24196767
v 59.20554174 94.64349006 17.27588467
v 60.49500145 94.07313456 15.93910312
v 61.31021587 93.92880731 15.38559223
v 60.92251294 94.64870584 16.40906513
v 61.26694597 95.11299000 16.79756751
v 61.61137900 95.57901190 17.18815821
v 58.72264375 94.53046263 17.41582902
v 56.14199430 93.69927441 18.07168707
v 56.92432411 94.47655681 18.51867355
v 57.57857296 94.58784650 18.21580900
v 73.38440079 99.28631878 19.40638015
v 73.82402888 99.28458105 19.40638015
v 73.38440079 98.99418623 18.95103885
v 70.79682867 99.64105356 20.14161001
v 69.93488109 99.16807557 19.54632435
v 69.93488109 99.59931960 20.21471512
v 73.38440079 98.70727203 18.51867355
v 72.50687656 98.74552537 18.62310966
v 72.20917541 98.97332054 18.98445847
v 71.66050628 99.24110936 19.43979961
v 70.79682867 98.92810854 19.05338617
v 69.45371377 99.84624272 20.69094365
v 69.12832001 99.59236351 20.35048222
v 66.13400570 99.82537446 21.58909386
v 65.62168315 100.01839176 22.11962890
v 64.76146688 99.91579846 22.29299256
v 68.20925591 99.76799316 20.82879937
v 68.20925591 99.42021448 20.26902196
v 67.34730833 99.94014220 21.38648784
v 67.34730833 99.69321907 20.95621133
v 66.44555283 100.08099141 21.92328908
v 63.89778863 98.86898693 20.88519484
v 64.74762025 98.74552537 20.31079640
v 63.83374880 98.41513691 20.19173927
v 63.50316239 98.10561414 19.85336647
v 63.83374880 97.91085910 19.43144479
v 63.89778863 97.43440565 18.71292475
v 63.21065453 97.33355009 18.85913498
v 62.96833924 97.58568899 19.32909747
v 62.63602281 97.24312609 18.98863588
v 62.38678485 96.46236564 18.01529193
v 62.12889291 96.14936739 17.70824980
v 61.31887113 95.81202284 17.64349951
v 61.31021587 96.27456669 18.27429341
v 60.42057568 96.13719553 18.56671420
v 64.76146688 99.66887534 21.86271637
v 65.62168315 99.08982601 20.51966862
v 65.62168315 98.81682142 20.08939179
v 65.62168315 99.76973090 21.68726377
v 65.62168315 99.44977657 21.13166393
v 59.93421636 95.56336198 18.06542120
v 59.62266923 95.77376693 18.52702870
v 59.56901404 95.10429618 17.67065293
v 58.72264375 94.86954492 17.84610521
v 58.64648796 95.34252290 18.52702870
v 65.55072000 93.51495093 13.41175026
v 64.76146688 93.73231197 13.87753501
v 65.21494095 93.79838966 13.80860779
v 65.78957267 93.87664179 13.72505890
v 66.48536139 93.96010713 13.63733212
v 65.86572847 94.71652384 14.60858745
v 66.48536139 95.22427969 15.01588811
v 66.48536139 95.59466181 15.44616494
v 67.34730833 95.67986746 15.34381714
v 68.20925591 95.75637928 15.25609100
v 69.07293384 96.26239482 15.68845646
v 70.79682867 96.35803461 15.56731038
v 69.07293384 96.59973938 16.12082192
v 69.93488109 96.65364520 16.04980543
v 70.79682867 97.12836092 16.54900948
v 71.91147491 96.40672208 15.50882629
v 70.79682867 95.55988394 14.62947499
v 71.66050628 94.78260154 13.67075206
v 72.52245386 94.80346723 13.64568727
v 73.82402888 93.98097283 12.76006946
v 73.82402888 93.76535210 12.54075411
v 73.38440079 94.41221942 13.20914456
v 73.82402888 94.41221942 13.20496667
v 73.38440079 94.81216105 13.63942139
v 73.82402888 94.81563910 13.63733212
v 62.17389412 94.09052478 15.20178416
v 64.76146688 94.56697824 14.77568522
v 64.76146688 94.13747452 14.30781184
v 62.72429392 94.62262437 15.57775415
v 63.89778863 94.81563910 15.34799503
v 62.17389412 95.67465168 17.06910107
v 63.11372816 95.76159506 16.79756751
v 63.45296854 95.53206216 16.38400065
v 64.19375847 96.43454386 17.19651303
v 64.76146688 94.93736292 15.20805068
v 60.44826893 95.34078517 17.49102276
v 61.03674728 95.46424416 17.33019119
v 60.44826893 94.90954114 16.95839877
v 62.17389412 94.52002850 15.69681161
v 63.03584170 96.24674491 17.44089349
v 73.82402888 99.13677575 19.17662072
v 73.82402888 98.99244850 18.95312764
v 69.93488109 98.88637715 19.11604784
v 69.07293384 99.11938810 19.62360704
v 73.38440079 98.27602544 17.89623480
v 72.52245386 98.26037552 17.91294445
v 73.82402888 98.70553172 18.52076218
v 71.66050628 98.23777209 17.94218649
v 71.66050628 98.64814786 18.54373835
v 71.66050628 98.95593289 19.00743432
v 70.79682867 98.59250430 18.54373835
v 66.70863678 99.88275833 21.49301257
v 66.44555283 99.64453160 21.17552700
v 67.32826970 99.22545944 20.20218272
v 68.20925591 99.06200423 19.71342212
v 67.60346961 99.01157645 19.78652724
v 66.48536139 99.17676940 20.38390152
v 64.76146688 98.28124379 19.60063119
v 64.07779411 98.18734431 19.73430934
v 63.89778863 97.13357670 18.28055929
v 64.47588233 97.21704461 18.16567973
v 62.96833924 97.04315527 18.56044800
v 63.03584170 96.56669925 17.87117000
v 63.61912740 96.34238212 17.31348154
v 60.44826893 95.67117363 17.92129927
v 66.48536139 98.90376480 19.95153638
v 66.48536139 98.54033621 19.40638015
v 65.66841567 98.34210313 19.36460571
v 65.54033471 94.25919577 14.20964193
v 65.28936608 94.63827428 14.69422496
v 66.00938672 95.54075598 15.51300354
v 67.34730833 96.11111148 15.87435251
v 66.26035535 96.34412243 16.44875094
v 66.83671709 96.40846239 16.36729068
v 68.20925591 96.18762331 15.77827122
v 67.70558798 97.26747239 17.23202128
v 68.20925591 97.30398800 17.18398063
v 69.07293384 97.36310960 17.10669827
v 69.93488109 97.42049347 17.03568146
v 70.79682867 97.46396516 16.97928599
v 72.52245386 96.79101637 15.95790139
v 72.52245386 96.42411230 15.48793939
v 72.52245386 96.04677153 15.05557393
v 71.66050628 95.59118376 14.59187780
v 71.66050628 97.16313879 16.50723504
v 71.66050628 95.21384556 14.16160097
v 72.52245386 95.61552750 14.56472438
v 73.38440079 95.62769937 14.55219198
v 73.38440079 95.24340765 14.12191580
v 73.82402888 95.02778435 13.87335776
v 64.76146688 95.36860695 15.71978713
v 65.43302433 95.46076869 15.60699620
v 64.76146688 95.72681719 16.15006396
v 63.90298128 96.66581707 17.63305574
v 64.76146688 96.98055562 17.73749185
v 64.76146688 96.50931795 17.10252069
v 64.76146688 96.15806122 16.67224418
v 69.93488109 98.50903638 18.54373835
v 69.07293384 98.83247133 19.19124190
v 73.82402888 98.27428770 17.89832342
v 73.82402888 98.11257023 17.67900776
v 73.82402888 97.95433337 17.46595797
v 73.38440079 97.95433337 17.46386934
v 72.52245386 97.94215893 17.48266794
v 71.66050628 97.92129323 17.51190998
v 70.79682867 98.21342579 17.97560611
v 67.02883853 98.95767063 19.87007612
v 68.20925591 98.77160942 19.28105682
v 67.34730833 97.97693680 18.31815648
v 67.34730833 98.26733161 18.75052162
v 67.32826970 98.74204733 19.46277546
v 65.41052373 98.06388275 19.04920876
v 65.04878274 97.28833809 18.06333257
v 66.48536139 98.18212596 18.87584495
v 65.98688611 98.13169818 18.95312764
v 65.62168315 96.61191125 16.97093116
v 67.38884821 96.93708393 16.89364848
v 66.52343929 96.65712325 16.76832515
v 67.12922560 97.21182626 17.30512671
v 67.38884821 97.49526499 17.62887849
v 68.20925591 98.04649253 18.21372037
v 68.20925591 97.66567629 17.68109638
v 69.93488109 98.16995409 18.03617915
v 69.93488109 97.85173750 17.60590232
v 70.79682867 97.89520919 17.54532960
v 73.38440079 96.80666628 15.95790139
v 72.52245386 97.18922283 16.47590436
v 73.38440079 97.19791666 16.46337197
v 73.38440079 96.43106582 15.47958424
v 73.38440079 96.05894597 15.04721943
v 71.66050628 97.49004921 16.93751187
v 73.82402888 95.43642238 14.33287664
v 65.62168315 97.04315527 17.53697478
v 69.09024212 98.35427757 18.47898774
v 73.82402888 97.52308677 16.89364848
v 73.38440079 97.52308677 16.89155985
v 72.52245386 97.51091490 16.90409225
v 68.20925591 98.34036539 18.64608551
v 66.48536139 97.88651537 18.44347981
v 66.48536139 97.45527134 17.83148418
v 65.66841567 97.82217798 18.61684346
v 65.62168315 97.35615609 17.96725129
v 66.48536139 97.14053279 17.40120800
v 68.81677288 98.08996423 18.14897008
v 69.39140428 98.13169818 18.09048599
v 73.82402888 96.80145050 15.95790139
v 73.82402888 97.19617635 16.46546059
v 73.82402888 96.42585003 15.48376149
v 73.82402888 96.24152913 15.26444615
v 73.82402888 95.83810689 14.79657277
f 1 2 3
f 1 3 7
f 1 7 14
f 1 14 22
f 1 22 24
f 1 24 39
f 1 39 42
f 1 42 63
f 1 63 62
f 1 62 103
f 1 103 155
f 1 155 210
f 1 210 280
f 1 280 283
f 1 283 282
f 1 282 372
f 1 372 478
f 1 478 590
f 1 590 589
f 1 589 697
f 1 697 801
f 1 801 884
f 1 884 883
f 1 883 886
f 1 886 888
f 1 888 953
f 1 953 995
f 1 995 1013
f 1 1013 1012
f 1 1012 1011
f 1 1011 1009
f 1 1009 1010
f 1 1010 998
f 1 998 965
f 1 965 964
f 1 964 963
f 1 963 910
f 1 910 905
f 1 905 904
f 1 904 820
f 1 820 723
f 1 723 722
f 1 722 620
f 1 620 507
f 1 507 506
f 1 506 505
f 1 505 401
f 1 401 400
f 1 400 398
f 1 398 307
f 1 307 231
f 1 231 171
f 1 171 170
f 1 170 169
f 1 169 119
f 1 119 118
f 1 118 117
f 1 117 76
f 1 76 50
f 1 50 29
f 1 29 16
f 1 16 9
f 1 9 4
f 1 4 8
f 1 8 15
f 1 15 27
f 1 27 47
f 1 47 75
f 1 75 116
f 1 116 168
f 1 168 167
f 1 167 230
f 1 230 229
f 1 229 228
f 1 228 305
f 1 305 395
f 1 395 349
f 1 349 348
f 1 348 261
f 1 261 193
f 1 193 260
f 1 260 259
f 1 259 191
f 1 191 138
f 1 138 137
f 1 137 135
f 1 135 87
f 1 87 54
f 1 54 33
f 1 33 32
f 1 32 18
f 1 18 11
f 1 11 5
f 1 5 2
f 2 5 6
f 2 6 3
f 3 6 7
f 4 9 10
f 4 10 8
f 5 11 6
f 6 11 12
f 6 12 13
f 6 13 7
f 7 13 14
f 8 10 17
f 8 17 31
f 8 31 53
f 8 53 86
f 8 86 134
f 8 134 190
f 8 190 189
f 8 189 258
f 8 258 347
f 8 347 441
f 8 441 450
f 8 450 565
f 8 565 564
f 8 564 563
f 8 563 562
f 8 562 673
f 8 673 672
f 8 672 775
f 8 775 774
f 8 774 773
f 8 773 772
f 8 772 816
f 8 816 718
f 8 718 615
f 8 615 614
f 8 614 500
f 8 500 613
f 8 613 612
f 8 612 602
f 8 602 488
f 8 488 381
f 8 381 380
f 8 380 289
f 8 289 288
f 8 288 216
f 8 216 215
f 8 215 159
f 8 159 108
f 8 108 70
f 8 70 69
f 8 69 64
f 8 64 43
f 8 43 25
f 8 25 15
f 9 16 28
f 9 28 49
f 9 49 80
f 9 80 126
f 9 126 178
f 9 178 241
f 9 241 320
f 9 320 319
f 9 319 318
f 9 318 414
f 9 414 519
f 9 519 518
f 9 518 635
f 9 635 634
f 9 634 632
f 9 632 734
f 9 734 733
f 9 733 746
f 9 746 748
f 9 748 747
f 9 747 655
f 9 655 543
f 9 543 542
f 9 542 532
f 9 532 531
f 9 531 530
f 9 530 421
f 9 421 420
f 9 420 340
f 9 340 249
f 9 249 182
f 9 182 181
f 9 181 131
f 9 131 127
f 9 127 81
f 9 81 51
f 9 51 30
f 9 30 17
f 9 17 10
f 11 18 12
f 12 18 19
f 12 19 20
f 12 20 21
f 12 21 13
f 13 22 14
f 13 21 23
f 13 23 24
f 13 24 22
f 15 25 26
f 15 26 27
f 16 29 28
f 17 30 31
f 18 32 19
f 19 32 33
f 19 33 34
f 19 34 35
f 19 35 36
f 19 36 20
f 20 36 37
f 20 37 38
f 20 38 21
f 21 38 23
f 23 39 24
f 23 38 40
f 23 40 41
f 23 41 42
f 23 42 39
f 25 43 26
f 26 44 45
f 26 45 27
f 26 43 46
f 26 46 44
f 27 45 47
f 28 29 48
f 28 48 49
f 29 50 48
f 30 51 52
f 30 52 53
f 30 53 31
f 33 54 55
f 33 55 56
f 33 56 34
f 34 56 35
f 35 37 36
f 35 56 57
f 35 57 37
f 37 57 40
f 37 40 38
f 40 57 58
f 40 58 59
f 40 59 60
f 40 60 61
f 40 61 41
f 41 61 62
f 41 62 63
f 41 63 42
f 43 64 46
f 44 46 65
f 44 65 66
f 44 66 67
f 44 67 45
f 45 68 47
f 45 67 66
f 45 66 68
f 46 64 69
f 46 69 70
f 46 70 71
f 46 71 72
f 46 72 73
f 46 73 74
f 46 74 66
f 46 66 65
f 47 68 75
f 48 76 77
f 48 77 78
f 48 78 79
f 48 79 49
f 48 50 76
f 49 79 80
f 51 81 82
f 51 82 83
f 51 83 84
f 51 84 52
f 52 84 85
f 52 85 53
f 53 85 86
f 54 87 88
f 54 88 89
f 54 89 55
f 55 89 56
f 56 89 90
f 56 90 91
f 56 91 92
f 56 92 93
f 56 93 94
f 56 94 95
f 56 95 57
f 57 95 96
f 57 96 97
f 57 97 58
f 58 97 98
f 58 98 59
f 59 99 60
f 59 98 100
f 59 100 99
f 60 99 101
f 60 101 102
f 60 102 61
f 61 102 103
f 61 103 62
f 66 104 68
f 66 74 105
f 66 105 104
f 68 104 106
f 68 106 107
f 68 107 75
f 70 108 109
f 70 109 71
f 71 110 72
f 71 109 110
f 72 110 111
f 72 111 73
f 73 111 74
f 74 111 112
f 74 112 113
f 74 113 114
f 74 114 105
f 75 107 115
f 75 115 116
f 76 117 77
f 77 118 119
f 77 119 120
f 77 120 121
f 77 121 122
f 77 122 78
f 77 117 118
f 78 123 79
f 78 122 124
f 78 124 123
f 79 123 125
f 79 125 80
f 80 125 126
f 81 127 82
f 82 127 83
f 83 128 129
f 83 129 130
f 83 130 84
f 83 127 131
f 83 131 132
f 83 132 128
f 84 130 85
f 85 130 133
f 85 133 86
f 86 133 134
f 87 135 88
f 88 135 90
f 88 90 89
f 90 136 91
f 90 135 137
f 90 137 138
f 90 138 136
f 91 136 139
f 91 139 140
f 91 140 141
f 91 141 92
f 92 141 142
f 92 142 93
f 93 143 94
f 93 142 144
f 93 144 145
f 93 145 146
f 93 146 147
f 93 147 143
f 94 143 96
f 94 96 95
f 96 147 97
f 96 143 147
f 97 147 146
f 97 146 148
f 97 148 98
f 98 148 149
f 98 149 150
f 98 150 151
f 98 151 100
f 99 100 152
f 99 152 101
f 100 151 153
f 100 153 152
f 101 152 154
f 101 154 103
f 101 103 102
f 103 154 155
f 104 105 156
f 104 156 106
f 105 114 156
f 106 156 157
f 106 157 158
f 106 158 107
f 107 158 115
f 108 159 109
f 109 159 160
f 109 160 161
f 109 161 110
f 110 161 111
f 111 161 162
f 111 162 112
f 112 163 164
f 112 164 113
f 112 162 163
f 113 164 163
f 113 163 165
f 113 165 114
f 114 165 156
f 115 166 167
f 115 167 168
f 115 168 116
f 115 158 166
f 119 169 120
f 120 169 170
f 120 170 171
f 120 171 172
f 120 172 173
f 120 173 121
f 121 173 174
f 121 174 124
f 121 124 122
f 123 175 125
f 123 124 175
f 124 174 176
f 124 176 175
f 125 175 177
f 125 177 126
f 126 177 178
f 128 179 180
f 128 180 129
f 128 132 181
f 128 181 182
f 128 182 183
f 128 183 179
f 129 180 184
f 129 184 185
f 129 185 186
f 129 186 187
f 129 187 130
f 130 187 133
f 131 181 132
f 133 187 188
f 133 188 189
f 133 189 190
f 133 190 134
f 136 138 139
f 138 191 192
f 138 192 139
f 139 192 193
f 139 193 194
f 139 194 195
f 139 195 196
f 139 196 197
f 139 197 140
f 140 197 196
f 140 196 141
f 141 196 198
f 141 198 199
f 141 199 142
f 142 199 144
f 144 199 145
f 145 199 148
f 145 148 146
f 148 199 200
f 148 200 201
f 148 201 149
f 149 201 202
f 149 202 203
f 149 203 204
f 149 204 150
f 150 204 205
f 150 205 206
f 150 206 151
f 151 206 207
f 151 207 208
f 151 208 209
f 151 209 153
f 152 153 154
f 153 209 154
f 154 209 210
f 154 210 155
f 156 211 213
f 156 213 157
f 156 165 212
f 156 212 211
f 157 213 214
f 157 214 158
f 158 214 166
f 159 215 160
f 160 215 216
f 160 216 217
f 160 217 218
f 160 218 162
f 160 162 161
f 162 219 220
f 162 220 163
f 162 218 221
f 162 221 219
f 163 222 165
f 163 220 222
f 165 223 224
f 165 224 212
f 165 222 225
f 165 225 223
f 166 214 213
f 166 213 226
f 166 226 227
f 166 227 228
f 166 228 229
f 166 229 230
f 166 230 167
f 171 231 172
f 172 231 232
f 172 232 233
f 172 233 173
f 173 233 234
f 173 234 174
f 174 234 176
f 175 235 236
f 175 236 177
f 175 176 237
f 175 237 235
f 176 234 238
f 176 238 239
f 176 239 240
f 176 240 237
f 177 236 241
f 177 241 178
f 179 183 242
f 179 242 243
f 179 243 244
f 179 244 180
f 180 244 245
f 180 245 246
f 180 246 247
f 180 247 248
f 180 248 184
f 182 249 183
f 183 249 242
f 184 248 250
f 184 250 251
f 184 251 252
f 184 252 185
f 185 253 186
f 185 252 254
f 185 254 253
f 186 253 187
f 187 253 255
f 187 255 188
f 188 255 189
f 189 255 256
f 189 256 257
f 189 257 258
f 191 259 192
f 192 259 260
f 192 260 193
f 193 261 194
f 194 261 262
f 194 262 263
f 194 263 264
f 194 264 195
f 195 264 265
f 195 265 196
f 196 265 266
f 196 266 267
f 196 267 198
f 198 267 199
f 199 267 268
f 199 268 269
f 199 269 270
f 199 270 201
f 199 201 200
f 201 270 269
f 201 269 271
f 201 271 202
f 202 271 272
f 202 272 203
f 203 272 273
f 203 273 274
f 203 274 275
f 203 275 276
f 203 276 204
f 204 276 207
f 204 207 205
f 205 207 277
f 205 277 206
f 206 277 207
f 207 278 208
f 207 276 367
f 207 367 279
f 207 279 278
f 208 278 209
f 209 280 210
f 209 278 281
f 209 281 282
f 209 282 283
f 209 283 280
f 211 212 284
f 211 284 285
f 211 285 213
f 212 224 284
f 213 286 226
f 213 285 287
f 213 287 286
f 216 288 217
f 217 288 289
f 217 289 290
f 217 290 291
f 217 291 218
f 218 291 221
f 219 292 220
f 219 221 292
f 220 292 293
f 220 293 294
f 220 294 295
f 220 295 296
f 220 296 222
f 221 291 297
f 221 297 298
f 221 298 299
f 221 299 292
f 222 300 225
f 222 296 300
f 223 301 224
f 223 225 300
f 223 300 301
f 224 301 302
f 224 302 285
f 224 285 284
f 226 303 227
f 226 286 303
f 227 304 305
f 227 305 228
f 227 303 306
f 227 306 304
f 231 307 232
f 232 307 308
f 232 308 309
f 232 309 233
f 233 309 310
f 233 310 311
f 233 311 234
f 234 311 312
f 234 312 238
f 235 237 313
f 235 313 314
f 235 314 315
f 235 315 316
f 235 316 317
f 235 317 236
f 236 317 318
f 236 318 319
f 236 319 320
f 236 320 241
f 237 240 321
f 237 321 322
f 237 322 323
f 237 323 313
f 238 312 324
f 238 324 239
f 239 324 321
f 239 321 240
f 242 325 243
f 242 249 325
f 243 325 244
f 244 326 327
f 244 327 328
f 244 328 329
f 244 329 245
f 244 325 330
f 244 330 326
f 245 329 246
f 246 329 331
f 246 331 332
f 246 332 248
f 246 248 247
f 248 333 250
f 248 332 334
f 248 334 335
f 248 335 336
f 248 336 337
f 248 337 338
f 248 338 339
f 248 339 333
f 249 340 325
f 250 252 251
f 250 333 252
f 252 333 341
f 252 341 339
f 252 339 254
f 253 254 255
f 254 342 255
f 254 339 343
f 254 343 344
f 254 344 345
f 254 345 346
f 254 346 342
f 255 342 256
f 256 342 258
f 256 258 257
f 258 342 347
f 261 348 262
f 262 348 349
f 262 349 350
f 262 350 351
f 262 351 352
f 262 352 263
f 263 352 264
f 264 352 353
f 264 353 266
f 264 266 265
f 266 353 354
f 266 354 355
f 266 355 267
f 267 356 357
f 267 357 358
f 267 358 359
f 267 359 268
f 267 355 356
f 268 359 269
f 269 359 271
f 271 359 360
f 271 360 361
f 271 361 362
f 271 362 272
f 272 362 273
f 273 362 363
f 273 363 364
f 273 364 365
f 273 365 366
f 273 366 274
f 274 366 365
f 274 365 275
f 275 365 367
f 275 367 276
f 278 368 281
f 278 279 369
f 278 369 473
f 278 473 368
f 279 367 365
f 279 365 370
f 279 370 371
f 279 371 369
f 281 368 282
f 282 368 372
f 285 302 373
f 285 373 287
f 286 287 374
f 286 374 375
f 286 375 303
f 287 376 377
f 287 377 374
f 287 373 378
f 287 378 379
f 287 379 376
f 289 380 290
f 290 380 381
f 290 381 382
f 290 382 291
f 291 382 297
f 292 299 383
f 292 383 293
f 293 383 294
f 294 383 298
f 294 298 384
f 294 384 385
f 294 385 386
f 294 386 295
f 295 386 387
f 295 387 296
f 296 387 300
f 297 382 388
f 297 388 389
f 297 389 390
f 297 390 298
f 298 390 384
f 298 383 299
f 300 391 378
f 300 378 301
f 300 387 392
f 300 392 391
f 301 378 373
f 301 373 302
f 303 375 306
f 304 393 305
f 304 306 393
f 305 393 394
f 305 394 395
f 306 375 396
f 306 396 397
f 306 397 394
f 306 394 393
f 307 398 308
f 308 399 309
f 308 398 400
f 308 400 401
f 308 401 399
f 309 399 402
f 309 402 403
f 309 403 404
f 309 404 405
f 309 405 310
f 310 406 311
f 310 405 407
f 310 407 408
f 310 408 406
f 311 406 409
f 311 409 312
f 312 409 324
f 313 323 314
f 314 323 322
f 314 322 410
f 314 410 315
f 315 410 316
f 316 411 412
f 316 412 317
f 316 410 413
f 316 413 411
f 317 412 414
f 317 414 318
f 321 324 415
f 321 415 416
f 321 416 417
f 321 417 418
f 321 418 322
f 322 418 410
f 324 409 415
f 325 340 419
f 325 419 420
f 325 420 421
f 325 421 422
f 325 422 330
f 326 423 424
f 326 424 425
f 326 425 328
f 326 328 327
f 326 330 426
f 326 426 427
f 326 427 423
f 328 331 329
f 328 425 428
f 328 428 429
f 328 429 332
f 328 332 331
f 330 422 430
f 330 430 426
f 332 429 334
f 333 339 341
f 334 431 432
f 334 432 335
f 334 429 433
f 334 433 431
f 335 432 434
f 335 434 336
f 336 435 436
f 336 436 437
f 336 437 438
f 336 438 337
f 336 434 435
f 337 438 439
f 337 439 338
f 338 439 339
f 339 439 440
f 339 440 343
f 340 420 419
f 342 346 441
f 342 441 347
f 343 440 442
f 343 442 443
f 343 443 344
f 344 444 345
f 344 443 445
f 344 445 446
f 344 446 447
f 344 447 448
f 344 448 449
f 344 449 444
f 345 444 346
f 346 444 450
f 346 450 441
f 349 395 451
f 349 451 350
f 350 451 394
f 350 394 452
f 350 452 351
f 351 452 453
f 351 453 454
f 351 454 455
f 351 455 352
f 352 455 454
f 352 454 456
f 352 456 353
f 353 456 354
f 354 456 356
f 354 356 355
f 356 456 454
f 356 454 457
f 356 457 458
f 356 458 459
f 356 459 357
f 357 459 460
f 357 460 461
f 357 461 358
f 358 461 462
f 358 462 361
f 358 361 360
f 358 360 359
f 361 462 463
f 361 463 362
f 362 463 464
f 362 464 465
f 362 465 363
f 363 465 466
f 363 466 467
f 363 467 364
f 364 467 468
f 364 468 469
f 364 469 365
f 365 469 470
f 365 470 471
f 365 471 472
f 365 472 370
f 368 473 372
f 369 371 474
f 369 474 473
f 370 472 475
f 370 475 476
f 370 476 371
f 371 476 477
f 371 477 474
f 372 473 478
f 374 479 375
f 374 377 479
f 375 479 396
f 376 379 480
f 376 480 481
f 376 481 482
f 376 482 483
f 376 483 377
f 377 483 479
f 378 484 379
f 378 391 485
f 378 485 486
f 378 486 487
f 378 487 484
f 379 484 480
f 381 488 382
f 382 488 489
f 382 489 388
f 384 390 490
f 384 490 491
f 384 491 492
f 384 492 493
f 384 493 385
f 385 493 494
f 385 494 386
f 386 494 387
f 387 495 496
f 387 496 392
f 387 494 497
f 387 497 495
f 388 489 389
f 389 498 490
f 389 490 390
f 389 489 499
f 389 499 500
f 389 500 501
f 389 501 502
f 389 502 498
f 391 392 503
f 391 503 485
f 392 496 503
f 394 453 452
f 394 451 395
f 394 397 453
f 396 504 397
f 396 479 483
f 396 483 504
f 397 504 453
f 399 401 505
f 399 505 402
f 402 505 506
f 402 506 403
f 403 506 507
f 403 507 508
f 403 508 509
f 403 509 510
f 403 510 511
f 403 511 404
f 404 511 512
f 404 512 405
f 405 512 407
f 406 415 409
f 406 408 513
f 406 513 415
f 407 513 408
f 407 512 514
f 407 514 513
f 410 418 515
f 410 515 413
f 411 413 516
f 411 516 517
f 411 517 412
f 412 517 518
f 412 518 519
f 412 519 414
f 413 520 516
f 413 515 521
f 413 521 520
f 415 513 522
f 415 522 416
f 416 523 417
f 416 522 524
f 416 524 525
f 416 525 523
f 417 526 527
f 417 527 528
f 417 528 418
f 417 523 529
f 417 529 526
f 418 528 515
f 421 530 422
f 422 530 531
f 422 531 532
f 422 532 430
f 423 427 533
f 423 533 534
f 423 534 535
f 423 535 424
f 424 535 536
f 424 536 433
f 424 433 428
f 424 428 425
f 426 537 538
f 426 538 427
f 426 430 539
f 426 539 537
f 427 538 537
f 427 537 540
f 427 540 533
f 428 433 429
f 430 541 539
f 430 532 542
f 430 542 543
f 430 543 541
f 431 433 432
f 432 544 545
f 432 545 546
f 432 546 434
f 432 433 544
f 433 536 547
f 433 547 548
f 433 548 549
f 433 549 544
f 434 546 550
f 434 550 435
f 435 550 546
f 435 546 436
f 436 551 552
f 436 552 553
f 436 553 554
f 436 554 437
f 436 546 551
f 437 554 438
f 438 554 439
f 439 554 440
f 440 554 442
f 442 554 555
f 442 555 556
f 442 556 443
f 443 556 445
f 444 449 450
f 445 556 555
f 445 555 557
f 445 557 446
f 446 557 555
f 446 555 558
f 446 558 559
f 446 559 560
f 446 560 561
f 446 561 447
f 447 449 448
f 447 561 449
f 449 561 562
f 449 562 563
f 449 563 564
f 449 564 565
f 449 565 450
f 453 504 454
f 454 504 566
f 454 566 567
f 454 567 568
f 454 568 457
f 457 568 459
f 457 459 458
f 459 569 570
f 459 570 460
f 459 568 569
f 460 571 461
f 460 570 572
f 460 572 573
f 460 573 574
f 460 574 575
f 460 575 576
f 460 576 463
f 460 463 571
f 461 571 462
f 462 571 463
f 463 576 464
f 464 576 577
f 464 577 578
f 464 578 579
f 464 579 580
f 464 580 465
f 465 580 466
f 466 580 468
f 466 468 467
f 468 580 581
f 468 581 582
f 468 582 469
f 469 582 583
f 469 583 470
f 470 584 471
f 470 583 585
f 470 585 584
f 471 584 586
f 471 586 472
f 472 586 587
f 472 587 475
f 473 474 478
f 474 477 590
f 474 590 478
f 475 477 476
f 475 587 477
f 477 587 588
f 477 588 589
f 477 589 590
f 480 591 481
f 480 484 592
f 480 592 593
f 480 593 594
f 480 594 591
f 481 591 595
f 481 595 482
f 482 595 566
f 482 566 504
f 482 504 483
f 484 487 592
f 485 503 486
f 486 503 596
f 486 596 597
f 486 597 487
f 487 598 599
f 487 599 600
f 487 600 592
f 487 597 601
f 487 601 598
f 488 602 489
f 489 602 499
f 490 498 603
f 490 603 491
f 491 603 604
f 491 604 492
f 492 604 605
f 492 605 493
f 493 606 494
f 493 605 607
f 493 607 606
f 494 606 497
f 495 608 609
f 495 609 496
f 495 497 608
f 496 596 503
f 496 609 596
f 497 606 608
f 498 502 610
f 498 610 611
f 498 611 603
f 499 602 612
f 499 612 613
f 499 613 500
f 500 614 501
f 501 614 615
f 501 615 616
f 501 616 617
f 501 617 618
f 501 618 502
f 502 618 619
f 502 619 610
f 507 620 621
f 507 621 508
f 508 621 622
f 508 622 509
f 509 623 510
f 509 622 624
f 509 624 623
f 510 623 511
f 511 623 512
f 512 623 625
f 512 625 514
f 513 514 626
f 513 626 522
f 514 625 626
f 515 528 527
f 515 527 627
f 515 627 628
f 515 628 521
f 516 520 629
f 516 629 630
f 516 630 631
f 516 631 632
f 516 632 633
f 516 633 634
f 516 634 635
f 516 635 517
f 517 635 518
f 520 521 629
f 521 628 636
f 521 636 637
f 521 637 629
f 522 626 638
f 522 638 639
f 522 639 524
f 523 525 529
f 524 639 640
f 524 640 641
f 524 641 525
f 525 641 642
f 525 642 529
f 526 529 643
f 526 643 527
f 527 643 644
f 527 644 627
f 529 644 643
f 529 642 644
f 533 645 646
f 533 646 647
f 533 647 648
f 533 648 649
f 533 649 650
f 533 650 651
f 533 651 652
f 533 652 534
f 533 540 653
f 533 653 645
f 534 652 535
f 535 652 651
f 535 651 536
f 536 651 650
f 536 650 649
f 536 649 547
f 537 539 541
f 537 541 540
f 540 541 543
f 540 543 654
f 540 654 653
f 543 655 654
f 544 549 545
f 545 656 657
f 545 657 658
f 545 658 546
f 545 549 548
f 545 548 656
f 546 658 657
f 546 657 659
f 546 659 660
f 546 660 661
f 546 661 551
f 547 662 663
f 547 663 548
f 547 649 662
f 548 663 664
f 548 664 656
f 551 661 552
f 552 661 665
f 552 665 666
f 552 666 553
f 553 666 667
f 553 667 554
f 554 667 668
f 554 668 558
f 554 558 555
f 558 668 559
f 559 668 669
f 559 669 670
f 559 670 560
f 560 670 671
f 560 671 561
f 561 671 672
f 561 672 673
f 561 673 562
f 566 595 567
f 567 595 591
f 567 591 674
f 567 674 570
f 567 570 569
f 567 569 568
f 570 674 572
f 572 594 599
f 572 599 573
f 572 674 594
f 573 599 675
f 573 675 702
f 573 702 676
f 573 676 574
f 574 676 677
f 574 677 678
f 574 678 575
f 575 678 577
f 575 577 576
f 577 678 578
f 578 678 679
f 578 679 680
f 578 680 579
f 579 680 580
f 580 680 581
f 581 680 681
f 581 681 682
f 581 682 582
f 582 682 683
f 582 683 684
f 582 684 685
f 582 685 686
f 582 686 687
f 582 687 688
f 582 688 689
f 582 689 690
f 582 690 583
f 583 691 692
f 583 692 585
f 583 690 691
f 584 585 692
f 584 692 693
f 584 693 694
f 584 694 695
f 584 695 586
f 586 695 587
f 587 695 694
f 587 694 696
f 587 696 588
f 588 697 589
f 588 696 698
f 588 698 697
f 591 594 674
f 592 699 593
f 592 600 699
f 593 699 594
f 594 699 599
f 596 609 601
f 596 601 597
f 598 601 700
f 598 700 701
f 598 701 702
f 598 702 675
f 598 675 599
f 599 699 600
f 601 703 700
f 601 609 606
f 601 606 704
f 601 704 705
f 601 705 706
f 601 706 707
f 601 707 708
f 601 708 709
f 601 709 703
f 603 611 710
f 603 710 604
f 604 710 711
f 604 711 605
f 605 711 712
f 605 712 607
f 606 607 713
f 606 713 714
f 606 714 704
f 606 609 608
f 607 712 713
f 610 619 715
f 610 715 611
f 611 716 710
f 611 715 717
f 611 717 716
f 615 718 719
f 615 719 616
f 616 719 617
f 617 719 720
f 617 720 721
f 617 721 715
f 617 715 618
f 618 715 619
f 620 722 621
f 621 722 723
f 621 723 724
f 621 724 725
f 621 725 622
f 622 725 624
f 623 624 726
f 623 726 625
f 624 725 727
f 624 727 728
f 624 728 726
f 625 729 730
f 625 730 626
f 625 726 731
f 625 731 729
f 626 730 638
f 627 644 636
f 627 636 628
f 629 653 732
f 629 732 630
f 629 637 645
f 629 645 653
f 630 732 631
f 631 732 733
f 631 733 734
f 631 734 632
f 632 634 633
f 636 735 637
f 636 644 736
f 636 736 735
f 637 735 645
f 638 730 737
f 638 737 738
f 638 738 739
f 638 739 639
f 639 739 640
f 640 739 641
f 641 740 741
f 641 741 642
f 641 739 740
f 642 741 736
f 642 736 644
f 645 735 646
f 646 735 742
f 646 742 647
f 647 742 743
f 647 743 648
f 648 743 649
f 649 743 744
f 649 744 662
f 653 654 745
f 653 745 746
f 653 746 733
f 653 733 732
f 654 655 747
f 654 747 748
f 654 748 745
f 656 664 749
f 656 749 657
f 657 750 751
f 657 751 659
f 657 749 750
f 659 751 752
f 659 752 660
f 660 752 753
f 660 753 754
f 660 754 755
f 660 755 661
f 661 755 754
f 661 754 756
f 661 756 665
f 662 757 663
f 662 744 758
f 662 758 736
f 662 736 757
f 663 759 760
f 663 760 749
f 663 749 664
f 663 757 761
f 663 761 759
f 665 756 762
f 665 762 666
f 666 762 763
f 666 763 667
f 667 763 764
f 667 764 765
f 667 765 766
f 667 766 767
f 667 767 669
f 667 669 668
f 669 767 670
f 670 767 768
f 670 768 769
f 670 769 671
f 671 769 770
f 671 770 771
f 671 771 772
f 671 772 773
f 671 773 774
f 671 774 775
f 671 775 672
f 676 702 776
f 676 776 677
f 677 776 702
f 677 702 701
f 677 701 777
f 677 777 778
f 677 778 779
f 677 779 780
f 677 780 678
f 678 780 679
f 679 681 680
f 679 780 781
f 679 781 782
f 679 782 681
f 681 782 783
f 681 783 682
f 682 783 683
f 683 783 782
f 683 782 784
f 683 784 785
f 683 785 684
f 684 786 787
f 684 787 685
f 684 785 868
f 684 868 786
f 685 787 788
f 685 788 789
f 685 789 687
f 685 687 686
f 687 789 688
f 688 789 790
f 688 790 689
f 689 790 791
f 689 791 792
f 689 792 793
f 689 793 794
f 689 794 690
f 690 794 691
f 691 795 796
f 691 796 692
f 691 794 795
f 692 797 693
f 692 796 797
f 693 797 694
f 694 797 798
f 694 798 800
f 694 800 696
f 696 799 698
f 696 800 885
f 696 885 799
f 697 698 801
f 698 799 801
f 700 703 777
f 700 777 701
f 703 779 777
f 703 709 779
f 704 714 802
f 704 802 803
f 704 803 706
f 704 706 705
f 706 803 707
f 707 803 708
f 708 804 709
f 708 803 805
f 708 805 806
f 708 806 807
f 708 807 804
f 709 804 779
f 710 716 711
f 711 716 712
f 712 716 808
f 712 808 809
f 712 809 810
f 712 810 713
f 713 811 714
f 713 810 812
f 713 812 813
f 713 813 814
f 713 814 811
f 714 811 802
f 715 721 769
f 715 769 815
f 715 815 717
f 716 717 809
f 716 809 808
f 717 815 809
f 718 816 719
f 719 816 772
f 719 772 771
f 719 771 817
f 719 817 818
f 719 818 769
f 719 769 721
f 719 721 720
f 723 819 724
f 723 820 821
f 723 821 819
f 724 819 727
f 724 727 725
f 726 728 822
f 726 822 823
f 726 823 824
f 726 824 731
f 727 819 821
f 727 821 825
f 727 825 826
f 727 826 827
f 727 827 728
f 728 828 829
f 728 829 822
f 728 827 828
f 729 731 830
f 729 830 737
f 729 737 730
f 731 824 831
f 731 831 830
f 735 736 742
f 736 758 742
f 736 741 832
f 736 832 833
f 736 833 834
f 736 834 757
f 737 830 738
f 738 835 739
f 738 830 831
f 738 831 836
f 738 836 835
f 739 835 837
f 739 837 740
f 740 837 741
f 741 837 838
f 741 838 839
f 741 839 832
f 742 758 743
f 743 758 744
f 745 748 746
f 749 760 840
f 749 840 750
f 750 841 842
f 750 842 843
f 750 843 751
f 750 840 759
f 750 759 841
f 751 843 844
f 751 844 845
f 751 845 846
f 751 846 847
f 751 847 752
f 752 847 848
f 752 848 753
f 753 849 850
f 753 850 814
f 753 814 851
f 753 851 852
f 753 852 754
f 753 848 849
f 754 852 756
f 756 852 853
f 756 853 762
f 757 834 854
f 757 854 761
f 759 840 760
f 759 761 841
f 761 855 856
f 761 856 841
f 761 854 833
f 761 833 857
f 761 857 858
f 761 858 855
f 762 853 859
f 762 859 860
f 762 860 763
f 763 860 764
f 764 859 861
f 764 861 809
f 764 809 862
f 764 862 863
f 764 863 765
f 764 860 859
f 765 863 766
f 766 768 767
f 766 863 769
f 766 769 768
f 769 862 815
f 769 818 770
f 769 863 862
f 770 817 771
f 770 818 817
f 777 779 778
f 779 864 781
f 779 781 780
f 779 804 865
f 779 865 866
f 779 866 864
f 781 864 867
f 781 867 784
f 781 784 782
f 784 868 785
f 784 867 868
f 786 868 867
f 786 867 787
f 787 867 869
f 787 869 870
f 787 870 788
f 788 870 871
f 788 871 872
f 788 872 789
f 789 872 873
f 789 873 790
f 790 873 874
f 790 874 791
f 791 875 792
f 791 874 876
f 791 876 877
f 791 877 943
f 791 943 878
f 791 878 875
f 792 875 793
f 793 875 879
f 793 879 880
f 793 880 881
f 793 881 795
f 793 795 794
f 795 881 798
f 795 798 796
f 796 798 797
f 798 881 882
f 798 882 800
f 799 883 884
f 799 884 801
f 799 885 886
f 799 886 883
f 800 882 887
f 800 887 888
f 800 888 885
f 802 811 889
f 802 889 803
f 803 889 805
f 804 807 890
f 804 890 891
f 804 891 865
f 805 889 892
f 805 892 806
f 806 893 807
f 806 892 814
f 806 814 894
f 806 894 895
f 806 895 896
f 806 896 897
f 806 897 893
f 807 893 898
f 807 898 890
f 809 815 862
f 809 861 899
f 809 899 900
f 809 900 901
f 809 901 810
f 810 901 812
f 811 814 902
f 811 902 892
f 811 892 889
f 812 901 900
f 812 900 813
f 813 900 814
f 814 900 851
f 814 850 903
f 814 903 894
f 814 892 902
f 820 904 821
f 821 904 905
f 821 905 910
f 821 910 825
f 822 829 906
f 822 906 823
f 823 907 824
f 823 906 907
f 824 907 831
f 825 908 909
f 825 909 826
f 825 910 963
f 825 963 908
f 826 909 911
f 826 911 912
f 826 912 827
f 827 912 913
f 827 913 828
f 828 913 914
f 828 914 829
f 829 914 906
f 831 907 836
f 832 857 833
f 832 839 915
f 832 915 916
f 832 916 855
f 832 855 858
f 832 858 857
f 833 854 834
f 835 838 837
f 835 836 917
f 835 917 838
f 836 907 918
f 836 918 919
f 836 919 917
f 838 916 915
f 838 915 839
f 838 917 920
f 838 920 855
f 838 855 916
f 841 856 921
f 841 921 922
f 841 922 843
f 841 843 842
f 843 922 844
f 844 922 845
f 845 923 846
f 845 922 924
f 845 924 923
f 846 923 925
f 846 925 848
f 846 848 847
f 848 925 849
f 849 926 927
f 849 927 903
f 849 903 850
f 849 925 926
f 851 900 928
f 851 928 853
f 851 853 852
f 853 928 859
f 855 920 929
f 855 929 856
f 856 929 930
f 856 930 931
f 856 931 921
f 859 928 899
f 859 899 861
f 864 866 867
f 865 891 866
f 866 891 932
f 866 932 867
f 867 932 869
f 869 932 891
f 869 891 933
f 869 933 934
f 869 934 870
f 870 934 871
f 871 935 872
f 871 934 936
f 871 936 937
f 871 937 935
f 872 935 938
f 872 938 873
f 873 938 874
f 874 938 939
f 874 939 940
f 874 940 876
f 875 878 879
f 876 940 941
f 876 941 942
f 876 942 877
f 877 942 943
f 878 943 879
f 879 944 945
f 879 945 946
f 879 946 947
f 879 947 880
f 879 943 948
f 879 948 944
f 880 947 949
f 880 949 881
f 881 949 946
f 881 946 950
f 881 950 882
f 882 950 951
f 882 951 952
f 882 952 887
f 885 888 886
f 887 952 953
f 887 953 888
f 890 933 891
f 890 898 934
f 890 934 933
f 893 954 955
f 893 955 898
f 893 897 956
f 893 956 954
f 894 903 927
f 894 927 895
f 895 927 897
f 895 897 896
f 897 927 957
f 897 957 923
f 897 923 924
f 897 924 958
f 897 958 959
f 897 959 960
f 897 960 956
f 898 955 934
f 899 928 900
f 906 914 961
f 906 961 907
f 907 961 962
f 907 962 918
f 908 963 964
f 908 964 965
f 908 965 966
f 908 966 967
f 908 967 909
f 909 967 968
f 909 968 911
f 911 968 969
f 911 969 912
f 912 914 913
f 912 969 914
f 914 969 961
f 917 919 970
f 917 970 929
f 917 929 920
f 918 962 971
f 918 971 919
f 919 971 972
f 919 972 973
f 919 973 974
f 919 974 970
f 921 931 975
f 921 975 924
f 921 924 922
f 923 957 926
f 923 926 925
f 924 976 958
f 924 975 976
f 926 957 927
f 929 970 930
f 930 972 977
f 930 977 978
f 930 978 931
f 930 970 972
f 931 978 975
f 934 955 956
f 934 956 960
f 934 960 959
f 934 959 979
f 934 979 936
f 935 937 980
f 935 980 939
f 935 939 938
f 936 979 981
f 936 981 937
f 937 981 982
f 937 982 980
f 939 980 982
f 939 982 983
f 939 983 972
f 939 972 984
f 939 984 985
f 939 985 986
f 939 986 940
f 940 986 987
f 940 987 941
f 941 987 942
f 942 987 988
f 942 988 943
f 943 988 948
f 944 989 945
f 944 948 990
f 944 990 991
f 944 991 989
f 945 989 992
f 945 992 993
f 945 993 951
f 945 951 946
f 946 951 950
f 946 949 947
f 948 988 994
f 948 994 990
f 951 993 995
f 951 995 953
f 951 953 952
f 954 956 955
f 958 996 959
f 958 976 996
f 959 996 979
f 961 969 986
f 961 986 962
f 962 986 997
f 962 997 971
f 965 998 999
f 965 999 966
f 966 999 990
f 966 990 1000
f 966 1000 967
f 967 1000 968
f 968 988 969
f 968 1000 994
f 968 994 988
f 969 988 987
f 969 987 986
f 970 974 972
f 971 997 1001
f 971 1001 972
f 972 1002 977
f 972 974 973
f 972 1001 984
f 972 983 1003
f 972 1003 1002
f 975 978 1004
f 975 1004 976
f 976 1005 996
f 976 1004 1005
f 977 1002 978
f 978 1002 1005
f 978 1005 1004
f 979 996 1006
f 979 1006 982
f 979 982 981
f 982 1006 1003
f 982 1003 983
f 984 1007 985
f 984 1001 997
f 984 997 1007
f 985 1007 1008
f 985 1008 986
f 986 1008 997
f 989 1009 992
f 989 991 1010
f 989 1010 1009
f 990 994 1000
f 990 999 991
f 991 999 998
f 991 998 1010
f 992 1011 1012
f 992 1012 993
f 992 1009 1011
f 993 1012 1013
f 993 1013 995
f 996 1005 1003
f 996 1003 1006
f 997 1008 1007
f 1002 1003 1005

