# https://github.com/mikedh/trimesh
v 37.20780350 46.31333750 26.18406638
v 43.00513972 46.31333750 26.18406638
v 36.97296227 46.31333750 26.69385687
v 36.66192284 47.08426019 26.60519760
v 37.03042326 46.70604156 26.18406638
v 38.90790632 62.75539802 26.18406638
v 34.03120035 62.75539802 42.69513767
v 37.56506262 46.31333750 42.91508089
v 36.84055240 46.31333750 26.98881903
v 36.79308340 46.50968888 26.89163495
v 36.55699285 47.67975375 26.31364537
v 36.66692012 47.55582691 26.18406638
v 36.87053350 47.07460367 26.18406638
v 36.54200359 46.79616994 27.17636734
v 36.12728348 47.73125605 27.24456708
v 33.67768920 62.75539802 26.18406638
v 33.83008561 62.75539802 43.02761090
v 37.56006534 46.32299402 42.92190073
v 37.55132267 46.31333750 42.93554171
v 36.64943221 46.31333750 27.42529555
v 35.95240188 48.52149179 26.94960492
v 35.86995708 48.96569815 26.75182620
v 36.23846007 48.52149179 26.30853048
v 36.29217310 48.52953910 26.18406638
v 36.58822327 47.75378750 26.18406638
v 36.13228076 46.87342338 28.11069898
v 35.96739115 47.49144839 27.87370615
v 35.85621713 48.06762891 27.58215391
v 33.67768920 62.31923897 26.18406638
v 33.62397617 62.75539802 26.30853048
v 33.62647224 62.75539802 43.36349277
v 37.14909319 46.31333750 43.37883678
v 36.39085649 46.31333750 28.07830471
v 35.76502966 49.54026817 26.51824329
v 36.03109873 49.23286616 26.18406638
v 35.60763596 49.30529070 27.09282360
v 36.07107182 46.31333750 28.89669706
v 35.95490052 46.57889502 28.89669706
v 35.85996509 47.21301465 28.44999142
v 35.51145121 47.65883150 28.89669706
v 35.05925666 48.23823043 29.48832698
v 35.17292932 48.52471020 28.90351690
v 34.95182803 48.81441095 29.19506914
v 35.51270053 48.52149179 28.03397508
v 33.70641840 61.45818790 26.18406638
v 33.62397617 62.31923897 26.30853048
v 33.36415112 62.75539802 26.96665453
v 32.84575035 62.75539802 43.60218992
v 36.29717038 46.79616994 43.59366576
v 36.29717038 46.31333750 43.59877872
v 35.64885837 50.21462567 26.26249588
v 35.70881799 50.14059063 26.18406638
v 35.95115256 49.45174900 26.18406638
v 35.21290240 50.29026862 27.22410690
v 35.18666926 49.40346640 28.06125446
v 35.07424593 50.03275842 27.79186672
v 35.88120095 46.31333750 29.38432241
v 35.77627096 47.01022644 28.89669706
v 35.71631134 46.31333750 29.84125846
v 35.18541994 47.67975375 29.76964944
v 34.95932395 47.98232815 30.06461160
v 34.85689260 48.52471020 29.76964944
v 34.56459039 49.38254286 29.75941968
v 34.19109269 50.83425988 29.47980217
v 34.59207028 50.24520443 28.89669706
v 34.86438852 49.40346640 28.90351690
v 34.96556798 49.70604208 28.36644703
v 35.06425137 49.12986156 28.62048947
v 33.74014746 60.59552697 26.18406638
v 33.65395469 61.45818790 26.30853048
v 33.37789107 61.45818790 26.99393391
v 33.36415112 62.31923897 26.96665453
v 33.19926151 62.75539802 27.39801552
v 31.98383297 62.75539802 43.60218992
v 35.43400368 48.52149179 43.60218992
v 35.43400368 46.31333750 43.60218992
v 35.35155887 51.10786600 26.30853048
v 35.67134355 50.25486095 26.18406638
v 35.07924320 51.10786600 26.93255467
v 34.98055981 50.60732844 27.54634908
v 34.88936977 50.29026862 28.06125446
v 35.62512386 46.31333750 30.11405612
v 35.07549525 47.40775812 30.42095365
v 34.98430777 47.18243589 30.99553332
v 34.88812045 47.67975375 30.67329114
v 34.58457693 48.52149179 30.62214165
v 34.28352948 49.39059146 30.62555158
v 34.28477880 50.24842413 29.76453392
v 34.18734473 49.96355228 30.34081919
v 34.09865590 51.40883119 29.22064420
v 34.09615726 50.53812231 30.05608680
v 34.00996449 51.11591203 29.76453392
v 33.78761389 59.73286573 26.18406638
v 33.73390086 59.73286573 26.30853048
v 33.68768375 60.59552697 26.30853048
v 33.39412965 60.59552697 27.03996851
v 33.20800674 61.45818790 27.42529555
v 32.97191620 61.45818790 28.03397508
v 33.19926151 62.31923897 27.39801552
v 33.07809294 62.75539802 27.71855274
v 31.98383297 55.41956078 43.60218992
v 31.12066628 62.75539802 43.59707440
v 34.57083442 46.79616994 43.60218992
v 34.57083442 46.31333750 43.58855023
v 35.01303698 51.57621302 26.76546653
v 35.12795895 51.90614905 26.30000567
v 35.10172838 52.18297294 26.18406638
v 35.17792659 51.91580557 26.18406638
v 35.20915444 51.80636415 26.18406638
v 35.40652122 51.11591203 26.18406638
v 35.45024227 50.97106294 26.18406638
v 34.90810699 51.10786600 27.36391565
v 35.45898493 46.31333750 30.62043669
v 35.21914900 46.85411034 30.67329114
v 35.08298859 46.56119118 31.48486363
v 34.90810699 46.99252261 31.48486363
v 34.64953127 47.65883150 31.48486363
v 34.30976262 48.55368104 31.50532317
v 34.19234201 49.10893931 31.23082119
v 34.09615726 49.68350934 30.91539885
v 34.00746585 50.24842413 30.62555158
v 33.77137531 51.97052628 29.75941968
v 34.04244166 52.04134162 28.91886220
v 34.21107923 51.80153525 28.64435957
v 33.74139678 50.24520443 31.48486363
v 33.74764081 51.10786600 30.62214165
v 33.46408383 52.03973242 30.69204571
v 33.80385504 59.55099880 26.18406638
v 33.86631074 58.87020480 26.18406638
v 33.81384703 58.87020480 26.30853048
v 33.43535205 58.92975409 27.25138692
v 33.41786415 59.73286573 27.10987321
v 33.22674397 60.59552697 27.47133014
v 33.00939064 60.59552697 28.03397508
v 32.65338085 61.45818790 28.89669706
v 32.95942300 62.31923897 28.03397508
v 32.95942300 62.75539802 28.03397508
v 31.12066628 62.31923897 43.59707440
v 31.98383297 54.55689985 43.59707440
v 32.84575035 51.97052628 43.60218992
v 30.46111296 62.75539802 43.36008157
v 33.70891704 48.52149179 43.59877872
v 33.70891704 47.65883150 43.53910443
v 33.78636457 46.31333750 43.34985051
v 34.93309081 52.15239353 26.58132814
v 34.78943706 51.90614905 27.10134840
v 34.51087736 52.83318721 27.17125246
v 34.93808809 52.77041918 26.18406638
v 35.28910061 46.31333750 31.15580160
v 35.01178766 46.38576204 31.94520960
v 34.77819575 46.72213490 32.27768155
v 34.34973571 47.73286525 32.41749095
v 34.21357787 48.28973273 32.17538259
v 34.10864788 48.86430404 31.80710581
v 34.01371245 49.39059146 31.50532317
v 33.55901926 52.83318721 29.75941968
v 33.26921569 52.37288686 31.02792758
v 33.34916186 52.83318721 30.41924805
v 33.85756807 52.83318721 28.89669706
v 34.13363170 52.37610592 28.44658085
v 34.35597973 52.04134162 28.10899402
v 33.77262463 49.38254286 32.34588129
v 33.45533859 50.31441056 32.41408103
v 33.34541390 50.92116985 32.17026771
v 33.45408927 51.16902353 31.54624352
v 33.88629728 58.69638519 26.18406638
v 33.97998596 57.89005450 26.18406638
v 33.98872863 57.14488263 26.37502461
v 33.56526586 58.00754388 27.17125246
v 33.30044354 58.68029056 27.66058342
v 33.27296108 59.25647107 27.59238368
v 33.25422643 59.73286573 27.54123420
v 33.07059959 59.73286573 28.03397508
v 32.69210461 60.59552697 28.89669706
v 32.64713425 62.31923897 28.89669706
v 32.45851270 61.45818790 29.47127672
v 32.45601406 62.31923897 29.45593207
v 32.80202931 62.75539802 28.46874599
v 30.46111296 62.31923897 43.36008157
v 31.12066628 61.45818790 43.58855023
v 31.12066628 59.73286573 43.56809070
v 31.12066628 58.87020480 43.53910443
v 31.98383297 53.69584813 43.56127085
v 32.84575035 51.10786600 43.59707440
v 30.35368177 62.75539802 43.03101954
v 32.84575035 50.24520443 43.54933548
v 32.96067232 48.52149179 43.36178845
v 33.11182199 47.65883150 43.30040728
v 33.22049737 47.07138398 43.20322256
v 33.47657446 46.31333750 42.69513767
v 34.85939124 52.87342314 26.30000567
v 34.24230708 52.83318721 27.86859126
v 34.17235547 53.40132041 27.68786280
v 34.28977608 53.69101987 27.20535233
v 34.65577786 53.69584813 26.30853048
v 34.88936977 52.95067658 26.18406638
v 35.06550069 46.31333750 31.87189563
v 35.02802624 46.31333750 31.99635909
v 34.89561637 46.31333750 32.46693547
v 34.84565130 46.31333750 32.65277818
v 34.50213212 46.79616994 33.20860327
v 34.23356441 47.48340236 33.20860327
v 34.13238238 48.06923811 32.75166722
v 34.04993758 48.55368104 32.41749095
v 33.37164704 53.64595568 29.74407438
v 33.31543280 54.29938900 29.44570230
v 33.21425334 52.83318721 30.85060968
v 33.35041118 51.79831555 31.29902092
v 33.26546773 51.49574116 31.87359995
v 33.21050538 52.03973242 31.54624352
v 33.02063195 52.83318721 31.48486363
v 33.29170087 53.32406760 30.23510966
v 33.65145606 53.69584813 28.89669706
v 34.07866935 52.83318721 28.29995225
v 33.85756807 48.52149179 33.20860327
v 33.55652062 49.38254286 33.20860327
v 33.34291526 50.03758603 33.20860327
v 33.26921569 50.64756501 32.74484737
v 33.00814132 51.97052628 32.34588129
v 34.06867480 57.14488263 26.18406638
v 34.05118690 56.28222170 26.52676810
v 33.67144260 57.14488263 27.17125246
v 33.33666866 58.00754388 27.75265261
v 33.16803366 58.00754388 28.18401360
v 33.15429372 58.92975409 27.98282560
v 32.82451449 58.87020480 28.89669706
v 32.75706151 59.73286573 28.89669706
v 32.47724993 60.59552697 29.53265661
v 32.64713425 62.75539802 28.89669706
v 32.55094950 62.75539802 29.17801952
v 32.34608937 60.59552697 29.96231264
v 32.32735215 61.45818790 29.90263771
v 32.09251092 62.31923897 30.62214165
v 32.31985623 62.31923897 29.88729306
v 32.45601406 62.75539802 29.45593207
v 30.24500639 62.31923897 42.69513767
v 30.49483945 60.59552697 43.34132635
v 30.47859830 61.45818790 43.35155740
v 30.51232992 59.73286573 43.32939355
v 31.12066628 58.00754388 43.48966119
v 31.29929584 54.55689985 43.35837725
v 30.54730573 58.87020480 43.30211160
v 31.37424473 53.69584813 43.32427802
v 31.98383297 52.83318721 43.47943014
v 30.24500639 62.75539802 42.69513767
v 32.13747871 51.10786600 43.36008157
v 32.24615666 50.24520443 43.31234265
v 32.34234141 49.58372444 43.22197777
v 32.45601406 49.05582652 42.69513767
v 32.64588493 48.52149179 42.69513767
v 32.95442830 47.65883150 42.69513767
v 33.19551355 47.00861724 42.69513767
v 33.36914840 46.57728581 42.69513767
v 33.37414311 46.60786586 41.83241569
v 33.49406236 46.31333750 41.83241569
v 34.10489992 53.97589108 27.51395482
v 33.98747931 53.69101987 27.99817025
v 34.21607651 54.55689985 26.93084970
v 34.47714830 54.55689985 26.30853048
v 34.56833835 54.38147071 26.18406638
v 34.71074021 53.69584813 26.18406638
v 34.74072131 53.56387398 26.18406638
v 34.70074823 46.31333750 33.23588265
v 34.16860751 47.30314432 33.76783828
v 34.50837872 46.31333750 34.06791532
v 34.29352404 46.82996840 34.06280108
v 33.65145606 48.52149179 34.07132525
v 34.07617072 47.91473250 33.20860327
v 33.22424533 53.89863827 30.02028197
v 33.16428570 54.57299448 29.74407438
v 33.25297711 54.87235047 29.25985895
v 33.43535205 54.57299448 28.94273165
v 32.82326517 53.69584813 31.48486363
v 32.77954670 52.83318721 32.34588129
v 33.37414311 49.37449683 34.01847080
v 33.29045155 49.85250037 33.69622862
v 33.11432063 50.18243641 34.01847080
v 32.82326517 51.10786600 34.07132525
v 33.21300402 50.46891746 33.20860327
v 33.02812787 51.10786600 33.20860327
v 32.79328664 51.97052628 33.20860327
v 34.19484065 56.28222170 26.18406638
v 34.10614924 55.67707163 26.65805204
v 33.79885777 56.28222170 27.17125246
v 33.39163101 57.14488263 27.90269113
v 33.22674397 57.14488263 28.33405212
v 32.90695929 58.00754388 28.89669706
v 32.52222029 58.83962539 29.81397844
v 32.50972709 59.73286573 29.62984005
v 32.19868766 59.73286573 30.62214165
v 31.93636397 59.73286573 31.48486363
v 32.14747327 60.59552697 30.62214165
v 32.11249746 61.45818790 30.62214165
v 31.83018724 62.31923897 31.48486363
v 31.96009847 62.75539802 31.05691257
v 32.09251092 62.75539802 30.62214165
v 32.20493426 62.75539802 30.25727480
v 32.31985623 62.75539802 29.88729306
v 30.27373560 61.45818790 42.69513767
v 30.27499006 62.31923897 41.83241569
v 30.31621246 61.45818790 40.96969371
v 30.29247539 61.45818790 41.83241569
v 30.30746723 60.59552697 42.69513767
v 30.34868963 59.73286573 42.69513767
v 30.59851755 58.00754388 43.25266836
v 30.64848519 57.14488263 43.18787855
v 30.67971304 56.63147078 43.14354827
v 31.46418288 52.83318721 43.24243731
v 30.27499006 62.75539802 41.83241569
v 31.52414508 52.30207152 43.16912333
v 32.31111356 49.48554746 42.69513767
v 32.46350998 49.10249992 41.83241569
v 32.66087676 48.52149179 41.83241569
v 32.97066688 47.65883150 41.83241569
v 33.20425878 47.03919600 41.83241569
v 33.21799873 47.08104178 40.96969371
v 33.53278612 46.31333750 40.96969371
v 33.78386593 54.55689985 28.03397508
v 34.04494030 54.55689985 27.36221069
v 34.16236091 55.10089111 26.79615583
v 34.29352404 55.40185694 26.34604027
v 34.36347565 55.40507600 26.18406638
v 34.53086390 54.56494717 26.18406638
v 34.10489992 47.14059011 34.34241859
v 33.77137531 47.65883150 34.93234290
v 33.98498067 47.61698573 34.06280108
v 34.31475990 46.31333750 34.93234290
v 34.21607651 46.55153466 34.93234290
v 33.43160409 48.57138488 34.96473781
v 32.90321134 54.55689985 30.62214165
v 33.20675742 55.41956078 29.13198493
v 33.36540044 55.41956078 28.70062394
v 33.61897889 55.41956078 28.03397508
v 32.49598715 55.35518355 31.47122394
v 32.73957361 55.41956078 30.62214165
v 32.45101679 56.08586967 31.17455682
v 33.00314405 55.41956078 29.75941968
v 32.64838357 54.55689985 31.48486363
v 32.55594677 53.75539775 32.41237542
v 32.46850726 54.55689985 32.12593807
v 32.42228758 55.02524751 31.94520960
v 32.54845086 52.88308030 33.25634347
v 32.46350998 53.50754342 33.00059542
v 33.31918076 49.08157767 34.70046431
v 33.22674397 49.65614898 34.27080893
v 32.89821663 50.24520443 34.93234290
v 32.63339430 51.10786600 34.93234290
v 32.41604098 51.54402504 35.36881942
v 32.46101134 51.72910942 34.93234290
v 32.56219337 52.03490416 34.13270514
v 34.25480027 55.96677109 26.18406638
v 33.97748733 55.40185694 27.11839802
v 33.31168741 56.06816584 28.55911022
v 33.44159865 56.32728654 28.10217417
v 33.26671705 56.64434635 28.43635108
v 33.02188127 57.14488263 28.89669706
v 32.73457633 57.14488263 29.75941968
v 32.62090368 58.00754388 29.75941968
v 32.42228758 58.53222209 30.21635508
v 32.39855308 59.10679276 30.13963054
v 32.29487241 58.83962539 30.55053199
v 31.89264550 60.59552697 31.48486363
v 32.01131543 58.87020480 31.48486363
v 31.70527071 59.73286573 32.34588129
v 31.85891644 61.45818790 31.48486363
v 31.83018724 62.75539802 31.48486363
v 31.62657386 62.31923897 32.23335192
v 30.29122607 62.75539802 41.40446462
v 30.30871655 62.31923897 40.96969371
v 30.36617496 61.45818790 40.10867605
v 30.35118827 60.59552697 40.96969371
v 30.32745120 60.59552697 41.83241569
v 30.41739192 58.87020480 42.69513767
v 30.37741884 59.73286573 41.83241569
v 30.44487181 58.87020480 41.83241569
v 30.51482342 58.00754388 42.69513767
v 30.61600802 57.14488263 42.69513767
v 30.67846372 56.62664252 42.69513767
v 30.74841790 56.19531238 42.69513767
v 30.88707437 55.41956078 42.69513767
v 31.04446807 54.55689985 42.69513767
v 31.20436041 53.69584813 42.69513767
v 31.38673535 52.83318721 42.69513767
v 31.51789848 52.27632038 42.69513767
v 32.08501500 50.24520443 42.69513767
v 32.10625086 50.24520443 41.83241569
v 32.32485351 49.53383135 41.83241569
v 32.48224720 49.16204953 40.96969371
v 32.69210461 48.52149179 40.96969371
v 32.99565070 47.65883150 40.96969371
v 33.24548119 47.14702822 40.10867605
v 33.55776994 46.31333750 40.56731771
v 34.04119234 46.98286480 34.93234290
v 34.15986227 46.41312368 35.47623262
v 33.60648826 47.65883150 35.79506488
v 33.35790452 48.32835881 35.79506488
v 34.22356986 46.31333750 35.36370389
v 33.25922113 48.89327232 35.27334030
v 32.86573689 56.28222170 29.75941968
v 33.16053774 56.32728654 28.86600711
v 32.36607591 55.60142803 31.75084145
v 32.32485351 56.33694306 31.47122394
v 32.40729831 56.66044098 31.02792758
v 32.56344269 56.33694306 30.69204571
v 32.40604899 54.08372393 32.74314305
v 32.35982931 54.55689985 32.55729906
v 32.27488587 55.35518355 32.27768155
v 32.46850726 52.62878851 33.88548254
v 32.40105172 53.20496838 33.57517444
v 32.17870112 53.69584813 34.07132525
v 31.99507685 54.55689985 34.07132525
v 33.16928298 49.37449683 34.96473781
v 32.73582565 50.24520443 35.79506488
v 32.03879532 52.83318721 35.79506488
v 31.99507685 53.69584813 34.93234290
v 32.35857999 52.16044085 34.93234290
v 32.40604899 52.36323034 34.46176716
v 32.48974055 51.10142789 35.71152114
v 32.45226611 50.81011922 36.47535407
v 32.37231994 51.38468925 35.94510405
v 32.10625086 51.97052628 36.65778686
v 31.89139618 52.83318721 36.65778686
v 32.50847777 57.14488263 30.49256267
v 32.37731722 57.14488263 30.92392430
v 32.45226611 58.00754388 30.31694909
v 32.32485351 58.00754388 30.74831007
v 31.64281501 60.61805907 32.42260519
v 31.64281501 61.45818790 32.28791132
v 32.10999882 58.00754388 31.48486363
v 31.87765624 58.00754388 32.34588129
v 31.78021960 58.87020480 32.34588129
v 31.61533255 58.87020480 33.04492441
v 31.57785811 59.73286573 32.89318093
v 31.55912088 60.34606344 32.80793158
v 31.62657386 62.75539802 32.23335192
v 31.53788502 61.45818790 32.71756799
v 31.42046441 61.45818790 33.20860327
v 31.21810035 61.45818790 34.07132525
v 31.52664115 62.31923897 32.66471355
v 30.30871655 62.75539802 40.96969371
v 30.35992836 62.31923897 40.10867605
v 30.43112930 62.31923897 39.24595408
v 30.50858197 62.31923897 38.38323210
v 30.44487181 61.45818790 39.24595408
v 30.47859830 60.59552697 39.24595408
v 30.40115077 60.59552697 40.10867605
v 30.41239464 59.73286573 40.96969371
v 30.55604583 58.00754388 40.96969371
v 30.53231390 58.00754388 41.83241569
v 30.47859830 58.87020480 40.96969371
v 30.68471031 56.67975402 42.12055865
v 30.74466994 56.34820878 41.83241569
v 30.89332097 55.41956078 41.83241569
v 31.04946535 54.55689985 41.83241569
v 31.22434695 53.69584813 41.83241569
v 31.25182684 53.69584813 40.96969371
v 31.41671645 52.83318721 41.83241569
v 31.53538638 52.33426078 41.83241569
v 31.64406176 51.90292936 41.83241569
v 31.88140162 51.10786600 40.96969371
v 31.85642038 51.10786600 41.83241569
v 32.13622939 50.24520443 40.96969371
v 32.34359073 49.59337967 40.96969371
v 32.50972709 49.24735029 40.10867605
v 32.74706696 48.52149179 40.10867605
v 33.05061305 47.65883150 40.10867605
v 33.26796637 47.20175021 39.58013163
v 33.62522549 46.31333750 39.66538098
v 33.58774847 46.31333750 40.10867605
v 34.18859405 46.31333750 35.54272676
v 34.10115197 46.31333750 36.03546764
v 33.97498869 46.73822953 35.77630966
v 33.80135641 46.79616994 36.65778686
v 33.66020129 46.79616994 37.52051012
v 33.43660137 47.72642843 36.69870721
v 33.30918877 48.17868082 36.43954924
v 33.16053774 48.48769332 36.69870721
v 32.72333246 49.38254286 37.52051012
v 32.86074218 49.38254286 36.65778686
v 33.21175470 48.75969024 35.79506488
v 33.00814132 49.38254286 35.79506488
v 32.09500699 56.28222170 32.34588129
v 32.21117828 57.14488263 31.48486363
v 32.19993698 54.55689985 33.20860327
v 32.03879532 55.41956078 33.20860327
v 32.35483204 52.88308030 34.13270514
v 31.81020069 54.55689985 34.93234290
v 31.84142854 55.41956078 34.07132525
v 32.55969473 50.32084867 36.72087107
v 31.84017922 53.69584813 35.79506488
v 32.49723647 50.10357375 37.52051012
v 32.40979438 50.65722153 37.04993310
v 32.33484549 51.10142789 36.72087107
v 31.97633706 51.97052628 37.52051012
v 31.75648767 52.83318721 37.52051012
v 31.67154422 53.77632063 36.73621636
v 31.54787701 60.92063411 32.76189698
v 31.97758638 57.14488263 32.34588129
v 31.65155768 58.02524771 33.26316331
v 31.53913434 58.32460402 33.58540550
v 31.51539984 58.87020480 33.47628540
v 31.48167336 59.73286573 33.32454192
v 31.25432548 60.59552697 34.07132525
v 31.52664115 62.75539802 32.66471355
v 31.03947079 61.45818790 34.93234290
v 31.20935768 62.31923897 34.07132525
v 31.40172719 62.31923897 33.20860327
v 30.35992836 62.75539802 40.10867605
v 30.39490417 62.75539802 39.68072499
v 30.43112930 62.75539802 39.24595408
v 30.50858197 62.75539802 38.38323210
v 30.60851210 62.31923897 37.52051012
v 30.53356322 61.45818790 38.38323210
v 30.56604038 60.59552697 38.38323210
v 30.61101074 59.73286573 38.38323210
v 30.53356322 59.73286573 39.24595408
v 30.46361160 59.73286573 40.10867605
v 30.60601347 58.00754388 40.10867605
v 30.66846916 57.43780147 40.10867605
v 30.64473723 57.25432533 40.96969371
v 30.64348791 57.08050540 41.83241569
v 30.53106458 58.87020480 40.10867605
v 30.69470487 56.74896016 41.54597834
v 30.70719550 56.82299455 40.96969371
v 30.79088962 56.28222170 40.96969371
v 30.92579814 55.41956078 40.96969371
v 31.07319728 54.55689985 40.96969371
v 31.46918016 52.76559092 40.98503772
v 31.54662769 52.37932497 41.28170484
v 31.30304380 53.69584813 40.10867605
v 31.56037020 52.43404568 40.70712582
v 31.64031637 52.04456068 40.98503772
v 31.93386790 51.10786600 40.10867605
v 32.18994499 50.24520443 40.10867605
v 32.37107062 49.67868044 40.10867605
v 32.39730376 49.76076279 39.46248737
v 32.42103826 49.83479654 38.88790707
v 32.52346961 49.43726486 39.20332940
v 32.61590640 49.38254286 38.38323210
v 32.82701313 48.52149179 39.24595408
v 33.15179508 47.60411079 39.27323346
v 33.29669558 47.28061158 39.00555132
v 33.54777539 46.79616994 38.38323210
v 33.43285341 46.86698528 39.27323346
v 33.66145061 46.31333750 39.25618384
v 33.99622455 46.31333750 36.65778686
v 33.96249549 46.31333750 36.86068046
v 33.38663630 47.52363765 37.52051012
v 33.85756807 46.31333750 37.52051012
v 33.33042463 47.37235045 38.38323210
v 33.26671705 48.05958288 37.01412955
v 33.02437991 48.52149179 37.52051012
v 32.91445521 48.52149179 38.38323210
v 32.44477276 49.91848809 38.38323210
v 31.89389482 56.28222170 33.20860327
v 31.77147693 57.14488263 33.20860327
v 31.64656040 54.59552658 35.82234426
v 31.58285281 55.18297282 35.55466213
v 31.64656040 55.45014019 34.97326197
v 31.54912633 56.68941054 34.48563662
v 31.67529218 56.35303768 34.14805043
v 32.37606790 50.53490390 37.52051012
v 32.32110555 50.34981823 38.38323210
v 32.21617556 51.10786600 37.52051012
v 32.10874950 51.10786600 38.38323210
v 31.87265896 51.97052628 38.38323210
v 31.60408868 53.52846631 37.52051012
v 31.64281501 52.88308030 38.38323210
v 31.56661423 53.33855238 38.09679475
v 31.55037565 54.11752240 37.07550816
v 31.59409669 54.33640652 36.50092914
v 31.57286083 57.74842350 33.72350929
v 31.46918016 58.02524771 34.03552042
v 31.38298996 58.87020480 34.07132525
v 31.31553442 59.73286573 34.07132525
v 31.07569592 60.59552697 34.93234290
v 31.40172719 62.75539802 33.20860327
v 31.03322419 62.31923897 34.93234290
v 30.92704746 60.59552697 35.79506488
v 30.89207165 61.45818790 35.79506488
v 30.87957846 62.31923897 35.79506488
v 31.20935768 62.75539802 34.07132525
v 30.60851210 62.75539802 37.52051012
v 30.64223859 62.75539802 37.27158192
v 30.67846372 62.31923897 37.01753947
v 30.68595963 61.77846677 37.06016415
v 30.64348791 61.47750094 37.46424447
v 30.65098383 60.59552697 37.66031823
v 30.67096780 59.73286573 37.80865179
v 30.68471031 59.25486155 37.91265636
v 30.60226551 58.87020480 39.24595408
v 30.66846916 58.07353095 39.32608790
v 30.68845827 57.56977563 39.66708530
v 30.98950572 56.28222170 38.38323210
v 30.91330494 56.28222170 39.24595408
v 30.73217932 57.00647101 40.10867605
v 30.84335333 56.28222170 40.10867605
v 30.97951117 55.41956078 40.10867605
v 31.12566356 54.55689985 40.10867605
v 31.47792540 52.95228579 40.10867605
v 31.38174065 53.69584813 39.24595408
v 31.53788502 53.20496838 38.67137377
v 31.51290120 53.09874537 39.24595408
v 31.58035675 52.52095565 40.10867605
v 31.71276662 51.97052628 40.10867605
v 31.78771551 51.97052628 39.24595408
v 32.01631014 51.10786600 39.24595408
v 32.29237377 50.17116940 39.20332940
v 33.17428026 47.80368059 38.38323210
v 33.81384703 46.31333750 37.85639199
v 33.75138877 46.31333750 38.33890182
v 33.22924261 47.95496908 37.52051012
v 31.51290120 57.14488263 34.33730306
v 31.61158459 57.14488263 33.90594207
v 31.53663570 54.90936798 36.12924243
v 31.36799813 56.28222170 35.79506488
v 31.53788502 55.75915333 35.28868431
v 31.36300342 55.41956078 36.65778686
v 31.22184831 56.28222170 36.65778686
v 31.39173263 57.14488263 34.93234290
v 31.51914780 53.95979709 37.52051012
v 31.61533255 52.66741523 39.24595408
v 31.20560973 54.55689985 39.24595408
v 31.29679720 54.55689985 38.38323210
v 31.23433893 55.41956078 37.52051012
v 31.40172719 54.55689985 37.52051012
v 31.50665460 54.59552658 36.73621636
v 31.28305725 58.00754388 34.93234290
v 31.20685905 58.87020480 34.93234290
v 31.13940350 59.73286573 34.93234290
v 30.98325912 59.73286573 35.79506488
v 31.03322419 62.75539802 34.93234290
v 30.95577667 62.75539802 35.36711382
v 30.83960537 59.73286573 36.65778686
v 30.79213894 60.59552697 36.65778686
v 30.74716858 61.47750094 36.72598660
v 30.74716858 62.31923897 36.58617848
v 30.87957846 62.75539802 35.79506488
v 30.67846372 62.75539802 37.01753947
v 30.71219277 62.75539802 36.80271050
v 30.70844481 60.59552697 37.22895724
v 30.72968068 59.73286573 37.37729080
v 30.71718748 58.67868135 38.20420795
v 30.68595963 58.40668540 38.77878826
v 30.66722498 58.92814489 38.44802191
v 30.90955955 58.87020480 36.65778686
v 30.76590580 58.92814489 37.58359433
v 30.87957846 58.00754388 37.52051012
v 30.97951117 57.14488263 37.52051012
v 30.75965920 58.07353095 38.44802191
v 30.87583050 57.14488263 38.38323210
v 31.09068775 56.28222170 37.52051012
v 31.13315690 55.41956078 38.38323210
v 31.05196399 55.41956078 39.24595408
v 31.24183485 57.14488263 35.79506488
v 31.10442770 57.14488263 36.65778686
v 31.13440622 58.00754388 35.79506488
v 31.05196399 58.87020480 35.79506488
v 30.74716858 62.75539802 36.58617848
v 31.00199635 58.00754388 36.65778686
f 1 2 8
f 1 8 19
f 1 19 32
f 1 32 50
f 1 50 76
f 1 76 104
f 1 104 144
f 1 144 190
f 1 190 255
f 1 255 317
f 1 317 392
f 1 392 469
f 1 469 468
f 1 468 545
f 1 545 611
f 1 611 610
f 1 610 549
f 1 549 547
f 1 547 546
f 1 546 471
f 1 471 470
f 1 470 397
f 1 397 327
f 1 327 265
f 1 265 263
f 1 263 200
f 1 200 199
f 1 199 198
f 1 198 197
f 1 197 149
f 1 149 113
f 1 113 82
f 1 82 59
f 1 59 57
f 1 57 37
f 1 37 33
f 1 33 20
f 1 20 9
f 1 9 3
f 1 3 4
f 1 4 5
f 1 5 13
f 1 13 12
f 1 12 25
f 1 25 24
f 1 24 35
f 1 35 53
f 1 53 52
f 1 52 78
f 1 78 111
f 1 111 110
f 1 110 109
f 1 109 108
f 1 108 107
f 1 107 148
f 1 148 196
f 1 196 262
f 1 262 261
f 1 261 260
f 1 260 323
f 1 323 322
f 1 322 351
f 1 351 282
f 1 282 220
f 1 220 167
f 1 167 166
f 1 166 129
f 1 129 128
f 1 128 93
f 1 93 69
f 1 69 45
f 1 45 29
f 1 29 16
f 1 16 6
f 1 6 2
f 2 6 7
f 2 7 8
f 3 9 10
f 3 10 4
f 4 11 12
f 4 12 13
f 4 13 5
f 4 10 14
f 4 14 15
f 4 15 11
f 6 16 30
f 6 30 47
f 6 47 73
f 6 73 100
f 6 100 137
f 6 137 178
f 6 178 229
f 6 229 230
f 6 230 235
f 6 235 298
f 6 298 297
f 6 297 296
f 6 296 295
f 6 295 366
f 6 366 435
f 6 435 504
f 6 504 577
f 6 577 582
f 6 582 632
f 6 632 633
f 6 633 638
f 6 638 659
f 6 659 640
f 6 640 639
f 6 639 584
f 6 584 583
f 6 583 511
f 6 511 510
f 6 510 509
f 6 509 508
f 6 508 440
f 6 440 368
f 6 368 309
f 6 309 245
f 6 245 185
f 6 185 141
f 6 141 102
f 6 102 74
f 6 74 48
f 6 48 31
f 6 31 17
f 6 17 7
f 7 17 18
f 7 18 8
f 8 18 19
f 9 20 10
f 10 20 14
f 11 15 21
f 11 21 22
f 11 22 23
f 11 23 24
f 11 24 25
f 11 25 12
f 14 20 26
f 14 26 27
f 14 27 15
f 15 27 28
f 15 28 21
f 16 29 46
f 16 46 30
f 17 31 18
f 18 31 19
f 19 31 32
f 20 33 26
f 21 28 22
f 22 34 35
f 22 35 24
f 22 24 23
f 22 28 36
f 22 36 34
f 26 33 37
f 26 37 38
f 26 38 39
f 26 39 27
f 27 39 40
f 27 40 41
f 27 41 28
f 28 42 43
f 28 43 44
f 28 44 36
f 28 41 42
f 29 45 46
f 30 46 72
f 30 72 47
f 31 48 32
f 32 48 49
f 32 49 50
f 34 51 52
f 34 52 53
f 34 53 35
f 34 36 54
f 34 54 51
f 36 44 55
f 36 55 56
f 36 56 54
f 37 57 38
f 38 57 39
f 39 57 58
f 39 58 40
f 40 58 57
f 40 57 41
f 41 57 59
f 41 59 60
f 41 60 61
f 41 61 62
f 41 62 43
f 41 43 42
f 43 62 63
f 43 63 64
f 43 64 65
f 43 65 66
f 43 66 67
f 43 67 68
f 43 68 44
f 44 68 55
f 45 69 95
f 45 95 70
f 45 70 46
f 46 70 71
f 46 71 72
f 47 72 99
f 47 99 73
f 48 74 101
f 48 101 140
f 48 140 103
f 48 103 76
f 48 76 75
f 48 75 50
f 48 50 49
f 50 75 76
f 51 77 78
f 51 78 52
f 51 54 79
f 51 79 77
f 54 56 80
f 54 80 79
f 55 68 56
f 56 68 67
f 56 67 81
f 56 81 80
f 59 82 61
f 59 61 60
f 61 82 83
f 61 83 84
f 61 84 85
f 61 85 86
f 61 86 62
f 62 86 87
f 62 87 63
f 63 88 64
f 63 87 89
f 63 89 88
f 64 90 65
f 64 88 91
f 64 91 92
f 64 92 90
f 65 81 67
f 65 67 66
f 65 90 81
f 69 93 94
f 69 94 95
f 70 95 71
f 71 96 97
f 71 97 72
f 71 95 96
f 72 97 98
f 72 98 99
f 73 99 100
f 74 102 138
f 74 138 101
f 76 103 104
f 77 105 106
f 77 106 107
f 77 107 108
f 77 108 109
f 77 109 110
f 77 110 111
f 77 111 78
f 77 79 105
f 79 80 112
f 79 112 105
f 80 81 90
f 80 90 112
f 82 113 114
f 82 114 83
f 83 114 84
f 84 115 116
f 84 116 85
f 84 114 115
f 85 116 117
f 85 117 86
f 86 117 118
f 86 118 119
f 86 119 87
f 87 119 120
f 87 120 89
f 88 89 91
f 89 120 121
f 89 121 91
f 90 92 122
f 90 122 123
f 90 123 124
f 90 124 112
f 91 121 92
f 92 121 125
f 92 125 126
f 92 126 127
f 92 127 122
f 93 128 94
f 94 128 129
f 94 129 130
f 94 130 131
f 94 131 132
f 94 132 96
f 94 96 95
f 96 132 133
f 96 133 97
f 97 133 98
f 98 134 135
f 98 135 136
f 98 136 99
f 98 133 134
f 99 136 100
f 100 136 137
f 101 138 139
f 101 139 184
f 101 184 140
f 102 141 179
f 102 179 138
f 103 140 142
f 103 142 104
f 104 143 144
f 104 142 143
f 105 145 107
f 105 107 106
f 105 112 124
f 105 124 146
f 105 146 147
f 105 147 145
f 107 145 148
f 113 149 114
f 114 149 115
f 115 149 150
f 115 150 116
f 116 150 151
f 116 151 117
f 117 151 152
f 117 152 118
f 118 152 153
f 118 153 154
f 118 154 119
f 119 154 155
f 119 155 120
f 120 155 125
f 120 125 121
f 122 156 123
f 122 127 157
f 122 157 158
f 122 158 156
f 123 159 160
f 123 160 124
f 123 156 159
f 124 160 161
f 124 161 146
f 125 155 162
f 125 162 163
f 125 163 164
f 125 164 165
f 125 165 126
f 126 157 127
f 126 165 157
f 129 166 130
f 130 166 167
f 130 167 168
f 130 168 169
f 130 169 131
f 131 169 170
f 131 170 171
f 131 171 132
f 132 171 172
f 132 172 134
f 132 134 133
f 134 173 174
f 134 174 135
f 134 172 173
f 135 175 136
f 135 174 176
f 135 176 177
f 135 177 175
f 136 175 178
f 136 178 137
f 138 179 180
f 138 180 139
f 139 180 181
f 139 181 182
f 139 182 183
f 139 183 184
f 140 184 142
f 141 185 179
f 142 184 186
f 142 186 143
f 143 186 187
f 143 187 188
f 143 188 144
f 144 188 189
f 144 189 190
f 145 191 148
f 145 147 191
f 146 161 147
f 147 161 160
f 147 160 192
f 147 192 193
f 147 193 194
f 147 194 195
f 147 195 191
f 148 191 196
f 149 197 150
f 150 197 198
f 150 198 199
f 150 199 151
f 151 199 200
f 151 200 201
f 151 201 202
f 151 202 152
f 152 202 203
f 152 203 153
f 153 203 204
f 153 204 154
f 154 204 162
f 154 162 155
f 156 158 205
f 156 205 206
f 156 206 159
f 157 207 158
f 157 165 208
f 157 208 209
f 157 209 210
f 157 210 211
f 157 211 207
f 158 207 212
f 158 212 205
f 159 206 213
f 159 213 214
f 159 214 160
f 160 214 193
f 160 193 192
f 162 204 203
f 162 203 215
f 162 215 216
f 162 216 217
f 162 217 163
f 163 217 218
f 163 218 164
f 164 219 209
f 164 209 165
f 164 218 219
f 165 209 208
f 167 220 168
f 168 221 222
f 168 222 169
f 168 220 221
f 169 222 223
f 169 223 170
f 170 223 224
f 170 224 225
f 170 225 171
f 171 225 173
f 171 173 172
f 173 226 227
f 173 227 174
f 173 225 226
f 174 227 228
f 174 228 176
f 175 229 178
f 175 177 230
f 175 230 229
f 176 228 231
f 176 231 232
f 176 232 294
f 176 294 233
f 176 233 234
f 176 234 177
f 177 235 230
f 177 234 298
f 177 298 235
f 179 185 236
f 179 236 237
f 179 237 238
f 179 238 181
f 179 181 180
f 181 238 237
f 181 237 239
f 181 239 182
f 182 240 241
f 182 241 183
f 182 239 242
f 182 242 240
f 183 241 243
f 183 243 244
f 183 244 186
f 183 186 184
f 185 245 236
f 186 244 246
f 186 246 247
f 186 247 187
f 187 247 188
f 188 247 248
f 188 248 189
f 189 248 249
f 189 249 250
f 189 250 251
f 189 251 252
f 189 252 253
f 189 253 190
f 190 253 254
f 190 254 255
f 191 195 196
f 193 256 194
f 193 214 257
f 193 257 256
f 194 258 195
f 194 256 258
f 195 259 260
f 195 260 261
f 195 261 262
f 195 262 196
f 195 258 259
f 200 263 201
f 201 264 202
f 201 263 265
f 201 265 266
f 201 266 264
f 202 264 267
f 202 267 268
f 202 268 203
f 203 268 215
f 205 212 269
f 205 269 206
f 206 269 270
f 206 270 271
f 206 271 272
f 206 272 213
f 207 269 212
f 207 211 273
f 207 273 269
f 209 219 210
f 210 219 274
f 210 274 211
f 211 274 273
f 213 257 214
f 213 272 257
f 215 268 267
f 215 267 216
f 216 267 275
f 216 275 276
f 216 276 217
f 217 276 277
f 217 277 278
f 217 278 279
f 217 279 218
f 218 279 278
f 218 278 280
f 218 280 219
f 219 280 281
f 219 281 274
f 220 282 221
f 221 282 283
f 221 283 284
f 221 284 222
f 222 284 285
f 222 285 224
f 222 224 223
f 224 286 287
f 224 287 226
f 224 226 225
f 224 285 286
f 226 287 288
f 226 288 289
f 226 289 227
f 227 289 228
f 228 289 290
f 228 290 231
f 231 290 291
f 231 291 292
f 231 292 232
f 232 292 293
f 232 293 294
f 233 295 296
f 233 296 297
f 233 297 234
f 233 294 295
f 234 297 298
f 236 299 239
f 236 239 237
f 236 245 309
f 236 309 300
f 236 300 301
f 236 301 302
f 236 302 299
f 239 299 303
f 239 303 304
f 239 304 242
f 240 242 241
f 241 242 243
f 242 305 243
f 242 304 305
f 243 305 306
f 243 306 307
f 243 307 308
f 243 308 247
f 243 247 246
f 243 246 244
f 247 308 310
f 247 310 248
f 248 310 311
f 248 311 249
f 249 311 312
f 249 312 313
f 249 313 250
f 250 313 251
f 251 313 314
f 251 314 252
f 252 314 315
f 252 315 254
f 252 254 253
f 254 315 316
f 254 316 255
f 255 316 317
f 256 318 319
f 256 319 258
f 256 257 272
f 256 272 318
f 258 319 320
f 258 320 259
f 259 320 283
f 259 283 321
f 259 321 322
f 259 322 323
f 259 323 260
f 264 266 324
f 264 324 325
f 264 325 326
f 264 326 267
f 265 327 266
f 266 327 328
f 266 328 324
f 267 326 325
f 267 325 329
f 267 329 275
f 269 273 270
f 270 273 330
f 270 330 271
f 271 331 332
f 271 332 333
f 271 333 318
f 271 318 272
f 271 330 334
f 271 334 335
f 271 335 336
f 271 336 337
f 271 337 331
f 273 338 330
f 273 274 339
f 273 339 340
f 273 340 341
f 273 341 338
f 274 281 342
f 274 342 343
f 274 343 339
f 275 329 344
f 275 344 345
f 275 345 276
f 276 345 277
f 277 345 346
f 277 346 347
f 277 347 278
f 278 347 348
f 278 348 349
f 278 349 350
f 278 350 281
f 278 281 280
f 281 350 342
f 282 351 283
f 283 351 321
f 283 320 352
f 283 352 333
f 283 333 284
f 284 333 332
f 284 332 353
f 284 353 354
f 284 354 286
f 284 286 285
f 286 354 355
f 286 355 356
f 286 356 287
f 287 356 357
f 287 357 358
f 287 358 288
f 288 358 359
f 288 359 360
f 288 360 289
f 289 360 290
f 290 360 359
f 290 359 361
f 290 361 291
f 291 362 292
f 291 361 363
f 291 363 431
f 291 431 364
f 291 364 362
f 292 362 293
f 293 362 365
f 293 365 294
f 294 366 295
f 294 365 367
f 294 367 435
f 294 435 366
f 299 302 303
f 300 309 368
f 300 368 369
f 300 369 301
f 301 369 370
f 301 370 446
f 301 446 371
f 301 371 372
f 301 372 302
f 302 372 303
f 303 372 304
f 304 373 307
f 304 307 306
f 304 306 305
f 304 372 371
f 304 371 374
f 304 374 375
f 304 375 373
f 307 373 376
f 307 376 377
f 307 377 378
f 307 378 379
f 307 379 380
f 307 380 381
f 307 381 382
f 307 382 310
f 307 310 308
f 310 382 383
f 310 383 384
f 310 384 385
f 310 385 311
f 311 385 386
f 311 386 387
f 311 387 312
f 312 387 463
f 312 463 388
f 312 388 389
f 312 389 313
f 313 389 390
f 313 390 314
f 314 390 315
f 315 390 316
f 316 390 391
f 316 391 392
f 316 392 317
f 318 333 352
f 318 352 319
f 319 352 320
f 321 351 322
f 324 328 393
f 324 393 325
f 325 393 394
f 325 394 395
f 325 395 396
f 325 396 329
f 327 397 328
f 328 397 394
f 328 394 393
f 329 396 398
f 329 398 344
f 330 338 334
f 331 337 399
f 331 399 356
f 331 356 400
f 331 400 353
f 331 353 332
f 334 338 401
f 334 401 335
f 335 401 336
f 336 402 403
f 336 403 404
f 336 404 399
f 336 399 337
f 336 401 402
f 338 341 401
f 339 343 405
f 339 405 340
f 340 405 406
f 340 406 341
f 341 406 407
f 341 407 401
f 342 408 409
f 342 409 343
f 342 350 408
f 343 409 410
f 343 410 411
f 343 411 405
f 344 398 412
f 344 412 345
f 345 412 346
f 346 412 398
f 346 398 413
f 346 413 348
f 346 348 347
f 348 414 415
f 348 415 416
f 348 416 417
f 348 417 349
f 348 413 418
f 348 418 419
f 348 419 420
f 348 420 421
f 348 421 422
f 348 422 414
f 349 417 350
f 350 417 408
f 353 400 356
f 353 356 355
f 353 355 354
f 356 399 357
f 357 399 403
f 357 403 423
f 357 423 358
f 358 423 403
f 358 403 424
f 358 424 425
f 358 425 359
f 359 425 426
f 359 426 363
f 359 363 361
f 362 364 427
f 362 427 428
f 362 428 365
f 363 426 429
f 363 429 430
f 363 430 431
f 364 431 432
f 364 432 433
f 364 433 434
f 364 434 427
f 365 428 367
f 367 428 436
f 367 436 437
f 367 437 438
f 367 438 439
f 367 439 504
f 367 504 435
f 368 440 369
f 369 440 508
f 369 508 441
f 369 441 370
f 370 441 442
f 370 442 443
f 370 443 444
f 370 444 445
f 370 445 446
f 371 446 447
f 371 447 374
f 373 375 448
f 373 448 449
f 373 449 376
f 374 447 450
f 374 450 375
f 375 450 448
f 376 449 377
f 377 451 378
f 377 449 451
f 378 451 452
f 378 452 453
f 378 453 379
f 379 453 380
f 380 453 454
f 380 454 381
f 381 454 382
f 382 454 455
f 382 455 383
f 383 455 456
f 383 456 457
f 383 457 384
f 384 457 458
f 384 458 459
f 384 459 460
f 384 460 461
f 384 461 385
f 385 461 386
f 386 461 460
f 386 460 462
f 386 462 387
f 387 462 463
f 388 463 535
f 388 535 464
f 388 464 465
f 388 465 389
f 389 465 466
f 389 466 390
f 390 466 391
f 391 466 467
f 391 467 468
f 391 468 469
f 391 469 392
f 394 397 470
f 394 470 471
f 394 471 472
f 394 472 395
f 395 472 473
f 395 473 474
f 395 474 475
f 395 475 476
f 395 476 396
f 396 476 477
f 396 477 478
f 396 478 479
f 396 479 480
f 396 480 398
f 398 480 481
f 398 481 413
f 399 404 403
f 401 407 482
f 401 482 402
f 402 482 483
f 402 483 403
f 403 483 424
f 405 411 484
f 405 484 406
f 406 484 407
f 407 484 485
f 407 485 482
f 408 417 486
f 408 486 409
f 409 486 410
f 410 486 415
f 410 415 487
f 410 487 411
f 411 487 488
f 411 488 485
f 411 485 484
f 413 481 479
f 413 479 489
f 413 489 418
f 414 490 415
f 414 422 490
f 415 486 417
f 415 417 416
f 415 490 487
f 418 489 419
f 419 489 491
f 419 491 492
f 419 492 493
f 419 493 420
f 420 493 494
f 420 494 421
f 421 494 495
f 421 495 422
f 422 495 496
f 422 496 490
f 424 483 425
f 425 483 426
f 426 483 429
f 427 434 428
f 428 434 497
f 428 497 436
f 429 483 498
f 429 498 430
f 430 498 499
f 430 499 431
f 431 499 500
f 431 500 432
f 432 500 501
f 432 501 433
f 433 501 502
f 433 502 503
f 433 503 434
f 434 437 497
f 434 503 438
f 434 438 437
f 436 497 437
f 438 503 576
f 438 576 505
f 438 505 506
f 438 506 507
f 438 507 439
f 439 507 577
f 439 577 504
f 441 508 509
f 441 509 442
f 442 509 510
f 442 510 511
f 442 511 443
f 443 511 583
f 443 583 512
f 443 512 513
f 443 513 444
f 444 513 514
f 444 514 445
f 445 514 515
f 445 515 516
f 445 516 446
f 446 516 517
f 446 517 447
f 447 517 450
f 448 450 518
f 448 518 519
f 448 519 520
f 448 520 449
f 449 520 521
f 449 521 451
f 450 517 522
f 450 522 518
f 451 521 520
f 451 520 523
f 451 523 452
f 452 523 524
f 452 524 525
f 452 525 526
f 452 526 453
f 453 526 527
f 453 527 454
f 454 527 455
f 455 527 456
f 456 528 529
f 456 529 457
f 456 527 530
f 456 530 531
f 456 531 528
f 457 529 458
f 458 529 532
f 458 532 459
f 459 532 460
f 460 532 533
f 460 533 462
f 462 533 534
f 462 534 463
f 463 534 535
f 464 535 536
f 464 536 537
f 464 537 538
f 464 538 465
f 465 538 539
f 465 539 540
f 465 540 466
f 466 540 541
f 466 541 467
f 467 541 542
f 467 542 543
f 467 543 544
f 467 544 545
f 467 545 468
f 471 546 473
f 471 473 472
f 473 546 547
f 473 547 474
f 474 548 475
f 474 547 549
f 474 549 543
f 474 543 550
f 474 550 548
f 475 548 476
f 476 548 551
f 476 551 552
f 476 552 477
f 477 552 478
f 478 552 553
f 478 553 539
f 478 539 554
f 478 554 491
f 478 491 479
f 479 481 480
f 479 491 489
f 482 498 483
f 482 485 555
f 482 555 556
f 482 556 498
f 485 488 555
f 487 490 557
f 487 557 558
f 487 558 559
f 487 559 488
f 488 559 560
f 488 560 561
f 488 561 555
f 490 496 557
f 491 562 492
f 491 554 563
f 491 563 562
f 492 562 564
f 492 564 494
f 492 494 493
f 494 564 565
f 494 565 566
f 494 566 495
f 495 567 496
f 495 566 568
f 495 568 569
f 495 569 567
f 496 567 570
f 496 570 571
f 496 571 557
f 498 556 572
f 498 572 499
f 499 572 500
f 500 572 573
f 500 573 574
f 500 574 501
f 501 574 502
f 502 574 575
f 502 575 503
f 503 575 576
f 505 578 506
f 505 576 579
f 505 579 580
f 505 580 581
f 505 581 578
f 506 578 632
f 506 632 582
f 506 582 577
f 506 577 507
f 512 583 584
f 512 584 585
f 512 585 586
f 512 586 587
f 512 587 513
f 513 587 588
f 513 588 514
f 514 588 589
f 514 589 590
f 514 590 515
f 515 590 516
f 516 591 522
f 516 522 517
f 516 590 591
f 518 522 591
f 518 591 592
f 518 592 593
f 518 593 519
f 519 593 594
f 519 594 595
f 519 595 596
f 519 596 524
f 519 524 520
f 520 524 523
f 524 596 597
f 524 597 525
f 525 597 526
f 526 597 598
f 526 598 599
f 526 599 527
f 527 599 530
f 528 531 529
f 529 531 532
f 530 600 531
f 530 599 601
f 530 601 602
f 530 602 603
f 530 603 600
f 531 600 604
f 531 604 605
f 531 605 532
f 532 605 533
f 533 605 606
f 533 606 607
f 533 607 608
f 533 608 534
f 534 608 537
f 534 537 536
f 534 536 535
f 537 608 554
f 537 554 539
f 537 539 538
f 539 553 540
f 540 553 541
f 541 553 542
f 542 553 609
f 542 609 550
f 542 550 543
f 543 549 610
f 543 610 611
f 543 611 545
f 543 545 544
f 548 612 551
f 548 550 612
f 550 609 612
f 551 612 552
f 552 612 553
f 553 612 609
f 554 608 607
f 554 607 563
f 555 561 560
f 555 560 613
f 555 613 614
f 555 614 556
f 556 614 572
f 557 571 615
f 557 615 558
f 558 616 617
f 558 617 559
f 558 615 618
f 558 618 619
f 558 619 616
f 559 617 620
f 559 620 560
f 560 620 613
f 562 563 565
f 562 565 564
f 563 607 565
f 565 607 566
f 566 607 606
f 566 606 568
f 567 621 570
f 567 569 621
f 568 606 622
f 568 622 602
f 568 602 569
f 569 602 623
f 569 623 624
f 569 624 625
f 569 625 626
f 569 626 621
f 570 627 571
f 570 621 626
f 570 626 625
f 570 625 627
f 571 627 615
f 572 614 613
f 572 613 573
f 573 613 628
f 573 628 574
f 574 628 629
f 574 629 630
f 574 630 575
f 575 630 576
f 576 630 631
f 576 631 579
f 578 581 633
f 578 633 632
f 579 631 634
f 579 634 635
f 579 635 580
f 580 635 636
f 580 636 586
f 580 586 585
f 580 585 637
f 580 637 581
f 581 638 633
f 581 637 659
f 581 659 638
f 584 639 585
f 585 639 640
f 585 640 637
f 586 636 635
f 586 635 641
f 586 641 587
f 587 641 588
f 588 641 589
f 589 641 642
f 589 642 590
f 590 643 644
f 590 644 645
f 590 645 591
f 590 642 634
f 590 634 646
f 590 646 647
f 590 647 648
f 590 648 649
f 590 649 643
f 591 645 644
f 591 644 592
f 592 644 593
f 593 644 650
f 593 650 651
f 593 651 594
f 594 651 652
f 594 652 625
f 594 625 653
f 594 653 654
f 594 654 595
f 595 598 597
f 595 597 596
f 595 654 598
f 598 654 599
f 599 654 623
f 599 623 601
f 600 603 622
f 600 622 604
f 601 623 602
f 602 622 603
f 604 622 605
f 605 622 606
f 613 620 628
f 615 627 625
f 615 625 618
f 616 655 620
f 616 620 617
f 616 619 655
f 618 625 652
f 618 652 619
f 619 656 655
f 619 652 656
f 620 655 628
f 623 654 653
f 623 653 624
f 624 653 625
f 628 655 657
f 628 657 658
f 628 658 629
f 629 658 631
f 629 631 630
f 631 658 634
f 634 658 646
f 634 642 635
f 635 642 641
f 637 640 659
f 643 649 651
f 643 651 650
f 643 650 644
f 646 658 657
f 646 657 660
f 646 660 647
f 647 660 648
f 648 660 649
f 649 660 656
f 649 656 652
f 649 652 651
f 655 656 657
f 656 660 657

