# https://github.com/mikedh/trimesh
v 53.03612423 26.15437397 31.88903585
v 53.03612423 31.54733168 31.88903585
v 52.37625216 26.51548387 31.88903585
v 53.03612423 26.27671732 31.49608501
v 40.10967717 46.31333750 31.88903585
v 53.03612423 46.31333750 15.62497188
v 52.30586611 26.55494798 31.88903585
v 53.02732630 26.47601720 30.90208884
v 52.85488036 26.38130027 31.48237720
v 53.03612423 26.47009707 30.90894275
v 35.05945974 46.31333750 31.88903585
v 53.03612423 46.31333750 8.54956635
v 52.20380750 26.61809260 31.88903585
v 51.73925600 27.06799930 31.40470089
v 51.95921336 27.20810303 30.61879857
v 52.42376358 26.62598696 31.48237720
v 53.03612423 26.63387875 30.42460714
v 35.43954593 45.47666872 31.88903585
v 35.06473722 46.31333750 31.87075877
v 53.03612423 45.79634028 8.79858966
v 53.03260506 46.25808467 8.57698197
v 51.51226030 46.31333750 9.47711413
v 51.47354939 27.07786532 31.88903585
v 51.25183116 27.29689983 31.64229910
v 51.39788329 27.39358842 31.06658001
v 52.71762744 26.75425043 30.61651393
v 51.52809786 27.47252177 30.61879857
v 51.83955631 27.60078524 29.73008894
v 52.14045981 27.32057778 29.99967205
v 52.63316341 27.11930366 29.73008894
v 53.03612423 26.72859568 30.15502468
v 35.62430898 45.07017458 31.88903585
v 35.88649899 45.54770770 30.25554670
v 35.84778551 44.60053583 31.85476697
v 35.28997462 46.31333750 31.15339487
v 53.03612423 45.10174689 9.15041707
v 52.72290491 45.13331920 9.32861476
v 52.22316425 45.46482974 9.47026086
v 51.59672561 45.93052131 9.62332821
v 51.44011595 46.31333750 9.52280683
v 51.19200263 27.25743316 31.88903585
v 49.70861305 28.23815156 31.88903585
v 50.96148775 27.56921293 31.40470089
v 50.39135847 28.15922079 30.78100510
v 50.53741061 28.25788362 30.20757065
v 51.09346320 28.05858373 29.75750457
v 50.21187289 28.04082334 31.48237720
v 53.03612423 26.87461954 29.74379676
v 51.27118790 28.17500694 29.14751595
v 52.31114616 27.42516330 29.42395296
v 35.84250804 44.59066981 31.88903585
v 36.30529609 45.06820164 29.75750457
v 36.74872998 43.81714565 30.25326271
v 36.48126249 44.14470900 30.57082187
v 36.02023274 45.07214882 30.57310650
v 36.10997552 44.27099824 31.53492317
v 36.05366617 44.15852221 31.88903585
v 35.45890010 46.31333750 30.61879857
v 35.62430898 46.31333750 30.11161725
v 35.76684194 46.12390364 29.91514183
v 35.88121895 46.31333750 29.38283017
v 35.96040421 45.87329682 29.67982761
v 36.23667092 45.93052131 28.89392593
v 36.68538228 45.40760397 28.35476036
v 36.81911603 44.83140803 28.70658841
v 53.03612423 44.54923147 9.44056125
v 52.24955676 43.77176141 10.34983066
v 52.46247577 44.88863380 9.62332821
v 51.44539343 44.70709302 10.38867010
v 51.21839772 45.28131473 10.23331748
v 50.64299096 45.65821078 10.43207753
v 49.66461952 45.50034923 11.21340994
v 50.43534943 46.23243249 10.28357817
v 50.40895691 46.31333750 10.26530108
v 49.67693792 28.25985785 31.88903585
v 49.39363286 28.91893046 30.61879857
v 49.55903917 29.03732791 29.99281814
v 50.03942824 28.79658712 29.72551967
v 50.66234770 28.34273452 29.75750457
v 49.78075740 28.33089426 31.48237720
v 52.92174723 27.27124765 28.89392593
v 53.03612423 27.11930366 29.11324706
v 50.30161568 28.95050277 28.89392593
v 50.97380615 28.49467594 28.87336421
v 51.46650847 28.29932195 28.57408149
v 52.08590876 28.14738053 28.03263193
v 52.48887086 27.53369215 28.89392593
v 36.71177737 44.60448173 29.28002287
v 36.62379546 44.42886108 29.75750457
v 36.88422460 43.34158677 30.57082187
v 36.65546802 43.62771179 30.82669716
v 36.84023364 43.99671348 29.75750457
v 37.17632887 43.34356100 29.75750457
v 36.31937279 43.63165768 31.88903585
v 36.79800099 43.05151585 31.28818642
v 35.71757094 46.31333750 29.83975015
v 36.07126204 46.31333750 28.89392593
v 36.39151971 46.31333750 28.07603936
v 36.56396693 45.94038862 28.05319301
v 36.79975929 45.65821078 27.77904127
v 36.94581142 45.09977395 28.05319301
v 37.39100619 44.19404170 28.04405447
v 37.00212078 44.27297248 28.95332516
v 53.03612423 44.09340464 9.69415126
v 53.03612423 43.40670562 10.08253283
v 52.75809922 43.42841190 10.23788546
v 53.03612423 42.92522661 10.35896920
v 52.52054600 43.19753842 10.52574565
v 52.08766963 42.73776570 11.09918010
v 51.51226030 43.05349008 11.30022479
v 51.26766872 43.62771179 11.12659573
v 50.45822534 44.55317737 11.16543388
v 50.94213101 45.02479035 10.56686780
v 50.25938303 45.06820164 11.02378842
v 49.82826753 45.06820164 11.33449368
v 49.22294651 45.08990792 11.79141366
v 48.73024162 45.39181781 12.01758934
v 48.55251692 45.93052131 11.87594388
v 49.20710894 45.84567169 11.39846282
v 48.99418993 46.31333750 11.32535578
v 49.16663716 46.31333750 11.19056423
v 49.47633730 46.07457094 11.07176512
v 49.93736706 46.31333750 10.61256050
v 49.63470526 28.28945592 31.88903585
v 48.83406110 29.13796239 31.11684070
v 48.96251737 29.22873600 30.61879857
v 49.16663716 28.78474943 31.43668450
v 49.25637994 29.35897113 29.72551967
v 49.71389053 29.14980265 29.41709905
v 53.03612423 27.38372239 28.45985166
v 53.03612423 27.34031240 28.56494359
v 53.03612423 27.20020867 28.90534847
v 49.87050019 29.26227997 28.89392593
v 49.66461952 29.97660541 27.60084229
v 50.46350539 29.06692598 28.36161427
v 50.65178761 29.19716112 27.78589518
v 50.94741106 28.87749212 28.05776228
v 51.22719694 29.00575560 27.36552872
v 51.83251796 28.68805826 27.18732974
v 52.24076011 28.24407169 27.58256585
v 52.75281918 27.71325999 28.09203116
v 53.03612423 27.42121740 28.37075217
v 37.35581188 42.43980170 30.60966003
v 37.49482567 42.74368454 29.75750457
v 37.54057750 43.68296333 28.33876792
v 37.46139223 43.37513331 28.96931761
v 37.58281015 42.89957443 29.30743849
v 36.46894667 43.34158677 31.88903585
v 36.99508243 42.55227773 31.53949244
v 36.71353824 42.88576122 31.86390551
v 36.60268042 46.31333750 27.54601169
v 36.66954729 46.23243249 27.46376610
v 37.35757275 45.04254817 27.14392231
v 37.50538319 44.47227236 27.41579005
v 37.65671537 43.89805065 27.76304883
v 53.03612423 42.83248263 10.41836972
v 52.72994455 42.52859850 10.81132056
v 52.36393634 42.16156976 11.28880226
v 52.21964250 41.15520045 12.05414286
v 51.37148821 42.03133334 12.06328140
v 50.73977209 42.48124004 12.22548794
v 50.54092978 42.92917250 12.08612711
v 50.69402027 43.97895438 11.33677831
v 50.09397672 44.20588196 11.64291494
v 49.50449069 44.43083402 11.95133556
v 48.92908393 44.81759611 12.17979588
v 48.12140142 45.93052131 12.23005721
v 47.99822520 46.31333750 12.12496527
v 48.08444624 46.31333750 12.05414286
v 48.36951217 45.06622869 12.50649358
v 47.81522045 45.31486127 12.83319128
v 47.05504807 46.31333750 12.91086759
v 48.45397491 46.31333750 11.75714478
v 49.38835282 46.31333750 11.02150379
v 48.88685128 28.83407955 31.88903585
v 48.70208823 29.03535367 31.69255979
v 48.01757937 30.03777579 30.35835400
v 48.60178792 29.82466399 29.75750457
v 48.74431831 29.93319284 29.22976153
v 49.21590816 29.72402693 28.92362555
v 48.91852384 30.06343055 28.65404244
v 49.21590816 30.16209337 27.94581708
v 48.54723687 30.63962391 28.03263193
v 48.71968410 30.77380752 27.46833538
v 49.20534807 30.53701519 27.17590720
v 49.80187501 30.07921413 27.16905330
v 50.23474881 29.76743950 27.16905330
v 50.94741106 29.30569254 27.11422269
v 51.42603668 29.13796239 26.78980963
v 52.44487990 28.37233517 27.00913140
v 52.71234739 28.10199373 27.24444497
v 53.03612423 27.76653858 27.57571195
v 37.63559776 42.12605027 30.31494658
v 37.53529745 41.95634846 30.89066567
v 37.90306782 42.56017081 28.96931761
v 38.42920358 42.00765410 28.40730569
v 37.73765894 42.31351246 29.75750457
v 37.69718716 43.10874034 28.73171940
v 36.69418150 42.90944045 31.88903585
v 37.44203549 41.79256678 31.48237720
v 37.38396784 41.67417190 31.88903585
v 36.94581142 42.45361362 31.88903585
v 36.71001907 42.87984109 31.88903585
v 36.65194885 46.31333750 27.42264331
v 36.84199194 46.31333750 26.98628505
v 36.92997643 45.94038862 27.17362257
v 36.97396739 46.31333750 26.69157159
v 37.50186401 45.31288704 26.54535751
v 37.63911693 44.73866533 26.84007096
v 38.49783132 43.86253116 25.97192305
v 38.36409758 43.61587153 26.54764214
v 38.23036383 43.33369497 27.17590720
v 38.39225097 42.80485750 27.46833538
v 38.55414067 42.22866156 27.83158724
v 53.03612423 41.67811780 11.16314925
v 52.93934310 41.87149755 11.09918010
v 53.03612423 41.39988586 11.34363222
v 52.66483726 41.59721279 11.46014669
v 51.02307715 41.68403793 12.55218564
v 51.64423574 41.45513740 12.26204146
v 52.74754170 40.82171697 11.91935131
v 53.03612423 40.35997001 12.03358115
v 52.50294756 40.57900451 12.25975682
v 51.25183116 41.04666903 12.83776055
v 50.40367686 41.91293718 12.84232982
v 50.10805341 42.51675824 12.68012329
v 49.73148640 43.85661232 12.12724991
v 50.30513486 43.50339550 11.91249741
v 49.22294651 44.16838952 12.33971777
v 48.79535019 43.76781423 12.93371395
v 48.63346048 44.20588196 12.79663776
v 47.87152980 43.68691051 13.74246198
v 48.00878272 44.74063828 12.99768245
v 47.04976802 46.31333750 12.91543686
v 48.65985557 29.00180713 31.88903585
v 48.52964100 29.10244419 31.88903585
v 47.76418857 29.83847591 31.48237720
v 48.39590726 29.36291703 31.43668450
v 47.88736480 29.93516707 30.93407309
v 47.33307308 30.18379966 31.48237720
v 46.80869562 30.61397173 31.48237720
v 46.96354441 30.74223521 30.80156618
v 47.09375898 30.85273829 30.22584709
v 47.64277322 30.58831955 29.75750457
v 48.17066985 30.15814748 29.75750457
v 47.81522045 30.73236918 29.09268599
v 47.97006924 30.86260432 28.51696690
v 48.11612137 30.97705587 28.03263193
v 47.78354532 31.57298386 27.34496700
v 48.33959791 31.24344627 27.11879196
v 48.89916967 30.91390868 26.89261628
v 49.47457643 30.68895661 26.46311192
v 50.42303360 29.90359476 26.59790348
v 51.61080230 29.26030831 26.30775930
v 52.22316425 29.09257816 25.83713150
v 52.04191780 28.97418329 26.30775930
v 52.71234739 28.53414261 26.32146647
v 53.02028795 28.19473900 26.61846455
v 53.03612423 28.18881887 26.61161065
v 37.81860251 41.64851844 30.60966003
v 38.33418331 41.84979256 28.89392593
v 38.18461200 41.56958766 29.73237358
v 38.38345432 41.07232121 30.00195668
v 38.45735954 40.33234359 31.06429473
v 37.69542628 41.36042047 31.48237720
v 37.62679854 41.24794315 31.88903585
v 38.76881798 41.68009075 28.08517726
v 39.20345265 41.01509672 28.03263193
v 38.59285158 41.41764496 28.89392593
v 37.37164944 46.31333750 25.82570832
v 37.50186401 46.17126210 25.68177887
v 37.35229270 45.90289618 26.27805904
v 37.63559776 45.59506616 25.97192305
v 37.75877398 45.04254817 26.27805904
v 38.18461200 45.02873625 25.40534218
v 38.35353748 44.43872710 25.66807106
v 38.61572750 44.17233542 25.40534218
v 39.21401017 43.59416653 24.82962309
v 39.06092226 43.32185471 25.43047285
v 38.64564176 43.33369497 26.27805904
v 38.52422641 43.03967559 26.89490092
v 38.70019024 42.50294632 27.17590720
v 39.26680035 41.96621577 26.63445700
v 39.16650004 41.65443857 27.23987570
v 39.30375553 41.16901238 27.57571195
v 53.03612423 40.31261154 12.06785068
v 52.11230384 40.18829654 12.83547591
v 51.53689708 40.47244733 13.04794378
v 50.67642440 41.33674124 13.05251305
v 50.31217320 40.95590057 13.62823214
v 50.06934250 41.58932100 13.35179513
v 48.81118518 41.19861174 14.67229375
v 49.82826753 42.25233951 13.07535876
v 49.59599435 42.82656378 12.88345261
v 49.27749499 43.42446472 12.76236887
v 48.67745144 42.75947070 13.69676991
v 48.10204468 43.11071457 13.94579130
v 48.00702185 42.13394463 14.72483972
v 47.78178701 42.71014057 14.51922576
v 47.20637768 43.08703405 14.78423895
v 46.99697785 43.66322999 14.58776353
v 47.26444534 44.20588196 13.98006019
v 47.10607737 44.68341250 13.82927683
v 47.69556340 44.20588196 13.58482471
v 46.34766587 45.70951514 13.92522959
v 46.13298599 46.31333750 13.76987696
v 47.64277322 29.79506334 31.88903585
v 47.41753582 29.97265951 31.88903585
v 47.24333029 30.11078644 31.88903585
v 47.03393046 30.28246248 31.88903585
v 46.74006788 30.52517493 31.88903585
v 46.39341513 30.81327419 31.88903585
v 46.28783734 30.90207099 31.88903585
v 46.37758013 30.97705587 31.48237720
v 46.66440436 31.08755895 30.55711406
v 46.17697694 31.66967502 30.11618652
v 46.62569088 31.42893423 29.79862736
v 46.32654825 31.79793592 29.54046743
v 46.92835267 31.57495809 28.89392593
v 47.05504807 31.68151271 28.42101350
v 47.50024026 31.45458641 28.09203116
v 47.20813856 31.81569631 27.84529441
v 47.50024026 31.94001132 27.10279952
v 47.95951172 31.71703349 26.76924791
v 49.20534807 31.02836023 26.22779835
v 49.67341874 30.84484650 25.88739283
v 50.04822489 30.37323351 26.24379015
v 50.64474926 30.05750785 26.02218439
v 52.72466579 28.95247700 25.50814916
v 51.22015859 29.86215643 25.66121716
v 51.44715430 30.01606951 25.08549839
v 52.02256106 29.82071809 24.72681611
v 52.25307594 29.97660541 24.15109702
v 52.46599495 29.24649382 25.26369705
v 53.03612423 28.41771940 26.15925993
v 38.53478393 40.46060707 30.61879857
v 38.49079297 41.24991738 29.42623759
v 38.66851767 40.77435850 29.73237358
v 38.97645695 39.80745459 30.53655298
v 39.21577104 39.32005545 30.76729729
v 38.62804589 39.89625139 31.40470089
v 38.36233670 40.18632230 31.64001382
v 38.14414022 40.40732847 31.88903585
v 37.94705878 40.72700004 31.88903585
v 37.69542628 41.13546840 31.88903585
v 39.94250999 39.88046523 28.05547764
v 39.36710066 40.40141091 28.58322003
v 39.03980464 40.71515978 28.88021812
v 39.12602826 40.03043499 29.75750457
v 37.66727289 46.31333750 25.19059000
v 37.75349394 45.90289618 25.41448072
v 38.34826001 45.28920909 24.81363097
v 38.49255127 44.71498481 25.09463661
v 39.05212304 44.18812157 24.55775599
v 39.37589988 43.88818463 24.25618864
v 39.96538590 43.36329305 23.73758479
v 39.52195201 43.32185471 24.55775599
v 39.37766075 43.01994354 25.13347508
v 39.23336691 42.77328519 25.70919385
v 39.10667152 42.48321299 26.33060501
v 39.59937641 41.65443857 26.33060501
v 39.43924757 41.39199278 26.99999286
v 40.06920538 40.16067012 27.36324408
v 40.26100678 39.58447418 27.78361054
v 40.15190982 41.14533443 25.82799296
v 40.03577195 40.96576660 26.30775930
v 40.20117826 40.35799835 26.78752499
v 53.03612423 40.24749526 12.11811137
v 51.43659678 39.50751764 13.83613074
v 50.58140156 40.38167629 13.84526864
v 50.05350493 40.70331952 14.02803689
v 49.73676644 41.26767649 13.85897645
v 49.44466217 40.75659811 14.48267224
v 49.65054283 40.31063988 14.65173268
v 49.01354667 40.75659811 14.84820810
v 48.74607918 40.26328142 15.47418852
v 48.42406065 40.83158299 15.32111988
v 47.92607828 41.17098661 15.51302668
v 47.74659271 41.61891908 15.34625023
v 48.91324636 42.18524899 13.89552997
v 47.12015407 42.10434398 15.56785664
v 47.45096926 42.40822939 15.04239888
v 46.90019671 42.68053992 15.35995804
v 46.32478995 43.06927624 15.63411042
v 46.37933843 44.20588196 14.82536174
v 46.81045393 44.20588196 14.41184919
v 46.22800882 44.65776032 14.67686302
v 46.03796572 45.23198331 14.50094868
v 45.46255639 45.68780886 14.77053178
v 45.29538921 46.26203185 14.60832525
v 45.28307082 46.31333750 14.59461744
v 46.16818029 31.00665394 31.88903585
v 46.06787999 31.57100962 30.61879857
v 45.63676192 31.96171760 30.61879857
v 45.29363091 32.50634123 30.06364055
v 45.80393167 32.15312569 29.80091199
v 46.01508981 32.38202623 28.89392593
v 46.49723461 31.95185158 28.89392593
v 46.31247156 32.65236509 27.78132591
v 46.91955345 32.41951866 27.16905330
v 46.68375853 32.16299172 28.10116970
v 47.05680637 32.54383367 26.70299477
v 47.51959700 32.32677340 26.37172780
v 47.09903903 33.44562130 25.04666023
v 47.81522045 32.45898277 25.69548668
v 48.37479221 32.13339364 25.44874961
v 48.93436141 31.80780195 25.20429749
v 48.73552166 31.64796874 25.77773227
v 49.22646568 31.42696257 25.47159564
v 50.27346229 30.65146417 25.44418034
v 49.50977074 31.57890399 24.79763884
v 49.71916800 31.74268567 24.22191975
v 50.46702456 30.79551380 24.93471471
v 50.97028697 30.61002584 24.62172450
v 50.94213101 30.19366568 25.40077323
v 53.03612423 29.06495175 24.93928398
v 53.03612423 28.59728723 25.81657043
v 51.76917026 30.11868080 24.49607181
v 51.26590785 30.75012957 24.00488294
v 51.80788375 30.54490699 23.71702339
v 52.08766963 30.72447482 23.11388900
v 52.45895660 30.10684054 23.71930770
v 53.03612423 29.98055130 23.31950296
v 53.03612423 29.74573321 23.72387697
v 53.03612423 29.61944397 23.94548306
v 53.03612423 29.34515664 24.42981835
v 39.31783222 39.46410507 30.19157820
v 39.39701492 38.71031296 31.48237720
v 39.32487057 38.61165014 31.88903585
v 39.30199466 38.64519668 31.88903585
v 39.09963317 39.14246185 31.48237720
v 38.32186492 40.12712358 31.88903585
v 40.13255308 39.39306609 28.35932963
v 39.56418467 39.91598344 28.88021812
v 39.24568531 40.21789461 29.15893912
v 37.78516907 46.31333750 24.95299147
v 38.18637030 45.90289618 24.54861745
v 38.50135049 45.59506616 24.23791188
v 38.62276584 45.02873625 24.54861745
v 39.06796060 45.06228151 23.70560021
v 39.22457026 44.46240633 23.98660585
v 39.38469910 44.76826341 23.41088676
v 39.52899036 44.18812157 23.70560021
v 39.97770430 44.23350709 22.87857526
v 40.11671552 43.66520423 23.18242709
v 40.27684435 43.09098123 23.46114810
v 40.11319634 42.80485750 24.03686719
v 39.97594342 42.50294632 24.61715555
v 40.13079478 41.97213461 24.92786112
v 40.37538635 39.88046523 27.11193806
v 41.03701673 38.59389232 27.59170375
v 40.48800506 39.07536876 28.05547764
v 40.61293958 40.75857235 25.44874961
v 40.91560138 40.15080410 25.64750999
v 40.31731613 40.53559195 26.30775930
v 40.31027778 41.39791291 25.25227419
v 40.88568712 40.94800621 24.74052392
v 40.76778837 39.87651934 26.31689719
v 53.03612423 39.32992147 12.84004519
v 52.66131809 39.01025248 13.35407977
v 52.41672523 39.61210060 13.05479769
v 52.01024524 39.24507057 13.63051678
v 52.33050290 38.66887463 13.85897645
v 51.76213192 38.98657196 14.01889835
v 51.36972990 38.58205206 14.64944804
v 51.03363467 39.10102351 14.48952614
v 50.50045800 39.43450443 14.64259413
v 50.90517840 39.83310677 14.00747517
v 50.16612364 39.97123627 14.49637941
v 49.59599435 39.39109443 15.46733461
v 49.87578023 38.81489849 15.70950210
v 49.54848422 38.47746911 16.28522119
v 48.97307489 38.78135195 16.55023470
v 48.70560740 39.35754789 16.29892868
v 48.13019807 39.66932509 16.57079610
v 47.86976893 40.24552103 16.31949007
v 48.17066985 40.59479067 15.74605562
v 47.60933979 40.88091569 16.05904615
v 47.06032555 41.16704071 16.37203572
v 46.25440391 42.10039809 16.43143559
v 46.57641987 42.39046900 15.88770043
v 46.04148490 42.67462108 16.20754455
v 45.79689075 43.36723895 15.97223130
v 45.51006652 44.20588196 15.69122566
v 46.12770851 43.64547218 15.44220363
v 45.94118459 44.20588196 15.25715138
v 45.70010962 44.94191240 15.01269926
v 45.18101221 45.22803613 15.34625023
v 44.60560288 45.70951514 15.65695613
v 44.95049733 45.98577414 15.12692910
v 44.44547404 46.28373813 15.48104178
v 44.85723537 46.31333750 15.03554497
v 45.24084073 46.31333750 14.63802486
v 45.43792218 31.67362092 31.88903585
v 45.45903722 31.79991016 31.48237720
v 45.89015271 31.40722795 31.48237720
v 45.17573216 32.39386391 30.61879857
v 44.74285580 32.81417254 30.61879857
v 44.42787818 33.36471630 30.05678665
v 44.92762142 33.00163473 29.77349637
v 45.43088383 32.63855060 29.48792146
v 46.15762277 32.51226136 28.35704500
v 45.58397431 32.77865433 28.89392593
v 45.42032631 33.49100554 27.73106458
v 46.48667709 32.81417254 27.16905330
v 46.01684811 33.24631885 27.16905330
v 46.16993859 33.38444835 26.66644125
v 46.92131433 33.28183706 25.62237900
v 48.63346048 32.42149033 24.58060170
v 48.01406019 32.62671034 25.11976727
v 46.34590499 33.55020426 26.09072216
v 46.04676237 34.12640020 25.60410256
v 46.22448964 34.29807367 25.02838347
v 46.80517645 34.02576314 24.58060170
v 46.99170037 34.20730264 24.03458255
v 47.26796708 33.59558849 24.58060170
v 47.88384562 33.37655656 24.07798998
v 48.79007014 32.55369970 24.13510490
v 49.22646568 31.95777171 24.53719460
v 50.09221585 31.26909845 24.57831739
v 49.27925586 32.37610610 23.79698434
v 49.59599435 32.50831546 23.20755744
v 50.04294741 31.87292080 23.64620066
v 50.54620726 31.71505925 23.30807978
v 50.29457733 31.53154552 23.88379887
v 50.69225939 30.95732125 24.36128025
v 51.51226030 30.92772317 23.42916385
v 51.80788375 31.10334511 22.83745247
v 51.64951579 31.87884093 21.83451333
v 52.36569464 30.91390868 22.53816991
v 52.73346372 30.43637813 22.90599040
v 53.03612423 30.05159029 23.20755744
v 39.40757501 39.60026034 29.75750457
v 40.01817608 39.23323031 28.89392593
v 40.31907700 38.80108400 28.89392593
v 40.21525752 38.64914258 29.41709905
v 40.10087795 38.49325269 29.99281814
v 40.29620109 37.89929893 30.61879857
v 39.98298177 38.33144525 30.61879857
v 39.85100890 38.10254472 31.43896978
v 40.10087795 37.63488020 31.69941434
v 39.90379651 37.81642226 31.88903585
v 38.83392655 39.35162776 31.88903585
v 38.22156461 46.31333750 24.12596668
v 38.35881753 46.17126210 23.98660585
v 39.23512778 45.34445935 23.14587325
v 39.54658623 45.06228151 22.85801386
v 40.12375386 44.53936416 22.33712522
v 40.28740187 43.96316822 22.60670784
v 40.46688744 43.36329305 22.87857526
v 41.02645921 42.88970840 22.40337852
v 40.91032133 42.55425068 22.92883643
v 41.02645921 42.02738744 23.26467268
v 40.29092361 42.23063451 24.35214203
v 41.97843555 37.83418008 26.89033165
v 41.83766089 37.65461225 27.46605074
v 41.27281165 38.02953407 28.03263193
v 40.93495812 38.46168038 28.03263193
v 40.97542990 39.37333404 26.61161065
v 41.44173971 38.98854619 26.24835942
v 41.90804694 38.60573001 25.88282356
v 42.08225504 38.14003715 26.22551371
v 41.07396934 40.37378450 25.07179090
v 41.12500121 39.57658239 26.03589156
v 41.85701763 39.39898622 24.93014544
v 41.04933512 41.20058469 24.16480483
v 53.03612423 38.87804311 13.19872714
v 52.90590966 38.41827038 13.65564712
v 53.03612423 37.92100522 13.97777555
v 52.59269034 38.08873279 14.16282844
v 53.03612423 38.19331575 13.74931588
v 51.33805477 37.69013045 15.48332706
v 51.06706811 38.26632639 15.18404434
v 50.45118699 38.52679924 15.46048071
v 50.79608145 38.86028272 14.88704625
v 51.82020214 38.38866974 14.48038760
v 52.27947103 37.75919520 14.68600156
v 52.23548007 36.85938437 15.51302668
v 49.83882505 37.90324483 16.54338079
v 49.24934160 38.18344972 16.83352497
v 48.67217396 38.46365462 17.12595379
v 47.82577797 39.34176173 17.14423055
v 47.25036864 39.66143330 17.42980546
v 47.00577707 40.23565500 17.17849944
v 47.29436217 40.59084477 16.60506498
v 45.40800791 42.12999745 17.31329099
v 46.20689120 41.17690674 17.24475290
v 45.56109840 41.53998830 17.63313479
v 45.46783644 43.08900829 16.51825013
v 45.27955164 43.66322999 16.31263617
v 45.36225608 44.65184019 15.53815702
v 44.51762096 44.68341250 16.42001242
v 44.34693461 45.25960844 16.23039058
v 43.77328615 45.75884784 16.55251933
v 44.10937881 46.02129235 16.01335344
v 44.43843570 46.31333750 15.47190324
v 43.64659075 46.31333750 16.34690537
v 45.37985195 31.72689951 31.88903585
v 45.29187004 31.80780195 31.88903585
v 44.92234137 32.15115146 31.88903585
v 44.49650592 32.54975380 31.88903585
v 44.60032540 32.67209714 31.32245530
v 43.87534476 33.67254760 30.61879857
v 43.73281437 33.53047221 31.32017003
v 43.57092466 34.22703726 30.06364055
v 44.06538785 33.86395312 29.77349637
v 44.56337279 33.49889990 29.48335219
v 45.13350208 33.21080064 28.89392593
v 45.27427417 33.35090438 28.30678367
v 44.55809275 34.36319252 27.74020312
v 45.14581790 34.08101340 27.16905330
v 45.58573261 33.64886708 27.16905330
v 44.91530302 33.85211544 28.02349339
v 45.29715008 34.23295739 26.64587953
v 45.70187049 34.63945152 25.31395838
v 45.35697861 35.15644873 25.02152956
v 46.37406096 34.44804343 24.58060170
v 46.13122768 35.06765193 24.03001328
v 46.33182830 35.26892605 23.45657883
v 46.90723506 34.98674693 23.05677408
v 47.12015407 35.19196694 22.48333946
v 47.20989686 34.41055099 23.45886346
v 47.78530619 34.14810648 23.08647370
v 47.54599209 33.88960788 23.76956904
v 48.10732215 33.57388221 23.50227089
v 48.68273149 33.32327796 23.13445039
v 49.02058502 32.74708202 23.55938581
v 48.91148549 33.51665772 22.56101594
v 49.48689482 33.28183706 22.21604132
v 49.84410510 32.70564369 22.63183851
v 50.41951186 32.48068905 22.30285617
v 50.11861093 32.31493571 22.89456739
v 51.02307715 32.17877787 22.06754243
v 51.37500738 31.69138131 22.41023226
v 51.17792594 31.54535744 22.85572923
v 51.24655111 32.45306264 21.40729312
v 52.22316425 31.68151271 21.53523077
v 52.66483726 31.08953061 21.97615847
v 53.03612423 30.97508163 21.77739825
v 52.94110397 30.72447482 22.25031036
v 53.03612423 30.68303648 22.22061059
v 40.78362593 38.14793152 28.92362555
v 40.89272546 37.53621737 29.75750457
v 40.42641566 38.19134409 29.72551967
v 41.09860612 36.94818117 30.34236156
v 40.76075002 37.26390427 30.62565183
v 40.20470000 37.77300970 31.12369525
v 40.06920538 37.59344186 31.88903585
v 40.99302577 36.81399757 30.91579601
v 38.33066414 46.31333750 23.92492167
v 38.56645649 46.31333750 23.51140943
v 38.73890372 46.31333750 23.20984207
v 39.10843239 45.95222760 22.85801386
v 39.39877579 45.67991707 22.57243895
v 40.00761599 45.12739907 22.02870428
v 40.15366813 45.45299077 21.52609231
v 40.30851948 44.87876649 21.76369060
v 40.58478619 44.16444234 21.95788171
v 41.49980736 42.52662555 22.03784266
v 41.20770308 42.31351246 22.68895343
v 41.05109342 43.79149347 21.57635356
v 41.81478498 43.62573884 20.57112979
v 41.61770353 43.33961382 21.11943366
v 41.98723220 43.04954290 20.82472029
v 41.79366993 42.73973865 21.39815474
v 41.78135154 41.87149755 22.24802573
v 41.49980736 41.66233164 22.90142129
v 41.79191163 41.02101685 23.11388900
v 41.98547390 40.44482091 23.42230994
v 41.61594523 40.74278619 23.71473875
v 41.17954969 41.39593867 23.71930770
v 42.30925074 37.27771619 27.12107660
v 42.69813358 37.65461225 25.75945519
v 42.55560319 37.47899031 26.30775930
v 42.64182423 36.72125488 27.35182090
v 42.51688970 36.43710409 28.07832399
v 42.04530243 37.05473836 28.03263193
v 41.70392715 37.48491044 28.03263193
v 41.12675952 37.84602034 28.65632708
v 42.03122316 38.77148592 25.44418034
v 42.48169540 38.15977178 25.46017279
v 41.18482974 40.69937362 24.50521003
v 41.81478498 40.19618833 23.99802903
v 41.66873541 39.90217152 24.61715555
v 42.01890734 39.62196662 24.35442635
v 53.03612423 38.37288358 13.60310115
v 53.03612423 37.44741800 14.39585738
v 52.85488036 37.51648275 14.46896442
v 51.66007074 37.11393709 15.74605562
v 51.30814051 36.80215731 16.31949007
v 51.03539297 37.37440736 16.02020799
v 50.76264801 37.95060330 15.72092527
v 50.41423438 37.63685443 16.29664404
v 52.68419400 36.24964189 15.75290952
v 52.21612333 35.98522315 16.36061286
v 51.93809832 36.54365870 16.05219160
v 53.03612423 37.02908618 14.76596251
v 52.68419400 36.68178820 15.34625023
v 50.73273118 37.06065849 16.57308073
v 50.12564928 37.33296902 16.84494783
v 49.52560573 37.60330789 17.11681525
v 48.95019897 37.88745868 17.40010552
v 48.09676463 38.76754003 17.41381333
v 47.53367370 39.05958261 17.70852646
v 46.97938198 39.35162776 18.00552455
v 46.70487614 39.96334190 17.74736462
v 46.16818029 40.26722731 18.06263947
v 45.36225608 41.20058469 18.12660829
v 45.21092647 42.70422044 17.09396922
v 45.14933707 41.77678063 17.88901008
v 44.57393031 42.17340873 18.21570778
v 44.89242711 42.43980170 17.65141155
v 44.44019657 43.70269667 17.19677620
v 45.10358782 44.20588196 16.12301465
v 44.27478769 44.20588196 17.01857754
v 44.67246975 44.20588196 16.58678822
v 43.68002419 44.72682507 17.31100635
v 43.51989536 45.30104806 17.12823842
v 43.61843479 46.31333750 16.37888962
v 44.47011083 32.57540598 31.88903585
v 44.10762051 33.04504473 31.60803021
v 43.45302848 34.10469391 30.61879857
v 43.63251149 33.41010053 31.88903585
v 43.35448648 33.83435505 31.55776824
v 43.02191042 34.57827856 30.61879857
v 42.74212454 35.12290219 30.12989433
v 42.86530076 35.26300592 29.55417524
v 43.01311377 35.42283914 28.89392593
v 43.44422926 34.95320038 28.89392593
v 43.70641928 34.37108431 29.48792146
v 44.27830686 34.07114737 28.89392593
v 44.70238401 33.64097529 28.89392593
v 43.71873510 35.24721977 27.77675664
v 44.30998200 34.95912051 27.16905330
v 44.71470241 34.52697420 27.16905330
v 44.41732065 34.21322277 28.31592221
v 43.57268553 35.09132988 28.35247573
v 44.60912205 35.27681784 26.08843752
v 45.18453138 34.98280103 25.59724865
v 44.84667785 35.50374414 25.32081196
v 44.50882174 36.03455585 25.04437559
v 45.09478860 35.74448493 24.58060170
v 45.27779334 35.93589045 24.04143646
v 46.05028155 35.84314776 23.04992017
v 46.24912386 36.05034201 22.47420108
v 46.57818075 35.51755864 22.76662990
v 48.00702185 34.35135226 22.51303924
v 46.86852415 35.80960122 21.99443523
v 47.05152890 35.98916905 21.53294614
v 47.31723551 35.37942914 21.99443523
v 48.80590771 34.29215354 21.56721518
v 48.58243118 34.09285366 22.14064964
v 49.14552212 33.78699658 21.89162825
v 49.73324727 33.48113951 21.64032239
v 50.67114435 32.67801727 21.72713708
v 50.30689573 33.25223898 21.33190136
v 50.91397762 32.95822216 21.08059542
v 51.52633699 32.66223112 20.83157403
v 51.87475062 32.16891185 21.18340240
v 52.51702554 31.88278683 20.95951168
v 53.03612423 31.66375489 20.76760529
v 53.03612423 31.38552166 21.16969483
v 41.00006412 37.68421290 29.22976153
v 41.91684616 36.03060738 30.22356245
v 41.45053635 36.42131793 30.57082187
v 41.22354065 37.10604272 29.75750457
v 41.65465614 36.57720525 29.75750457
v 40.62877715 36.86727617 31.88903585
v 41.67753206 35.74645660 31.48237720
v 41.24641656 36.26148215 31.48237720
v 41.03173925 36.35619908 31.88903585
v 40.89800551 36.69362846 31.48237720
v 38.93598516 46.31333750 22.86715225
v 39.26504205 46.25413877 22.34169433
v 39.59937641 45.95222760 22.03098875
v 40.92439803 45.28526191 20.52772236
v 40.61645875 45.08201484 21.14227961
v 39.51491367 46.31333750 21.88934361
v 39.71023424 46.31333750 21.57863820
v 40.03929112 45.93052131 21.35017821
v 40.33139540 46.31333750 20.63281398
v 40.97014986 46.22651236 19.73953557
v 41.11972117 45.65031642 19.95657254
v 41.08100769 44.71103892 20.75846691
v 40.88392624 44.36571646 21.33418600
v 41.97843555 42.16551694 21.67230664
v 41.67225458 44.23745427 20.27641642
v 42.01538816 43.97106130 19.99769534
v 42.28989400 43.27449625 20.21016304
v 42.77203880 42.92325237 19.84919629
v 42.60311332 42.48124004 20.47517655
v 42.75092376 42.02738744 20.68079052
v 42.16319860 42.46347965 21.11943366
v 41.97843555 41.29727585 22.54045454
v 42.74388541 41.15322622 21.52837695
v 42.16143773 40.74278619 22.83973710
v 42.75092376 40.30274552 22.40109388
v 42.59959414 40.09752550 22.85572923
v 42.77203880 39.46805097 23.29665693
v 42.28989400 39.83310677 23.64620066
v 42.78611807 36.89884848 26.77838645
v 42.64358510 38.44194833 24.81134633
v 42.87234168 37.86772662 25.18373610
v 43.48822022 37.57173558 24.58060170
v 44.28358691 36.63245808 24.58060170
v 43.51989536 36.74888129 25.69091741
v 42.91633264 37.04684400 26.30775930
v 42.87938003 36.14703060 27.82473334
v 42.73508619 35.97733136 28.39816779
v 41.93092285 36.90871450 28.52382080
v 41.46461305 37.29547658 28.87793349
v 42.59431410 39.24112467 23.87009138
v 51.64247487 36.22990984 16.60963425
v 51.31342055 35.94970495 17.18306871
v 51.02307715 36.50024871 16.87921704
v 50.41247351 36.77255924 17.14879982
v 53.03612423 36.23385574 15.50617277
v 53.03612423 36.11348663 15.62268724
v 52.68419400 35.81157545 16.18469884
v 53.03612423 35.37548067 16.36518213
v 53.03612423 35.25116566 16.49540410
v 53.03612423 34.55065215 17.23789899
v 53.03612423 34.39279060 17.40695943
v 52.84784201 34.08101340 17.89357935
v 52.24427929 35.14460848 17.24475290
v 51.33101642 35.10514437 18.06492410
v 49.83706675 37.02908618 17.41381333
v 49.53440495 36.75282718 17.98724779
v 48.95899819 37.02513771 18.26825343
v 48.66513305 37.59936199 17.97582493
v 48.08972629 37.89535304 18.26825343
v 47.81697875 38.46957474 17.98724779
v 47.24157199 38.77543182 18.29109946
v 46.15058442 39.38714596 18.90337207
v 46.40397265 39.69103137 18.32993762
v 46.97762111 38.48930680 18.86681855
v 46.14178520 38.52087911 19.76009696
v 45.87255684 40.00280858 18.64749678
v 45.34289934 40.31458578 18.96734090
v 45.53998079 40.75659811 18.33222225
v 44.84491698 41.51828202 18.45787526
v 44.54225518 41.25978341 19.04273257
v 44.63551714 43.12650073 17.41609797
v 43.62019566 43.76386705 18.10604690
v 44.38212635 42.74960467 17.98953210
v 44.33813539 41.83400640 18.78914224
v 44.07242620 42.50294632 18.56296656
v 44.12345808 43.44419806 17.76107243
v 43.84543050 44.20588196 17.50519714
v 42.81251315 46.31333750 17.31100635
v 43.48470105 44.20588196 17.93698646
v 42.87058081 44.82746213 18.24997667
v 42.71221285 45.40168512 18.04664734
v 42.91633264 45.93052131 17.43665937
v 42.92512928 46.31333750 17.17849944
v 43.22955195 46.31333750 16.82438643
v 43.39495826 45.99958606 16.83124034
v 42.85826241 34.39279060 31.48237720
v 42.86178159 34.23295739 31.88903585
v 42.64358510 35.01042487 30.61879857
v 42.47641792 34.82493948 31.48237720
v 41.96787546 35.22748515 31.88903585
v 42.04530243 35.31628452 31.48237720
v 42.49577466 35.56294287 29.80776526
v 42.62774753 35.85498802 28.89392593
v 43.84894967 34.52105407 28.89392593
v 43.48646192 35.85695968 27.16905330
v 43.88062481 35.42481337 27.16905330
v 43.22603278 35.61227556 28.08746189
v 44.44899322 35.10711604 26.66415661
v 44.34341544 35.85301378 25.62009436
v 44.10762051 35.63595351 26.39914278
v 44.44195487 36.81991770 24.07570534
v 44.66367310 36.20425766 24.58060170
v 43.76976698 36.17663125 26.13412959
v 44.95577481 36.48248832 23.77185367
v 45.20740730 36.71928064 23.07962011
v 45.47487479 36.14703060 23.46571737
v 46.03268568 36.67784231 21.99443523
v 46.20337203 36.86333027 21.54893834
v 46.43740865 36.24766766 21.99443523
v 45.40800791 36.93634091 22.50618550
v 46.74534793 36.54760717 21.25422497
v 47.01457629 36.80807744 20.62367552
v 47.82753627 36.76071898 19.70983579
v 47.87504897 35.95167661 20.62367552
v 47.92783915 35.14066258 21.54893834
v 48.75311753 35.10711604 20.64652147
v 49.01002750 34.47172137 21.13085659
v 49.65230113 34.27834162 20.68764426
v 49.44290387 34.10666558 21.13085659
v 50.04998576 33.65084132 21.07831087
v 50.58140156 33.46929925 20.75618235
v 51.15681089 33.23842706 20.46832281
v 51.44891260 33.47127348 19.89488835
v 52.33226120 33.48508541 19.04958648
v 52.09998545 32.45701110 20.56199133
v 53.03612423 31.70519323 20.70820566
v 41.80422746 35.89839802 30.79928154
v 42.01538816 36.14703060 29.75750457
v 41.80246915 36.74888129 29.09953989
v 40.85753115 36.57523101 31.88903585
v 41.87813268 35.33207067 31.88903585
v 41.17603052 36.18057714 31.88903585
v 39.25624283 46.31333750 22.31199455
v 41.25521578 45.02676202 20.25128583
v 39.91611490 46.31333750 21.26107880
v 40.23285339 46.31333750 20.78131286
v 40.87161042 46.31333750 19.82635026
v 40.95079312 46.31333750 19.70983579
v 41.29568757 46.31333750 19.24377743
v 41.75319815 46.08641120 18.78685760
v 41.43645966 45.86737669 19.36257669
v 41.71096550 45.06820164 19.57961351
v 41.85349846 44.54725724 19.77151998
v 42.33212666 44.20193478 19.40598412
v 42.81427146 43.85661232 19.03816346
v 42.59079492 43.49747665 19.61388255
v 43.54452957 41.92477615 19.73039719
v 43.74161102 41.35055444 19.98398768
v 43.24362865 41.68995806 20.33124678
v 42.94096685 43.26265599 19.35800742
v 43.57620471 42.83445557 18.91251061
v 43.51989536 41.03285711 20.55742214
v 42.94448603 41.45316445 20.95494249
v 42.61542914 40.82171697 22.06525780
v 43.23307113 40.80593081 21.18111785
v 42.94624690 40.57900451 21.82537479
v 42.92161011 39.66735086 22.85572923
v 43.51989536 40.18237641 21.40957776
v 43.57092466 38.52679924 23.20298849
v 42.93920855 38.98460030 23.63706212
v 42.81779063 38.66492873 24.23562724
v 43.54452957 39.35162776 22.30285617
v 43.76624780 38.77740605 22.62726924
v 43.61139645 35.99508918 26.70756404
v 43.00959460 36.43710409 27.10736879
v 43.39319996 36.45486190 26.37629707
v 43.03070964 38.15977178 24.54633282
v 43.62371484 37.73157136 24.14424344
v 44.12169721 37.38032749 23.82211468
v 50.75736796 35.34193670 18.31622981
v 50.42127273 35.91813264 18.01694773
v 50.73801122 36.20030919 17.44122832
v 53.03612423 35.67936608 16.05447688
v 53.03612423 33.79883684 18.04893198
v 52.27243268 34.30399380 18.13117756
v 50.43886860 35.07554373 18.89194922
v 49.84586340 36.18057714 18.28881483
v 49.54848422 35.90826661 18.86453392
v 49.25461907 36.46275627 18.56525119
v 48.66513305 36.74690706 18.84397252
v 48.09148459 37.02513771 19.13411670
v 47.81345958 37.60133365 18.84397252
v 47.23805282 37.91508509 19.15696273
v 45.85848015 39.12272723 19.49965256
v 45.33058352 39.43450443 19.81264277
v 45.57517509 39.73838984 19.23920832
v 46.69079688 38.21699627 19.45852977
v 46.98114285 37.63488020 19.73268182
v 46.40573352 37.94665740 20.07080238
v 45.86903767 38.26238050 20.37465421
v 45.33586100 38.58007783 20.67850588
v 45.56637587 38.85830849 20.10507143
v 44.53345853 40.38167629 19.89488835
v 44.30118278 40.08765948 20.46603817
v 44.31525947 40.95590057 19.61845166
v 44.02315777 40.70726799 20.22387061
v 43.72753432 40.45863540 20.83385867
v 43.44950931 43.42249177 18.59266682
v 42.56791901 45.93052131 17.86844836
v 42.18783282 46.31333750 18.09233941
v 43.02542959 44.16838952 18.54012085
v 42.64886258 44.43083402 18.82569576
v 42.03474233 45.06820164 19.14782419
v 41.90980781 45.51021526 18.98561766
v 42.09457086 45.85159054 18.51727482
v 42.78787637 34.31188816 31.88903585
v 42.39019431 34.75390050 31.88903585
v 44.37684887 37.60527955 23.11845827
v 44.63375884 37.03105784 23.49998625
v 44.89066881 37.27179863 22.81232180
v 45.37105530 37.75722354 21.58777658
v 45.54702170 37.95454919 21.13085659
v 46.16993859 37.68815879 20.64423691
v 45.14933707 37.51253685 22.16121103
v 44.57393031 37.83812598 22.54273918
v 46.71015362 37.37440736 20.34723899
v 47.25212951 37.06065849 20.05252562
v 47.53191539 37.33099479 19.43339910
v 48.39766556 36.46670216 19.43339910
v 48.70384653 35.92405277 19.73268182
v 48.12843977 36.18847150 20.05252562
v 49.02058502 35.34785683 20.07308701
v 49.59599435 35.08935822 19.76466607
v 50.50749634 34.27242149 19.81949652
v 50.17140111 34.12640020 20.34723899
v 50.80311979 34.50132202 19.24606206
v 51.37852655 34.28031585 18.96734090
v 51.77093114 33.65676145 19.36486133
v 51.82020214 34.11061404 18.76629621
v 52.58917117 33.78305069 18.45787526
v 53.03612423 33.58966836 18.28653019
v 52.90590966 33.27789116 18.78457297
v 53.03612423 31.76833785 20.62139096
v 52.42024440 32.67998894 19.98855679
v 52.99565245 32.48068905 19.73268182
v 41.55787501 46.31333750 18.89423369
v 41.70568802 46.31333750 18.70232738
v 42.01714647 46.31333750 18.30709159
v 44.02315777 39.84889292 21.08288006
v 44.31702035 39.24901904 21.32961681
v 43.74513019 39.60815470 21.72713708
v 43.80320041 37.95257753 23.56852435
v 44.07066790 38.18147806 22.87400599
v 44.33989626 38.41235025 22.21832595
v 50.14324772 35.62608749 18.59038218
v 49.86522014 35.33404234 19.19123162
v 48.97307489 36.17268535 19.15696273
v 45.18101221 39.10102351 20.34266980
v 44.52993936 39.51343777 20.75389772
v 44.54929353 38.67282310 21.64260686
v 44.71118323 38.98854619 21.07831087
v 49.28453333 35.62806172 19.46081440
v 53.03612423 33.22461257 18.74116554
v 53.03612423 33.10029756 18.89880280
v 53.03612423 32.43530482 19.75552769
f 1 2 5
f 1 5 11
f 1 11 18
f 1 18 32
f 1 32 51
f 1 51 57
f 1 57 94
f 1 94 148
f 1 148 199
f 1 199 203
f 1 203 202
f 1 202 201
f 1 201 266
f 1 266 345
f 1 345 344
f 1 344 343
f 1 343 432
f 1 432 543
f 1 543 430
f 1 430 429
f 1 429 542
f 1 542 648
f 1 648 768
f 1 768 902
f 1 902 771
f 1 771 904
f 1 904 903
f 1 903 862
f 1 862 979
f 1 979 978
f 1 978 859
f 1 859 723
f 1 723 720
f 1 720 601
f 1 601 600
f 1 600 599
f 1 599 598
f 1 598 494
f 1 494 392
f 1 392 313
f 1 313 312
f 1 312 311
f 1 311 310
f 1 310 309
f 1 309 308
f 1 308 307
f 1 307 236
f 1 236 235
f 1 235 175
f 1 175 124
f 1 124 75
f 1 75 42
f 1 42 41
f 1 41 23
f 1 23 13
f 1 13 7
f 1 7 3
f 1 3 4
f 1 4 10
f 1 10 17
f 1 17 31
f 1 31 48
f 1 48 82
f 1 82 132
f 1 132 131
f 1 131 130
f 1 130 142
f 1 142 192
f 1 192 259
f 1 259 335
f 1 335 417
f 1 417 416
f 1 416 426
f 1 426 425
f 1 425 424
f 1 424 423
f 1 423 532
f 1 532 641
f 1 641 639
f 1 639 762
f 1 762 761
f 1 761 898
f 1 898 1005
f 1 1005 1027
f 1 1027 1026
f 1 1026 1025
f 1 1025 1003
f 1 1003 946
f 1 946 823
f 1 823 822
f 1 822 821
f 1 821 820
f 1 820 945
f 1 945 818
f 1 818 817
f 1 817 697
f 1 697 687
f 1 687 569
f 1 569 571
f 1 571 686
f 1 686 567
f 1 567 459
f 1 459 368
f 1 368 286
f 1 286 222
f 1 222 217
f 1 217 215
f 1 215 156
f 1 156 107
f 1 107 105
f 1 105 104
f 1 104 66
f 1 66 36
f 1 36 20
f 1 20 12
f 1 12 6
f 1 6 2
f 2 6 5
f 3 7 8
f 3 8 9
f 3 9 4
f 4 9 8
f 4 8 10
f 5 6 12
f 5 12 22
f 5 22 40
f 5 40 74
f 5 74 123
f 5 123 174
f 5 174 121
f 5 121 120
f 5 120 173
f 5 173 169
f 5 169 168
f 5 168 172
f 5 172 234
f 5 234 306
f 5 306 391
f 5 391 493
f 5 493 492
f 5 492 596
f 5 596 597
f 5 597 719
f 5 719 856
f 5 856 855
f 5 855 850
f 5 850 972
f 5 972 1010
f 5 1010 1009
f 5 1009 1008
f 5 1008 911
f 5 911 910
f 5 910 909
f 5 909 781
f 5 781 908
f 5 908 907
f 5 907 779
f 5 779 778
f 5 778 905
f 5 905 773
f 5 773 652
f 5 652 651
f 5 651 650
f 5 650 544
f 5 544 436
f 5 436 350
f 5 350 270
f 5 270 207
f 5 207 205
f 5 205 204
f 5 204 151
f 5 151 98
f 5 98 97
f 5 97 61
f 5 61 96
f 5 96 59
f 5 59 58
f 5 58 35
f 5 35 19
f 5 19 11
f 7 13 14
f 7 14 15
f 7 15 16
f 7 16 17
f 7 17 8
f 8 17 10
f 11 19 18
f 12 20 21
f 12 21 22
f 13 23 24
f 13 24 14
f 14 24 25
f 14 25 15
f 15 26 16
f 15 25 27
f 15 27 28
f 15 28 29
f 15 29 30
f 15 30 26
f 16 26 17
f 17 26 31
f 18 19 33
f 18 33 34
f 18 34 32
f 19 35 33
f 20 36 22
f 20 22 21
f 22 36 37
f 22 37 38
f 22 38 39
f 22 39 40
f 23 41 24
f 24 41 42
f 24 42 43
f 24 43 25
f 25 44 45
f 25 45 46
f 25 46 27
f 25 43 47
f 25 47 44
f 26 30 48
f 26 48 31
f 27 46 28
f 28 46 49
f 28 49 50
f 28 50 29
f 29 50 30
f 30 50 48
f 32 34 51
f 33 52 53
f 33 53 54
f 33 54 55
f 33 55 56
f 33 56 57
f 33 57 34
f 33 35 58
f 33 58 59
f 33 59 60
f 33 60 61
f 33 61 62
f 33 62 63
f 33 63 64
f 33 64 65
f 33 65 52
f 34 57 51
f 36 66 37
f 37 66 67
f 37 67 68
f 37 68 38
f 38 68 67
f 38 67 39
f 39 67 69
f 39 69 40
f 40 69 70
f 40 70 71
f 40 71 72
f 40 72 73
f 40 73 74
f 42 47 43
f 42 75 45
f 42 45 44
f 42 44 47
f 45 76 77
f 45 77 78
f 45 78 79
f 45 79 46
f 45 75 80
f 45 80 76
f 46 79 49
f 48 50 81
f 48 81 82
f 49 79 83
f 49 83 84
f 49 84 85
f 49 85 86
f 49 86 87
f 49 87 50
f 50 87 81
f 52 88 89
f 52 89 53
f 52 65 88
f 53 90 91
f 53 91 54
f 53 89 92
f 53 92 93
f 53 93 90
f 54 91 55
f 55 91 56
f 56 91 57
f 57 91 95
f 57 95 94
f 59 96 60
f 60 96 61
f 61 97 63
f 61 63 62
f 63 97 98
f 63 98 99
f 63 99 64
f 64 99 100
f 64 100 101
f 64 101 65
f 65 101 102
f 65 102 103
f 65 103 88
f 66 104 67
f 67 104 105
f 67 105 106
f 67 106 107
f 67 107 108
f 67 108 109
f 67 109 110
f 67 110 111
f 67 111 112
f 67 112 69
f 69 113 70
f 69 112 113
f 70 113 71
f 71 113 114
f 71 114 72
f 72 115 116
f 72 116 117
f 72 117 118
f 72 118 119
f 72 119 120
f 72 120 121
f 72 121 122
f 72 122 123
f 72 123 73
f 72 114 115
f 73 123 74
f 75 124 80
f 76 125 126
f 76 126 77
f 76 80 127
f 76 127 125
f 77 128 129
f 77 129 78
f 77 126 128
f 78 129 79
f 79 129 83
f 80 124 127
f 81 87 130
f 81 130 131
f 81 131 132
f 81 132 82
f 83 133 134
f 83 134 135
f 83 135 84
f 83 129 133
f 84 135 136
f 84 136 137
f 84 137 85
f 85 137 138
f 85 138 139
f 85 139 140
f 85 140 86
f 86 140 141
f 86 141 87
f 87 141 142
f 87 142 130
f 88 103 92
f 88 92 89
f 90 143 95
f 90 95 91
f 90 93 144
f 90 144 143
f 92 103 93
f 93 103 145
f 93 145 146
f 93 146 147
f 93 147 144
f 94 95 148
f 95 149 150
f 95 150 148
f 95 143 149
f 98 151 152
f 98 152 99
f 99 152 100
f 100 152 153
f 100 153 154
f 100 154 101
f 101 154 102
f 102 145 103
f 102 154 155
f 102 155 145
f 105 107 106
f 107 156 157
f 107 157 109
f 107 109 108
f 109 158 159
f 109 159 160
f 109 160 110
f 109 157 158
f 110 160 161
f 110 161 162
f 110 162 111
f 111 162 163
f 111 163 112
f 112 163 164
f 112 164 165
f 112 165 115
f 112 115 114
f 112 114 113
f 115 165 116
f 116 165 166
f 116 166 117
f 117 167 168
f 117 168 169
f 117 169 118
f 117 166 170
f 117 170 171
f 117 171 172
f 117 172 167
f 118 173 120
f 118 120 119
f 118 169 173
f 121 174 122
f 122 174 123
f 124 175 176
f 124 176 127
f 125 177 126
f 125 127 176
f 125 176 177
f 126 177 178
f 126 178 128
f 128 178 179
f 128 179 129
f 129 179 133
f 133 179 180
f 133 180 134
f 134 181 182
f 134 182 183
f 134 183 184
f 134 184 185
f 134 185 186
f 134 186 187
f 134 187 135
f 134 180 179
f 134 179 181
f 135 187 136
f 136 187 188
f 136 188 138
f 136 138 137
f 138 188 189
f 138 189 139
f 139 189 190
f 139 190 140
f 140 190 191
f 140 191 141
f 141 191 142
f 142 191 192
f 143 144 193
f 143 193 194
f 143 194 149
f 144 147 195
f 144 195 196
f 144 196 197
f 144 197 193
f 145 155 196
f 145 196 198
f 145 198 147
f 145 147 146
f 147 198 195
f 148 150 199
f 149 194 200
f 149 200 201
f 149 201 202
f 149 202 150
f 150 202 203
f 150 203 199
f 151 204 152
f 152 204 205
f 152 205 206
f 152 206 153
f 153 206 207
f 153 207 208
f 153 208 209
f 153 209 154
f 154 209 210
f 154 210 211
f 154 211 155
f 155 212 213
f 155 213 214
f 155 214 196
f 155 211 212
f 156 215 216
f 156 216 157
f 157 216 158
f 158 216 217
f 158 217 218
f 158 218 159
f 159 219 220
f 159 220 160
f 159 218 221
f 159 221 222
f 159 222 223
f 159 223 224
f 159 224 219
f 160 220 219
f 160 219 225
f 160 225 161
f 161 225 162
f 162 225 226
f 162 226 227
f 162 227 228
f 162 228 164
f 162 164 163
f 164 228 227
f 164 227 165
f 165 227 229
f 165 229 166
f 166 229 230
f 166 230 231
f 166 231 232
f 166 232 233
f 166 233 170
f 167 172 168
f 170 233 171
f 171 233 172
f 172 233 234
f 175 235 176
f 176 235 236
f 176 236 237
f 176 237 238
f 176 238 177
f 177 238 239
f 177 239 240
f 177 240 241
f 177 241 242
f 177 242 243
f 177 243 244
f 177 244 245
f 177 245 178
f 178 245 179
f 179 246 247
f 179 247 181
f 179 245 246
f 181 247 183
f 181 183 182
f 183 247 248
f 183 248 184
f 184 249 250
f 184 250 251
f 184 251 185
f 184 248 249
f 185 251 186
f 186 251 252
f 186 252 253
f 186 253 187
f 187 253 188
f 188 253 189
f 189 253 254
f 189 254 255
f 189 255 256
f 189 256 190
f 190 256 257
f 190 257 258
f 190 258 191
f 191 258 192
f 192 258 259
f 193 260 194
f 193 197 261
f 193 261 262
f 193 262 263
f 193 263 260
f 194 260 264
f 194 264 265
f 194 265 266
f 194 266 200
f 195 198 196
f 196 214 267
f 196 267 268
f 196 268 269
f 196 269 261
f 196 261 197
f 200 266 201
f 205 207 206
f 207 270 271
f 207 271 272
f 207 272 208
f 208 272 271
f 208 271 273
f 208 273 209
f 209 273 274
f 209 274 275
f 209 275 276
f 209 276 210
f 210 276 277
f 210 277 278
f 210 278 279
f 210 279 280
f 210 280 211
f 211 280 212
f 212 281 213
f 212 280 281
f 213 281 282
f 213 282 214
f 214 282 283
f 214 283 284
f 214 284 285
f 214 285 267
f 215 217 216
f 217 221 218
f 217 222 221
f 219 224 225
f 222 286 223
f 223 286 287
f 223 287 288
f 223 288 224
f 224 288 289
f 224 289 225
f 225 289 290
f 225 290 291
f 225 291 292
f 225 292 293
f 225 293 226
f 226 293 294
f 226 294 227
f 227 294 295
f 227 295 230
f 227 230 229
f 230 294 232
f 230 232 231
f 230 295 294
f 232 294 293
f 232 293 296
f 232 296 297
f 232 297 298
f 232 298 299
f 232 299 300
f 232 300 301
f 232 301 302
f 232 302 303
f 232 303 304
f 232 304 233
f 233 304 234
f 234 304 303
f 234 303 305
f 234 305 306
f 236 307 237
f 237 307 308
f 237 308 309
f 237 309 239
f 237 239 238
f 239 309 240
f 240 309 310
f 240 310 241
f 241 310 311
f 241 311 312
f 241 312 313
f 241 313 314
f 241 314 242
f 242 315 243
f 242 314 315
f 243 315 316
f 243 316 244
f 244 317 246
f 244 246 245
f 244 316 317
f 246 317 318
f 246 318 319
f 246 319 320
f 246 320 247
f 247 320 321
f 247 321 249
f 247 249 248
f 249 322 323
f 249 323 324
f 249 324 250
f 249 321 322
f 250 324 251
f 251 324 252
f 252 325 326
f 252 326 327
f 252 327 253
f 252 324 325
f 253 327 328
f 253 328 255
f 253 255 254
f 255 329 257
f 255 257 256
f 255 328 330
f 255 330 331
f 255 331 332
f 255 332 333
f 255 333 334
f 255 334 329
f 257 329 335
f 257 335 258
f 258 335 259
f 260 263 336
f 260 336 264
f 261 269 337
f 261 337 262
f 262 337 263
f 263 337 338
f 263 338 336
f 264 336 339
f 264 339 340
f 264 340 341
f 264 341 342
f 264 342 343
f 264 343 344
f 264 344 345
f 264 345 266
f 264 266 265
f 267 285 268
f 268 346 347
f 268 347 348
f 268 348 269
f 268 285 346
f 269 349 338
f 269 338 337
f 269 348 349
f 270 350 271
f 271 350 351
f 271 351 273
f 273 351 275
f 273 275 274
f 275 351 352
f 275 352 353
f 275 353 276
f 276 353 277
f 277 353 278
f 278 354 355
f 278 355 356
f 278 356 357
f 278 357 358
f 278 358 279
f 278 353 354
f 279 358 359
f 279 359 280
f 280 360 281
f 280 359 360
f 281 360 282
f 282 360 283
f 283 360 359
f 283 359 361
f 283 361 284
f 284 362 285
f 284 361 362
f 285 363 364
f 285 364 346
f 285 362 365
f 285 365 366
f 285 366 367
f 285 367 363
f 286 368 369
f 286 369 287
f 287 369 288
f 288 369 289
f 289 369 370
f 289 370 290
f 290 370 371
f 290 371 372
f 290 372 291
f 291 372 292
f 292 373 374
f 292 374 375
f 292 375 376
f 292 376 377
f 292 377 378
f 292 378 379
f 292 379 298
f 292 298 297
f 292 297 296
f 292 296 380
f 292 380 293
f 292 372 373
f 293 380 296
f 298 379 381
f 298 381 382
f 298 382 299
f 299 382 300
f 300 382 383
f 300 383 384
f 300 384 301
f 301 385 386
f 301 386 302
f 301 384 385
f 302 386 387
f 302 387 303
f 303 387 388
f 303 388 305
f 305 388 389
f 305 389 306
f 306 389 390
f 306 390 391
f 313 392 393
f 313 393 314
f 314 393 316
f 314 316 315
f 316 393 394
f 316 394 395
f 316 395 396
f 316 396 318
f 316 318 317
f 318 396 397
f 318 397 398
f 318 398 322
f 318 322 320
f 318 320 319
f 320 322 321
f 322 399 400
f 322 400 323
f 322 398 397
f 322 397 401
f 322 401 399
f 323 400 402
f 323 402 324
f 324 402 403
f 324 403 404
f 324 404 405
f 324 405 406
f 324 406 407
f 324 407 408
f 324 408 409
f 324 409 326
f 324 326 325
f 326 410 328
f 326 328 327
f 326 409 411
f 326 411 412
f 326 412 410
f 328 410 413
f 328 413 414
f 328 414 415
f 328 415 331
f 328 331 330
f 329 416 417
f 329 417 335
f 329 334 333
f 329 333 416
f 331 415 418
f 331 418 333
f 331 333 332
f 333 419 420
f 333 420 421
f 333 421 422
f 333 422 423
f 333 423 424
f 333 424 425
f 333 425 426
f 333 426 416
f 333 418 419
f 336 427 339
f 336 338 427
f 338 349 427
f 339 427 340
f 340 427 428
f 340 428 429
f 340 429 430
f 340 430 431
f 340 431 341
f 341 431 432
f 341 432 342
f 342 432 343
f 346 433 347
f 346 364 433
f 347 433 434
f 347 434 435
f 347 435 348
f 348 435 349
f 349 435 427
f 350 436 351
f 351 436 352
f 352 437 438
f 352 438 439
f 352 439 353
f 352 436 437
f 353 439 354
f 354 439 440
f 354 440 441
f 354 441 355
f 355 441 442
f 355 442 443
f 355 443 444
f 355 444 445
f 355 445 356
f 356 445 446
f 356 446 357
f 357 446 447
f 357 447 358
f 358 447 448
f 358 448 449
f 358 449 365
f 358 365 359
f 359 365 361
f 361 365 362
f 363 367 364
f 364 367 450
f 364 450 451
f 364 451 452
f 364 452 433
f 365 453 454
f 365 454 455
f 365 455 366
f 365 449 456
f 365 456 457
f 365 457 453
f 366 455 367
f 367 451 450
f 367 455 458
f 367 458 451
f 368 459 460
f 368 460 461
f 368 461 462
f 368 462 369
f 369 462 463
f 369 463 464
f 369 464 465
f 369 465 466
f 369 466 467
f 369 467 468
f 369 468 370
f 370 468 469
f 370 469 374
f 370 374 371
f 371 374 372
f 372 374 373
f 374 469 467
f 374 467 376
f 374 376 375
f 376 467 470
f 376 470 471
f 376 471 472
f 376 472 473
f 376 473 474
f 376 474 475
f 376 475 476
f 376 476 477
f 376 477 378
f 376 378 377
f 378 477 476
f 378 476 478
f 378 478 479
f 378 479 381
f 378 381 379
f 381 479 480
f 381 480 481
f 381 481 384
f 381 384 383
f 381 383 382
f 384 481 482
f 384 482 483
f 384 483 484
f 384 484 485
f 384 485 385
f 385 387 386
f 385 485 387
f 387 485 486
f 387 486 487
f 387 487 389
f 387 389 388
f 389 487 488
f 389 488 489
f 389 489 490
f 389 490 390
f 390 490 491
f 390 491 492
f 390 492 493
f 390 493 391
f 392 494 495
f 392 495 496
f 392 496 393
f 393 496 394
f 394 497 395
f 394 496 495
f 394 495 497
f 395 497 498
f 395 498 499
f 395 499 500
f 395 500 501
f 395 501 396
f 396 501 397
f 397 502 401
f 397 501 503
f 397 503 504
f 397 504 502
f 399 401 502
f 399 502 504
f 399 504 400
f 400 505 402
f 400 504 505
f 402 505 506
f 402 506 507
f 402 507 508
f 402 508 404
f 402 404 403
f 404 509 510
f 404 510 405
f 404 508 507
f 404 507 511
f 404 511 512
f 404 512 513
f 404 513 514
f 404 514 515
f 404 515 516
f 404 516 517
f 404 517 518
f 404 518 509
f 405 510 406
f 406 510 509
f 406 509 407
f 407 509 519
f 407 519 412
f 407 412 411
f 407 411 409
f 407 409 408
f 410 520 413
f 410 412 520
f 412 518 521
f 412 521 522
f 412 522 523
f 412 523 524
f 412 524 525
f 412 525 419
f 412 419 526
f 412 526 520
f 412 519 518
f 413 520 526
f 413 526 414
f 414 418 415
f 414 526 419
f 414 419 418
f 419 525 527
f 419 527 420
f 420 527 421
f 421 528 529
f 421 529 530
f 421 530 531
f 421 531 423
f 421 423 422
f 421 527 528
f 423 531 532
f 427 435 533
f 427 533 433
f 427 433 534
f 427 534 535
f 427 535 536
f 427 536 537
f 427 537 538
f 427 538 539
f 427 539 540
f 427 540 428
f 428 540 429
f 429 540 541
f 429 541 542
f 430 543 431
f 431 543 432
f 433 452 535
f 433 535 534
f 433 533 434
f 434 533 435
f 436 544 545
f 436 545 437
f 437 545 438
f 438 545 546
f 438 546 440
f 438 440 439
f 440 546 442
f 440 442 441
f 442 546 547
f 442 547 548
f 442 548 444
f 442 444 443
f 444 548 445
f 445 548 549
f 445 549 446
f 446 549 550
f 446 550 551
f 446 551 552
f 446 552 553
f 446 553 447
f 447 553 554
f 447 554 448
f 448 554 449
f 449 554 553
f 449 553 456
f 451 555 556
f 451 556 557
f 451 557 558
f 451 558 452
f 451 458 559
f 451 559 560
f 451 560 561
f 451 561 562
f 451 562 555
f 452 558 535
f 453 457 563
f 453 563 454
f 454 561 564
f 454 564 458
f 454 458 455
f 454 563 565
f 454 565 561
f 456 553 457
f 457 553 566
f 457 566 563
f 458 564 559
f 459 567 460
f 460 567 568
f 460 568 463
f 460 463 462
f 460 462 461
f 463 569 570
f 463 570 465
f 463 465 464
f 463 568 571
f 463 571 569
f 465 572 573
f 465 573 574
f 465 574 575
f 465 575 467
f 465 467 466
f 465 570 576
f 465 576 577
f 465 577 578
f 465 578 572
f 467 469 468
f 467 575 574
f 467 574 471
f 467 471 470
f 471 574 472
f 472 579 580
f 472 580 473
f 472 574 579
f 473 580 581
f 473 581 582
f 473 582 474
f 474 582 475
f 475 582 476
f 476 582 583
f 476 583 584
f 476 584 585
f 476 585 478
f 478 585 479
f 479 585 584
f 479 584 480
f 480 586 482
f 480 482 481
f 480 584 587
f 480 587 588
f 480 588 586
f 482 586 589
f 482 589 483
f 483 589 590
f 483 590 484
f 484 591 485
f 484 590 591
f 485 591 486
f 486 591 487
f 487 591 488
f 488 591 592
f 488 592 489
f 489 592 593
f 489 593 594
f 489 594 595
f 489 595 491
f 489 491 490
f 491 596 492
f 491 595 597
f 491 597 596
f 494 598 495
f 495 598 599
f 495 599 600
f 495 600 601
f 495 601 497
f 497 601 602
f 497 602 498
f 498 603 499
f 498 602 604
f 498 604 603
f 499 603 605
f 499 605 606
f 499 606 607
f 499 607 500
f 500 607 608
f 500 608 501
f 501 608 609
f 501 609 503
f 503 609 504
f 504 610 611
f 504 611 612
f 504 612 506
f 504 506 505
f 504 609 613
f 504 613 610
f 506 612 507
f 507 612 511
f 509 518 519
f 511 614 512
f 511 612 614
f 512 614 513
f 513 615 616
f 513 616 617
f 513 617 514
f 513 614 615
f 514 617 515
f 515 618 619
f 515 619 620
f 515 620 621
f 515 621 622
f 515 622 623
f 515 623 624
f 515 624 517
f 515 517 516
f 515 617 616
f 515 616 618
f 517 624 625
f 517 625 626
f 517 626 518
f 518 626 627
f 518 627 521
f 521 627 522
f 522 627 628
f 522 628 629
f 522 629 630
f 522 630 631
f 522 631 632
f 522 632 523
f 523 632 524
f 524 527 525
f 524 632 633
f 524 633 634
f 524 634 635
f 524 635 527
f 527 635 634
f 527 634 528
f 528 634 529
f 529 636 637
f 529 637 530
f 529 634 636
f 530 638 639
f 530 639 640
f 530 640 531
f 530 637 638
f 531 640 641
f 531 641 532
f 535 642 536
f 535 558 642
f 536 642 643
f 536 643 644
f 536 644 537
f 537 644 643
f 537 643 645
f 537 645 538
f 538 646 647
f 538 647 540
f 538 540 539
f 538 645 646
f 540 647 541
f 541 648 542
f 541 647 646
f 541 646 649
f 541 649 648
f 544 650 545
f 545 650 651
f 545 651 652
f 545 652 653
f 545 653 654
f 545 654 546
f 546 654 547
f 547 654 548
f 548 655 656
f 548 656 657
f 548 657 658
f 548 658 551
f 548 551 549
f 548 654 655
f 549 551 550
f 551 659 660
f 551 660 553
f 551 553 552
f 551 658 661
f 551 661 662
f 551 662 663
f 551 663 664
f 551 664 665
f 551 665 659
f 553 660 666
f 553 666 667
f 553 667 668
f 553 668 669
f 553 669 670
f 553 670 671
f 553 671 566
f 555 672 556
f 555 562 673
f 555 673 674
f 555 674 672
f 556 672 675
f 556 675 676
f 556 676 677
f 556 677 678
f 556 678 557
f 557 678 679
f 557 679 558
f 558 679 642
f 559 564 560
f 560 564 561
f 561 565 680
f 561 680 681
f 561 681 673
f 561 673 562
f 563 566 682
f 563 682 683
f 563 683 684
f 563 684 565
f 565 684 685
f 565 685 680
f 566 671 670
f 566 670 683
f 566 683 682
f 567 686 568
f 568 686 571
f 569 687 688
f 569 688 577
f 569 577 570
f 570 577 576
f 572 578 689
f 572 689 690
f 572 690 691
f 572 691 692
f 572 692 573
f 573 692 574
f 574 692 693
f 574 693 579
f 577 688 578
f 578 694 695
f 578 695 696
f 578 696 690
f 578 690 689
f 578 688 697
f 578 697 698
f 578 698 694
f 579 693 699
f 579 699 700
f 579 700 701
f 579 701 580
f 580 701 702
f 580 702 581
f 581 702 703
f 581 703 582
f 582 703 704
f 582 704 583
f 583 704 705
f 583 705 706
f 583 706 584
f 584 706 707
f 584 707 708
f 584 708 587
f 586 709 589
f 586 588 708
f 586 708 710
f 586 710 711
f 586 711 712
f 586 712 709
f 587 708 588
f 589 709 713
f 589 713 590
f 590 714 591
f 590 713 715
f 590 715 716
f 590 716 714
f 591 714 592
f 592 714 716
f 592 716 715
f 592 715 717
f 592 717 593
f 593 717 594
f 594 717 718
f 594 718 597
f 594 597 595
f 597 718 719
f 601 720 602
f 602 720 721
f 602 721 604
f 603 722 605
f 603 604 722
f 604 721 723
f 604 723 724
f 604 724 722
f 605 722 725
f 605 725 726
f 605 726 727
f 605 727 728
f 605 728 729
f 605 729 730
f 605 730 731
f 605 731 606
f 606 731 732
f 606 732 607
f 607 732 608
f 608 732 609
f 609 732 613
f 610 733 734
f 610 734 735
f 610 735 611
f 610 613 736
f 610 736 737
f 610 737 733
f 611 735 614
f 611 614 612
f 613 732 736
f 614 738 739
f 614 739 616
f 614 616 615
f 614 735 738
f 616 739 738
f 616 738 740
f 616 740 741
f 616 741 742
f 616 742 743
f 616 743 744
f 616 744 618
f 618 744 619
f 619 744 745
f 619 745 746
f 619 746 620
f 620 746 621
f 621 747 622
f 621 746 745
f 621 745 748
f 621 748 749
f 621 749 750
f 621 750 751
f 621 751 747
f 622 747 623
f 623 747 751
f 623 751 752
f 623 752 625
f 623 625 624
f 625 752 628
f 625 628 626
f 626 628 627
f 628 752 751
f 628 751 753
f 628 753 629
f 629 753 754
f 629 754 630
f 630 754 755
f 630 755 631
f 631 633 632
f 631 755 636
f 631 636 633
f 633 636 634
f 636 756 757
f 636 757 758
f 636 758 759
f 636 759 637
f 636 755 754
f 636 754 756
f 637 639 638
f 637 759 760
f 637 760 761
f 637 761 762
f 637 762 639
f 639 641 640
f 642 763 643
f 642 679 763
f 643 763 645
f 645 764 765
f 645 765 649
f 645 649 646
f 645 763 766
f 645 766 767
f 645 767 764
f 648 649 768
f 649 765 769
f 649 769 770
f 649 770 771
f 649 771 772
f 649 772 768
f 652 773 774
f 652 774 653
f 653 774 654
f 654 774 775
f 654 775 656
f 654 656 655
f 656 776 777
f 656 777 657
f 656 775 778
f 656 778 779
f 656 779 780
f 656 780 781
f 656 781 782
f 656 782 783
f 656 783 776
f 657 777 784
f 657 784 785
f 657 785 658
f 658 785 661
f 659 666 660
f 659 665 786
f 659 786 666
f 661 785 662
f 662 785 787
f 662 787 788
f 662 788 789
f 662 789 664
f 662 664 663
f 664 789 790
f 664 790 791
f 664 791 792
f 664 792 793
f 664 793 665
f 665 793 786
f 666 794 668
f 666 668 667
f 666 786 795
f 666 795 794
f 668 794 796
f 668 796 669
f 669 796 797
f 669 797 798
f 669 798 799
f 669 799 800
f 669 800 683
f 669 683 670
f 672 674 801
f 672 801 675
f 673 681 802
f 673 802 803
f 673 803 804
f 673 804 805
f 673 805 741
f 673 741 806
f 673 806 807
f 673 807 801
f 673 801 674
f 675 808 809
f 675 809 676
f 675 801 808
f 676 809 810
f 676 810 677
f 677 810 678
f 678 810 679
f 679 810 811
f 679 811 766
f 679 766 763
f 680 685 681
f 681 685 802
f 683 685 684
f 683 800 685
f 685 800 799
f 685 799 812
f 685 812 802
f 687 697 688
f 690 693 691
f 690 696 695
f 690 695 813
f 690 813 814
f 690 814 815
f 690 815 816
f 690 816 699
f 690 699 693
f 691 693 692
f 694 698 817
f 694 817 818
f 694 818 695
f 695 814 813
f 695 818 819
f 695 819 820
f 695 820 821
f 695 821 822
f 695 822 823
f 695 823 824
f 695 824 825
f 695 825 826
f 695 826 814
f 697 817 698
f 699 816 700
f 700 816 701
f 701 816 827
f 701 827 828
f 701 828 829
f 701 829 830
f 701 830 702
f 702 830 831
f 702 831 832
f 702 832 703
f 703 832 704
f 704 832 833
f 704 833 705
f 705 834 835
f 705 835 706
f 705 833 836
f 705 836 837
f 705 837 834
f 706 835 707
f 707 835 838
f 707 838 839
f 707 839 840
f 707 840 708
f 708 841 711
f 708 711 710
f 708 840 839
f 708 839 842
f 708 842 841
f 709 712 843
f 709 843 713
f 711 844 845
f 711 845 712
f 711 841 846
f 711 846 847
f 711 847 844
f 712 845 843
f 713 843 845
f 713 845 848
f 713 848 849
f 713 849 717
f 713 717 715
f 717 850 718
f 717 849 844
f 717 844 851
f 717 851 852
f 717 852 853
f 717 853 854
f 717 854 850
f 718 850 855
f 718 855 856
f 718 856 857
f 718 857 719
f 719 857 856
f 720 723 721
f 722 724 858
f 722 858 725
f 723 859 858
f 723 858 724
f 725 860 726
f 725 858 861
f 725 861 862
f 725 862 863
f 725 863 860
f 726 860 764
f 726 764 864
f 726 864 865
f 726 865 727
f 727 865 809
f 727 809 728
f 728 809 729
f 729 809 737
f 729 737 730
f 730 737 866
f 730 866 736
f 730 736 731
f 731 736 732
f 733 808 867
f 733 867 868
f 733 868 734
f 733 737 869
f 733 869 808
f 734 868 870
f 734 870 735
f 735 870 738
f 736 866 737
f 737 809 869
f 738 871 741
f 738 741 740
f 738 870 872
f 738 872 871
f 741 805 873
f 741 873 874
f 741 874 743
f 741 743 742
f 741 871 875
f 741 875 806
f 743 876 877
f 743 877 878
f 743 878 745
f 743 745 744
f 743 874 876
f 745 879 880
f 745 880 881
f 745 881 749
f 745 749 748
f 745 878 877
f 745 877 882
f 745 882 879
f 749 880 883
f 749 883 884
f 749 884 885
f 749 885 886
f 749 886 887
f 749 887 750
f 749 881 880
f 750 887 751
f 751 754 753
f 751 887 886
f 751 886 888
f 751 888 889
f 751 889 890
f 751 890 891
f 751 891 892
f 751 892 754
f 754 892 756
f 756 892 893
f 756 893 757
f 757 893 758
f 758 893 894
f 758 894 895
f 758 895 896
f 758 896 897
f 758 897 760
f 758 760 759
f 760 897 898
f 760 898 761
f 764 860 899
f 764 899 765
f 764 767 900
f 764 900 865
f 764 865 864
f 765 899 769
f 766 811 810
f 766 810 901
f 766 901 809
f 766 809 767
f 767 809 900
f 768 772 902
f 769 903 770
f 769 899 903
f 770 903 904
f 770 904 771
f 771 902 772
f 773 905 774
f 774 905 778
f 774 778 775
f 776 784 777
f 776 783 906
f 776 906 784
f 779 907 780
f 780 907 908
f 780 908 781
f 781 909 782
f 782 909 910
f 782 910 911
f 782 911 912
f 782 912 913
f 782 913 783
f 783 913 914
f 783 914 915
f 783 915 906
f 784 906 787
f 784 787 785
f 786 793 792
f 786 792 795
f 787 906 915
f 787 915 788
f 788 915 916
f 788 916 917
f 788 917 918
f 788 918 790
f 788 790 789
f 790 919 920
f 790 920 921
f 790 921 792
f 790 792 791
f 790 918 922
f 790 922 923
f 790 923 847
f 790 847 846
f 790 846 919
f 792 924 925
f 792 925 795
f 792 921 924
f 794 795 926
f 794 926 796
f 795 927 928
f 795 928 797
f 795 797 926
f 795 925 924
f 795 924 927
f 796 926 797
f 797 929 799
f 797 799 798
f 797 928 930
f 797 930 929
f 799 931 932
f 799 932 933
f 799 933 812
f 799 929 934
f 799 934 935
f 799 935 931
f 801 936 937
f 801 937 808
f 801 807 938
f 801 938 936
f 802 812 933
f 802 933 803
f 803 933 939
f 803 939 940
f 803 940 804
f 804 940 805
f 805 940 941
f 805 941 873
f 806 875 807
f 807 875 938
f 808 937 936
f 808 936 867
f 808 869 809
f 809 865 900
f 809 901 810
f 814 826 942
f 814 942 943
f 814 943 944
f 814 944 815
f 815 944 816
f 816 944 943
f 816 943 827
f 818 945 819
f 819 945 820
f 823 946 824
f 824 946 947
f 824 947 825
f 825 947 826
f 826 947 948
f 826 948 942
f 827 943 828
f 828 943 949
f 828 949 950
f 828 950 951
f 828 951 952
f 828 952 829
f 829 952 830
f 830 952 953
f 830 953 831
f 831 953 954
f 831 954 832
f 832 954 833
f 833 954 955
f 833 955 836
f 834 839 838
f 834 838 835
f 834 837 956
f 834 956 957
f 834 957 958
f 834 958 839
f 836 955 959
f 836 959 837
f 837 959 960
f 837 960 961
f 837 961 962
f 837 962 963
f 837 963 964
f 837 964 957
f 837 957 956
f 839 958 957
f 839 957 842
f 841 842 846
f 842 957 965
f 842 965 966
f 842 966 967
f 842 967 968
f 842 968 969
f 842 969 924
f 842 924 920
f 842 920 846
f 844 849 848
f 844 848 845
f 844 847 970
f 844 970 917
f 844 917 851
f 846 920 919
f 847 923 970
f 850 854 971
f 850 971 972
f 851 917 973
f 851 973 852
f 852 973 917
f 852 917 974
f 852 974 975
f 852 975 976
f 852 976 853
f 853 976 912
f 853 912 977
f 853 977 971
f 853 971 854
f 858 859 978
f 858 978 979
f 858 979 862
f 858 862 861
f 860 863 899
f 862 903 863
f 863 903 899
f 867 936 868
f 868 936 872
f 868 872 870
f 871 872 936
f 871 936 875
f 873 941 980
f 873 980 981
f 873 981 874
f 874 981 876
f 875 936 938
f 876 981 877
f 877 982 882
f 877 981 982
f 879 882 880
f 880 983 984
f 880 984 963
f 880 963 985
f 880 985 884
f 880 884 883
f 880 882 986
f 880 986 983
f 882 982 987
f 882 987 986
f 884 985 988
f 884 988 989
f 884 989 885
f 885 989 960
f 885 960 990
f 885 990 953
f 885 953 991
f 885 991 992
f 885 992 993
f 885 993 886
f 886 993 888
f 888 993 992
f 888 992 994
f 888 994 995
f 888 995 889
f 889 995 948
f 889 948 890
f 890 996 997
f 890 997 893
f 890 893 892
f 890 892 891
f 890 948 996
f 893 997 996
f 893 996 894
f 894 996 998
f 894 998 895
f 895 998 999
f 895 999 1000
f 895 1000 896
f 896 1000 999
f 896 999 1001
f 896 1001 1002
f 896 1002 1003
f 896 1003 1004
f 896 1004 897
f 897 1005 898
f 897 1004 1006
f 897 1006 1007
f 897 1007 1005
f 911 1008 912
f 912 976 913
f 912 1008 1009
f 912 1009 1010
f 912 1010 972
f 912 972 971
f 912 971 977
f 913 976 914
f 914 976 915
f 915 976 975
f 915 975 916
f 916 975 974
f 916 974 917
f 917 922 918
f 917 970 922
f 920 924 921
f 922 970 923
f 924 969 927
f 927 930 928
f 927 969 930
f 929 930 934
f 930 969 1011
f 930 1011 1012
f 930 1012 1013
f 930 1013 934
f 931 980 1014
f 931 1014 933
f 931 933 932
f 931 935 1015
f 931 1015 980
f 933 1014 940
f 933 940 939
f 934 1013 935
f 935 1016 1015
f 935 1013 1016
f 940 1014 980
f 940 980 941
f 942 948 943
f 943 948 1017
f 943 1017 949
f 946 1003 947
f 947 1003 1002
f 947 1002 1001
f 947 1001 999
f 947 999 948
f 948 999 998
f 948 998 996
f 948 995 1018
f 948 1018 1019
f 948 1019 950
f 948 950 1017
f 949 1017 950
f 950 952 951
f 950 1019 952
f 952 1019 953
f 953 1019 991
f 953 990 954
f 954 990 955
f 955 990 960
f 955 960 959
f 957 964 963
f 957 963 1020
f 957 1020 1021
f 957 1021 966
f 957 966 965
f 960 989 988
f 960 988 961
f 961 988 985
f 961 985 962
f 962 985 963
f 963 1022 1023
f 963 1023 1021
f 963 1021 1020
f 963 984 983
f 963 983 986
f 963 986 987
f 963 987 1022
f 966 968 967
f 966 1021 969
f 966 969 968
f 969 1021 1011
f 980 1015 987
f 980 987 982
f 980 982 981
f 987 1015 1016
f 987 1016 1022
f 991 1019 992
f 992 1019 1024
f 992 1024 994
f 994 1024 995
f 995 1024 1018
f 1003 1025 1004
f 1004 1025 1026
f 1004 1026 1027
f 1004 1027 1007
f 1004 1007 1006
f 1005 1007 1027
f 1011 1021 1012
f 1012 1022 1016
f 1012 1016 1013
f 1012 1021 1023
f 1012 1023 1022
f 1018 1024 1019

