# https://github.com/mikedh/trimesh
v 115.07073375 63.18409328 29.12560787
v 115.05043873 64.04682104 29.12560787
v 115.07073375 62.75539288 29.12560787
v 114.99361012 63.18409328 28.89335783
v 115.02811293 64.56472343 29.12560787
v 114.96925610 64.04682104 28.89335783
v 114.93475329 64.90954816 28.89335783
v 110.19567555 62.75539288 29.12560787
v 114.99361012 62.75539288 28.89335783
v 114.84139107 62.75539288 28.45819361
v 114.68917203 63.18409328 28.03036465
v 115.01187692 64.90954816 29.12560787
v 114.65873079 64.04682104 28.03036465
v 114.88604268 65.77227560 28.89335783
v 114.98346132 65.45674112 29.12560787
v 114.62219719 64.90954816 28.03036465
v 114.57957637 65.77227560 28.03036465
v 107.55721808 76.35666143 29.12560787
v 94.33854078 62.75539288 11.22033454
v 114.68917203 62.75539288 28.03036465
v 114.56536857 62.75539288 27.70521381
v 114.44156512 63.18409328 27.38495294
v 114.42735732 64.04682104 27.41184480
v 114.81500884 66.63367146 28.89335783
v 114.96113809 65.77227560 29.12560787
v 114.40909052 64.90954816 27.46073920
v 114.38676472 65.77227560 27.52185818
v 114.36849792 66.31014879 27.57075259
v 114.48824494 66.61236940 27.97657964
v 112.76512739 76.35666143 29.12560787
v 100.76014346 76.35666143 19.36376239
v 94.33854078 75.45798810 13.66507422
v 94.33854078 62.75539288 4.15014672
v 114.44156512 62.75539288 27.38495294
v 114.35429269 62.75539288 27.16737083
v 114.26702027 63.18409328 26.95223402
v 113.99099777 64.04682104 26.30682295
v 114.25890226 64.04682104 26.98157118
v 114.24266625 64.90954816 27.02802093
v 114.71758762 67.49639858 28.89335783
v 114.79471125 67.49639858 29.12560787
v 114.88807089 66.64299091 29.12560787
v 114.91242748 66.36074077 29.12560787
v 113.95649496 64.90954816 26.30682295
v 114.21221987 65.77227560 27.08913926
v 114.33602589 66.88530010 27.65143009
v 113.88951755 65.77227560 26.30682295
v 113.81239392 66.63367146 26.30682295
v 113.52013283 67.49639858 25.81054040
v 113.72309071 67.49639858 26.30682295
v 114.07218040 67.49639858 27.16981613
v 114.45982935 67.49639858 28.17949381
v 113.20148952 75.02262980 29.12560787
v 112.73062458 76.35666143 29.02292846
v 100.76014346 76.35666143 11.72395105
v 94.33854078 75.45798810 6.86136420
v 94.33854078 63.18542486 4.15014672
v 99.48759326 62.75539288 7.91749163
v 114.26702027 62.75539288 26.95223402
v 114.13306802 62.75539288 26.62708383
v 113.99911578 63.18409328 26.30682295
v 113.65408508 64.04682104 25.51961668
v 114.40503152 68.36045728 28.32617704
v 114.37052871 68.88235409 28.42152248
v 114.60393039 68.36045728 28.89335783
v 114.68308481 68.36045728 29.12560787
v 113.63784907 64.90954816 25.56362178
v 113.60131804 65.77227560 25.63207472
v 114.29949229 67.49639858 27.74677425
v 113.56275365 66.63367146 25.71030629
v 113.49374803 67.93841349 25.86921408
v 113.33138276 67.49639858 25.37782149
v 113.96664118 68.36045728 27.16981613
v 114.24875347 68.36045728 27.89345876
v 113.46330422 74.18653041 29.12560787
v 113.32529297 74.38490359 28.91780439
v 113.04115246 75.25828206 28.89335783
v 112.76918640 76.09970648 28.89824714
v 112.57637732 76.35666143 28.60732278
v 101.27768565 76.35666143 12.16155928
v 100.76014346 76.09038800 11.60904836
v 100.11067724 75.45798810 10.80717351
v 99.73520274 75.45798810 10.50402651
v 99.61951729 75.45798810 10.41112572
v 99.54848088 75.45798810 10.35489735
v 99.22983756 75.45798810 10.11042273
v 98.60472536 75.45798810 9.63858739
v 98.18663261 75.45798810 9.33055044
v 97.36667798 75.45798810 8.74870300
v 97.14951488 75.45798810 8.59957383
v 96.71721176 75.45798810 8.31842938
v 96.03527352 75.45798810 7.88082051
v 95.61514741 75.45798810 7.61923330
v 94.93929767 75.45798810 7.21096159
v 94.77084133 75.45798810 7.11072812
v 94.46640452 75.45798810 6.93226051
v 94.61456456 74.98135727 6.84913963
v 94.33854078 75.13978950 6.75135081
v 98.39973671 65.77227560 7.28185919
v 99.38611561 65.77227560 7.98349864
v 99.98281222 65.77227560 8.41377354
v 99.42873643 64.90954816 7.95416276
v 100.01934582 64.90954816 8.38443766
v 99.46120846 64.04682104 7.93460551
v 99.48759326 63.18542486 7.91749163
v 94.33854078 64.04682104 4.28460794
v 96.67662173 68.35912634 6.46287111
v 97.23069752 68.35912634 6.82224841
v 97.66299807 68.35912634 7.10339286
v 98.31449507 68.35912634 7.53366648
v 98.74679562 68.35912634 7.82459085
v 98.80565245 67.76134108 7.78547635
v 98.85030406 67.18618977 7.75124859
v 98.39973671 66.63500272 7.37475869
v 98.89495566 66.63500272 7.72191272
v 100.05587685 62.75539288 8.34776525
v 113.99911578 62.75539288 26.30682295
v 113.65611587 63.18409328 25.50739276
v 113.46330422 63.18409328 25.07711850
v 113.45721700 64.04682104 25.08934242
v 114.20410186 69.19123163 28.09148234
v 114.32384888 69.45750571 28.55353906
v 114.47200636 69.19123163 28.86157601
v 114.59784317 68.94759119 29.12560787
v 113.43489120 64.90954816 25.13090286
v 113.40647560 65.77227560 25.19935580
v 113.37400358 66.63367146 25.28003203
v 113.28876194 68.27924379 25.52695065
v 113.44909642 68.51489605 25.97678280
v 113.57898967 69.22185346 26.53907299
v 113.84283773 69.22185346 27.16981613
v 113.04723968 66.63367146 24.58083659
v 112.95590826 67.49639858 24.58083659
v 112.80977900 68.35246909 24.52216292
v 113.54854843 73.88297790 29.12560787
v 113.42068340 73.70324297 28.64888322
v 112.98229306 74.39555494 28.03036465
v 112.65147016 74.89348718 27.54630602
v 112.74280416 75.21168450 28.05970052
v 112.55811052 75.46863816 27.78833469
v 112.66567796 75.80148157 28.36284816
v 112.44851229 76.09970648 28.05970052
v 112.02636054 76.19955950 27.08913926
v 111.90661351 76.35666143 26.93267613
v 101.30001145 76.35666143 12.18111717
v 101.44614328 75.74689453 12.05399120
v 100.76014346 75.13978950 11.21055591
v 100.58356783 75.45798810 11.19344268
v 100.67693004 75.07322082 11.11276581
v 100.30551711 74.39555494 10.55047626
v 99.74737975 74.93475971 10.31089096
v 99.29681240 75.23697936 10.07864092
v 98.79753444 74.75635637 9.51635201
v 98.66967199 75.25828206 9.60925152
v 98.23939965 75.25828206 9.29143594
v 97.53919461 75.32751390 8.81960060
v 97.82536590 74.54599898 8.72669981
v 97.24896432 75.08786690 8.53601149
v 96.23417239 74.80561709 7.77080712
v 96.10630736 75.25828206 7.85148335
v 95.67400681 75.25828206 7.58011752
v 94.92103216 75.26493867 7.12784071
v 94.78707991 74.39555494 6.75379547
v 94.33854078 74.36093902 6.49709758
v 95.21938046 74.39555494 6.99582414
v 99.32522799 66.63500272 8.02994967
v 99.91786560 66.63500272 8.46022458
v 100.41511277 65.77227560 8.73892309
v 100.03964083 64.04682104 8.36487785
v 100.45164637 64.90954816 8.70958721
v 100.05587685 63.18542486 8.34776525
v 94.33854078 67.19284671 4.82978426
v 96.00077071 69.22052188 6.18417131
v 96.12254594 68.35912634 6.11082906
v 97.15763289 68.96623073 6.86869816
v 98.20489684 69.22052188 7.60700874
v 98.63719996 69.22052188 7.90282241
v 99.70678972 68.83975062 8.61668771
v 99.26230959 68.35912634 8.20597006
v 99.84074196 67.49773016 8.51645295
v 100.48817739 62.75539288 8.68025005
v 113.65611587 62.75539288 25.50739276
v 113.46330422 62.75539288 25.07711850
v 113.23599233 63.18409328 24.58083659
v 112.83413302 63.18409328 23.73006734
v 113.21366653 64.04682104 24.58083659
v 112.59261333 64.90954816 23.36824602
v 113.17307392 64.90954816 24.58083659
v 114.26904849 70.08324964 28.70755753
v 114.02346980 70.08324964 28.03036465
v 114.41518031 70.08324964 29.12560787
v 114.55927878 69.20055140 29.12560787
v 112.77121718 65.77227560 23.85474866
v 113.11624531 65.77227560 24.58083659
v 112.77121718 69.22185346 24.72018649
v 113.10000930 69.22185346 25.44382977
v 113.39023959 69.22185346 26.10635408
v 113.52622262 69.82230123 26.66131030
v 112.95184925 70.08324964 25.44382977
v 113.66220309 70.09922602 27.11603176
v 112.56420031 65.77227560 23.42447504
v 112.73468358 66.63367146 23.93787018
v 112.68800376 67.49639858 24.03810430
v 112.64944195 68.05823666 24.11144655
v 112.60682113 68.63338797 24.19701273
v 112.56216952 69.22185346 24.28991287
v 113.65205686 73.48090394 29.12560787
v 113.58507946 73.46226440 28.91780439
v 113.49983782 73.12809071 28.44108102
v 113.27861315 73.46226440 28.10370690
v 112.72453736 74.39555494 27.36295039
v 112.55405152 74.39555494 26.93267613
v 112.42213006 75.21168450 27.22359985
v 111.87008249 75.96390853 26.51462579
v 111.79701786 76.35666143 26.67108892
v 101.76478660 76.35666143 12.60161217
v 101.82567421 76.06509185 12.53071521
v 101.55573893 75.25828206 11.95620110
v 100.76014346 74.98002569 11.14699228
v 102.33712918 75.80813689 12.89009187
v 102.46093263 75.25828206 12.77763383
v 100.76014346 74.71508255 11.04431351
v 100.76014346 74.39555494 10.92207621
v 100.45570537 73.70457327 10.43068426
v 99.87321399 74.39555494 10.21554680
v 99.23592478 74.43948934 9.73882215
v 98.93148926 74.17987252 9.41367132
v 97.97352338 73.97084799 8.62402168
v 96.38233243 74.23179640 7.67546168
v 95.89320070 74.46878023 7.44076698
v 95.35739171 73.91226750 6.91759257
v 94.33854078 73.53948443 6.25017831
v 100.34813793 66.63500272 8.78781878
v 100.76014346 66.63367146 9.11296833
v 100.89206492 66.63367146 9.21809368
v 100.75811267 65.77227560 9.01517951
v 100.76014346 64.89889713 8.95650519
v 101.47252551 63.18409328 9.44789907
v 100.76014346 63.18409328 8.89049691
v 100.48817739 63.18542486 8.68025005
v 94.33854078 67.49773016 4.88601392
v 96.74359657 69.23916142 6.65356200
v 94.33854078 68.46696691 5.07181550
v 95.45887193 69.87289289 5.99592636
v 95.35942121 70.44804452 6.05460068
v 95.77345625 70.12851627 6.23551038
v 96.42089425 70.94464518 6.79535591
v 96.85116658 70.94464518 7.05938777
v 96.99120605 70.08324964 6.97382223
v 98.07297538 70.08324964 7.69257556
v 97.53919461 70.08324964 7.33564419
v 97.99585175 70.59582668 7.74635928
v 98.50527593 70.08324964 7.99572320
v 98.98019730 70.94464518 8.52134226
v 99.10806233 70.08324964 8.42599682
v 99.31102020 69.16460455 8.38688232
v 99.75752854 68.35912634 8.58001530
v 99.63169430 69.41357067 8.67536074
v 100.04775884 69.16460455 8.94183726
v 100.65054523 69.22052188 9.41611597
v 100.76014346 69.04877515 9.46990098
v 100.76014346 68.36045728 9.34766431
v 100.76014346 68.26726151 9.33299509
v 100.27101173 67.49773016 8.84649310
v 100.76014346 62.75539288 8.89049691
v 113.23599233 62.75539288 24.58083659
v 112.83413302 62.75539288 23.73006734
v 112.62508536 63.18409328 23.29979308
v 112.81992779 64.04682104 23.75940386
v 112.60884934 64.04682104 23.32912960
v 112.32470884 64.90954816 22.85485024
v 112.26990844 65.77227560 22.85485024
v 114.29137429 70.75026545 29.12560787
v 113.59116925 70.94597676 27.35806108
v 113.52825084 71.54642454 27.50963490
v 113.84892495 70.94597676 28.03036465
v 112.69815256 70.08324964 24.86931566
v 112.49113568 70.08324964 24.43659674
v 113.46939401 70.39612128 26.79332623
v 112.65147016 70.60115236 24.96955042
v 113.15480712 70.94597676 26.30682295
v 113.41662440 70.94597676 26.92534216
v 112.52157692 66.63367146 23.50759592
v 112.18466680 66.63367146 22.85485024
v 112.46880988 67.49639858 23.60538538
v 111.94720612 68.34314996 22.79862122
v 112.44039428 68.35246909 23.77896175
v 111.74221746 68.61874317 22.47347103
v 112.27397001 69.22185346 23.71784342
v 113.85298395 72.67010006 29.12560787
v 113.77383210 72.67010006 28.89335783
v 113.55666643 72.67010006 28.28217194
v 113.40038838 72.67010006 27.85189832
v 112.84631260 73.59673334 27.09891853
v 112.61899814 73.92558201 26.76398907
v 112.28208802 74.39555494 26.30682295
v 111.98576793 75.28890324 26.26037255
v 111.73613024 75.59511763 25.94011168
v 111.61232422 76.35666143 26.26770717
v 102.21332316 76.35666143 13.00988388
v 102.73898592 74.33298100 12.66517580
v 101.74246079 74.39555494 11.78751468
v 101.26348042 74.39555494 11.35723978
v 102.89120497 75.25828206 13.18835020
v 103.04139323 74.57795302 13.03922104
v 100.83117730 74.39555494 10.98319518
v 101.37713508 73.84703040 11.25456101
v 100.56733181 73.12809071 10.34267406
v 99.74129253 72.35589684 9.45278838
v 99.50180106 73.53282782 9.63858739
v 100.97324756 73.48889213 10.79495023
v 99.06950051 73.53282782 9.30854853
v 98.23128165 72.67010006 8.44311070
v 97.78680409 71.80737230 7.89059913
v 97.35653176 71.80737230 7.59478546
v 97.21648972 72.48503946 7.69257556
v 97.08862726 73.06152267 7.77814109
v 96.54875670 73.53282782 7.56789424
v 98.66358220 72.67010006 8.74870300
v 95.48728495 73.33578494 6.83936101
v 94.66936368 71.80737230 5.95191998
v 94.55570645 72.31063021 6.02037292
v 94.33854078 72.82586977 6.04482077
v 94.33854078 73.15738159 6.14016622
v 95.78969226 73.58741357 7.09850355
v 96.75171457 72.73134307 7.46277017
v 96.06571733 72.67010006 7.01293802
v 100.76014346 67.49639858 9.22542765
v 100.94686532 65.77227560 9.16919799
v 101.25739063 67.49639858 9.62391945
v 101.32233725 66.63367146 9.57258039
v 102.29856737 66.30216060 10.34022812
v 101.40757889 65.16383963 9.49923814
v 101.44614328 64.04682104 9.46990098
v 102.36757299 64.90954816 10.28155509
v 102.38583979 64.04682104 10.26199656
v 101.90279785 63.18409328 9.81705500
v 101.47252551 62.75539288 9.44789907
v 94.33854078 70.92334377 5.57298543
v 94.84187774 70.94464518 5.85413116
v 95.27215007 70.94464518 6.10593846
v 95.81404885 70.94464518 6.43109058
v 96.31332681 71.53577319 6.86136420
v 96.63197012 71.81669207 7.13028537
v 97.58587443 70.90869832 7.53366648
v 97.90451775 71.17230924 7.80992291
v 98.88683765 71.51846587 8.58734927
v 99.41250042 70.94464518 8.83182388
v 99.53833466 70.08324964 8.74381368
v 99.98484300 70.94464518 9.26209749
v 100.17968287 70.05129688 9.22542765
v 100.58153961 69.74375027 9.46990098
v 100.76014346 69.22185346 9.50168279
v 101.18229522 68.36045728 9.68259377
v 112.62508536 62.75539288 23.29979308
v 112.38356567 63.18409328 22.85485024
v 112.35718086 64.04682104 22.85485024
v 111.94720612 64.04682104 22.10187044
v 111.93299832 64.90954816 22.13609692
v 111.90661351 65.77227560 22.18499197
v 111.86399270 66.63367146 22.25588892
v 114.23657646 71.01254544 29.12560787
v 113.34558799 71.82334932 27.20159730
v 113.46736322 72.12157616 27.66854269
v 111.91270330 69.22185346 23.00642406
v 112.12580997 70.08324964 23.71784342
v 111.94111633 70.89937855 23.68606160
v 112.42009927 70.91136084 24.64195493
v 111.73613024 72.96433281 24.21657062
v 112.58449532 71.17630398 25.11378963
v 112.97011605 71.80737230 26.30682295
v 112.08521737 67.49639858 22.85485024
v 111.81528466 67.49639858 22.33901044
v 111.78281006 68.04359154 22.39523946
v 111.68944785 69.22185346 22.57370514
v 111.54940838 68.34314996 22.06275466
v 111.01156861 69.22185346 21.38800675
v 111.36268652 69.22185346 21.99430204
v 113.90575356 72.45042418 29.12560787
v 114.05594182 71.82334932 29.12560787
v 113.97881819 71.80737230 28.89335783
v 113.13045310 72.67010006 27.16981613
v 112.70018077 73.35042974 26.58063343
v 112.14001520 73.53282782 25.44382977
v 111.78686906 74.02410216 24.96955042
v 111.90661351 74.34629422 25.44871908
v 111.83152067 75.02129822 25.74208810
v 110.96488879 76.35666143 24.88887355
v 111.23076249 76.35666143 25.45116374
v 111.52911336 76.35666143 26.08924084
v 110.88573437 75.63106513 24.18967812
v 102.25594655 76.35666143 13.05144432
v 103.16114025 74.00413233 12.92431834
v 102.27015177 73.92691230 12.08821767
v 102.70448311 76.09837619 13.38148446
v 103.20173028 75.81346321 13.74819574
v 103.32553630 75.25828206 13.62106848
v 103.75580864 75.25828206 14.06356666
v 103.53255318 74.27972554 13.41815559
v 101.87844383 73.59939650 11.62371629
v 102.02660387 72.67010006 11.44525061
v 101.48470509 73.27187942 11.15921620
v 100.76014346 72.51033561 10.31822493
v 100.27710152 71.80737230 9.71926361
v 99.84480097 71.80737230 9.36966751
v 100.76014346 72.95900713 10.45268616
v 99.20954255 71.80737230 8.90027682
v 101.59430075 72.67010006 11.06631606
v 98.45250632 71.80737230 8.35998853
v 98.77521121 72.09494843 8.66802677
v 96.18749000 72.10959323 6.93470516
v 95.10166423 71.80737230 6.20617450
v 94.33854078 71.80737230 5.77101029
v 94.33854078 72.46506899 5.94458601
v 101.85205902 65.77227560 9.91728847
v 101.77087382 67.49639858 10.05419436
v 102.25391576 66.87731190 10.37689925
v 102.33103939 65.77227560 10.31333562
v 103.15099145 67.10497629 11.21055591
v 103.18346605 66.63367146 11.17877410
v 102.76131172 65.77227560 10.69960543
v 101.76884560 64.88957768 9.78282724
v 102.79784532 64.90954816 10.66537896
v 102.81610955 64.04682104 10.64582171
v 103.31741830 63.18409328 11.06142675
v 102.40207580 63.18409328 10.24732733
v 101.90279785 62.75539288 9.81705500
v 100.41714355 70.94464518 9.60680686
v 100.50238519 70.31757032 9.53346461
v 100.76014346 69.55868967 9.57258039
v 101.08284578 69.22185346 9.76327000
v 101.60241876 69.22185346 10.19354490
v 101.69578097 68.36045728 10.11286739
v 112.38356567 62.75539288 22.85485024
v 111.72395066 63.18409328 21.64225967
v 111.70771465 64.04682104 21.67159650
v 111.68741963 64.90954816 21.70337800
v 111.35862752 64.90954816 21.12886421
v 111.29976812 65.77227560 21.12886421
v 111.61638322 66.63367146 21.82561498
v 111.56970340 67.49639858 21.90629153
v 114.12089101 71.54243044 29.12560787
v 111.83354889 70.08324964 23.16288784
v 111.78281006 70.58384440 23.25823264
v 111.53520058 70.89937855 22.92330318
v 111.71989423 71.15899602 23.37802465
v 111.64479881 71.80737230 23.51981984
v 111.80310508 72.39051276 24.08210939
v 111.87008249 71.80737230 23.95253876
v 111.07854602 72.62083934 22.83773700
v 111.30788612 73.53282782 23.71784342
v 111.65494503 73.53282782 24.38525768
v 111.85587469 73.53282782 24.81797659
v 112.57231832 72.87379955 26.00611996
v 112.77121718 72.62083934 26.29704368
v 112.64538294 72.29864793 25.83987756
v 112.50737169 71.80737230 25.28003203
v 111.29368090 71.80737230 22.85485024
v 110.98518380 71.80737230 22.27544746
v 110.92226797 72.30264202 22.39279481
v 112.70423977 71.80737230 25.71030629
v 110.89588316 70.46668406 21.57625170
v 110.85123155 70.94597676 21.66181756
v 111.60217542 70.08324964 22.73261358
v 111.08260245 68.36045728 21.26821443
v 110.75178212 69.22185346 20.95528784
v 110.95068099 69.89153243 21.48824087
v 111.52505179 74.34629422 24.64195493
v 111.69350942 74.60058601 25.16512933
v 110.79846194 76.12100918 24.37058910
v 110.74975133 76.35666143 24.45126532
v 110.97909401 75.05591414 24.00876778
v 110.74366411 75.30887436 23.71784342
v 110.46358004 76.12100918 23.71784342
v 103.02921622 76.35666143 13.82153799
v 103.24029467 73.53282782 12.85097609
v 103.07589861 71.80737230 12.14689070
v 102.64359549 71.80737230 11.73372968
v 102.18288192 71.80737230 11.30590071
v 104.01559512 73.97883618 13.79709015
v 104.09068797 73.53282782 13.71641392
v 104.23884801 72.67010006 13.56728476
v 103.81263725 72.67010006 13.13456584
v 103.92426370 71.97911903 13.02210780
v 103.94049971 76.35666143 14.73587023
v 104.16781417 75.25828206 14.49628558
v 103.90193789 74.55265559 13.91688215
v 104.05618515 75.80547502 14.61607823
v 100.76014346 72.05633906 10.18620965
v 101.75057880 71.80737230 10.93918944
v 101.23506483 71.80737230 10.50647117
v 100.75811267 71.80737230 10.11286739
v 102.26812356 71.31742889 11.22766915
v 102.20317693 67.49639858 10.42335029
v 102.77551952 67.43515557 10.92452086
v 103.10431163 67.67879634 11.25456101
v 103.51225816 68.36045728 11.73617433
v 103.99123853 67.79728826 12.09555164
v 103.23623309 65.77227560 11.12987905
v 104.06836474 66.63367146 12.01976473
v 103.27276669 64.90954816 11.09809787
v 103.29509249 64.04682104 11.07609533
v 103.74769063 63.18409328 11.45991919
v 103.31741830 62.75539288 11.06142675
v 102.40207580 62.75539288 10.24732733
v 101.34669127 71.11372940 10.41357038
v 100.76014346 70.90603581 9.87817269
v 100.76014346 70.33620986 9.74860206
v 101.42787648 70.53990935 10.34511872
v 102.03472188 69.22185346 10.57247945
v 102.12808152 68.36045728 10.49180194
v 111.72395066 62.75539288 21.64225967
v 111.43169215 63.18409328 21.12886421
v 111.39718933 64.04682104 21.12886421
v 111.00750960 64.90954816 20.52990321
v 110.97909401 65.77227560 20.57390830
v 111.21452648 66.63367146 21.12886421
v 110.93444241 66.63367146 20.64969522
v 111.09275124 67.42051077 21.07752482
v 111.08260245 70.94597676 22.09453648
v 110.84311355 72.87779365 22.53703402
v 111.06027922 74.33298100 23.71784342
v 110.98924280 73.53282782 23.13843999
v 110.91820639 74.00546391 23.26312195
v 110.74772312 71.80737230 21.84272822
v 110.64624290 72.62083934 22.06031000
v 110.71118952 70.14049855 21.17286962
v 110.52649845 70.94597676 21.12886421
v 110.28497619 71.81402955 21.07752482
v 110.86949835 67.65616303 20.75726394
v 110.65639169 67.42051077 20.35143721
v 110.47575705 68.36045728 20.26831601
v 110.07999010 68.97554985 19.77936807
v 110.38036662 76.35666143 23.72762268
v 110.61579909 76.35666143 24.18723346
v 110.13884693 76.12100918 23.12132676
v 110.82687754 74.58061489 23.43180901
v 110.26874018 75.25961364 22.81817911
v 110.09622611 76.35666143 23.19466901
v 110.25453495 76.35666143 23.48803803
v 103.61373581 71.73814174 12.64317325
v 103.14490423 71.37467780 12.07843840
v 104.27740983 74.31700462 14.21514048
v 104.85787042 73.93223862 14.67719656
v 104.58590692 73.59939650 14.26403553
v 104.67114856 72.67010006 14.01711691
v 104.78480579 71.97778809 13.89488025
v 104.87613722 71.40263647 13.79464549
v 104.01762334 71.40396805 12.93165231
v 103.97297430 76.35666143 14.77009670
v 104.59808393 75.25828206 14.95834165
v 104.76856978 74.39555494 14.77254136
v 100.80276428 71.80737230 10.14953852
v 103.21999708 70.79952618 12.00509615
v 103.31335929 70.08324964 11.91952997
v 103.42092673 69.22185346 11.81929585
v 102.95209259 69.22185346 11.38902159
v 102.33915740 70.74360884 11.16655017
v 103.04342401 68.36045728 11.30590071
v 103.94455871 68.36045728 12.14200139
v 104.93093762 66.63367146 12.87786795
v 104.49863450 66.63367146 12.44514903
v 104.36468225 68.36045728 12.57227565
v 104.84366519 67.76533517 12.96587878
v 103.66650542 65.77227560 11.54059541
v 104.15563459 64.90954816 11.93664320
v 103.70303902 64.90954816 11.50636894
v 104.55140411 65.77227560 12.38892066
v 104.11910356 65.77227560 11.97331433
v 103.72739304 64.04682104 11.48192174
v 104.17796039 64.04682104 11.91219600
v 104.19622719 63.18409328 11.89019345
v 103.74769063 62.75539288 11.45991919
v 102.52182025 69.22185346 11.00275307
v 111.43169215 62.75539288 21.12886421
v 111.04404063 63.18409328 20.48100816
v 111.02780462 64.04682104 20.50056605
v 110.74366411 64.90954816 20.09718429
v 110.71524852 65.77227560 20.14363437
v 110.67059949 66.63367146 20.21942128
v 110.02518970 73.90161615 21.59336494
v 110.18552933 74.39555494 22.16543407
v 110.62797610 74.33298100 22.92819249
v 110.19770376 72.67010006 21.30977486
v 110.10434412 73.32779675 21.45645937
v 110.02316149 69.55070148 19.86982324
v 110.14899573 70.94597676 20.53234787
v 110.08404910 71.52911658 20.63502696
v 110.00692547 72.10559978 20.75481896
v 109.93183006 72.67010006 20.87705595
v 110.18755754 67.49639858 19.61312567
v 110.12869814 68.36045728 19.70113618
v 109.84658842 68.36045728 19.26841743
v 109.81411382 69.24848054 19.45666254
v 109.20320942 70.62112283 18.94326707
v 109.99271768 75.54718849 22.50769750
v 110.09216711 74.97336908 22.33412113
v 109.88717845 76.12100918 22.68860784
v 109.23568145 76.35666143 21.72293589
v 105.16839830 74.39555494 15.20281562
v 105.70014828 73.86167520 15.56463694
v 105.85033654 70.08324964 14.53295671
v 105.94978855 69.22185346 14.42049867
v 104.93093762 70.94597676 13.73841647
v 104.50878329 70.94597676 13.30569755
v 105.78742071 73.28785580 15.46440283
v 106.01067360 71.80737230 15.21259425
v 105.70623807 71.27216227 14.69430979
v 104.07648274 70.94597676 12.87297864
v 104.74624397 76.35666143 15.62575527
v 104.89440402 75.75088927 15.49862865
v 104.99588424 75.25828206 15.38861591
v 103.74362906 70.08324964 12.33513565
v 103.85322728 69.22185346 12.23001222
v 104.28146883 69.22185346 12.66273114
v 104.98573545 65.77227560 12.81919427
v 105.64331967 68.36045728 13.89488025
v 105.69608928 67.66681405 13.84109524
v 105.73465110 67.09299368 13.79953480
v 105.36120738 66.63367146 13.33747937
v 105.12577748 69.22185346 13.53550294
v 105.21101912 68.36045728 13.44749275
v 104.58590692 64.90954816 12.35713884
v 104.61026351 64.04682104 12.34002496
v 104.62852774 63.18409328 12.32535703
v 104.41136207 62.75539288 12.10533026
v 104.19622719 62.75539288 11.89019345
v 111.04404063 62.75539288 20.48100816
v 110.56302948 62.75539288 19.72558371
v 110.35804339 63.18409328 19.40532283
v 110.06375409 63.18409328 18.94571173
v 110.05157451 63.81249972 18.96038031
v 110.31136099 64.90954816 19.43221501
v 110.28497619 65.77227560 19.47866508
v 110.24032715 66.63367146 19.53978341
v 109.84861664 73.58208854 21.15331173
v 109.27627405 74.23978459 20.55679507
v 109.50358851 74.47543684 21.04818798
v 109.94400707 74.39555494 21.73271484
v 109.40413908 70.92334377 19.35398344
v 109.87500144 70.94597676 20.09962895
v 109.33919246 71.80737230 19.58623349
v 109.14029102 71.19494288 19.03372240
v 109.24988924 72.48237695 19.73047334
v 109.38384149 73.53282782 20.39299765
v 109.90341446 67.49639858 19.18285157
v 109.41631609 68.36045728 18.64500906
v 109.34122067 69.22185346 18.75013249
v 109.25597903 70.08324964 18.86748016
v 108.94951016 70.08324964 18.43476125
v 108.90080212 70.92334377 18.61078259
v 109.81208561 75.25961364 22.02608385
v 109.24786103 75.87603715 21.44668043
v 109.16058860 76.35666143 21.59580959
v 105.60069885 74.39555494 15.68198429
v 105.95587577 74.39555494 16.11225855
v 106.38614810 74.39555494 16.64765656
v 106.50792334 73.69392321 16.49852739
v 106.59925476 73.11877158 16.38362470
v 106.67028861 72.67010006 16.29561419
v 106.80424085 71.80737230 16.13670575
v 106.44297672 71.80737230 15.70398684
v 106.53633636 71.13369987 15.59397410
v 106.60534198 70.55854825 15.51574189
v 106.03097118 68.36045728 14.32759852
v 105.55807803 69.22185346 13.99022441
v 106.38005831 69.22185346 14.91922587
v 106.46124352 68.36045728 14.82388107
v 105.03038705 70.08324964 13.63329304
v 104.61229173 70.08324964 13.20301814
v 104.18201940 70.08324964 12.76785521
v 104.77262878 76.32604025 15.64042385
v 105.44442080 76.35666143 16.45207732
v 105.13592370 76.07174846 15.94112684
v 105.71435608 75.64437835 16.41051688
v 105.47892361 75.31686255 15.97290865
v 105.76306669 66.63367146 13.77019764
v 105.41600778 65.77227560 13.28369501
v 105.44645159 64.90954816 13.24702388
v 105.01820747 64.90954816 12.78985711
v 106.02488139 67.42716738 14.16869073
v 106.26031386 66.60704405 14.31293058
v 105.03444605 64.04682104 12.77029987
v 104.62852774 62.75539288 12.32535703
v 105.47892361 63.18409328 13.19812883
v 110.20988334 62.75539288 19.17307262
v 110.06375409 62.75539288 18.94571173
v 109.91559405 62.75539288 18.72568529
v 109.76946222 63.18409328 18.51299281
v 110.02518970 64.90954816 19.00194075
v 109.81005482 64.07744222 18.62300620
v 109.99474589 65.77227560 19.04594617
v 109.95212507 66.63367146 19.10950931
v 109.09564198 73.53282782 19.96027873
v 108.64507463 73.60871499 19.32220163
v 108.31222352 73.94821500 18.98238286
v 108.52735840 74.39555494 19.52511516
v 108.40761395 75.08121029 19.70113618
v 109.17682462 74.81360399 20.70592423
v 109.36151826 75.25828206 21.26332479
v 109.05910838 71.80737230 19.15351473
v 108.35890334 71.52512248 18.05827135
v 108.59230502 71.81136704 18.49099027
v 109.16870661 73.05752857 19.85515498
v 109.56650435 66.63367146 18.54477431
v 109.22756344 66.63367146 18.04849240
v 109.42037509 67.46843991 18.47876666
v 109.19306063 67.16222488 18.09494248
v 109.15449881 67.73737651 18.15117149
v 109.10984978 68.36045728 18.21473480
v 108.33048775 68.85439542 17.23439395
v 109.03475436 69.22185346 18.31985823
v 108.27163092 69.42954705 17.31507050
v 108.51720961 70.08324964 17.83824491
v 108.42790897 70.94597676 17.96537120
v 108.96777696 76.14630533 21.14842210
v 109.08955219 76.35666143 21.47601727
v 105.82801331 75.07055894 16.27116666
v 106.52415935 75.50591724 17.33707305
v 106.63375758 74.92943339 17.20261246
v 106.73117622 74.39555494 17.07793082
v 107.53895128 74.20117521 18.00693196
v 107.30960860 73.53282782 17.43730748
v 106.82453844 73.45693937 16.79678573
v 107.14115354 72.65012958 16.87990693
v 107.23451319 71.80737230 16.67699340
v 107.34613963 70.94597676 16.53764318
v 106.85701046 70.88606533 15.91178968
v 106.74335323 69.22185346 15.34949949
v 107.47806366 69.74907594 16.36406681
v 107.53286149 69.22185346 16.29805884
v 106.52821835 67.49639858 14.74320420
v 107.25277999 68.36045728 15.77243978
v 105.92340374 76.35666143 17.01925682
v 105.61287586 76.12100918 16.53030921
v 105.97211178 76.12100918 16.95813849
v 106.40441490 76.12100918 17.48620221
v 106.60534198 66.30082902 14.65274935
v 106.63375758 65.77227560 14.62096754
v 105.84424932 64.90954816 13.67729814
v 105.86860334 64.04682104 13.65285029
v 105.89092915 63.18409328 13.63084774
v 106.56881096 66.87598065 14.69430979
v 105.47892361 62.75539288 13.19812883
v 105.68391227 62.75539288 13.41326628
v 109.76946222 62.75539288 18.51299281
v 109.33919246 63.18409328 17.89691858
v 109.32295387 64.04682104 17.91403182
v 109.71466439 64.90954816 18.54477431
v 109.65580756 65.77227560 18.54477431
v 109.30265886 64.90954816 17.93847902
v 109.27221505 65.77227560 17.98003946
v 108.97589496 72.72867991 19.42732538
v 108.39746516 73.37439431 18.85770122
v 108.11941187 73.60871499 18.55944289
v 107.78656076 74.45147227 18.47387703
v 108.23509732 74.39555494 19.09239624
v 108.11941187 75.32485074 19.41021246
v 108.30613373 75.65636128 19.85515498
v 108.51112239 76.12100918 20.41011088
v 108.46850157 76.35666143 20.47611885
v 109.09767020 75.25828206 20.83549551
v 108.50300438 72.67010006 18.71346136
v 107.67290352 70.94597676 16.96302813
v 107.56330530 71.80737230 17.10726766
v 107.48821245 72.34924023 17.20994675
v 107.72364235 72.65012958 17.63533138
v 108.27772071 72.10027411 18.16583975
v 108.19653550 72.67010006 18.28074245
v 108.91906892 66.63367146 17.61577349
v 108.91094834 67.46843991 17.75756836
v 108.36904956 68.36045728 17.18060991
v 108.72828805 68.36045728 17.68178145
v 108.04025745 68.36045728 16.74789100
v 108.00575464 69.17525525 16.89457518
v 107.71958335 70.05395939 16.76500423
v 108.19856629 70.08324964 17.40797065
v 108.76481908 76.35666143 20.95039820
v 107.43747106 74.77632620 18.13894789
v 107.21015917 74.45147227 17.70378400
v 107.64245972 73.53282782 17.86758174
v 107.40296824 72.92306027 17.31751515
v 107.41514525 70.32422693 16.44474335
v 107.60998769 68.36045728 16.20271404
v 107.31975482 67.49639858 15.69420821
v 107.37861423 66.63367146 15.62331062
v 106.88339527 66.60704405 15.02679460
v 106.20348524 76.35666143 17.35907592
v 106.69667341 76.35666143 17.97759480
v 106.74335323 76.12100918 17.91892113
v 107.03561432 65.77227560 15.09524690
v 107.45167885 65.23706492 15.53529978
v 106.66420139 64.90954816 14.58429641
v 106.27654987 64.90954816 14.15402215
v 106.30090646 64.04682104 14.13201960
v 105.89092915 62.75539288 13.63084774
v 106.32322969 63.18409328 14.11490637
v 106.10606403 62.75539288 13.87043240
v 109.33919246 62.75539288 17.89691858
v 109.02257735 63.18409328 17.46419966
v 109.00836956 64.04682104 17.48375756
v 108.99416176 64.90954816 17.50820476
v 108.96371795 65.77227560 17.54732086
v 107.65057772 75.25828206 18.70123776
v 108.21683309 76.12100918 19.97983662
v 108.17826870 76.35666143 20.06051317
v 108.48676580 66.63367146 17.03148075
v 108.43196797 67.49639858 17.09993337
v 108.09911685 67.49639858 16.66965911
v 107.34411141 75.25828206 18.26851917
v 107.66884452 67.49639858 16.12692713
v 107.42732483 65.77227560 15.56463694
v 107.72161413 66.63367146 16.05602953
v 106.97675749 76.35666143 18.35897434
v 107.76626574 65.77227560 15.99491120
v 108.53344562 65.77227560 16.97280707
v 108.56186121 64.90954816 16.93369097
v 108.22901010 64.90954816 16.50586168
v 107.73581936 64.93351273 15.87756385
v 108.25133590 64.04682104 16.47652485
v 107.46588665 64.66191362 15.51574189
v 107.16550756 64.93351273 15.17592312
v 107.11273795 64.04682104 15.06835504
v 106.68246819 64.04682104 14.56473852
v 106.69667341 63.18409328 14.54518063
v 106.50792334 62.75539288 14.32759852
v 106.32322969 62.75539288 14.11490637
v 109.02257735 62.75539288 17.46419966
v 108.27163092 63.18409328 16.45207732
v 108.57809722 64.04682104 16.90435413
v 107.76626574 76.14763691 19.35153847
v 107.52880248 76.35666143 19.13151202
v 108.15188390 66.63367146 16.60120649
v 107.84541759 64.04682104 15.96068473
v 107.48009445 64.04682104 15.50107395
v 107.49429967 63.18409328 15.48151606
v 107.30960860 62.75539288 15.26393395
v 106.69667341 62.75539288 14.54518063
v 108.27163092 62.75539288 16.45207732
v 107.87992040 63.18409328 15.96068473
v 107.49429967 62.75539288 15.48151606
v 107.87992040 62.75539288 15.96068473
f 1 2 5
f 1 5 12
f 1 12 15
f 1 15 25
f 1 25 43
f 1 43 42
f 1 42 41
f 1 41 66
f 1 66 124
f 1 124 192
f 1 192 191
f 1 191 273
f 1 273 362
f 1 362 442
f 1 442 380
f 1 380 379
f 1 379 290
f 1 290 207
f 1 207 135
f 1 135 75
f 1 75 53
f 1 53 30
f 1 30 18
f 1 18 8
f 1 8 3
f 1 3 9
f 1 9 4
f 1 4 2
f 2 4 6
f 2 6 7
f 2 7 5
f 3 8 19
f 3 19 33
f 3 33 58
f 3 58 116
f 3 116 181
f 3 181 265
f 3 265 338
f 3 338 427
f 3 427 505
f 3 505 504
f 3 504 573
f 3 573 627
f 3 627 626
f 3 626 684
f 3 684 744
f 3 744 745
f 3 745 796
f 3 796 798
f 3 798 827
f 3 827 826
f 3 826 838
f 3 838 837
f 3 837 841
f 3 841 842
f 3 842 839
f 3 839 828
f 3 828 799
f 3 799 746
f 3 746 688
f 3 688 687
f 3 687 686
f 3 686 629
f 3 629 628
f 3 628 575
f 3 575 512
f 3 512 434
f 3 434 355
f 3 355 267
f 3 267 266
f 3 266 183
f 3 183 182
f 3 182 117
f 3 117 60
f 3 60 59
f 3 59 35
f 3 35 34
f 3 34 21
f 3 21 20
f 3 20 10
f 3 10 9
f 4 9 10
f 4 10 11
f 4 11 6
f 5 7 12
f 6 11 13
f 6 13 7
f 7 14 15
f 7 15 12
f 7 13 16
f 7 16 17
f 7 17 14
f 8 18 19
f 10 20 11
f 11 20 21
f 11 21 22
f 11 22 23
f 11 23 13
f 13 23 16
f 14 24 25
f 14 25 15
f 14 17 24
f 16 23 26
f 16 26 17
f 17 26 27
f 17 27 28
f 17 28 29
f 17 29 24
f 18 30 54
f 18 54 79
f 18 79 144
f 18 144 215
f 18 215 299
f 18 299 390
f 18 390 389
f 18 389 388
f 18 388 471
f 18 471 535
f 18 535 534
f 18 534 540
f 18 540 539
f 18 539 599
f 18 599 654
f 18 654 717
f 18 717 778
f 18 778 761
f 18 761 806
f 18 806 832
f 18 832 814
f 18 814 789
f 18 789 788
f 18 788 734
f 18 734 673
f 18 673 610
f 18 610 550
f 18 550 485
f 18 485 475
f 18 475 392
f 18 392 300
f 18 300 216
f 18 216 145
f 18 145 80
f 18 80 55
f 18 55 31
f 18 31 32
f 18 32 19
f 19 32 56
f 19 56 98
f 19 98 164
f 19 164 232
f 19 232 324
f 19 324 323
f 19 323 414
f 19 414 413
f 19 413 339
f 19 339 243
f 19 243 241
f 19 241 172
f 19 172 106
f 19 106 57
f 19 57 33
f 21 34 22
f 22 34 35
f 22 35 36
f 22 36 37
f 22 37 38
f 22 38 23
f 23 38 39
f 23 39 26
f 24 40 41
f 24 41 42
f 24 42 43
f 24 43 25
f 24 29 40
f 26 39 27
f 27 39 44
f 27 44 45
f 27 45 28
f 28 46 29
f 28 45 47
f 28 47 48
f 28 48 49
f 28 49 50
f 28 50 51
f 28 51 46
f 29 46 52
f 29 52 40
f 30 53 54
f 31 55 56
f 31 56 32
f 33 57 105
f 33 105 58
f 35 59 36
f 36 59 60
f 36 60 61
f 36 61 37
f 37 61 62
f 37 62 44
f 37 44 38
f 38 44 39
f 40 52 63
f 40 63 64
f 40 64 65
f 40 65 66
f 40 66 41
f 44 62 67
f 44 67 68
f 44 68 47
f 44 47 45
f 46 69 52
f 46 51 69
f 47 68 70
f 47 70 48
f 48 70 49
f 49 71 50
f 49 70 72
f 49 72 71
f 50 71 51
f 51 73 69
f 51 71 73
f 52 69 74
f 52 74 63
f 53 75 76
f 53 76 77
f 53 77 54
f 54 77 78
f 54 78 79
f 55 80 81
f 55 81 82
f 55 82 83
f 55 83 84
f 55 84 85
f 55 85 86
f 55 86 87
f 55 87 88
f 55 88 89
f 55 89 90
f 55 90 91
f 55 91 92
f 55 92 93
f 55 93 94
f 55 94 95
f 55 95 96
f 55 96 56
f 56 96 97
f 56 97 98
f 57 99 100
f 57 100 101
f 57 101 102
f 57 102 103
f 57 103 104
f 57 104 105
f 57 106 107
f 57 107 108
f 57 108 109
f 57 109 110
f 57 110 111
f 57 111 112
f 57 112 113
f 57 113 114
f 57 114 115
f 57 115 99
f 58 105 171
f 58 171 116
f 60 117 61
f 61 117 182
f 61 182 118
f 61 118 62
f 62 118 119
f 62 119 120
f 62 120 67
f 63 74 64
f 64 74 121
f 64 121 122
f 64 122 123
f 64 123 124
f 64 124 66
f 64 66 65
f 67 120 125
f 67 125 126
f 67 126 68
f 68 126 127
f 68 127 70
f 69 73 74
f 70 127 72
f 71 72 128
f 71 128 129
f 71 129 130
f 71 130 131
f 71 131 73
f 72 127 132
f 72 132 133
f 72 133 134
f 72 134 128
f 73 131 74
f 74 131 121
f 75 135 136
f 75 136 137
f 75 137 138
f 75 138 76
f 76 138 77
f 77 138 139
f 77 139 140
f 77 140 141
f 77 141 78
f 78 141 79
f 79 141 140
f 79 140 142
f 79 142 143
f 79 143 144
f 80 145 146
f 80 146 147
f 80 147 148
f 80 148 81
f 81 148 82
f 82 148 149
f 82 149 83
f 83 149 150
f 83 150 151
f 83 151 84
f 84 151 85
f 85 151 152
f 85 152 86
f 86 152 153
f 86 153 154
f 86 154 87
f 87 154 155
f 87 155 88
f 88 155 156
f 88 156 89
f 89 156 157
f 89 157 90
f 90 158 159
f 90 159 91
f 90 157 158
f 91 159 160
f 91 160 92
f 92 160 161
f 92 161 93
f 93 161 94
f 94 162 95
f 94 161 162
f 95 162 96
f 96 162 97
f 97 163 164
f 97 164 98
f 97 162 165
f 97 165 163
f 99 115 100
f 100 115 166
f 100 166 101
f 101 103 102
f 101 166 167
f 101 167 168
f 101 168 170
f 101 170 103
f 103 169 105
f 103 105 104
f 103 170 169
f 105 169 171
f 106 172 173
f 106 173 174
f 106 174 107
f 107 174 175
f 107 175 108
f 108 175 109
f 109 175 110
f 110 176 111
f 110 175 176
f 111 176 177
f 111 177 178
f 111 178 179
f 111 179 112
f 112 179 180
f 112 180 167
f 112 167 166
f 112 166 113
f 113 166 115
f 113 115 114
f 116 171 240
f 116 240 181
f 118 182 183
f 118 183 119
f 119 183 266
f 119 266 184
f 119 184 120
f 120 184 185
f 120 185 186
f 120 186 187
f 120 187 188
f 120 188 125
f 121 189 122
f 121 131 190
f 121 190 189
f 122 189 191
f 122 191 123
f 123 191 192
f 123 192 124
f 125 188 193
f 125 193 194
f 125 194 126
f 126 194 132
f 126 132 127
f 128 134 195
f 128 195 196
f 128 196 129
f 129 196 197
f 129 197 130
f 130 198 131
f 130 197 199
f 130 199 198
f 131 198 200
f 131 200 190
f 132 194 193
f 132 193 201
f 132 201 202
f 132 202 133
f 133 202 203
f 133 203 204
f 133 204 134
f 134 204 205
f 134 205 206
f 134 206 195
f 135 207 208
f 135 208 209
f 135 209 136
f 136 209 210
f 136 210 211
f 136 211 137
f 137 211 138
f 138 211 212
f 138 212 213
f 138 213 140
f 138 140 139
f 140 213 142
f 142 213 143
f 143 213 214
f 143 214 144
f 144 214 215
f 145 216 217
f 145 217 146
f 146 218 219
f 146 219 147
f 146 217 220
f 146 220 221
f 146 221 218
f 147 219 149
f 147 149 148
f 149 219 222
f 149 222 223
f 149 223 150
f 150 223 224
f 150 224 225
f 150 225 151
f 151 225 226
f 151 226 153
f 151 153 152
f 153 155 154
f 153 226 227
f 153 227 228
f 153 228 155
f 155 157 156
f 155 228 157
f 157 228 158
f 158 228 159
f 159 229 230
f 159 230 161
f 159 161 160
f 159 228 229
f 161 230 165
f 161 165 162
f 163 165 231
f 163 231 164
f 164 231 232
f 165 230 231
f 167 180 233
f 167 233 168
f 168 233 234
f 168 234 235
f 168 235 236
f 168 236 237
f 168 237 170
f 169 170 171
f 170 237 238
f 170 238 239
f 170 239 240
f 170 240 171
f 172 241 173
f 173 242 174
f 173 241 243
f 173 243 244
f 173 244 245
f 173 245 246
f 173 246 247
f 173 247 248
f 173 248 249
f 173 249 242
f 174 242 175
f 175 242 249
f 175 249 176
f 176 250 177
f 176 249 251
f 176 251 250
f 177 250 252
f 177 252 253
f 177 253 254
f 177 254 255
f 177 255 256
f 177 256 178
f 178 257 179
f 178 256 258
f 178 258 259
f 178 259 260
f 178 260 261
f 178 261 262
f 178 262 263
f 178 263 257
f 179 257 180
f 180 257 263
f 180 263 264
f 180 264 233
f 181 240 239
f 181 239 265
f 184 266 267
f 184 267 185
f 185 267 355
f 185 355 268
f 185 268 269
f 185 269 186
f 186 269 187
f 187 270 271
f 187 271 272
f 187 272 201
f 187 201 193
f 187 193 188
f 187 269 270
f 189 273 191
f 189 190 273
f 190 200 274
f 190 274 275
f 190 275 276
f 190 276 273
f 195 277 196
f 195 206 278
f 195 278 277
f 196 277 199
f 196 199 197
f 198 279 200
f 198 199 280
f 198 280 281
f 198 281 279
f 199 277 280
f 200 279 282
f 200 282 274
f 201 283 202
f 201 272 284
f 201 284 283
f 202 283 203
f 203 283 285
f 203 285 286
f 203 286 204
f 204 287 205
f 204 286 287
f 205 287 206
f 206 287 288
f 206 288 289
f 206 289 278
f 207 290 291
f 207 291 208
f 208 291 209
f 209 292 293
f 209 293 210
f 209 291 292
f 210 293 294
f 210 294 211
f 211 294 212
f 212 294 295
f 212 295 296
f 212 296 297
f 212 297 213
f 213 297 214
f 214 297 298
f 214 298 299
f 214 299 215
f 216 300 217
f 217 300 220
f 218 221 301
f 218 301 302
f 218 302 303
f 218 303 219
f 219 303 222
f 220 300 304
f 220 304 305
f 220 305 221
f 221 305 301
f 222 306 223
f 222 303 306
f 223 306 307
f 223 307 224
f 224 308 309
f 224 309 310
f 224 310 227
f 224 227 225
f 224 307 311
f 224 311 308
f 225 227 226
f 227 310 312
f 227 312 228
f 228 313 314
f 228 314 315
f 228 315 316
f 228 316 317
f 228 317 318
f 228 318 229
f 228 312 309
f 228 309 319
f 228 319 313
f 229 318 231
f 229 231 230
f 231 320 321
f 231 321 322
f 231 322 323
f 231 323 324
f 231 324 232
f 231 318 325
f 231 325 326
f 231 326 327
f 231 327 320
f 233 264 328
f 233 328 234
f 234 328 235
f 235 329 236
f 235 328 330
f 235 330 331
f 235 331 332
f 235 332 329
f 236 329 333
f 236 333 237
f 237 333 334
f 237 334 238
f 238 334 335
f 238 335 336
f 238 336 337
f 238 337 427
f 238 427 338
f 238 338 265
f 238 265 239
f 243 339 340
f 243 340 244
f 244 340 245
f 245 340 341
f 245 341 246
f 246 341 342
f 246 342 247
f 247 343 248
f 247 342 343
f 248 343 344
f 248 344 315
f 248 315 345
f 248 345 249
f 249 345 251
f 250 251 345
f 250 345 252
f 252 345 346
f 252 346 254
f 252 254 253
f 254 346 347
f 254 347 348
f 254 348 255
f 255 348 349
f 255 349 256
f 256 349 258
f 258 349 350
f 258 350 351
f 258 351 259
f 259 351 352
f 259 352 260
f 260 352 353
f 260 353 261
f 261 353 354
f 261 354 262
f 262 354 263
f 263 354 328
f 263 328 264
f 268 355 434
f 268 434 356
f 268 356 357
f 268 357 270
f 268 270 269
f 270 357 271
f 271 357 358
f 271 358 359
f 271 359 360
f 271 360 272
f 272 360 361
f 272 361 284
f 273 276 362
f 274 282 275
f 275 282 363
f 275 363 364
f 275 364 276
f 276 364 362
f 277 278 280
f 278 289 365
f 278 365 366
f 278 366 367
f 278 367 280
f 279 281 282
f 280 367 368
f 280 368 369
f 280 369 370
f 280 370 371
f 280 371 281
f 281 371 363
f 281 363 282
f 283 284 372
f 283 372 285
f 284 361 373
f 284 373 374
f 284 374 372
f 285 372 374
f 285 374 286
f 286 374 288
f 286 288 287
f 288 375 365
f 288 365 289
f 288 374 376
f 288 376 377
f 288 377 378
f 288 378 375
f 290 379 291
f 291 379 380
f 291 380 381
f 291 381 292
f 292 381 364
f 292 364 293
f 293 364 382
f 293 382 294
f 294 382 295
f 295 382 383
f 295 383 296
f 296 384 385
f 296 385 386
f 296 386 297
f 296 383 384
f 297 386 387
f 297 387 298
f 298 388 389
f 298 389 390
f 298 390 299
f 298 387 391
f 298 391 388
f 300 392 304
f 301 305 393
f 301 393 394
f 301 394 302
f 302 394 307
f 302 307 303
f 303 307 306
f 304 392 395
f 304 395 396
f 304 396 397
f 304 397 305
f 305 397 398
f 305 398 399
f 305 399 393
f 307 394 400
f 307 400 401
f 307 401 402
f 307 402 311
f 308 403 404
f 308 404 405
f 308 405 309
f 308 311 406
f 308 406 403
f 309 312 310
f 309 405 407
f 309 407 319
f 311 402 408
f 311 408 406
f 313 409 314
f 313 319 409
f 314 346 315
f 314 409 347
f 314 347 346
f 315 346 345
f 315 344 316
f 316 344 326
f 316 326 317
f 317 326 318
f 318 326 325
f 319 407 410
f 319 410 409
f 320 327 411
f 320 411 412
f 320 412 321
f 321 340 339
f 321 339 413
f 321 413 322
f 321 412 341
f 321 341 340
f 322 413 414
f 322 414 323
f 326 344 327
f 327 344 411
f 328 354 330
f 329 332 415
f 329 415 333
f 330 354 433
f 330 433 416
f 330 416 417
f 330 417 332
f 330 332 331
f 332 418 415
f 332 417 419
f 332 419 420
f 332 420 421
f 332 421 418
f 333 415 418
f 333 418 335
f 333 335 422
f 333 422 334
f 334 422 335
f 335 418 423
f 335 423 424
f 335 424 336
f 336 424 425
f 336 425 426
f 336 426 337
f 337 426 505
f 337 505 427
f 341 412 343
f 341 343 342
f 343 411 344
f 343 412 411
f 347 409 410
f 347 410 407
f 347 407 405
f 347 405 348
f 348 405 350
f 348 350 349
f 350 405 428
f 350 428 429
f 350 429 352
f 350 352 351
f 352 429 430
f 352 430 353
f 353 430 431
f 353 431 354
f 354 431 432
f 354 432 433
f 356 434 512
f 356 512 435
f 356 435 357
f 357 435 358
f 358 435 436
f 358 436 359
f 359 436 437
f 359 437 360
f 360 437 438
f 360 438 439
f 360 439 361
f 361 439 440
f 361 440 441
f 361 441 373
f 362 364 442
f 363 382 364
f 363 371 382
f 364 381 442
f 365 375 366
f 366 375 443
f 366 443 444
f 366 444 367
f 367 444 445
f 367 445 446
f 367 446 447
f 367 447 448
f 367 448 449
f 367 449 368
f 368 449 448
f 368 448 369
f 369 450 451
f 369 451 452
f 369 452 453
f 369 453 384
f 369 384 454
f 369 454 455
f 369 455 456
f 369 456 457
f 369 457 370
f 369 448 458
f 369 458 459
f 369 459 460
f 369 460 450
f 370 457 456
f 370 456 461
f 370 461 371
f 371 461 456
f 371 456 455
f 371 455 382
f 373 441 374
f 374 441 376
f 375 378 462
f 375 462 463
f 375 463 464
f 375 464 443
f 376 441 465
f 376 465 377
f 377 465 466
f 377 466 467
f 377 467 378
f 378 467 462
f 380 442 381
f 382 455 383
f 383 455 454
f 383 454 384
f 384 453 385
f 385 453 452
f 385 452 468
f 385 468 469
f 385 469 387
f 385 387 386
f 387 469 391
f 388 391 470
f 388 470 471
f 391 472 473
f 391 473 474
f 391 474 470
f 391 469 468
f 391 468 472
f 392 475 395
f 393 476 477
f 393 477 478
f 393 478 479
f 393 479 401
f 393 401 394
f 393 399 480
f 393 480 481
f 393 481 482
f 393 482 483
f 393 483 484
f 393 484 476
f 394 401 400
f 395 475 396
f 396 475 485
f 396 485 397
f 397 485 398
f 398 486 487
f 398 487 399
f 398 485 488
f 398 488 486
f 399 487 480
f 401 479 402
f 402 479 408
f 403 489 404
f 403 406 408
f 403 408 490
f 403 490 491
f 403 491 489
f 404 489 492
f 404 492 428
f 404 428 405
f 408 479 493
f 408 493 490
f 416 433 417
f 417 494 495
f 417 495 419
f 417 433 494
f 418 421 423
f 419 495 496
f 419 496 497
f 419 497 498
f 419 498 420
f 420 499 421
f 420 498 500
f 420 500 499
f 421 499 423
f 423 499 501
f 423 501 502
f 423 502 424
f 424 502 425
f 425 502 503
f 425 503 573
f 425 573 504
f 425 504 505
f 425 505 426
f 428 492 506
f 428 506 507
f 428 507 429
f 429 507 508
f 429 508 430
f 430 508 509
f 430 509 431
f 431 509 432
f 432 509 493
f 432 493 510
f 432 510 511
f 432 511 433
f 433 511 494
f 435 512 575
f 435 575 513
f 435 513 436
f 436 513 514
f 436 514 437
f 437 514 438
f 438 514 515
f 438 515 516
f 438 516 439
f 439 517 440
f 439 516 517
f 440 517 441
f 441 517 518
f 441 518 519
f 441 519 465
f 443 464 463
f 443 463 444
f 444 463 520
f 444 520 445
f 445 520 446
f 446 520 459
f 446 459 458
f 446 458 447
f 447 458 448
f 450 460 521
f 450 521 451
f 451 522 452
f 451 521 523
f 451 523 524
f 451 524 522
f 452 522 472
f 452 472 468
f 459 520 463
f 459 463 525
f 459 525 460
f 460 525 526
f 460 526 521
f 462 467 466
f 462 466 527
f 462 527 528
f 462 528 463
f 463 528 529
f 463 529 525
f 465 519 530
f 465 530 531
f 465 531 532
f 465 532 533
f 465 533 466
f 466 533 527
f 470 474 534
f 470 534 535
f 470 535 471
f 472 522 473
f 473 536 474
f 473 522 537
f 473 537 538
f 473 538 536
f 474 536 539
f 474 539 540
f 474 540 534
f 476 541 477
f 476 484 541
f 477 542 478
f 477 541 542
f 478 542 493
f 478 493 479
f 480 487 543
f 480 543 544
f 480 544 545
f 480 545 546
f 480 546 481
f 481 546 482
f 482 546 547
f 482 547 548
f 482 548 483
f 483 548 484
f 484 548 549
f 484 549 541
f 485 550 488
f 486 543 487
f 486 488 551
f 486 551 552
f 486 552 543
f 488 550 551
f 489 491 553
f 489 553 492
f 490 493 491
f 491 493 553
f 492 553 506
f 493 542 554
f 493 554 555
f 493 555 556
f 493 556 557
f 493 557 558
f 493 558 510
f 493 509 506
f 493 506 553
f 494 511 559
f 494 559 496
f 494 496 495
f 496 559 497
f 497 556 560
f 497 560 498
f 497 559 557
f 497 557 556
f 498 561 562
f 498 562 500
f 498 560 563
f 498 563 564
f 498 564 561
f 499 500 565
f 499 565 566
f 499 566 567
f 499 567 501
f 500 562 568
f 500 568 569
f 500 569 565
f 501 567 570
f 501 570 502
f 502 570 503
f 503 570 571
f 503 571 572
f 503 572 627
f 503 627 573
f 506 509 507
f 507 509 508
f 510 558 574
f 510 574 511
f 511 574 559
f 513 575 628
f 513 628 576
f 513 576 577
f 513 577 514
f 514 577 515
f 515 577 578
f 515 578 516
f 516 518 517
f 516 578 579
f 516 579 580
f 516 580 518
f 518 580 531
f 518 531 519
f 519 531 530
f 521 526 581
f 521 581 523
f 522 524 537
f 523 581 524
f 524 581 582
f 524 582 583
f 524 583 537
f 525 529 584
f 525 584 585
f 525 585 581
f 525 581 526
f 527 533 528
f 528 533 586
f 528 586 587
f 528 587 588
f 528 588 529
f 529 588 589
f 529 589 590
f 529 590 584
f 531 580 591
f 531 591 592
f 531 592 532
f 532 592 533
f 533 592 593
f 533 593 594
f 533 594 595
f 533 595 586
f 536 538 596
f 536 596 539
f 537 583 538
f 538 582 597
f 538 597 596
f 538 583 582
f 539 596 598
f 539 598 599
f 541 549 542
f 542 549 554
f 543 552 544
f 544 552 600
f 544 600 601
f 544 601 546
f 544 546 545
f 546 601 547
f 547 601 548
f 548 602 603
f 548 603 604
f 548 604 605
f 548 605 549
f 548 601 606
f 548 606 607
f 548 607 608
f 548 608 602
f 549 609 554
f 549 605 609
f 550 610 611
f 550 611 612
f 550 612 551
f 551 600 552
f 551 612 600
f 554 609 613
f 554 613 555
f 555 613 614
f 555 614 556
f 556 614 560
f 557 559 574
f 557 574 558
f 560 614 615
f 560 615 563
f 561 616 562
f 561 564 617
f 561 617 618
f 561 618 619
f 561 619 620
f 561 620 616
f 562 616 568
f 563 615 621
f 563 621 622
f 563 622 564
f 564 622 617
f 565 569 566
f 566 569 568
f 566 568 623
f 566 623 571
f 566 571 570
f 566 570 567
f 568 616 623
f 571 623 624
f 571 624 572
f 572 624 625
f 572 625 626
f 572 626 627
f 576 628 629
f 576 629 630
f 576 630 578
f 576 578 577
f 578 630 631
f 578 631 632
f 578 632 633
f 578 633 634
f 578 634 579
f 579 634 635
f 579 635 580
f 580 635 591
f 581 585 636
f 581 636 637
f 581 637 638
f 581 638 639
f 581 639 582
f 582 639 597
f 584 590 636
f 584 636 585
f 586 640 641
f 586 641 587
f 586 595 640
f 587 641 588
f 588 642 589
f 588 641 643
f 588 643 642
f 589 642 644
f 589 644 590
f 590 644 645
f 590 645 636
f 591 635 646
f 591 646 593
f 591 593 592
f 593 646 647
f 593 647 648
f 593 648 594
f 594 648 649
f 594 649 595
f 595 649 650
f 595 650 651
f 595 651 643
f 595 643 640
f 596 597 639
f 596 639 652
f 596 652 653
f 596 653 599
f 596 599 598
f 599 653 654
f 600 612 655
f 600 655 601
f 601 655 656
f 601 656 657
f 601 657 658
f 601 658 659
f 601 659 660
f 601 660 661
f 601 661 662
f 601 662 606
f 602 608 663
f 602 663 664
f 602 664 603
f 603 665 617
f 603 617 666
f 603 666 604
f 603 664 667
f 603 667 668
f 603 668 665
f 604 666 669
f 604 669 670
f 604 670 605
f 605 670 671
f 605 671 609
f 606 662 607
f 607 662 608
f 608 662 663
f 609 671 614
f 609 614 613
f 610 672 611
f 610 673 672
f 611 672 674
f 611 674 675
f 611 675 676
f 611 676 655
f 611 655 612
f 614 671 615
f 615 671 670
f 615 670 669
f 615 669 621
f 616 620 619
f 616 619 677
f 616 677 678
f 616 678 679
f 616 679 680
f 616 680 623
f 617 665 681
f 617 681 618
f 617 622 621
f 617 621 666
f 618 681 619
f 619 681 682
f 619 682 677
f 621 669 666
f 623 680 624
f 624 680 683
f 624 683 625
f 625 684 626
f 625 683 685
f 625 685 744
f 625 744 684
f 629 686 630
f 630 686 631
f 631 687 688
f 631 688 689
f 631 689 632
f 631 686 687
f 632 690 633
f 632 689 691
f 632 691 690
f 633 690 634
f 634 690 692
f 634 692 693
f 634 693 635
f 635 693 646
f 636 645 637
f 637 645 694
f 637 694 695
f 637 695 696
f 637 696 697
f 637 697 698
f 637 698 699
f 637 699 638
f 638 700 639
f 638 699 700
f 639 700 652
f 640 643 641
f 642 701 644
f 642 643 701
f 643 651 702
f 643 702 703
f 643 703 701
f 644 701 704
f 644 704 645
f 645 704 694
f 646 693 705
f 646 705 706
f 646 706 707
f 646 707 647
f 647 707 708
f 647 708 709
f 647 709 710
f 647 710 711
f 647 711 648
f 648 711 712
f 648 712 650
f 648 650 649
f 650 712 711
f 650 711 713
f 650 713 714
f 650 714 651
f 651 714 715
f 651 715 702
f 652 700 653
f 653 700 716
f 653 716 717
f 653 717 654
f 655 676 718
f 655 718 656
f 656 718 719
f 656 719 720
f 656 720 657
f 657 720 721
f 657 721 658
f 658 721 722
f 658 722 723
f 658 723 724
f 658 724 659
f 659 724 660
f 660 724 725
f 660 725 726
f 660 726 661
f 661 726 727
f 661 727 728
f 661 728 663
f 661 663 662
f 663 728 664
f 664 729 667
f 664 728 730
f 664 730 731
f 664 731 729
f 665 668 732
f 665 732 681
f 667 729 668
f 668 729 733
f 668 733 732
f 672 673 734
f 672 734 735
f 672 735 674
f 674 735 675
f 675 735 736
f 675 736 737
f 675 737 718
f 675 718 676
f 677 682 738
f 677 738 678
f 678 738 739
f 678 739 740
f 678 740 679
f 679 740 741
f 679 741 742
f 679 742 680
f 680 742 685
f 680 685 683
f 681 732 743
f 681 743 682
f 682 743 738
f 685 742 745
f 685 745 744
f 688 746 689
f 689 746 799
f 689 799 747
f 689 747 748
f 689 748 691
f 690 691 749
f 690 749 752
f 690 752 750
f 690 750 692
f 691 748 751
f 691 751 749
f 692 750 693
f 693 750 752
f 693 752 705
f 694 704 695
f 695 704 753
f 695 753 754
f 695 754 696
f 696 754 755
f 696 755 722
f 696 722 756
f 696 756 757
f 696 757 697
f 697 757 698
f 698 757 758
f 698 758 759
f 698 759 699
f 699 759 760
f 699 760 761
f 699 761 762
f 699 762 700
f 700 762 716
f 701 753 704
f 701 703 763
f 701 763 754
f 701 754 753
f 702 715 764
f 702 764 765
f 702 765 766
f 702 766 767
f 702 767 768
f 702 768 703
f 703 768 769
f 703 769 763
f 705 752 706
f 706 752 803
f 706 803 770
f 706 770 708
f 706 708 707
f 708 770 771
f 708 771 709
f 709 771 772
f 709 772 773
f 709 773 710
f 710 773 711
f 711 772 774
f 711 774 731
f 711 731 775
f 711 775 713
f 711 773 772
f 713 775 776
f 713 776 777
f 713 777 715
f 713 715 714
f 715 777 764
f 716 778 717
f 716 762 761
f 716 761 778
f 718 737 719
f 719 737 779
f 719 779 720
f 720 779 780
f 720 780 721
f 721 780 722
f 722 781 723
f 722 780 779
f 722 779 756
f 722 755 781
f 723 782 725
f 723 725 724
f 723 781 782
f 725 782 726
f 726 782 766
f 726 766 765
f 726 765 764
f 726 764 727
f 727 783 728
f 727 764 783
f 728 783 730
f 729 731 733
f 730 783 776
f 730 776 775
f 730 775 731
f 731 774 784
f 731 784 733
f 732 733 785
f 732 785 786
f 732 786 787
f 732 787 743
f 733 784 785
f 734 788 736
f 734 736 735
f 736 788 737
f 737 788 789
f 737 789 790
f 737 790 779
f 738 743 787
f 738 787 791
f 738 791 739
f 739 791 792
f 739 792 793
f 739 793 794
f 739 794 740
f 740 794 741
f 741 794 795
f 741 795 742
f 742 796 745
f 742 795 797
f 742 797 798
f 742 798 796
f 747 799 828
f 747 828 800
f 747 800 801
f 747 801 748
f 748 801 802
f 748 802 751
f 749 751 752
f 751 802 803
f 751 803 752
f 754 763 755
f 755 763 769
f 755 769 781
f 756 779 757
f 757 779 758
f 758 779 804
f 758 804 759
f 759 805 761
f 759 761 760
f 759 804 805
f 761 805 806
f 764 777 776
f 764 776 783
f 766 782 767
f 767 781 768
f 767 782 781
f 768 781 769
f 770 803 807
f 770 807 808
f 770 808 771
f 771 808 772
f 772 808 774
f 774 809 784
f 774 808 809
f 779 810 804
f 779 790 789
f 779 789 810
f 784 809 811
f 784 811 785
f 785 811 786
f 786 812 791
f 786 791 787
f 786 811 809
f 786 809 813
f 786 813 812
f 789 814 810
f 791 812 792
f 792 812 815
f 792 815 816
f 792 816 817
f 792 817 818
f 792 818 819
f 792 819 820
f 792 820 821
f 792 821 822
f 792 822 793
f 793 822 821
f 793 821 823
f 793 823 824
f 793 824 797
f 793 797 795
f 793 795 794
f 797 824 825
f 797 825 826
f 797 826 827
f 797 827 798
f 800 828 839
f 800 839 829
f 800 829 801
f 801 829 830
f 801 830 802
f 802 830 817
f 802 817 816
f 802 816 803
f 803 816 807
f 804 810 831
f 804 831 805
f 805 831 832
f 805 832 806
f 807 816 833
f 807 833 809
f 807 809 808
f 809 833 813
f 810 814 832
f 810 832 831
f 812 813 833
f 812 833 815
f 815 833 816
f 817 830 829
f 817 829 820
f 817 820 818
f 818 820 819
f 820 829 834
f 820 834 821
f 821 834 835
f 821 835 823
f 823 825 824
f 823 835 836
f 823 836 825
f 825 836 837
f 825 837 838
f 825 838 826
f 829 839 842
f 829 842 840
f 829 840 835
f 829 835 834
f 835 840 836
f 836 840 842
f 836 842 841
f 836 841 837

