# https://github.com/mikedh/trimesh
v 30.24500639 62.75539802 42.69473280
v 30.27568413 62.75539802 41.83324086
v 30.35390798 62.75539802 43.02983963
v 30.24500639 63.18497243 42.69473280
v 30.27568413 63.18497243 41.83324086
v 30.30942604 62.75539802 40.97026696
v 30.46280957 62.75539802 43.36049801
v 30.46280957 63.18497243 43.36049801
v 30.47815101 64.04859605 43.35160110
v 30.49502453 64.90998259 43.34122352
v 30.51343015 65.77360621 43.33084338
v 30.27414690 64.04859605 42.69473280
v 30.29255765 64.04859605 41.83324086
v 30.31709675 64.04859605 40.97026696
v 30.30942604 63.18497243 40.97026696
v 30.36157870 62.75539802 40.10729178
v 31.12236546 62.75539802 43.59774276
v 31.12236546 63.18497243 43.59774276
v 31.12236546 64.04859605 43.58884585
v 31.12236546 65.77360621 43.56660488
v 31.12236546 66.63499276 43.53991417
v 30.54717206 66.63499276 43.30266942
v 30.30789395 64.90998259 42.69473280
v 30.32783165 64.90998259 41.83324086
v 30.35237589 64.90998259 40.97026696
v 30.40145924 64.90998259 40.10729178
v 30.36771219 64.04859605 40.10729178
v 30.36157870 63.18497243 40.10729178
v 30.39532575 62.75539802 39.67877003
v 31.98438309 62.75539802 43.60218992
v 31.98438309 70.08501308 43.60218992
v 31.98438309 70.94639963 43.59625951
v 31.12236546 67.49861638 43.48949925
v 31.98438309 71.81002325 43.56215515
v 31.30029067 70.94639963 43.35753151
v 30.34930658 65.77360621 42.69473280
v 31.37545035 71.81002325 43.32342972
v 30.59778749 67.49861638 43.25077382
v 30.37691500 65.77360621 41.83324086
v 30.41219414 65.77360621 40.97026696
v 30.46434680 65.77360621 40.10729178
v 30.53336785 65.77360621 39.24579984
v 30.61159684 65.77360621 38.38282594
v 30.47968310 64.90998259 39.24579984
v 30.44594119 64.04859605 39.24579984
v 30.51036083 63.18497243 38.38282594
v 30.43213698 63.18497243 39.24579984
v 30.43213698 62.75539802 39.24579984
v 32.84640328 62.75539802 43.60218992
v 32.84640328 73.53503341 43.60218992
v 32.84793794 74.39641995 43.59774276
v 31.98438309 72.67140979 43.48060234
v 32.84793794 75.25780649 43.54881108
v 30.64994016 68.36000292 43.18701225
v 30.68061789 68.87235953 43.14401355
v 30.41833277 66.63499276 42.69473280
v 31.46441167 72.67140979 43.24336016
v 32.13776919 74.39641995 43.36049801
v 32.24667335 75.25780649 43.31304957
v 30.44594119 66.63499276 41.83324086
v 30.47968310 66.63499276 40.97026696
v 30.53183576 66.63499276 40.10729178
v 30.60239404 66.63499276 39.24579984
v 30.68521930 66.25016571 37.91278617
v 30.67141509 65.77360621 37.80899240
v 30.56711490 64.90998259 38.38282594
v 30.53336785 64.04859605 38.38282594
v 30.60852753 63.18497243 37.51985076
v 30.51036083 62.75539802 38.38282594
v 30.47048029 62.75539802 38.81727810
v 33.62713031 62.75539802 43.36346450
v 40.71808807 85.61234163 43.40349928
v 40.66133657 85.61234163 43.41832659
v 39.74409697 85.60786876 43.60218992
v 34.57351300 78.70782682 43.60218992
v 33.70995814 76.98281602 43.59922600
v 33.70995814 77.84644028 43.53843093
v 32.96144351 76.98281602 43.36198125
v 30.67908581 68.87683497 42.69473280
v 30.61619825 68.36000292 42.69473280
v 30.51496224 67.49861638 42.69473280
v 31.52576457 73.20166560 43.16922101
v 31.20519329 71.81002325 42.69473280
v 31.04413903 70.94639963 42.69473280
v 30.88768618 70.08501308 42.69473280
v 30.74810685 69.30864646 42.69473280
v 30.53336785 67.49861638 41.83324086
v 30.55637486 67.49861638 40.97026696
v 33.11329238 77.84644028 43.29970293
v 32.34330282 75.92006667 43.21963337
v 30.60699544 67.49861638 40.10729178
v 30.66681368 66.57682099 38.44658494
v 30.84013749 65.77360621 36.65687558
v 30.72970124 65.77360621 37.37602092
v 30.68675138 67.09812785 38.77872656
v 30.71742912 66.82516888 38.20340977
v 30.97971682 68.36000292 37.51985076
v 30.88001803 67.49861638 37.51985076
v 30.76651247 66.57682099 37.58212780
v 30.91069320 66.63499276 36.65687558
v 30.65147225 64.90998259 37.65923086
v 30.64380667 64.02622269 37.46350542
v 30.68675138 63.72641556 37.06019114
v 30.67908581 63.18497243 37.01570791
v 30.60852753 62.75539802 37.51985076
v 34.03206408 62.75539802 42.69473280
v 41.13836071 85.61234163 43.08173651
v 40.79171309 85.61234163 43.37384465
v 39.74409697 85.61234163 43.60218992
v 38.02159123 85.60786876 43.60218992
v 35.43553063 81.29422288 43.58736261
v 34.57351300 79.57144980 43.57549921
v 33.88788335 79.57144980 43.33825703
v 30.74504011 69.15650518 41.83324086
v 30.68521930 68.82313801 42.11941601
v 30.64380667 68.42488656 41.83324086
v 31.51809642 73.22851376 42.69473280
v 31.38771990 72.67140979 42.69473280
v 32.31262766 76.01851099 42.69473280
v 32.08715119 75.25780649 42.69473280
v 31.22513099 71.81002325 41.83324086
v 31.05027252 70.94639963 41.83324086
v 30.89382224 70.08501308 41.83324086
v 30.64380667 68.25037192 40.97026696
v 30.66988300 68.06690767 40.10729178
v 34.02593059 80.25160918 43.25077382
v 33.22066189 78.43263077 43.20332538
v 32.45527373 76.44808540 42.69473280
v 30.68982070 67.93490331 39.66839117
v 30.66988300 67.43149566 39.32586940
v 31.05180718 66.63499276 35.79686688
v 30.98431822 65.77360621 35.79686688
v 30.92756672 64.90998259 35.79686688
v 30.79412089 64.90998259 36.65687558
v 30.70976097 64.90998259 37.22922716
v 30.87695129 68.36000292 38.38282594
v 31.10549193 68.36000292 36.65687558
v 31.00272640 67.49861638 36.65687558
v 31.09168772 69.22138882 37.51985076
v 31.13463501 67.49861638 35.79686688
v 30.69749142 64.30141874 37.14026070
v 30.74810685 64.02622269 36.72508431
v 30.89228758 64.04859605 35.79686688
v 30.74810685 63.18497243 36.58421968
v 30.67908581 62.75539802 37.01570791
v 37.75010072 62.75539802 28.45416931
v 45.91474837 85.61234163 28.45416931
v 41.27947469 85.61234163 42.69473280
v 38.88207677 85.61234163 43.60218992
v 38.02159123 85.61234163 43.59922600
v 37.60131859 85.61234163 43.49839615
v 37.15957103 84.74648093 43.56363839
v 36.29755083 83.02147013 43.58143220
v 35.43553063 82.15784715 43.47318868
v 34.70388952 81.29422288 43.34863718
v 30.70669423 68.67994633 40.97026696
v 30.69442210 68.75377957 41.54558246
v 30.92756672 70.08501308 40.97026696
v 30.79105414 69.22138882 40.97026696
v 31.64540619 73.60215477 41.83324086
v 31.53496737 73.17034264 41.83324086
v 31.41686298 72.67140979 41.83324086
v 31.85707588 74.39641995 41.83324086
v 31.88161756 74.39641995 40.97026696
v 31.25274198 71.81002325 40.97026696
v 32.32643187 75.96928883 41.83324086
v 32.10709146 75.25780649 41.83324086
v 32.46447653 76.40110096 41.83324086
v 31.07481677 70.94639963 40.97026696
v 30.73430264 68.49871980 40.10729178
v 30.91376251 69.22138882 39.24579984
v 30.99045428 69.22138882 38.38282594
v 34.89868568 82.15784715 43.23594650
v 34.99992170 82.59637116 43.13066948
v 33.19612021 78.49751313 42.69473280
v 32.95530745 77.84644028 42.69473280
v 33.97224584 80.36795270 42.69473280
v 33.63326637 79.57144980 42.69473280
v 32.66234201 76.98281602 41.83324086
v 32.97064631 77.84644028 41.83324086
v 31.20672537 66.63499276 34.93537495
v 31.28341714 67.49861638 34.93537495
v 31.14077107 65.77360621 34.93537495
v 31.07634885 64.90998259 34.93537495
v 31.03953763 64.04859605 34.93537495
v 31.24200451 68.36000292 35.79686688
v 31.22206424 69.22138882 36.65687558
v 31.23586845 70.08501308 37.51985076
v 31.36471288 70.08501308 36.65687558
v 30.88001803 63.18497243 35.79686688
v 30.74810685 62.75539802 36.58421968
v 32.80805740 62.75539802 28.45416931
v 39.76403724 85.61234163 28.45416931
v 37.11815840 85.61234163 43.37977506
v 35.44320135 82.93868728 43.30415267
v 36.47394395 84.74648093 43.32491039
v 30.84473889 69.22138882 40.10729178
v 31.12543220 70.94639963 40.10729178
v 30.97971682 70.08501308 40.10729178
v 31.64080479 73.46120017 40.98509428
v 31.55951162 73.07189832 40.70633278
v 31.46901307 72.73853051 40.98509428
v 32.13776919 75.25780649 40.97026696
v 32.18991929 75.25780649 40.10729178
v 31.93530231 74.39641995 40.10729178
v 31.91076063 74.30468751 40.10729178
v 31.86320937 74.30468751 40.87981725
v 31.30489207 71.81002325 40.10729178
v 32.34483748 75.91111707 40.97026696
v 32.48288215 76.34069148 40.97026696
v 32.69301975 76.98281602 40.97026696
v 31.05334184 70.08501308 39.24579984
v 31.13463501 70.08501308 38.38282594
v 35.73616421 83.68373159 43.25818748
v 36.63346355 85.33267143 43.23298001
v 36.59204835 85.39979279 42.69473280
v 35.67481131 83.79336195 42.69473280
v 34.99992170 82.59637116 43.04911539
v 33.20532302 78.46619017 41.83324086
v 33.37558008 78.89800230 41.83324086
v 33.98605005 80.34781706 41.83324086
v 33.65167199 79.57144980 41.83324086
v 34.17931413 80.77962919 41.83324086
v 34.18851693 80.75501811 40.97026696
v 32.99672008 77.84644028 40.97026696
v 31.38311850 66.63499276 34.07388429
v 31.31562953 65.77360621 34.07388429
v 31.39232130 68.36000292 34.93537495
v 31.51349501 68.36000292 34.33633394
v 31.47054773 67.48071782 34.03533148
v 31.25580872 64.90998259 34.07388429
v 31.21899750 64.04859605 34.07388429
v 31.20979469 63.18497243 34.07388429
v 31.03493622 63.18497243 34.93537495
v 31.36931429 69.22138882 35.79686688
v 31.58251863 70.31993657 35.55517497
v 31.29722135 70.94639963 38.38282594
v 31.56717977 72.16576441 38.09516755
v 31.40305877 70.94639963 37.51985076
v 31.55030624 71.38716072 37.07501845
v 31.50735895 70.90836414 36.73546317
v 31.53650203 70.59513261 36.12752526
v 30.95670980 62.75539802 35.36834514
v 30.88001803 62.75539802 35.79686688
v 32.64700572 62.75539802 28.89603641
v 32.80805740 63.18497243 28.45416931
v 39.57844131 85.61234163 28.88269105
v 39.75790118 85.60339075 28.45416931
v 36.76077332 85.61234163 42.93494275
v 31.38158384 71.81002325 39.24579984
v 31.20672537 70.94639963 39.24579984
v 31.71289515 73.53503341 40.10729178
v 31.58098398 72.98464132 40.10729178
v 32.42152925 75.66948170 38.88696879
v 32.29268739 75.33163974 39.20279985
v 32.51049314 76.25790992 40.10729178
v 32.44453883 75.58669886 38.38282594
v 32.01813014 74.39641995 39.24579984
v 31.99205380 74.30468751 39.24579984
v 31.91842878 74.30468751 40.01536011
v 31.51349501 72.40740042 39.24579984
v 31.53956878 72.30224422 38.67196630
v 32.74823916 76.98281602 40.10729178
v 36.72395952 85.61234163 42.69473280
v 36.73929839 85.61234163 42.24396879
v 36.61045653 85.37294527 41.83324086
v 36.27147707 84.74648093 40.97026696
v 36.23773258 84.74648093 41.83324086
v 35.92636154 84.20727488 41.83324086
v 35.68554877 83.77770047 41.83324086
v 35.01219125 82.56952236 42.47528185
v 34.44620323 81.29422288 40.97026696
v 35.70088764 83.75532711 40.97026696
v 35.31435949 83.02147013 40.97026696
v 33.21912723 78.42368117 40.97026696
v 33.39552035 78.85549202 40.97026696
v 33.69001787 79.57144980 40.97026696
v 34.00445566 80.32320598 40.97026696
v 34.50295472 81.29422288 40.10729178
v 34.21612535 80.69237091 40.10729178
v 33.24673822 78.35655981 40.10729178
v 33.05193948 77.84644028 40.10729178
v 31.53956878 67.18091005 33.58605072
v 31.51656176 66.63499276 33.47632525
v 31.48128262 65.77360621 33.32359979
v 31.54877158 68.81418841 34.48757744
v 31.53956878 69.74493339 35.29124079
v 31.64693828 70.05369012 34.97540972
v 31.77118131 68.36000292 33.20942586
v 31.57331583 67.75591386 33.72394886
v 31.89388711 69.22138882 33.20942586
v 31.47054773 64.88760923 33.14121842
v 31.57791723 65.77360621 32.89211284
v 31.55951162 65.16056756 32.80907679
v 31.42146438 64.04859605 33.20942586
v 31.62700058 63.18497243 32.23227804
v 31.52729922 63.18497243 32.66376499
v 31.40305877 63.18497243 33.20942586
v 31.30489207 62.75539802 33.64536255
v 31.20979469 62.75539802 34.07388429
v 31.12083080 62.75539802 34.50685320
v 31.03493622 62.75539802 34.93537495
v 31.64693828 70.90836414 35.82503955
v 31.81106185 70.94639963 34.93537495
v 31.64233688 72.62218763 38.38282594
v 31.75737710 72.67140979 37.51985076
v 31.60552565 71.97782601 37.51985076
v 31.67301461 71.72947812 36.73546317
v 31.59478819 71.17013579 36.50118491
v 32.45680839 62.75539802 29.45652524
v 32.64700572 63.18497243 28.89603641
v 32.81112672 63.60559724 28.45416931
v 39.54776614 85.61234163 28.95534695
v 39.56003570 85.58549412 28.88269105
v 39.39284795 85.05747410 28.45416931
v 31.78805226 73.53503341 39.24579984
v 31.61626311 72.83697483 39.24579984
v 32.52429735 76.06773315 39.20279985
v 32.61786264 76.12142947 38.38282594
v 32.49822358 75.39875981 37.51985076
v 32.37551521 74.96918540 37.51985076
v 32.32183046 75.15488673 38.38282594
v 32.00125661 74.30468751 39.15386817
v 32.72522957 76.12142947 37.51985076
v 31.87241475 73.53503341 38.38282594
v 32.82799767 76.98281602 39.24579984
v 36.75617192 85.61234163 41.83324086
v 36.63039680 85.33714687 40.97026696
v 36.33129531 84.74648093 40.10729178
v 35.96777417 84.13567936 40.10729178
v 35.93863366 84.18490152 40.97026696
v 35.02753012 82.54043712 41.83324086
v 34.83119672 82.06835114 40.97026696
v 34.85880771 82.01241710 40.10729178
v 35.72849606 83.70386722 40.10729178
v 35.37264307 83.02147013 40.10729178
v 35.07814555 82.44422923 40.10729178
v 35.04900247 82.50016327 40.97026696
v 33.42312877 78.78837194 40.10729178
v 33.74523728 79.57144980 40.10729178
v 34.03206408 80.26056006 40.10729178
v 34.58731721 81.29422288 39.24579984
v 34.89715360 81.93858386 39.24579984
v 34.26367661 80.59168886 39.24579984
v 34.10875842 80.07485874 38.52665450
v 34.07041254 80.15987802 39.24579984
v 33.81886230 79.57144980 39.24579984
v 33.26821058 78.30286349 39.57942471
v 33.15317293 77.90013660 39.27397251
v 31.78038411 66.63499276 32.34645197
v 31.61472846 66.63499276 33.04483830
v 31.97824960 68.36000292 32.34645197
v 31.65307434 67.48071782 33.26280600
v 31.87855081 67.49861638 32.34645197
v 31.67608136 69.14979330 34.14802215
v 31.84173701 70.08501308 34.07388429
v 32.09635399 69.22138882 32.34645197
v 32.03806784 70.08501308 33.20942586
v 31.70675909 65.77360621 32.34645197
v 31.64233688 64.88760923 32.42207307
v 31.54877158 64.58556438 32.76162836
v 31.64387153 64.04859605 32.28714078
v 31.83099955 63.18497243 31.48347678
v 31.62700058 62.75539802 32.23227804
v 31.86014263 64.04859605 31.48347678
v 31.52729922 62.75539802 32.66376499
v 31.46441167 62.75539802 32.93807803
v 31.40305877 62.75539802 33.20942586
v 31.84020236 71.81002325 35.79686688
v 31.99665521 71.81002325 34.93537495
v 32.17918182 71.81002325 34.07388429
v 31.99512055 70.94639963 34.07388429
v 31.89082036 72.67140979 36.65687558
v 31.97671494 73.53503341 37.51985076
v 32.10709146 73.53503341 36.65687558
v 32.38778477 62.75539802 29.67300969
v 32.45680839 63.18497243 29.45652524
v 32.65467387 64.04859605 28.89603641
v 32.81726278 64.04859605 28.45416931
v 39.21645483 85.61234163 29.75901095
v 39.24406325 85.28344927 29.16145254
v 39.36523696 85.09998438 28.58613640
v 39.11982279 84.63461285 28.45416931
v 32.91542690 76.98281602 38.38282594
v 32.56111114 75.18397325 36.72063586
v 32.45374164 74.69398936 36.47449549
v 32.41079178 74.84836772 37.05129424
v 32.86174215 76.12142947 36.65687558
v 32.33410001 74.40313183 36.72063586
v 32.09482190 74.30468751 38.28941103
v 32.08408444 74.30468751 38.38282594
v 33.02433107 76.98281602 37.51985076
v 33.16084107 77.01637670 36.69987685
v 33.35717447 77.17746694 35.79686688
v 36.79911920 85.61234163 40.97026696
v 36.85893745 85.61234163 40.10729178
v 36.66107197 85.28792471 40.10729178
v 36.69941785 85.22527879 39.24579984
v 36.72242487 85.18724138 38.74907065
v 36.75003586 85.13801922 38.17523710
v 36.01225611 84.05065879 39.24579984
v 35.11495935 82.37039599 39.24579984
v 35.77297800 83.61884666 39.24579984
v 35.45240415 83.02147013 39.24579984
v 34.68241459 81.29422288 38.38282594
v 34.94163554 81.85356458 38.38282594
v 35.15637198 82.28537671 38.38282594
v 34.14096824 80.00102550 37.95282095
v 33.94923882 79.65647036 38.29682469
v 33.54890389 78.70782682 38.38282594
v 33.43386624 78.63846774 39.27397251
v 33.29888831 78.22455481 39.00559117
v 33.17464786 77.70101152 38.38282594
v 32.01199408 66.63499276 31.48347678
v 31.93683697 65.77360621 31.48347678
v 32.32489721 69.16769250 31.47161467
v 32.21139421 68.36000292 31.48347678
v 32.11015820 67.49861638 31.48347678
v 32.27581386 70.14765900 32.27972648
v 32.36631241 69.90378592 31.75037617
v 32.20065675 70.94639963 33.20942586
v 31.89388711 64.90998259 31.48347678
v 32.09175259 63.18497243 30.62198549
v 31.83099955 62.75539802 31.48347678
v 32.11169286 64.04859605 30.62198549
v 32.32796652 64.04859605 29.90284015
v 32.03960250 72.67140979 35.79686688
v 32.41692784 73.96237010 35.37131035
v 32.19912209 72.67140979 34.93537495
v 32.40619038 73.14125676 34.46236997
v 32.35557494 72.62218763 34.13467680
v 32.40158898 72.30000650 33.57715382
v 32.46447653 71.99796165 33.00035507
v 32.40772504 71.42295848 32.74235259
v 32.37244847 74.11898618 35.94662714
v 32.32029580 62.75539802 29.88801219
v 32.32029580 63.18497243 29.88801219
v 32.45987513 64.04859605 29.47135255
v 32.69301975 64.90998259 28.89603641
v 32.85560609 64.90998259 28.45416931
v 39.02779215 85.61234163 30.25425754
v 39.12288953 85.47138703 29.75901095
v 39.03852962 84.78451577 28.88269105
v 38.68727803 83.94102843 28.45416931
v 38.59064599 84.08198175 28.89603641
v 32.73596704 75.25780649 35.79686688
v 32.49055287 74.40313183 35.71531408
v 32.47367934 74.30468751 35.63820973
v 33.21299374 76.74565481 35.79686688
v 33.00899220 76.12142947 35.79686688
v 33.38631755 77.98068172 37.51985076
v 33.26667849 77.44595111 37.01274142
v 33.30962578 77.32513342 36.43742591
v 33.43233158 76.93359385 34.96799607
v 33.26054243 76.61141337 35.27493023
v 33.60565538 77.84644028 35.79686688
v 33.77284570 77.84644028 34.93537495
v 36.93869853 85.61234163 39.24579984
v 36.80065129 85.05523766 37.51985076
v 36.55523712 84.62342553 37.51985076
v 36.09048254 83.80902343 37.56136878
v 35.85580583 83.47118146 37.88016505
v 36.06287412 83.95892763 38.38282594
v 36.96784161 85.61234163 38.96407314
v 37.01539030 85.61234163 38.51479239
v 37.02612776 85.61234163 38.42582593
v 37.14730147 85.60786876 37.51985076
v 35.82359344 83.52711550 38.38282594
v 35.54443479 83.02147013 38.38282594
v 34.97844677 81.77973134 37.77933648
v 35.68094737 83.07069229 37.56136878
v 35.18244831 82.10414954 37.50502344
v 34.17317806 79.92942869 37.51985076
v 33.98451539 79.49761656 37.51985076
v 34.82506323 81.35910653 37.50502344
v 34.40172128 80.43283634 37.51985076
v 34.53056314 80.43283634 36.65687558
v 33.66087479 78.70782682 37.51985076
v 33.33109814 78.13058593 38.38282594
v 32.42306390 66.97283537 30.21718796
v 32.32643187 67.49861638 30.74802088
v 32.19912209 65.77360621 30.62198549
v 32.47828074 64.90998259 29.53214635
v 32.14850666 64.90998259 30.62198549
v 32.40772504 68.84327429 31.02678237
v 32.45220698 69.41827747 31.17506002
v 32.37704987 68.36000292 30.92447120
v 32.45374164 67.49861638 30.31653393
v 32.36017635 70.94639963 32.55848797
v 32.42306390 70.47878973 31.94461965
v 32.65007246 70.94639963 31.48347678
v 32.90468944 70.94639963 30.62198549
v 33.16391039 70.93073815 29.74270039
v 32.73903635 70.08501308 30.62198549
v 32.20525815 62.75539802 30.25722274
v 32.09175259 62.75539802 30.62198549
v 32.89855595 75.25780649 34.93537495
v 32.63320151 74.39641995 34.93537495
v 32.46140979 73.77666877 34.93537495
v 32.56264323 73.47238685 34.13467680
v 32.46907794 72.87500967 33.88557122
v 32.55037111 72.62218763 33.25835755
v 32.78044898 72.67140979 32.34645197
v 32.55650717 71.74961441 32.41317617
v 32.75744197 65.77360621 28.89603641
v 32.91849365 65.77360621 28.45416931
v 38.94803364 85.61234163 30.46925939
v 38.48941255 84.25202288 29.42835193
v 38.66887242 84.72858173 29.73380348
v 38.53389450 85.04181390 30.62198549
v 38.41885684 83.50697858 28.45416931
v 38.33142761 83.65240863 28.89603641
v 33.43846764 77.77931892 36.69987685
v 33.65320665 76.98281602 34.07388429
v 33.31882858 76.42347432 34.70109669
v 33.80198878 78.70782682 36.65687558
v 33.97531258 78.76599858 35.77759112
v 34.16090851 79.09265323 35.47658737
v 34.04126689 78.52212421 34.93537495
v 34.10722376 78.36327169 34.34226564
v 34.16857666 78.20218145 33.76843209
v 33.98605005 77.88671284 34.06202090
v 36.88041237 84.92547038 36.65687558
v 36.68254689 84.39073848 35.98962841
v 36.62426074 84.49365825 36.65687558
v 36.27607847 83.88285667 36.65687558
v 37.30682107 85.61234163 36.63166940
v 35.89875312 83.39287406 37.30336630
v 37.15036822 85.61234163 37.51985076
v 35.02139405 81.68800018 37.20550294
v 35.94936856 83.29442974 36.65687558
v 35.71929325 82.86485404 36.65687558
v 35.35270280 82.15784715 36.65687558
v 34.23760028 79.77057488 36.65687558
v 34.05660575 79.33876404 36.65687558
v 34.86340912 81.15998016 36.65687558
v 34.67014504 80.43283634 35.79686688
v 32.52276269 66.66407864 29.81387368
v 32.40005689 66.39783155 30.13860101
v 32.62092938 67.49861638 29.75901095
v 32.37551521 65.77360621 30.06001405
v 32.51049314 65.77360621 29.63000971
v 32.56417789 69.16769250 30.69167554
v 32.86787821 69.22138882 29.75901095
v 32.73596704 68.36000292 29.75901095
v 33.00439079 70.08501308 29.75901095
v 32.82339627 71.81002325 31.48347678
v 33.25440637 70.63093102 29.25931591
v 33.22526329 71.60642272 30.01997928
v 33.31576184 71.20593419 29.44614573
v 33.11482704 75.32045241 34.01902091
v 32.82493093 74.39641995 34.07388429
v 32.79732251 74.30468751 34.07833146
v 32.79425319 73.53503341 33.20942586
v 33.02126175 72.67140979 31.48347678
v 33.00899220 73.53503341 32.34645197
v 33.20992442 73.46567497 31.54575382
v 32.82493093 66.63499276 28.89603641
v 32.95070604 66.19423167 28.45416931
v 38.91889056 85.61234163 30.54932959
v 38.18264548 83.93207883 29.73380348
v 38.38357771 84.42877332 30.00366872
v 37.63506307 83.37497486 30.31801653
v 38.27314146 84.61000177 30.62198549
v 38.45566807 85.16934218 31.06681779
v 37.52615891 81.87370150 28.45416931
v 37.58291298 82.60308304 29.30973019
v 37.73936326 83.18927353 29.75901095
v 33.85874027 76.98281602 33.20942586
v 33.55657461 76.12142947 33.20942586
v 34.23299888 78.02095428 33.20942586
v 33.37404542 76.12814264 34.01902091
v 33.28968551 75.65158250 33.69577619
v 34.11029051 79.21570863 36.04893895
v 34.28668363 79.53117724 35.77759112
v 34.47227699 79.57144980 34.93537495
v 34.21766001 78.95393634 34.93537495
v 34.29435178 78.67426614 34.06202090
v 34.50295472 78.70782682 33.20942586
v 37.39425030 85.50047355 35.79686688
v 36.73776373 84.29900732 35.41579486
v 36.48008001 83.95892763 35.74052154
v 36.02145892 83.15347513 35.79686688
v 37.46327135 85.61234163 35.79686688
v 35.07047740 81.59179229 36.65687558
v 34.93549948 81.00336536 35.79686688
v 35.79751968 82.72166300 35.79686688
v 35.15023592 81.43517749 35.79686688
v 35.84660046 82.62769412 35.27937868
v 34.98458283 80.90268460 35.27937868
v 34.84960233 80.45968514 34.96799607
v 32.90622410 67.49861638 28.89603641
v 33.20839234 70.08501308 29.13179727
v 33.02279641 68.36000292 28.89603641
v 33.11636170 71.85924541 30.56119170
v 33.45840791 70.08501308 28.45416931
v 33.36637727 70.08501308 28.70031032
v 33.43540089 70.93073815 28.94200224
v 33.62252891 70.93968775 28.45416931
v 33.21452583 72.67140979 30.85181530
v 33.29275225 72.18142654 30.23498113
v 33.37251334 71.85924541 29.74270039
v 33.55964135 72.67140979 29.75901095
v 33.85720819 72.67140979 28.89603641
v 33.65167199 71.81002325 28.89603641
v 33.21299374 75.03630677 33.20942586
v 33.26974524 74.85731732 32.74531779
v 33.00439079 74.30468751 33.20942586
v 33.26974524 73.13230716 31.02678237
v 33.21759514 74.30468751 32.36127928
v 33.26514383 74.00935582 31.87344699
v 32.98445052 66.60814460 28.45416931
v 38.63052653 85.61234163 31.40637307
v 37.49701583 82.75746140 29.75901095
v 37.35590442 83.06174269 30.61160598
v 37.53689637 83.54501342 30.89333268
v 37.61205605 84.27887040 31.98168922
v 37.78537986 84.72858173 32.30048549
v 38.36057069 85.31477223 31.64065134
v 37.21632252 81.27184952 28.45416931
v 37.00312075 81.22933924 28.95534695
v 37.17644455 82.15784715 29.75901095
v 33.77438036 76.12142947 32.34645197
v 34.13330009 77.43476378 32.75273145
v 33.34490235 75.46811890 33.20942586
v 34.77904663 78.78165878 32.27972648
v 34.34957119 77.77260704 32.41762462
v 34.66861038 79.57144980 34.07388429
v 34.86494120 79.58487356 33.25835755
v 34.92936342 79.30520335 32.51993644
v 37.64886728 85.61234163 34.93537495
v 37.48628094 85.34833419 34.93537495
v 37.11815840 84.74648093 34.93537495
v 36.79144848 84.20503716 34.93537495
v 36.54143291 83.77322502 34.93537495
v 36.08741579 82.95658648 34.96799607
v 35.91102267 82.50240099 34.70554514
v 35.76224054 81.93187198 34.07388429
v 35.69628624 82.19140654 34.96799607
v 35.82819484 81.79986826 33.48374019
v 35.04747039 80.76620415 34.70406318
v 34.92936342 80.16882762 34.07388429
v 35.12109284 80.60063975 34.07388429
v 33.18385066 68.36000292 28.45416931
v 33.07034510 67.49861638 28.45416931
v 33.31269252 69.43393895 28.55944633
v 33.26207709 68.87459725 28.45416931
v 33.34183560 69.37576718 28.45416931
v 33.81732765 71.81002325 28.45416931
v 33.77131104 73.53503341 29.75901095
v 34.04280155 73.46343789 28.91827802
v 34.13330009 73.13454424 28.45416931
v 34.02132919 72.67140979 28.45416931
v 33.45534116 75.18844741 32.41317617
v 33.34643700 74.58212128 32.17000165
v 33.45380651 74.33601047 31.54575382
v 33.71916095 74.30468751 30.62791654
v 33.46454397 73.46567497 30.69167554
v 38.33142761 85.61234163 32.34645197
v 36.88347912 82.16008358 30.57305381
v 36.79911920 82.45094111 31.29071655
v 36.99545003 82.94987461 31.54130537
v 37.44333365 83.71057910 31.48347678
v 37.32676134 83.94774031 32.30048549
v 37.52309216 84.43101233 32.55848797
v 37.69334923 85.01272738 33.20942586
v 38.24859978 85.48481336 32.34645197
v 36.86967491 80.56484135 28.45416931
v 36.81905947 80.66999755 28.70772398
v 36.71168997 80.89597143 29.28304013
v 36.84206649 81.50453529 29.75901095
v 36.75003586 81.68352473 30.25425754
v 34.05047226 76.94925533 32.41762462
v 34.10875842 76.64049861 31.80672151
v 34.01519313 76.11471759 31.50423580
v 33.74216796 75.25780649 31.48347678
v 34.21459326 77.21550306 32.17593270
v 34.90942315 78.51093817 31.48347678
v 34.65020477 77.84644028 31.48347678
v 35.01219125 79.11950203 31.94461965
v 34.31122530 76.94925533 31.50423580
v 34.98764957 80.03458489 33.57715382
v 35.05820528 79.88020653 33.00332027
v 35.49075004 80.43283634 32.34645197
v 37.80685222 85.61234163 34.27257494
v 37.62125886 85.12907090 33.76694885
v 37.55376990 85.23870255 34.34226564
v 37.35590442 84.80241497 34.06202090
v 37.43106153 84.58091525 33.20942586
v 36.89268193 84.02381127 34.07388429
v 36.65033450 83.59199914 34.07388429
v 36.33743137 83.02147013 34.07388429
v 35.98311304 82.36368411 34.07388429
v 36.06594087 82.11533687 33.20201221
v 35.89875312 81.65891365 32.90694016
v 35.67787805 81.34120732 33.20201221
v 35.21619279 80.36571626 33.25835755
v 33.98758471 74.30468751 29.76345940
v 34.09802095 74.09661282 29.22076373
v 34.21152395 73.70283553 28.64544759
v 34.26214195 73.61781625 28.45416931
v 33.74830403 74.39641995 30.62198549
v 38.18417757 85.61234163 32.85356002
v 36.65493590 81.87370150 30.82957368
v 36.71475672 82.61650680 31.86751530
v 35.98158095 81.48887381 32.34645197
v 36.32822856 82.15784715 32.34645197
v 36.88194703 83.17361077 32.34645197
v 36.78838174 83.34365190 33.00480352
v 36.98164582 83.81349887 33.26132275
v 38.09828299 85.61234163 33.15308053
v 36.79144848 80.40151338 28.45416931
v 35.88648100 79.95403977 30.25870599
v 36.30675363 80.43283634 29.75901095
v 36.62426074 81.07272316 29.75901095
v 36.48161210 81.35686880 30.57305381
v 34.58578255 76.98281602 30.62198549
v 34.19311834 76.39662552 31.23288796
v 34.09648630 75.81938591 30.91557494
v 34.00905706 75.25556877 30.62495069
v 34.09648630 74.96694897 30.05556560
v 34.98458283 78.32299913 30.99564450
v 35.08274695 78.94275031 31.48347678
v 34.88795079 77.82406563 30.67388238
v 35.77604475 81.05706168 32.34645197
v 35.84813511 80.90044559 31.85713643
v 37.84673276 85.61234163 34.11095258
v 37.85900488 85.61234163 34.06202090
v 36.71322206 83.48013106 33.58160227
v 36.55523712 83.04160705 33.26132275
v 36.64420101 82.74403764 32.34645197
v 34.01212638 74.38747035 29.76494200
v 34.03666548 74.30468751 29.60925070
v 34.46154209 74.30468751 28.45416931
v 34.19158625 74.66937828 29.48024946
v 34.86494120 76.10129383 28.90345007
v 34.59345070 75.25780649 28.89603641
v 34.75143821 75.23543185 28.45416931
v 34.48761585 74.39194451 28.45416931
v 36.11195747 81.23157696 31.53537431
v 36.67180943 80.14421654 28.45416931
v 35.96010602 79.62962156 29.68190660
v 35.76684194 79.37903660 29.91766746
v 34.96004115 77.52202207 30.06446251
v 35.07661346 78.09702524 30.42032835
v 35.21925953 78.64965506 30.67388238
v 34.85880771 76.98057958 29.76939045
v 34.28514897 76.11471759 30.62495069
v 34.18851693 75.53971442 30.34025815
v 34.56584228 76.12142947 29.75901095
v 34.95237043 76.68972077 29.19555691
v 35.10115257 76.29370704 28.45416931
v 34.95083835 75.84847115 28.45416931
v 36.40952173 79.56697564 28.45416931
v 36.23773258 79.57144980 28.89603641
v 35.95550462 78.92485111 28.89603641
v 35.87267679 79.12621391 29.34235131
v 35.77604475 78.49303897 28.89603641
v 35.05973994 77.26696166 29.48914572
v 35.18551505 77.82406563 29.76939045
v 35.17324550 76.98057958 28.90345007
v 35.34963605 76.98057958 28.45416931
v 36.05520340 78.76152314 28.45416931
v 35.85887258 78.29391389 28.45416931
v 35.51222497 77.84644028 28.89603641
v 35.66560850 77.80616772 28.45416931
f 1 2 6
f 1 6 16
f 1 16 29
f 1 29 48
f 1 48 70
f 1 70 69
f 1 69 105
f 1 105 145
f 1 145 191
f 1 191 244
f 1 244 243
f 1 243 302
f 1 302 301
f 1 301 300
f 1 300 299
f 1 299 368
f 1 368 367
f 1 367 366
f 1 366 364
f 1 364 424
f 1 424 496
f 1 496 495
f 1 495 436
f 1 436 376
f 1 376 310
f 1 310 245
f 1 245 192
f 1 192 146
f 1 146 106
f 1 106 71
f 1 71 49
f 1 49 30
f 1 30 17
f 1 17 7
f 1 7 3
f 1 3 4
f 1 4 5
f 1 5 2
f 2 5 15
f 2 15 6
f 3 7 8
f 3 8 4
f 4 8 9
f 4 9 10
f 4 10 11
f 4 11 12
f 4 12 13
f 4 13 14
f 4 14 5
f 5 14 15
f 6 15 28
f 6 28 16
f 7 17 18
f 7 18 8
f 8 18 19
f 8 19 20
f 8 20 9
f 9 20 10
f 10 20 11
f 11 20 21
f 11 21 22
f 11 22 23
f 11 23 12
f 12 23 13
f 13 23 24
f 13 24 25
f 13 25 14
f 14 25 26
f 14 26 27
f 14 27 15
f 15 27 28
f 16 28 29
f 17 30 31
f 17 31 18
f 18 31 32
f 18 32 19
f 19 32 20
f 20 32 21
f 21 33 22
f 21 32 34
f 21 34 35
f 21 35 33
f 22 36 23
f 22 33 35
f 22 35 37
f 22 37 38
f 22 38 36
f 23 36 24
f 24 36 25
f 25 36 39
f 25 39 40
f 25 40 26
f 26 40 41
f 26 41 42
f 26 42 43
f 26 43 44
f 26 44 45
f 26 45 27
f 27 45 46
f 27 46 47
f 27 47 28
f 28 47 29
f 29 47 48
f 30 49 74
f 30 74 109
f 30 109 149
f 30 149 110
f 30 110 75
f 30 75 50
f 30 50 31
f 31 50 51
f 31 51 32
f 32 51 34
f 34 52 37
f 34 37 35
f 34 51 53
f 34 53 52
f 36 38 54
f 36 54 55
f 36 55 56
f 36 56 60
f 36 60 39
f 37 57 55
f 37 55 54
f 37 54 38
f 37 52 58
f 37 58 59
f 37 59 57
f 39 60 61
f 39 61 40
f 40 61 62
f 40 62 41
f 41 62 42
f 42 62 63
f 42 63 64
f 42 64 43
f 43 64 65
f 43 65 66
f 43 66 44
f 44 66 67
f 44 67 45
f 45 67 46
f 46 67 68
f 46 68 105
f 46 105 69
f 46 69 70
f 46 70 47
f 47 70 48
f 49 71 72
f 49 72 73
f 49 73 74
f 50 75 76
f 50 76 51
f 51 76 53
f 52 53 58
f 53 59 58
f 53 76 77
f 53 77 78
f 53 78 59
f 55 79 80
f 55 80 81
f 55 81 56
f 55 57 82
f 55 82 83
f 55 83 84
f 55 84 85
f 55 85 86
f 55 86 79
f 56 81 87
f 56 87 88
f 56 88 60
f 57 59 82
f 59 78 89
f 59 89 90
f 59 90 82
f 60 88 61
f 61 88 91
f 61 91 62
f 62 91 63
f 63 92 64
f 63 91 92
f 64 93 94
f 64 94 65
f 64 92 95
f 64 95 96
f 64 96 97
f 64 97 98
f 64 98 99
f 64 99 100
f 64 100 93
f 65 94 101
f 65 101 66
f 66 101 67
f 67 101 102
f 67 102 68
f 68 102 103
f 68 103 104
f 68 104 145
f 68 145 105
f 71 106 107
f 71 107 108
f 71 108 72
f 72 108 107
f 72 107 148
f 72 148 147
f 72 147 193
f 72 193 247
f 72 247 313
f 72 313 380
f 72 380 441
f 72 441 507
f 72 507 560
f 72 560 613
f 72 613 659
f 72 659 703
f 72 703 711
f 72 711 728
f 72 728 727
f 72 727 685
f 72 685 631
f 72 631 584
f 72 584 527
f 72 527 529
f 72 529 466
f 72 466 465
f 72 465 464
f 72 464 458
f 72 458 396
f 72 396 395
f 72 395 327
f 72 327 265
f 72 265 264
f 72 264 249
f 72 249 194
f 72 194 151
f 72 151 150
f 72 150 149
f 72 149 109
f 72 109 73
f 73 109 74
f 75 110 111
f 75 111 76
f 76 111 112
f 76 112 77
f 77 112 113
f 77 113 89
f 77 89 78
f 79 86 114
f 79 114 115
f 79 115 80
f 80 87 81
f 80 115 116
f 80 116 87
f 82 117 118
f 82 118 83
f 82 90 119
f 82 119 120
f 82 120 117
f 83 118 121
f 83 121 122
f 83 122 84
f 84 122 123
f 84 123 85
f 85 123 86
f 86 123 114
f 87 116 124
f 87 124 88
f 88 124 125
f 88 125 91
f 89 113 126
f 89 126 127
f 89 127 90
f 90 127 128
f 90 128 119
f 91 125 129
f 91 129 130
f 91 130 95
f 91 95 92
f 93 100 131
f 93 131 132
f 93 132 133
f 93 133 134
f 93 134 94
f 94 134 135
f 94 135 101
f 95 130 129
f 95 129 136
f 95 136 96
f 96 136 97
f 97 137 138
f 97 138 98
f 97 136 139
f 97 139 137
f 98 138 99
f 99 138 100
f 100 138 140
f 100 140 131
f 101 135 141
f 101 141 102
f 102 141 103
f 103 141 142
f 103 142 143
f 103 143 104
f 104 143 144
f 104 144 191
f 104 191 145
f 106 146 147
f 106 147 148
f 106 148 107
f 110 149 150
f 110 150 151
f 110 151 152
f 110 152 153
f 110 153 111
f 111 153 154
f 111 154 112
f 112 154 113
f 113 154 155
f 113 155 126
f 114 156 157
f 114 157 115
f 114 123 158
f 114 158 159
f 114 159 156
f 115 157 124
f 115 124 116
f 117 160 161
f 117 161 162
f 117 162 118
f 117 120 163
f 117 163 164
f 117 164 160
f 118 162 165
f 118 165 121
f 119 166 167
f 119 167 120
f 119 128 168
f 119 168 166
f 120 167 163
f 121 165 169
f 121 169 122
f 122 169 123
f 123 169 158
f 124 157 156
f 124 156 125
f 125 156 170
f 125 170 171
f 125 171 172
f 125 172 129
f 126 155 173
f 126 173 174
f 126 174 127
f 127 175 176
f 127 176 128
f 127 174 177
f 127 177 178
f 127 178 175
f 128 179 168
f 128 176 180
f 128 180 179
f 129 172 136
f 131 181 132
f 131 140 182
f 131 182 181
f 132 181 183
f 132 183 184
f 132 184 133
f 133 184 185
f 133 185 143
f 133 143 134
f 134 143 142
f 134 142 141
f 134 141 135
f 136 172 139
f 137 186 140
f 137 140 138
f 137 139 187
f 137 187 186
f 139 172 213
f 139 213 188
f 139 188 189
f 139 189 187
f 140 186 182
f 143 185 190
f 143 190 144
f 144 190 244
f 144 244 191
f 146 192 246
f 146 246 312
f 146 312 379
f 146 379 440
f 146 440 506
f 146 506 559
f 146 559 612
f 146 612 645
f 146 645 644
f 146 644 647
f 146 647 648
f 146 648 596
f 146 596 599
f 146 599 649
f 146 649 653
f 146 653 652
f 146 652 701
f 146 701 734
f 146 734 739
f 146 739 738
f 146 738 753
f 146 753 752
f 146 752 762
f 146 762 766
f 146 766 764
f 146 764 763
f 146 763 754
f 146 754 741
f 146 741 712
f 146 712 668
f 146 668 620
f 146 620 566
f 146 566 511
f 146 511 444
f 146 444 383
f 146 383 315
f 146 315 248
f 146 248 193
f 146 193 147
f 151 194 152
f 152 194 154
f 152 154 153
f 154 195 155
f 154 194 196
f 154 196 195
f 155 195 173
f 156 159 197
f 156 197 170
f 158 169 198
f 158 198 199
f 158 199 159
f 159 199 197
f 160 200 161
f 160 164 200
f 161 200 201
f 161 201 162
f 162 201 202
f 162 202 165
f 163 167 164
f 164 167 203
f 164 203 204
f 164 204 205
f 164 205 206
f 164 206 207
f 164 207 200
f 165 208 198
f 165 198 169
f 165 202 201
f 165 201 208
f 166 168 209
f 166 209 203
f 166 203 167
f 168 210 209
f 168 179 211
f 168 211 210
f 170 197 171
f 171 197 199
f 171 199 212
f 171 212 172
f 172 212 213
f 173 195 214
f 173 214 174
f 174 214 215
f 174 215 216
f 174 216 217
f 174 217 218
f 174 218 177
f 175 219 180
f 175 180 176
f 175 178 220
f 175 220 219
f 177 221 222
f 177 222 178
f 177 218 223
f 177 223 224
f 177 224 221
f 178 222 220
f 179 180 225
f 179 225 211
f 180 219 225
f 181 226 227
f 181 227 183
f 181 182 226
f 182 186 228
f 182 228 229
f 182 229 230
f 182 230 226
f 183 227 184
f 184 227 231
f 184 231 232
f 184 232 185
f 185 232 233
f 185 233 234
f 185 234 190
f 186 187 235
f 186 235 228
f 187 189 236
f 187 236 235
f 188 213 237
f 188 237 238
f 188 238 239
f 188 239 240
f 188 240 241
f 188 241 242
f 188 242 189
f 189 242 236
f 190 234 243
f 190 243 244
f 192 245 311
f 192 311 246
f 193 248 314
f 193 314 247
f 194 249 215
f 194 215 196
f 195 196 214
f 196 215 214
f 198 208 250
f 198 250 251
f 198 251 213
f 198 213 212
f 198 212 199
f 200 207 252
f 200 252 201
f 201 253 208
f 201 252 253
f 203 209 204
f 204 254 255
f 204 255 205
f 204 209 256
f 204 256 254
f 205 255 257
f 205 257 258
f 205 258 259
f 205 259 260
f 205 260 206
f 206 260 252
f 206 252 207
f 208 261 262
f 208 262 250
f 208 253 261
f 209 210 256
f 210 211 256
f 211 263 256
f 211 225 282
f 211 282 263
f 213 251 237
f 215 249 216
f 216 249 264
f 216 264 265
f 216 265 266
f 216 266 267
f 216 267 268
f 216 268 269
f 216 269 217
f 217 270 218
f 217 269 270
f 218 271 272
f 218 272 224
f 218 224 223
f 218 270 273
f 218 273 274
f 218 274 271
f 219 275 225
f 219 220 275
f 220 222 276
f 220 276 275
f 221 224 222
f 222 277 276
f 222 224 278
f 222 278 277
f 224 272 279
f 224 279 280
f 224 280 341
f 224 341 278
f 225 275 281
f 225 281 282
f 226 230 283
f 226 283 284
f 226 284 285
f 226 285 227
f 227 285 231
f 228 286 229
f 228 235 287
f 228 287 288
f 228 288 286
f 229 289 290
f 229 290 230
f 229 286 291
f 229 291 289
f 230 290 283
f 231 292 232
f 231 285 293
f 231 293 294
f 231 294 292
f 232 292 295
f 232 295 296
f 232 296 297
f 232 297 298
f 232 298 233
f 233 298 299
f 233 299 300
f 233 300 301
f 233 301 234
f 234 301 302
f 234 302 243
f 235 236 287
f 236 242 303
f 236 303 304
f 236 304 288
f 236 288 287
f 237 251 238
f 238 250 262
f 238 262 305
f 238 305 306
f 238 306 307
f 238 307 239
f 238 251 250
f 239 307 240
f 240 307 308
f 240 308 309
f 240 309 242
f 240 242 241
f 242 309 303
f 245 310 377
f 245 377 311
f 246 311 312
f 247 314 313
f 248 315 314
f 252 316 317
f 252 317 253
f 252 260 316
f 253 317 261
f 254 257 255
f 254 256 318
f 254 318 319
f 254 319 257
f 256 263 318
f 257 320 321
f 257 321 322
f 257 322 323
f 257 323 258
f 257 319 324
f 257 324 320
f 258 323 259
f 259 323 325
f 259 325 316
f 259 316 260
f 261 317 262
f 262 317 305
f 263 326 319
f 263 319 318
f 263 282 326
f 265 327 266
f 266 328 267
f 266 327 328
f 267 329 330
f 267 330 331
f 267 331 268
f 267 328 329
f 268 331 269
f 269 331 270
f 270 331 273
f 271 274 332
f 271 332 333
f 271 333 272
f 272 333 334
f 272 334 279
f 273 335 274
f 273 331 335
f 274 336 337
f 274 337 338
f 274 338 332
f 274 335 336
f 275 276 339
f 275 339 281
f 276 277 340
f 276 340 339
f 277 278 341
f 277 341 340
f 279 342 280
f 279 334 343
f 279 343 342
f 280 342 344
f 280 344 345
f 280 345 346
f 280 346 347
f 280 347 341
f 281 348 282
f 281 339 348
f 282 348 349
f 282 349 326
f 283 350 351
f 283 351 284
f 283 290 352
f 283 352 353
f 283 353 354
f 283 354 350
f 284 351 293
f 284 293 285
f 286 355 291
f 286 288 356
f 286 356 355
f 288 304 356
f 289 352 290
f 289 291 357
f 289 357 352
f 291 356 358
f 291 358 357
f 291 355 356
f 292 294 295
f 293 359 294
f 293 351 359
f 294 359 360
f 294 360 361
f 294 361 295
f 295 361 362
f 295 362 296
f 296 363 424
f 296 424 364
f 296 364 366
f 296 366 297
f 296 362 365
f 296 365 363
f 297 366 367
f 297 367 298
f 298 367 368
f 298 368 299
f 303 309 308
f 303 308 369
f 303 369 304
f 304 369 370
f 304 370 371
f 304 371 372
f 304 372 356
f 305 317 316
f 305 316 325
f 305 325 306
f 306 373 307
f 306 325 374
f 306 374 375
f 306 375 373
f 307 373 308
f 308 373 369
f 310 376 377
f 311 377 378
f 311 378 312
f 312 378 379
f 313 314 381
f 313 381 380
f 314 315 382
f 314 382 381
f 315 383 382
f 319 326 384
f 319 384 324
f 320 385 386
f 320 386 387
f 320 387 321
f 320 324 388
f 320 388 385
f 321 387 389
f 321 389 374
f 321 374 390
f 321 390 322
f 322 390 391
f 322 391 323
f 323 391 325
f 324 384 392
f 324 392 393
f 324 393 394
f 324 394 388
f 325 391 390
f 325 390 374
f 326 349 384
f 327 395 328
f 328 395 396
f 328 396 397
f 328 397 329
f 329 397 398
f 329 398 399
f 329 399 330
f 330 399 400
f 330 400 401
f 330 401 403
f 330 403 335
f 330 335 331
f 332 338 333
f 333 338 334
f 334 338 337
f 334 337 402
f 334 402 343
f 335 403 404
f 335 404 336
f 336 404 402
f 336 402 337
f 339 340 348
f 340 341 347
f 340 347 348
f 342 405 344
f 342 343 406
f 342 406 405
f 343 402 407
f 343 407 406
f 344 405 345
f 345 408 409
f 345 409 346
f 345 405 408
f 346 409 347
f 347 409 410
f 347 410 411
f 347 411 348
f 348 411 410
f 348 410 412
f 348 412 349
f 349 413 384
f 349 412 413
f 350 354 418
f 350 418 414
f 350 414 415
f 350 415 359
f 350 359 351
f 352 416 417
f 352 417 418
f 352 418 354
f 352 354 353
f 352 357 416
f 356 372 358
f 357 358 419
f 357 419 420
f 357 420 416
f 358 372 421
f 358 421 419
f 359 415 360
f 360 422 362
f 360 362 361
f 360 415 422
f 362 422 365
f 363 423 496
f 363 496 424
f 363 365 425
f 363 425 426
f 363 426 423
f 365 422 425
f 369 373 427
f 369 427 370
f 370 427 428
f 370 428 429
f 370 429 430
f 370 430 371
f 371 430 431
f 371 431 432
f 371 432 433
f 371 433 372
f 372 433 434
f 372 434 421
f 373 375 428
f 373 428 427
f 374 435 428
f 374 428 375
f 374 389 435
f 376 436 437
f 376 437 377
f 377 437 438
f 377 438 378
f 378 438 439
f 378 439 440
f 378 440 379
f 380 381 442
f 380 442 441
f 381 382 383
f 381 383 443
f 381 443 442
f 383 444 445
f 383 445 443
f 384 413 392
f 385 388 446
f 385 446 447
f 385 447 386
f 386 447 448
f 386 448 428
f 386 428 435
f 386 435 389
f 386 389 387
f 388 394 449
f 388 449 450
f 388 450 446
f 392 413 451
f 392 451 452
f 392 452 453
f 392 453 393
f 393 453 394
f 394 454 455
f 394 455 449
f 394 453 456
f 394 456 457
f 394 457 454
f 396 458 398
f 396 398 397
f 398 458 399
f 399 458 400
f 400 459 460
f 400 460 461
f 400 461 462
f 400 462 463
f 400 463 401
f 400 458 464
f 400 464 465
f 400 465 466
f 400 466 467
f 400 467 459
f 401 463 468
f 401 468 403
f 402 404 407
f 403 468 469
f 403 469 404
f 404 469 407
f 405 406 470
f 405 470 408
f 406 407 470
f 407 469 471
f 407 471 472
f 407 472 470
f 408 473 474
f 408 474 409
f 408 470 475
f 408 475 476
f 408 476 477
f 408 477 473
f 409 474 410
f 410 478 451
f 410 451 479
f 410 479 412
f 410 474 478
f 412 479 413
f 413 479 451
f 414 480 415
f 414 418 481
f 414 481 480
f 415 480 482
f 415 482 483
f 415 483 484
f 415 484 422
f 416 485 417
f 416 420 486
f 416 486 485
f 417 487 488
f 417 488 481
f 417 481 418
f 417 485 487
f 419 421 489
f 419 489 490
f 419 490 420
f 420 490 491
f 420 491 492
f 420 492 493
f 420 493 494
f 420 494 486
f 421 434 489
f 422 484 425
f 423 437 495
f 423 495 496
f 423 426 438
f 423 438 437
f 425 484 426
f 426 484 483
f 426 483 438
f 428 448 446
f 428 446 497
f 428 497 498
f 428 498 499
f 428 499 430
f 428 430 429
f 430 499 500
f 430 500 501
f 430 501 431
f 431 501 432
f 432 501 502
f 432 502 433
f 433 502 503
f 433 503 504
f 433 504 434
f 434 504 490
f 434 490 489
f 436 495 437
f 438 483 439
f 439 483 505
f 439 505 506
f 439 506 440
f 441 442 507
f 442 443 445
f 442 445 508
f 442 508 509
f 442 509 510
f 442 510 507
f 444 511 445
f 445 511 512
f 445 512 508
f 446 450 455
f 446 455 497
f 446 448 447
f 449 455 450
f 451 478 513
f 451 513 453
f 451 453 452
f 453 513 456
f 454 457 514
f 454 514 515
f 454 515 455
f 455 515 497
f 456 513 478
f 456 478 516
f 456 516 517
f 456 517 518
f 456 518 457
f 457 518 519
f 457 519 520
f 457 520 521
f 457 521 522
f 457 522 514
f 459 523 524
f 459 524 525
f 459 525 526
f 459 526 460
f 459 467 527
f 459 527 523
f 460 526 461
f 461 526 528
f 461 528 471
f 461 471 462
f 462 471 469
f 462 469 468
f 462 468 463
f 466 529 467
f 467 529 527
f 470 530 475
f 470 472 530
f 471 528 531
f 471 531 532
f 471 532 472
f 472 533 530
f 472 532 533
f 473 477 534
f 473 534 474
f 474 534 535
f 474 535 478
f 475 530 536
f 475 536 477
f 475 477 476
f 477 537 534
f 477 536 537
f 478 535 516
f 480 538 539
f 480 539 482
f 480 481 488
f 480 488 540
f 480 540 538
f 482 539 538
f 482 538 541
f 482 541 483
f 483 541 542
f 483 542 505
f 485 486 543
f 485 543 544
f 485 544 545
f 485 545 540
f 485 540 487
f 486 494 546
f 486 546 543
f 487 540 488
f 490 504 547
f 490 547 491
f 491 547 492
f 492 547 493
f 493 548 494
f 493 547 549
f 493 549 550
f 493 550 548
f 494 548 546
f 497 551 498
f 497 515 551
f 498 551 552
f 498 552 553
f 498 553 499
f 499 553 500
f 500 554 502
f 500 502 501
f 500 553 554
f 502 554 503
f 503 555 547
f 503 547 504
f 503 554 556
f 503 556 557
f 503 557 555
f 505 542 558
f 505 558 559
f 505 559 506
f 507 510 560
f 508 512 561
f 508 561 562
f 508 562 509
f 509 562 510
f 510 562 563
f 510 563 564
f 510 564 565
f 510 565 560
f 511 566 567
f 511 567 568
f 511 568 512
f 512 568 563
f 512 563 561
f 514 569 570
f 514 570 515
f 514 522 521
f 514 521 571
f 514 571 569
f 515 570 572
f 515 572 573
f 515 573 551
f 516 535 574
f 516 574 517
f 517 574 518
f 518 574 575
f 518 575 576
f 518 576 577
f 518 577 519
f 519 578 520
f 519 577 578
f 520 578 521
f 521 578 579
f 521 579 571
f 523 527 580
f 523 580 524
f 524 581 582
f 524 582 526
f 524 526 525
f 524 580 581
f 526 582 583
f 526 583 531
f 526 531 528
f 527 584 580
f 530 585 586
f 530 586 536
f 530 533 585
f 531 583 532
f 532 583 587
f 532 587 533
f 533 588 585
f 533 587 589
f 533 589 588
f 534 537 575
f 534 575 535
f 535 575 574
f 536 586 537
f 537 586 590
f 537 590 591
f 537 591 576
f 537 576 575
f 538 540 592
f 538 592 558
f 538 558 542
f 538 542 541
f 540 545 592
f 543 546 544
f 544 546 593
f 544 593 545
f 545 594 592
f 545 593 594
f 546 548 593
f 547 555 595
f 547 595 549
f 548 596 597
f 548 597 593
f 548 550 598
f 548 598 599
f 548 599 596
f 549 595 600
f 549 600 601
f 549 601 602
f 549 602 550
f 550 602 603
f 550 603 604
f 550 604 605
f 550 605 598
f 551 573 606
f 551 606 552
f 552 606 607
f 552 607 553
f 553 608 554
f 553 607 608
f 554 608 607
f 554 607 556
f 555 557 609
f 555 609 600
f 555 600 595
f 556 610 611
f 556 611 557
f 556 607 610
f 557 611 609
f 558 612 559
f 558 592 612
f 560 565 613
f 561 563 562
f 563 568 614
f 563 614 615
f 563 615 616
f 563 616 564
f 564 616 565
f 565 617 618
f 565 618 619
f 565 619 613
f 565 616 617
f 566 620 621
f 566 621 622
f 566 622 567
f 567 614 568
f 567 622 614
f 569 623 570
f 569 571 624
f 569 624 623
f 570 623 625
f 570 625 573
f 570 573 572
f 571 579 626
f 571 626 627
f 571 627 624
f 573 625 606
f 576 628 578
f 576 578 577
f 576 591 628
f 578 628 579
f 579 628 629
f 579 629 630
f 579 630 626
f 580 584 631
f 580 631 632
f 580 632 581
f 581 633 634
f 581 634 635
f 581 635 582
f 581 632 633
f 582 635 583
f 583 635 636
f 583 636 589
f 583 589 587
f 585 588 586
f 586 588 590
f 588 589 590
f 589 636 637
f 589 637 638
f 589 638 639
f 589 639 590
f 590 639 638
f 590 638 640
f 590 640 641
f 590 641 591
f 591 642 628
f 591 641 643
f 591 643 642
f 592 594 644
f 592 644 645
f 592 645 612
f 593 597 646
f 593 646 647
f 593 647 594
f 594 647 644
f 596 648 597
f 597 648 646
f 598 605 649
f 598 649 599
f 600 609 603
f 600 603 601
f 601 603 602
f 603 609 650
f 603 650 651
f 603 651 604
f 604 651 652
f 604 652 653
f 604 653 605
f 605 653 649
f 606 625 607
f 607 625 654
f 607 654 655
f 607 655 611
f 607 611 610
f 609 611 656
f 609 656 657
f 609 657 658
f 609 658 650
f 611 655 656
f 613 619 659
f 614 622 660
f 614 660 615
f 615 660 661
f 615 661 662
f 615 662 616
f 616 662 663
f 616 663 617
f 617 664 665
f 617 665 618
f 617 663 664
f 618 666 667
f 618 667 619
f 618 665 666
f 619 667 659
f 620 668 669
f 620 669 621
f 621 669 670
f 621 670 671
f 621 671 622
f 622 671 672
f 622 672 660
f 623 624 673
f 623 673 674
f 623 674 675
f 623 675 676
f 623 676 654
f 623 654 625
f 624 627 677
f 624 677 674
f 624 674 673
f 626 678 679
f 626 679 627
f 626 630 680
f 626 680 678
f 627 679 681
f 627 681 674
f 627 674 677
f 628 642 629
f 629 642 682
f 629 682 683
f 629 683 630
f 630 683 684
f 630 684 680
f 631 685 686
f 631 686 687
f 631 687 632
f 632 687 633
f 633 687 686
f 633 686 634
f 634 686 688
f 634 688 689
f 634 689 690
f 634 690 635
f 635 691 692
f 635 692 636
f 635 690 691
f 636 693 637
f 636 692 693
f 637 693 640
f 637 640 638
f 640 693 694
f 640 694 695
f 640 695 641
f 641 695 696
f 641 696 643
f 642 643 682
f 643 696 697
f 643 697 683
f 643 683 682
f 646 648 647
f 650 658 657
f 650 657 698
f 650 698 699
f 650 699 651
f 651 699 700
f 651 700 701
f 651 701 652
f 654 676 655
f 655 676 656
f 656 676 657
f 657 676 702
f 657 702 698
f 659 667 703
f 660 672 704
f 660 704 661
f 661 705 662
f 661 704 706
f 661 706 695
f 661 695 707
f 661 707 705
f 662 705 708
f 662 708 664
f 662 664 663
f 664 708 709
f 664 709 665
f 665 709 710
f 665 710 689
f 665 689 666
f 666 689 686
f 666 686 711
f 666 711 703
f 666 703 667
f 668 712 669
f 669 712 713
f 669 713 714
f 669 714 670
f 670 715 671
f 670 714 715
f 671 715 672
f 672 715 713
f 672 713 716
f 672 716 704
f 674 681 717
f 674 717 718
f 674 718 675
f 675 719 676
f 675 718 719
f 676 720 721
f 676 721 702
f 676 719 720
f 678 722 679
f 678 680 723
f 678 723 722
f 679 722 724
f 679 724 717
f 679 717 681
f 680 684 713
f 680 713 723
f 683 697 696
f 683 696 695
f 683 695 725
f 683 725 684
f 684 725 726
f 684 726 713
f 685 727 686
f 686 689 688
f 686 727 728
f 686 728 711
f 689 710 690
f 690 710 691
f 691 729 692
f 691 710 729
f 692 729 730
f 692 730 694
f 692 694 693
f 694 730 709
f 694 709 695
f 695 709 731
f 695 731 707
f 695 706 725
f 698 702 721
f 698 721 732
f 698 732 733
f 698 733 699
f 699 734 701
f 699 701 700
f 699 733 721
f 699 721 735
f 699 735 736
f 699 736 737
f 699 737 738
f 699 738 739
f 699 739 734
f 704 716 713
f 704 713 740
f 704 740 706
f 705 731 708
f 705 707 731
f 706 740 713
f 706 713 726
f 706 726 725
f 708 731 709
f 709 730 729
f 709 729 710
f 712 741 713
f 713 741 742
f 713 742 743
f 713 743 744
f 713 744 745
f 713 745 746
f 713 746 723
f 713 715 714
f 717 747 748
f 717 748 718
f 717 724 744
f 717 744 747
f 718 748 719
f 719 748 749
f 719 749 720
f 720 749 721
f 721 749 750
f 721 750 735
f 721 733 732
f 722 723 746
f 722 746 745
f 722 745 744
f 722 744 724
f 735 750 751
f 735 751 736
f 736 751 752
f 736 752 753
f 736 753 738
f 736 738 737
f 741 754 755
f 741 755 742
f 742 755 756
f 742 756 757
f 742 757 743
f 743 757 758
f 743 758 759
f 743 759 760
f 743 760 744
f 744 760 759
f 744 759 747
f 747 751 750
f 747 750 748
f 747 759 751
f 748 750 749
f 751 759 761
f 751 761 762
f 751 762 752
f 754 763 755
f 755 763 756
f 756 763 764
f 756 764 758
f 756 758 757
f 758 764 765
f 758 765 759
f 759 765 766
f 759 766 761
f 761 766 762
f 764 766 765

