# https://github.com/mikedh/trimesh
v 112.03137581 62.75539288 22.20631716
v 112.03137581 62.32041310 22.20631716
v 111.72457275 62.75539288 21.64388494
v 106.23557425 62.75539288 22.20631716
v 112.02681811 62.17500169 22.20631716
v 111.72457275 62.32041310 21.64388494
v 111.57724816 62.75539288 21.38577128
v 103.60194954 49.94918768 22.20631716
v 96.51667541 62.75539288 12.62903357
v 96.51667541 49.94918768 15.24044109
v 112.00403473 61.45797486 22.20631716
v 111.70786631 61.45797486 21.67097088
v 111.43144280 62.32041310 21.13243768
v 111.43144280 62.75539288 21.13243768
v 109.81238637 49.94918768 22.20631716
v 96.51667541 62.75539288 5.93242443
v 96.51667541 49.94918768 8.22198500
v 111.99947960 61.33888816 22.20631716
v 111.93265129 60.59553661 22.13621259
v 111.68812141 60.59553661 21.70602316
v 111.35854012 60.59553661 21.13243768
v 111.39802736 61.45797486 21.13243768
v 111.00921135 60.59553661 20.53017312
v 111.02743702 61.45797486 20.50468032
v 111.04414603 62.32041310 20.48237444
v 111.04414603 62.75539288 20.48237444
v 109.88073135 50.13596609 22.20631716
v 109.74251959 49.94918768 22.08682013
v 96.90093628 62.75539288 6.16663842
v 96.51667541 62.32041310 5.93242443
v 96.51667541 50.41425202 8.05628307
v 96.69134108 49.94918768 8.33511011
v 111.97062186 60.59553661 22.20631716
v 111.90683202 59.73309837 22.18560442
v 111.96606673 60.51029562 22.20631716
v 111.30082464 59.73309837 21.13243768
v 110.98035361 59.73309837 20.57637867
v 110.71760064 59.73309837 20.14459610
v 110.74341991 60.59553661 20.09998434
v 110.75860711 61.45797486 20.07289839
v 110.77075841 62.32041310 20.05059187
v 110.77075841 62.75539288 20.05059187
v 109.81390560 50.24377131 22.02627504
v 109.97641740 50.41049121 22.20631716
v 109.30813941 49.94918768 21.35390592
v 96.90093628 62.32041310 6.16663842
v 97.53883730 62.75539288 6.58248703
v 96.51667541 62.22138268 5.93560942
v 96.51667541 50.91441684 7.88261480
v 97.25026505 50.41550648 8.53267740
v 96.75361169 50.17482481 8.29527712
v 96.98143513 49.94918768 8.52471106
v 111.91746409 59.73309837 22.20631716
v 111.89468071 59.48113587 22.20631716
v 111.61825720 58.86940630 21.82711397
v 111.21577066 58.86940630 21.13243768
v 110.93478944 58.86940630 20.65126329
v 110.67203389 58.86940630 20.21948136
v 110.24069218 58.86940630 19.54233154
v 110.28625636 59.73309837 19.47860017
v 110.31207563 60.59553661 19.43398777
v 110.05387778 61.69364093 18.96077972
v 110.06450985 62.32041310 18.94325358
v 110.36067827 62.32041310 19.40690183
v 110.56419911 62.75539288 19.72556057
v 109.94452376 51.10871559 21.73470289
v 110.06147138 50.65493368 22.20631716
v 109.36129719 50.24502449 21.26627490
v 109.17144689 49.94918768 21.12925140
v 97.52213086 60.59553661 6.63506641
v 96.87207854 61.45797486 6.18416360
v 96.51667541 61.45797486 5.96588357
v 97.53883730 62.32041310 6.58248703
v 97.95347514 60.59553661 6.91229839
v 97.99296495 62.75539288 6.88521309
v 96.67159618 51.03475767 7.94315924
v 97.97322004 51.53241357 8.62349470
v 97.53732063 51.19019641 8.45460649
v 96.51667541 51.16261884 7.79976255
v 97.82437622 50.95703766 8.72387213
v 97.23811374 49.94918768 8.69519305
v 111.83544857 58.86940630 22.20631716
v 111.57117379 58.00696838 21.90837180
v 111.09426534 58.08468807 21.07985958
v 110.90897017 58.42314474 20.69746884
v 110.65684669 58.08468807 20.35331793
v 110.18905107 58.00696838 19.61562302
v 109.90503395 58.00696838 19.18384077
v 109.95211736 58.86940630 19.11054929
v 109.99616230 59.73309837 19.04681760
v 110.02502004 60.59553661 19.00220520
v 109.71670032 60.59553661 18.54493015
v 109.30358171 60.59553661 17.93788553
v 109.80934790 61.42663615 18.62140824
v 109.77137733 62.32041310 18.51306447
v 109.91718269 62.75539288 18.72656572
v 110.06450985 62.75539288 18.94325358
v 110.21183444 62.75539288 19.17268783
v 110.02653928 51.60135879 21.59449312
v 110.16475103 50.96957198 22.20631716
v 109.50406665 51.02848922 21.04958672
v 109.09854164 50.24502449 20.83449233
v 109.17752125 50.68877842 20.70702896
v 109.05601593 49.94918768 20.93964981
v 97.48264362 59.73309837 6.66374421
v 96.83562720 60.59553661 6.20328256
v 97.91398533 59.73309837 6.93779119
v 96.51667541 61.29250686 5.97384991
v 97.99296495 62.32041310 6.88521309
v 97.97929441 61.68110564 6.89477321
v 98.40000662 60.59553661 7.22458329
v 98.42430666 62.32041310 7.17519146
v 99.05613588 62.32041310 7.60538154
v 99.03031403 61.45797486 7.62290800
v 98.20711785 62.75539288 7.02860978
v 97.08775068 52.44248630 7.77586353
v 97.21533037 53.01786350 7.68982628
v 97.35658060 53.69603065 7.59263385
v 97.78792488 53.69603065 7.89058114
v 98.05979326 51.97115416 8.56135776
v 98.66276217 52.83359272 8.74777243
v 99.30825936 52.84988850 9.21938670
v 99.06980384 51.97115416 9.30701773
v 98.93159209 51.32307157 9.41217522
v 98.38633865 51.14005526 9.06802367
v 96.51667541 51.96864716 7.54483581
v 97.53732063 50.17482481 8.81787700
v 98.79945469 50.74769437 9.51414643
v 98.23901149 50.24502449 9.28949127
v 97.55250783 49.94918768 8.91666064
v 111.74128175 58.00696838 22.20631716
v 111.70179195 57.67352570 22.20631716
v 111.55142889 57.16207941 22.06292111
v 111.08363327 57.14452981 21.26946117
v 110.87099959 57.84776818 20.75801392
v 110.47762589 57.14452981 20.26887319
v 110.12981893 57.14452981 19.70166091
v 109.84731848 57.14452981 19.26987866
v 109.41597420 57.14452981 18.64371444
v 109.42205113 58.03579977 18.47960533
v 109.19422769 58.34166455 18.09402830
v 109.22764056 58.86940630 18.04622962
v 109.56785649 58.86940630 18.54493015
v 109.27320731 59.73309837 17.97931133
v 108.96640425 59.73309837 17.54752876
v 108.99526199 60.59553661 17.50769674
v 109.32332661 61.45797486 17.91557965
v 109.77137733 62.75539288 18.51306447
v 109.34003305 62.32041310 17.89646005
v 109.55418595 62.75539288 18.20237239
v 110.74949427 53.69603065 21.84463979
v 110.64773385 52.88248070 22.06132797
v 110.70696857 52.80476069 22.20631716
v 110.46243869 51.93981513 22.20631716
v 110.21031521 51.11122322 22.20631716
v 110.18753441 51.10871559 22.16648481
v 109.27624320 51.26415562 20.55885285
v 109.85035694 51.92226553 21.15474421
v 110.10703556 52.17673534 21.45746963
v 108.61100368 49.94918768 20.25612679
v 108.41355721 49.94918768 19.95977457
v 108.40899951 50.42177364 19.70325405
v 109.00133892 51.02848922 20.27046633
v 97.40974094 58.86940630 6.70676347
v 96.72019882 58.86940630 6.27657469
v 96.78854379 59.73309837 6.23355671
v 96.51667541 59.73309837 6.06626100
v 96.51667541 60.34608111 6.02483423
v 96.51667541 60.59553661 6.00890155
v 98.40000662 58.86940630 7.37276004
v 97.84108265 58.86940630 6.98559052
v 98.99842040 60.59553661 7.64521324
v 98.95589469 59.73309837 7.67548610
v 98.89362151 58.86940630 7.72009786
v 98.42430666 62.75539288 7.17519146
v 99.05613588 62.75539288 7.60538154
v 99.48747758 62.32041310 7.91607394
v 99.46165831 61.45797486 7.93200662
v 99.42976468 60.59553661 7.95271808
v 96.75057322 52.77091531 7.46198485
v 96.63058713 53.68725585 7.13057970
v 97.90639173 54.33157762 7.80932267
v 96.51667541 53.78879262 7.03179477
v 96.85081698 54.55846857 7.05888136
v 97.58592070 54.59482158 7.53368319
v 98.88754714 53.98434583 8.58684928
v 98.45316440 53.69603065 8.35900913
v 98.23141789 52.83359272 8.44186009
v 98.77515466 53.40896864 8.66651397
v 99.20953483 53.69603065 8.90072796
v 99.74112030 53.14697849 9.45200692
v 99.62417268 52.57285511 9.54282551
v 99.50114812 51.97115416 9.63842287
v 100.45496503 51.79941835 10.43028967
v 99.87325769 51.10871559 10.21360085
v 99.23687334 51.06484159 9.73880030
v 96.51667541 52.79222508 7.30743554
v 98.16155368 49.94918768 9.34844321
v 98.67035577 50.24502449 9.60815001
v 99.74719724 50.56843759 10.31079200
v 99.29762729 50.26633361 10.07657800
v 99.20042200 49.94918768 10.12278354
v 98.79186109 49.94918768 9.81209114
v 98.57315048 49.94918768 9.65116927
v 111.65167007 57.29119440 22.20631716
v 111.61825720 57.06555662 22.20631716
v 111.36461448 56.28334506 21.99440968
v 111.01224982 56.28334506 21.38736506
v 110.08121628 56.52904007 19.77973245
v 109.34155228 56.28334506 18.74887193
v 108.33153913 56.65063344 17.23205694
v 108.73098977 57.14452981 17.68136565
v 109.15473788 57.76628800 18.14979364
v 108.91172724 58.03579977 17.75625028
v 108.91932084 58.86940630 17.61444737
v 108.48797913 58.86940630 17.03130209
v 108.53506254 59.73309837 16.97394361
v 108.56392028 60.59553661 16.93251780
v 109.00893252 61.45797486 17.48379708
v 108.27230699 62.32041310 16.44975027
v 109.34003305 62.75539288 17.89646005
v 109.02260049 62.32041310 17.46467780
v 109.18055715 62.75539288 17.67817905
v 110.19816390 52.83359272 21.31088666
v 110.28777559 53.68976284 21.07985958
v 110.85125469 54.55846857 21.66300454
v 110.94845998 53.69603065 22.20631716
v 110.86340599 53.37010927 22.20631716
v 110.76771994 53.02162431 22.20631716
v 109.09702240 51.97115416 19.96136771
v 109.38408056 51.97115416 20.39315028
v 108.31331346 51.55497715 18.98149246
v 109.93237246 52.83359272 20.87910473
v 108.24952362 49.94918768 19.71918737
v 108.52746637 51.10871559 19.52639886
v 108.12042469 50.17858562 19.41168157
v 108.23737488 51.10871559 19.09620975
v 96.51667541 58.03078578 6.24470804
v 97.32316773 58.00696838 6.76093664
v 96.51667541 58.86940630 6.15070446
v 96.51667541 59.35578169 6.10290513
v 98.85109581 58.31910065 7.75037073
v 98.80401240 57.74372409 7.78223737
v 97.75451201 58.00696838 7.04294868
v 98.74629692 57.14452981 7.82206907
v 99.38723640 59.73309837 7.98299222
v 99.32496579 58.86940630 8.02919648
v 99.48747758 62.75539288 7.91607394
v 99.76997804 62.75539288 8.12957391
v 100.05703362 62.32041310 8.34785522
v 100.03880795 61.45797486 8.36378790
v 100.02058228 60.59553661 8.38450193
v 99.98261171 59.73309837 8.41477351
v 96.51667541 53.61078965 7.07959538
v 97.99448418 54.90695417 7.74559066
v 98.33014241 54.59482158 8.05150301
v 98.98019473 54.55846857 8.51993100
v 96.51667541 54.55846857 6.85334773
v 96.51667541 55.15139537 6.73225628
v 96.55920369 55.42090714 6.70357719
v 96.99054540 55.42090714 6.97443661
v 97.53883730 55.42090714 7.33452084
v 98.07346123 55.42090714 7.69141878
v 99.41153901 54.55846857 8.83062340
v 99.84591919 53.69603065 9.37074973
v 100.56735752 52.37479555 10.34265864
v 100.97136072 52.01628197 10.79515395
v 101.37536650 51.65651521 11.25402182
v 100.83011050 51.10871559 10.98156862
v 100.30460197 51.10871559 10.54978605
v 99.60746624 49.99306167 10.41913705
v 99.59683417 49.94918768 10.42869588
v 111.48308391 56.28334506 22.20631716
v 110.89833810 55.03606916 21.57855979
v 110.75101351 56.28334506 20.95717563
v 110.23917295 55.42090714 20.38996335
v 110.02350081 55.95491669 19.87054976
v 109.20334052 54.88188295 18.94325358
v 109.81542227 56.25827448 19.45788711
v 109.25649830 55.42090714 18.86677549
v 109.03475179 56.28334506 18.31868282
v 108.27230699 56.07651070 17.31331477
v 108.00651297 56.33223369 16.89427892
v 107.53264299 56.28334506 16.29520064
v 108.04144765 57.14452981 16.74769563
v 108.37102894 57.14452981 17.17947820
v 108.94969781 55.42090714 18.43658638
v 108.51835610 55.42090714 17.83910156
v 108.43178288 58.00696838 17.09822037
v 108.10067979 58.00696838 16.66803127
v 108.15232090 58.86940630 16.59951952
v 108.19788507 59.73309837 16.54216104
v 107.45062747 60.26710792 15.53201325
v 108.22977871 60.59553661 16.50232869
v 108.25256208 61.45797486 16.47364929
v 107.84400118 61.45797486 15.95582948
v 107.47948521 61.45797486 15.49696097
v 107.87893328 62.32041310 15.95582948
v 108.27230699 62.75539288 16.44975027
v 108.80541169 62.75539288 17.16991840
v 110.00831361 53.39894066 20.75642078
v 110.08425218 53.97431722 20.63692375
v 111.30841824 55.38330095 22.20631716
v 111.14590645 54.56473702 22.20631716
v 110.52622853 54.55846857 21.13243768
v 109.16840842 52.44624711 19.85780336
v 108.64593579 51.89343478 19.32405054
v 109.25042393 53.02162431 19.73193377
v 109.47824481 52.77342231 20.19398856
v 108.12042469 51.89343478 18.55927001
v 108.39988668 52.13035435 18.85721569
v 107.78628570 51.05230727 18.47323213
v 107.53871992 51.30301562 18.00480414
v 108.14928243 49.94918768 19.57579068
v 107.64959318 50.24502449 18.70107292
v 107.43695950 50.72763843 18.13864070
v 96.67615131 57.14452981 6.45980436
v 96.51667541 57.37518222 6.32915279
v 97.23052014 57.14452981 6.81988859
v 99.91730263 58.86940630 8.45938655
v 99.83984482 58.00696838 8.51515093
v 97.66186185 57.14452981 7.10190062
v 98.31495264 57.14452981 7.53368319
v 98.20559862 56.28334506 7.60697532
v 99.26269518 57.14452981 8.20605231
v 99.70770743 56.66567604 8.61712214
v 99.31129525 56.34100849 8.38450193
v 98.63694290 56.28334506 7.90013997
v 100.05703362 62.75539288 8.34785522
v 100.48837790 62.32041310 8.67926037
v 100.45192656 60.59553661 8.70793945
v 100.41395599 59.73309837 8.73661981
v 98.50480551 55.42090714 7.99414484
v 96.51667541 55.48859854 6.66374421
v 96.51667541 56.27081009 6.50919618
v 97.07408015 55.96494531 6.92345101
v 96.74146039 56.26454229 6.65259288
v 97.48264362 56.26454229 7.13376598
v 99.10777442 55.42090714 8.42592741
v 99.53911870 55.42090714 8.74139859
v 99.98565018 54.55846857 9.26081219
v 100.41699446 54.55846857 9.60496373
v 100.27726347 53.69603065 9.71808756
v 101.75051453 53.69603065 10.93695686
v 101.08071474 52.83359272 10.63423080
v 101.59407454 52.83359272 11.06441959
v 101.48320128 52.23189113 11.15842445
v 100.64937303 52.83359272 10.27574036
v 101.26145478 51.10871559 11.35439925
v 101.87657499 51.90346276 11.62207238
v 102.26842946 51.57503439 12.08890724
v 100.67671154 50.43054844 11.11221891
v 100.09348496 49.94918768 10.83020559
v 110.15108050 54.55846857 20.53176626
v 109.96730456 55.42090714 19.95818078
v 109.40534213 54.57977898 19.35591622
v 109.14258915 54.30776022 19.03566434
v 108.90109517 54.57977898 18.61025530
v 108.20092354 55.42090714 17.40731899
v 107.71945739 55.44848535 16.76522209
v 108.42874442 54.55846857 17.96656493
v 107.47644674 55.75435014 16.36211892
v 107.17420396 56.28334506 15.86341839
v 107.25318100 57.14452981 15.76941417
v 107.61010337 57.14452981 16.19960295
v 106.60312868 54.94581418 15.51289365
v 107.66933808 58.00696838 16.12312519
v 107.72097662 58.86940630 16.05301998
v 107.42784410 59.73309837 15.56069233
v 107.03599220 59.73309837 15.09385812
v 106.63350566 59.73309837 14.61905629
v 106.66388263 60.59553661 14.58241086
v 107.16509112 60.57046571 15.17352281
v 107.46581724 60.84248480 15.51289365
v 107.73616382 60.57046571 15.87457101
v 107.11345001 61.45797486 15.06677154
v 107.49467241 62.32041310 15.47943450
v 107.87893328 62.75539288 15.95582948
v 109.34155228 53.69603065 19.58853708
v 109.80479020 53.68976284 20.31667187
v 108.97703632 52.77342231 19.42920771
v 109.06057106 53.69603065 19.15675483
v 108.50468556 52.83359272 18.71222618
v 107.64351624 51.97115416 17.86778064
v 108.19788507 52.83359272 18.28044361
v 107.20913606 51.05230727 17.70367153
v 106.73070837 51.10871559 17.07910077
v 106.38593731 51.10871559 16.64731820
v 106.50744263 51.80944632 16.49595581
v 107.30937724 51.97115416 17.43599840
v 107.68756375 49.94918768 18.91776078
v 107.43240180 49.94918768 18.55608341
v 107.29874518 49.94918768 18.36807464
v 107.34279269 50.24502449 18.26929067
v 106.82639442 49.94918768 17.74509734
v 106.52414907 49.99807695 17.33721411
v 106.63350566 50.57345286 17.20019094
v 96.51667541 56.58544968 6.45502302
v 96.51667541 57.14452981 6.35942694
v 97.15761489 56.53906805 6.86768663
v 100.34864691 58.86940630 8.78601164
v 100.27118653 58.00696838 8.84496358
v 99.75631007 57.14452981 8.57888294
v 99.63176628 56.09155331 8.67448031
v 100.18765178 57.14452981 8.90869430
v 100.74961422 57.14452981 9.34047687
v 100.65089227 56.28334506 9.41695528
v 100.58254472 55.76061730 9.46953338
v 100.48837790 62.75539288 8.67926037
v 101.22804191 62.75539288 9.25603212
v 100.98806973 62.32041310 9.06961745
v 101.47105255 62.32041310 9.44722814
v 101.44523328 61.45797486 9.46794088
v 101.06704677 60.61433971 9.20504781
v 101.40726013 60.33981363 9.49821375
v 100.94554145 59.73309837 9.16840110
v 100.89086444 58.86940630 9.21779292
v 100.18005818 55.45224552 9.22416676
v 100.50356510 55.18524074 9.53167289
v 101.48927822 55.42090714 10.29167304
v 101.42700504 54.96461695 10.34584492
v 101.03059544 54.62992078 10.09569824
v 101.34498952 54.38924040 10.41276320
v 100.80125276 53.69603065 10.14827635
v 102.26691023 54.18491303 11.22693588
v 102.18185624 53.69603065 11.30341364
v 102.02541882 52.83359272 11.44521719
v 101.73988246 51.10871559 11.78618182
v 101.55458730 50.24502449 11.95507067
v 101.48775899 49.94918768 12.01402261
v 102.37626682 52.15041094 11.99171673
v 103.15997319 51.49982201 12.92379265
v 102.73774431 51.17013918 12.66567964
v 101.23259704 49.94918768 11.79096188
v 100.98503126 49.94918768 11.57746062
v 100.66152434 49.94918768 11.30022736
v 100.43218166 49.94918768 11.10743885
v 108.59277544 53.69352365 18.49075827
v 108.36039687 53.97933185 18.05738256
v 107.67237398 54.55846857 16.96438381
v 107.34582858 54.55846857 16.53260124
v 108.10371826 54.55846857 17.53478268
v 107.41417613 55.17897294 16.44178361
v 106.85677140 54.61738581 15.90962393
v 106.65325056 55.42090714 15.45394234
v 106.74285968 56.28334506 15.34719107
v 106.46187846 57.14452981 14.81981114
v 106.82183929 57.14452981 15.25159371
v 107.31849008 58.00696838 15.69134262
v 106.53478114 54.37043698 15.59096519
v 105.77537480 54.80667058 14.61268309
v 105.84827748 55.42090714 14.52983212
v 105.94851866 56.28334506 14.41670829
v 106.37986294 56.28334506 14.91540915
v 107.37772479 58.86940630 15.62123806
v 106.88410990 58.89698452 15.02375291
v 106.60616715 59.20284930 14.64932915
v 106.24165119 59.73309837 14.18727436
v 106.27506406 60.59553661 14.15062830
v 106.68210830 61.45797486 14.56010498
v 106.30088333 61.45797486 14.12832241
v 107.12712055 62.32041310 15.04765258
v 107.49467241 62.75539288 15.47943450
v 107.72401509 52.85364867 17.63516011
v 108.27838135 53.40395465 18.16572665
v 107.40354406 52.58037673 17.31809483
v 105.95459560 51.10871559 16.11037879
v 105.69943365 51.64147197 15.56228611
v 106.59857355 52.38482352 16.38123853
v 106.82335596 52.04636718 16.79708809
v 106.66995700 52.83359272 16.29360718
v 107.14078851 52.85364867 16.87993906
v 106.51503623 49.94918768 17.34996051
v 105.82853258 50.43305608 16.26811470
v 100.82555536 58.00696838 9.27674487
v 101.18095850 57.14452981 9.67984835
v 101.08223398 56.28334506 9.76269932
v 101.47105255 62.75539288 9.44722814
v 101.68520546 62.75539288 9.62886275
v 101.90239426 62.32041310 9.81527871
v 102.36563475 60.59553661 10.28051913
v 101.42700504 60.91519018 9.48227978
v 101.37688573 59.73309837 9.52370655
v 102.32918341 59.73309837 10.31079200
v 102.29728720 59.20159581 10.33787858
v 101.32220872 58.86940630 9.56991081
v 101.25689964 58.00696838 9.62089641
v 100.91668371 55.45224552 9.81209114
v 101.60167071 56.28334506 10.19288939
v 102.64357750 53.69603065 11.73360307
v 102.03301242 56.28334506 10.57049879
v 102.33677701 54.76028959 11.16479701
v 102.95189722 56.28334506 11.38785839
v 103.42120950 56.28334506 11.81964096
v 103.31185548 55.42090714 11.91842525
v 103.21920790 54.70513380 12.00446313
v 103.14478599 54.12975660 12.07775397
v 102.49777214 52.83359272 11.87540598
v 102.17122674 51.10871559 12.17653826
v 101.98592901 50.24502449 12.34542776
v 102.39449249 49.94918768 12.83616163
v 103.23895280 51.97115416 12.84731489
v 103.81154731 52.83359272 13.13410763
v 104.23833389 52.83359272 13.56429642
v 104.08949006 51.97115416 13.71565945
v 104.01354891 51.52489195 13.79532413
v 103.53056609 51.22404243 13.41771345
v 103.03998710 50.92444481 13.03851026
v 102.45980156 50.24502449 12.77561654
v 107.48707881 53.15575329 17.20815760
v 107.56301996 53.69603065 17.10778017
v 107.23343610 53.69603065 16.67759107
v 106.80361105 53.69603065 16.13268467
v 106.03053418 57.14452981 14.32429721
v 106.52718754 58.00696838 14.74174024
v 106.88714837 58.00696838 15.17352281
v 106.01079184 53.69603065 15.20857509
v 105.70550802 54.23129402 14.69075463
v 106.44213355 53.69603065 15.70249588
v 104.87623490 54.10217903 13.79373099
v 105.46098071 55.42090714 14.09804955
v 105.55818343 56.28334506 13.98811265
v 105.64323741 57.14452981 13.89570156
v 106.56971581 58.62747275 14.69075463
v 106.25987686 58.89698452 14.30995767
v 105.76170426 58.86940630 13.76664505
v 105.81030691 59.73309837 13.71406631
v 105.84372235 60.59553661 13.67742024
v 105.86954162 61.45797486 13.65192744
v 106.32214747 62.32041310 14.11079595
v 106.69577627 62.32041310 14.54257852
v 105.89080319 62.32041310 13.62962156
v 106.90992917 62.75539288 14.79272520
v 107.12712055 62.75539288 15.04765258
v 105.60071170 51.10871559 15.67859622
v 105.16936742 51.10871559 15.20060810
v 104.85649000 51.57252804 14.67482195
v 104.95369528 52.14665078 14.56966446
v 105.06456854 52.83359272 14.44538737
v 104.78358732 53.52680183 13.89251528
v 105.78752353 52.21684917 15.46190868
v 106.24924479 49.94918768 17.02333543
v 105.83157104 49.94918768 16.51029535
v 105.64627588 49.94918768 16.28723398
v 105.47768715 50.18610725 15.97016902
v 101.69583752 57.14452981 10.11163092
v 101.90239426 62.75539288 9.81527871
v 102.14996261 62.75539288 10.02877996
v 102.40056685 62.32041310 10.24705999
v 102.38386042 61.45797486 10.26140017
v 102.79697646 60.59553661 10.66450366
v 102.76052512 59.73309837 10.69636902
v 103.18275656 58.86940630 11.17754341
v 103.15086035 58.40058115 11.20781628
v 102.25172302 58.62621893 10.37771157
v 101.77025944 58.00696838 10.05267898
v 103.07492178 53.69603065 12.14467226
v 102.12717923 57.14452981 10.48924161
v 102.52055294 56.28334506 11.00228136
v 102.41727329 55.42090714 11.09469245
v 103.04302557 57.14452981 11.30500742
v 103.51234042 57.14452981 11.73678999
v 103.94368213 57.14452981 12.13989284
v 103.85255378 56.28334506 12.22911701
v 103.74319976 55.42090714 12.33427449
v 104.07581952 54.55846857 12.87121455
v 104.01658738 54.09841822 12.93016585
v 102.89114327 50.24502449 13.18668637
v 102.82583419 49.94918768 13.25519780
v 103.38020303 52.83359272 12.71029140
v 103.92393723 53.52304166 13.02098380
v 104.39932645 53.81261003 13.40656083
v 104.66815893 52.83359272 14.01519859
v 103.90115642 50.94951603 13.91322802
v 104.58310495 51.90346276 14.26215898
v 104.76840012 51.10871559 14.76882618
v 104.27478523 51.18518243 14.21276652
v 103.32400679 50.24502449 13.61846830
v 106.02445981 58.07842027 14.16656162
v 105.69639518 57.83773989 13.83834275
v 105.13595198 53.76748286 14.20002076
v 104.50564457 54.55846857 13.30458962
v 104.93091191 54.55846857 13.73637219
v 105.02963643 55.42090714 13.63280848
v 105.12683915 56.28334506 13.53561733
v 105.21189313 57.14452981 13.44798631
v 104.84282203 57.73996360 12.96521813
v 105.73436576 58.41311644 13.79851041
v 105.36073696 58.86940630 13.33645562
v 104.98407226 59.73309837 12.81863581
v 105.41541397 59.73309837 13.28228374
v 105.44731017 60.59553661 13.24563767
v 106.32214747 62.75539288 14.11079595
v 106.69577627 62.75539288 14.54257852
v 105.01596589 60.59553661 12.78676980
v 105.47920638 62.32041310 13.19783899
v 105.68424645 62.75539288 13.41134024
v 105.89080319 62.75539288 13.62962156
v 104.93546961 49.94918768 15.45234856
v 104.99622099 50.24502449 15.38543028
v 104.59677292 50.24502449 14.95364771
v 105.51717695 49.94918768 16.13427781
v 105.36984979 49.94918768 15.96060954
v 102.20160115 58.00696838 10.42232333
v 102.40056685 62.75539288 10.24705999
v 102.61471976 62.75539288 10.43666222
v 102.83191113 62.32041310 10.62945074
v 102.81520212 61.45797486 10.64538470
v 103.29514905 61.45797486 11.07557349
v 103.27084901 60.59553661 11.09469245
v 103.23439510 59.73309837 11.12815159
v 104.06670669 58.86940630 12.01880267
v 103.99076554 57.70611758 12.09368730
v 103.10377694 57.82520460 11.25083554
v 103.61258161 53.76497586 12.64337311
v 104.36287511 57.14452981 12.57167477
v 104.70916540 56.28334506 13.10383476
v 104.27782370 56.28334506 12.66089958
v 104.18061841 55.42090714 12.76446328
v 103.25869771 49.94918768 13.68538658
v 104.16694787 50.24502449 14.49318606
v 103.91786286 49.94918768 14.35934949
v 103.75535107 50.24502449 14.06299727
v 104.88686697 58.31408634 12.91901323
v 104.92939525 58.86940630 12.87599397
v 104.61044345 55.42090714 13.20261905
v 104.79421939 57.14452981 13.01620374
v 104.49653173 58.86940630 12.44421204
v 104.54817284 59.73309837 12.38844638
v 104.58310495 60.59553661 12.35498723
v 104.62563066 62.32041310 12.32312123
v 105.03267490 61.45797486 12.77083648
v 104.19580561 62.32041310 11.88815238
v 105.47920638 62.75539288 13.19783899
v 105.04786210 62.32041310 12.75490380
v 105.26201501 62.75539288 12.97477826
v 104.52994460 49.94918768 15.01419343
v 104.10619650 49.94918768 14.55691806
v 102.83191113 62.75539288 10.62945074
v 103.07188331 62.75539288 10.84295199
v 103.31489395 62.32041310 11.06123331
v 103.74623823 62.32041310 11.45796360
v 103.72649333 61.45797486 11.47867634
v 103.70219072 60.59553661 11.50416850
v 103.66573938 59.73309837 11.53922142
v 104.11834780 59.73309837 11.97100399
v 104.15327990 60.59553661 11.93595107
v 104.17757994 61.45797486 11.91045826
v 104.62563066 62.75539288 12.32312123
v 103.96950397 62.75539288 11.67146485
v 104.19580561 62.75539288 11.88815238
v 105.04786210 62.75539288 12.75490380
v 103.31489395 62.75539288 11.06123331
v 103.52904686 62.75539288 11.25720810
v 103.74623823 62.75539288 11.45796360
f 1 2 6
f 1 6 3
f 1 3 7
f 1 7 14
f 1 14 26
f 1 26 42
f 1 42 65
f 1 65 98
f 1 98 97
f 1 97 96
f 1 96 148
f 1 148 150
f 1 150 221
f 1 221 223
f 1 223 300
f 1 300 299
f 1 299 378
f 1 378 463
f 1 463 534
f 1 534 533
f 1 533 594
f 1 594 593
f 1 593 598
f 1 598 597
f 1 597 634
f 1 634 636
f 1 636 652
f 1 652 649
f 1 649 651
f 1 651 650
f 1 650 655
f 1 655 654
f 1 654 653
f 1 653 640
f 1 640 639
f 1 639 606
f 1 606 605
f 1 605 548
f 1 548 547
f 1 547 479
f 1 479 478
f 1 478 410
f 1 410 409
f 1 409 329
f 1 329 249
f 1 249 248
f 1 248 176
f 1 176 175
f 1 175 115
f 1 115 75
f 1 75 47
f 1 47 29
f 1 29 16
f 1 16 9
f 1 9 4
f 1 4 8
f 1 8 15
f 1 15 27
f 1 27 44
f 1 44 67
f 1 67 100
f 1 100 155
f 1 155 154
f 1 154 153
f 1 153 229
f 1 229 228
f 1 228 227
f 1 227 304
f 1 304 303
f 1 303 273
f 1 273 206
f 1 206 205
f 1 205 132
f 1 132 131
f 1 131 82
f 1 82 54
f 1 54 53
f 1 53 35
f 1 35 33
f 1 33 18
f 1 18 11
f 1 11 5
f 1 5 2
f 2 5 6
f 3 6 7
f 4 9 10
f 4 10 8
f 5 11 6
f 6 11 12
f 6 12 13
f 6 13 7
f 7 13 14
f 8 10 17
f 8 17 32
f 8 32 52
f 8 52 81
f 8 81 130
f 8 130 198
f 8 198 204
f 8 204 203
f 8 203 202
f 8 202 272
f 8 272 353
f 8 353 437
f 8 437 436
f 8 436 435
f 8 435 434
f 8 434 430
f 8 430 501
f 8 501 569
f 8 569 620
f 8 620 622
f 8 622 638
f 8 638 637
f 8 637 599
f 8 599 603
f 8 603 602
f 8 602 544
f 8 544 543
f 8 543 542
f 8 542 473
f 8 473 395
f 8 395 393
f 8 393 392
f 8 392 391
f 8 391 314
f 8 314 234
f 8 234 161
f 8 161 160
f 8 160 104
f 8 104 69
f 8 69 45
f 8 45 28
f 8 28 15
f 9 16 30
f 9 30 48
f 9 48 72
f 9 72 108
f 9 108 169
f 9 169 168
f 9 168 167
f 9 167 241
f 9 241 240
f 9 240 238
f 9 238 318
f 9 318 399
f 9 399 398
f 9 398 335
f 9 335 334
f 9 334 259
f 9 259 258
f 9 258 183
f 9 183 254
f 9 254 197
f 9 197 126
f 9 126 79
f 9 79 49
f 9 49 31
f 9 31 17
f 9 17 10
f 11 18 19
f 11 19 12
f 12 19 20
f 12 20 21
f 12 21 22
f 12 22 13
f 13 22 23
f 13 23 24
f 13 24 25
f 13 25 26
f 13 26 14
f 15 28 27
f 16 29 46
f 16 46 30
f 17 31 32
f 18 33 19
f 19 34 20
f 19 33 35
f 19 35 34
f 20 34 21
f 21 36 37
f 21 37 23
f 21 23 22
f 21 34 36
f 23 37 38
f 23 38 39
f 23 39 24
f 24 39 40
f 24 40 25
f 25 40 41
f 25 41 42
f 25 42 26
f 27 28 43
f 27 43 44
f 28 45 43
f 29 47 73
f 29 73 46
f 30 46 48
f 31 49 50
f 31 50 51
f 31 51 32
f 32 51 50
f 32 50 52
f 34 35 53
f 34 53 54
f 34 54 55
f 34 55 36
f 36 55 37
f 37 55 56
f 37 56 57
f 37 57 58
f 37 58 38
f 38 58 59
f 38 59 60
f 38 60 61
f 38 61 39
f 39 61 62
f 39 62 40
f 40 62 63
f 40 63 64
f 40 64 41
f 41 65 42
f 41 64 65
f 43 66 67
f 43 67 44
f 43 45 68
f 43 68 66
f 45 69 68
f 46 70 71
f 46 71 72
f 46 72 48
f 46 73 74
f 46 74 70
f 47 75 109
f 47 109 73
f 49 76 77
f 49 77 78
f 49 78 50
f 49 79 76
f 50 78 77
f 50 77 80
f 50 80 81
f 50 81 52
f 54 82 55
f 55 82 83
f 55 83 56
f 56 83 57
f 57 83 84
f 57 84 85
f 57 85 58
f 58 85 86
f 58 86 87
f 58 87 59
f 59 87 88
f 59 88 89
f 59 89 60
f 60 89 90
f 60 90 91
f 60 91 61
f 61 91 62
f 62 91 92
f 62 92 93
f 62 93 94
f 62 94 95
f 62 95 63
f 63 95 96
f 63 96 97
f 63 97 98
f 63 98 64
f 64 98 65
f 66 99 100
f 66 100 67
f 66 68 101
f 66 101 99
f 68 69 102
f 68 102 103
f 68 103 101
f 69 104 102
f 70 105 106
f 70 106 71
f 70 74 107
f 70 107 105
f 71 106 72
f 72 106 108
f 73 109 110
f 73 110 74
f 74 111 107
f 74 110 112
f 74 112 113
f 74 113 114
f 74 114 111
f 75 115 109
f 76 79 77
f 77 116 117
f 77 117 118
f 77 118 119
f 77 119 120
f 77 120 121
f 77 121 122
f 77 122 123
f 77 123 124
f 77 124 125
f 77 125 80
f 77 79 126
f 77 126 116
f 80 127 81
f 80 125 128
f 80 128 129
f 80 129 127
f 81 127 130
f 82 131 83
f 83 131 132
f 83 132 133
f 83 133 134
f 83 134 84
f 84 134 135
f 84 135 85
f 85 135 86
f 86 136 137
f 86 137 87
f 86 135 136
f 87 137 138
f 87 138 88
f 88 138 139
f 88 139 140
f 88 140 141
f 88 141 142
f 88 142 143
f 88 143 89
f 89 143 144
f 89 144 90
f 90 144 92
f 90 92 91
f 92 144 93
f 93 144 145
f 93 145 146
f 93 146 147
f 93 147 95
f 93 95 94
f 95 148 96
f 95 147 149
f 95 149 150
f 95 150 148
f 99 151 152
f 99 152 153
f 99 153 154
f 99 154 155
f 99 155 156
f 99 156 100
f 99 101 157
f 99 157 158
f 99 158 159
f 99 159 151
f 100 156 155
f 101 103 157
f 102 104 160
f 102 160 103
f 103 160 161
f 103 161 162
f 103 162 163
f 103 163 157
f 105 164 165
f 105 165 166
f 105 166 106
f 105 107 164
f 106 166 167
f 106 167 168
f 106 168 169
f 106 169 108
f 107 170 171
f 107 171 164
f 107 111 172
f 107 172 173
f 107 173 174
f 107 174 170
f 109 115 112
f 109 112 110
f 111 114 172
f 112 115 175
f 112 175 176
f 112 176 113
f 113 176 248
f 113 248 177
f 113 177 178
f 113 178 114
f 114 178 179
f 114 179 172
f 116 126 117
f 117 126 180
f 117 180 181
f 117 181 118
f 118 182 119
f 118 181 183
f 118 183 184
f 118 184 185
f 118 185 182
f 119 182 186
f 119 186 187
f 119 187 188
f 119 188 120
f 120 188 189
f 120 189 121
f 121 189 190
f 121 190 191
f 121 191 122
f 122 191 123
f 123 191 192
f 123 192 193
f 123 193 124
f 124 193 194
f 124 194 195
f 124 195 196
f 124 196 128
f 124 128 125
f 126 197 180
f 127 129 198
f 127 198 130
f 128 199 129
f 128 196 195
f 128 195 200
f 128 200 201
f 128 201 202
f 128 202 203
f 128 203 199
f 129 199 203
f 129 203 204
f 129 204 198
f 132 205 133
f 133 205 206
f 133 206 207
f 133 207 208
f 133 208 134
f 134 208 209
f 134 209 136
f 134 136 135
f 136 209 137
f 137 209 138
f 138 210 139
f 138 209 210
f 139 210 211
f 139 211 212
f 139 212 213
f 139 213 141
f 139 141 140
f 141 213 214
f 141 214 215
f 141 215 142
f 142 215 145
f 142 145 144
f 142 144 143
f 145 215 216
f 145 216 217
f 145 217 218
f 145 218 146
f 146 219 147
f 146 218 220
f 146 220 219
f 147 219 149
f 149 221 150
f 149 219 222
f 149 222 223
f 149 223 221
f 151 159 224
f 151 224 225
f 151 225 226
f 151 226 227
f 151 227 228
f 151 228 229
f 151 229 152
f 152 229 153
f 157 230 231
f 157 231 158
f 157 163 232
f 157 232 230
f 158 231 233
f 158 233 159
f 159 233 224
f 161 234 162
f 162 235 163
f 162 234 236
f 162 236 237
f 162 237 235
f 163 235 232
f 164 238 165
f 164 171 239
f 164 239 238
f 165 238 240
f 165 240 166
f 166 240 241
f 166 241 167
f 170 174 242
f 170 242 243
f 170 243 171
f 171 244 239
f 171 243 245
f 171 245 244
f 172 179 246
f 172 246 173
f 173 246 174
f 174 246 247
f 174 247 242
f 177 248 249
f 177 249 250
f 177 250 251
f 177 251 252
f 177 252 178
f 178 252 179
f 179 252 253
f 179 253 246
f 180 197 181
f 181 197 254
f 181 254 183
f 182 185 255
f 182 255 256
f 182 256 257
f 182 257 186
f 183 258 184
f 184 258 259
f 184 259 260
f 184 260 261
f 184 261 185
f 185 261 262
f 185 262 263
f 185 263 255
f 186 264 265
f 186 265 190
f 186 190 189
f 186 189 187
f 186 257 264
f 187 189 188
f 190 265 191
f 191 265 266
f 191 266 194
f 191 194 192
f 192 194 193
f 194 266 267
f 194 267 268
f 194 268 269
f 194 269 270
f 194 270 195
f 195 270 200
f 200 270 271
f 200 271 201
f 201 271 202
f 202 271 272
f 206 273 207
f 207 274 208
f 207 273 274
f 208 275 209
f 208 274 275
f 209 276 277
f 209 277 278
f 209 278 279
f 209 279 210
f 209 275 274
f 209 274 276
f 210 279 280
f 210 280 287
f 210 287 281
f 210 281 211
f 211 282 283
f 211 283 284
f 211 284 285
f 211 285 286
f 211 286 212
f 211 281 287
f 211 287 288
f 211 288 282
f 212 214 213
f 212 286 214
f 214 286 289
f 214 289 215
f 215 289 216
f 216 289 290
f 216 290 291
f 216 291 217
f 217 291 292
f 217 292 293
f 217 293 294
f 217 294 218
f 218 294 295
f 218 295 220
f 219 220 222
f 220 295 296
f 220 296 297
f 220 297 298
f 220 298 378
f 220 378 299
f 220 299 300
f 220 300 222
f 222 300 223
f 224 233 225
f 225 233 301
f 225 301 302
f 225 302 226
f 226 274 303
f 226 303 304
f 226 304 227
f 226 302 305
f 226 305 274
f 230 306 231
f 230 232 307
f 230 307 306
f 231 306 308
f 231 308 309
f 231 309 233
f 232 310 311
f 232 311 307
f 232 235 237
f 232 237 312
f 232 312 313
f 232 313 310
f 233 309 301
f 234 314 315
f 234 315 316
f 234 316 236
f 236 316 312
f 236 312 237
f 238 239 317
f 238 317 318
f 239 244 322
f 239 322 319
f 239 319 317
f 242 247 243
f 243 247 320
f 243 320 321
f 243 321 245
f 244 245 323
f 244 323 322
f 245 324 323
f 245 321 325
f 245 325 326
f 245 326 327
f 245 327 328
f 245 328 324
f 246 253 247
f 247 253 320
f 249 329 250
f 250 329 409
f 250 409 330
f 250 330 331
f 250 331 251
f 251 331 252
f 252 331 332
f 252 332 253
f 253 332 320
f 255 263 328
f 255 328 333
f 255 333 256
f 256 333 257
f 257 333 328
f 257 328 264
f 259 334 260
f 260 334 335
f 260 335 261
f 261 336 262
f 261 335 337
f 261 337 336
f 262 336 338
f 262 338 324
f 262 324 263
f 263 324 328
f 264 328 339
f 264 339 340
f 264 340 341
f 264 341 265
f 265 341 342
f 265 342 343
f 265 343 266
f 266 344 345
f 266 345 346
f 266 346 347
f 266 347 267
f 266 343 348
f 266 348 344
f 267 347 268
f 268 349 269
f 268 347 350
f 268 350 351
f 268 351 349
f 269 349 352
f 269 352 270
f 270 352 271
f 271 352 353
f 271 353 272
f 273 303 274
f 274 305 276
f 276 305 354
f 276 354 277
f 277 354 355
f 277 355 356
f 277 356 278
f 278 356 357
f 278 357 358
f 278 358 287
f 278 287 280
f 278 280 279
f 282 359 360
f 282 360 283
f 282 288 361
f 282 361 359
f 283 360 362
f 283 362 284
f 284 363 364
f 284 364 365
f 284 365 285
f 284 362 366
f 284 366 363
f 285 290 289
f 285 289 286
f 285 365 290
f 287 358 288
f 288 358 361
f 290 365 367
f 290 367 368
f 290 368 291
f 291 368 369
f 291 369 292
f 292 369 293
f 293 369 370
f 293 370 371
f 293 371 372
f 293 372 373
f 293 373 374
f 293 374 375
f 293 375 294
f 294 375 295
f 295 375 374
f 295 374 296
f 296 374 297
f 297 374 372
f 297 372 376
f 297 376 377
f 297 377 298
f 298 377 463
f 298 463 378
f 301 309 308
f 301 308 379
f 301 379 380
f 301 380 302
f 302 354 305
f 302 380 379
f 302 379 357
f 302 357 354
f 306 307 381
f 306 381 308
f 307 311 381
f 308 381 382
f 308 382 379
f 310 383 311
f 310 313 384
f 310 384 385
f 310 385 383
f 311 383 382
f 311 382 381
f 312 316 313
f 313 316 386
f 313 386 387
f 313 387 388
f 313 388 389
f 313 389 390
f 313 390 384
f 314 391 315
f 315 391 392
f 315 392 316
f 316 392 393
f 316 393 394
f 316 394 395
f 316 395 396
f 316 396 397
f 316 397 386
f 317 398 399
f 317 399 318
f 317 319 400
f 317 400 398
f 319 322 400
f 320 332 401
f 320 401 321
f 321 401 402
f 321 402 405
f 321 405 403
f 321 403 325
f 322 323 400
f 323 324 400
f 324 338 400
f 325 403 326
f 326 404 327
f 326 403 405
f 326 405 406
f 326 406 407
f 326 407 408
f 326 408 404
f 327 404 340
f 327 340 328
f 328 340 339
f 330 409 410
f 330 410 411
f 330 411 331
f 331 411 412
f 331 412 413
f 331 413 414
f 331 414 415
f 331 415 332
f 332 415 416
f 332 416 417
f 332 417 401
f 335 398 400
f 335 400 337
f 336 400 338
f 336 337 400
f 340 404 418
f 340 418 341
f 341 418 408
f 341 408 419
f 341 419 342
f 342 419 420
f 342 420 421
f 342 421 422
f 342 422 423
f 342 423 424
f 342 424 343
f 343 424 348
f 344 425 346
f 344 346 345
f 344 348 424
f 344 424 425
f 346 425 426
f 346 426 347
f 347 426 427
f 347 427 350
f 349 351 428
f 349 428 429
f 349 429 430
f 349 430 352
f 350 427 431
f 350 431 351
f 351 431 432
f 351 432 433
f 351 433 428
f 352 430 434
f 352 434 435
f 352 435 436
f 352 436 437
f 352 437 353
f 354 357 356
f 354 356 355
f 357 379 382
f 357 382 438
f 357 438 439
f 357 439 358
f 358 439 361
f 359 440 441
f 359 441 360
f 359 361 442
f 359 442 440
f 360 441 443
f 360 443 362
f 361 439 442
f 362 443 444
f 362 444 366
f 363 366 445
f 363 445 446
f 363 446 447
f 363 447 448
f 363 448 364
f 364 449 365
f 364 448 516
f 364 516 449
f 365 449 367
f 366 450 451
f 366 451 452
f 366 452 453
f 366 453 454
f 366 454 445
f 366 444 450
f 367 449 455
f 367 455 368
f 368 455 369
f 369 456 457
f 369 457 370
f 369 455 456
f 370 457 371
f 371 457 458
f 371 458 459
f 371 459 372
f 372 460 376
f 372 374 373
f 372 459 461
f 372 461 460
f 376 462 377
f 376 460 462
f 377 462 534
f 377 534 463
f 382 383 438
f 383 385 438
f 384 464 465
f 384 465 385
f 384 390 466
f 384 466 464
f 385 465 438
f 386 397 388
f 386 388 387
f 388 397 467
f 388 467 468
f 388 468 389
f 389 469 470
f 389 470 390
f 389 468 469
f 390 470 469
f 390 469 471
f 390 471 472
f 390 472 466
f 393 395 394
f 395 473 396
f 396 473 474
f 396 474 397
f 397 474 467
f 401 417 475
f 401 475 402
f 402 475 406
f 402 406 405
f 404 408 418
f 406 475 476
f 406 476 407
f 407 476 477
f 407 477 408
f 408 477 419
f 410 478 412
f 410 412 411
f 412 478 479
f 412 479 480
f 412 480 481
f 412 481 413
f 413 482 414
f 413 481 482
f 414 482 415
f 415 483 416
f 415 482 481
f 415 481 484
f 415 484 483
f 416 483 485
f 416 485 486
f 416 486 417
f 417 486 487
f 417 487 475
f 419 477 488
f 419 488 420
f 420 488 477
f 420 477 489
f 420 489 425
f 420 425 421
f 421 425 423
f 421 423 422
f 423 425 424
f 425 490 426
f 425 489 491
f 425 491 492
f 425 492 493
f 425 493 494
f 425 494 495
f 425 495 496
f 425 496 497
f 425 497 490
f 426 490 498
f 426 498 427
f 427 498 431
f 428 433 499
f 428 499 500
f 428 500 429
f 429 500 430
f 430 500 501
f 431 498 432
f 432 502 503
f 432 503 504
f 432 504 505
f 432 505 506
f 432 506 507
f 432 507 508
f 432 508 433
f 432 498 490
f 432 490 502
f 433 508 509
f 433 509 500
f 433 500 499
f 438 465 439
f 439 465 464
f 439 464 510
f 439 510 511
f 439 511 441
f 439 441 440
f 439 440 442
f 441 511 512
f 441 512 513
f 441 513 444
f 441 444 443
f 444 513 450
f 445 454 446
f 446 454 447
f 447 454 453
f 447 453 514
f 447 514 515
f 447 515 516
f 447 516 448
f 449 516 456
f 449 456 455
f 450 517 518
f 450 518 451
f 450 513 519
f 450 519 517
f 451 518 520
f 451 520 452
f 452 521 453
f 452 520 521
f 453 521 522
f 453 522 523
f 453 523 514
f 456 516 524
f 456 524 457
f 457 524 525
f 457 525 526
f 457 526 527
f 457 527 458
f 458 527 528
f 458 528 459
f 459 528 529
f 459 529 461
f 460 461 530
f 460 530 531
f 460 531 462
f 461 529 532
f 461 532 530
f 462 531 533
f 462 533 534
f 464 466 510
f 466 472 512
f 466 512 510
f 467 474 535
f 467 535 468
f 468 536 537
f 468 537 538
f 468 538 539
f 468 539 540
f 468 540 520
f 468 520 541
f 468 541 519
f 468 519 513
f 468 513 471
f 468 471 469
f 468 535 536
f 471 513 472
f 472 513 512
f 473 542 474
f 474 543 544
f 474 544 545
f 474 545 535
f 474 542 543
f 475 487 476
f 476 487 546
f 476 546 489
f 476 489 477
f 479 547 480
f 480 547 548
f 480 548 549
f 480 549 550
f 480 550 481
f 481 550 608
f 481 608 551
f 481 551 484
f 483 484 485
f 484 551 552
f 484 552 485
f 485 552 553
f 485 553 554
f 485 554 555
f 485 555 556
f 485 556 487
f 485 487 486
f 487 556 546
f 489 546 558
f 489 558 491
f 490 497 557
f 490 557 502
f 491 558 559
f 491 559 560
f 491 560 492
f 492 560 493
f 493 560 559
f 493 559 561
f 493 561 562
f 493 562 494
f 494 562 563
f 494 563 564
f 494 564 495
f 495 564 565
f 495 565 496
f 496 565 566
f 496 566 497
f 497 566 567
f 497 567 557
f 500 509 501
f 501 509 508
f 501 508 568
f 501 568 569
f 502 557 570
f 502 570 571
f 502 571 503
f 503 571 504
f 504 571 572
f 504 572 520
f 504 520 540
f 504 540 573
f 504 573 505
f 505 573 506
f 506 574 507
f 506 573 575
f 506 575 537
f 506 537 576
f 506 576 577
f 506 577 574
f 507 574 508
f 508 574 578
f 508 578 568
f 510 512 511
f 514 579 515
f 514 523 580
f 514 580 579
f 515 579 524
f 515 524 516
f 517 519 541
f 517 541 581
f 517 581 520
f 517 520 518
f 520 572 567
f 520 567 566
f 520 566 582
f 520 582 583
f 520 583 521
f 520 581 541
f 521 583 522
f 522 583 584
f 522 584 585
f 522 585 523
f 523 585 586
f 523 586 587
f 523 587 580
f 524 579 580
f 524 580 525
f 525 580 588
f 525 588 526
f 526 588 589
f 526 589 590
f 526 590 591
f 526 591 527
f 527 591 528
f 528 591 592
f 528 592 529
f 529 592 532
f 530 593 594
f 530 594 531
f 530 532 598
f 530 598 593
f 531 594 533
f 532 592 595
f 532 595 596
f 532 596 597
f 532 597 598
f 535 545 599
f 535 599 600
f 535 600 536
f 536 600 601
f 536 601 576
f 536 576 537
f 537 575 538
f 538 575 573
f 538 573 540
f 538 540 539
f 544 602 545
f 545 603 599
f 545 602 603
f 546 556 604
f 546 604 558
f 548 605 549
f 549 605 606
f 549 606 607
f 549 607 550
f 550 607 608
f 551 608 609
f 551 609 610
f 551 610 552
f 552 610 611
f 552 611 553
f 553 611 612
f 553 612 613
f 553 613 554
f 554 614 604
f 554 604 555
f 554 613 614
f 555 604 556
f 557 567 615
f 557 615 570
f 558 604 614
f 558 614 561
f 558 561 559
f 561 614 562
f 562 614 613
f 562 613 563
f 563 613 587
f 563 587 616
f 563 616 617
f 563 617 618
f 563 618 564
f 564 618 619
f 564 619 566
f 564 566 565
f 566 619 582
f 567 570 615
f 567 572 571
f 567 571 570
f 568 578 620
f 568 620 569
f 574 577 576
f 574 576 621
f 574 621 622
f 574 622 623
f 574 623 578
f 576 601 621
f 578 623 622
f 578 622 620
f 580 587 624
f 580 624 625
f 580 625 588
f 582 619 583
f 583 619 626
f 583 626 584
f 584 626 618
f 584 618 617
f 584 617 585
f 585 617 627
f 585 627 586
f 586 627 587
f 587 613 624
f 587 627 616
f 588 625 589
f 589 625 590
f 590 625 628
f 590 628 612
f 590 612 629
f 590 629 630
f 590 630 595
f 590 595 592
f 590 592 591
f 595 631 632
f 595 632 596
f 595 630 633
f 595 633 631
f 596 634 597
f 596 632 635
f 596 635 636
f 596 636 634
f 599 637 601
f 599 601 600
f 601 637 638
f 601 638 621
f 606 639 607
f 607 639 640
f 607 640 641
f 607 641 608
f 608 641 609
f 609 641 642
f 609 642 643
f 609 643 610
f 610 643 644
f 610 644 611
f 611 644 645
f 611 645 612
f 612 646 629
f 612 628 613
f 612 645 646
f 613 628 625
f 613 625 624
f 616 627 617
f 618 626 619
f 621 638 622
f 629 646 647
f 629 647 630
f 630 647 648
f 630 648 633
f 631 649 652
f 631 652 635
f 631 635 632
f 631 633 651
f 631 651 649
f 633 643 642
f 633 642 650
f 633 650 651
f 633 648 643
f 635 652 636
f 640 653 641
f 641 653 654
f 641 654 642
f 642 654 655
f 642 655 650
f 643 648 647
f 643 647 644
f 644 647 646
f 644 646 645

