# https://github.com/mikedh/trimesh
v 89.96620388 85.38226633 16.83584785
v 89.96620388 77.57488294 12.10331747
v 89.96620388 85.38226633 9.57353923
v 73.82402888 85.38226633 12.58961767
v 73.82402888 77.57488294 8.39930225
v 89.96620388 77.57488294 5.48319637
v 89.96620388 85.22025066 9.45831907
v 87.76988213 77.57488294 -0.12026911
v 87.75724113 77.57488294 -0.13212993
v 86.88661322 78.38955239 -0.11010489
v 85.95436121 79.18817476 -0.05588288
v 84.39007433 80.13964213 -0.13382654
v 83.31877512 80.87406850 -0.01013362
v 80.97234545 81.82477110 -0.11518700
v 78.37468109 82.64784775 -0.07960453
v 89.56486254 85.38226633 9.38715284
v 73.82402888 85.38226633 5.90510777
v 73.82402888 77.57488294 -0.47271089
v 89.96620388 77.78810271 5.56961149
v 89.96620388 84.94589135 9.28040414
v 89.96620388 84.10141561 8.75174275
v 89.96620388 84.06778938 8.73140918
v 89.96620388 83.00627264 8.10447184
v 89.96620388 82.50493691 7.80964271
v 89.96620388 82.36737551 7.73339309
v 89.96620388 82.08384553 7.58089513
v 89.96620388 81.30815048 7.17592666
v 89.96620388 80.98411658 7.00987384
v 89.96620388 80.81675018 6.92684679
v 89.96620388 80.38113868 6.71504343
v 89.96620388 79.57487515 6.33379789
v 89.96620388 79.02539305 6.08810609
v 89.96620388 78.90005880 6.03388408
v 89.96620388 78.59895222 5.90510777
v 87.46176420 77.57488294 -0.24226799
v 87.17892957 77.85153524 -0.23887991
v 86.27511886 78.68989549 -0.19482469
v 85.45979391 79.35401293 -0.16093626
v 84.64446895 79.62837096 -0.26938028
v 82.87161062 80.43463449 -0.35410008
v 83.65849428 80.43004979 -0.18126983
v 82.87161062 80.98411658 -0.11857507
v 82.01046251 81.17899629 -0.22701909
v 80.28658727 81.93864170 -0.20499148
v 77.69998395 82.71815668 -0.15754818
v 85.35076764 85.38226633 7.73847648
v 85.70628774 85.38226633 7.85539197
v 85.85165609 85.38226633 7.90453059
v 86.35886440 85.38226633 8.07905616
v 87.18841000 85.38226633 8.38235804
v 87.68771752 85.38226633 8.58060654
v 87.87100761 85.38226633 8.65516084
v 88.89332502 85.38226633 9.09571178
v 89.49691858 85.38226633 9.35665247
v 74.23643158 85.38226633 5.90171841
v 73.82402888 83.18968740 0.43211264
v 73.82402888 82.15874044 -0.47271089
v 85.73156975 77.57488294 -0.47271089
v 86.59429687 77.57488294 -0.44221052
v 86.32252231 77.84771273 -0.43712842
v 85.45979391 78.70976635 -0.39815530
v 83.73433838 79.57258216 -0.45576538
v 82.01046251 80.43463449 -0.46423814
v 80.28658727 81.29668811 -0.44221052
v 77.69998395 82.15874044 -0.39476723
v 76.83725587 82.79075860 -0.21346423
v 83.00117804 85.38226633 7.05223374
v 83.77068047 85.38226633 7.25387032
v 84.60338665 85.38226633 7.49956212
v 74.26487352 85.38226633 5.90171841
v 74.25065287 83.18968740 0.43211264
v 73.82402888 83.03149167 0.09322829
v 73.82402888 82.51181459 -0.35749072
v 75.11180034 82.15874044 -0.47271089
v 84.59864643 78.70976635 -0.47271089
v 79.42543915 81.29668811 -0.47271089
v 76.83725587 82.15874044 -0.45068328
v 75.97452811 82.83737672 -0.23379781
v 79.71775550 85.38226633 6.37446376
v 80.29922763 85.38226633 6.47104567
v 81.15879546 85.38226633 6.63201638
v 82.00888286 85.38226633 6.81670873
v 82.44340699 85.38226633 6.91837404
v 75.11654056 85.38226633 5.91357924
v 75.11180034 83.15529770 0.43211264
v 75.11180034 82.86259704 -0.23549184
v 74.25065287 82.87711717 -0.23549184
v 75.18922474 85.38226633 5.91696860
v 75.97452811 85.38226633 5.95932978
v 76.83725587 85.38226633 6.02880069
v 77.70156392 85.38226633 6.10505031
v 73.82402888 82.87711717 -0.23549184
v 75.97452811 82.15874044 -0.47101685
v 78.36204040 85.38226633 6.17621525
v 78.59273330 85.38226633 6.20840965
v 79.42543915 85.38226633 6.33040853
v 77.97965930 85.38226633 6.13216132
f 1 2 6
f 1 6 19
f 1 19 34
f 1 34 33
f 1 33 32
f 1 32 31
f 1 31 30
f 1 30 29
f 1 29 28
f 1 28 27
f 1 27 26
f 1 26 25
f 1 25 24
f 1 24 23
f 1 23 22
f 1 22 21
f 1 21 20
f 1 20 7
f 1 7 3
f 1 3 16
f 1 16 54
f 1 54 53
f 1 53 52
f 1 52 51
f 1 51 50
f 1 50 49
f 1 49 48
f 1 48 47
f 1 47 46
f 1 46 69
f 1 69 68
f 1 68 67
f 1 67 83
f 1 83 82
f 1 82 81
f 1 81 80
f 1 80 79
f 1 79 96
f 1 96 95
f 1 95 94
f 1 94 97
f 1 97 91
f 1 91 90
f 1 90 89
f 1 89 88
f 1 88 84
f 1 84 70
f 1 70 55
f 1 55 17
f 1 17 4
f 1 4 5
f 1 5 2
f 2 5 18
f 2 18 58
f 2 58 59
f 2 59 35
f 2 35 9
f 2 9 8
f 2 8 6
f 3 7 8
f 3 8 9
f 3 9 10
f 3 10 11
f 3 11 12
f 3 12 13
f 3 13 14
f 3 14 15
f 3 15 16
f 4 17 56
f 4 56 72
f 4 72 92
f 4 92 73
f 4 73 57
f 4 57 18
f 4 18 5
f 6 8 19
f 7 20 8
f 8 20 21
f 8 21 22
f 8 22 23
f 8 23 24
f 8 24 25
f 8 25 26
f 8 26 27
f 8 27 28
f 8 28 29
f 8 29 30
f 8 30 31
f 8 31 32
f 8 32 33
f 8 33 34
f 8 34 19
f 9 35 36
f 9 36 10
f 10 36 37
f 10 37 11
f 11 37 38
f 11 38 12
f 12 38 39
f 12 39 40
f 12 40 41
f 12 41 42
f 12 42 13
f 13 42 14
f 14 42 43
f 14 43 44
f 14 44 15
f 15 44 45
f 15 45 46
f 15 46 47
f 15 47 48
f 15 48 49
f 15 49 50
f 15 50 51
f 15 51 52
f 15 52 53
f 15 53 54
f 15 54 16
f 17 55 56
f 18 57 74
f 18 74 76
f 18 76 75
f 18 75 58
f 35 59 36
f 36 59 60
f 36 60 61
f 36 61 37
f 37 61 38
f 38 61 39
f 39 61 40
f 40 43 41
f 40 61 62
f 40 62 63
f 40 63 64
f 40 64 43
f 41 43 42
f 43 64 44
f 44 64 65
f 44 65 45
f 45 65 66
f 45 66 67
f 45 67 68
f 45 68 69
f 45 69 46
f 55 70 71
f 55 71 56
f 56 71 72
f 57 73 74
f 58 75 59
f 59 75 60
f 60 75 62
f 60 62 61
f 62 75 63
f 63 75 76
f 63 76 64
f 64 76 77
f 64 77 65
f 65 77 66
f 66 77 78
f 66 78 79
f 66 79 80
f 66 80 81
f 66 81 82
f 66 82 83
f 66 83 67
f 70 84 71
f 71 85 78
f 71 78 86
f 71 86 87
f 71 87 72
f 71 84 88
f 71 88 89
f 71 89 90
f 71 90 91
f 71 91 85
f 72 87 92
f 73 92 87
f 73 87 74
f 74 87 93
f 74 93 76
f 76 93 77
f 77 93 78
f 78 85 94
f 78 94 95
f 78 95 96
f 78 96 79
f 78 93 86
f 85 91 97
f 85 97 94
f 86 93 87

