# https://github.com/mikedh/trimesh
v 87.74413227 91.92466999 22.09084571
v 73.82539131 95.07930207 22.09084571
v 87.74413227 98.26917474 22.09084571
v 87.74413227 100.01000127 42.69465439
v 73.82539131 102.53878082 42.69465439
v 73.82539131 100.89380487 22.09084571
v 87.63377442 98.31005011 22.09084571
v 87.74413227 98.29172676 22.12874752
v 87.74413227 100.33420226 43.34108985
v 73.82539131 102.74457922 43.03577004
v 73.82539131 101.09396591 22.46354588
v 74.23684930 100.89521357 22.09084571
v 87.20460489 98.46792452 22.09084571
v 87.74413227 98.44536993 22.39195421
v 87.18416720 98.82877478 22.69306207
v 87.74413227 101.13625255 43.59166325
v 87.18416720 101.13625255 43.57271010
v 73.82539131 102.94473769 43.36425111
v 74.25047421 100.89521357 22.09084571
v 73.82539131 101.30399040 22.85940858
v 86.26724249 98.81045143 22.09084571
v 86.61602757 98.93026529 22.51197629
v 87.74413227 98.71741825 22.86361990
v 86.32582684 99.21217964 22.82361275
v 87.18416720 99.07404243 23.12472125
v 87.64331141 98.98946658 23.27211654
v 87.74413227 101.99750413 43.60218992
v 85.46067434 101.99750413 43.60218992
v 73.82539131 103.72282470 43.60218992
v 74.70008079 100.88393884 22.09084571
v 74.25047421 101.30258171 22.85940858
v 75.11290185 101.54080072 23.33739156
v 75.11290185 101.28566705 22.85940858
v 73.82539131 101.54925805 23.32265229
v 85.46067434 99.08249976 22.09084571
v 86.04107581 99.03316449 22.33510118
v 87.74413227 98.89361601 23.17104505
v 85.66504091 99.77319095 23.41951247
v 86.37351177 99.68438901 23.71219770
v 86.69504960 99.81970625 24.19439263
v 87.74413227 98.97114323 23.30791301
v 87.18416720 102.85875315 43.60218992
v 87.74413227 102.85875315 43.60008459
v 73.82539131 104.58548498 43.60218992
v 75.11290185 100.87266155 22.09084571
v 74.25047421 101.54784935 23.32475762
v 75.11290185 101.76492248 23.76905074
v 75.97532982 101.52106610 23.37529337
v 75.97532982 101.24901777 22.85940858
v 75.97532982 100.86138425 22.13506417
v 73.82539131 101.76774244 23.75431082
v 74.25047421 101.76774244 23.75641680
v 84.63230737 99.33058480 22.09084571
v 85.09008915 99.85917549 23.25737727
v 85.41026327 99.57303248 22.92678958
v 85.41026327 99.99731527 23.71219770
v 86.12009784 99.91978806 23.99435562
v 86.37351177 100.09034588 24.52287434
v 87.18416720 100.26090627 25.44725576
v 87.18416720 99.94656874 24.80292564
v 87.66647266 99.85917549 24.97769477
v 87.18416720 99.72808434 24.37126710
v 87.74413227 99.84508080 25.00717396
v 84.59824670 103.72282470 43.60218992
v 87.74413227 103.67630940 43.36635644
v 86.32173956 103.72282470 43.54954884
v 85.46067434 103.72282470 43.59587392
v 81.14853485 104.58548498 43.60218992
v 73.82539131 105.44814526 43.59587392
v 75.97532982 100.83742097 22.09084571
v 75.97532982 101.74518786 23.80695255
v 75.11290185 102.15960463 24.58393804
v 76.83775778 101.19122518 22.85940858
v 76.83775778 100.83601227 22.17928327
v 73.82539131 102.16665326 24.58393804
v 74.25047421 102.16806196 24.58393804
v 84.45927661 99.38132876 22.09084571
v 84.59824670 99.68720640 22.69937936
v 83.95653475 99.78023958 22.53513819
v 84.59824670 99.92965408 23.13103790
v 84.59824670 100.23412302 23.72272630
v 84.59824670 100.57805863 24.40285162
v 85.09281400 100.72324704 24.97348346
v 85.66776577 100.63021387 25.16930915
v 86.35171295 100.54141193 25.45357241
v 87.74413227 99.88877614 25.09561151
v 86.65826408 100.67109181 25.94840063
v 87.26591409 100.60766185 26.26635438
v 87.74413227 100.44697005 26.29162225
v 87.74413227 100.06497390 25.46410101
v 86.98388791 104.22604341 43.22106778
v 86.32173956 104.32189398 43.31161002
v 87.74413227 104.03011360 42.69465439
v 85.46067434 104.43184181 43.36004044
v 83.73581842 104.58548498 43.47795718
v 82.87339013 104.58548498 43.56007552
v 82.01096249 104.58548498 43.59587392
v 74.25047421 105.44814526 43.59587392
v 73.82539131 105.78362612 43.47585184
v 76.83775778 100.78808570 22.09084571
v 76.83775778 101.70994985 23.87012159
v 76.83775778 101.48864549 23.43846305
v 75.97532982 102.11872669 24.58393804
v 76.83775778 102.05388546 24.58393804
v 74.25047421 102.39641238 25.08508355
v 74.25047421 102.59093348 25.51674209
v 75.11290185 102.39077501 25.10192880
v 77.70018542 101.67330057 23.94381987
v 77.70018542 101.45058751 23.51216069
v 77.70018542 100.79372563 22.25298091
v 77.70018542 100.70774109 22.09084571
v 73.82539131 102.28082718 24.83240482
v 73.82539131 102.39641238 25.08508355
v 83.66633401 99.60545309 22.09084571
v 83.38158234 99.86340416 22.38984824
v 83.69630740 100.02127599 22.83624669
v 83.72219351 100.49912272 23.76905074
v 84.00149483 100.65981452 24.24071642
v 84.59824670 100.79372563 24.83240482
v 84.59824670 101.08973467 25.44725576
v 85.41298813 100.84587830 25.45357241
v 86.08331232 100.76553368 25.74415231
v 85.46067434 101.21659716 26.30846750
v 86.35171295 100.91071952 26.26635438
v 86.28359161 101.35050828 27.22232032
v 87.03157413 100.79795430 26.52324378
v 87.60652589 100.69928376 26.74854866
v 87.74413227 100.58933593 26.61168134
v 84.26580946 105.04359709 43.16842669
v 87.51251588 104.11327818 42.69465439
v 87.08062149 104.25705276 42.69465439
v 86.32173956 104.48399705 42.69465439
v 83.73581842 105.10420965 43.24212369
v 82.87339013 105.19442286 43.32424460
v 87.74413227 104.02165371 42.32195358
v 77.70018542 105.44814526 43.53901960
v 82.01096249 105.26913011 43.35793510
v 76.83775778 105.44814526 43.56639409
v 75.97532982 105.44814526 43.57902867
v 74.25047421 106.10782968 43.35793510
v 73.82539131 106.10782968 43.35793510
v 77.70018542 101.98481814 24.58393804
v 75.97532982 102.36963169 25.14614726
v 76.83775778 102.34143975 25.21142228
v 73.82539131 102.49226295 25.29775450
v 73.82539131 102.59093348 25.51674209
v 74.25047421 102.94332900 26.30846750
v 75.11290185 102.91513705 26.30846750
v 75.97532982 102.87848777 26.30846750
v 75.97532982 102.55992414 25.57780580
v 78.56261339 101.62819397 24.03225743
v 78.56261339 101.89742233 24.58393804
v 78.56261339 101.40407221 23.60059825
v 78.56261339 101.01502742 22.85940858
v 78.56261339 100.60202192 22.09084571
v 78.56261339 100.74439036 22.34984109
v 79.65938195 100.67954914 22.47407448
v 82.87339013 99.81406889 22.09084571
v 82.87339013 99.92683412 22.28035412
v 82.87339013 100.24540032 22.85940858
v 82.87339013 100.59074720 23.51847798
v 83.42654307 100.73452177 24.08700384
v 83.72219351 100.88534754 24.55024755
v 83.69494497 101.35473694 25.51042480
v 83.95653475 101.51683744 25.99472506
v 84.66364318 101.45058751 26.29372759
v 84.99471800 101.55630668 26.76539391
v 85.46067434 101.48441682 26.92963445
v 85.97022834 101.59013599 27.54448539
v 86.54518010 101.49851408 27.77189560
v 87.74413227 100.67391178 26.81171835
v 87.17463021 101.38574629 28.04773623
v 87.74413227 100.99952404 27.61186638
v 79.93732084 105.88934272 43.14315754
v 84.29169620 105.05064572 42.69465439
v 83.73581842 105.18173687 42.69465439
v 82.87339013 105.36357199 42.69465439
v 87.74413227 104.00896771 41.83344137
v 87.46346852 104.10340959 41.83344137
v 87.03157413 104.24295807 41.83344137
v 86.32173956 104.46144246 41.83344137
v 85.46067434 104.71093620 41.83344137
v 79.42504135 105.92035463 43.18737728
v 78.56261339 105.97109860 43.25265037
v 77.70018542 106.02184256 43.30108078
v 78.56261339 105.44814526 43.48848385
v 76.83775778 106.05567187 43.32845527
v 75.97532982 106.07399523 43.34108985
v 75.11290185 106.09091502 43.35161653
v 74.25047421 106.32490281 42.69465439
v 73.82539131 106.21777494 43.02103012
v 77.70018542 102.30901913 25.29143721
v 76.83775778 102.82915250 26.30846750
v 73.82539131 102.94332900 26.30846750
v 74.25047421 103.21255736 26.94858567
v 75.11290185 103.19564270 26.98438150
v 75.97532982 103.17872804 27.02438929
v 79.13756547 101.59013599 24.10595507
v 79.42504135 101.74659913 24.52708565
v 78.63346054 102.29633314 25.48936824
v 79.42504135 102.16947065 25.44725576
v 79.40596673 100.49630532 22.09084571
v 80.28746899 100.35816554 22.09084571
v 80.16212445 100.37930886 22.09084571
v 80.28746899 100.84728957 23.00469853
v 80.28746899 100.62739390 22.57304000
v 82.01096249 100.01000127 22.09084571
v 81.97145147 100.47938810 22.92889556
v 82.23167882 100.66122578 23.37318803
v 81.67716346 101.58872472 24.96927215
v 82.87339013 100.80500036 23.95013652
v 82.87339013 101.11369796 24.58393804
v 82.25211522 101.52106610 25.11456274
v 83.38158234 101.58308736 25.83890715
v 82.87339013 101.90165099 26.30846750
v 83.18947762 102.40346101 27.66661280
v 84.41976624 101.63665129 26.56956822
v 84.66364318 101.78183713 27.09808693
v 85.46067434 101.66343455 27.36129363
v 85.46067434 101.92420558 28.03299632
v 86.28359161 101.69021523 28.04773623
v 86.88034220 101.61127931 28.34463342
v 87.74413227 101.28566705 28.33831613
v 87.74413227 101.16867316 28.03931361
v 82.01096249 105.52567248 42.69465439
v 81.14853485 105.68213562 42.69465439
v 80.37602801 105.82168409 42.69465439
v 79.94413297 105.89075141 42.69465439
v 79.42504135 105.95277524 42.69465439
v 78.56261339 106.05426318 42.69465439
v 77.70018542 106.15152502 42.69465439
v 76.83775778 106.22059234 42.69465439
v 85.46067434 104.68697548 40.97012429
v 84.66364318 104.92378323 41.83344137
v 84.23174879 105.03373106 41.83344137
v 83.73581842 105.15213622 41.83344137
v 82.87339013 105.31705668 40.97012429
v 82.87339013 105.34383736 41.83344137
v 82.01096249 105.51862385 41.83344137
v 87.74413227 103.99346433 41.41862872
v 86.97162607 104.22463471 40.97012429
v 86.32173956 104.43184181 40.97012429
v 75.97532982 106.26147028 42.69465439
v 75.11290185 106.29529959 42.69465439
v 75.11290185 106.27979877 41.83344137
v 75.11290185 106.25583549 40.97012429
v 74.25047421 106.29671343 41.83344137
v 73.82539131 106.30939685 42.25667792
v 73.82539131 106.32349411 42.69465439
v 77.70018542 102.49649418 25.72309575
v 78.39367023 102.45984490 25.80521666
v 77.70018542 102.75021658 26.30846750
v 76.83775778 103.15476476 27.08545300
v 73.82539131 103.21255736 26.94858567
v 73.82539131 103.29290454 27.15915064
v 74.25047421 103.37324915 27.37813887
v 75.11290185 103.59314482 28.03299632
v 75.11290185 103.36197443 27.41604068
v 75.97532982 103.34646847 27.45604783
v 76.83775778 103.32391388 27.51711218
v 80.28746899 101.70712988 24.72712266
v 80.28746899 101.49569412 24.29546348
v 78.96862199 102.42601302 25.88523095
v 80.28746899 102.03697081 25.44725576
v 79.42504135 102.39218371 25.96103457
v 80.28746899 102.51481753 26.54430034
v 80.28746899 102.32734249 26.11264180
v 81.18259552 100.17915039 22.09084571
v 81.14853485 101.63665129 24.87241261
v 81.14853485 101.41957560 24.44075343
v 81.14853485 100.76835365 23.16262242
v 81.14853485 100.54282063 22.73096388
v 81.14853485 101.89601363 25.44725576
v 81.16352154 102.27659852 26.34847465
v 82.01096249 102.09194601 26.30846750
v 81.98371396 101.71840718 25.41988191
v 82.61452585 102.46689096 27.51079489
v 82.89110232 102.27518982 27.20336974
v 82.89110232 102.59093348 27.98667252
v 83.73581842 102.49790288 28.28146309
v 83.73581842 102.33298242 27.85191053
v 84.19223713 102.43588162 28.44570427
v 84.76719018 102.35553443 28.66469186
v 85.44160037 102.26250383 28.93000453
v 86.32173956 101.98622684 28.89631403
v 87.18416720 101.99891283 29.75963175
v 87.17463021 101.70712988 28.90684264
v 87.74413227 101.61268801 29.19952787
v 87.45529396 101.50556014 28.62679070
v 87.74413227 101.44917882 28.76576336
v 81.14853485 105.67508699 41.83344137
v 80.22207187 105.82309279 41.82712536
v 79.89099769 105.88370792 42.11349459
v 79.48907604 105.92599456 41.82712536
v 78.56261339 106.03875722 41.83344137
v 78.56261339 106.01479393 40.97012429
v 77.70018542 106.12474434 41.83344137
v 76.83775778 106.19240296 41.83344137
v 75.97532982 106.21777494 40.97012429
v 75.97532982 106.24455562 41.83344137
v 85.46067434 104.63482025 40.10680722
v 84.59824670 104.85471591 40.10680722
v 84.52331195 104.92660320 40.99118149
v 84.18678742 105.02104507 41.29228935
v 83.80121554 105.09998099 40.99118149
v 84.13365278 105.00835908 40.71534151
v 82.87339013 105.26490145 40.10680722
v 82.01096249 105.44391660 40.10680722
v 82.01096249 105.49466057 40.97012429
v 87.74413227 103.97232101 40.97012429
v 87.31904872 104.05830298 40.10680722
v 86.88851676 104.19785146 40.10680722
v 86.32173956 104.37968658 40.10680722
v 74.25047421 106.26287898 40.97012429
v 75.97532982 106.16703097 40.10680722
v 75.11290185 106.20367768 40.10680722
v 73.82539131 106.27838493 41.39546618
v 73.82539131 106.29529959 41.83344137
v 78.63346054 102.60925941 26.22634659
v 77.67702385 103.13644141 27.23916557
v 78.56261339 103.00817022 27.17178458
v 77.37319885 103.30277057 27.57185859
v 73.82539131 103.37324915 27.37813887
v 73.82539131 103.61146817 28.03299632
v 74.25047421 103.61005947 28.03299632
v 75.11290185 103.91029718 28.89631403
v 75.97532982 103.55931293 28.03299632
v 75.97532982 103.87083050 28.89631403
v 76.83775778 103.50997767 28.03299632
v 79.42504135 102.90527102 27.17178458
v 79.42504135 102.57683879 26.39269310
v 80.88694507 102.46266230 26.66221708
v 80.28746899 102.77981723 27.17178458
v 81.46189684 102.40628097 26.79697843
v 82.01096249 102.34989707 26.92963445
v 82.01096249 102.52750353 27.36129363
v 82.01096249 102.78827456 28.03299632
v 81.97281390 103.13221274 28.95527241
v 82.87339013 102.92500564 28.89631403
v 83.73581842 102.71779597 28.89631403
v 84.52739923 102.51904620 28.93000453
v 85.14050022 102.45984490 29.23953566
v 85.71545198 102.37808902 29.47747448
v 86.03290125 102.47393959 30.05231699
v 86.32037713 102.28364715 29.76384242
v 86.60785301 102.38090899 30.34079155
v 87.17735507 102.28505585 30.62505480
v 87.74413227 102.09335470 30.62294883
v 87.74413227 101.81002908 29.76384242
v 81.14853485 105.64266637 40.97012429
v 80.28746899 105.77798619 40.97012429
v 79.74657854 105.86256203 40.97012429
v 79.82015022 105.87383676 41.53865080
v 79.31468350 105.92458072 40.97012429
v 77.70018542 106.09091502 40.97012429
v 79.12802848 105.90062258 40.10680722
v 78.56261339 105.96404997 40.10680722
v 76.83775778 106.15716495 40.97012429
v 86.73319755 104.14851619 38.88342263
v 85.46067434 104.55165567 39.24348886
v 84.59824670 104.78141736 39.24348886
v 84.04645619 104.98721576 40.10680722
v 83.90476125 104.95338388 39.24348886
v 83.47422864 105.05769178 39.24348886
v 83.61592294 105.09011239 40.10680722
v 83.36932050 105.03091110 38.66443439
v 82.87339013 105.18878293 39.24348886
v 81.14853485 105.59051371 40.10680722
v 82.01096249 105.36357199 39.24348886
v 81.14853485 105.51862385 39.24348886
v 87.74413227 103.91875450 40.10680722
v 87.13103128 104.04561699 39.20137702
v 86.80813230 104.17107078 39.45826642
v 73.82539131 106.26147028 40.97012429
v 74.25047421 106.21072631 40.10680722
v 73.82539131 106.23609829 40.53214911
v 76.83775778 106.10500714 40.10680722
v 76.83775778 106.04016592 39.24348886
v 75.97532982 106.09091502 39.24348886
v 75.11290185 106.12333050 39.24348886
v 74.25047421 106.06272050 38.38227840
v 74.25047421 106.14024515 39.24348886
v 78.56261339 103.23652064 27.75083904
v 77.70018542 103.73973935 28.89631403
v 78.56261339 103.65234611 28.89631403
v 73.82539131 103.92157447 28.89631403
v 74.25047421 103.92157447 28.89631403
v 75.11290185 104.11045822 29.46062923
v 75.97532982 104.08931490 29.52379827
v 76.83775778 103.81021794 28.89631403
v 79.42504135 103.18859407 27.89191832
v 81.16352154 102.59516472 27.11914349
v 80.25613318 103.13785010 28.09406002
v 81.14853485 102.95460629 28.03299632
v 81.14853485 103.35351453 29.14688679
v 81.66081434 103.30559053 29.28375412
v 82.23576610 103.25202660 29.44799465
v 81.14853485 103.20269133 28.71733359
v 82.67447327 103.34505720 30.02283844
v 82.92652606 103.19564270 29.74489184
v 83.73581842 103.00957892 29.75963175
v 84.59824670 102.79532319 29.75963175
v 85.44160037 102.55710417 29.76384242
v 85.46067434 102.83338116 30.62084349
v 86.32037713 102.56415280 30.62505480
v 86.88442948 102.47111963 30.91563470
v 87.45938124 102.37808902 31.22516583
v 87.74413227 102.19061397 30.93247995
v 80.28746899 105.72583352 40.10680722
v 79.55992352 105.83577878 40.10680722
v 77.70018542 106.04016592 40.10680722
v 80.28746899 105.65958103 39.24348886
v 80.28746899 105.58205638 38.38227840
v 78.99723359 105.87947669 39.67093737
v 78.49449109 105.90062258 39.32771510
v 77.70018542 105.96968990 39.24348886
v 87.18416720 103.95258639 38.38227840
v 86.64600224 104.12314421 38.38227840
v 86.21410657 104.24577803 38.38227840
v 85.46067434 104.45862249 38.38227840
v 84.59824670 104.69825278 38.38227840
v 83.68813284 104.92660320 38.37806645
v 83.23035106 105.00131045 38.08959188
v 82.91426422 105.09434363 38.37806645
v 82.01096249 105.27194751 38.38227840
v 81.14853485 105.43827924 38.38227840
v 87.74413227 103.84263855 39.23085556
v 73.82539131 106.20931761 40.10680722
v 73.82539131 106.14024515 39.24348886
v 77.32006324 105.88511662 37.91271677
v 76.83775778 105.96404997 38.38227840
v 75.97532982 106.00774530 38.38227840
v 75.11290185 106.03734852 38.38227840
v 74.25047421 105.95982387 37.52106537
v 73.82539131 105.96264127 37.52106537
v 73.82539131 106.06412920 38.38227840
v 78.12663075 104.15415612 30.19129029
v 78.56261339 103.95399508 29.75963175
v 79.42504135 103.54239828 28.89631403
v 79.42504135 103.34082854 28.32357622
v 73.82539131 104.11468688 29.45010063
v 74.25047421 104.11468688 29.44799465
v 75.11290185 104.24859543 29.89228712
v 75.97532982 104.22745211 29.95545745
v 76.83775778 104.19926016 30.05231699
v 79.94822025 103.30559053 28.42043704
v 80.52317202 103.25766396 28.55730437
v 81.14853485 103.56495287 29.75963175
v 81.97281390 103.40284980 29.74489184
v 82.01096249 103.68053806 30.62084349
v 82.92652606 103.45359634 30.55977914
v 83.24806260 103.27880728 30.23129743
v 83.73581842 103.22101468 30.41659517
v 84.53012408 103.11247812 30.69243516
v 84.77263988 103.22665462 31.29675750
v 85.39936386 103.12093545 31.54311894
v 86.32173956 102.82351514 31.48416057
v 87.17735507 102.55146681 31.50100582
v 87.18007992 102.64449999 31.81685359
v 87.69099634 102.47393959 31.81685359
v 87.74413227 102.45561624 31.81685359
v 79.42504135 105.69623288 38.38227840
v 80.28746899 105.47915718 37.52106537
v 78.16069206 105.88229409 38.78024580
v 77.64432529 105.90343998 38.44755278
v 87.74413227 103.75947398 38.38227840
v 87.18416720 103.84545852 37.52106537
v 86.45934722 104.06958028 37.52106537
v 86.02881397 104.19221410 37.52106537
v 85.46067434 104.35149463 37.52106537
v 84.59824670 104.59253361 37.52106537
v 83.73581842 104.81242670 37.52106537
v 82.01096249 105.16763961 37.52106537
v 83.04233361 104.96466117 37.52106537
v 81.14853485 105.33397134 37.52106537
v 77.89501533 105.85128474 38.20540329
v 79.42504135 105.59192241 37.52106537
v 78.56261339 105.69059294 37.52106537
v 78.56261339 105.57359905 36.65774830
v 78.56261339 105.44532530 35.79443122
v 77.70018542 105.65958103 36.65774830
v 77.70018542 105.52567248 35.79443122
v 76.83775778 105.83859875 37.36524747
v 76.83775778 105.90062258 37.79690665
v 75.97532982 105.92176333 37.64740474
v 75.08565268 105.92740326 37.46421362
v 74.78046525 105.88229409 37.06413961
v 74.25047421 105.88793402 37.02623715
v 73.82539131 105.88934272 37.02413182
v 76.83775778 104.37122925 30.62084349
v 76.83775778 104.62354296 31.48416057
v 76.83775778 104.71798483 31.81895957
v 77.36502397 104.67428949 31.81685359
v 77.70018542 104.55165567 31.48416057
v 77.70018542 104.64327758 31.81685359
v 77.70018542 104.78846342 32.34747764
v 78.22745193 104.58830495 31.81685359
v 78.56261339 104.25000670 30.71349236
v 78.56261339 104.12737287 30.28183318
v 79.42504135 103.83700119 29.75963175
v 74.25047421 104.25141539 29.87965383
v 73.82539131 104.25000670 29.88175916
v 74.25047421 104.47976581 30.62084349
v 75.11290185 104.46567112 30.62084349
v 75.97532982 104.42620445 30.62084349
v 80.28746899 103.70449877 29.75963175
v 80.25613318 103.40707846 28.86472951
v 81.14853485 103.84263855 30.62084349
v 82.01096249 103.92721183 31.48416057
v 82.87339013 103.74114805 31.48416057
v 83.73581842 103.35351453 30.84825371
v 84.19768748 103.29854190 31.02723416
v 84.25763490 103.50574900 31.81685359
v 84.59824670 103.56213290 32.34747764
v 85.12414982 103.27457862 31.81895957
v 86.29721588 102.92782304 31.81685359
v 85.64596694 103.22242595 32.17270915
v 86.25361823 103.11106942 32.41485864
v 87.18416720 102.79814316 32.34747764
v 87.74413227 102.61207937 32.39590805
v 81.14853485 105.20569758 36.65774830
v 80.28746899 105.34665733 36.65774830
v 79.42504135 105.46787988 36.65774830
v 87.74413227 103.65093741 37.52106537
v 86.24816852 104.01037898 36.72091734
v 87.74413227 103.57341019 37.00728657
v 87.18416720 103.70873001 36.65774830
v 85.76449934 104.11750685 36.47455718
v 85.91164399 104.15979349 37.04939969
v 85.47021133 104.23590944 36.72091734
v 85.18954758 104.19926016 35.94603846
v 84.59824670 104.46426243 36.65774830
v 82.79436874 104.89841125 36.73355192
v 83.73581842 104.67710689 36.65774830
v 82.45512001 105.01822511 37.07045690
v 82.25075280 104.97875843 36.49561310
v 81.67580103 105.03513976 36.11027900
v 79.42504135 105.33115137 35.79443122
v 79.42504135 105.17468824 34.93321948
v 78.56261339 105.28463607 34.93321948
v 77.70018542 105.36639195 34.93321948
v 76.83775778 105.58769374 35.79443122
v 76.83775778 105.72865092 36.65774830
v 76.83775778 105.42982191 34.93321948
v 75.97532982 105.64689761 35.79443122
v 75.97532982 105.77798619 36.65774830
v 75.97532982 105.86115334 37.21574685
v 75.08565268 105.82450149 36.72934125
v 75.11290185 105.68636428 35.79443122
v 74.25047421 105.82309279 36.59668459
v 73.82539131 105.85551340 36.80514358
v 75.97532982 104.67287822 31.48416057
v 76.83775778 104.86599064 32.34747764
v 76.83775778 104.99849048 32.85915111
v 77.70018542 104.95902381 33.02971022
v 78.56261339 104.69261285 32.34747764
v 78.56261339 104.55024697 31.81685359
v 78.56261339 104.46003376 31.48416057
v 79.42504135 104.35290590 31.48416057
v 79.42504135 104.19221410 30.91352873
v 79.42504135 104.59112491 32.34747764
v 79.42504135 104.44593650 31.81895957
v 79.42504135 104.06817158 30.48187019
v 73.82539131 104.36136322 30.24393137
v 73.82539131 104.47694842 30.62084349
v 73.82539131 104.73208209 31.48416057
v 74.25047421 104.73067082 31.48416057
v 75.11290185 104.70671011 31.48416057
v 80.46731188 104.11750685 31.18094673
v 80.95779255 104.19926016 31.75578988
v 81.20575741 104.07521764 31.47573794
v 81.44146044 104.12596418 31.81685359
v 81.66762647 104.08367497 31.81895957
v 82.01096249 104.01742504 31.81685359
v 82.82025549 104.01178768 32.40854263
v 82.85431616 103.83981859 31.81895957
v 83.73581842 103.63824885 31.81685359
v 83.73581842 103.54239828 31.48416057
v 83.73581842 103.78907462 32.34747764
v 83.69766983 104.02588237 33.24027455
v 84.59824670 103.78061729 33.20868938
v 85.92118098 103.29995060 32.74755166
v 86.53973039 103.22947201 33.20868938
v 87.18416720 103.02226491 33.20868938
v 87.74413227 102.82210387 33.20868938
v 81.39649971 104.98862446 35.53543649
v 80.28746899 105.20147149 35.79443122
v 86.32173956 103.83700119 35.79443122
v 87.74413227 103.52125496 36.68301617
v 87.74413227 103.37465785 35.79443122
v 87.18416720 103.55790424 35.79443122
v 85.47021133 104.08226627 35.71231032
v 85.02469139 104.15274486 35.36908933
v 82.87339013 104.73349079 35.79443122
v 83.73581842 104.53051235 35.79443122
v 81.98235153 104.92660320 35.81338181
v 80.82154795 105.03231979 35.28275775
v 79.87601100 105.01963637 34.48682039
v 79.42504135 105.05205442 34.34153044
v 79.42504135 104.96043251 33.90987254
v 78.81057857 104.99567309 33.72878676
v 78.53808938 105.09434363 34.03621191
v 77.70018542 105.18596553 34.06990241
v 76.83775778 105.25644412 34.06990241
v 75.97532982 105.49184317 34.93321948
v 75.11290185 105.53131241 34.93321948
v 74.25047421 105.69482161 35.79443122
v 73.82539131 105.75684287 36.18608262
v 73.82539131 105.82168409 36.59247392
v 75.99304169 104.76450270 31.81895957
v 76.34319016 105.01399644 32.78755945
v 76.83775778 105.09293236 33.28870496
v 77.70018542 105.05487438 33.46136812
v 78.23562681 105.02668243 33.58770748
v 78.53808938 104.92096584 33.26343708
v 79.42504135 104.80819804 33.20868938
v 80.24795862 104.32894261 31.81685359
v 80.22207187 104.23732070 31.47573794
v 80.28746899 104.47130849 32.34747764
v 73.82539131 104.82511269 31.81895957
v 73.85808955 104.82511269 31.81895957
v 74.25047421 104.82370400 31.81895957
v 75.11290185 104.79692332 31.81685359
v 76.02437782 104.92660320 32.41696526
v 74.25047421 104.93646922 32.22745621
v 80.98640351 104.21053745 31.81685359
v 81.20575741 104.29370203 32.28220327
v 81.53274431 104.14428753 31.94951025
v 82.01096249 104.09918092 32.12638472
v 82.49735523 104.16402215 32.73702370
v 83.07230764 104.10904952 32.97706785
v 83.38567027 104.17247948 33.55191165
v 83.96062203 104.10340959 33.88039272
v 84.53421136 104.00896771 34.12885949
v 85.46067434 103.74396802 34.06990241
v 85.46067434 103.53957831 33.20868938
v 86.10783600 103.35492580 33.20868938
v 86.72502299 103.28303594 33.68035635
v 87.19370547 103.19846267 34.00883742
v 87.74413227 103.01803625 34.04884521
v 82.01096249 104.75886277 34.93321948
v 81.12537295 104.92237453 34.97112065
v 87.66919752 103.30840793 35.28065242
v 86.32173956 103.67348943 34.93321948
v 87.74413227 103.29572194 35.34803342
v 85.46067434 103.93566916 34.93321948
v 84.83939879 104.10622955 34.93321948
v 83.69766983 104.21758608 34.12885949
v 83.73581842 104.37122925 34.93321948
v 82.87339013 104.57421026 34.93321948
v 80.45096276 104.97593847 34.70791396
v 80.21253488 104.90123121 34.14781136
v 80.28746899 104.68838418 33.20868938
v 75.97532982 105.31141675 34.06990241
v 75.11290185 105.34524606 34.06990241
v 74.25047421 105.35934332 34.06990241
v 74.25047421 105.53835847 34.93321948
v 73.82539131 105.69341291 35.79443122
v 75.76960050 105.02386247 32.75176362
v 75.11290185 105.14931626 33.20868938
v 73.82539131 104.93646922 32.22324490
v 73.82539131 105.04782575 32.65490408
v 74.25047421 105.04641705 32.65700941
v 81.14853485 104.53474101 33.20868938
v 82.01096249 104.36982055 33.20868938
v 82.01096249 104.56997902 34.06990241
v 82.87339013 104.39378384 34.06990241
v 86.39122460 103.45500504 34.00883742
v 86.91167801 103.34223981 34.25309353
v 87.48662977 103.24920663 34.70580862
v 87.74413227 103.19141404 34.83846528
v 81.14853485 104.73067082 34.06990241
v 87.74413227 103.26894125 35.20905947
v 87.19370547 103.39862114 34.96901532
v 74.25047421 105.17186827 33.20868938
v 73.82539131 105.17327954 33.20868938
v 73.82539131 105.35934332 34.06990241
v 73.82539131 105.53694978 34.93321948
v 73.82539131 105.10984701 32.92653211
f 1 2 6
f 1 6 12
f 1 12 19
f 1 19 30
f 1 30 45
f 1 45 70
f 1 70 100
f 1 100 111
f 1 111 155
f 1 155 202
f 1 202 204
f 1 204 203
f 1 203 268
f 1 268 207
f 1 207 158
f 1 158 114
f 1 114 77
f 1 77 53
f 1 53 35
f 1 35 21
f 1 21 13
f 1 13 7
f 1 7 3
f 1 3 8
f 1 8 14
f 1 14 23
f 1 23 37
f 1 37 41
f 1 41 63
f 1 63 86
f 1 86 90
f 1 90 89
f 1 89 128
f 1 128 171
f 1 171 173
f 1 173 224
f 1 224 223
f 1 223 290
f 1 290 288
f 1 288 349
f 1 349 348
f 1 348 408
f 1 408 461
f 1 461 520
f 1 520 585
f 1 585 640
f 1 640 671
f 1 671 673
f 1 673 645
f 1 645 590
f 1 590 589
f 1 589 526
f 1 526 524
f 1 524 466
f 1 466 427
f 1 427 371
f 1 371 310
f 1 310 240
f 1 240 178
f 1 178 135
f 1 135 93
f 1 93 65
f 1 65 43
f 1 43 27
f 1 27 16
f 1 16 9
f 1 9 4
f 1 4 5
f 1 5 2
f 2 5 10
f 2 10 18
f 2 18 29
f 2 29 44
f 2 44 69
f 2 69 99
f 2 99 141
f 2 141 191
f 2 191 249
f 2 249 248
f 2 248 318
f 2 318 317
f 2 317 374
f 2 374 376
f 2 376 428
f 2 428 429
f 2 429 436
f 2 436 435
f 2 435 489
f 2 489 551
f 2 551 609
f 2 609 608
f 2 608 658
f 2 658 678
f 2 678 677
f 2 677 676
f 2 676 679
f 2 679 662
f 2 662 661
f 2 661 620
f 2 620 566
f 2 566 565
f 2 565 564
f 2 564 502
f 2 502 441
f 2 441 386
f 2 386 324
f 2 324 323
f 2 323 255
f 2 255 254
f 2 254 194
f 2 194 146
f 2 146 145
f 2 145 113
f 2 113 112
f 2 112 75
f 2 75 51
f 2 51 34
f 2 34 20
f 2 20 11
f 2 11 6
f 3 7 8
f 4 9 5
f 5 9 10
f 6 11 12
f 7 13 8
f 8 13 15
f 8 15 14
f 9 16 17
f 9 17 18
f 9 18 10
f 11 19 12
f 11 20 19
f 13 21 22
f 13 22 15
f 14 15 23
f 15 24 25
f 15 25 26
f 15 26 23
f 15 22 24
f 16 27 28
f 16 28 29
f 16 29 17
f 17 29 18
f 19 20 31
f 19 31 32
f 19 32 33
f 19 33 30
f 20 34 31
f 21 35 36
f 21 36 22
f 22 36 24
f 23 26 37
f 24 38 39
f 24 39 25
f 24 36 38
f 25 39 26
f 26 39 40
f 26 40 41
f 26 41 37
f 27 42 64
f 27 64 68
f 27 68 44
f 27 44 29
f 27 29 28
f 27 43 42
f 30 33 45
f 31 34 46
f 31 46 32
f 32 46 47
f 32 47 71
f 32 71 48
f 32 48 49
f 32 49 33
f 33 49 50
f 33 50 45
f 34 51 52
f 34 52 46
f 35 53 54
f 35 54 55
f 35 55 38
f 35 38 36
f 38 56 57
f 38 57 39
f 38 55 54
f 38 54 56
f 39 57 40
f 40 58 59
f 40 59 60
f 40 60 61
f 40 61 62
f 40 62 41
f 40 57 58
f 41 62 61
f 41 61 63
f 42 43 64
f 43 65 66
f 43 66 67
f 43 67 64
f 44 68 98
f 44 98 69
f 45 50 70
f 46 52 47
f 47 52 72
f 47 72 71
f 48 71 73
f 48 73 74
f 48 74 49
f 49 74 50
f 50 74 100
f 50 100 70
f 51 75 76
f 51 76 52
f 52 76 72
f 53 77 78
f 53 78 54
f 54 78 79
f 54 79 80
f 54 80 81
f 54 81 82
f 54 82 56
f 56 82 83
f 56 83 57
f 57 83 84
f 57 84 58
f 58 84 85
f 58 85 59
f 59 86 61
f 59 61 60
f 59 85 87
f 59 87 88
f 59 88 89
f 59 89 90
f 59 90 86
f 61 86 63
f 64 67 97
f 64 97 68
f 65 91 92
f 65 92 66
f 65 93 91
f 66 92 94
f 66 94 95
f 66 95 96
f 66 96 67
f 67 96 97
f 68 97 98
f 69 98 99
f 71 101 102
f 71 102 73
f 71 72 103
f 71 103 104
f 71 104 101
f 72 76 105
f 72 105 106
f 72 106 107
f 72 107 143
f 72 143 103
f 73 102 108
f 73 108 109
f 73 109 110
f 73 110 74
f 74 110 111
f 74 111 100
f 75 112 76
f 76 112 113
f 76 113 105
f 77 114 115
f 77 115 79
f 77 79 78
f 79 115 80
f 80 116 117
f 80 117 81
f 80 115 116
f 81 117 82
f 82 118 119
f 82 119 83
f 82 117 118
f 83 119 120
f 83 120 121
f 83 121 84
f 84 121 122
f 84 122 85
f 85 122 87
f 87 122 123
f 87 123 124
f 87 124 125
f 87 125 126
f 87 126 88
f 88 126 127
f 88 127 128
f 88 128 89
f 91 129 92
f 91 93 130
f 91 130 131
f 91 131 132
f 91 132 129
f 92 129 133
f 92 133 134
f 92 134 94
f 93 135 130
f 94 134 95
f 95 134 96
f 96 136 97
f 96 134 137
f 96 137 136
f 97 136 138
f 97 138 139
f 97 139 98
f 98 139 140
f 98 140 99
f 99 140 141
f 101 104 142
f 101 142 108
f 101 108 102
f 103 143 144
f 103 144 104
f 104 144 142
f 105 113 145
f 105 145 106
f 106 146 194
f 106 194 147
f 106 147 107
f 106 145 146
f 107 147 148
f 107 148 149
f 107 149 150
f 107 150 143
f 108 151 109
f 108 142 152
f 108 152 151
f 109 151 153
f 109 153 110
f 110 153 154
f 110 154 111
f 111 154 156
f 111 156 157
f 111 157 155
f 114 158 115
f 115 158 159
f 115 159 160
f 115 160 116
f 116 160 161
f 116 161 117
f 117 161 162
f 117 162 118
f 118 162 163
f 118 163 119
f 119 163 164
f 119 164 120
f 120 164 165
f 120 165 166
f 120 166 123
f 120 123 121
f 121 123 122
f 123 166 167
f 123 167 168
f 123 168 169
f 123 169 125
f 123 125 124
f 125 169 170
f 125 170 126
f 126 170 127
f 127 171 128
f 127 170 172
f 127 172 173
f 127 173 171
f 129 174 133
f 129 132 175
f 129 175 176
f 129 176 177
f 129 177 174
f 130 135 178
f 130 178 179
f 130 179 131
f 131 179 180
f 131 180 181
f 131 181 132
f 132 181 182
f 132 182 175
f 133 174 134
f 134 174 183
f 134 183 184
f 134 184 185
f 134 185 137
f 136 137 186
f 136 186 185
f 136 185 187
f 136 187 138
f 137 185 186
f 138 187 188
f 138 188 189
f 138 189 140
f 138 140 139
f 140 189 190
f 140 190 141
f 141 190 191
f 142 144 192
f 142 192 152
f 143 150 193
f 143 193 144
f 144 193 192
f 147 194 254
f 147 254 195
f 147 195 148
f 148 195 196
f 148 196 197
f 148 197 149
f 149 193 150
f 149 197 193
f 151 157 153
f 151 152 198
f 151 198 157
f 152 199 198
f 152 192 200
f 152 200 201
f 152 201 199
f 153 157 154
f 154 157 156
f 155 157 202
f 157 203 204
f 157 204 202
f 157 198 205
f 157 205 206
f 157 206 203
f 158 207 159
f 159 207 160
f 160 208 209
f 160 209 161
f 160 207 208
f 161 209 210
f 161 210 211
f 161 211 162
f 162 212 163
f 162 211 212
f 163 212 164
f 164 212 213
f 164 213 165
f 165 213 214
f 165 214 215
f 165 215 216
f 165 216 217
f 165 217 166
f 166 217 167
f 167 217 218
f 167 218 219
f 167 219 169
f 167 169 168
f 169 219 220
f 169 220 221
f 169 221 170
f 170 221 222
f 170 222 172
f 172 223 224
f 172 224 173
f 172 222 223
f 174 177 225
f 174 225 226
f 174 226 227
f 174 227 228
f 174 228 229
f 174 229 230
f 174 230 231
f 174 231 232
f 174 232 183
f 175 182 233
f 175 233 234
f 175 234 235
f 175 235 236
f 175 236 176
f 176 236 237
f 176 237 238
f 176 238 177
f 177 238 239
f 177 239 225
f 178 240 179
f 179 240 241
f 179 241 180
f 180 241 242
f 180 242 181
f 181 242 233
f 181 233 182
f 183 232 184
f 184 232 185
f 185 232 187
f 187 232 243
f 187 243 244
f 187 244 190
f 187 190 188
f 188 190 189
f 190 244 245
f 190 245 246
f 190 246 247
f 190 247 248
f 190 248 249
f 190 249 191
f 192 193 250
f 192 250 251
f 192 251 200
f 193 252 250
f 193 197 253
f 193 253 252
f 195 254 255
f 195 255 256
f 195 256 257
f 195 257 258
f 195 258 196
f 196 258 259
f 196 259 197
f 197 259 260
f 197 260 253
f 198 199 261
f 198 261 262
f 198 262 205
f 199 201 261
f 200 251 263
f 200 263 201
f 201 264 261
f 201 263 265
f 201 265 266
f 201 266 267
f 201 267 264
f 203 206 268
f 205 262 269
f 205 269 270
f 205 270 206
f 206 270 271
f 206 271 272
f 206 272 268
f 207 268 272
f 207 272 208
f 208 272 209
f 209 272 271
f 209 271 210
f 210 270 269
f 210 269 273
f 210 273 274
f 210 274 275
f 210 275 276
f 210 276 213
f 210 213 212
f 210 212 211
f 210 271 270
f 213 276 214
f 214 276 215
f 215 276 275
f 215 275 277
f 215 277 278
f 215 278 216
f 216 278 277
f 216 277 279
f 216 279 280
f 216 280 281
f 216 281 217
f 217 281 218
f 218 281 219
f 219 281 220
f 220 281 282
f 220 282 283
f 220 283 284
f 220 284 221
f 221 284 285
f 221 285 222
f 222 285 286
f 222 286 287
f 222 287 288
f 222 288 289
f 222 289 223
f 223 289 290
f 225 239 291
f 225 291 226
f 226 291 227
f 227 291 292
f 227 292 293
f 227 293 228
f 228 293 294
f 228 294 295
f 228 295 229
f 229 295 230
f 230 295 231
f 231 295 296
f 231 296 297
f 231 297 232
f 232 297 298
f 232 298 299
f 232 299 300
f 232 300 243
f 233 242 313
f 233 313 301
f 233 301 302
f 233 302 303
f 233 303 234
f 234 303 235
f 235 303 304
f 235 304 236
f 236 304 305
f 236 305 237
f 237 306 307
f 237 307 308
f 237 308 309
f 237 309 238
f 237 305 306
f 238 309 239
f 239 309 291
f 240 310 241
f 241 310 311
f 241 311 312
f 241 312 313
f 241 313 242
f 243 300 245
f 243 245 244
f 245 300 246
f 246 314 247
f 246 300 299
f 246 299 315
f 246 315 316
f 246 316 375
f 246 375 314
f 247 314 317
f 247 317 318
f 247 318 248
f 250 252 251
f 251 252 319
f 251 319 263
f 252 253 320
f 252 320 321
f 252 321 319
f 253 260 322
f 253 322 320
f 255 323 256
f 256 323 324
f 256 324 325
f 256 325 326
f 256 326 257
f 257 327 259
f 257 259 258
f 257 326 327
f 259 327 260
f 260 327 328
f 260 328 329
f 260 329 322
f 261 264 269
f 261 269 262
f 263 319 330
f 263 330 331
f 263 331 265
f 264 273 269
f 264 267 273
f 265 331 266
f 266 332 273
f 266 273 267
f 266 331 333
f 266 333 332
f 273 332 274
f 274 332 334
f 274 334 275
f 275 334 335
f 275 335 277
f 277 335 336
f 277 336 337
f 277 337 279
f 279 337 338
f 279 338 339
f 279 339 280
f 280 339 340
f 280 340 282
f 280 282 281
f 282 340 341
f 282 341 283
f 283 341 342
f 283 342 284
f 284 342 343
f 284 343 285
f 285 343 344
f 285 344 345
f 285 345 286
f 286 345 344
f 286 344 346
f 286 346 347
f 286 347 348
f 286 348 349
f 286 349 287
f 287 349 288
f 288 290 289
f 291 309 350
f 291 350 292
f 292 350 351
f 292 351 352
f 292 352 353
f 292 353 293
f 293 353 354
f 293 354 294
f 294 354 295
f 295 354 296
f 296 355 297
f 296 354 356
f 296 356 357
f 296 357 411
f 296 411 355
f 297 355 298
f 298 355 358
f 298 358 299
f 299 358 315
f 301 313 359
f 301 359 360
f 301 360 361
f 301 361 302
f 302 362 306
f 302 306 303
f 302 361 363
f 302 363 364
f 302 364 362
f 303 306 304
f 304 306 305
f 306 362 365
f 306 365 307
f 307 365 364
f 307 364 366
f 307 366 367
f 307 367 308
f 308 368 350
f 308 350 309
f 308 367 369
f 308 369 370
f 308 370 368
f 310 371 311
f 311 371 372
f 311 372 312
f 312 372 373
f 312 373 359
f 312 359 313
f 314 374 317
f 314 375 376
f 314 376 374
f 315 358 377
f 315 377 378
f 315 378 379
f 315 379 316
f 316 379 380
f 316 380 381
f 316 381 382
f 316 382 375
f 319 321 330
f 320 322 321
f 321 322 383
f 321 383 330
f 322 329 384
f 322 384 385
f 322 385 383
f 324 386 387
f 324 387 325
f 325 387 326
f 326 387 388
f 326 388 328
f 326 328 327
f 328 388 389
f 328 389 329
f 329 389 390
f 329 390 384
f 330 383 391
f 330 391 333
f 330 333 331
f 332 333 392
f 332 392 334
f 333 391 393
f 333 393 394
f 333 394 392
f 334 392 336
f 334 336 335
f 336 392 394
f 336 394 337
f 337 394 338
f 338 395 396
f 338 396 397
f 338 397 339
f 338 394 398
f 338 398 395
f 339 397 399
f 339 399 400
f 339 400 401
f 339 401 340
f 340 401 402
f 340 402 341
f 341 402 342
f 342 402 403
f 342 403 343
f 343 403 344
f 344 404 405
f 344 405 346
f 344 403 404
f 346 405 347
f 347 405 406
f 347 406 407
f 347 407 408
f 347 408 348
f 350 368 409
f 350 409 351
f 351 409 352
f 352 354 353
f 352 409 410
f 352 410 356
f 352 356 354
f 355 411 358
f 356 410 412
f 356 412 413
f 356 413 414
f 356 414 357
f 357 414 415
f 357 415 416
f 357 416 411
f 358 411 377
f 359 373 372
f 359 372 417
f 359 417 418
f 359 418 360
f 360 418 419
f 360 419 420
f 360 420 421
f 360 421 361
f 361 421 422
f 361 422 363
f 362 364 365
f 363 422 366
f 363 366 364
f 366 369 367
f 366 422 423
f 366 423 424
f 366 424 369
f 368 370 412
f 368 412 409
f 369 424 425
f 369 425 426
f 369 426 370
f 370 426 413
f 370 413 412
f 371 427 372
f 372 427 417
f 375 428 376
f 375 382 429
f 375 429 428
f 377 411 378
f 378 411 416
f 378 416 430
f 378 430 431
f 378 431 379
f 379 431 432
f 379 432 380
f 380 432 433
f 380 433 381
f 381 433 434
f 381 434 435
f 381 435 436
f 381 436 382
f 382 436 429
f 383 385 391
f 384 390 437
f 384 437 385
f 385 437 438
f 385 438 439
f 385 439 440
f 385 440 391
f 386 441 442
f 386 442 387
f 387 442 388
f 388 442 443
f 388 443 444
f 388 444 389
f 389 444 445
f 389 445 437
f 389 437 390
f 391 440 446
f 391 446 393
f 393 446 447
f 393 447 394
f 394 447 398
f 395 448 396
f 395 398 447
f 395 447 448
f 396 448 397
f 397 448 449
f 397 449 450
f 397 450 399
f 399 450 451
f 399 451 452
f 399 452 400
f 400 452 401
f 401 452 453
f 401 453 454
f 401 454 402
f 402 454 404
f 402 404 403
f 404 454 455
f 404 455 456
f 404 456 457
f 404 457 405
f 405 457 406
f 406 457 407
f 407 457 458
f 407 458 459
f 407 459 460
f 407 460 461
f 407 461 408
f 409 412 410
f 413 462 414
f 413 426 463
f 413 463 462
f 414 462 464
f 414 464 415
f 415 464 465
f 415 465 416
f 416 465 430
f 417 427 466
f 417 466 467
f 417 467 418
f 418 467 468
f 418 468 469
f 418 469 419
f 419 469 420
f 420 469 470
f 420 470 471
f 420 471 421
f 421 471 472
f 421 472 422
f 422 472 423
f 423 473 425
f 423 425 424
f 423 472 474
f 423 474 473
f 425 473 475
f 425 475 426
f 426 475 463
f 430 476 462
f 430 462 477
f 430 477 478
f 430 478 479
f 430 479 480
f 430 480 481
f 430 481 482
f 430 482 483
f 430 483 484
f 430 484 431
f 430 465 464
f 430 464 476
f 431 484 432
f 432 484 485
f 432 485 433
f 433 485 486
f 433 486 434
f 434 486 487
f 434 487 488
f 434 488 435
f 435 488 489
f 437 445 490
f 437 490 491
f 437 491 492
f 437 492 493
f 437 493 494
f 437 494 495
f 437 495 496
f 437 496 497
f 437 497 498
f 437 498 499
f 437 499 438
f 438 500 439
f 438 499 500
f 439 446 440
f 439 500 446
f 441 501 442
f 441 502 501
f 442 501 443
f 443 503 504
f 443 504 505
f 443 505 444
f 443 501 503
f 444 505 490
f 444 490 445
f 446 500 506
f 446 506 507
f 446 507 447
f 447 507 448
f 448 507 506
f 448 506 508
f 448 508 450
f 448 450 449
f 450 508 509
f 450 509 510
f 450 510 451
f 451 510 511
f 451 511 452
f 452 511 453
f 453 511 512
f 453 512 454
f 454 512 455
f 455 512 513
f 455 513 514
f 455 514 515
f 455 515 456
f 456 516 457
f 456 515 517
f 456 517 518
f 456 518 516
f 457 516 519
f 457 519 459
f 457 459 458
f 459 519 460
f 460 519 461
f 461 519 520
f 462 463 477
f 462 476 464
f 463 475 521
f 463 521 522
f 463 522 523
f 463 523 477
f 466 524 467
f 467 525 468
f 467 524 526
f 467 526 527
f 467 527 525
f 468 525 528
f 468 528 529
f 468 529 469
f 469 529 470
f 470 529 471
f 471 529 530
f 471 530 531
f 471 531 532
f 471 532 472
f 472 533 474
f 472 532 534
f 472 534 533
f 473 474 535
f 473 535 536
f 473 536 475
f 474 533 536
f 474 536 535
f 475 536 537
f 475 537 521
f 477 523 479
f 477 479 478
f 479 523 480
f 480 482 481
f 480 523 538
f 480 538 539
f 480 539 540
f 480 540 541
f 480 541 482
f 482 542 543
f 482 543 483
f 482 541 544
f 482 544 605
f 482 605 542
f 483 543 545
f 483 545 546
f 483 546 547
f 483 547 484
f 484 547 485
f 485 547 548
f 485 548 487
f 485 487 486
f 487 548 549
f 487 549 488
f 488 549 550
f 488 550 489
f 489 550 551
f 490 505 491
f 491 505 552
f 491 552 492
f 492 553 493
f 492 552 553
f 493 495 494
f 493 553 496
f 493 496 495
f 496 553 554
f 496 554 555
f 496 555 556
f 496 556 497
f 497 557 558
f 497 558 498
f 497 556 557
f 498 559 560
f 498 560 499
f 498 558 561
f 498 561 562
f 498 562 559
f 499 560 563
f 499 563 500
f 500 563 506
f 501 502 503
f 502 564 503
f 503 564 565
f 503 565 566
f 503 566 567
f 503 567 504
f 504 567 568
f 504 568 552
f 504 552 505
f 506 563 508
f 508 563 569
f 508 569 570
f 508 570 571
f 508 571 509
f 509 571 572
f 509 572 573
f 509 573 574
f 509 574 575
f 509 575 576
f 509 576 510
f 510 577 578
f 510 578 511
f 510 576 579
f 510 579 577
f 511 578 512
f 512 578 577
f 512 577 579
f 512 579 513
f 513 579 514
f 514 579 580
f 514 580 581
f 514 581 582
f 514 582 515
f 515 582 517
f 516 518 519
f 517 582 518
f 518 582 583
f 518 583 519
f 519 583 584
f 519 584 520
f 520 584 585
f 521 537 522
f 522 537 586
f 522 586 587
f 522 587 538
f 522 538 523
f 525 527 588
f 525 588 528
f 526 589 527
f 527 589 590
f 527 590 591
f 527 591 588
f 528 531 530
f 528 530 529
f 528 588 592
f 528 592 531
f 531 592 593
f 531 593 532
f 532 593 534
f 533 534 594
f 533 594 536
f 534 593 595
f 534 595 594
f 536 594 596
f 536 596 537
f 537 596 586
f 538 587 597
f 538 597 539
f 539 598 599
f 539 599 540
f 539 597 598
f 540 599 600
f 540 600 601
f 540 601 602
f 540 602 603
f 540 603 541
f 541 603 604
f 541 604 544
f 542 605 545
f 542 545 543
f 544 604 605
f 545 549 546
f 545 605 606
f 545 606 549
f 546 549 547
f 547 549 548
f 549 606 607
f 549 607 550
f 550 607 608
f 550 608 609
f 550 609 551
f 552 568 610
f 552 610 611
f 552 611 553
f 553 611 554
f 554 611 612
f 554 612 613
f 554 613 555
f 555 613 614
f 555 614 615
f 555 615 616
f 555 616 556
f 556 616 561
f 556 561 557
f 557 561 558
f 559 617 618
f 559 618 560
f 559 562 619
f 559 619 617
f 560 618 569
f 560 569 563
f 561 616 653
f 561 653 619
f 561 619 562
f 566 620 621
f 566 621 567
f 567 621 622
f 567 622 568
f 568 623 624
f 568 624 610
f 568 622 625
f 568 625 623
f 569 618 617
f 569 617 619
f 569 619 570
f 570 626 572
f 570 572 571
f 570 619 626
f 572 626 627
f 572 627 628
f 572 628 573
f 573 628 574
f 574 628 629
f 574 629 630
f 574 630 575
f 575 630 631
f 575 631 579
f 575 579 576
f 579 631 580
f 580 631 632
f 580 632 633
f 580 633 634
f 580 634 581
f 581 635 636
f 581 636 582
f 581 634 635
f 582 636 635
f 582 635 637
f 582 637 583
f 583 637 635
f 583 635 638
f 583 638 584
f 584 638 639
f 584 639 640
f 584 640 585
f 586 641 642
f 586 642 597
f 586 597 587
f 586 596 641
f 588 591 643
f 588 643 644
f 588 644 592
f 590 645 643
f 590 643 591
f 592 644 593
f 593 594 595
f 593 644 646
f 593 646 635
f 593 635 647
f 593 647 633
f 593 633 648
f 593 648 649
f 593 649 650
f 593 650 594
f 594 650 641
f 594 641 596
f 597 642 651
f 597 651 598
f 598 651 652
f 598 652 599
f 599 652 600
f 600 653 616
f 600 616 601
f 600 652 653
f 601 615 614
f 601 614 602
f 601 616 615
f 602 614 613
f 602 613 603
f 603 613 612
f 603 612 604
f 604 654 605
f 604 612 654
f 605 654 606
f 606 654 655
f 606 655 656
f 606 656 657
f 606 657 607
f 607 657 678
f 607 678 658
f 607 658 608
f 610 624 611
f 611 624 625
f 611 625 659
f 611 659 660
f 611 660 655
f 611 655 654
f 611 654 612
f 619 653 627
f 619 627 626
f 620 661 621
f 621 661 625
f 621 625 622
f 623 625 624
f 625 661 662
f 625 662 663
f 625 663 659
f 627 653 664
f 627 664 630
f 627 630 629
f 627 629 628
f 630 664 665
f 630 665 631
f 631 665 666
f 631 666 667
f 631 667 632
f 632 667 650
f 632 650 648
f 632 648 633
f 633 647 634
f 634 647 635
f 635 668 638
f 635 646 668
f 638 668 644
f 638 644 669
f 638 669 670
f 638 670 639
f 639 670 671
f 639 671 640
f 641 650 667
f 641 667 666
f 641 666 672
f 641 672 642
f 642 672 652
f 642 652 651
f 643 645 673
f 643 673 670
f 643 670 674
f 643 674 644
f 644 668 646
f 644 674 669
f 648 650 649
f 652 672 653
f 653 672 664
f 655 660 663
f 655 663 675
f 655 675 656
f 656 675 676
f 656 676 677
f 656 677 657
f 657 677 678
f 659 663 660
f 662 679 663
f 663 679 675
f 664 672 666
f 664 666 665
f 669 674 670
f 670 673 671
f 675 679 676

