# https://github.com/mikedh/trimesh
v 60.31681018 85.61344700 15.66308383
v 73.82402888 85.61344700 12.74717075
v 60.31681018 85.61344700 8.58338537
v 60.31681018 62.75539802 7.88836784
v 73.82402888 62.75539802 5.53162807
v 73.82402888 85.61344700 6.04815229
v 60.44902598 85.61344700 8.53283935
v 69.26124401 82.64655473 -0.07905698
v 66.66187084 81.82540219 -0.11538751
v 64.31503115 80.87223693 -0.01113359
v 63.24407897 80.13610753 -0.13276230
v 61.68128177 79.18517999 -0.05694197
v 60.74651313 78.38863853 -0.10906893
v 60.31681018 77.78452056 -0.21174192
v 60.31681018 62.75539802 -0.47237157
v 73.82402888 62.75539802 -0.47237157
v 73.82402888 83.18802421 0.43272959
v 73.80287464 85.61344700 6.04815229
v 61.23703556 85.61344700 8.23587661
v 62.09247499 85.61344700 7.94997266
v 63.03649977 85.61344700 7.64195370
v 69.93554721 82.71591639 -0.15645567
v 67.34675179 81.93727541 -0.20384498
v 65.62397292 81.17653364 -0.22595743
v 64.76192252 80.98187243 -0.11854679
v 63.97523552 80.42697919 -0.18172997
v 64.76192252 80.43145464 -0.35548307
v 62.98757902 79.62596229 -0.27018745
v 62.17312679 79.35075339 -0.15961496
v 61.35999585 78.68846108 -0.19278619
v 60.45431502 77.85164449 -0.23859458
v 60.31681018 76.98574138 -0.42182554
v 60.31681018 72.57120267 -0.47395250
v 73.82402888 72.57120267 -0.47395250
v 73.38507108 83.18802421 0.43272959
v 73.82402888 82.87701563 -0.23543529
v 73.38507108 85.61344700 6.05131158
v 63.83905262 85.61344700 7.41291307
v 70.79759761 82.78751576 -0.21174192
v 69.93554721 82.15654770 -0.39339452
v 64.75398960 85.61344700 7.17281621
v 65.62397292 85.61344700 6.95483438
v 67.34675179 81.29512003 -0.44078126
v 65.62397292 80.43145464 -0.46447463
v 63.89855018 79.57002568 -0.45657770
v 62.17312679 78.70859801 -0.39813217
v 61.31107703 77.84717033 -0.43762197
v 60.44902598 76.98350494 -0.45025912
v 60.31681018 76.12207598 -0.46921485
v 60.31681018 75.25841059 -0.47395250
v 73.82402888 82.15654770 -0.47395250
v 71.05013078 85.61344700 6.14766599
v 71.65964801 85.61344700 6.10027796
v 72.52302068 85.61344700 6.06236908
v 73.38507108 82.87701563 -0.23543529
v 72.52302068 82.86135286 -0.23543529
v 71.65964801 82.83450277 -0.23227600
v 73.82402888 82.51230686 -0.35706400
v 70.79759761 82.15654770 -0.45025912
v 66.48602333 85.61344700 6.76212427
v 67.31634204 85.61344700 6.61680218
v 67.40757129 85.61344700 6.60100703
v 68.20483574 85.61344700 6.47779996
v 68.20880220 81.29512003 -0.47395250
v 63.03649977 78.70859801 -0.47395250
v 60.44902598 76.12207598 -0.47395250
v 62.17312679 77.84717033 -0.47395250
v 72.52302068 82.15654770 -0.47395250
v 70.79759761 85.61344700 6.16977972
v 71.65964801 82.15654770 -0.47079321
v 69.13563856 85.61344700 6.34353410
v 69.93554721 85.61344700 6.25033898
f 1 2 6
f 1 6 18
f 1 18 37
f 1 37 54
f 1 54 53
f 1 53 52
f 1 52 69
f 1 69 72
f 1 72 71
f 1 71 63
f 1 63 62
f 1 62 61
f 1 61 60
f 1 60 42
f 1 42 41
f 1 41 38
f 1 38 21
f 1 21 20
f 1 20 19
f 1 19 7
f 1 7 3
f 1 3 14
f 1 14 32
f 1 32 49
f 1 49 50
f 1 50 33
f 1 33 15
f 1 15 4
f 1 4 5
f 1 5 2
f 2 5 16
f 2 16 34
f 2 34 51
f 2 51 58
f 2 58 36
f 2 36 17
f 2 17 6
f 3 7 8
f 3 8 9
f 3 9 10
f 3 10 11
f 3 11 12
f 3 12 13
f 3 13 14
f 4 15 16
f 4 16 5
f 6 17 35
f 6 35 18
f 7 19 8
f 8 19 20
f 8 20 21
f 8 21 22
f 8 22 23
f 8 23 9
f 9 23 24
f 9 24 25
f 9 25 10
f 10 25 11
f 11 26 27
f 11 27 28
f 11 28 29
f 11 29 12
f 11 25 26
f 12 29 30
f 12 30 13
f 13 30 31
f 13 31 14
f 14 31 32
f 15 33 34
f 15 34 16
f 17 36 55
f 17 55 35
f 18 35 37
f 21 38 22
f 22 39 40
f 22 40 23
f 22 38 41
f 22 41 42
f 22 42 39
f 23 43 24
f 23 40 43
f 24 27 25
f 24 43 27
f 25 27 26
f 27 43 44
f 27 44 45
f 27 45 46
f 27 46 28
f 28 46 29
f 29 46 30
f 30 46 31
f 31 47 32
f 31 46 47
f 32 47 48
f 32 48 49
f 33 50 66
f 33 66 67
f 33 67 65
f 33 65 64
f 33 64 68
f 33 68 51
f 33 51 34
f 35 52 53
f 35 53 54
f 35 54 37
f 35 55 56
f 35 56 57
f 35 57 52
f 36 58 55
f 39 57 59
f 39 59 40
f 39 42 60
f 39 60 61
f 39 61 62
f 39 62 63
f 39 63 57
f 40 59 43
f 43 64 44
f 43 59 64
f 44 65 45
f 44 64 65
f 45 65 47
f 45 47 46
f 47 65 48
f 48 66 49
f 48 65 67
f 48 67 66
f 49 66 50
f 51 68 58
f 52 57 69
f 55 58 68
f 55 68 70
f 55 70 56
f 56 70 57
f 57 70 59
f 57 63 71
f 57 71 72
f 57 72 69
f 59 70 64
f 64 70 68

