# https://github.com/mikedh/trimesh
v 53.35295784 62.75539802 3.86947397
v 53.35295784 63.18499299 3.86947397
v 60.31680890 62.75539802 3.86947397
v 47.14311739 62.75539802 8.68004698
v 53.38796449 64.03523334 3.86947397
v 47.14311739 63.18499299 8.68004698
v 47.14581139 64.04642131 8.68245436
v 60.31680890 78.12461695 3.86947397
v 60.31680890 62.75539802 7.89071867
v 46.88998622 62.75539802 8.88459863
v 46.64493194 63.18499299 9.08193071
v 53.45798037 64.89666166 3.86947397
v 47.17543260 64.91008670 8.70651790
v 46.17905914 63.18499299 9.45974961
v 46.64493194 64.04642131 9.09396376
v 46.56414518 64.89218686 9.20225483
v 60.31680890 84.57078445 7.92440916
v 60.31411618 78.13580428 3.86947397
v 60.31680890 85.61344700 15.66367957
v 37.75295925 62.75539802 28.45417060
v 46.17905914 62.75539802 9.45974961
v 53.56300290 65.76032705 3.86947397
v 46.68801804 65.77151437 9.17819001
v 47.28584315 66.63518041 8.78833804
v 45.74819300 63.18499299 9.81590979
v 45.22846322 63.18499299 10.24667183
v 46.18983002 64.04642131 9.47418877
v 46.20598892 64.59012787 9.48381444
v 46.22753068 65.16739640 9.50306707
v 45.78320222 65.77151437 9.91938867
v 45.30386453 65.77151437 10.31645892
v 60.10945527 84.25753685 7.80167894
v 60.31680890 85.42549895 8.47068184
v 59.77284206 77.64355953 3.86947397
v 56.40401851 82.72710371 8.54287760
v 57.01800122 83.01573894 8.41292652
v 57.32229793 83.53707021 8.57897420
v 57.69391908 84.11210166 8.75224145
v 58.26750842 84.32913623 8.61988556
v 58.71991633 84.48352231 8.52121887
v 45.91515453 85.61344700 28.45417060
v 60.31680890 85.61344700 8.59100725
v 32.80609345 62.75539802 28.45417060
v 45.74819300 62.75539802 9.81590979
v 53.70303465 66.63518041 3.86947397
v 47.34777958 67.49660808 8.83887508
v 45.33348575 66.31969638 10.34052503
v 46.74187502 66.63518041 9.22391356
v 46.80381145 67.49660808 9.26963711
v 45.22846322 62.75539802 10.24667183
v 44.79759964 63.18499299 10.63170902
v 44.81644997 64.04642131 10.64855556
v 45.25000755 64.04642131 10.26592317
v 45.27424332 64.91008670 10.28758190
v 44.87300096 65.77151437 10.69909130
v 59.57087388 84.78334357 8.35757729
v 59.27465533 85.09882760 8.68004698
v 59.84824338 85.28006377 8.56212895
v 59.33928448 77.22515187 3.86947397
v 54.95523585 81.61731594 8.68967265
v 55.25414712 82.16997275 8.83887508
v 55.83043046 82.46755757 8.69689222
v 55.02794316 83.27976051 9.59210551
v 55.60422522 83.53483249 9.43809089
v 56.19397216 83.84584236 9.32979982
v 56.74601716 83.30213516 8.72095705
v 57.01800122 83.84807880 8.91828913
v 57.46502241 85.14805233 9.51028536
v 57.86626605 84.73859428 9.06267936
v 56.99376417 84.52827159 9.35386336
v 58.03861174 85.34718770 9.37311599
v 58.71991633 84.91311857 8.79315281
v 39.76725308 85.61344700 28.45417060
v 59.64627520 85.61344700 8.86534600
v 32.80609345 63.18499299 28.45417060
v 32.96228153 62.75539802 28.03062814
v 53.87807306 67.45185879 3.86947397
v 47.43664578 68.35803640 8.90625736
v 44.39904871 65.77151437 11.13225944
v 44.45559970 66.63518041 11.18038909
v 44.48522091 67.08491295 11.21408023
v 45.37926585 66.89472719 10.37902772
v 45.94208430 68.35803640 10.12394032
v 46.88998622 68.35803640 9.33942420
v 44.79759964 62.75539802 10.63170902
v 44.32633883 63.18499299 11.06006496
v 44.84337718 64.91008670 10.67021429
v 44.34249773 64.04642131 11.08172369
v 59.00805671 85.61344700 9.13487255
v 58.74684482 85.61344700 9.24557100
v 58.92726995 76.79779333 3.86947397
v 54.08004124 80.75141282 8.68726655
v 54.65632330 81.04004805 8.53084455
v 54.38434052 81.31749467 8.83406160
v 54.72903190 82.70472906 9.42605912
v 54.84751931 84.30899931 10.35977637
v 55.22721863 83.92191590 9.89532384
v 54.42742662 83.00007617 9.78221929
v 53.96424654 83.46547084 10.34533722
v 54.40857629 83.67355580 10.20816785
v 55.94891788 84.10986394 9.62338991
v 56.52519865 84.34479899 9.47178267
v 57.80432834 85.61344700 9.67152084
v 56.14819206 84.73411884 9.93142172
v 56.08087018 85.61344700 10.55951583
v 57.01530722 85.61344700 10.07099848
v 58.71453088 85.61344700 9.26001015
v 39.93959748 85.61344700 28.05469296
v 39.39563193 85.05631732 28.45417060
v 32.81147889 63.60563837 28.45417060
v 32.97305241 64.04642131 28.03062814
v 32.96228153 63.18499299 28.03062814
v 33.19925637 62.75539802 27.39050225
v 53.88076706 67.46304612 3.86947397
v 47.92675435 68.83014358 8.61988556
v 47.12157562 70.31582744 9.52953799
v 47.44741666 70.05180522 9.22631966
v 44.36942750 64.91008670 11.10338178
v 43.47807657 64.91008670 11.93843364
v 43.52385411 65.77151437 11.97693697
v 43.56694021 66.63518041 12.02266053
v 43.60464087 67.21468602 12.05394493
v 44.53369503 67.65994376 11.25739704
v 44.85953607 67.42277163 10.92530169
v 43.65042097 67.78971747 12.09966848
v 45.02380360 68.35803640 10.92048821
v 45.51121816 68.35803640 10.48732008
v 45.60008437 69.22170179 10.56192193
v 46.03364195 69.22170179 10.20094827
v 44.32633883 62.75539802 11.06006496
v 43.44845279 63.18499299 11.90233640
v 43.45383823 64.04642131 11.91436881
v 43.91432559 64.04642131 11.48120068
v 58.49101965 76.32344907 3.86947397
v 53.83498696 80.17638266 8.54287760
v 53.54684657 80.45159156 8.86053380
v 53.03788767 80.95278591 9.44290436
v 52.25155927 81.72695273 10.35255680
v 53.29640685 81.52781736 9.59932637
v 53.87268762 81.83658951 9.42846521
v 58.12209122 75.89609182 3.86947397
v 53.09713138 82.60628089 10.34293113
v 55.31339211 85.61344700 10.99027658
v 55.77387947 85.12120225 10.39346687
v 55.42380008 84.54393436 10.19613608
v 54.40857629 84.10315078 10.48972617
v 53.80267174 84.47681043 11.10338178
v 54.12582135 85.04960287 11.30312059
v 54.69940940 85.29796297 11.13225944
v 53.38796449 83.18354877 10.52582405
v 53.59531811 83.83465504 10.81460323
v 40.07154979 85.34047582 27.35921785
v 39.30676572 84.32913623 27.57339518
v 39.20443463 84.48352231 28.03062814
v 40.37315506 85.61344700 27.10413045
v 39.12634187 84.63343294 28.45417060
v 32.81955834 64.04642131 28.45417060
v 32.83571466 64.46930376 28.45417060
v 33.01344708 64.91008670 28.03062814
v 33.22888015 64.91008670 27.46751021
v 33.39583911 64.91008670 27.03674817
v 33.21002725 64.04642131 27.42178665
v 33.19925637 63.18499299 27.39050225
v 33.36621790 62.75539802 26.96455370
v 53.98578959 67.89487881 3.86947397
v 48.08832787 70.08760491 8.74261578
v 47.21313326 70.94679550 9.60413856
v 47.64399941 70.94679550 9.26241754
v 46.14404992 70.08760491 10.29239538
v 46.60453727 70.87519612 10.09265592
v 43.02297465 64.04642131 12.32828496
v 43.04990443 64.91008670 12.35475588
v 43.09029653 65.77151437 12.39807333
v 43.13607663 66.63518041 12.44620298
v 42.73752570 67.25496115 12.91306161
v 42.77792037 67.82999196 12.95637907
v 44.59293745 68.35803640 11.31034017
v 43.70428053 68.35803640 12.15261161
v 44.67372421 69.22170179 11.38975422
v 45.10459036 69.22170179 10.99268332
v 45.71318634 70.08760491 10.66058733
v 45.21230689 70.08760491 11.08894327
v 43.44845279 62.75539802 11.90233640
v 43.22763427 62.75539802 12.11651373
v 43.01758921 63.18499299 12.32347148
v 58.04130446 75.79764235 3.86947397
v 57.68584092 75.35462233 3.86947397
v 51.40867988 79.11134289 9.50306707
v 52.22193549 80.03765935 9.47178267
v 52.46429834 80.61268951 9.62338991
v 51.26864813 81.87015148 11.12744660
v 51.51370241 82.44741937 11.30312059
v 52.08729175 82.76514112 11.10338178
v 52.52084933 82.30198418 10.52582405
v 52.75782545 82.07376100 10.23945225
v 51.44638054 80.79616340 10.39106078
v 50.45539252 80.94607403 11.16835732
v 50.95896598 81.25037074 10.98787049
v 52.73089696 82.97322608 10.81460323
v 54.39511140 85.61344700 11.54376948
v 53.22639097 84.20383796 11.28868144
v 53.07828105 85.21070340 12.05394493
v 52.93825059 83.62880651 11.10338178
v 40.20350209 85.14357689 26.78647361
v 40.03923457 84.53274704 26.30276909
v 39.44141203 84.10986394 26.99824420
v 39.16942797 83.84584236 27.23889373
v 38.55544397 83.27081091 27.83088996
v 38.77087705 83.81899228 28.08116517
v 38.43157111 83.49232092 28.40363485
v 38.69009029 83.93981639 28.45417060
v 40.77709143 85.61344700 26.28111100
v 32.85995043 64.91008670 28.45417060
v 33.07268950 65.77151437 28.03062814
v 33.42007745 65.77151437 27.10653655
v 32.88688021 65.33073208 28.45417060
v 33.73514504 65.77151437 26.30276909
v 33.68936493 64.91008670 26.30276909
v 33.65435828 64.04642131 26.30276909
v 33.62742850 63.18499299 26.30276909
v 33.36621790 63.18499299 26.96455370
v 33.62742850 62.75539802 26.30276909
v 54.12582135 68.36027348 3.86947397
v 48.22028018 70.94679550 8.82924940
v 47.35855046 71.81046089 9.72205659
v 47.78941660 71.81046089 9.37552208
v 46.28946711 71.11460598 10.41753298
v 46.40256909 71.81046089 10.50657271
v 46.20868035 70.54181225 10.34533722
v 42.58941707 64.04642131 12.76145309
v 42.61634428 64.91008670 12.78792401
v 42.70251905 66.63518041 12.87455764
v 42.27165291 66.63518041 13.33901017
v 41.90003176 67.08715003 13.80105661
v 42.33897735 67.45857132 13.37751415
v 42.82908592 68.35803640 13.01172830
v 43.26264350 68.35803640 12.58337236
v 41.94042642 67.65994376 13.84677952
v 42.00236285 68.35803640 13.90934832
v 42.43053499 68.35803640 13.44008295
v 44.22401031 69.22170179 11.82292235
v 43.35150970 69.22170179 12.67000598
v 44.78144075 70.08760491 11.48841962
v 43.89278382 70.08760491 12.32828496
v 45.37926585 71.28241645 11.24055179
v 43.01758921 62.75539802 12.32347148
v 42.58941707 63.18499299 12.75663961
v 57.35461315 74.92726379 3.86947397
v 51.21748258 80.22113195 10.23463877
v 56.97760656 74.39474520 3.86947397
v 56.61945029 73.87565036 3.86947397
v 51.65373417 77.84717033 8.79796500
v 51.47061631 77.29675125 8.68004698
v 51.27941901 76.72171980 8.55731675
v 51.22287059 78.53855045 9.37792947
v 50.64389582 78.08881727 9.57285416
v 50.94280708 78.77795966 9.67874042
v 49.66637011 78.27005214 10.35496418
v 50.43384819 79.27020441 10.28758190
v 49.66098467 79.99962194 11.21648697
v 50.64120181 79.84299814 10.43437823
v 50.69236736 81.52110548 11.33681109
v 50.90241242 82.22367292 11.60633764
v 51.17170505 83.02021310 11.91677555
v 51.80992225 83.03811358 11.47638785
v 50.53887072 82.57271892 12.09004281
v 50.73814747 83.02021310 12.22721218
v 51.88801757 83.80780495 11.92880732
v 52.36466125 83.34017257 11.29108754
v 50.96165741 80.46277888 10.54507668
v 50.25880978 80.43145464 11.02637446
v 49.82525220 80.43145464 11.33440499
v 50.09185082 81.29512003 11.64484162
v 54.19852866 85.61344700 11.66409425
v 52.66357252 83.90177898 11.46194869
v 52.21924406 84.34479899 12.05635167
v 52.50469300 84.92206688 12.26090332
v 51.53793818 85.02722822 13.04541879
v 51.75875670 85.61344700 13.31735209
v 51.81800169 85.61344700 13.27403527
v 52.17077251 85.61344700 13.01654049
v 52.68780957 85.61344700 12.64834790
v 53.54684657 85.61344700 12.06597798
v 40.31929808 84.96681874 26.30276909
v 40.15503055 84.35598632 25.82628414
v 39.60298555 83.84584236 26.32924065
v 39.26906506 83.53483249 26.63486444
v 38.70086117 82.99783845 27.17391883
v 38.39387045 82.69577946 27.46751021
v 37.65870760 81.60389218 27.76110158
v 38.42349424 83.50798369 28.45417060
v 37.54291419 81.81868903 28.33625257
v 37.52944930 81.87462564 28.45417060
v 40.91712318 85.34718770 25.64579731
v 41.25104367 85.61344700 25.38108360
v 32.95151065 66.19439747 28.45417060
v 32.98382329 66.60609324 28.45417060
v 33.15617284 66.57700608 27.97768629
v 33.27465768 66.25033408 27.58542823
v 33.81593180 66.63518041 26.30276909
v 34.06906553 66.63518041 25.71077285
v 34.02597943 65.77151437 25.62413923
v 34.00443510 64.91008670 25.57119610
v 33.98827877 64.04642131 25.53509886
v 33.96942844 63.18499299 25.50862794
v 33.96942844 62.75539802 25.50862794
v 54.39511140 69.22393887 3.86947397
v 48.42494237 71.80598609 8.90385126
v 48.74808941 71.51735151 8.59100725
v 54.68594580 70.05180522 3.86947397
v 46.68801804 72.25348091 10.39587297
v 47.16466172 72.25348091 10.00602229
v 47.89174513 72.36535478 9.45493742
v 45.88822475 71.81046089 10.93733410
v 46.21137436 72.25348091 10.79053841
v 42.15585949 63.18499299 13.21627995
v 42.16124493 64.04642131 13.22349888
v 42.18548071 64.91008670 13.24997045
v 42.22587537 65.77151437 13.29088052
v 41.82732444 65.77151437 13.72164256
v 41.02753115 66.30850906 14.65054762
v 43.01220377 70.08760491 13.19943406
v 43.44306735 70.08760491 12.76145309
v 42.51670719 69.22170179 13.53634225
v 42.60557340 70.08760491 13.63260219
v 41.11370593 67.49660808 14.74680692
v 41.17833379 68.35803640 14.81900140
v 41.68729269 69.22170179 14.42915008
v 44.41520504 70.78793462 12.00822137
v 43.55078388 70.94679550 12.86733870
v 44.49599437 71.36072835 12.08282323
v 45.45736118 71.81046089 11.30793343
v 42.58941707 62.75539802 12.75663961
v 56.35554568 73.44605538 3.86947397
v 50.52540583 75.68800556 8.62950994
v 50.65736071 76.11983826 8.71855095
v 50.95896598 76.99692870 8.88700473
v 50.29920187 76.98350494 9.33220591
v 49.86833830 76.98350494 9.63542296
v 49.47786682 77.69725970 10.22501310
v 48.90158605 77.22962603 10.42956475
v 49.20857676 77.92771931 10.53304363
v 48.71308275 78.41101446 11.14669859
v 49.47517538 79.42459049 11.07209737
v 48.72654764 80.10925744 12.01784769
v 49.21934765 80.40907999 11.79404405
v 51.37367323 83.46994628 12.06597798
v 50.30458988 81.99768747 11.91436881
v 49.73100055 81.64416603 12.12854614
v 50.04876215 82.23486024 12.25368374
v 50.10531314 82.98665113 12.68444514
v 50.39884153 83.58853138 12.84327324
v 49.50210259 81.07137230 11.95287215
v 51.25249181 84.45443578 12.83846104
v 51.15824016 85.42102608 13.62297587
v 51.66181361 85.61344700 13.38954720
v 50.67351703 84.16356283 13.05504447
v 39.38216704 82.48321905 25.13321513
v 39.23405584 82.72710371 25.70596002
v 39.40640281 83.30213516 26.05730736
v 41.07331126 85.12567769 25.06824023
v 40.31121863 84.10315078 25.24872706
v 38.52582276 82.46084441 26.89235922
v 38.23229693 82.16773502 27.17391883
v 38.36694068 81.88581296 26.54582472
v 37.50790496 81.02886073 27.41216098
v 37.39480299 81.30630735 28.04025509
v 37.21707057 81.27274538 28.45417060
v 41.68729269 85.61344700 24.60619380
v 33.06999806 67.49660808 28.45417060
v 33.17232659 67.49660808 28.17983056
v 33.30428147 66.82312781 27.65762271
v 33.43892521 66.57700608 27.24611330
v 33.99097021 68.35803640 26.37255746
v 34.14446685 67.91277866 25.87682053
v 33.33928812 67.49660808 27.75147591
v 33.57088009 67.49660808 27.16669925
v 34.28180460 67.57491998 25.48456247
v 34.94964558 67.49660808 24.02622998
v 34.59687476 66.63518041 24.58212897
v 34.22794762 65.77151437 25.19578393
v 35.04120579 64.91008670 23.35963253
v 34.46492245 64.91008670 24.58212897
v 34.20370927 64.91008670 25.14284145
v 34.18486152 64.04642131 25.10433747
v 34.81769327 64.04642131 23.74707711
v 34.17409063 63.18499299 25.07786591
v 34.17409063 62.75539802 25.07786591
v 48.88542715 72.25348091 8.68967265
v 48.85311194 72.09014524 8.66801521
v 54.85290476 70.48363792 3.86947397
v 49.39708006 72.67412629 8.43458525
v 46.03364195 72.67412629 11.06247106
v 46.98154387 72.67412629 10.28036232
v 47.06502463 73.12609655 10.34774332
v 47.56321265 72.66293897 9.80628412
v 47.99946166 72.94262331 9.54156976
v 45.96093463 72.25348091 11.00230964
v 41.95389131 62.75539802 13.43045728
v 41.76000257 63.18499299 13.64463460
v 41.32913643 63.18499299 14.11389997
v 40.93597351 63.18499299 14.54706810
v 41.77077345 64.04642131 13.65426028
v 41.36145165 64.91008670 14.15721678
v 41.00329538 65.77151437 14.62166932
v 41.39915230 65.77151437 14.18850119
v 40.59935901 65.77151437 15.09815426
v 40.21158154 65.77151437 15.56741963
v 40.26005308 66.63518041 15.62517560
v 40.75016165 66.61280512 15.02836589
v 40.74747022 67.49660808 15.17756831
v 42.69174560 70.79912195 13.72164256
v 42.17470982 70.08760491 14.10427430
v 40.80940665 68.35803640 15.24976343
v 40.88480796 69.22170179 15.33880315
v 41.25912055 69.22170179 14.90563502
v 41.78692978 70.08760491 14.53503569
v 44.10013488 71.02286968 12.36678893
v 43.61810575 71.40771536 12.93231425
v 43.04990443 71.02958220 13.41120529
v 44.99417981 71.81046089 11.74110156
v 44.02204212 71.74109924 12.64594116
v 45.13421157 72.67412629 11.87105200
v 45.53006849 72.25348091 11.37531507
v 55.92468211 72.70545118 3.86947397
v 49.67444956 73.94501201 8.63673081
v 48.69153842 74.18889795 9.41402606
v 48.83157017 74.76169168 9.51509884
v 48.95813704 75.25617287 9.60654466
v 49.55596214 75.89161637 9.41161996
v 49.70945621 76.46441010 9.52472451
v 55.68231926 72.27361848 3.86947397
v 55.44803714 71.79703585 3.86947397
v 48.74539797 76.65683359 10.31405282
v 48.17719408 76.11983826 10.54267059
v 47.81365237 76.78436958 11.11300809
v 47.96714645 77.35940103 11.24055179
v 48.54073578 77.84717033 11.00712183
v 48.10987221 77.84717033 11.35606308
v 47.78672260 78.52064996 11.95287215
v 47.96445501 79.09344369 12.09966848
v 48.92582182 80.68428889 12.18148863
v 47.04617430 79.18517999 12.91787509
v 48.00484711 80.75812599 12.99969524
v 49.21934765 81.33315744 12.34272411
v 49.27589863 82.07599872 12.76385919
v 49.59366280 82.67340482 12.88659069
v 49.82525220 83.24843627 13.07670319
v 48.81002584 84.30228614 14.67701854
v 49.73638599 84.23516221 13.86121867
v 50.57657138 85.12120225 13.84677952
v 50.96165741 85.61344700 13.91897463
v 39.97729814 82.99783845 24.61341337
v 40.11463589 82.69577946 24.03585629
v 39.52489023 82.17892235 24.55806415
v 39.21789951 81.90818889 24.82999744
v 39.06171144 82.17892235 25.42921325
v 38.49889555 81.63745415 25.97067373
v 38.64969819 82.16773502 26.27389143
v 41.81655356 85.30243841 23.99735231
v 41.61727938 84.75873249 23.71097987
v 41.18641324 84.80348178 24.50271492
v 40.88480796 84.55064624 24.73855098
v 41.02753115 83.47442172 23.26096649
v 40.29236830 83.27081091 24.34869966
v 37.64255128 80.76260143 26.83701000
v 37.35979633 80.45830472 27.14022705
v 36.67041101 79.26796669 27.46269673
v 36.80236332 79.84299814 27.77794683
v 36.94778052 80.40236683 28.05228686
v 36.86968519 80.56570250 28.45417060
v 42.21510192 85.61344700 23.69894746
v 33.18310004 68.35803640 28.45417060
v 33.22888015 68.35803640 28.33144037
v 33.67320861 68.35803640 27.16669925
v 34.05560064 69.22170179 26.51935315
v 34.17139663 68.35803640 25.93938933
v 34.40029459 68.35803640 25.44124566
v 34.98465223 68.05821449 24.10323793
v 35.15430777 67.49660808 23.59546858
v 34.90386805 66.63518041 23.93237677
v 35.10852767 66.63518041 23.50402212
v 34.52147344 65.77151437 24.58212897
v 35.45052503 66.63518041 22.85426992
v 35.38051173 65.77151437 22.85426992
v 35.31318728 64.91008670 22.85426992
v 35.02235289 64.04642131 23.31631572
v 34.80961383 63.18499299 23.74226427
v 34.80961383 62.75539802 23.74226427
v 55.05487294 70.94679550 3.86947397
v 49.54249725 73.36998120 8.54047022
v 48.55150666 73.53779168 9.30813980
v 45.60008437 72.67412629 11.44028997
v 46.14943793 73.27153238 11.15873100
v 47.18081804 73.70112736 10.43919043
v 47.48242332 73.46395523 10.11672203
v 48.12064309 73.53779168 9.63061077
v 41.32913643 62.75539802 14.11389997
v 40.93597351 62.75539802 14.54706810
v 40.50241593 63.18499299 15.05483745
v 40.95212984 64.04642131 14.56632009
v 41.33990988 64.04642131 14.13315196
v 40.97367417 64.91008670 14.58797882
v 40.19003721 65.16068388 15.53854197
v 39.40909682 64.91008670 16.50595069
v 39.06979088 64.91008670 16.93671241
v 39.44410347 65.77151437 16.55167392
v 39.14788364 66.63518041 17.03297170
v 39.91536171 66.63518041 16.05593699
v 40.31660407 67.49660808 15.69737007
v 41.92965554 71.26899205 14.69627053
v 42.76714692 71.37191567 13.80586944
v 40.37854050 68.35803640 15.77919086
v 40.45125038 69.22170179 15.87063732
v 40.97905961 70.08760491 15.45190834
v 41.35606620 70.08760491 15.02114695
v 43.39728724 72.67412629 13.56281381
v 43.75275207 72.25348091 13.06707752
v 44.14860899 72.25348091 12.68203904
v 44.63333212 72.25348091 12.21758651
v 44.70065399 72.67412629 12.28015531
v 45.25539299 73.35431908 11.98656329
v 48.38993314 74.44620765 9.72927617
v 48.33607616 75.24051139 10.07581067
v 48.61075166 76.11983826 10.20576047
v 47.88097425 74.94068884 10.30924063
v 47.09195441 75.65220588 11.23092612
v 47.64130540 76.11983826 10.97583743
v 47.51743254 77.03720383 11.47398111
v 46.17367370 75.77079226 12.04191251
v 47.05155974 77.45784920 12.05875841
v 47.21044183 78.03288066 12.19352168
v 47.50127622 78.76901006 12.31625255
v 48.20142985 81.29512003 13.15611724
v 47.87020336 81.81421487 13.74570738
v 48.79386951 81.73366461 12.93712644
v 47.10272529 80.81853804 13.83234101
v 47.69247095 81.29512003 13.58687928
v 46.90614255 78.70859801 12.79273749
v 46.47797041 78.70859801 13.18740165
v 46.16559425 79.21426780 13.75773979
v 46.69340348 79.48947670 13.42083160
v 48.09909875 82.39148275 13.94544556
v 48.90966550 83.31556020 13.89972265
v 48.74270396 85.23755091 15.47837991
v 49.01199402 84.74306972 14.85028580
v 49.64751978 85.19056519 14.65295372
v 49.44286017 84.74306972 14.48449930
v 48.00484711 83.36702137 14.72755493
v 47.74363650 83.88387977 15.34842883
v 47.92136891 84.32913623 15.51688324
v 48.42224836 84.66923391 15.32195790
v 50.87009977 85.61344700 13.99116911
v 39.96652726 82.13641078 23.73504470
v 40.27890341 82.41161968 23.46070531
v 39.22597896 81.04004805 23.98291316
v 39.05363199 81.31301923 24.55806415
v 38.49350754 80.78721251 25.09230506
v 38.61738040 81.32868200 25.40514842
v 39.37947560 81.61060406 24.25484645
v 38.35616979 81.06242270 25.66504930
v 41.98620653 85.05631732 23.42220133
v 41.79500923 84.48128587 23.11176406
v 41.50148340 83.83912920 22.89999283
v 41.78423834 83.62880651 22.24542780
v 41.21064901 83.18802421 22.68581551
v 41.02753115 82.61075504 22.40184980
v 40.91173774 82.94861500 22.92646440
v 37.76103869 80.45830472 26.27389143
v 37.63716326 79.90564792 25.96826699
v 37.35441089 79.59911349 26.27389143
v 36.79697788 78.99275779 26.88754639
v 36.93431563 79.56331380 27.16910535
v 36.56538848 79.56331380 28.05228686
v 36.54384415 78.70859801 27.16910535
v 36.13452491 78.63028675 28.10522999
v 36.68656991 80.09359596 28.35309782
v 36.67310502 80.14505713 28.45417060
v 42.35513367 85.61344700 23.47273772
v 33.34198213 69.37608722 28.45417060
v 33.79977548 69.22170179 27.16669925
v 34.10946020 69.83029521 26.65411643
v 34.23602706 69.22170179 26.09099786
v 34.52955289 69.22170179 25.44124566
v 35.02774091 68.63324594 24.19949723
v 35.19200843 68.35132388 23.77836151
v 35.71712365 69.22170179 23.01550476
v 35.68749987 68.31328647 22.80373353
v 35.54208525 67.49660808 22.85426992
v 35.77906008 66.63518041 22.25986695
v 35.73866542 65.77151437 22.19489141
v 35.70635277 64.91008670 22.13954218
v 35.27279262 64.04642131 22.85426992
v 35.01697002 63.18499299 23.30909614
v 35.26202174 63.18499299 22.85426992
v 35.01697002 62.75539802 23.30909614
v 45.89091876 74.39474520 11.78682447
v 46.26523134 73.84432611 11.25980314
v 47.75440738 74.39474520 10.20335437
v 46.80919947 74.39474520 10.99268332
v 40.50241593 62.75539802 15.05483745
v 40.52395770 64.04642131 15.07408944
v 40.14964511 63.18499299 15.48559884
v 40.16311000 64.04642131 15.50725757
v 39.38755248 64.04642131 16.47466629
v 39.04555254 64.04642131 16.90542800
v 39.11018298 65.77151437 16.98002890
v 38.63892474 64.91008670 17.50223707
v 39.19904918 67.49660808 17.10035334
v 38.71702006 66.63518041 17.60812269
v 39.54104912 67.49660808 16.66718521
v 42.00505686 71.81046089 14.77568458
v 41.48263307 70.91099581 15.10537384
v 41.61727938 71.81046089 15.20885271
v 42.69713361 72.25348091 14.17165594
v 42.96642367 72.67412629 14.02004677
v 40.03654313 68.35803640 16.20754584
v 40.11194445 69.22170179 16.30139904
v 40.16041599 69.73632119 16.36396784
v 40.78786231 70.88414572 15.91636088
v 41.03291660 70.55523729 15.51928998
v 43.53193355 73.53779168 13.70720340
v 43.82276794 72.67412629 13.13445852
v 44.25363152 72.67412629 12.71332344
v 44.40174272 73.53779168 12.85530629
v 44.48252948 73.98304942 12.93712644
v 45.36580096 73.93158825 12.09244890
v 46.95730810 75.07717571 11.11541419
v 46.32447634 76.34806144 12.17426969
v 46.06326316 75.25617287 11.94324648
v 45.63509102 75.25617287 12.34753695
v 45.17999167 75.25617287 12.77829834
v 45.30117053 75.80211779 12.89140353
v 44.55523679 76.40176033 13.86603150
v 45.12613212 76.98350494 13.59169147
v 45.58661948 76.98350494 13.16093072
v 46.67724716 77.77557096 12.54246228
v 46.30562601 78.10000459 13.02857354
v 47.26429881 81.29512003 13.98394953
v 46.99500875 81.83882595 14.58797882
v 47.20505639 82.41385740 14.78771699
v 47.45011067 83.09405019 15.04521178
v 46.34601810 79.79377341 13.92860031
v 45.46274662 79.81167390 14.77327784
v 46.03902739 80.26588124 14.50375129
v 46.22753068 80.84538685 14.67942528
v 46.80919947 81.29512003 14.41471157
v 46.02287106 78.70859801 13.61816304
v 45.29578509 79.23664245 14.61204364
v 48.16642319 84.90416768 15.74790646
v 47.86750936 85.25545268 16.31824429
v 48.35492649 85.61344700 16.16182260
v 48.59728677 85.61344700 15.94042570
v 49.22204165 85.61344700 15.37490039
v 49.33244962 85.50157377 15.18478789
v 49.57750391 85.61344700 15.06686986
v 50.08107737 85.61344700 14.63370173
v 50.21572368 85.61344700 14.52300328
v 47.11619018 83.39610918 15.56982637
v 46.87652134 83.88387977 16.19310701
v 47.05694518 84.33361167 16.37359383
v 47.29122859 84.91087956 16.60461673
v 40.12002390 81.83658951 23.17914570
v 39.53027824 81.31301923 23.70376030
v 40.28967429 81.53676696 22.60399472
v 39.06979088 80.44040424 23.70376030
v 38.62545985 80.47396620 24.54603173
v 39.38755248 80.73127590 23.40776218
v 38.35078435 80.20994463 24.81074545
v 37.75565325 79.59911349 25.41236800
v 38.18651683 80.47396620 25.40514842
v 42.60018796 85.40312431 22.85426992
v 42.74829916 85.19727707 22.39944306
v 42.16124493 84.75873249 22.83501793
v 41.97812708 84.20383796 22.53661308
v 42.74021971 84.34479899 21.52588754
v 41.97812708 83.33569713 21.67027681
v 41.50148340 82.97322608 22.03606331
v 41.79500923 82.76066696 21.39593710
v 41.98889796 82.44965709 20.82078612
v 41.81655356 81.87686336 20.57051124
v 41.05176950 81.71128996 21.57401752
v 40.12540934 80.96173551 22.33446816
v 37.63447183 79.03303164 25.10433747
v 37.50521353 79.33061647 25.67948845
v 36.66502557 78.41996406 26.60117394
v 36.05642959 78.76006046 28.45417060
v 36.41189441 79.56555152 28.45417060
v 36.12913690 77.77333324 27.24129983
v 35.96756338 78.01274373 27.86939394
v 35.85984684 78.29019035 28.44695102
v 42.75637603 85.61344700 22.85426992
v 33.46046954 70.08760491 28.45417060
v 33.98019933 70.10326703 27.11375613
v 33.62204306 70.08760491 28.03062814
v 34.16331718 70.40308894 26.79369318
v 34.47838734 70.94679550 26.30276909
v 34.29526949 70.10326703 26.34367916
v 34.69112641 70.08760491 25.44124566
v 34.94695158 70.08760491 24.88534666
v 35.14891976 70.08760491 24.45939811
v 34.86885882 69.22170179 24.72651856
v 35.07621245 69.22170179 24.29816327
v 35.36165883 69.22170179 23.71579271
v 35.79252497 70.08760491 23.14545520
v 35.95679250 69.22170179 22.57992989
v 35.85715541 67.99556536 22.40425654
v 35.82484019 67.49660808 22.34409384
v 36.02142293 66.63518041 21.83151165
v 35.97833426 65.77151437 21.76172328
v 35.68749987 64.04642131 22.10344495
v 36.33649309 65.77151437 21.12881697
v 35.95140706 64.91008670 21.70878079
v 35.68211700 63.18499299 22.08659970
v 35.13814888 62.75539802 23.08288640
v 35.26202174 62.75539802 22.85426992
v 46.38102733 74.39474520 11.35606308
v 40.14964511 62.75539802 15.48559884
v 39.96114181 62.75539802 15.72384164
v 39.37678160 63.18499299 16.46504030
v 39.04016710 63.18499299 16.89580169
v 38.61738040 64.04642131 17.47095267
v 38.33462803 64.91008670 17.93299879
v 38.36963468 65.77151437 17.98834833
v 38.71971150 67.49437100 17.74769912
v 39.26906506 68.35803640 17.18939371
v 39.60567956 68.35803640 16.75622558
v 38.41002935 66.63518041 18.04129082
v 38.43695655 67.20349870 18.08220122
v 41.68460125 72.25348091 15.28104719
v 42.13431516 72.67412629 14.92248027
v 42.56518130 72.67412629 14.45321490
v 41.10562648 71.13026810 15.60111077
v 41.18641324 71.81046089 15.70458965
v 39.36601072 69.40069959 17.30490500
v 39.42794715 70.08760491 17.39153862
v 40.22773786 70.31135200 16.44819473
v 40.30313918 70.94679550 16.54204793
v 43.61002631 74.01213723 13.78661745
v 43.97087657 73.53779168 13.27403527
v 44.60101690 74.55360543 13.04782489
v 45.46005261 74.39474520 12.17908253
v 46.15751481 77.52273542 12.88899679
v 44.74912553 75.25617287 13.19221448
v 44.30749107 75.25617287 13.62538261
v 44.06512822 76.10417678 14.24144431
v 43.70158652 76.37491152 14.74921302
v 44.27248185 76.98350494 14.43636965
v 44.69526855 76.98350494 14.00801436
v 45.27424332 77.55406095 13.73126823
v 46.38102733 81.29512003 14.82622097
v 46.12789359 81.85448871 15.44468877
v 46.32447634 82.42952016 15.63480127
v 46.89806310 82.82107773 15.36286798
v 45.69972146 80.55899062 15.01392738
v 44.95109371 79.51632679 15.12703192
v 45.18268311 80.27483084 15.34842883
v 45.94208430 81.29512003 15.25698236
v 45.59200492 78.70859801 14.03689266
v 45.43312283 78.12909240 13.88287675
v 45.15036789 78.70859801 14.46765405
v 44.41251360 77.56301055 14.58316534
v 44.71950432 78.70859801 14.90563502
v 47.00308820 85.26664001 17.17736130
v 47.49050277 85.61344700 16.99446805
v 47.68439150 85.61344700 16.80676164
v 46.57491606 83.11194939 15.89229605
v 46.25446046 83.39834690 16.43134948
v 39.97999214 81.26826994 22.87833475
v 39.23674984 80.15848217 23.14545520
v 38.50427843 79.90564792 24.23559447
v 39.54912600 80.44040424 22.85426992
v 38.18921083 79.59911349 24.54603173
v 42.61634428 84.68042123 22.06253487
v 43.27341438 85.61344700 22.08659970
v 43.51846866 85.31810117 21.40796952
v 42.94487933 84.92206688 21.82429208
v 43.23301972 84.69384499 21.17935304
v 43.51846866 84.47009855 20.55366599
v 42.94487933 84.04945189 20.95073656
v 42.75099059 83.47442172 20.67880327
v 42.60018796 83.02021310 20.47425161
v 42.77253493 82.57943080 19.84375141
v 42.29050324 82.22814708 20.20472474
v 42.01582774 81.52781736 19.99295383
v 41.67382780 81.26155806 20.27451312
v 40.88480796 81.13402207 21.33096188
v 40.31121863 80.62387684 21.76172328
v 40.00961336 80.37551802 22.02643764
v 39.40101737 79.82062350 22.56789748
v 40.15503055 80.04884667 21.52348113
v 38.36155524 79.33061647 23.98531990
v 37.77719502 78.73097265 24.57490940
v 37.66140161 78.11119191 24.28613086
v 37.51598441 78.45800019 24.85887574
v 36.95855140 77.82479569 25.47253006
v 36.80505733 78.09553043 26.02602296
v 36.68656991 77.52049898 25.78056123
v 36.56000304 77.82479569 26.30998866
v 35.85984684 78.29466580 28.45417060
v 35.95409849 76.98350494 26.94289561
v 35.85984684 77.43771228 27.57820866
v 35.35088794 76.98126722 28.45417060
v 35.66595811 77.80689520 28.45417060
v 33.62204306 70.94008298 28.45417060
v 33.78631059 70.94679550 28.03062814
v 34.21717416 70.94679550 26.92604972
v 34.65611718 71.81046089 26.30276909
v 34.86347338 70.89309597 25.41718083
v 35.05197668 71.14145542 25.11155705
v 35.84099651 70.62907375 23.23690167
v 35.50438459 70.08760491 23.71579271
v 36.03488782 70.08760491 22.71228707
v 36.28801898 69.22170179 21.99033976
v 36.87507320 69.22170179 20.94833014
v 36.56000304 68.35803640 21.26117383
v 36.80505733 68.35803640 20.82800570
v 36.76197123 67.67113108 20.74859165
v 36.70003480 66.63518041 20.64511245
v 36.42266529 66.63518041 21.12881697
v 35.93255673 64.04642131 21.67268355
v 36.22069711 63.18499299 21.12881697
v 35.92178584 63.18499299 21.65824440
v 36.65425469 65.77151437 20.57291765
v 36.28263354 64.91008670 21.12881697
v 35.68211700 62.75539802 22.08659970
v 39.37678160 62.75539802 16.46504030
v 39.04016710 62.75539802 16.89580169
v 38.61199753 63.18499299 17.46373342
v 38.31308369 64.04642131 17.90171471
v 37.61292749 64.91008670 19.00388671
v 37.64524271 65.77151437 19.04720352
v 38.90821479 68.35803640 17.67791107
v 38.47735122 67.77629243 18.14236360
v 38.07072342 66.63518041 18.54184059
v 37.68563738 66.63518041 19.11217874
v 37.39749699 66.63518041 19.54294013
v 37.73680292 67.49660808 19.18918637
v 38.21613804 67.49437100 18.47205253
v 41.74922912 72.67412629 15.35324231
v 41.84886878 73.27153238 15.46634685
v 42.77792037 73.93382469 14.67942528
v 42.67828328 73.35431908 14.57353967
v 41.25373511 72.25348091 15.78400370
v 40.41085572 71.81046089 16.68403078
v 40.90634973 72.25348091 16.21235899
v 40.96559472 72.67412629 16.28936663
v 39.08594721 69.15681494 17.62737468
v 39.11018298 70.08760491 17.82230034
v 39.53027824 70.94679550 17.52389580
v 39.96114181 70.94679550 16.97521606
v 39.20443463 70.94679550 17.95225078
v 42.47362109 74.39474520 15.20644597
v 42.63788862 75.25617287 15.38933954
v 43.03643954 75.25617287 14.95617141
v 43.58040509 75.80211779 14.61685648
v 43.44576135 76.98350494 15.32917748
v 43.83892427 76.98350494 14.89841545
v 42.73752570 75.75065534 15.50003799
v 45.36310953 80.84986229 15.54094807
v 45.51121816 81.29512003 15.69255724
v 45.79935854 82.13417306 15.97411620
v 45.46813206 82.41385740 16.51798310
v 46.04441283 82.82555317 16.20995225
v 44.44482882 79.21426780 15.48319275
v 44.60640234 79.78929925 15.65886609
v 44.34788317 80.24350659 16.23161066
v 44.51753613 80.81406260 16.42172348
v 44.31018251 78.70859801 15.33639706
v 43.57232565 77.52273542 15.46875359
v 44.06512822 77.83150757 15.10537384
v 45.55968970 83.95771559 17.62978110
v 45.36310953 84.30004971 18.12070487
v 46.16828826 85.23531448 18.05813607
v 46.62069617 85.61344700 17.89930797
v 46.83612667 85.61344700 17.66587865
v 45.40888706 83.37149681 17.30971815
v 43.96010569 85.61344700 21.11919098
v 43.72851630 85.04289099 20.83281853
v 44.02204212 84.79453089 20.22397673
v 44.54446591 84.23963765 19.03757752
v 43.73928718 84.15013907 19.97851500
v 42.58941707 82.00439935 19.60791535
v 43.54270444 83.57510762 19.72583338
v 43.76352295 83.24396083 19.15068239
v 43.57501965 82.66892938 18.91003350
v 42.81292702 81.64416603 19.03276437
v 41.85694566 80.95502363 19.76915019
v 41.25642911 80.47620392 20.25044829
v 40.61820934 80.42026731 21.14084938
v 39.60029155 79.54765103 22.02884373
v 39.26906506 79.24782977 22.33928100
v 38.52582276 78.98157047 23.40776218
v 40.20619610 79.08225637 20.74137207
v 40.03923457 79.56778924 21.34780745
v 39.30676572 78.30137768 21.54273311
v 41.12178280 79.84971131 19.95204344
v 40.97367417 79.27467986 19.73305295
v 38.23499094 78.69964841 23.70376030
v 37.83913145 77.83374529 23.74707711
v 37.54291419 77.53392274 24.05510828
v 37.40288243 77.83374529 24.57490940
v 36.99894606 76.92309289 24.64229168
v 36.71080568 76.59642153 24.97198029
v 36.23954744 76.98350494 26.30276909
v 35.87331173 76.54048492 26.74796963
v 35.61209855 76.19815080 27.08969130
v 35.51515547 76.98350494 28.03062814
v 35.10044822 76.29212482 28.45417060
v 33.82131981 71.81269862 28.45417060
v 33.99097021 71.81269862 27.99212416
v 34.10676619 71.52853883 27.51082638
v 34.29257548 71.81269862 27.20038975
v 34.51339657 72.67412629 27.16669925
v 34.76652773 72.25348091 26.29795625
v 34.98465223 72.31836777 25.82869088
v 34.97657536 72.25348091 25.81184499
v 34.92540981 71.81046089 25.70114654
v 35.13007200 71.81046089 25.27279189
v 35.46129592 71.81046089 24.58212897
v 35.69288788 70.92889566 23.67969547
v 35.81945475 72.25348091 24.05270154
v 35.91101239 71.20410520 23.37166494
v 36.34187596 71.81046089 22.85426992
v 36.65425469 71.81046089 22.28874461
v 36.89661497 71.81046089 21.85798322
v 36.79697788 70.94679550 21.68230923
v 36.92354475 70.12340460 21.16972704
v 36.68926134 69.86385718 21.48738389
v 37.47828375 70.94679550 20.51997485
v 37.38941754 70.08760491 20.38039873
v 37.34094600 69.24183936 20.19991191
v 37.15513414 68.35803640 20.26488712
v 36.98009573 67.42948415 20.34911433
v 36.96663085 66.63518041 20.21435074
v 36.24493288 64.04642131 21.12881697
v 36.59770370 63.18499299 20.47425161
v 36.22069711 62.75539802 21.12881697
v 35.92178584 62.75539802 21.65824440
v 36.92354475 65.77151437 20.14215626
v 36.89392353 64.91008670 20.09883945
v 36.62732491 64.91008670 20.52960084
v 38.61199753 62.75539802 17.46373342
v 38.30769825 63.18499299 17.89690155
v 37.87683211 63.18499299 18.52499534
v 37.58869172 63.74436168 18.96297631
v 37.82836057 64.03747107 18.62125464
v 37.59946261 64.31939313 18.98222830
v 37.32748111 64.91008670 19.43464810
v 37.35441089 65.77151437 19.48037165
v 38.52313133 68.35803640 18.20974524
v 37.51059897 68.35803640 19.70898813
v 37.79873935 68.35803640 19.28063283
v 37.45404798 67.49660808 19.62235450
v 41.31836554 72.67412629 15.86101165
v 41.94581186 73.84432611 15.57704595
v 40.19542522 72.25348091 17.11238576
v 40.32737495 73.53779168 17.43726218
v 40.81210065 73.46395523 16.80194881
v 41.03830461 73.12609655 16.38321951
v 40.23043187 72.92696118 17.31212457
v 38.60122408 69.22170179 18.31803695
v 38.67662540 70.08760491 18.43836172
v 39.60029155 71.81717342 17.73085355
v 38.73856183 70.90428329 18.61162897
v 39.27983594 71.53077655 18.05572997
v 42.04544895 74.39474520 15.68774440
v 42.15047405 75.33224769 15.97171010
v 42.86678658 76.32568679 15.64442759
v 42.74021971 77.46903653 16.35915468
v 41.91349664 75.66563092 16.40006508
v 42.48977998 76.07061481 15.94042570
v 45.10189635 81.29512003 16.12572537
v 45.27962876 81.83658951 16.31102503
v 44.43944338 81.79855210 17.19901938
v 44.63602355 82.37581999 17.41319703
v 43.48346201 78.70859801 16.23642382
v 43.61002631 79.16728079 16.37118709
v 43.77160240 79.74007452 16.55167392
v 43.68004218 80.77602519 17.30971815
v 44.67372421 81.29512003 16.58536474
v 43.72043685 78.09553043 15.62998843
v 42.87755746 78.04406798 16.51798310
v 45.34425920 85.18608974 18.96297631
v 45.92323397 85.61344700 18.68863660
v 45.15036789 83.72501826 17.88486882
v 44.57408712 83.32674753 18.20974524
v 44.84607118 83.98456567 18.45520696
v 44.00319179 85.61344700 21.06143501
v 44.07051366 85.61344700 20.97239497
v 44.30210306 85.41431163 20.46462562
v 44.53369503 85.12120225 19.88947464
v 45.20961289 85.61344700 19.52609488
v 44.33980372 83.66684392 18.78730264
v 44.03819845 83.90849085 19.38411203
v 44.07320767 82.99783845 18.56109258
v 43.80660905 82.31317150 18.33488252
v 43.61810575 81.73814005 18.10145288
v 43.48346201 81.29512003 17.93059237
v 42.86947801 80.67533929 18.24343606
v 42.64596806 81.06913458 18.82099346
v 41.91080521 79.98843462 18.98222830
v 41.71152846 80.43145464 19.57663127
v 39.17211941 78.63699863 22.02884373
v 38.70355517 78.69964841 22.87833475
v 38.56083198 78.03511838 22.60640146
v 38.39925589 78.40653902 23.18155244
v 40.07154979 78.50498848 20.53682042
v 39.48718957 77.84717033 20.95073656
v 39.75648220 78.69069752 21.14084938
v 39.20174319 77.84717033 21.38390469
v 38.77087705 77.78675828 22.05772204
v 41.43954697 79.63267545 19.35764047
v 41.75461713 79.41340317 18.78489622
v 41.14601857 78.70859801 19.11217874
v 40.83902786 78.70859801 19.54534687
v 40.26543852 78.08434311 19.96166943
v 38.30231281 77.78675828 22.87833475
v 38.43695655 77.46008693 22.38741065
v 37.45404798 76.91190556 23.74707711
v 36.83198453 76.11983826 24.36313881
v 35.89754750 75.59850699 25.93938933
v 35.97025738 76.19815080 26.25945227
v 35.76828920 75.96321575 26.51454032
v 35.21624420 75.21366130 27.21723500
v 35.07621245 75.47320872 27.78757251
v 35.18931442 76.09746362 28.05710034
v 34.96849591 75.79988007 28.36272349
v 34.95233959 75.84910480 28.45417060
v 33.92364834 72.25348091 28.45417060
v 33.92364834 72.25348091 28.45176450
v 34.14985229 72.25348091 27.84051563
v 34.17409063 72.10357028 27.68409363
v 34.79345750 73.60267918 27.09450478
v 35.01427602 73.93158825 26.76240878
v 34.93348669 73.35431908 26.57710912
v 34.86077937 72.63385180 26.29795625
v 34.24410394 72.67412629 27.86217436
v 34.13369597 73.13728387 28.45417060
v 34.35989992 73.46843003 28.10522999
v 35.06544156 72.89563630 25.99955139
v 35.78175409 73.53779168 24.82999744
v 35.90562695 72.95157355 24.22837553
v 36.06989447 72.66965149 23.76632910
v 36.02680837 72.25348091 23.64600497
v 36.55730904 72.61818968 22.83261119
v 36.73234744 72.25348091 22.34890667
v 37.35171689 71.83507326 21.06865459
v 37.54829963 71.56657624 20.62345404
v 37.11743348 70.94679550 21.12881697
v 37.76103869 70.94679550 20.08680704
v 37.66678705 70.08760491 19.95204344
v 37.61292749 69.54389834 19.86540981
v 37.55907051 68.96886689 19.78358934
v 36.61116859 64.04642131 20.50072318
v 36.86160832 63.18499299 20.04349022
v 36.59770370 62.75539802 20.47425161
v 37.36248777 64.03747107 19.32394965
v 36.87776464 64.04642131 20.06996147
v 38.30769825 62.75539802 17.89690155
v 38.08957117 62.75539802 18.21455807
v 37.58330628 62.75539802 18.95816347
v 37.58330628 63.18499299 18.95816347
v 37.28170101 63.18499299 19.40336402
v 38.30500425 69.22170179 18.75120508
v 41.13255368 73.70112736 16.50113753
v 41.67921581 74.39474520 16.11850579
v 39.98806902 72.25348091 17.38191295
v 39.90728483 72.65622709 17.63218751
v 40.90634973 74.39474520 17.07869526
v 41.24565566 74.39474520 16.65033996
v 39.99076303 73.53779168 17.86561715
v 40.10117100 74.18442251 18.00760000
v 38.38579358 70.08760491 18.86912311
v 38.43695655 70.58879926 18.94613074
v 39.35523726 72.10357028 18.16161527
v 39.43063858 72.67412629 18.26990730
v 39.05632599 71.81717342 18.48649137
v 38.50697243 71.16159299 19.04720352
v 38.29423336 71.81046089 19.59828968
v 38.59045320 71.81046089 19.16512155
v 39.29868627 72.25348091 18.29878528
v 41.80308867 75.09060075 16.26530180
v 41.93234697 77.35492558 17.28324659
v 42.51670719 77.79123372 16.80916838
v 41.11101192 75.50900841 17.33378298
v 41.23488478 76.11983826 17.49020466
v 41.00060395 76.64340854 18.05813607
v 44.27786729 81.29512003 17.01853287
v 43.84430971 81.29512003 17.50223707
v 44.38289239 82.75395380 17.98594160
v 43.00681576 78.77124778 16.80916838
v 42.78599982 79.09791914 17.27602734
v 43.19262762 80.43816651 17.67550433
v 42.63519718 78.52288768 17.09313409
v 44.61717322 85.61344700 20.26729354
v 44.68449766 85.61344700 20.18065992
v 42.71059850 80.10030784 18.04369756
v 39.36601072 77.29675125 20.76784331
v 39.94498549 77.81584480 20.25526113
v 39.04016710 76.99692870 21.08550016
v 38.59314463 76.98350494 21.79541442
v 42.56518130 79.56778924 17.86321073
v 41.98351252 78.98157047 18.20733850
v 41.60381449 78.69964841 18.51536935
v 41.84078933 78.41101446 18.02685199
v 41.04369005 78.27676531 18.97500872
v 40.58858813 77.89415734 19.37207962
v 40.31660407 76.98350494 19.17234080
v 37.58330628 76.57404689 23.27059216
v 37.17129304 76.11983826 23.71819945
v 36.74850634 75.62983123 24.18746482
v 36.48460172 75.31211076 24.51474733
v 35.80329585 75.01900138 25.73965052
v 35.64979921 75.28749840 26.25945227
v 35.08159789 74.39474520 26.92845646
v 34.98196080 74.89370183 27.54211078
v 34.75037140 75.23379822 28.45417060
v 34.02328800 72.67412629 28.45417060
v 34.90925092 74.39474520 27.35921785
v 35.35358195 74.39474520 26.30276909
v 35.13007200 73.60267918 26.29795625
v 34.26564828 73.62057838 28.45417060
v 35.50169058 73.53779168 25.44124566
v 35.73058854 74.34104631 25.44846524
v 35.85446140 74.01661139 24.97919987
v 35.98641371 73.53779168 24.39682931
v 36.32571964 73.53779168 23.71819945
v 36.64078980 73.53779168 23.12860931
v 36.79159244 72.87326165 22.52939350
v 37.61831551 72.14384477 20.74137207
v 37.82566656 71.83507326 20.30820394
v 36.86160832 62.75539802 20.04349022
v 37.28170101 62.75539802 19.40336402
v 41.00329538 74.93397696 17.20142612
v 39.51411935 73.61610422 18.55387300
v 39.32292204 73.95396290 18.98222830
v 39.85342528 74.43725676 18.47445895
v 40.20619610 74.75721624 18.14476970
v 39.13441875 72.67412629 18.70307543
v 39.23405584 73.37669373 18.84746502
v 38.35078435 72.25348091 19.68492330
v 42.04275752 77.84717033 17.42763586
v 40.29775374 75.25617287 18.26750088
v 40.42162917 76.16458884 18.56109258
v 40.89557885 76.11983826 17.92096638
v 41.13255368 77.21620227 18.22418407
v 41.70614302 77.84717033 17.85839790
v 40.20619610 76.48007287 19.01110596
v 40.78247687 76.94994297 18.52499534
v 40.91173774 77.70173386 18.79933505
v 39.25021473 76.72171980 20.59698280
v 38.67662540 76.15116379 21.14325580
v 38.38309957 75.88266677 21.44166034
v 38.49350754 76.45769822 21.62214716
v 38.19190227 76.15116379 21.94221011
v 37.74757381 76.11983826 22.69062834
v 37.49982552 76.11983826 23.12379647
v 37.64255128 75.54480810 22.50773542
v 37.37056721 75.25617287 22.82057878
v 36.89392353 75.31211076 23.71819945
v 36.65425469 75.05703750 24.00457189
v 36.11298057 74.34104631 24.64469777
v 34.65073431 74.39474520 28.03062814
v 34.48916079 74.39026975 28.45417060
v 36.57615937 74.34104631 23.71819945
v 36.71349969 74.01661139 23.25374691
v 37.61562150 73.88907540 21.59808234
v 36.88584409 73.53779168 22.69784792
v 37.33555799 73.57582909 21.92777160
v 37.44327710 72.67412629 21.29967748
v 37.63447183 72.25348091 20.76784331
v 38.25383870 73.53779168 20.39483756
v 38.46657777 73.05897197 19.85337740
v 38.38309957 72.48394117 19.73305295
v 39.51142534 75.32329809 19.40817686
v 40.10117100 75.90727914 18.86190385
v 38.38579358 74.39474520 20.59457606
v 38.45580688 74.82434017 20.69564884
v 39.32831006 75.65668132 19.85337740
v 39.41717626 76.11983826 19.98814068
v 38.30500425 75.17114973 21.14325580
v 37.81758968 75.25617287 22.02643764
v 37.54291419 74.97201437 22.33446816
v 36.80774876 74.58940512 23.43182700
v 37.69371682 74.39474520 21.73765845
v 38.05725853 74.39474520 21.12881697
v 37.79065991 73.57582909 21.15288180
f 1 2 5
f 1 5 12
f 1 12 22
f 1 22 45
f 1 45 77
f 1 77 114
f 1 114 165
f 1 165 223
f 1 223 307
f 1 307 310
f 1 310 391
f 1 391 490
f 1 490 433
f 1 433 432
f 1 432 425
f 1 425 334
f 1 334 251
f 1 251 250
f 1 250 248
f 1 248 187
f 1 187 186
f 1 186 141
f 1 141 134
f 1 134 91
f 1 91 59
f 1 59 34
f 1 34 18
f 1 18 8
f 1 8 3
f 1 3 9
f 1 9 20
f 1 20 43
f 1 43 76
f 1 76 113
f 1 113 164
f 1 164 222
f 1 222 306
f 1 306 388
f 1 388 489
f 1 489 596
f 1 596 715
f 1 715 716
f 1 716 826
f 1 826 939
f 1 939 938
f 1 938 1057
f 1 1057 1133
f 1 1133 1134
f 1 1134 1062
f 1 1062 1061
f 1 1061 1060
f 1 1060 943
f 1 943 828
f 1 828 827
f 1 827 719
f 1 719 718
f 1 718 601
f 1 601 499
f 1 499 498
f 1 498 399
f 1 399 333
f 1 333 246
f 1 246 184
f 1 184 183
f 1 183 130
f 1 130 85
f 1 85 50
f 1 50 44
f 1 44 21
f 1 21 10
f 1 10 4
f 1 4 6
f 1 6 2
f 2 6 7
f 2 7 5
f 3 8 17
f 3 17 33
f 3 33 42
f 3 42 19
f 3 19 9
f 4 10 11
f 4 11 6
f 5 7 13
f 5 13 12
f 6 11 7
f 7 11 14
f 7 14 15
f 7 15 16
f 7 16 13
f 8 18 17
f 9 19 20
f 10 21 11
f 11 21 14
f 12 13 22
f 13 16 23
f 13 23 24
f 13 24 22
f 14 21 44
f 14 44 25
f 14 25 15
f 15 25 26
f 15 26 27
f 15 27 28
f 15 28 16
f 16 29 30
f 16 30 23
f 16 28 31
f 16 31 29
f 17 18 32
f 17 32 33
f 18 34 35
f 18 35 36
f 18 36 37
f 18 37 38
f 18 38 39
f 18 39 40
f 18 40 32
f 19 41 20
f 19 42 74
f 19 74 89
f 19 89 90
f 19 90 107
f 19 107 103
f 19 103 106
f 19 106 105
f 19 105 143
f 19 143 200
f 19 200 274
f 19 274 283
f 19 283 282
f 19 282 281
f 19 281 280
f 19 280 279
f 19 279 356
f 19 356 452
f 19 452 553
f 19 553 658
f 19 658 657
f 19 657 656
f 19 656 654
f 19 654 653
f 19 653 652
f 19 652 766
f 19 766 765
f 19 765 876
f 19 876 875
f 19 875 985
f 19 985 993
f 19 993 1097
f 19 1097 1096
f 19 1096 990
f 19 990 989
f 19 989 878
f 19 878 775
f 19 775 692
f 19 692 579
f 19 579 472
f 19 472 369
f 19 369 295
f 19 295 212
f 19 212 155
f 19 155 108
f 19 108 73
f 19 73 41
f 20 41 73
f 20 73 109
f 20 109 156
f 20 156 211
f 20 211 291
f 20 291 293
f 20 293 368
f 20 368 471
f 20 471 578
f 20 578 688
f 20 688 687
f 20 687 800
f 20 800 804
f 20 804 803
f 20 803 909
f 20 909 1029
f 20 1029 1118
f 20 1118 1165
f 20 1165 1123
f 20 1123 1039
f 20 1039 1119
f 20 1119 1030
f 20 1030 910
f 20 910 805
f 20 805 693
f 20 693 580
f 20 580 473
f 20 473 370
f 20 370 297
f 20 297 296
f 20 296 216
f 20 216 213
f 20 213 158
f 20 158 157
f 20 157 110
f 20 110 75
f 20 75 43
f 22 24 46
f 22 46 45
f 23 30 47
f 23 47 48
f 23 48 24
f 24 48 49
f 24 49 46
f 25 44 50
f 25 50 26
f 26 50 85
f 26 85 51
f 26 51 52
f 26 52 53
f 26 53 28
f 26 28 27
f 28 53 54
f 28 54 31
f 29 31 30
f 30 31 47
f 31 54 87
f 31 87 55
f 31 55 47
f 32 40 56
f 32 56 57
f 32 57 58
f 32 58 42
f 32 42 33
f 34 59 60
f 34 60 61
f 34 61 62
f 34 62 35
f 35 62 63
f 35 63 64
f 35 64 65
f 35 65 66
f 35 66 36
f 36 66 37
f 37 66 67
f 37 67 38
f 38 68 69
f 38 69 39
f 38 67 70
f 38 70 68
f 39 69 71
f 39 71 72
f 39 72 40
f 40 72 57
f 40 57 56
f 42 58 74
f 43 75 112
f 43 112 76
f 45 46 78
f 45 78 77
f 46 49 78
f 47 55 79
f 47 79 80
f 47 80 81
f 47 81 82
f 47 82 49
f 47 49 48
f 49 83 84
f 49 84 78
f 49 82 83
f 51 85 130
f 51 130 86
f 51 86 52
f 52 87 54
f 52 54 53
f 52 86 88
f 52 88 118
f 52 118 87
f 55 87 118
f 55 118 79
f 57 89 74
f 57 74 58
f 57 72 90
f 57 90 89
f 59 91 92
f 59 92 93
f 59 93 60
f 60 93 94
f 60 94 95
f 60 95 61
f 61 95 62
f 62 95 63
f 63 96 97
f 63 97 64
f 63 95 98
f 63 98 99
f 63 99 100
f 63 100 96
f 64 101 102
f 64 102 65
f 64 97 101
f 65 102 67
f 65 67 66
f 67 102 70
f 68 103 71
f 68 71 69
f 68 70 102
f 68 102 104
f 68 104 105
f 68 105 106
f 68 106 103
f 71 103 107
f 71 107 90
f 71 90 72
f 73 108 109
f 75 110 111
f 75 111 112
f 76 112 163
f 76 163 113
f 77 78 115
f 77 115 114
f 78 84 116
f 78 116 117
f 78 117 115
f 79 118 119
f 79 119 120
f 79 120 121
f 79 121 122
f 79 122 80
f 80 122 81
f 81 123 124
f 81 124 82
f 81 122 125
f 81 125 123
f 82 124 126
f 82 126 127
f 82 127 83
f 83 127 128
f 83 128 129
f 83 129 84
f 84 129 116
f 86 130 183
f 86 183 131
f 86 131 132
f 86 132 133
f 86 133 88
f 88 133 118
f 91 134 92
f 92 135 136
f 92 136 137
f 92 137 138
f 92 138 139
f 92 139 140
f 92 140 95
f 92 95 94
f 92 94 93
f 92 134 141
f 92 141 135
f 95 140 142
f 95 142 98
f 96 143 144
f 96 144 145
f 96 145 97
f 96 100 146
f 96 146 147
f 96 147 148
f 96 148 149
f 96 149 143
f 97 145 101
f 98 142 99
f 99 147 100
f 99 142 150
f 99 150 151
f 99 151 147
f 100 147 146
f 101 145 104
f 101 104 102
f 104 145 144
f 104 144 105
f 105 144 143
f 108 152 153
f 108 153 154
f 108 154 109
f 108 155 152
f 109 154 156
f 110 157 111
f 111 157 158
f 111 158 159
f 111 159 160
f 111 160 161
f 111 161 162
f 111 162 163
f 111 163 112
f 113 163 221
f 113 221 164
f 114 115 165
f 115 117 166
f 115 166 165
f 116 167 168
f 116 168 166
f 116 166 117
f 116 129 169
f 116 169 170
f 116 170 167
f 118 133 119
f 119 132 171
f 119 171 172
f 119 172 173
f 119 173 120
f 119 133 132
f 120 173 121
f 121 173 174
f 121 174 122
f 122 174 175
f 122 175 176
f 122 176 125
f 123 177 124
f 123 125 177
f 124 177 126
f 125 176 178
f 125 178 179
f 125 179 177
f 126 177 180
f 126 180 127
f 127 180 128
f 128 181 169
f 128 169 129
f 128 180 182
f 128 182 181
f 131 183 184
f 131 184 185
f 131 185 171
f 131 171 132
f 135 141 186
f 135 186 187
f 135 187 188
f 135 188 136
f 136 188 189
f 136 189 137
f 137 189 190
f 137 190 138
f 138 191 192
f 138 192 193
f 138 193 194
f 138 194 142
f 138 142 195
f 138 195 139
f 138 190 189
f 138 189 188
f 138 188 196
f 138 196 197
f 138 197 198
f 138 198 191
f 139 195 140
f 140 195 142
f 142 194 199
f 142 199 150
f 143 149 200
f 147 151 201
f 147 201 202
f 147 202 148
f 148 202 149
f 149 202 200
f 150 199 203
f 150 203 201
f 150 201 151
f 152 155 204
f 152 204 153
f 153 204 205
f 153 205 206
f 153 206 207
f 153 207 208
f 153 208 209
f 153 209 154
f 154 209 210
f 154 210 211
f 154 211 156
f 155 212 204
f 158 213 159
f 159 214 215
f 159 215 160
f 159 213 216
f 159 216 214
f 160 215 161
f 161 215 217
f 161 217 218
f 161 218 219
f 161 219 162
f 162 219 220
f 162 220 221
f 162 221 163
f 164 221 220
f 164 220 222
f 165 166 224
f 165 224 223
f 166 168 224
f 167 225 226
f 167 226 168
f 167 170 227
f 167 227 228
f 167 228 225
f 168 226 224
f 169 181 229
f 169 229 170
f 170 229 227
f 171 185 230
f 171 230 231
f 171 231 172
f 172 231 173
f 173 231 232
f 173 232 174
f 174 232 175
f 175 232 233
f 175 233 234
f 175 234 235
f 175 235 176
f 176 236 237
f 176 237 178
f 176 235 238
f 176 238 239
f 176 239 240
f 176 240 236
f 177 179 180
f 178 241 179
f 178 237 242
f 178 242 241
f 179 243 182
f 179 182 180
f 179 241 323
f 179 323 244
f 179 244 243
f 181 182 229
f 182 243 245
f 182 245 229
f 184 246 185
f 185 246 333
f 185 333 247
f 185 247 230
f 187 248 188
f 188 249 196
f 188 248 250
f 188 250 251
f 188 251 252
f 188 252 253
f 188 253 254
f 188 254 255
f 188 255 256
f 188 256 257
f 188 257 258
f 188 258 259
f 188 259 260
f 188 260 261
f 188 261 249
f 191 198 197
f 191 197 262
f 191 262 263
f 191 263 192
f 192 264 265
f 192 265 193
f 192 263 266
f 192 266 267
f 192 267 264
f 193 265 268
f 193 268 269
f 193 269 199
f 193 199 194
f 196 249 270
f 196 270 197
f 197 271 272
f 197 272 273
f 197 273 262
f 197 270 271
f 199 269 203
f 200 202 274
f 201 203 269
f 201 269 275
f 201 275 202
f 202 275 276
f 202 276 277
f 202 277 278
f 202 278 279
f 202 279 280
f 202 280 281
f 202 281 282
f 202 282 283
f 202 283 274
f 204 212 284
f 204 284 205
f 205 284 285
f 205 285 206
f 206 286 287
f 206 287 207
f 206 285 286
f 207 288 208
f 207 287 288
f 208 289 290
f 208 290 210
f 208 210 209
f 208 288 289
f 210 291 211
f 210 290 292
f 210 292 293
f 210 293 291
f 212 294 284
f 212 295 294
f 214 216 296
f 214 296 297
f 214 297 298
f 214 298 299
f 214 299 215
f 215 299 217
f 217 300 301
f 217 301 302
f 217 302 218
f 217 299 300
f 218 302 303
f 218 303 219
f 219 303 304
f 219 304 305
f 219 305 220
f 220 305 306
f 220 306 222
f 223 224 307
f 224 226 308
f 224 308 309
f 224 309 310
f 224 310 307
f 225 228 311
f 225 311 312
f 225 312 226
f 226 313 308
f 226 312 313
f 227 314 228
f 227 229 245
f 227 245 314
f 228 314 315
f 228 315 311
f 230 247 316
f 230 316 317
f 230 317 318
f 230 318 231
f 231 318 319
f 231 319 232
f 232 319 233
f 233 319 320
f 233 320 321
f 233 321 234
f 234 238 235
f 234 321 238
f 236 322 323
f 236 323 242
f 236 242 237
f 236 240 324
f 236 324 325
f 236 325 322
f 238 321 326
f 238 326 327
f 238 327 239
f 239 327 328
f 239 328 240
f 240 328 324
f 241 242 323
f 243 244 329
f 243 329 245
f 244 323 330
f 244 330 329
f 245 329 331
f 245 331 332
f 245 332 314
f 247 333 316
f 249 261 270
f 251 334 335
f 251 335 336
f 251 336 254
f 251 254 253
f 251 253 252
f 254 336 337
f 254 337 255
f 255 337 256
f 256 337 338
f 256 338 339
f 256 339 340
f 256 340 258
f 256 258 257
f 258 340 341
f 258 341 342
f 258 342 343
f 258 343 344
f 258 344 260
f 258 260 259
f 260 272 261
f 260 344 343
f 260 343 345
f 260 345 346
f 260 346 272
f 261 272 271
f 261 271 270
f 262 273 263
f 263 273 266
f 264 347 265
f 264 267 347
f 265 347 268
f 266 348 349
f 266 349 350
f 266 350 351
f 266 351 352
f 266 352 267
f 266 273 348
f 267 352 347
f 268 276 269
f 268 347 276
f 269 276 275
f 272 346 353
f 272 353 273
f 273 353 349
f 273 349 348
f 276 354 277
f 276 347 352
f 276 352 354
f 277 354 278
f 278 355 356
f 278 356 279
f 278 354 357
f 278 357 355
f 284 294 285
f 285 358 359
f 285 359 360
f 285 360 286
f 285 294 361
f 285 361 362
f 285 362 358
f 286 360 287
f 287 360 359
f 287 359 288
f 288 359 363
f 288 363 289
f 289 363 364
f 289 364 290
f 290 364 365
f 290 365 366
f 290 366 367
f 290 367 292
f 292 367 368
f 292 368 293
f 294 295 361
f 295 369 361
f 297 370 298
f 298 370 371
f 298 371 372
f 298 372 299
f 299 372 373
f 299 373 300
f 300 374 375
f 300 375 301
f 300 373 376
f 300 376 377
f 300 377 374
f 301 375 378
f 301 378 379
f 301 379 380
f 301 380 302
f 302 380 381
f 302 381 382
f 302 382 383
f 302 383 384
f 302 384 303
f 303 384 385
f 303 385 304
f 304 385 305
f 305 385 386
f 305 386 487
f 305 487 387
f 305 387 388
f 305 388 306
f 308 313 389
f 308 389 390
f 308 390 310
f 308 310 309
f 310 390 389
f 310 389 392
f 310 392 391
f 311 315 393
f 311 393 394
f 311 394 312
f 312 395 396
f 312 396 313
f 312 394 395
f 313 397 389
f 313 396 397
f 314 398 315
f 314 332 398
f 315 398 393
f 316 333 399
f 316 399 400
f 316 400 317
f 317 400 401
f 317 401 402
f 317 402 403
f 317 403 404
f 317 404 318
f 318 320 319
f 318 404 405
f 318 405 406
f 318 406 320
f 320 406 321
f 321 406 405
f 321 405 407
f 321 407 408
f 321 408 409
f 321 409 410
f 321 410 411
f 321 411 326
f 322 330 323
f 322 325 412
f 322 412 330
f 324 328 325
f 325 328 413
f 325 413 412
f 326 411 414
f 326 414 327
f 327 414 415
f 327 415 416
f 327 416 328
f 328 417 413
f 328 416 417
f 329 330 418
f 329 418 331
f 330 419 331
f 330 331 418
f 330 412 420
f 330 420 419
f 331 421 332
f 331 419 422
f 331 422 421
f 332 421 423
f 332 423 424
f 332 424 393
f 332 393 398
f 334 425 335
f 335 426 427
f 335 427 428
f 335 428 429
f 335 429 430
f 335 430 431
f 335 431 336
f 335 425 432
f 335 432 433
f 335 433 426
f 336 431 338
f 336 338 337
f 338 431 339
f 339 431 341
f 339 341 340
f 341 434 435
f 341 435 436
f 341 436 437
f 341 437 438
f 341 438 343
f 341 343 342
f 341 431 434
f 343 438 439
f 343 439 440
f 343 440 441
f 343 441 345
f 345 442 346
f 345 441 443
f 345 443 444
f 345 444 442
f 346 442 353
f 349 351 350
f 349 353 445
f 349 445 446
f 349 446 447
f 349 447 351
f 351 447 448
f 351 448 352
f 352 448 449
f 352 449 450
f 352 450 451
f 352 451 357
f 352 357 354
f 353 442 445
f 355 452 356
f 355 357 451
f 355 451 452
f 358 362 453
f 358 453 454
f 358 454 455
f 358 455 456
f 358 456 457
f 358 457 359
f 359 457 458
f 359 458 459
f 359 459 363
f 361 369 460
f 361 460 461
f 361 461 462
f 361 462 463
f 361 463 362
f 362 463 464
f 362 464 465
f 362 465 453
f 363 459 364
f 364 459 365
f 365 459 458
f 365 458 366
f 366 466 467
f 366 467 468
f 366 468 469
f 366 469 470
f 366 470 367
f 366 458 466
f 367 470 471
f 367 471 368
f 369 472 460
f 370 473 474
f 370 474 371
f 371 474 475
f 371 475 376
f 371 376 372
f 372 376 373
f 374 476 477
f 374 477 375
f 374 377 475
f 374 475 476
f 375 477 378
f 376 475 377
f 378 477 478
f 378 478 379
f 379 479 480
f 379 480 481
f 379 481 380
f 379 478 479
f 380 481 381
f 381 481 482
f 381 482 483
f 381 483 382
f 382 482 484
f 382 484 485
f 382 485 486
f 382 486 487
f 382 487 386
f 382 386 383
f 382 483 482
f 383 385 384
f 383 386 385
f 387 487 488
f 387 488 489
f 387 489 388
f 389 397 392
f 391 392 491
f 391 491 490
f 392 397 492
f 392 492 491
f 393 424 493
f 393 493 494
f 393 494 395
f 393 395 394
f 395 495 496
f 395 496 397
f 395 397 396
f 395 494 495
f 397 496 497
f 397 497 492
f 399 498 401
f 399 401 400
f 401 498 499
f 401 499 402
f 402 499 601
f 402 601 500
f 402 500 501
f 402 501 502
f 402 502 403
f 403 502 503
f 403 503 404
f 404 503 405
f 405 503 407
f 407 503 504
f 407 504 408
f 408 504 505
f 408 505 506
f 408 506 507
f 408 507 508
f 408 508 509
f 408 509 409
f 409 509 510
f 409 510 410
f 410 510 411
f 411 510 414
f 412 413 417
f 412 417 511
f 412 511 512
f 412 512 420
f 414 510 513
f 414 513 514
f 414 514 415
f 415 514 515
f 415 515 416
f 416 515 516
f 416 516 417
f 417 516 511
f 419 420 512
f 419 512 517
f 419 517 518
f 419 518 519
f 419 519 422
f 421 422 520
f 421 520 521
f 421 521 423
f 422 519 521
f 422 521 520
f 423 522 493
f 423 493 424
f 423 521 522
f 426 491 427
f 426 433 491
f 427 491 492
f 427 492 497
f 427 497 523
f 427 523 428
f 428 523 429
f 429 523 524
f 429 524 525
f 429 525 434
f 429 434 430
f 430 434 431
f 433 490 491
f 434 525 435
f 435 526 527
f 435 527 528
f 435 528 436
f 435 525 526
f 436 529 437
f 436 528 527
f 436 527 530
f 436 530 529
f 437 529 531
f 437 531 532
f 437 532 439
f 437 439 438
f 439 532 440
f 440 532 533
f 440 533 441
f 441 533 443
f 442 444 534
f 442 534 535
f 442 535 536
f 442 536 445
f 443 537 538
f 443 538 444
f 443 533 539
f 443 539 540
f 443 540 541
f 443 541 542
f 443 542 537
f 444 538 535
f 444 535 534
f 445 536 446
f 446 536 447
f 447 536 535
f 447 535 448
f 448 535 543
f 448 543 544
f 448 544 449
f 449 545 546
f 449 546 547
f 449 547 548
f 449 548 450
f 449 544 543
f 449 543 549
f 449 549 550
f 449 550 551
f 449 551 552
f 449 552 545
f 450 548 547
f 450 547 451
f 451 553 452
f 451 547 553
f 453 465 454
f 454 554 455
f 454 465 464
f 454 464 555
f 454 555 554
f 455 554 456
f 456 556 557
f 456 557 558
f 456 558 559
f 456 559 457
f 456 554 560
f 456 560 556
f 457 559 458
f 458 558 561
f 458 561 466
f 458 559 558
f 460 472 562
f 460 562 461
f 461 562 464
f 461 464 462
f 462 464 463
f 464 562 563
f 464 563 564
f 464 564 565
f 464 565 566
f 464 566 567
f 464 567 568
f 464 568 555
f 466 569 570
f 466 570 467
f 466 561 558
f 466 558 569
f 467 571 572
f 467 572 573
f 467 573 468
f 467 570 571
f 468 574 469
f 468 573 572
f 468 572 575
f 468 575 576
f 468 576 574
f 469 574 577
f 469 577 470
f 470 577 471
f 471 577 578
f 472 579 562
f 473 580 474
f 474 580 581
f 474 581 475
f 475 581 476
f 476 581 582
f 476 582 583
f 476 583 477
f 477 583 584
f 477 584 478
f 478 584 479
f 479 584 585
f 479 585 586
f 479 586 480
f 480 586 587
f 480 587 588
f 480 588 589
f 480 589 482
f 480 482 481
f 482 589 484
f 484 589 590
f 484 590 591
f 484 591 485
f 485 591 486
f 486 591 592
f 486 592 593
f 486 593 487
f 487 594 488
f 487 593 595
f 487 595 594
f 488 594 596
f 488 596 489
f 493 522 494
f 494 522 597
f 494 597 598
f 494 598 495
f 495 599 496
f 495 598 600
f 495 600 599
f 496 599 497
f 497 599 523
f 500 602 501
f 500 601 718
f 500 718 603
f 500 603 604
f 500 604 602
f 501 503 502
f 501 602 503
f 503 602 504
f 504 604 605
f 504 605 606
f 504 606 505
f 504 602 604
f 505 606 506
f 506 607 507
f 506 606 608
f 506 608 607
f 507 607 508
f 508 609 509
f 508 607 608
f 508 608 610
f 508 610 609
f 509 611 510
f 509 609 611
f 510 611 513
f 511 612 512
f 511 516 613
f 511 613 614
f 511 614 612
f 512 612 615
f 512 615 616
f 512 616 517
f 513 611 617
f 513 617 514
f 514 617 618
f 514 618 619
f 514 619 515
f 515 620 621
f 515 621 516
f 515 619 620
f 516 621 613
f 517 616 622
f 517 622 518
f 518 623 624
f 518 624 519
f 518 622 623
f 519 624 521
f 521 625 522
f 521 624 625
f 522 625 626
f 522 626 627
f 522 627 597
f 523 599 526
f 523 526 524
f 524 526 525
f 526 599 628
f 526 628 527
f 527 628 530
f 529 530 629
f 529 629 531
f 530 628 630
f 530 630 631
f 530 631 632
f 530 632 633
f 530 633 634
f 530 634 635
f 530 635 636
f 530 636 629
f 531 629 637
f 531 637 532
f 532 637 638
f 532 638 539
f 532 539 533
f 535 538 537
f 535 537 639
f 535 639 640
f 535 640 641
f 535 641 642
f 535 642 543
f 537 542 643
f 537 643 644
f 537 644 645
f 537 645 646
f 537 646 647
f 537 647 639
f 539 638 540
f 540 638 648
f 540 648 541
f 541 644 542
f 541 648 649
f 541 649 644
f 542 644 643
f 543 642 549
f 545 552 650
f 545 650 651
f 545 651 652
f 545 652 653
f 545 653 654
f 545 654 655
f 545 655 547
f 545 547 546
f 547 655 656
f 547 656 657
f 547 657 658
f 547 658 553
f 549 642 659
f 549 659 550
f 550 659 551
f 551 659 660
f 551 660 661
f 551 661 662
f 551 662 651
f 551 651 650
f 551 650 552
f 554 555 663
f 554 663 664
f 554 664 560
f 555 665 663
f 555 568 567
f 555 567 665
f 556 666 667
f 556 667 557
f 556 560 664
f 556 664 668
f 556 668 666
f 557 667 558
f 558 669 670
f 558 670 671
f 558 671 569
f 558 667 669
f 562 579 672
f 562 672 673
f 562 673 674
f 562 674 563
f 563 674 675
f 563 675 564
f 564 675 565
f 565 675 676
f 565 676 677
f 565 677 678
f 565 678 566
f 566 678 567
f 567 678 679
f 567 679 680
f 567 680 681
f 567 681 682
f 567 682 683
f 567 683 665
f 569 671 570
f 570 671 670
f 570 670 684
f 570 684 685
f 570 685 571
f 571 685 686
f 571 686 572
f 572 686 575
f 574 576 687
f 574 687 688
f 574 688 577
f 575 689 690
f 575 690 576
f 575 686 689
f 576 690 691
f 576 691 687
f 577 688 578
f 579 692 672
f 580 693 581
f 581 694 582
f 581 693 695
f 581 695 694
f 582 694 696
f 582 696 697
f 582 697 698
f 582 698 583
f 583 698 699
f 583 699 584
f 584 699 700
f 584 700 701
f 584 701 702
f 584 702 585
f 585 702 703
f 585 703 704
f 585 704 586
f 586 704 587
f 587 704 705
f 587 705 706
f 587 706 588
f 588 706 707
f 588 707 589
f 589 707 708
f 589 708 590
f 590 708 709
f 590 709 710
f 590 710 591
f 591 710 592
f 592 711 593
f 592 710 712
f 592 712 713
f 592 713 821
f 592 821 711
f 593 711 714
f 593 714 595
f 594 595 715
f 594 715 596
f 595 714 826
f 595 826 716
f 595 716 715
f 597 630 598
f 597 627 630
f 598 717 600
f 598 630 717
f 599 600 628
f 600 717 628
f 603 718 719
f 603 719 720
f 603 720 606
f 603 606 605
f 603 605 604
f 606 721 722
f 606 722 608
f 606 720 721
f 608 722 830
f 608 830 723
f 608 723 724
f 608 724 610
f 609 610 725
f 609 725 726
f 609 726 727
f 609 727 617
f 609 617 611
f 610 724 728
f 610 728 729
f 610 729 725
f 612 614 730
f 612 730 731
f 612 731 732
f 612 732 615
f 613 621 614
f 614 621 733
f 614 733 734
f 614 734 730
f 615 732 616
f 616 732 622
f 617 727 618
f 618 727 726
f 618 726 735
f 618 735 736
f 618 736 619
f 619 736 737
f 619 737 620
f 620 738 734
f 620 734 733
f 620 733 621
f 620 737 738
f 622 732 739
f 622 739 623
f 623 740 624
f 623 739 740
f 624 740 625
f 625 740 739
f 625 739 626
f 626 741 630
f 626 630 742
f 626 742 627
f 626 739 741
f 627 742 630
f 628 717 630
f 629 636 743
f 629 743 638
f 629 638 637
f 630 741 631
f 631 741 632
f 632 741 744
f 632 744 633
f 633 744 634
f 634 744 745
f 634 745 739
f 634 739 746
f 634 746 747
f 634 747 748
f 634 748 749
f 634 749 635
f 635 749 750
f 635 750 638
f 635 638 636
f 636 638 743
f 638 750 648
f 639 647 640
f 640 647 646
f 640 646 751
f 640 751 752
f 640 752 753
f 640 753 641
f 641 753 754
f 641 754 659
f 641 659 642
f 644 755 646
f 644 646 645
f 644 649 756
f 644 756 757
f 644 757 755
f 646 755 758
f 646 758 751
f 648 759 649
f 648 750 760
f 648 760 759
f 649 761 762
f 649 762 763
f 649 763 756
f 649 759 761
f 651 662 764
f 651 764 765
f 651 765 766
f 651 766 652
f 654 656 655
f 659 754 753
f 659 753 767
f 659 767 768
f 659 768 660
f 660 768 764
f 660 764 661
f 661 764 662
f 663 683 769
f 663 769 664
f 663 665 683
f 664 769 683
f 664 683 668
f 666 668 770
f 666 770 771
f 666 771 667
f 667 771 669
f 668 683 772
f 668 772 770
f 669 771 773
f 669 773 684
f 669 684 670
f 672 692 673
f 673 676 774
f 673 774 674
f 673 692 775
f 673 775 776
f 673 776 777
f 673 777 676
f 674 774 675
f 675 774 676
f 676 777 776
f 676 776 778
f 676 778 779
f 676 779 780
f 676 780 781
f 676 781 677
f 677 680 679
f 677 679 678
f 677 781 680
f 680 781 782
f 680 782 783
f 680 783 784
f 680 784 681
f 681 784 785
f 681 785 786
f 681 786 787
f 681 787 682
f 682 787 788
f 682 788 683
f 683 789 790
f 683 790 772
f 683 788 791
f 683 791 789
f 684 773 792
f 684 792 793
f 684 793 794
f 684 794 795
f 684 795 796
f 684 796 797
f 684 797 686
f 684 686 685
f 686 797 798
f 686 798 799
f 686 799 689
f 687 691 800
f 689 801 802
f 689 802 690
f 689 799 801
f 690 802 803
f 690 803 804
f 690 804 691
f 691 804 800
f 693 805 695
f 694 695 806
f 694 806 807
f 694 807 696
f 695 805 806
f 696 807 697
f 697 807 808
f 697 808 809
f 697 809 699
f 697 699 698
f 699 809 810
f 699 810 700
f 700 810 701
f 701 811 812
f 701 812 702
f 701 810 811
f 702 812 703
f 703 812 704
f 704 812 705
f 705 812 811
f 705 811 813
f 705 813 706
f 706 813 814
f 706 814 707
f 707 814 815
f 707 815 816
f 707 816 817
f 707 817 708
f 708 817 818
f 708 818 819
f 708 819 820
f 708 820 709
f 709 820 712
f 709 712 710
f 711 821 822
f 711 822 823
f 711 823 714
f 712 820 824
f 712 824 825
f 712 825 713
f 713 825 821
f 714 823 939
f 714 939 826
f 719 827 720
f 720 827 828
f 720 828 721
f 721 828 943
f 721 943 829
f 721 829 722
f 722 829 830
f 723 830 831
f 723 831 832
f 723 832 724
f 724 832 728
f 725 833 726
f 725 729 834
f 725 834 833
f 726 833 735
f 728 832 835
f 728 835 729
f 729 835 836
f 729 836 837
f 729 837 838
f 729 838 839
f 729 839 834
f 730 840 731
f 730 734 840
f 731 840 841
f 731 841 842
f 731 842 843
f 731 843 739
f 731 739 732
f 734 844 840
f 734 738 845
f 734 845 846
f 734 846 847
f 734 847 844
f 735 833 848
f 735 848 849
f 735 849 736
f 736 850 851
f 736 851 738
f 736 738 737
f 736 849 852
f 736 852 850
f 738 851 845
f 739 842 853
f 739 853 854
f 739 854 855
f 739 855 856
f 739 856 746
f 739 745 744
f 739 744 741
f 739 843 842
f 746 856 747
f 747 857 858
f 747 858 748
f 747 856 859
f 747 859 857
f 748 858 762
f 748 762 749
f 749 762 750
f 750 762 761
f 750 761 760
f 751 758 752
f 752 758 860
f 752 860 753
f 753 860 861
f 753 861 862
f 753 862 863
f 753 863 864
f 753 864 767
f 755 757 860
f 755 860 758
f 756 763 865
f 756 865 866
f 756 866 757
f 757 866 867
f 757 867 868
f 757 868 860
f 759 760 761
f 762 869 763
f 762 858 870
f 762 870 871
f 762 871 869
f 763 869 865
f 764 768 872
f 764 872 873
f 764 873 874
f 764 874 875
f 764 875 876
f 764 876 765
f 767 864 768
f 768 864 877
f 768 877 872
f 770 792 771
f 770 772 790
f 770 790 792
f 771 792 773
f 775 878 776
f 776 878 879
f 776 879 778
f 778 879 779
f 779 879 880
f 779 880 881
f 779 881 882
f 779 882 783
f 779 783 781
f 779 781 780
f 781 783 782
f 783 883 784
f 783 882 884
f 783 884 885
f 783 885 886
f 783 886 887
f 783 887 883
f 784 883 785
f 785 888 889
f 785 889 786
f 785 883 887
f 785 887 888
f 786 889 890
f 786 890 787
f 787 890 788
f 788 890 791
f 789 791 790
f 790 791 891
f 790 891 892
f 790 892 893
f 790 893 792
f 791 894 895
f 791 895 896
f 791 896 891
f 791 890 889
f 791 889 897
f 791 897 898
f 791 898 894
f 792 893 899
f 792 899 793
f 793 899 794
f 794 899 900
f 794 900 901
f 794 901 902
f 794 902 795
f 795 902 903
f 795 903 796
f 796 903 798
f 796 798 797
f 798 904 905
f 798 905 799
f 798 903 904
f 799 905 801
f 801 906 802
f 801 905 906
f 802 906 907
f 802 907 908
f 802 908 803
f 803 908 909
f 805 910 911
f 805 911 912
f 805 912 806
f 806 912 807
f 807 913 808
f 807 912 913
f 808 914 915
f 808 915 916
f 808 916 917
f 808 917 918
f 808 918 809
f 808 913 914
f 809 918 810
f 810 918 919
f 810 919 920
f 810 920 921
f 810 921 811
f 811 921 922
f 811 922 923
f 811 923 924
f 811 924 925
f 811 925 926
f 811 926 927
f 811 927 928
f 811 928 929
f 811 929 813
f 813 929 815
f 813 815 814
f 815 817 816
f 815 929 928
f 815 928 930
f 815 930 931
f 815 931 932
f 815 932 817
f 817 932 933
f 817 933 818
f 818 933 934
f 818 934 935
f 818 935 819
f 819 824 820
f 819 935 824
f 821 825 936
f 821 936 822
f 822 936 937
f 822 937 1057
f 822 1057 938
f 822 938 939
f 822 939 823
f 824 935 940
f 824 940 941
f 824 941 942
f 824 942 825
f 825 942 936
f 829 943 1060
f 829 1060 944
f 829 944 830
f 830 944 945
f 830 945 946
f 830 946 947
f 830 947 831
f 831 947 948
f 831 948 949
f 831 949 950
f 831 950 832
f 832 836 835
f 832 950 836
f 833 834 951
f 833 951 848
f 834 839 952
f 834 952 953
f 834 953 951
f 836 950 837
f 837 950 940
f 837 940 935
f 837 935 954
f 837 954 838
f 838 954 952
f 838 952 839
f 840 844 955
f 840 955 841
f 841 955 956
f 841 956 842
f 842 956 853
f 844 847 955
f 845 851 850
f 845 850 957
f 845 957 846
f 846 957 847
f 847 958 959
f 847 959 960
f 847 960 955
f 847 957 961
f 847 961 958
f 848 951 849
f 849 951 962
f 849 962 963
f 849 963 852
f 850 852 964
f 850 964 957
f 852 963 965
f 852 965 966
f 852 966 964
f 853 956 967
f 853 967 854
f 854 967 968
f 854 968 859
f 854 859 855
f 855 859 856
f 857 870 858
f 857 859 969
f 857 969 970
f 857 970 870
f 859 968 971
f 859 971 972
f 859 972 970
f 859 970 969
f 860 868 973
f 860 973 974
f 860 974 861
f 861 974 862
f 862 974 863
f 863 974 975
f 863 975 976
f 863 976 877
f 863 877 864
f 865 869 977
f 865 977 978
f 865 978 866
f 866 978 979
f 866 979 867
f 867 979 980
f 867 980 868
f 868 981 973
f 868 980 981
f 869 871 982
f 869 982 983
f 869 983 977
f 870 970 983
f 870 983 871
f 871 983 982
f 872 877 873
f 873 984 985
f 873 985 874
f 873 877 986
f 873 986 987
f 873 987 988
f 873 988 881
f 873 881 984
f 874 985 875
f 877 976 987
f 877 987 986
f 878 989 879
f 879 989 990
f 879 990 991
f 879 991 992
f 879 992 880
f 880 992 881
f 881 992 993
f 881 993 984
f 881 988 987
f 881 987 994
f 881 994 995
f 881 995 882
f 882 995 885
f 882 885 884
f 885 995 994
f 885 994 987
f 885 987 996
f 885 996 886
f 886 996 997
f 886 997 998
f 886 998 887
f 887 998 999
f 887 999 1000
f 887 1000 1001
f 887 1001 888
f 888 1001 1002
f 888 1002 1003
f 888 1003 897
f 888 897 889
f 891 896 892
f 892 896 1004
f 892 1004 1005
f 892 1005 893
f 893 1005 1006
f 893 1006 1007
f 893 1007 899
f 894 1008 1009
f 894 1009 1010
f 894 1010 895
f 894 898 1008
f 895 1010 896
f 896 1010 1009
f 896 1009 1011
f 896 1011 1012
f 896 1012 1004
f 897 1003 1013
f 897 1013 898
f 898 1013 1014
f 898 1014 1015
f 898 1015 1016
f 898 1016 1017
f 898 1017 1008
f 899 1007 900
f 900 1007 1018
f 900 1018 1019
f 900 1019 901
f 901 1020 903
f 901 903 902
f 901 1019 1020
f 903 1020 1021
f 903 1021 904
f 904 1021 1022
f 904 1022 1023
f 904 1023 905
f 905 1023 906
f 906 1023 1024
f 906 1024 907
f 907 1024 1025
f 907 1025 1026
f 907 1026 1027
f 907 1027 908
f 908 1027 909
f 909 1026 1028
f 909 1028 1029
f 909 1027 1026
f 910 1030 1031
f 910 1031 911
f 911 1031 1032
f 911 1032 1033
f 911 1033 912
f 912 1033 913
f 913 1033 914
f 914 1034 1035
f 914 1035 1036
f 914 1036 1037
f 914 1037 915
f 914 1033 1032
f 914 1032 1038
f 914 1038 1039
f 914 1039 1040
f 914 1040 1034
f 915 1037 916
f 916 1037 1041
f 916 1041 1042
f 916 1042 1043
f 916 1043 917
f 917 1043 922
f 917 922 919
f 917 919 918
f 919 922 920
f 920 922 921
f 922 1043 1044
f 922 1044 1045
f 922 1045 923
f 923 1045 924
f 924 1045 1046
f 924 1046 1047
f 924 1047 925
f 925 1047 926
f 926 1047 1048
f 926 1048 927
f 927 1048 1049
f 927 1049 1050
f 927 1050 928
f 928 1050 930
f 930 1050 1049
f 930 1049 1051
f 930 1051 1052
f 930 1052 931
f 931 1052 1053
f 931 1053 932
f 932 1053 1054
f 932 1054 933
f 933 1054 952
f 933 952 934
f 934 952 954
f 934 954 935
f 936 942 1055
f 936 1055 937
f 937 1055 1056
f 937 1056 1133
f 937 1133 1057
f 940 950 941
f 941 950 949
f 941 949 1058
f 941 1058 1059
f 941 1059 1055
f 941 1055 942
f 944 1060 1061
f 944 1061 945
f 945 1061 1062
f 945 1062 1063
f 945 1063 946
f 946 948 947
f 946 1063 1064
f 946 1064 1056
f 946 1056 1058
f 946 1058 948
f 948 1058 949
f 951 953 1054
f 951 1054 1065
f 951 1065 962
f 952 1054 953
f 955 960 1066
f 955 1066 1067
f 955 1067 956
f 956 1067 967
f 957 964 1068
f 957 1068 1069
f 957 1069 961
f 958 1070 1071
f 958 1071 1066
f 958 1066 959
f 958 961 1072
f 958 1072 1073
f 958 1073 1070
f 959 1066 960
f 961 1069 1072
f 962 1065 963
f 963 1065 1054
f 963 1054 1074
f 963 1074 1075
f 963 1075 965
f 964 1069 1068
f 964 966 1076
f 964 1076 1077
f 964 1077 1069
f 965 1078 966
f 965 1075 1079
f 965 1079 1080
f 965 1080 1081
f 965 1081 1078
f 966 1082 1076
f 966 1078 1082
f 967 1067 1083
f 967 1083 968
f 968 1083 971
f 970 972 971
f 970 971 1084
f 970 1084 1085
f 970 1085 983
f 971 1083 1086
f 971 1086 1087
f 971 1087 1088
f 971 1088 1084
f 973 981 974
f 974 981 975
f 975 1089 980
f 975 980 1090
f 975 1090 1091
f 975 1091 976
f 975 981 1089
f 976 1091 987
f 977 983 1092
f 977 1092 978
f 978 1092 980
f 978 980 979
f 980 1092 1093
f 980 1093 1094
f 980 1094 1000
f 980 1000 999
f 980 999 998
f 980 998 1090
f 980 1089 981
f 983 1085 1095
f 983 1095 1092
f 984 993 985
f 987 1091 998
f 987 998 997
f 987 997 996
f 990 1096 991
f 991 1096 1097
f 991 1097 992
f 992 1097 993
f 998 1091 1090
f 1000 1094 1098
f 1000 1098 1002
f 1000 1002 1001
f 1002 1014 1013
f 1002 1013 1003
f 1002 1098 1014
f 1004 1012 1006
f 1004 1006 1005
f 1006 1019 1018
f 1006 1018 1007
f 1006 1012 1019
f 1008 1017 1009
f 1009 1099 1011
f 1009 1017 1100
f 1009 1100 1099
f 1011 1101 1102
f 1011 1102 1012
f 1011 1099 1101
f 1012 1102 1019
f 1014 1098 1103
f 1014 1103 1104
f 1014 1104 1015
f 1015 1105 1106
f 1015 1106 1107
f 1015 1107 1016
f 1015 1104 1105
f 1016 1107 1108
f 1016 1108 1017
f 1017 1108 1109
f 1017 1109 1100
f 1019 1102 1110
f 1019 1110 1020
f 1020 1110 1111
f 1020 1111 1021
f 1021 1112 1022
f 1021 1111 1112
f 1022 1112 1113
f 1022 1113 1114
f 1022 1114 1115
f 1022 1115 1024
f 1022 1024 1023
f 1024 1115 1025
f 1025 1115 1116
f 1025 1116 1117
f 1025 1117 1026
f 1026 1117 1118
f 1026 1118 1028
f 1028 1118 1029
f 1030 1119 1031
f 1031 1119 1039
f 1031 1039 1032
f 1032 1039 1038
f 1034 1040 1035
f 1035 1040 1120
f 1035 1120 1116
f 1035 1116 1121
f 1035 1121 1122
f 1035 1122 1036
f 1036 1122 1041
f 1036 1041 1037
f 1039 1123 1040
f 1040 1123 1120
f 1041 1122 1124
f 1041 1124 1042
f 1042 1124 1121
f 1042 1121 1125
f 1042 1125 1126
f 1042 1126 1127
f 1042 1127 1043
f 1043 1127 1128
f 1043 1128 1044
f 1044 1128 1129
f 1044 1129 1046
f 1044 1046 1045
f 1046 1129 1130
f 1046 1130 1047
f 1047 1130 1131
f 1047 1131 1048
f 1048 1131 1049
f 1049 1131 1132
f 1049 1132 1080
f 1049 1080 1079
f 1049 1079 1075
f 1049 1075 1051
f 1051 1075 1052
f 1052 1075 1053
f 1053 1075 1074
f 1053 1074 1054
f 1055 1059 1056
f 1056 1059 1058
f 1056 1064 1134
f 1056 1134 1133
f 1062 1134 1064
f 1062 1064 1063
f 1066 1071 1067
f 1067 1071 1083
f 1069 1077 1072
f 1070 1073 1135
f 1070 1135 1071
f 1071 1135 1083
f 1072 1077 1136
f 1072 1136 1073
f 1073 1136 1137
f 1073 1137 1138
f 1073 1138 1139
f 1073 1139 1086
f 1073 1086 1135
f 1076 1082 1077
f 1077 1082 1142
f 1077 1142 1140
f 1077 1140 1141
f 1077 1141 1136
f 1078 1081 1082
f 1080 1132 1142
f 1080 1142 1082
f 1080 1082 1081
f 1083 1135 1086
f 1084 1143 1085
f 1084 1088 1143
f 1085 1143 1095
f 1086 1139 1144
f 1086 1144 1145
f 1086 1145 1146
f 1086 1146 1087
f 1087 1146 1088
f 1088 1147 1148
f 1088 1148 1143
f 1088 1146 1145
f 1088 1145 1149
f 1088 1149 1150
f 1088 1150 1151
f 1088 1151 1147
f 1092 1095 1093
f 1093 1095 1104
f 1093 1104 1103
f 1093 1103 1094
f 1094 1103 1098
f 1095 1143 1106
f 1095 1106 1104
f 1099 1100 1109
f 1099 1109 1149
f 1099 1149 1152
f 1099 1152 1101
f 1101 1152 1153
f 1101 1153 1154
f 1101 1154 1155
f 1101 1155 1102
f 1102 1155 1110
f 1104 1106 1105
f 1106 1143 1148
f 1106 1148 1107
f 1107 1151 1149
f 1107 1149 1109
f 1107 1109 1108
f 1107 1148 1151
f 1110 1156 1157
f 1110 1157 1158
f 1110 1158 1111
f 1110 1155 1156
f 1111 1158 1159
f 1111 1159 1160
f 1111 1160 1161
f 1111 1161 1112
f 1112 1161 1162
f 1112 1162 1113
f 1113 1162 1163
f 1113 1163 1114
f 1114 1125 1121
f 1114 1121 1115
f 1114 1163 1125
f 1115 1121 1116
f 1116 1120 1117
f 1117 1120 1164
f 1117 1164 1165
f 1117 1165 1118
f 1120 1123 1164
f 1121 1124 1122
f 1123 1165 1164
f 1125 1163 1126
f 1126 1163 1127
f 1127 1163 1162
f 1127 1162 1128
f 1128 1162 1166
f 1128 1166 1167
f 1128 1167 1129
f 1129 1167 1168
f 1129 1168 1169
f 1129 1169 1130
f 1130 1169 1170
f 1130 1170 1171
f 1130 1171 1131
f 1131 1171 1168
f 1131 1168 1172
f 1131 1172 1173
f 1131 1173 1174
f 1131 1174 1175
f 1131 1175 1142
f 1131 1142 1132
f 1136 1141 1137
f 1137 1176 1177
f 1137 1177 1138
f 1137 1141 1178
f 1137 1178 1179
f 1137 1179 1176
f 1138 1177 1139
f 1139 1177 1144
f 1140 1142 1141
f 1141 1142 1175
f 1141 1175 1174
f 1141 1174 1173
f 1141 1173 1178
f 1144 1177 1145
f 1145 1177 1149
f 1147 1151 1148
f 1149 1177 1176
f 1149 1176 1180
f 1149 1180 1181
f 1149 1181 1152
f 1149 1151 1150
f 1152 1179 1153
f 1152 1181 1179
f 1153 1179 1154
f 1154 1179 1182
f 1154 1182 1183
f 1154 1183 1159
f 1154 1159 1156
f 1154 1156 1155
f 1156 1159 1157
f 1157 1159 1158
f 1159 1183 1184
f 1159 1184 1160
f 1160 1184 1185
f 1160 1185 1161
f 1161 1185 1162
f 1162 1185 1167
f 1162 1167 1166
f 1167 1185 1184
f 1167 1184 1186
f 1167 1186 1168
f 1168 1186 1187
f 1168 1187 1188
f 1168 1188 1172
f 1168 1171 1170
f 1168 1170 1169
f 1172 1188 1178
f 1172 1178 1173
f 1176 1179 1180
f 1178 1188 1187
f 1178 1187 1179
f 1179 1187 1186
f 1179 1186 1182
f 1179 1181 1180
f 1182 1186 1183
f 1183 1186 1184

