# https://github.com/mikedh/trimesh
v 108.04550151 35.81564216 42.69359144
v 107.93574390 35.81564216 43.00169780
v 107.48221263 35.11546540 43.15889485
v 107.48842581 35.10544257 42.69359144
v 108.03721898 35.81564216 42.30374205
v 107.74522010 35.81564216 43.30980545
v 107.66031265 35.58081893 43.26893265
v 106.67248648 34.19907666 43.20919667
v 106.70354981 34.16328083 42.69359144
v 107.13430028 34.67445303 42.69359144
v 107.47807137 35.12262457 41.83215092
v 108.02686454 35.81564216 41.83215092
v 106.98519425 34.78470677 43.29094227
v 107.29376075 35.81564216 43.47643280
v 105.83169443 33.31132460 43.22491856
v 105.04681843 32.36773103 42.69359144
v 105.87932538 33.26407410 42.69359144
v 106.31007585 33.73229130 42.69359144
v 106.13611967 33.88979553 43.33180993
v 105.86897094 33.27552876 41.83215092
v 105.85447524 33.28841526 40.96756781
v 106.68284093 34.18332650 41.83215092
v 107.11359139 34.69163503 41.83215092
v 107.46357567 35.13837473 41.23480266
v 107.74314819 35.49920186 40.95499107
v 107.99580121 35.81564216 40.96127880
v 108.01443818 35.81564216 41.45487827
v 107.02247076 35.58081893 43.50473015
v 107.02247076 35.81564216 43.53302235
v 104.99297430 32.42787060 43.24063788
v 104.62849432 31.93817590 42.69359144
v 105.03439207 32.38921110 41.83215092
v 106.16096982 34.71740803 43.54245651
v 105.28704510 33.01350070 43.35067568
v 105.44029239 32.85742830 40.96756781
v 105.82133999 33.32421109 40.10612729
v 106.28522570 33.77810996 40.96756781
v 106.65799078 34.21053133 40.96756781
v 107.15915043 34.79759327 40.95499107
v 107.44700804 35.15842040 40.65946145
v 107.77628343 35.61947843 40.10612729
v 107.93160264 35.81564216 40.10612729
v 106.39498331 35.81564216 43.59904606
v 104.13975846 31.57305069 43.24063788
v 104.42968543 32.13577146 43.36010727
v 104.19774386 31.51864103 42.69359144
v 104.17496305 31.53152753 41.83215092
v 104.60778544 31.95965340 41.83215092
v 105.01161384 32.41641593 40.96756781
v 104.43589861 32.99202063 43.56760742
v 105.40715715 32.89465596 40.10612729
v 104.89149922 32.53669250 38.64733851
v 105.76542652 33.38721433 39.24468676
v 106.52752172 34.36087640 38.38010366
v 106.56479822 34.31648957 39.04347434
v 106.59793347 34.27926190 39.61881555
v 106.25209046 33.81963570 40.10612729
v 106.62485553 34.24919083 40.10612729
v 107.42422724 35.18848890 40.10612729
v 107.37659629 35.24433297 39.24468676
v 107.72243930 35.67531993 39.24468676
v 107.83426882 35.81564216 39.24468676
v 106.16096982 35.58081893 43.59904606
v 104.66991209 35.81564216 43.59904606
v 103.55368879 31.27952230 43.35067568
v 102.67769215 30.42899789 43.33180993
v 103.25133546 30.73255169 43.22491856
v 103.57439767 32.13004413 43.56760742
v 101.84932646 30.40608856 43.54245651
v 102.36498438 29.89491636 43.20919667
v 103.73593006 31.08478783 42.69359144
v 103.72350370 31.10053799 41.83215092
v 103.70900800 31.12344990 40.96756781
v 104.15011291 31.55300503 40.96756781
v 104.58293272 31.98542640 40.96756781
v 104.97640668 32.45364360 40.10612729
v 104.92670638 32.50089410 39.24468676
v 104.02792894 31.67614526 38.65362623
v 104.85215337 32.57964750 38.07199730
v 104.49802526 32.07133896 39.24468676
v 104.06520545 31.63891760 39.24468676
v 105.69087350 33.46596516 38.22290533
v 106.02429015 33.79386013 38.45555767
v 106.03050333 33.96138977 37.51866313
v 106.45918188 34.43533430 37.51866313
v 106.82987504 34.86632126 37.51866313
v 106.89407361 34.79186593 38.38010366
v 106.87957791 34.65011186 39.29498987
v 107.32482408 35.31306096 38.38010366
v 107.66652583 35.74548233 38.38010366
v 107.71829804 35.81564216 38.38010366
v 100.12425524 29.54268023 43.59904606
v 87.18932257 24.36938169 43.57389515
v 86.88904117 24.07155522 43.58332674
v 88.05082351 24.36938169 43.59904606
v 104.41518972 35.81564216 43.55188810
v 86.88904117 24.36938169 43.53616878
v 101.78098662 29.58133973 43.29094227
v 100.98575617 29.54268023 43.50473015
v 99.26896748 27.79008543 43.38211432
v 99.25861304 28.67926933 43.59590220
v 98.39918402 27.82015649 43.56446356
v 99.93787270 28.05784339 43.28150811
v 101.45171123 29.08448586 43.15889485
v 102.40226089 29.86341603 42.69359144
v 102.83301135 30.25574349 42.69359144
v 103.29275323 30.69961953 41.83215092
v 103.27825753 30.71393786 40.96756781
v 103.24098102 30.74543819 40.10612729
v 103.67173149 31.15924573 40.10612729
v 104.11283640 31.58880343 40.10612729
v 103.56611514 31.27379496 38.43355063
v 103.98443925 31.71623659 38.07828502
v 103.18092371 30.80271410 39.24468676
v 104.37170003 32.19734029 37.51866313
v 104.80245050 32.63119350 37.51866313
v 105.20213764 33.06218303 37.51866313
v 105.55005000 33.61917390 36.65722261
v 105.94559587 34.05159526 36.65722261
v 106.37427442 34.53556263 36.65722261
v 107.26062551 35.39754170 37.51866313
v 106.74496758 34.96798400 36.65722261
v 107.17778997 35.49633820 36.65722261
v 107.58990089 35.81564216 37.51866313
v 96.67825407 26.95674559 43.59904606
v 86.88904117 23.50740262 43.59904606
v 103.69865355 35.81564216 43.41040909
v 86.88904117 24.79893939 43.38211432
v 97.53354183 26.95674559 43.49215212
v 96.68446468 26.06183693 43.37897045
v 98.98732305 27.28034506 43.23749401
v 95.81468122 26.09620093 43.56131969
v 97.98500118 26.51430139 43.14003167
v 99.48641335 27.53951203 42.69359144
v 100.05384349 27.97050156 42.69359144
v 101.46206568 29.07589486 42.69359144
v 101.89281614 29.43242650 42.69359144
v 101.87624852 29.45247216 41.83215092
v 102.38155200 29.88489353 41.83215092
v 102.78538040 30.28151649 40.96756781
v 102.74810390 30.31444866 40.10612729
v 102.25315486 29.99657653 39.04033048
v 102.20966517 30.03667043 38.38010366
v 103.14571912 30.83421443 38.79196010
v 103.10222943 30.87573760 38.21976147
v 103.03803086 30.93301093 37.51866313
v 103.50191657 31.36543230 37.51866313
v 103.93059512 31.76778516 37.51866313
v 102.77295405 30.53925163 38.45555767
v 103.84154640 31.85512700 36.65722261
v 104.28057940 32.28754836 36.65722261
v 104.71132986 32.72283340 36.65722261
v 105.11929953 33.15382036 36.65722261
v 105.46100128 33.71940480 35.79578337
v 105.85240332 34.15039433 35.79578337
v 106.28315379 34.65011186 35.79578337
v 107.43251234 35.81564216 36.65722261
v 107.58368771 35.81564216 37.48407935
v 106.64970568 35.07966957 35.79578337
v 107.24612980 35.81564216 35.72032807
v 88.05082351 22.64399429 43.59904606
v 92.36246687 24.36938169 43.58647061
v 94.08961000 25.23135819 43.58018288
v 86.88904117 22.64399429 43.59904606
v 103.59717847 35.81564216 43.37268273
v 86.88904117 24.97792113 43.30037129
v 95.81468122 25.40890809 43.32552220
v 96.40282024 25.56784416 43.23434758
v 93.22603844 24.36938169 43.47328894
v 96.47116265 25.52632099 42.69359144
v 96.90191055 25.79694263 42.69359144
v 97.98500118 26.51286956 42.69359144
v 98.41782099 26.80067319 42.69359144
v 99.05566288 27.23166273 42.69359144
v 99.02874082 27.24454923 41.83215092
v 99.45949128 27.55812586 41.83215092
v 100.01863890 28.01202473 40.96756781
v 100.44731745 28.33132869 40.96756781
v 100.47009825 28.31701036 41.83215092
v 100.98575617 28.72079249 41.83215092
v 101.44549805 29.08878136 41.83215092
v 101.43100235 29.10166786 41.20650660
v 102.35462994 29.90923470 40.96756781
v 101.41029346 29.11741803 40.63430926
v 102.31735343 29.94073503 40.10612729
v 101.77891470 29.67297706 38.38010366
v 101.38129948 29.14032736 40.10612729
v 102.13097089 30.10253476 37.51866313
v 102.60520848 30.53495613 37.51866313
v 102.51409041 30.62086613 36.65722261
v 102.94483831 31.01749166 36.65722261
v 103.41079594 31.44848120 36.65722261
v 103.31553404 31.53439120 35.79578337
v 103.74628450 31.95678973 35.79578337
v 104.17703240 32.38634743 35.79578337
v 104.60985478 32.82162990 35.79578337
v 105.03025081 33.25405126 35.79578337
v 104.92670638 33.36287316 34.93119898
v 105.77992222 34.22914516 35.16385133
v 106.59793347 35.14123840 35.33676640
v 106.85265584 35.53929577 35.00350913
v 107.07424297 35.81564216 34.97207049
v 86.88904117 22.34616782 43.58332674
v 86.88904117 21.73906022 43.43870644
v 88.91232444 22.64399429 43.53616878
v 90.63739566 23.50740262 43.57389515
v 103.14157786 35.81564216 42.82878144
v 86.89111180 35.81564216 19.09516319
v 86.88904117 25.15260736 42.87908455
v 94.75230204 24.67150366 43.25950106
v 93.66507272 23.93409666 43.13059750
v 90.63739566 22.82154419 43.33809765
v 92.36246687 23.63913386 43.35067568
v 94.00677318 24.37797269 43.30351772
v 94.85999030 24.61136409 42.69359144
v 95.27624378 24.85907639 41.83215092
v 95.25553489 24.87053106 40.96756781
v 95.81468122 25.20272152 40.96756781
v 96.44009675 25.54350299 41.83215092
v 96.87084722 25.80839729 41.83215092
v 97.95186593 26.53578146 40.81351463
v 97.96843356 26.52719046 41.38885584
v 98.99767749 27.26459489 40.96756781
v 99.42842796 27.57960336 40.96756781
v 99.97514921 28.04352506 40.10612729
v 100.40589968 28.36139719 40.10612729
v 101.06859172 28.82245523 40.93927175
v 100.94847710 28.79095489 40.10612729
v 101.25083299 29.24342193 38.38010366
v 101.17006679 29.30642259 37.51866313
v 101.70022043 29.74027580 37.51866313
v 101.31917282 29.18757786 39.24468676
v 101.59874535 29.82045846 36.65722261
v 102.02949581 30.19131100 36.65722261
v 102.41675659 30.71680153 35.79578337
v 102.84750706 31.10340166 35.79578337
v 103.20784578 31.63605393 34.93119898
v 104.06934671 32.49659860 34.93119898
v 104.87079034 33.42157833 34.49419035
v 105.70536921 34.31362590 34.58850883
v 106.15475664 34.72599903 34.96263890
v 106.52959363 35.22428730 34.76142648
v 106.84022948 35.81564216 34.06975845
v 88.05082351 21.89513262 43.36010727
v 86.88904117 21.50853249 43.34753182
v 88.91232444 22.04690952 43.30037129
v 86.89111180 35.81564216 11.48682455
v 86.88904117 27.24741289 32.86877293
v 86.88904117 25.19269869 42.69359144
v 93.22603844 23.83386576 43.23434758
v 89.49839283 22.15573142 43.20290894
v 91.43469802 22.90888859 42.69359144
v 93.66507272 23.93409666 43.04885705
v 91.32079787 22.96043459 43.25321333
v 94.84549331 24.61995509 41.83215092
v 94.82478443 24.63713966 40.96756781
v 94.77508284 24.66577633 40.10612729
v 95.20376139 24.90059956 40.10612729
v 95.81468122 25.26429293 40.10612729
v 96.35726121 25.59505156 40.10612729
v 96.79008359 25.85994329 40.10612729
v 96.83771454 25.82987479 40.96756781
v 97.47969770 26.29093283 40.10612729
v 97.91044816 26.56441813 40.10612729
v 98.39918402 26.90376776 40.10612729
v 98.95418780 27.29752706 40.10612729
v 99.32695288 27.65549309 39.24468676
v 99.91301998 28.08504823 39.24468676
v 100.34584237 28.41294319 39.24468676
v 100.88842236 28.84106906 39.24468676
v 100.82008252 28.89977680 38.38010366
v 99.76391652 28.19387013 37.51866313
v 100.63991316 29.04152829 36.65722261
v 100.51151602 29.14462286 35.54741170
v 101.48898774 29.91353020 35.79578337
v 101.91973821 30.28438016 35.79578337
v 102.33392105 30.78696136 35.17328292
v 102.65698326 31.14635923 34.90290292
v 103.14571912 31.69332726 34.48790262
v 103.92024068 32.64551183 33.91570527
v 103.81048307 32.75576556 33.20831921
v 104.23502036 33.18675510 33.20831921
v 104.78174162 33.51751373 33.91885042
v 105.13586715 33.82536303 34.15150148
v 105.63081619 34.39810406 34.06975845
v 106.00150935 34.83052543 34.06975845
v 106.43433173 35.33597030 34.06975845
v 105.87932538 34.97657500 33.20831921
v 105.78820475 35.08396250 32.58581876
v 106.50474091 35.81564216 32.94422695
v 86.88904117 21.26368386 43.23434758
v 86.98637370 21.27943402 43.22177212
v 87.93485272 35.81564216 11.92383190
v 87.13547973 35.56077070 11.80750636
v 86.89111180 35.57079610 11.69746856
v 86.88904117 22.47503539 32.86877293
v 87.51445670 21.39111959 42.69359144
v 88.05082351 21.58155599 42.69359144
v 88.91232444 21.89083712 42.69359144
v 89.56259140 22.13139026 42.69359144
v 89.99334059 22.30464466 42.69359144
v 90.63739566 22.56810456 42.69359144
v 90.63739566 22.58815279 41.83215092
v 91.41605977 22.92177509 41.83215092
v 91.84680895 23.11364332 41.83215092
v 92.36246687 23.35419389 41.83215092
v 91.81988817 23.12366616 40.96756781
v 92.36246687 23.38283313 40.96756781
v 93.13698972 23.76370592 40.96756781
v 93.63815065 23.94698316 42.47351584
v 94.08961000 24.25053696 40.96756781
v 94.08961000 24.30781029 40.10612729
v 94.08961000 24.38656369 39.24468676
v 94.69017539 24.70586766 39.24468676
v 95.12299649 24.94928446 39.24468676
v 96.25992739 25.65518856 38.74480085
v 96.29720390 25.63371106 39.24468676
v 96.72795437 25.90003719 39.24468676
v 97.40721403 26.33102416 39.24468676
v 97.33266101 26.37827723 38.38010366
v 97.83589515 26.61310046 39.24468676
v 98.85478464 27.37198496 38.67563328
v 98.89620241 27.34191646 39.24468676
v 99.19027321 27.64976576 38.38639139
v 99.84675207 28.13230130 38.38010366
v 100.27750253 28.47165093 38.38010366
v 98.80094051 27.40634896 38.10343593
v 99.25861304 27.82874749 37.51866313
v 99.70592856 28.23825696 37.03135268
v 99.62930620 28.29839653 36.45601019
v 99.53404430 28.36569269 35.79578337
v 99.10536575 28.04782056 35.79578337
v 99.98550365 28.88975139 34.93119898
v 100.41625412 29.21908076 34.93119898
v 101.02717394 29.71020730 34.99722140
v 101.42478917 29.96364436 35.33047868
v 102.24901359 30.86141926 34.59794042
v 102.16410614 30.93587459 34.06975845
v 102.74189072 31.42986736 34.14835762
v 102.02535455 31.06760583 33.20831921
v 102.43539356 31.55443686 32.86877293
v 102.56379071 31.67328160 32.86877293
v 102.92620134 31.90094823 33.20831921
v 103.23476784 32.47368926 32.34373483
v 103.37973261 32.33050336 33.20831921
v 103.75456703 32.81017523 32.86877293
v 104.18117623 33.24259660 32.86877293
v 104.09626878 33.32850917 32.34373483
v 104.66784018 33.63778773 33.20831921
v 105.49827778 34.54558546 33.20831921
v 105.69708411 35.18562523 32.01047691
v 106.15061538 35.59227360 32.38146248
v 106.48196011 35.81564216 32.86877293
v 86.88904117 21.23934269 43.14317553
v 87.08370623 21.24650186 42.69359144
v 88.05082351 35.81564216 11.97413500
v 87.38813147 35.25865130 12.17849129
v 86.89111180 35.22571656 11.99614205
v 86.89111180 35.03098466 12.16905970
v 86.89111180 34.25491816 12.86701416
v 86.89111180 34.21196316 12.90788568
v 86.89111180 33.35857766 13.74731787
v 86.89111180 32.49373493 14.61818999
v 86.89111180 31.76348966 15.41989582
v 86.89111180 31.62030376 15.58338059
v 86.89111180 30.75259736 16.60830589
v 86.89111180 30.09680743 17.41001043
v 86.89111180 29.78036713 17.82501073
v 86.89111180 29.30928626 18.46323114
v 86.89111180 29.05584663 18.81220838
v 86.89111180 29.02434629 18.85622376
v 86.89111180 28.84106906 19.11402701
v 86.89111180 28.28980553 19.90001224
v 86.89111180 28.00772923 20.33073250
v 86.89111180 27.55669403 21.03811920
v 86.89111180 27.31041356 21.43740018
v 86.89111180 26.98824592 21.97815825
v 86.89111180 26.70330853 22.46232516
v 86.89111180 26.62455513 22.59751484
v 86.89111180 26.38257273 23.01880286
v 86.89111180 26.00456103 23.71675797
v 86.89111180 25.63371106 24.43043272
v 86.89111180 25.30724793 25.10638047
v 86.89111180 25.14401636 25.44906997
v 86.89111180 24.85621273 26.06842656
v 86.89111180 24.75454999 26.30107826
v 86.89111180 24.39372286 27.14051046
v 86.89111180 24.06725972 27.92020860
v 86.89111180 23.89686899 28.33520890
v 86.89111180 23.70213709 28.89797401
v 86.89111180 23.40717429 29.75627067
v 86.89111180 23.16948482 30.47623347
v 86.89111180 23.03489249 30.91009695
v 86.89111180 22.85877443 31.49172589
v 86.89111180 22.69697469 32.04506005
v 86.89111180 22.60533479 32.36574187
v 86.88904117 22.38625916 33.20831921
v 87.46682575 21.39971059 41.83215092
v 88.05082351 21.60016982 41.83215092
v 88.91232444 21.90658729 41.83215092
v 89.53152679 22.13998126 41.83215092
v 89.96641981 22.30894016 41.83215092
v 90.63739566 22.62538046 40.96756781
v 91.38706707 22.94038892 40.96756781
v 91.32493913 22.96759376 40.10612729
v 91.75568960 23.15087099 40.10612729
v 92.36246687 23.43724279 40.10612729
v 93.07900304 23.79234259 40.10612729
v 93.43520049 24.04864589 39.24468676
v 93.34822240 24.08873722 38.38010366
v 94.08961000 24.47677176 38.38010366
v 94.59905475 24.75598182 38.38010366
v 95.02980522 24.99939863 38.38010366
v 96.20194200 25.68812072 38.17260351
v 96.59955722 25.90576453 38.42726162
v 97.23739911 26.43841423 37.51866313
v 98.73674194 27.45216763 37.51866313
v 99.31038526 28.01345656 36.70752571
v 98.51515481 27.61683103 35.79578337
v 98.00571006 27.36053029 35.24873693
v 99.40564716 28.46305993 34.93119898
v 98.87549352 28.21534763 34.36528936
v 99.83846954 29.00000513 34.06975845
v 100.26714809 29.33649109 34.06975845
v 100.79937364 29.77034429 34.06975845
v 101.23012410 30.13117143 34.06975845
v 101.33988171 30.03953410 34.75513875
v 101.73335567 30.56359280 34.06975845
v 101.59046282 30.68530120 33.20831921
v 101.53454677 30.73398353 32.86877293
v 101.48484648 30.77550669 32.58267490
v 102.27386374 31.40552363 32.86877293
v 102.37326691 31.61171276 32.51979505
v 103.15400165 32.54957643 31.88471915
v 103.66551831 32.89751963 32.34373483
v 104.01757193 33.41012366 31.87843142
v 104.95362588 34.19334933 32.51350733
v 106.30386267 35.81564216 32.29343172
v 104.85629463 34.29644390 31.94130998
v 105.16485856 34.82479810 31.47915044
v 105.59561160 35.30303813 31.47915044
v 105.95801966 35.73402767 31.47915044
v 106.39291139 35.81564216 32.57953104
v 86.88904117 21.18779669 42.69359144
v 86.88904117 21.19352402 42.47351584
v 86.88904117 21.21500152 41.83215092
v 87.03400465 21.26082019 41.83215092
v 88.68452413 35.81564216 12.26337818
v 88.05082351 35.41901920 12.32940060
v 88.05082351 34.95366567 12.76012022
v 87.45233004 34.37089923 13.02106734
v 88.63482127 34.21053133 13.72845469
v 88.05082351 34.06877726 13.59012083
v 88.05082351 33.63635590 14.01769658
v 88.05082351 33.20823260 14.44841749
v 87.46061257 32.63692083 14.74394840
v 87.14376354 32.14865796 15.11807718
v 87.40469909 31.79642183 15.63997142
v 87.85408653 30.72539253 17.12391176
v 87.18932257 30.95019293 16.52341899
v 87.18932257 30.58650213 16.95413926
v 87.18932257 30.15551259 17.48546509
v 87.18932257 29.82332213 17.91618535
v 87.22245782 29.35796859 18.57012508
v 87.53102432 29.14605469 19.02599690
v 87.22245782 28.79668223 19.35296644
v 87.18932257 28.34564703 19.98489913
v 87.18932257 28.06213889 20.41561875
v 87.79817305 28.17955179 20.59167962
v 87.21210337 27.60680819 21.15130151
v 87.51445670 27.42925829 21.62918037
v 88.05082351 27.26745856 22.22967345
v 87.21210337 27.12284083 21.94986283
v 87.18932257 26.67753296 22.69183300
v 87.64699510 26.51573322 23.27031839
v 87.18932257 26.11195109 23.71990184
v 87.18932257 25.77546513 24.37069803
v 87.66977591 25.64373389 24.97747884
v 87.18932257 25.55782132 24.80141797
v 87.18932257 25.24424469 25.44592611
v 87.27008877 24.89630406 26.26335094
v 87.03607528 24.70586766 26.52115419
v 87.61179051 24.80323489 26.74751785
v 87.17689878 24.11880572 28.04596572
v 88.50021223 24.79464389 27.58380682
v 88.83777143 24.71732232 28.09626882
v 89.37620887 24.78748473 28.42952674
v 87.45854322 23.99853173 28.62130757
v 87.74639955 23.89114166 29.19979264
v 88.04046906 23.79234259 29.76570226
v 87.17689878 23.79663809 28.90426238
v 87.18932257 23.50597336 29.75627067
v 88.05082351 23.51312996 30.61771055
v 87.18104005 23.21960156 30.62085442
v 87.46268448 23.12652982 31.22134718
v 87.18104005 22.95184359 31.49801426
v 87.18932257 22.70699496 32.34373483
v 87.18932257 22.48219456 33.20831921
v 86.88904117 22.25023242 33.79309202
v 86.97394862 21.27943402 40.96756781
v 88.05082351 21.63167273 40.96756781
v 88.91232444 21.93236029 40.96756781
v 89.49425028 22.15286776 40.96756781
v 89.42591045 22.17864076 40.10612729
v 90.63739566 22.68122196 40.10612729
v 90.63739566 22.75567986 39.24468676
v 91.22967723 23.00482142 39.24468676
v 91.13027278 23.04777642 38.38010366
v 91.66249833 23.19812149 39.24468676
v 92.36246687 23.52458719 39.24468676
v 92.91954385 23.87968699 38.38010366
v 93.00652194 23.83386576 39.24468676
v 92.84499084 23.91548282 37.79847344
v 93.16805305 24.11594206 37.51551927
v 94.13931159 24.61422776 37.55639078
v 94.54313999 24.78891656 37.86764101
v 95.68628408 25.49052516 37.51866313
v 96.11703454 25.73823746 37.51866313
v 96.67825407 26.08331443 37.51866313
v 97.15663292 26.49139206 36.90873814
v 98.08440434 27.30611806 35.79578337
v 98.19623386 27.23309456 36.65722261
v 98.62698433 27.53235286 36.65722261
v 96.84599707 26.68899019 34.93119898
v 97.58117278 27.15720740 34.95006216
v 97.90009115 27.43355379 34.67339572
v 98.77609036 28.29123736 33.78994815
v 97.53354183 26.94672276 35.79578337
v 96.99303118 26.59591846 35.79578337
v 99.20062765 28.52892426 34.07604618
v 99.31038526 28.83677356 33.22089467
v 99.73699446 29.07732670 33.51956944
v 99.62930620 29.16037303 32.94422695
v 100.56536015 29.96650803 32.74930354
v 100.58606903 29.94789419 32.86877293
v 100.64819569 29.89778003 33.20831921
v 101.07894616 30.25287983 33.20831921
v 100.97332981 30.41611139 32.37831861
v 101.37922756 30.86714660 32.00733240
v 102.26765056 31.70907743 31.94130998
v 102.17238866 31.79928550 31.47915044
v 102.33392105 32.50948510 30.06123317
v 103.03181768 32.66842116 31.30937794
v 103.52676672 33.03927370 31.59547597
v 104.76724591 34.39380856 31.47915044
v 103.89953180 33.53326390 31.30309021
v 104.05485100 34.23344066 30.06752090
v 104.16460861 34.11316410 30.61771055
v 106.02221823 35.81564216 31.47915044
v 104.59535908 34.58138130 30.61771055
v 104.89149922 35.12119273 30.12411173
v 105.47342506 35.59513727 30.55797521
v 105.73436062 35.81564216 30.74032445
v 105.89175174 35.81564216 31.13960479
v 86.88904117 21.22216069 41.65609069
v 86.88904117 21.25222919 40.96756781
v 88.58926223 35.09112423 12.88902250
v 89.77589472 35.81564216 12.83871939
v 89.77589472 34.95223383 13.62470461
v 89.21053650 34.35801273 13.86993242
v 88.05082351 34.52267613 13.15940121
v 88.92060697 33.85113603 14.22834188
v 88.63275063 33.34998666 14.58675007
v 88.05082351 32.77724306 14.89800029
v 88.05082351 32.38062010 15.33186506
v 88.58719032 32.50948510 15.47334279
v 88.05082351 31.94963056 15.81288779
v 88.52506366 31.67900893 16.36936581
v 88.05082351 31.57018703 16.24360869
v 88.42980176 30.85998743 17.28425266
v 88.07567494 30.39320206 17.66781369
v 87.71947749 29.92928036 18.05766243
v 89.09870698 31.81360383 16.52656286
v 88.05082351 29.25774026 19.17690557
v 88.05082351 28.94559546 19.61076970
v 88.07153239 28.49026476 20.29300549
v 88.36974445 28.29839653 20.77717208
v 88.53955937 27.36339396 22.38687050
v 87.98041304 26.83503976 22.93391661
v 88.22271034 26.62598696 23.48410627
v 88.59961668 26.47993739 24.05944780
v 88.24548985 25.75685129 25.20069863
v 87.99491003 25.52488916 25.47107766
v 88.05082351 25.15976653 26.30736599
v 88.05082351 24.88771306 26.94873027
v 88.83777143 25.06955846 27.24740504
v 89.07385554 24.90489506 27.85418553
v 90.00576695 24.88628122 28.89168628
v 89.57501648 24.70443583 28.89168628
v 88.59754476 23.89114166 30.05808866
v 88.32211350 23.99853173 29.48274745
v 89.70962680 25.06383112 28.09626882
v 88.89575682 23.81525192 30.66486915
v 88.91439507 23.57899686 31.47915044
v 88.01976018 23.24107906 31.49801426
v 87.71326559 23.04204909 31.79668839
v 88.01976018 22.98334392 32.41604498
v 88.05082351 22.79004386 33.20831921
v 88.05082351 22.58672096 34.06975845
v 87.19553575 22.30464466 34.00687989
v 88.03839843 22.87309276 32.86877293
v 86.88904117 22.16861792 34.17665239
v 86.89111180 21.30807069 40.10612729
v 87.32186226 21.44696109 40.10612729
v 88.05082351 21.68465056 40.10612729
v 88.91232444 21.98534069 40.10612729
v 89.37206632 22.20155009 39.57794532
v 90.63739566 22.83586252 38.38010366
v 91.07642994 23.07498383 37.93680730
v 92.36246687 23.61908819 38.38010366
v 91.41605977 23.28260222 37.59726101
v 92.75179957 23.95843782 37.22313223
v 92.65860830 24.00569089 36.65722261
v 93.22603844 24.28919646 36.65722261
v 93.93222016 24.65575349 36.65722261
v 94.36297063 24.88341756 36.65722261
v 94.46444571 24.83330339 37.29229852
v 94.95318157 25.20701702 36.65722261
v 95.56410011 25.55638949 36.65722261
v 95.46469695 25.61509723 35.96241200
v 95.99899184 25.81412463 36.65722261
v 96.74245007 26.28090999 36.63521556
v 97.07793864 26.54723613 36.33339693
v 95.37357631 25.66807506 35.38707080
v 96.41524660 26.42123223 34.93119898
v 96.30341708 26.48852839 34.34957004
v 96.62647929 26.75915003 34.06347073
v 97.35336990 27.22736723 34.06975845
v 97.21462088 27.31900713 33.38123558
v 97.78205102 27.51660269 34.06975845
v 98.23351037 28.06500256 33.20831921
v 98.66426084 28.36569269 33.20831921
v 96.56228072 26.32672866 35.79578337
v 99.21512335 28.86970573 32.86877293
v 99.07637177 28.92125430 32.34373483
v 99.50712223 29.25630843 32.34373483
v 100.44731745 30.05814793 32.17396168
v 100.29613950 30.17985633 31.47915044
v 100.82836505 30.61084329 31.47915044
v 101.26118743 30.97024116 31.47915044
v 101.55318631 31.57591436 30.61771055
v 101.73956885 31.40265996 31.47915044
v 103.32174721 33.24546026 30.61771055
v 101.82447631 32.15008980 29.80657378
v 102.20759325 32.62976166 29.48589132
v 103.75249511 33.68217713 30.61771055
v 104.41311780 34.74031736 29.80971764
v 103.93266447 34.36087640 29.49217969
v 104.77345652 35.25865130 29.55191438
v 105.13586715 35.56077070 29.80657378
v 105.59353968 35.81564216 30.39449044
v 86.88904117 21.30807069 40.09669570
v 89.92293012 35.81564216 12.91731727
v 90.28533947 35.10257890 13.75989333
v 89.77589472 34.52124430 14.02712946
v 89.77589472 34.08166376 14.46099294
v 89.20846458 33.49173816 14.73765938
v 89.16290555 32.65123916 15.62739597
v 89.59779728 31.57305069 17.09876020
v 88.91439507 30.97596850 17.42887425
v 88.91439507 30.63805070 17.86273838
v 88.29312080 30.05957976 18.23372330
v 89.33893236 29.97653086 18.98512538
v 88.76321841 29.84766329 18.80592065
v 88.59133158 29.06157653 19.77425511
v 89.77589472 32.41498410 16.23103195
v 89.84216521 31.93817590 16.81580539
v 88.89161556 28.87256939 20.26156557
v 88.91439507 28.42010236 20.96895291
v 88.91439507 28.14661963 21.39967253
v 89.69720044 28.10366206 22.02846135
v 90.32675852 28.19530196 22.33656739
v 89.11527460 27.49082970 22.60380256
v 88.86262157 27.22307173 22.88046932
v 88.89575682 26.76344553 23.75134144
v 89.17325999 26.59735029 24.28895532
v 88.89575682 26.33531966 24.57819818
v 88.59961668 25.61509723 25.77604016
v 89.53152679 26.44986889 24.86744071
v 88.89575682 25.49482066 26.31994209
v 89.76968283 25.48336599 27.17509424
v 90.63946757 25.16835753 28.89168628
v 90.19422012 24.80609856 29.33812651
v 89.85459028 24.54549976 29.67767151
v 89.17325999 24.01141823 30.41021040
v 90.33918360 25.60364256 27.46748065
v 90.62911313 25.49338883 28.05225409
v 89.39484712 23.91834649 30.98555161
v 89.57915774 23.84245933 31.47915044
v 89.84837839 23.71502359 32.27771176
v 88.83777143 23.28832956 32.41604498
v 88.28897826 23.14800732 32.17710555
v 88.50021223 23.06925649 32.74930354
v 89.08213936 23.17234849 33.20831921
v 89.26437935 23.10505232 33.76479596
v 88.95167158 22.92034326 34.06032686
v 88.91232444 22.70413129 34.93119898
v 87.99697938 22.36907716 34.96892663
v 87.67184654 22.19582276 35.28017686
v 86.88904117 22.00825002 34.95635118
v 86.88904117 21.36248292 39.39559608
v 87.13547973 21.45841575 39.20067138
v 88.05082351 21.76196956 39.24468676
v 88.96409665 22.08556902 39.27298282
v 88.05082351 21.84931396 38.38010366
v 88.76114649 22.11134459 38.38010366
v 89.19189696 22.27028066 38.38010366
v 89.77589472 22.48792189 38.38010366
v 90.66845898 22.94754809 37.59726101
v 90.97495486 23.11507516 37.36146609
v 92.22578720 23.79950176 36.65722261
v 92.08082243 23.86680049 35.79578337
v 92.51157290 24.08014622 35.79578337
v 93.22603844 24.44670069 35.79578337
v 94.21593523 24.95930729 35.79578337
v 95.03187585 25.41463542 35.72347193
v 95.77740471 25.85278412 35.72347193
v 94.84963586 25.47907049 34.93119898
v 95.27831441 25.72391656 34.93119898
v 96.07561677 26.62598696 33.20831921
v 96.19158756 26.55869079 33.77422755
v 96.75487643 27.08131766 33.13915164
v 97.17734437 27.43212196 32.86877293
v 98.16517054 28.11511930 32.86877293
v 98.56485511 28.39432936 32.86877293
v 98.38675766 28.44730976 32.26827952
v 98.93347892 29.03150546 31.69293831
v 99.86538903 29.83620863 31.47915044
v 99.60859731 30.03810226 30.36305116
v 100.67097649 30.73827903 30.80320302
v 100.53636617 30.85282826 30.22471794
v 101.44342614 31.67471343 30.13039946
v 103.19749133 33.36716866 30.05808866
v 103.56611514 33.86402253 29.77513385
v 101.30674647 31.79212633 29.55505825
v 101.62566741 32.37202653 28.89168628
v 102.05641788 32.77437940 28.89168628
v 102.49545087 33.20536893 28.89168628
v 102.92827326 33.63778773 28.89168628
v 103.07116611 33.49460183 29.48589132
v 103.35695181 34.06877726 28.89168628
v 103.78977419 34.50835780 28.89168628
v 104.19360259 34.93934476 28.89168628
v 104.62435049 35.43047387 28.89168628
v 104.95362588 35.81564216 28.89168628
v 105.34295857 35.81564216 29.78456609
v 90.39509964 35.81564216 13.17197666
v 90.55041757 35.63379676 13.42034833
v 90.86105470 35.27440147 13.92652325
v 91.19861390 35.81564216 13.61527302
v 90.29569519 34.23200883 14.61190226
v 89.77589472 33.64924497 14.90428930
v 90.24599361 32.53812176 16.36622195
v 90.17351123 31.71623659 17.27482107
v 90.05339790 30.91296526 18.21171561
v 89.47768395 30.77264303 18.03565474
v 89.76968283 30.53638796 18.51982198
v 89.77589472 30.07819360 19.12031474
v 89.77589472 29.76748063 19.55417887
v 89.16497490 29.19473703 19.96603530
v 89.57501648 29.00286879 20.54137651
v 89.75311521 28.68929216 21.15130151
v 89.93121393 28.37571553 21.76437037
v 89.35757061 28.24541613 21.56001408
v 90.62497058 28.53178793 22.02846135
v 90.90247247 28.33276053 22.57236328
v 90.62497058 28.04066139 22.85846196
v 90.05339790 27.45932679 23.41808352
v 89.47768395 27.32616630 23.18228796
v 89.80074616 26.71476319 24.57819818
v 90.10517011 26.56871363 25.10323660
v 89.17532934 25.73680563 26.03698728
v 89.47768395 25.60650623 26.61547235
v 90.05339790 25.72964389 26.88899525
v 91.46990261 25.53348016 28.95142098
v 91.50096722 25.24424469 29.75627067
v 91.00601947 24.82900789 30.26873332
v 90.68502661 24.90059956 29.67767151
v 91.16133739 25.61939273 28.35407208
v 90.43030423 24.70729949 29.91346772
v 90.67467216 26.28663733 26.27592671
v 90.98530930 26.56728179 25.96467649
v 91.25866992 26.43841423 26.54001770
v 91.52788929 26.29522833 27.14679883
v 92.09946197 26.44414156 27.41717754
v 90.91282691 25.73680563 27.77873087
v 91.46990261 25.88571629 28.05225409
v 90.00990821 24.02144106 31.47915044
v 90.68502661 24.59275026 30.58312741
v 90.18179504 23.94984682 31.94759771
v 90.37853202 23.86107316 32.51979505
v 89.77589472 23.43724279 33.20831921
v 89.43626489 23.03918542 34.34013845
v 89.58951347 22.97332109 34.93119898
v 88.91232444 22.53946789 35.79578337
v 88.24134731 22.29318999 35.79578337
v 87.80852749 22.14857226 35.79578337
v 87.18932257 21.94668119 35.79578337
v 86.88904117 21.84931396 35.79578337
v 86.88904117 21.39541509 39.00574797
v 87.18932257 21.55148749 38.38010366
v 87.18932257 21.65744572 37.51866313
v 88.05082351 21.95813586 37.51866313
v 89.04279093 22.32325849 37.51866313
v 89.77589472 22.59960746 37.51866313
v 90.40752343 22.99050309 36.65722261
v 90.83827390 23.17234849 36.65722261
v 91.50096722 23.60763352 35.79578337
v 91.98348990 23.91261916 35.25816852
v 93.68992286 24.78461849 35.28646458
v 94.02334080 25.02660346 34.97207049
v 94.08961000 25.27002026 34.06975845
v 94.66325332 25.58502873 34.06975845
v 95.09193187 25.82987479 34.06975845
v 95.64486630 26.37254989 33.20831921
v 95.57031329 26.41836856 32.86877293
v 95.49783219 26.45989173 32.55752270
v 95.97414169 26.66035096 32.86877293
v 96.55607011 27.18011673 32.34373483
v 96.68653660 27.11424983 32.86877293
v 97.10900197 27.38773513 32.86877293
v 96.98681800 27.46934962 32.34373483
v 97.95807911 28.25687079 31.92873452
v 98.09061752 28.16809713 32.50721960
v 98.46338003 28.78379573 31.43513506
v 98.79472733 29.13746369 31.12074097
v 99.02666890 29.82618579 29.75627067
v 99.45535002 30.15408076 29.75627067
v 99.99171683 30.58507029 29.75627067
v 100.42246730 30.94876109 29.75627067
v 99.82190192 30.72396070 29.08975484
v 101.13485963 31.94103956 28.89168628
v 101.47863330 32.50518960 28.35092822
v 101.84104136 33.00347529 28.04911023
v 102.19931073 33.50032916 27.74729159
v 102.35255802 33.35141850 28.32263280
v 103.21613087 34.21339500 28.32263280
v 104.06313353 35.08539690 28.34778435
v 104.40483528 35.62091026 28.09941333
v 104.65541382 35.81564216 28.27232969
v 91.35600374 35.81564216 13.70644636
v 91.78675421 35.81564216 13.96110575
v 91.62108056 35.50349736 14.16231817
v 91.91722070 35.15985223 14.67478082
v 91.92136196 34.29358023 15.53622135
v 90.85484152 33.54758223 15.65883460
v 90.27912757 33.38291883 15.48591824
v 91.31872723 33.27839243 16.23417581
v 91.89237055 33.44735133 16.41652505
v 90.82170628 32.70421956 16.55485892
v 90.57733963 32.32191236 16.83466922
v 91.25038740 32.45650726 17.13019948
v 90.63946757 31.84939966 17.43516198
v 91.74326452 31.80644466 18.24944327
v 91.16754929 31.64464493 18.05137471
v 91.47404516 31.42270563 18.53868580
v 91.06400486 30.83994176 18.98512538
v 90.48828963 30.68530120 18.78705682
v 90.34332614 29.90493920 19.74281519
v 89.82766822 29.30785443 20.26156557
v 90.15073171 29.13889553 20.74573280
v 90.63946757 28.97280029 21.35565780
v 91.11370644 29.09021320 21.53171867
v 91.50925103 28.48310559 22.85846196
v 91.80124991 28.31987403 23.40865161
v 91.22553468 28.17239263 23.14770449
v 90.96667104 27.43928113 24.24179640
v 90.39302773 27.30039073 23.99342473
v 91.44091120 28.94416363 22.03474908
v 92.02076641 29.06300836 22.34914317
v 89.76968283 27.16866206 23.71361411
v 90.67467216 26.68469469 25.41134264
v 90.40959535 26.43411873 25.67857781
v 90.66224709 27.12427266 24.55304663
v 91.27937881 27.28034506 24.81713761
v 89.76968283 25.86423879 26.31994209
v 91.73705134 25.75541946 28.70304996
v 91.96899291 25.64659756 29.27839117
v 92.14295038 25.55495766 29.75627067
v 91.50303785 24.95357996 30.58312741
v 91.21725215 24.73450432 30.84721839
v 91.54031436 27.11568166 25.40819878
v 91.52788929 26.69042203 26.27592671
v 91.83438516 26.57300913 26.84498019
v 92.67310529 26.58875929 27.75357932
v 92.37696386 26.33102416 28.03653413
v 92.37696386 26.71189953 27.14679883
v 90.63946757 24.28919646 31.47915044
v 91.50303785 24.66004899 31.53259741
v 91.50096722 24.42808686 32.34373483
v 90.95424597 23.99280182 32.99138747
v 90.50899851 23.82813842 32.86877293
v 90.65396328 23.79377442 33.24918944
v 90.63739566 23.59904252 34.06975845
v 89.74276076 23.22962439 34.06032686
v 90.02026265 23.15230282 34.93119898
v 90.15694361 23.09646132 35.48138928
v 89.83388011 22.91032043 35.78006405
v 89.77589472 22.73563162 36.65722261
v 88.84605524 22.37050899 36.69495026
v 88.39252525 22.24450509 36.43400314
v 87.18932257 21.79776796 36.65722261
v 86.88904117 21.69896889 36.67608579
v 86.88904117 21.45841575 38.38010366
v 86.88904117 21.56580582 37.51866313
v 88.51263730 22.20155009 37.00934435
v 90.63739566 23.41146979 34.93119898
v 91.52788929 23.78375159 34.95635118
v 91.10749326 23.91977832 33.56672740
v 91.83645450 23.98421082 34.68282731
v 92.86777035 24.76457282 33.49756111
v 92.99823813 24.69584483 34.06975845
v 93.43105923 24.91778156 34.06975845
v 93.56773890 24.84618989 34.71112209
v 93.26124431 24.63141233 34.97207049
v 94.11446144 25.48336599 33.25547717
v 94.54935317 25.64516573 33.57301512
v 94.88276982 25.92008286 33.25547717
v 94.41888539 25.72105289 32.99767520
v 94.24907048 25.81555646 32.34373483
v 95.01530823 26.26372799 32.29971945
v 95.34458361 26.54866796 31.98218149
v 95.79604425 26.71762686 32.29971945
v 94.38575015 25.73966929 32.86877293
v 96.38625519 27.29609523 31.64892358
v 97.41964039 28.04066139 31.47915044
v 97.10071944 28.25400713 30.19327802
v 98.23351037 28.91552696 30.61771055
v 98.66633019 29.23053543 30.61771055
v 98.07404990 29.03436913 29.98892173
v 97.91873069 29.14748653 29.41358052
v 98.88584797 29.93214403 29.22808806
v 99.27310875 30.39320206 28.87282246
v 99.66036953 30.86141926 28.51441363
v 100.41418220 31.81933116 27.85104167
v 100.11597014 31.09481066 28.83823931
v 100.70203982 31.57018703 28.89168628
v 100.71239426 32.41927960 27.17195038
v 101.31710091 32.65410283 27.77558701
v 101.60702787 33.24689210 27.17195038
v 102.03777834 33.65353789 27.17195038
v 102.33806232 34.22628150 26.63433618
v 102.48095517 34.08452743 27.17195038
v 102.70875547 33.85686336 28.03339026
v 103.06288101 34.36660373 27.74729159
v 102.91170563 34.52840346 27.17195038
v 103.31967530 34.95939300 27.17195038
v 103.91195558 35.25006030 27.77558701
v 104.18945876 35.81564216 27.33857902
v 104.52701924 35.81564216 28.00823871
v 92.25477990 35.81564216 14.26921211
v 92.36453879 35.31449280 14.82569014
v 92.91747322 35.06248757 15.44504673
v 92.36453879 34.87491226 15.25640976
v 92.36453879 34.44249090 15.68713066
v 92.90918812 34.20766766 16.30648725
v 92.36453879 34.02868593 16.11785028
v 91.61900864 33.78526913 15.88519922
v 92.36453879 33.59769640 16.58629755
v 92.86362909 33.37719150 17.19936641
v 92.80978496 32.55101083 18.10482168
v 91.82402943 32.62546616 17.32826804
v 91.57137769 32.95192930 16.77179002
v 92.36453879 32.41927960 17.94762463
v 92.40595656 31.95535790 18.53868580
v 92.14709292 31.57591436 18.82478448
v 92.72280687 31.74057776 19.03542849
v 91.50096722 30.96165016 19.15175402
v 90.91904009 30.05385243 19.95660371
v 90.70366486 30.36886090 19.36239868
v 90.63946757 29.25917210 20.92493753
v 91.28559199 29.85768870 20.53194492
v 92.21957402 29.81759479 21.33679397
v 92.79528926 29.97366719 21.56630181
v 91.68942039 29.24342193 21.77380196
v 92.33140354 28.91409513 22.88361351
v 92.38938894 28.46019626 23.70732606
v 92.69174226 28.30555569 24.24808413
v 92.11809894 28.15807429 23.98399314
v 92.59648036 29.22337626 22.61323448
v 91.85509404 27.42925829 25.09694855
v 92.89055116 26.47564189 28.32892053
v 93.19911766 26.39402739 28.96399708
v 92.57577147 25.77689696 29.75627067
v 92.75387020 25.68525706 30.24986885
v 92.42459481 25.41034249 30.57055131
v 91.79296610 24.86623556 31.27793801
v 92.39353149 27.55526219 25.40819878
v 92.39353149 27.13143183 26.28221444
v 92.95474973 27.29895889 26.55573766
v 93.23639288 27.16293473 27.17823811
v 93.76654780 27.32616630 27.46748065
v 93.19911766 26.76201369 28.03653413
v 92.70209670 27.43784929 25.98039613
v 91.96899291 24.78461849 31.85327922
v 92.11395768 24.71445866 32.34373483
v 92.70002607 24.84475806 32.86877293
v 92.40388593 24.61709142 33.20831921
v 91.67078214 24.05866873 34.06975845
v 93.18462067 24.99796679 33.20831921
v 93.98813492 25.52059366 32.86877293
v 93.81832001 25.57357149 32.34373483
v 94.45616190 26.56155446 30.30017196
v 94.61355174 26.47277823 30.87551381
v 95.20790394 26.62885063 31.47915044
v 95.89337550 27.07129483 31.40998415
v 96.23300533 27.39632613 31.07043786
v 96.10668010 27.47507953 30.61771055
v 95.49783219 27.31614346 30.00149783
v 96.54364375 28.06357073 29.75627067
v 96.97025295 28.33991969 29.75627067
v 97.33059167 28.94989096 28.89168628
v 97.76134213 29.25917210 28.89168628
v 98.41574908 29.72166196 28.92312556
v 97.96636164 29.97509903 27.59952614
v 98.71396114 30.05957976 28.65274685
v 99.08258495 30.63661629 28.03024640
v 99.51333541 30.97740033 28.03024640
v 99.67072397 31.71623659 26.77581358
v 99.83846954 31.57591436 27.34801061
v 100.12632459 31.94103956 27.10592731
v 100.57778394 32.53955616 26.70035893
v 101.46206568 33.38148700 26.66577546
v 103.18299563 35.10401073 26.66577546
v 101.81619121 33.88550003 26.36395715
v 102.17031675 34.39524040 26.05899465
v 102.67976149 34.75034277 26.36395715
v 103.75042577 35.42617837 27.17195038
v 104.10247938 35.81564216 27.17195038
v 92.36453879 35.74548233 14.41068984
v 93.83488763 35.81564216 15.33815279
v 93.49318717 35.26437863 15.64625915
v 93.48490336 34.41099056 16.52341899
v 93.85973778 34.14609883 17.09876020
v 93.17426623 33.88836370 16.86296464
v 94.35261619 35.81564216 15.69970612
v 94.12481588 33.82822670 17.65838209
v 93.81417875 33.31991560 17.99478387
v 94.38989270 33.51178640 18.22114785
v 93.38549891 32.74287906 18.33432952
v 93.14941479 32.37345836 18.59213277
v 93.73962573 32.50518960 18.90967072
v 93.30059145 31.87087716 19.35925481
v 93.63815065 31.71194109 19.85914136
v 93.06243670 31.53152753 19.61076970
v 93.51182542 30.92585176 20.82433132
v 92.93818211 30.74973369 20.58539189
v 92.58405529 30.95735209 20.01005068
v 92.00834134 30.79268869 19.78054284
v 91.50096722 30.64807353 19.58561815
v 91.54445562 30.19131100 20.25527784
v 91.85923531 30.01232669 20.76459662
v 92.44944625 30.11828493 21.08213458
v 93.22603844 30.54068346 21.12300609
v 93.83695826 30.71823336 21.40281704
v 93.22603844 30.09967109 21.77065810
v 93.22603844 29.83334496 22.19823417
v 92.90090560 29.05155113 23.18857569
v 93.20325892 28.89691056 23.74190953
v 93.76654780 29.04582379 24.04372784
v 93.24881924 28.45446893 24.55619049
v 92.97338670 28.15234696 24.82342566
v 93.67749779 26.51573322 29.29725499
v 93.22603844 26.11195109 29.75627067
v 93.22396781 25.82557929 30.57055131
v 92.93611019 25.58932423 30.82835457
v 93.83902889 26.43125506 29.75627067
v 93.22396781 25.51057083 31.53888513
v 92.29826959 25.04092179 31.53259741
v 92.54677878 24.92064522 32.34373483
v 93.23639288 27.58676253 26.28221444
v 93.53046239 27.45932679 26.89213944
v 93.24881924 28.00200189 25.43649420
v 94.92211696 28.09793473 27.23797281
v 94.34019111 27.49082970 27.84475394
v 94.61355174 28.19673379 26.62804813
v 94.54935317 27.37055313 28.42009515
v 94.01505699 26.84363076 28.96399708
v 93.22603844 25.26142669 32.34373483
v 93.68578160 25.64802939 31.86271146
v 95.67592963 27.20588973 30.61771055
v 94.92004633 26.74626353 30.59884673
v 93.50975351 25.73966929 31.29051411
v 94.26977936 26.66607829 29.75627067
v 94.99874189 27.11281799 29.73111848
v 95.31973347 27.42925829 29.42615662
v 96.35933313 28.18098363 29.15263340
v 96.65754262 28.49599209 28.87596696
v 97.16905928 29.06730386 28.36350431
v 97.39893150 29.76748063 27.17195038
v 97.82761005 30.07532993 27.17195038
v 98.42610352 30.53352430 27.17823811
v 98.41574908 30.15980809 27.94536015
v 98.73260067 30.91153343 26.89528330
v 99.29174572 31.24372389 27.12164728
v 98.15688544 30.68386936 26.46456304
v 99.08051303 31.49859536 26.30736599
v 99.51126350 31.84367233 26.30736599
v 100.11390080 32.31904870 26.37024487
v 100.39347332 32.70564883 26.12501739
v 101.28396566 33.54471856 26.09043425
v 103.02146324 35.28012880 26.09043425
v 103.52262546 35.63522860 26.39854061
v 103.77320400 35.81564216 26.55259379
v 101.59460408 34.12032583 25.60941088
v 101.40408028 34.29930757 25.03406967
v 101.93009265 34.63436170 25.32331221
v 102.26557865 35.16128406 25.03406967
v 102.44574800 34.96941583 25.60941088
v 94.46030316 35.19278440 16.43853210
v 94.43545301 34.34798990 17.31883645
v 94.80200491 34.08595926 17.89417766
v 94.95111094 35.81564216 16.18387271
v 95.05258473 33.78240546 18.46008728
v 94.72952253 33.27839243 18.79648906
v 95.37771886 34.29214583 18.12368550
v 94.31533968 32.70278516 19.15804239
v 94.05233350 32.31332136 19.43156497
v 94.87862856 32.17872646 20.33702023
v 94.53899873 31.68759993 20.68914197
v 92.32311973 30.60941146 20.28671712
v 95.41913791 31.67328160 21.53171867
v 94.41267221 30.90723793 21.67633961
v 94.04197905 30.43186156 22.04418067
v 95.11471267 31.87660449 20.95637681
v 93.67335653 29.96507619 22.41202205
v 93.20325892 29.40808533 22.88361351
v 93.47661955 29.21764893 23.46838663
v 95.39221585 29.96793986 24.14119019
v 94.34019111 29.21908076 24.35183420
v 94.01298636 29.85482503 22.93706048
v 94.06682920 29.40665350 23.74190953
v 93.54910193 28.31414669 25.14096361
v 94.08339682 28.04066139 26.32622982
v 93.79554049 28.17239263 25.71630482
v 95.18926569 28.37142003 26.99274565
v 95.40463964 28.23539329 27.56494299
v 94.36918381 28.34135153 26.05270660
v 94.92211696 28.53751526 26.32622982
v 95.14163474 27.53521653 28.89168628
v 94.70881364 27.27461773 28.89168628
v 95.85402964 27.98052439 28.87596696
v 95.55995885 28.14232413 28.03024640
v 96.16880676 28.29982836 28.57729219
v 95.99070931 28.42153419 28.03024640
v 96.68653660 28.87686489 28.05854182
v 96.98060739 29.19473703 27.78816246
v 96.68653660 29.30642259 27.11535891
v 97.20840770 29.90207553 26.60289658
v 97.58324212 30.36886090 26.24448743
v 97.95600720 30.84280543 25.89236569
v 98.89827433 31.64321310 25.78232789
v 98.69325225 31.80787650 25.20384249
v 99.81983000 32.44934810 25.69429745
v 100.16981427 32.95192930 25.37990304
v 100.71032235 33.27982426 25.64399435
v 103.63652433 35.81564216 26.30736599
v 103.22855466 35.81564216 25.60941088
v 103.33002974 35.81564216 25.78232789
v 101.05823727 33.78813280 25.33903217
v 100.82215187 34.03727693 24.58448591
v 100.63576933 34.20909950 24.03115206
v 101.25290234 34.44965263 24.58448591
v 101.68572472 34.88063960 24.58448591
v 102.77709531 35.50779286 25.33903217
v 102.11647262 35.31449280 24.58448591
v 101.96943850 35.81564216 23.62872754
v 102.17031675 35.81564216 23.93369004
v 102.46438754 35.81564216 24.38327380
v 95.56617203 35.81564216 16.69004763
v 95.68835599 35.68247910 16.92898770
v 95.39221585 35.14267023 17.24652566
v 95.30523647 33.47885166 19.04800394
v 95.96792851 35.37176613 17.48860895
v 96.30548900 35.10114707 18.06395016
v 96.56849390 34.80618427 18.65186747
v 96.25578613 34.27926190 18.96940542
v 95.81468122 34.10743676 18.76190527
v 95.21618775 32.67701216 19.98804299
v 94.64254444 32.47798476 19.73652746
v 95.53510870 32.45221176 20.56338420
v 95.76498092 32.16583996 21.18902852
v 96.38211136 32.45650726 21.41853636
v 95.99485058 31.88089999 21.83982439
v 96.25992739 31.68903176 22.41202205
v 95.54132188 30.72539253 23.11940908
v 95.26795997 30.91296526 22.54406754
v 94.69431665 30.72109703 22.24853728
v 94.24907048 30.14548976 22.70126491
v 96.11703454 30.92871543 23.43065930
v 96.36761565 30.74543819 24.00914470
v 96.66582771 30.60511596 24.62221323
v 95.99899184 30.14835343 24.58448591
v 96.19365947 30.00946303 25.08122891
v 95.56617203 29.85196136 24.58448591
v 95.41085282 29.09450870 25.84206259
v 95.17269807 29.24199010 25.26672138
v 94.59698412 29.06587203 24.92717573
v 95.59102218 28.97280029 26.30736599
v 96.21022710 29.13603186 26.79153322
v 96.40696408 29.00143696 27.36687443
v 96.02384456 29.25917210 26.30736599
v 96.41731852 29.85912053 25.65657012
v 96.98888992 30.05528426 26.02441118
v 97.35958308 30.64807353 25.44592611
v 97.90837625 31.74344143 24.22922062
v 98.11753959 31.58020986 24.80456183
v 98.40125337 31.96108523 24.54361471
v 98.83407575 32.55673816 24.14433405
v 99.61687984 32.62546616 25.11895592
v 99.92130508 33.22111910 24.58448591
v 100.51772920 33.45594233 25.06865282
v 100.35205555 33.60485556 24.58448591
v 102.96554976 35.81564216 25.18497899
v 100.09112000 33.88550003 23.76706108
v 100.43696300 34.40096773 23.45581085
v 100.96918855 34.73315820 23.74190953
v 101.49934218 35.06678050 24.03115206
v 101.83275883 35.59656910 23.74505339
v 101.30260520 35.26294680 23.45581085
v 101.55318631 35.81564216 23.04081055
v 96.00313567 35.81564216 17.05788933
v 96.44424058 35.81564216 17.43201812
v 95.86438409 33.65210863 19.36554254
v 95.61173106 33.25261943 19.62334580
v 96.60162914 35.64095593 17.74955607
v 96.99924436 35.81564216 17.91304149
v 96.87913231 35.33597030 18.33432952
v 97.17734437 35.08968983 18.90967072
v 96.82942945 34.51408513 19.24607250
v 97.12764151 34.26923650 19.82141371
v 96.59748788 34.12605317 19.48501193
v 95.86024282 32.95908846 20.23012629
v 96.48565835 33.23973293 20.47535409
v 96.10668010 32.66555750 20.84319515
v 97.05722976 33.46166966 20.75516503
v 97.32230657 33.25405126 21.33050624
v 96.95575468 32.67987583 21.73293045
v 97.21462088 32.47655293 22.30512811
v 96.60784232 32.17872646 22.07247609
v 97.09243692 31.70907743 23.30490154
v 96.46080821 31.54441403 22.85846196
v 96.94125897 30.95592283 24.36126611
v 97.33473293 31.53009570 23.88024307
v 97.16698993 30.79268869 24.93660732
v 95.80225743 29.55127123 25.46164575
v 97.58531404 31.86658166 23.64444718
v 98.03884274 32.50089410 23.20429533
v 98.35569434 32.37632203 23.80164455
v 99.74527699 33.37862333 24.07831131
v 98.61455797 32.74287906 23.56899284
v 99.52990304 33.55903690 23.50297010
v 99.86124777 34.13607343 23.08168175
v 100.18224063 34.66156653 22.78615116
v 100.72688997 34.97514316 23.06596211
v 100.50530284 35.19707990 22.49062057
v 100.74345759 35.81564216 21.99702207
v 96.69481912 35.81564216 17.64894986
v 96.73209563 33.63492406 20.22069470
v 96.18537438 33.47026066 19.90001224
v 97.31195213 35.81564216 18.20857175
v 97.48590831 35.62377393 18.60156436
v 97.99535562 34.26207733 20.67342200
v 97.46313007 34.11030043 20.34016409
v 97.57910086 33.63778773 21.07899071
v 97.89594989 33.48171533 21.64804420
v 97.78826420 32.70421956 22.62895412
v 98.95625972 33.31848376 23.13827258
v 98.13824847 33.27839243 22.22024154
v 98.71396114 33.52037740 22.56293137
v 99.28967637 33.82679487 22.82387849
v 99.62516494 34.34655806 22.50634022
v 99.69764604 35.14410206 21.56001408
v 100.02070824 35.67961543 21.26448318
v 100.25679365 35.81564216 21.38395321
v 97.87524100 35.81564216 18.77448137
v 98.03677339 35.08682616 19.76796674
v 98.18794877 34.09455026 21.13558155
v 98.61041671 35.34599313 20.06978538
v 99.19441447 35.64238776 20.34330860
v 98.88170670 35.09971523 20.64512659
v 99.45741937 35.36460696 20.98467223
v 98.62077115 34.47828930 21.13558155
v 99.20683826 34.95366567 21.21732393
v 99.89024175 35.81564216 20.92808140
v 98.16931180 35.81564216 19.07315550
v 98.34326798 35.62950126 19.46614875
v 98.71396114 35.81564216 19.63906512
v 99.03081273 35.81564216 19.97232303
v 99.29174572 35.81564216 20.24899011
v 99.52575920 35.81564216 20.50050564
f 1 2 3
f 1 3 4
f 1 4 5
f 1 5 12
f 1 12 27
f 1 27 26
f 1 26 42
f 1 42 62
f 1 62 91
f 1 91 124
f 1 124 158
f 1 158 157
f 1 157 160
f 1 160 202
f 1 202 243
f 1 243 290
f 1 290 353
f 1 353 443
f 1 443 438
f 1 438 549
f 1 549 554
f 1 554 553
f 1 553 651
f 1 651 746
f 1 746 745
f 1 745 840
f 1 840 950
f 1 950 949
f 1 949 1029
f 1 1029 1104
f 1 1104 1157
f 1 1157 1159
f 1 1159 1158
f 1 1158 1214
f 1 1214 1169
f 1 1169 1168
f 1 1168 1167
f 1 1167 1221
f 1 1221 1257
f 1 1257 1275
f 1 1275 1285
f 1 1285 1291
f 1 1291 1290
f 1 1290 1289
f 1 1289 1288
f 1 1288 1286
f 1 1286 1276
f 1 1276 1261
f 1 1261 1227
f 1 1227 1258
f 1 1258 1223
f 1 1223 1222
f 1 1222 1170
f 1 1170 1113
f 1 1113 1036
f 1 1036 1031
f 1 1031 951
f 1 951 842
f 1 842 841
f 1 841 750
f 1 750 747
f 1 747 653
f 1 653 558
f 1 558 448
f 1 448 356
f 1 356 293
f 1 293 247
f 1 247 208
f 1 208 207
f 1 207 165
f 1 165 127
f 1 127 96
f 1 96 64
f 1 64 43
f 1 43 29
f 1 29 14
f 1 14 6
f 1 6 2
f 2 6 7
f 2 7 3
f 3 8 9
f 3 9 10
f 3 10 4
f 3 7 8
f 4 10 11
f 4 11 12
f 4 12 5
f 6 13 7
f 6 14 13
f 7 13 8
f 8 15 16
f 8 16 17
f 8 17 18
f 8 18 9
f 8 13 19
f 8 19 15
f 9 18 20
f 9 20 21
f 9 21 22
f 9 22 23
f 9 23 11
f 9 11 10
f 11 23 24
f 11 24 25
f 11 25 26
f 11 26 27
f 11 27 12
f 13 14 28
f 13 28 19
f 14 29 28
f 15 19 30
f 15 30 16
f 16 30 31
f 16 31 32
f 16 32 21
f 16 21 20
f 16 20 17
f 17 20 18
f 19 28 33
f 19 33 34
f 19 34 30
f 21 35 36
f 21 36 37
f 21 37 22
f 21 32 35
f 22 37 38
f 22 38 39
f 22 39 24
f 22 24 23
f 24 39 40
f 24 40 25
f 25 40 41
f 25 41 26
f 26 41 42
f 28 29 33
f 29 43 33
f 30 44 31
f 30 34 45
f 30 45 44
f 31 46 47
f 31 47 48
f 31 48 32
f 31 44 46
f 32 48 49
f 32 49 35
f 33 45 34
f 33 43 50
f 33 50 45
f 35 49 51
f 35 51 36
f 36 51 52
f 36 52 53
f 36 53 54
f 36 54 55
f 36 55 56
f 36 56 57
f 36 57 37
f 37 57 58
f 37 58 38
f 38 58 40
f 38 40 39
f 40 59 41
f 40 58 59
f 41 59 60
f 41 60 61
f 41 61 62
f 41 62 42
f 43 63 50
f 43 64 95
f 43 95 126
f 43 126 164
f 43 164 161
f 43 161 125
f 43 125 92
f 43 92 63
f 44 45 65
f 44 65 66
f 44 66 67
f 44 67 46
f 45 50 68
f 45 68 69
f 45 69 65
f 46 67 70
f 46 70 71
f 46 71 72
f 46 72 47
f 47 72 73
f 47 73 74
f 47 74 48
f 48 74 75
f 48 75 49
f 49 75 76
f 49 76 51
f 50 63 68
f 51 76 77
f 51 77 52
f 52 78 79
f 52 79 53
f 52 77 80
f 52 80 81
f 52 81 78
f 53 79 82
f 53 82 83
f 53 83 54
f 54 83 82
f 54 82 84
f 54 84 85
f 54 85 86
f 54 86 87
f 54 87 88
f 54 88 55
f 55 88 56
f 56 88 58
f 56 58 57
f 58 88 59
f 59 88 60
f 60 88 87
f 60 87 89
f 60 89 61
f 61 89 62
f 62 89 90
f 62 90 91
f 63 92 68
f 64 93 94
f 64 94 95
f 64 96 97
f 64 97 93
f 65 69 66
f 66 98 70
f 66 70 67
f 66 69 99
f 66 99 100
f 66 100 98
f 68 92 101
f 68 101 69
f 69 101 102
f 69 102 99
f 70 98 103
f 70 103 104
f 70 104 105
f 70 105 106
f 70 106 71
f 71 106 107
f 71 107 72
f 72 107 108
f 72 108 73
f 73 108 109
f 73 109 110
f 73 110 111
f 73 111 74
f 74 111 75
f 75 111 76
f 76 111 80
f 76 80 77
f 78 112 113
f 78 113 79
f 78 81 109
f 78 109 114
f 78 114 112
f 79 113 115
f 79 115 116
f 79 116 117
f 79 117 84
f 79 84 82
f 80 111 81
f 81 111 110
f 81 110 109
f 84 117 118
f 84 118 119
f 84 119 85
f 85 119 120
f 85 120 86
f 86 121 89
f 86 89 87
f 86 120 122
f 86 122 123
f 86 123 121
f 89 121 90
f 90 121 124
f 90 124 91
f 92 125 101
f 93 97 94
f 94 126 95
f 94 97 128
f 94 128 166
f 94 166 209
f 94 209 249
f 94 249 248
f 94 248 296
f 94 296 397
f 94 397 499
f 94 499 602
f 94 602 700
f 94 700 799
f 94 799 903
f 94 903 905
f 94 905 904
f 94 904 800
f 94 800 701
f 94 701 652
f 94 652 556
f 94 556 555
f 94 555 446
f 94 446 445
f 94 445 444
f 94 444 354
f 94 354 291
f 94 291 245
f 94 245 204
f 94 204 203
f 94 203 164
f 94 164 126
f 96 127 97
f 97 127 128
f 98 100 103
f 99 102 100
f 100 102 129
f 100 129 130
f 100 130 131
f 100 131 103
f 101 125 102
f 102 125 132
f 102 132 129
f 103 131 104
f 104 131 133
f 104 133 134
f 104 134 135
f 104 135 136
f 104 136 137
f 104 137 105
f 105 137 138
f 105 138 139
f 105 139 108
f 105 108 107
f 105 107 106
f 108 140 109
f 108 139 140
f 109 141 142
f 109 142 143
f 109 143 114
f 109 140 141
f 112 114 144
f 112 144 145
f 112 145 113
f 113 145 146
f 113 146 147
f 113 147 148
f 113 148 115
f 114 143 149
f 114 149 144
f 115 148 150
f 115 150 151
f 115 151 116
f 116 151 152
f 116 152 153
f 116 153 117
f 117 153 118
f 118 153 197
f 118 197 154
f 118 154 119
f 119 154 155
f 119 155 120
f 120 155 156
f 120 156 122
f 121 123 157
f 121 157 158
f 121 158 124
f 122 156 159
f 122 159 160
f 122 160 123
f 123 160 157
f 125 161 162
f 125 162 163
f 125 163 132
f 127 165 166
f 127 166 128
f 129 132 130
f 130 132 167
f 130 167 168
f 130 168 131
f 131 168 133
f 132 169 167
f 132 163 169
f 133 168 170
f 133 170 171
f 133 171 172
f 133 172 173
f 133 173 174
f 133 174 134
f 134 174 175
f 134 175 176
f 134 176 177
f 134 177 178
f 134 178 179
f 134 179 135
f 135 179 180
f 135 180 136
f 136 180 181
f 136 181 137
f 137 181 138
f 138 181 182
f 138 182 139
f 139 182 183
f 139 183 140
f 140 183 184
f 140 184 185
f 140 185 141
f 141 185 142
f 142 186 143
f 142 185 187
f 142 187 186
f 143 186 188
f 143 188 145
f 143 145 149
f 144 149 145
f 145 188 189
f 145 189 146
f 146 189 190
f 146 190 191
f 146 191 192
f 146 192 147
f 147 192 148
f 148 192 150
f 150 192 193
f 150 193 194
f 150 194 151
f 151 194 195
f 151 195 196
f 151 196 152
f 152 196 197
f 152 197 153
f 154 197 198
f 154 198 199
f 154 199 155
f 155 199 156
f 156 199 200
f 156 200 159
f 159 200 160
f 160 200 201
f 160 201 202
f 161 164 203
f 161 203 204
f 161 204 205
f 161 205 206
f 161 206 162
f 162 206 169
f 162 169 163
f 165 207 166
f 166 207 208
f 166 208 209
f 167 210 168
f 167 169 210
f 168 210 211
f 168 211 170
f 169 206 212
f 169 212 213
f 169 213 214
f 169 214 210
f 170 211 215
f 170 215 216
f 170 216 217
f 170 217 218
f 170 218 219
f 170 219 220
f 170 220 171
f 171 220 221
f 171 221 222
f 171 222 172
f 172 222 173
f 173 222 174
f 174 222 221
f 174 221 175
f 175 223 176
f 175 221 223
f 176 223 224
f 176 224 177
f 177 224 225
f 177 225 226
f 177 226 178
f 178 180 179
f 178 226 227
f 178 227 180
f 180 227 182
f 180 182 181
f 182 227 184
f 182 184 183
f 184 227 228
f 184 228 187
f 184 187 185
f 186 229 230
f 186 230 231
f 186 231 188
f 186 187 232
f 186 232 229
f 187 228 232
f 188 231 233
f 188 233 234
f 188 234 190
f 188 190 189
f 190 234 235
f 190 235 236
f 190 236 191
f 191 236 193
f 191 193 192
f 193 236 237
f 193 237 194
f 194 237 195
f 195 237 238
f 195 238 196
f 196 238 198
f 196 198 197
f 198 238 239
f 198 239 199
f 199 239 240
f 199 240 241
f 199 241 200
f 200 241 242
f 200 242 201
f 201 242 202
f 202 242 243
f 204 244 205
f 204 245 244
f 205 244 246
f 205 246 212
f 205 212 206
f 208 247 248
f 208 248 249
f 208 249 209
f 210 250 211
f 210 214 250
f 211 251 252
f 211 252 253
f 211 253 215
f 211 250 254
f 211 254 251
f 212 246 254
f 212 254 213
f 213 254 250
f 213 250 214
f 215 253 216
f 216 255 217
f 216 253 255
f 217 255 253
f 217 253 256
f 217 256 257
f 217 257 258
f 217 258 218
f 218 258 259
f 218 259 260
f 218 260 261
f 218 261 262
f 218 262 219
f 219 262 220
f 220 262 221
f 221 261 263
f 221 263 264
f 221 264 265
f 221 265 223
f 221 262 261
f 223 265 266
f 223 266 225
f 223 225 224
f 225 266 267
f 225 267 268
f 225 268 226
f 226 228 227
f 226 268 269
f 226 269 270
f 226 270 228
f 228 270 232
f 229 271 230
f 229 232 270
f 229 270 271
f 230 271 272
f 230 272 273
f 230 273 274
f 230 274 233
f 230 233 231
f 233 274 275
f 233 275 276
f 233 276 234
f 234 276 235
f 235 276 277
f 235 277 236
f 236 277 237
f 237 277 278
f 237 278 279
f 237 279 238
f 238 279 239
f 239 279 280
f 239 280 281
f 239 281 282
f 239 282 283
f 239 283 284
f 239 284 285
f 239 285 240
f 240 242 241
f 240 285 286
f 240 286 287
f 240 287 242
f 242 287 243
f 243 287 288
f 243 288 289
f 243 289 290
f 244 245 291
f 244 291 246
f 246 291 292
f 246 292 251
f 246 251 254
f 247 293 294
f 247 294 295
f 247 295 296
f 247 296 248
f 251 292 297
f 251 297 298
f 251 298 299
f 251 299 300
f 251 300 301
f 251 301 302
f 251 302 252
f 252 302 303
f 252 303 304
f 252 304 305
f 252 305 253
f 253 305 306
f 253 306 307
f 253 307 308
f 253 308 309
f 253 309 310
f 253 310 311
f 253 311 256
f 256 311 257
f 257 312 313
f 257 313 314
f 257 314 258
f 257 311 312
f 258 314 315
f 258 315 316
f 258 316 259
f 259 316 317
f 259 317 260
f 260 317 261
f 261 317 316
f 261 316 318
f 261 318 263
f 263 318 319
f 263 319 264
f 264 319 320
f 264 320 321
f 264 321 322
f 264 322 265
f 265 322 323
f 265 323 266
f 266 323 267
f 267 323 322
f 267 322 268
f 268 322 324
f 268 324 325
f 268 325 269
f 269 325 326
f 269 326 271
f 269 271 270
f 271 326 272
f 272 326 325
f 272 325 324
f 272 324 327
f 272 327 328
f 272 328 329
f 272 329 274
f 272 274 273
f 274 329 330
f 274 330 331
f 274 331 332
f 274 332 333
f 274 333 334
f 274 334 335
f 274 335 336
f 274 336 275
f 275 336 276
f 276 336 277
f 277 337 278
f 277 336 337
f 278 337 279
f 279 337 338
f 279 338 339
f 279 339 340
f 279 340 341
f 279 341 342
f 279 342 343
f 279 343 344
f 279 344 345
f 279 345 281
f 279 281 280
f 281 345 346
f 281 346 347
f 281 347 282
f 282 347 283
f 283 347 348
f 283 348 349
f 283 349 350
f 283 350 284
f 284 350 285
f 285 350 289
f 285 289 288
f 285 288 286
f 286 288 287
f 289 350 351
f 289 351 352
f 289 352 290
f 290 352 353
f 291 354 292
f 292 354 355
f 292 355 297
f 293 356 357
f 293 357 358
f 293 358 294
f 294 358 295
f 295 358 296
f 296 358 359
f 296 359 360
f 296 360 361
f 296 361 362
f 296 362 363
f 296 363 364
f 296 364 365
f 296 365 366
f 296 366 367
f 296 367 368
f 296 368 369
f 296 369 370
f 296 370 371
f 296 371 372
f 296 372 373
f 296 373 374
f 296 374 375
f 296 375 376
f 296 376 377
f 296 377 378
f 296 378 379
f 296 379 380
f 296 380 381
f 296 381 382
f 296 382 383
f 296 383 384
f 296 384 385
f 296 385 386
f 296 386 387
f 296 387 388
f 296 388 389
f 296 389 390
f 296 390 391
f 296 391 392
f 296 392 393
f 296 393 394
f 296 394 395
f 296 395 396
f 296 396 397
f 297 355 398
f 297 398 399
f 297 399 298
f 298 399 400
f 298 400 299
f 299 400 300
f 300 400 401
f 300 401 402
f 300 402 301
f 301 402 302
f 302 402 303
f 303 402 403
f 303 403 404
f 303 404 307
f 303 307 304
f 304 307 305
f 305 307 306
f 307 404 405
f 307 405 406
f 307 406 407
f 307 407 308
f 308 407 309
f 309 407 408
f 309 408 312
f 309 312 311
f 309 311 310
f 312 408 409
f 312 409 313
f 313 409 410
f 313 410 411
f 313 411 314
f 314 411 412
f 314 412 315
f 315 412 413
f 315 413 414
f 315 414 316
f 316 414 415
f 316 415 319
f 316 319 318
f 319 415 320
f 320 415 414
f 320 414 416
f 320 416 327
f 320 327 322
f 320 322 321
f 322 327 324
f 327 416 417
f 327 417 328
f 328 417 329
f 329 418 330
f 329 417 418
f 330 418 332
f 330 332 331
f 332 419 420
f 332 420 333
f 332 418 419
f 333 421 422
f 333 422 423
f 333 423 334
f 333 420 421
f 334 423 424
f 334 424 425
f 334 425 335
f 335 425 426
f 335 426 427
f 335 427 336
f 336 427 337
f 337 427 426
f 337 426 428
f 337 428 338
f 338 428 429
f 338 429 430
f 338 430 340
f 338 340 339
f 340 430 431
f 340 431 432
f 340 432 341
f 341 432 433
f 341 433 342
f 342 433 434
f 342 434 344
f 342 344 343
f 344 434 435
f 344 435 346
f 344 346 345
f 346 435 348
f 346 348 347
f 348 435 436
f 348 436 437
f 348 437 349
f 349 437 350
f 350 437 351
f 351 438 352
f 351 437 439
f 351 439 440
f 351 440 441
f 351 441 442
f 351 442 438
f 352 443 353
f 352 438 443
f 354 444 355
f 355 444 445
f 355 445 446
f 355 446 447
f 355 447 398
f 356 448 449
f 356 449 357
f 357 359 358
f 357 449 360
f 357 360 359
f 360 449 450
f 360 450 451
f 360 451 452
f 360 452 361
f 361 452 453
f 361 453 362
f 362 453 454
f 362 454 455
f 362 455 456
f 362 456 363
f 363 456 457
f 363 457 364
f 364 458 365
f 364 457 458
f 365 458 459
f 365 459 460
f 365 460 366
f 366 460 461
f 366 461 367
f 367 461 462
f 367 462 463
f 367 463 368
f 368 463 369
f 369 464 370
f 369 463 464
f 370 464 465
f 370 465 371
f 371 465 466
f 371 466 372
f 372 466 373
f 373 467 468
f 373 468 374
f 373 466 467
f 374 468 375
f 375 469 470
f 375 470 376
f 375 468 469
f 376 470 471
f 376 471 472
f 376 472 473
f 376 473 377
f 377 473 474
f 377 474 378
f 378 474 379
f 379 474 380
f 380 475 381
f 380 474 475
f 381 475 476
f 381 476 382
f 382 477 478
f 382 478 479
f 382 479 480
f 382 480 383
f 382 476 477
f 383 480 384
f 384 480 385
f 385 481 482
f 385 482 386
f 385 480 481
f 386 482 387
f 387 482 483
f 387 483 388
f 388 483 389
f 389 483 484
f 389 484 485
f 389 485 486
f 389 486 487
f 389 487 488
f 389 488 489
f 389 489 490
f 389 490 491
f 389 491 492
f 389 492 390
f 390 492 391
f 391 492 392
f 392 492 493
f 392 493 494
f 392 494 393
f 393 494 495
f 393 495 394
f 394 496 497
f 394 497 395
f 394 495 496
f 395 497 396
f 396 497 498
f 396 498 397
f 397 498 499
f 398 447 500
f 398 500 501
f 398 501 399
f 399 501 502
f 399 502 400
f 400 502 401
f 401 502 503
f 401 503 402
f 402 503 403
f 403 503 504
f 403 504 505
f 403 505 405
f 403 405 404
f 405 505 506
f 405 506 507
f 405 507 406
f 406 507 508
f 406 508 509
f 406 509 510
f 406 510 407
f 407 510 511
f 407 511 512
f 407 512 408
f 408 512 409
f 409 512 410
f 410 511 513
f 410 513 514
f 410 514 515
f 410 515 411
f 410 512 511
f 411 515 516
f 411 516 412
f 412 516 413
f 413 516 414
f 414 516 517
f 414 517 518
f 414 518 519
f 414 519 416
f 416 519 520
f 416 520 521
f 416 521 522
f 416 522 417
f 417 522 521
f 417 521 523
f 417 523 418
f 418 523 521
f 418 521 419
f 419 521 420
f 420 524 525
f 420 525 526
f 420 526 527
f 420 527 422
f 420 422 421
f 420 521 528
f 420 528 529
f 420 529 524
f 422 527 530
f 422 530 423
f 423 530 527
f 423 527 531
f 423 531 532
f 423 532 424
f 424 532 533
f 424 533 534
f 424 534 535
f 424 535 536
f 424 536 425
f 425 536 537
f 425 537 426
f 426 537 430
f 426 430 429
f 426 429 428
f 430 537 431
f 431 534 538
f 431 538 539
f 431 539 432
f 431 537 534
f 432 539 433
f 433 539 540
f 433 540 434
f 434 540 541
f 434 541 542
f 434 542 543
f 434 543 544
f 434 544 436
f 434 436 435
f 436 545 440
f 436 440 439
f 436 439 437
f 436 544 546
f 436 546 547
f 436 547 548
f 436 548 545
f 438 442 549
f 440 545 548
f 440 548 547
f 440 547 550
f 440 550 551
f 440 551 441
f 441 551 552
f 441 552 553
f 441 553 442
f 442 553 554
f 442 554 549
f 446 555 447
f 447 555 556
f 447 556 500
f 448 557 450
f 448 450 449
f 448 558 559
f 448 559 560
f 448 560 557
f 450 557 561
f 450 561 451
f 451 561 452
f 452 560 562
f 452 562 563
f 452 563 454
f 452 454 453
f 452 561 557
f 452 557 560
f 454 563 455
f 455 563 456
f 456 564 565
f 456 565 458
f 456 458 457
f 456 563 564
f 458 565 566
f 458 566 567
f 458 567 568
f 458 568 569
f 458 569 459
f 459 570 571
f 459 571 572
f 459 572 462
f 459 462 461
f 459 461 460
f 459 569 568
f 459 568 573
f 459 573 570
f 462 572 463
f 463 572 465
f 463 465 464
f 465 574 575
f 465 575 466
f 465 572 574
f 466 575 467
f 467 575 576
f 467 576 469
f 467 469 468
f 469 577 578
f 469 578 472
f 469 472 471
f 469 471 470
f 469 576 577
f 472 578 579
f 472 579 475
f 472 475 474
f 472 474 473
f 475 579 580
f 475 580 478
f 475 478 477
f 475 477 476
f 478 580 581
f 478 581 582
f 478 582 583
f 478 583 480
f 478 480 479
f 480 583 481
f 481 583 584
f 481 584 483
f 481 483 482
f 483 584 585
f 483 585 485
f 483 485 484
f 485 585 586
f 485 586 587
f 485 587 487
f 485 487 486
f 487 588 589
f 487 589 590
f 487 590 591
f 487 591 488
f 487 587 592
f 487 592 588
f 488 591 489
f 489 591 490
f 490 590 493
f 490 493 492
f 490 492 491
f 490 591 590
f 493 590 593
f 493 593 594
f 493 594 595
f 493 595 596
f 493 596 495
f 493 495 494
f 495 596 497
f 495 497 496
f 497 596 597
f 497 597 498
f 498 598 599
f 498 599 600
f 498 600 499
f 498 597 601
f 498 601 598
f 499 600 602
f 500 556 603
f 500 603 604
f 500 604 605
f 500 605 501
f 501 605 606
f 501 606 502
f 502 606 504
f 502 504 503
f 504 606 607
f 504 607 505
f 505 607 506
f 506 608 507
f 506 607 608
f 507 608 508
f 508 608 609
f 508 609 610
f 508 610 509
f 509 610 510
f 510 610 511
f 511 610 513
f 513 610 609
f 513 609 611
f 513 611 612
f 513 612 514
f 514 612 613
f 514 613 614
f 514 614 615
f 514 615 515
f 515 615 616
f 515 616 617
f 515 617 516
f 516 617 618
f 516 618 517
f 517 618 619
f 517 619 518
f 518 619 620
f 518 620 621
f 518 621 519
f 519 621 622
f 519 622 520
f 520 622 623
f 520 623 521
f 521 623 528
f 524 529 624
f 524 624 625
f 524 625 626
f 524 626 627
f 524 627 525
f 525 627 628
f 525 628 526
f 526 628 629
f 526 629 630
f 526 630 631
f 526 631 632
f 526 632 527
f 527 632 531
f 528 623 529
f 529 633 624
f 529 623 633
f 531 632 634
f 531 634 635
f 531 635 533
f 531 533 532
f 533 635 636
f 533 636 534
f 534 636 637
f 534 637 538
f 534 537 535
f 535 537 536
f 538 637 539
f 539 637 638
f 539 638 639
f 539 639 640
f 539 640 641
f 539 641 642
f 539 642 541
f 539 541 540
f 541 642 542
f 542 643 543
f 542 642 641
f 542 641 644
f 542 644 645
f 542 645 643
f 543 643 544
f 544 643 546
f 546 643 646
f 546 646 547
f 547 647 551
f 547 551 550
f 547 646 648
f 547 648 647
f 551 647 649
f 551 649 650
f 551 650 552
f 552 650 651
f 552 651 553
f 556 652 603
f 558 653 654
f 558 654 559
f 559 654 560
f 560 654 655
f 560 655 656
f 560 656 657
f 560 657 562
f 562 657 563
f 563 657 564
f 564 657 566
f 564 566 565
f 566 658 573
f 566 573 568
f 566 568 567
f 566 657 658
f 570 573 659
f 570 659 660
f 570 660 571
f 571 661 662
f 571 662 572
f 571 660 661
f 572 662 663
f 572 663 664
f 572 664 665
f 572 665 574
f 573 658 666
f 573 666 667
f 573 667 659
f 574 665 575
f 575 665 576
f 576 665 577
f 577 665 668
f 577 668 669
f 577 669 670
f 577 670 578
f 578 670 671
f 578 671 672
f 578 672 673
f 578 673 674
f 578 674 580
f 578 580 579
f 580 674 675
f 580 675 581
f 581 676 677
f 581 677 582
f 581 675 676
f 582 678 583
f 582 677 679
f 582 679 678
f 583 678 584
f 584 680 586
f 584 586 585
f 584 678 680
f 586 681 587
f 586 680 681
f 587 681 592
f 588 592 682
f 588 682 683
f 588 683 589
f 589 683 684
f 589 684 590
f 590 685 593
f 590 684 685
f 592 681 686
f 592 686 687
f 592 687 682
f 593 688 689
f 593 689 594
f 593 685 688
f 594 689 690
f 594 690 691
f 594 691 692
f 594 692 596
f 594 596 595
f 596 692 597
f 597 692 693
f 597 693 601
f 598 694 695
f 598 695 599
f 598 601 693
f 598 693 694
f 599 695 696
f 599 696 697
f 599 697 698
f 599 698 600
f 600 698 699
f 600 699 602
f 602 699 700
f 603 652 604
f 604 652 701
f 604 701 605
f 605 701 702
f 605 702 703
f 605 703 606
f 606 703 704
f 606 704 607
f 607 704 705
f 607 705 706
f 607 706 707
f 607 707 708
f 607 708 608
f 608 708 709
f 608 709 609
f 609 709 710
f 609 710 611
f 611 710 711
f 611 711 612
f 612 711 712
f 612 712 613
f 613 712 713
f 613 713 614
f 614 713 714
f 614 714 715
f 614 715 615
f 615 715 616
f 616 715 716
f 616 716 618
f 616 618 617
f 618 716 620
f 618 620 619
f 620 716 624
f 620 624 717
f 620 717 621
f 621 717 633
f 621 633 622
f 622 633 623
f 624 633 717
f 624 716 715
f 624 715 718
f 624 718 719
f 624 719 720
f 624 720 721
f 624 721 626
f 624 626 625
f 626 721 627
f 627 721 720
f 627 720 722
f 627 722 628
f 628 722 629
f 629 722 723
f 629 723 630
f 630 723 631
f 631 723 724
f 631 724 632
f 632 724 725
f 632 725 635
f 632 635 634
f 635 726 727
f 635 727 636
f 635 725 726
f 636 727 728
f 636 728 637
f 637 728 638
f 638 728 729
f 638 729 639
f 639 729 730
f 639 730 640
f 640 730 731
f 640 731 732
f 640 732 641
f 641 732 644
f 643 645 733
f 643 733 734
f 643 734 646
f 644 732 735
f 644 735 645
f 645 735 736
f 645 736 737
f 645 737 738
f 645 738 739
f 645 739 740
f 645 740 733
f 646 734 648
f 647 648 649
f 648 740 741
f 648 741 742
f 648 742 743
f 648 743 649
f 648 734 740
f 649 743 744
f 649 744 745
f 649 745 746
f 649 746 650
f 650 746 651
f 653 747 748
f 653 748 654
f 654 749 655
f 654 748 750
f 654 750 749
f 655 751 656
f 655 749 751
f 656 751 752
f 656 752 657
f 657 752 753
f 657 753 666
f 657 666 658
f 659 667 754
f 659 754 755
f 659 755 660
f 660 756 661
f 660 755 756
f 661 756 757
f 661 757 662
f 662 757 758
f 662 758 663
f 663 758 665
f 663 665 664
f 665 758 759
f 665 759 760
f 665 760 668
f 666 753 667
f 667 753 754
f 668 760 761
f 668 761 669
f 669 762 763
f 669 763 764
f 669 764 670
f 669 761 762
f 670 764 671
f 671 764 763
f 671 763 672
f 672 763 765
f 672 765 766
f 672 766 767
f 672 767 768
f 672 768 769
f 672 769 673
f 673 769 674
f 674 769 675
f 675 769 770
f 675 770 676
f 676 770 771
f 676 771 679
f 676 679 677
f 678 679 771
f 678 771 772
f 678 772 680
f 680 773 681
f 680 772 773
f 681 773 774
f 681 774 686
f 682 775 776
f 682 776 777
f 682 777 778
f 682 778 683
f 682 687 779
f 682 779 775
f 683 778 777
f 683 777 780
f 683 780 684
f 684 780 685
f 685 780 777
f 685 777 688
f 686 774 781
f 686 781 782
f 686 782 783
f 686 783 784
f 686 784 785
f 686 785 786
f 686 786 687
f 687 787 779
f 687 786 787
f 688 788 689
f 688 777 789
f 688 789 788
f 689 788 790
f 689 790 690
f 690 790 791
f 690 791 792
f 690 792 691
f 691 792 693
f 691 693 692
f 693 792 694
f 694 792 695
f 695 793 697
f 695 697 696
f 695 792 793
f 697 793 794
f 697 794 795
f 697 795 796
f 697 796 698
f 698 796 699
f 699 796 797
f 699 797 798
f 699 798 799
f 699 799 700
f 701 800 702
f 702 800 801
f 702 801 703
f 703 801 705
f 703 705 704
f 705 801 802
f 705 802 803
f 705 803 804
f 705 804 706
f 706 804 707
f 707 804 708
f 708 804 805
f 708 805 709
f 709 805 806
f 709 806 710
f 710 806 807
f 710 807 808
f 710 808 712
f 710 712 711
f 712 808 809
f 712 809 713
f 713 809 714
f 714 809 810
f 714 810 715
f 715 810 811
f 715 811 718
f 718 811 812
f 718 812 813
f 718 813 814
f 718 814 719
f 719 814 720
f 720 815 816
f 720 816 817
f 720 817 818
f 720 818 819
f 720 819 820
f 720 820 722
f 720 814 815
f 722 820 821
f 722 821 723
f 723 821 819
f 723 819 822
f 723 822 823
f 723 823 824
f 723 824 724
f 724 824 725
f 725 824 726
f 726 823 825
f 726 825 727
f 726 824 823
f 727 825 826
f 727 826 729
f 727 729 728
f 729 827 828
f 729 828 829
f 729 829 730
f 729 826 827
f 730 829 731
f 731 829 830
f 731 830 735
f 731 735 732
f 733 740 734
f 735 831 832
f 735 832 736
f 735 830 831
f 736 832 833
f 736 833 737
f 737 833 834
f 737 834 835
f 737 835 836
f 737 836 738
f 738 836 837
f 738 837 739
f 739 837 741
f 739 741 740
f 741 837 742
f 742 837 838
f 742 838 743
f 743 838 744
f 744 838 839
f 744 839 840
f 744 840 745
f 747 750 748
f 749 750 841
f 749 841 842
f 749 842 843
f 749 843 844
f 749 844 751
f 751 844 845
f 751 845 846
f 751 846 752
f 752 846 847
f 752 847 753
f 753 847 846
f 753 846 848
f 753 848 849
f 753 849 850
f 753 850 851
f 753 851 754
f 754 851 852
f 754 852 853
f 754 853 854
f 754 854 855
f 754 855 856
f 754 856 857
f 754 857 858
f 754 858 755
f 755 858 757
f 755 757 756
f 757 858 758
f 758 858 859
f 758 859 759
f 759 859 760
f 760 859 860
f 760 860 761
f 761 860 861
f 761 861 762
f 762 861 862
f 762 862 763
f 763 862 765
f 765 862 863
f 765 863 766
f 766 864 865
f 766 865 866
f 766 866 867
f 766 867 868
f 766 868 767
f 766 863 869
f 766 869 870
f 766 870 864
f 767 868 768
f 768 871 769
f 768 868 871
f 769 871 770
f 770 871 771
f 771 872 873
f 771 873 772
f 771 871 868
f 771 868 874
f 771 874 875
f 771 875 872
f 772 873 876
f 772 876 774
f 772 774 773
f 774 876 873
f 774 873 781
f 775 779 877
f 775 877 878
f 775 878 776
f 776 879 880
f 776 880 777
f 776 878 879
f 777 880 881
f 777 881 789
f 779 787 877
f 781 873 782
f 782 873 872
f 782 872 882
f 782 882 883
f 782 883 884
f 782 884 783
f 783 884 784
f 784 884 785
f 785 885 886
f 785 886 787
f 785 787 786
f 785 884 887
f 785 887 885
f 787 886 877
f 788 888 790
f 788 789 881
f 788 881 888
f 790 888 791
f 791 888 881
f 791 881 889
f 791 889 890
f 791 890 891
f 791 891 892
f 791 892 792
f 792 892 893
f 792 893 894
f 792 894 895
f 792 895 793
f 793 896 794
f 793 895 894
f 793 894 896
f 794 896 897
f 794 897 898
f 794 898 795
f 795 898 899
f 795 899 900
f 795 900 901
f 795 901 796
f 796 902 797
f 796 901 802
f 796 802 902
f 797 902 798
f 798 902 799
f 799 902 903
f 800 904 801
f 801 904 802
f 802 904 905
f 802 905 903
f 802 903 902
f 802 901 803
f 803 901 906
f 803 906 804
f 804 906 900
f 804 900 805
f 805 900 899
f 805 899 806
f 806 899 898
f 806 898 897
f 806 897 807
f 807 897 808
f 808 897 809
f 809 897 907
f 809 907 908
f 809 908 894
f 809 894 893
f 809 893 909
f 809 909 910
f 809 910 911
f 809 911 912
f 809 912 913
f 809 913 914
f 809 914 915
f 809 915 810
f 810 915 914
f 810 914 811
f 811 914 913
f 811 913 812
f 812 913 916
f 812 916 813
f 813 916 917
f 813 917 814
f 814 917 815
f 815 917 918
f 815 918 816
f 816 918 919
f 816 919 817
f 817 920 921
f 817 921 922
f 817 922 923
f 817 923 818
f 817 919 924
f 817 924 920
f 818 923 819
f 819 821 820
f 819 923 925
f 819 925 926
f 819 926 822
f 822 926 823
f 823 926 927
f 823 927 825
f 825 927 928
f 825 928 826
f 826 928 929
f 826 929 827
f 827 929 930
f 827 930 931
f 827 931 932
f 827 932 828
f 828 932 831
f 828 831 829
f 829 831 830
f 831 932 933
f 831 933 934
f 831 934 935
f 831 935 936
f 831 936 937
f 831 937 832
f 832 937 935
f 832 935 833
f 833 935 938
f 833 938 939
f 833 939 834
f 834 939 835
f 835 939 940
f 835 940 941
f 835 941 942
f 835 942 943
f 835 943 944
f 835 944 836
f 836 944 837
f 837 944 943
f 837 943 942
f 837 942 945
f 837 945 838
f 838 945 946
f 838 946 947
f 838 947 948
f 838 948 949
f 838 949 839
f 839 950 840
f 839 949 950
f 842 951 844
f 842 844 843
f 844 952 953
f 844 953 954
f 844 954 845
f 844 951 952
f 845 954 955
f 845 955 956
f 845 956 957
f 845 957 849
f 845 849 958
f 845 958 846
f 846 958 848
f 848 958 849
f 849 957 956
f 849 956 959
f 849 959 960
f 849 960 961
f 849 961 962
f 849 962 963
f 849 963 850
f 850 963 852
f 850 852 851
f 852 962 964
f 852 964 854
f 852 854 853
f 852 963 962
f 854 965 966
f 854 966 856
f 854 856 855
f 854 964 965
f 856 966 857
f 857 966 967
f 857 967 968
f 857 968 969
f 857 969 970
f 857 970 858
f 858 970 859
f 859 969 863
f 859 863 971
f 859 971 861
f 859 861 860
f 859 970 969
f 861 971 862
f 862 971 863
f 863 969 972
f 863 972 973
f 863 973 974
f 863 974 975
f 863 975 869
f 864 870 976
f 864 976 977
f 864 977 978
f 864 978 865
f 865 978 979
f 865 979 866
f 866 979 867
f 867 874 868
f 867 979 875
f 867 875 874
f 869 975 974
f 869 974 870
f 870 980 976
f 870 974 980
f 872 875 882
f 875 979 978
f 875 978 981
f 875 981 882
f 877 886 878
f 878 886 885
f 878 885 982
f 878 982 879
f 879 982 983
f 879 983 984
f 879 984 985
f 879 985 986
f 879 986 880
f 880 986 987
f 880 987 881
f 881 987 889
f 882 981 988
f 882 988 989
f 882 989 883
f 883 989 884
f 884 989 887
f 885 887 990
f 885 990 991
f 885 991 992
f 885 992 993
f 885 993 982
f 887 989 994
f 887 994 990
f 889 987 890
f 890 987 995
f 890 995 996
f 890 996 891
f 891 996 997
f 891 997 998
f 891 998 909
f 891 909 893
f 891 893 892
f 894 908 907
f 894 907 896
f 896 907 897
f 900 906 901
f 909 999 910
f 909 998 999
f 910 999 998
f 910 998 911
f 911 913 912
f 911 998 997
f 911 997 1000
f 911 1000 913
f 913 1000 916
f 916 1000 1001
f 916 1001 919
f 916 919 917
f 917 919 918
f 919 1001 1002
f 919 1002 924
f 920 924 1002
f 920 1002 1003
f 920 1003 1004
f 920 1004 921
f 921 1004 922
f 922 1004 1003
f 922 1003 1005
f 922 1005 923
f 923 1005 1006
f 923 1006 925
f 925 1006 1007
f 925 1007 927
f 925 927 926
f 927 1007 1008
f 927 1008 1009
f 927 1009 1010
f 927 1010 1011
f 927 1011 931
f 927 931 930
f 927 930 928
f 928 930 929
f 931 1012 1013
f 931 1013 1014
f 931 1014 932
f 931 1011 1012
f 932 1014 1015
f 932 1015 1016
f 932 1016 933
f 933 1016 934
f 934 1016 1017
f 934 1017 1018
f 934 1018 1019
f 934 1019 1020
f 934 1020 935
f 935 937 936
f 935 1020 1021
f 935 1021 938
f 938 1021 1022
f 938 1022 939
f 939 1022 1023
f 939 1023 940
f 940 1023 941
f 941 1023 942
f 942 1024 947
f 942 947 946
f 942 946 945
f 942 1023 1025
f 942 1025 1026
f 942 1026 1027
f 942 1027 1024
f 947 1024 948
f 948 1024 1028
f 948 1028 1029
f 948 1029 949
f 951 1030 952
f 951 1031 1030
f 952 1030 1031
f 952 1031 953
f 953 1031 1032
f 953 1032 956
f 953 956 955
f 953 955 954
f 956 1033 1034
f 956 1034 1035
f 956 1035 960
f 956 960 959
f 956 1032 1036
f 956 1036 1033
f 960 1035 1037
f 960 1037 1038
f 960 1038 961
f 961 1038 1039
f 961 1039 1040
f 961 1040 1041
f 961 1041 967
f 961 967 965
f 961 965 964
f 961 964 962
f 965 967 966
f 967 1041 1042
f 967 1042 1043
f 967 1043 1044
f 967 1044 1045
f 967 1045 1046
f 967 1046 1047
f 967 1047 1048
f 967 1048 1049
f 967 1049 968
f 968 1049 1050
f 968 1050 969
f 969 1050 1049
f 969 1049 1051
f 969 1051 972
f 972 1051 1052
f 972 1052 974
f 972 974 973
f 974 1052 1051
f 974 1051 1053
f 974 1053 1047
f 974 1047 1054
f 974 1054 1055
f 974 1055 1056
f 974 1056 1057
f 974 1057 980
f 976 980 1058
f 976 1058 978
f 976 978 977
f 978 1058 1059
f 978 1059 1060
f 978 1060 1061
f 978 1061 1062
f 978 1062 981
f 980 1057 1058
f 981 1062 988
f 982 993 1063
f 982 1063 983
f 983 1063 984
f 984 1063 1064
f 984 1064 985
f 985 1003 1065
f 985 1065 1066
f 985 1066 986
f 985 1064 1067
f 985 1067 1003
f 986 1066 1068
f 986 1068 1069
f 986 1069 987
f 987 1069 1070
f 987 1070 995
f 988 994 989
f 988 1062 994
f 990 1071 1072
f 990 1072 991
f 990 994 1073
f 990 1073 1071
f 991 1072 992
f 992 1074 1075
f 992 1075 993
f 992 1072 1076
f 992 1076 1074
f 993 1077 1078
f 993 1078 1063
f 993 1075 1077
f 994 1062 1073
f 995 1070 996
f 996 1070 997
f 997 1070 1079
f 997 1079 1000
f 1000 1079 1002
f 1000 1002 1001
f 1002 1079 1080
f 1002 1080 1003
f 1003 1081 1082
f 1003 1082 1006
f 1003 1006 1005
f 1003 1080 1083
f 1003 1083 1066
f 1003 1066 1065
f 1003 1067 1063
f 1003 1063 1084
f 1003 1084 1085
f 1003 1085 1009
f 1003 1009 1081
f 1006 1082 1081
f 1006 1081 1007
f 1007 1081 1008
f 1008 1081 1009
f 1009 1085 1086
f 1009 1086 1087
f 1009 1087 1010
f 1010 1087 1011
f 1011 1087 1088
f 1011 1088 1012
f 1012 1088 1089
f 1012 1089 1015
f 1012 1015 1013
f 1013 1015 1014
f 1015 1090 1091
f 1015 1091 1092
f 1015 1092 1017
f 1015 1017 1093
f 1015 1093 1016
f 1015 1089 1090
f 1016 1093 1017
f 1017 1092 1094
f 1017 1094 1095
f 1017 1095 1018
f 1018 1095 1019
f 1019 1094 1096
f 1019 1096 1097
f 1019 1097 1098
f 1019 1098 1099
f 1019 1099 1022
f 1019 1022 1021
f 1019 1021 1020
f 1019 1095 1094
f 1022 1099 1100
f 1022 1100 1101
f 1022 1101 1023
f 1023 1101 1025
f 1024 1027 1102
f 1024 1102 1103
f 1024 1103 1104
f 1024 1104 1028
f 1025 1101 1026
f 1026 1105 1106
f 1026 1106 1107
f 1026 1107 1108
f 1026 1108 1109
f 1026 1109 1102
f 1026 1102 1027
f 1026 1101 1105
f 1028 1104 1029
f 1031 1036 1032
f 1033 1036 1110
f 1033 1110 1111
f 1033 1111 1034
f 1034 1111 1112
f 1034 1112 1037
f 1034 1037 1035
f 1036 1113 1110
f 1037 1112 1039
f 1037 1039 1038
f 1039 1114 1115
f 1039 1115 1042
f 1039 1042 1040
f 1039 1112 1116
f 1039 1116 1114
f 1040 1042 1041
f 1042 1117 1118
f 1042 1118 1044
f 1042 1044 1043
f 1042 1115 1117
f 1044 1118 1119
f 1044 1119 1120
f 1044 1120 1046
f 1044 1046 1045
f 1046 1120 1055
f 1046 1055 1054
f 1046 1054 1047
f 1047 1053 1121
f 1047 1121 1048
f 1048 1121 1049
f 1049 1121 1051
f 1051 1121 1053
f 1055 1122 1123
f 1055 1123 1124
f 1055 1124 1056
f 1055 1120 1125
f 1055 1125 1122
f 1056 1124 1126
f 1056 1126 1057
f 1057 1126 1127
f 1057 1127 1058
f 1058 1127 1128
f 1058 1128 1059
f 1059 1128 1060
f 1060 1129 1130
f 1060 1130 1061
f 1060 1128 1126
f 1060 1126 1131
f 1060 1131 1132
f 1060 1132 1129
f 1061 1130 1133
f 1061 1133 1062
f 1062 1133 1073
f 1063 1078 1084
f 1063 1067 1064
f 1066 1083 1068
f 1068 1080 1079
f 1068 1079 1069
f 1068 1083 1080
f 1069 1079 1070
f 1071 1134 1072
f 1071 1073 1135
f 1071 1135 1134
f 1072 1134 1076
f 1073 1133 1135
f 1074 1136 1137
f 1074 1137 1075
f 1074 1076 1136
f 1075 1137 1077
f 1076 1134 1135
f 1076 1135 1133
f 1076 1133 1138
f 1076 1138 1139
f 1076 1139 1136
f 1077 1140 1141
f 1077 1141 1084
f 1077 1084 1078
f 1077 1137 1140
f 1084 1141 1085
f 1085 1141 1140
f 1085 1140 1086
f 1086 1140 1142
f 1086 1142 1087
f 1087 1142 1143
f 1087 1143 1137
f 1087 1137 1144
f 1087 1144 1088
f 1088 1144 1145
f 1088 1145 1146
f 1088 1146 1089
f 1089 1146 1147
f 1089 1147 1090
f 1090 1148 1149
f 1090 1149 1091
f 1090 1147 1148
f 1091 1149 1096
f 1091 1096 1094
f 1091 1094 1092
f 1096 1149 1150
f 1096 1150 1151
f 1096 1151 1152
f 1096 1152 1097
f 1097 1152 1098
f 1098 1152 1153
f 1098 1153 1154
f 1098 1154 1099
f 1099 1154 1100
f 1100 1154 1155
f 1100 1155 1156
f 1100 1156 1101
f 1101 1156 1105
f 1102 1157 1103
f 1102 1109 1158
f 1102 1158 1159
f 1102 1159 1157
f 1103 1157 1104
f 1105 1156 1160
f 1105 1160 1106
f 1106 1161 1162
f 1106 1162 1163
f 1106 1163 1164
f 1106 1164 1108
f 1106 1108 1107
f 1106 1160 1161
f 1108 1165 1109
f 1108 1164 1166
f 1108 1166 1167
f 1108 1167 1168
f 1108 1168 1169
f 1108 1169 1165
f 1109 1165 1158
f 1110 1113 1116
f 1110 1116 1111
f 1111 1116 1112
f 1113 1170 1171
f 1113 1171 1172
f 1113 1172 1116
f 1114 1173 1115
f 1114 1116 1173
f 1115 1173 1117
f 1116 1172 1171
f 1116 1171 1174
f 1116 1174 1175
f 1116 1175 1176
f 1116 1176 1177
f 1116 1177 1178
f 1116 1178 1173
f 1117 1173 1179
f 1117 1179 1180
f 1117 1180 1118
f 1118 1180 1119
f 1119 1180 1181
f 1119 1181 1120
f 1120 1181 1125
f 1122 1125 1181
f 1122 1181 1182
f 1122 1182 1183
f 1122 1183 1184
f 1122 1184 1185
f 1122 1185 1186
f 1122 1186 1187
f 1122 1187 1188
f 1122 1188 1123
f 1123 1188 1124
f 1124 1188 1189
f 1124 1189 1126
f 1126 1128 1127
f 1126 1189 1129
f 1126 1129 1131
f 1129 1132 1131
f 1129 1189 1188
f 1129 1188 1187
f 1129 1187 1186
f 1129 1186 1190
f 1129 1190 1191
f 1129 1191 1192
f 1129 1192 1193
f 1129 1193 1194
f 1129 1194 1195
f 1129 1195 1196
f 1129 1196 1197
f 1129 1197 1198
f 1129 1198 1133
f 1129 1133 1130
f 1133 1198 1138
f 1136 1139 1199
f 1136 1199 1200
f 1136 1200 1137
f 1137 1201 1147
f 1137 1147 1145
f 1137 1145 1144
f 1137 1143 1140
f 1137 1200 1201
f 1138 1198 1139
f 1139 1198 1197
f 1139 1197 1196
f 1139 1196 1199
f 1140 1143 1142
f 1145 1147 1146
f 1147 1201 1148
f 1148 1201 1200
f 1148 1200 1149
f 1149 1200 1202
f 1149 1202 1203
f 1149 1203 1204
f 1149 1204 1150
f 1150 1204 1205
f 1150 1205 1151
f 1151 1205 1206
f 1151 1206 1207
f 1151 1207 1152
f 1152 1207 1153
f 1153 1207 1206
f 1153 1206 1208
f 1153 1208 1209
f 1153 1209 1154
f 1154 1209 1210
f 1154 1210 1211
f 1154 1211 1155
f 1155 1212 1156
f 1155 1211 1213
f 1155 1213 1212
f 1156 1212 1160
f 1158 1165 1214
f 1160 1212 1161
f 1161 1212 1162
f 1162 1212 1213
f 1162 1213 1215
f 1162 1215 1216
f 1162 1216 1217
f 1162 1217 1163
f 1163 1217 1164
f 1164 1217 1218
f 1164 1218 1166
f 1165 1169 1214
f 1166 1218 1219
f 1166 1219 1167
f 1167 1219 1220
f 1167 1220 1221
f 1170 1222 1171
f 1171 1222 1223
f 1171 1223 1174
f 1173 1178 1177
f 1173 1177 1224
f 1173 1224 1225
f 1173 1225 1181
f 1173 1181 1179
f 1174 1226 1175
f 1174 1223 1226
f 1175 1226 1227
f 1175 1227 1228
f 1175 1228 1176
f 1176 1228 1229
f 1176 1229 1230
f 1176 1230 1177
f 1177 1230 1231
f 1177 1231 1232
f 1177 1232 1224
f 1179 1181 1180
f 1181 1225 1233
f 1181 1233 1234
f 1181 1234 1235
f 1181 1235 1182
f 1182 1235 1183
f 1183 1235 1236
f 1183 1236 1237
f 1183 1237 1238
f 1183 1238 1239
f 1183 1239 1240
f 1183 1240 1184
f 1184 1240 1185
f 1185 1240 1241
f 1185 1241 1242
f 1185 1242 1190
f 1185 1190 1186
f 1190 1242 1241
f 1190 1241 1191
f 1191 1243 1192
f 1191 1241 1244
f 1191 1244 1243
f 1192 1245 1204
f 1192 1204 1194
f 1192 1194 1193
f 1192 1243 1245
f 1194 1204 1203
f 1194 1203 1246
f 1194 1246 1195
f 1195 1246 1196
f 1196 1246 1202
f 1196 1202 1199
f 1199 1202 1200
f 1202 1246 1203
f 1204 1245 1205
f 1205 1245 1206
f 1206 1209 1208
f 1206 1245 1243
f 1206 1243 1244
f 1206 1244 1247
f 1206 1247 1248
f 1206 1248 1249
f 1206 1249 1209
f 1209 1250 1210
f 1209 1249 1251
f 1209 1251 1252
f 1209 1252 1250
f 1210 1250 1211
f 1211 1250 1213
f 1213 1250 1215
f 1215 1252 1216
f 1215 1250 1252
f 1216 1253 1254
f 1216 1254 1255
f 1216 1255 1221
f 1216 1221 1220
f 1216 1220 1217
f 1216 1252 1253
f 1217 1220 1219
f 1217 1219 1218
f 1221 1255 1256
f 1221 1256 1257
f 1223 1258 1226
f 1224 1232 1259
f 1224 1259 1260
f 1224 1260 1234
f 1224 1234 1225
f 1225 1234 1233
f 1226 1258 1227
f 1227 1261 1228
f 1228 1261 1229
f 1229 1261 1262
f 1229 1262 1263
f 1229 1263 1231
f 1229 1231 1230
f 1231 1263 1264
f 1231 1264 1232
f 1232 1264 1259
f 1234 1260 1259
f 1234 1259 1236
f 1234 1236 1235
f 1236 1263 1265
f 1236 1265 1237
f 1236 1259 1264
f 1236 1264 1263
f 1237 1266 1239
f 1237 1239 1238
f 1237 1265 1266
f 1239 1267 1248
f 1239 1248 1241
f 1239 1241 1240
f 1239 1266 1267
f 1241 1248 1247
f 1241 1247 1244
f 1248 1268 1251
f 1248 1251 1249
f 1248 1267 1266
f 1248 1266 1269
f 1248 1269 1270
f 1248 1270 1268
f 1251 1268 1252
f 1252 1268 1253
f 1253 1268 1271
f 1253 1271 1272
f 1253 1272 1254
f 1254 1272 1273
f 1254 1273 1274
f 1254 1274 1256
f 1254 1256 1255
f 1256 1274 1275
f 1256 1275 1257
f 1261 1276 1262
f 1262 1276 1277
f 1262 1277 1263
f 1263 1278 1266
f 1263 1266 1265
f 1263 1277 1279
f 1263 1279 1280
f 1263 1280 1281
f 1263 1281 1282
f 1263 1282 1283
f 1263 1283 1272
f 1263 1272 1271
f 1263 1271 1278
f 1266 1278 1270
f 1266 1270 1269
f 1268 1270 1271
f 1270 1278 1271
f 1272 1283 1284
f 1272 1284 1282
f 1272 1282 1273
f 1273 1282 1285
f 1273 1285 1274
f 1274 1285 1275
f 1276 1286 1277
f 1277 1287 1288
f 1277 1288 1279
f 1277 1286 1287
f 1279 1288 1280
f 1280 1288 1289
f 1280 1289 1290
f 1280 1290 1291
f 1280 1291 1281
f 1281 1291 1282
f 1282 1291 1285
f 1282 1284 1283
f 1286 1288 1287

