# https://github.com/mikedh/trimesh
v 86.44100844 35.81564216 11.30204736
v 86.44100844 36.18353592 10.99385360
v 86.72106424 36.03024750 11.22834908
v 86.55736996 35.81564216 11.34671310
v 86.44100844 35.81564216 18.87290706
v 86.44100844 36.33999648 10.86432281
v 87.18749743 36.57997123 10.97598717
v 87.18749743 36.14865009 11.32661346
v 88.54636379 35.97633139 12.04350051
v 87.93497225 35.81564216 11.92066939
v 86.44100844 36.43831228 10.78392421
v 86.58596807 36.96160750 10.41989795
v 96.51515875 35.81564216 26.76312727
v 86.44100844 46.61456617 11.20601620
v 87.85213928 36.75228993 11.11445149
v 87.18749743 37.11701154 10.54496101
v 88.10359826 36.45628346 11.46061133
v 88.68244708 35.81564216 12.26236279
v 88.04936211 35.81564216 11.96980223
v 88.42704349 36.90557835 11.23728197
v 88.91221262 37.05146597 11.35341342
v 88.86586569 36.43936880 11.82463824
v 89.58277074 36.72374580 11.95193516
v 89.12126928 36.14865009 12.19313095
v 89.77506313 35.85792880 12.79835300
v 89.77506313 35.81564216 12.83631908
v 86.44100844 36.60957188 10.64545925
v 86.44100844 37.12335325 10.24123369
v 86.44100844 37.31469965 10.09383712
v 87.18749743 37.54833269 10.20326826
v 87.71309593 37.68576555 10.31046681
v 96.51515875 35.81564216 17.49273254
v 96.51515875 46.61456617 16.88974403
v 86.44100844 46.61456617 3.94781736
v 88.28800142 37.84962434 10.43776373
v 88.91221262 37.48278968 11.01618647
v 89.47824306 37.65616490 11.15018370
v 90.05314726 37.83270969 11.28864802
v 90.63791364 37.49124701 11.87153720
v 90.15767623 36.90663487 12.10379946
v 89.83225806 36.43936880 12.32489560
v 90.23755042 35.99430257 12.92341734
v 90.39138510 35.81564216 13.16907958
v 86.44100844 37.93736976 9.62484488
v 87.22891392 38.19108959 9.73204343
v 87.54447121 38.64144101 9.51764760
v 88.01977817 38.14985948 10.09160325
v 96.44317378 35.81564216 17.42796715
v 96.51515875 36.32413835 16.97460907
v 96.51515875 46.61456617 9.63377777
v 93.42566094 46.61456617 7.73324656
v 92.95232564 46.17901508 7.67741535
v 92.39319859 45.90732407 7.50321753
v 92.70185249 45.60391808 7.81364516
v 92.12596117 45.29205476 7.65731570
v 91.84886287 44.71695776 7.80471227
v 92.69001866 43.88285574 8.68239652
v 92.11511446 43.59636441 8.52829964
v 91.80645927 43.02126741 8.68686296
v 91.23254089 42.77812052 8.54839929
v 90.30855085 41.96516182 8.57743183
v 89.93777157 41.39006482 8.74492805
v 89.36286737 41.17546205 8.61763113
v 88.91221262 41.02217106 8.52159933
v 88.06415344 40.71876635 8.35186924
v 87.53362321 41.24417591 7.79801324
v 87.22299765 40.76845380 7.97444235
v 86.95871901 41.06234465 7.68858211
v 86.44100844 40.49570369 7.86277735
v 88.76035089 38.42472263 10.21890146
v 88.99405976 38.14985948 10.54049584
v 89.76914685 38.14034563 10.91792145
v 90.63791364 38.45220766 11.10328473
v 91.07476289 38.59598223 11.21048265
v 90.63791364 38.02088652 11.44051168
v 91.17238847 37.66567875 12.01446797
v 90.63791364 37.05992329 12.23109702
v 90.81245591 36.17402207 13.07751487
v 91.19802651 35.81564216 13.61350444
v 86.44100844 38.31266175 9.34791752
v 86.96956572 38.49238125 9.41045033
v 86.44100844 38.98924797 8.87222625
v 86.44100844 39.10236280 8.79406024
v 86.72402302 39.48082693 8.63773077
v 87.18749743 39.61191551 8.72482840
v 87.18749743 40.04323923 8.43450042
v 87.78606930 40.21872749 8.55509831
v 88.04936211 39.22816620 9.33005174
v 88.04936211 38.79790157 9.62484488
v 96.00139280 35.81564216 17.05500735
v 96.32187925 35.94990288 17.18453846
v 95.97969936 36.23850855 16.60834894
v 96.51515875 36.46368426 16.83614475
v 96.51515875 46.11135646 9.87497356
v 96.20157440 46.42004764 9.51541374
v 96.00139280 46.61456617 9.29208502
v 93.71262012 46.61456617 7.89404376
v 93.52723113 46.51730691 7.83374481
v 93.23336855 45.90732407 7.95881044
v 93.80432814 45.33962659 8.54393156
v 93.23829899 45.05842173 8.37866920
v 92.96120069 44.45795274 8.53499866
v 93.53610490 44.76453087 8.69356199
v 93.23829899 44.18520521 8.83649340
v 93.75699539 43.66825169 9.42831612
v 93.20575756 43.36590351 9.27421795
v 92.90499159 42.80349250 9.42161581
v 92.38629520 43.32255906 8.82979437
v 92.32811444 42.50220084 9.28538471
v 92.01748887 41.97573348 9.44171545
v 91.43568128 41.66069930 9.33005174
v 91.51062503 42.48634271 8.86105950
v 90.61326014 41.65435631 8.91242555
v 90.88444217 42.20302352 8.71812937
v 90.63791364 40.96931405 9.34791752
v 90.16852295 40.35193169 9.50648085
v 89.76618807 40.76316604 9.05982341
v 88.91221262 40.59084991 8.79629410
v 88.36097351 40.40584523 8.67793007
v 86.44100844 40.39950352 7.92531016
v 89.33525509 38.60655518 10.35513127
v 88.95855955 39.00193396 9.89730707
v 89.77506313 38.75349932 10.46009725
v 92.32515695 39.90580894 10.98045362
v 92.01354426 39.39731275 11.16581690
v 92.35967004 39.03364766 11.64597462
v 92.70579710 38.67104166 12.13059878
v 92.12990578 38.44903809 11.95640225
v 91.74630685 37.87393980 12.18643128
v 90.33221851 39.37405381 10.28813330
v 91.28579121 40.15846968 10.23453338
v 91.54316775 39.88043696 10.56729452
v 91.85970959 40.38258886 10.38863154
v 92.36164299 37.57264815 12.80281945
v 91.82815398 36.94786499 12.99934949
v 91.25423561 36.74911779 12.83185263
v 91.57669501 36.39179697 13.32541032
v 91.90014024 36.03341964 13.82120060
v 91.32523603 35.85158709 13.65370374
v 91.35580580 35.81564216 13.70506979
v 86.44100844 38.36023358 9.31441725
v 86.44100844 39.76837608 8.34293506
v 88.06415344 39.91637931 8.87445883
v 88.58186400 39.39731275 9.44394803
v 95.56552937 35.81564216 16.68874754
v 95.40479387 35.99430257 16.36715348
v 96.51515875 36.50702742 16.79371223
v 95.68780845 36.55037058 16.05895939
v 96.51515875 45.93163824 9.96430505
v 96.01815579 45.93163824 9.63601163
v 95.58623826 45.93163824 9.35461655
v 94.91765180 45.94538205 8.91242555
v 95.19179261 46.61456617 8.76502770
v 94.24413618 46.61456617 8.19553849
v 94.60801206 46.24138723 8.57073152
v 94.09030150 45.94538205 8.41216819
v 94.37923363 45.66629023 8.70696261
v 94.09030150 45.05842173 8.85882692
v 94.06170468 44.24017655 9.29208502
v 94.33190088 43.97482982 9.60028007
v 94.06170468 43.36590351 9.78340949
v 93.48088292 43.09315469 9.59357847
v 94.53799876 42.89335097 10.33949935
v 93.20575756 42.50220084 9.78564207
v 93.22449350 41.82984457 10.21443501
v 92.78863007 41.19237542 10.35513127
v 92.59239308 42.22839550 9.59804620
v 91.10533266 41.15854740 9.46851541
v 89.77506313 39.18482303 10.15190220
v 89.83916016 39.88149348 9.68514382
v 89.15676949 39.58443048 9.57571269
v 89.59361746 40.15952620 9.37471620
v 90.63791364 40.53799033 9.63154519
v 88.88657329 39.88149348 9.25188572
v 92.94345058 40.20075632 11.12338438
v 92.44546179 40.70502384 10.49359623
v 92.58844847 39.62566060 11.33778021
v 93.06277088 39.24613737 11.91173586
v 93.75009200 38.52198190 12.87651838
v 93.14264636 38.20906077 12.75815370
v 92.80046391 37.73333737 12.93458410
v 92.21372587 40.95768458 10.19880181
v 92.36164299 37.14132443 13.16461313
v 92.86160345 36.82417721 13.75643521
v 93.43650765 37.04089559 13.94849816
v 93.16927023 36.48482758 14.27009255
v 94.47883216 36.04293349 15.55423558
v 93.90392667 35.83995762 15.35770554
v 92.55689287 35.81564216 14.47332226
v 92.25119774 35.81564216 14.26785933
v 91.78377872 35.81564216 13.96189814
v 92.36164299 36.63705948 13.59563865
v 94.94920868 35.81564216 16.17732374
v 94.94920868 36.24062160 15.74629854
v 96.31497714 36.81360427 16.32695418
v 96.51515875 37.34007163 15.98749369
v 95.39690465 36.86223519 15.51180306
v 96.51515875 45.49714367 10.18316861
v 95.40873720 45.46542998 9.47074928
v 95.17798711 46.61456617 8.75609480
v 94.79241651 46.61456617 8.51489901
v 94.90877803 45.13453768 9.32558401
v 94.59519368 44.54992554 9.44171545
v 95.37816872 43.77819695 10.35289869
v 94.74606830 43.34370238 10.20996857
v 95.17798711 43.34370238 10.48019690
v 95.54383594 42.73689040 11.09658442
v 94.90384759 42.52757283 10.81072353
v 94.69479093 41.87635988 11.09881829
v 94.24117740 42.31825396 10.52262878
v 93.66627319 42.04021996 10.34619838
v 94.00648270 42.55611566 10.23006822
v 93.22449350 41.39852214 10.48466206
v 93.82799581 41.02323015 11.10105151
v 93.22843811 40.74413834 10.92015467
v 93.51835479 40.44813187 11.30204736
v 93.63767509 39.47871389 12.08816626
v 94.05677424 39.04950579 12.68445542
v 94.64351227 39.34868183 12.85418550
v 94.32499749 38.77358611 13.07528164
v 94.72240192 38.42155049 13.64923729
v 94.06860807 38.18474531 13.38347541
v 93.81123153 37.61493479 13.69166981
v 93.37536940 37.94688361 13.11548094
v 93.85856558 36.71951714 14.52468768
v 94.43346978 36.94257980 14.72345094
v 95.01922199 37.26078611 14.87531460
v 94.34965098 35.81564216 15.69716571
v 93.92463427 35.81564216 15.39790484
v 95.97181014 37.11066726 15.75076499
v 96.30412914 37.68470645 15.47607021
v 96.51515875 37.46270289 15.86912966
v 95.35351522 37.76082240 14.68325165
v 96.51515875 45.19373897 10.34396580
v 96.42344944 45.27936877 10.23453338
v 95.79825241 45.08485023 9.92857348
v 95.61286470 44.35329395 10.19880181
v 96.18875474 44.70427177 10.38863154
v 95.86530951 44.12177525 10.49582882
v 96.36033824 43.63442238 11.13008405
v 95.82290719 43.34581671 10.92238789
v 95.26969513 42.16179469 11.28864802
v 96.11874143 43.05932538 11.30428123
v 96.45796510 42.48105752 11.92066939
v 96.25679638 42.03493477 12.06806661
v 95.98660147 41.45983777 12.25566312
v 95.74401755 41.69558514 11.92960293
v 94.96893045 41.60044020 11.46507842
v 94.40290130 41.30126287 11.29088125
v 95.41071143 41.15854740 12.05689985
v 94.10410828 40.74413834 11.47847776
v 94.53306703 40.31175810 12.06583338
v 94.08635817 40.11089785 11.91843617
v 94.08635817 39.67957414 12.23556411
v 94.87623531 39.96077900 12.55492463
v 95.53397506 40.18489818 12.83185263
v 95.21841776 39.60980247 13.05518199
v 94.97090211 39.01250434 13.35220964
v 95.29730612 38.67738337 13.86363312
v 96.25975516 38.58541186 14.65198524
v 95.81205919 38.39089332 14.48448838
v 94.38712286 37.84645477 13.89489953
v 94.77860973 37.51767552 14.47108904
v 95.81205919 37.95956961 14.85744818
v 96.51515875 38.32217817 15.08524398
v 96.51515875 38.14563082 15.24157473
v 96.51515875 44.90936197 10.50029655
v 96.51515875 43.95157217 11.05415254
v 96.51515875 43.48536262 11.33108054
v 96.51515875 43.20521428 11.50304385
v 96.51515875 42.48105752 11.96310192
v 96.51515875 41.78438708 12.42315998
v 96.38499045 41.03380053 12.82961941
v 95.75979599 40.80862482 12.54375787
v 95.10895964 40.58344911 12.25789634
v 96.10888055 40.45870481 13.03954879
v 95.86037907 39.85083631 13.33657644
v 96.18579596 39.51677186 13.84353347
v 95.61089047 39.25248166 13.63137086
v 95.86333785 38.99136102 14.02889676
v 96.51515875 39.18905170 14.36612435
v 96.51515875 38.97761850 14.53808766
v 96.51515875 41.65752716 12.50802502
v 96.51515875 40.90799971 13.02614881
v 96.51515875 40.62573575 13.23607819
v 96.51515875 41.41438028 12.67105544
v 96.51515875 40.19229899 13.56883869
v 96.51515875 40.05275308 13.67826983
v 96.51515875 39.71340345 13.94849816
f 1 2 3
f 1 3 4
f 1 4 10
f 1 10 19
f 1 19 18
f 1 18 26
f 1 26 43
f 1 43 79
f 1 79 140
f 1 140 191
f 1 191 190
f 1 190 189
f 1 189 229
f 1 229 228
f 1 228 193
f 1 193 145
f 1 145 90
f 1 90 48
f 1 48 32
f 1 32 13
f 1 13 5
f 1 5 14
f 1 14 34
f 1 34 69
f 1 69 120
f 1 120 142
f 1 142 83
f 1 83 82
f 1 82 141
f 1 141 80
f 1 80 44
f 1 44 29
f 1 29 28
f 1 28 27
f 1 27 11
f 1 11 6
f 1 6 2
f 2 6 3
f 3 7 8
f 3 8 9
f 3 9 10
f 3 10 4
f 3 6 11
f 3 11 12
f 3 12 7
f 5 13 14
f 7 15 8
f 7 12 16
f 7 16 15
f 8 15 17
f 8 17 9
f 9 18 19
f 9 19 10
f 9 17 20
f 9 20 21
f 9 21 22
f 9 22 23
f 9 23 24
f 9 24 25
f 9 25 26
f 9 26 18
f 11 27 12
f 12 27 28
f 12 28 29
f 12 29 30
f 12 30 31
f 12 31 16
f 13 32 49
f 13 49 93
f 13 93 147
f 13 147 196
f 13 196 232
f 13 232 266
f 13 266 265
f 13 265 282
f 13 282 281
f 13 281 289
f 13 289 288
f 13 288 287
f 13 287 285
f 13 285 284
f 13 284 286
f 13 286 283
f 13 283 272
f 13 272 271
f 13 271 270
f 13 270 269
f 13 269 268
f 13 268 267
f 13 267 234
f 13 234 198
f 13 198 149
f 13 149 94
f 13 94 50
f 13 50 33
f 13 33 14
f 14 33 50
f 14 50 96
f 14 96 153
f 14 153 200
f 14 200 201
f 14 201 154
f 14 154 97
f 14 97 51
f 14 51 34
f 15 20 17
f 15 16 31
f 15 31 20
f 20 31 35
f 20 35 36
f 20 36 21
f 21 36 37
f 21 37 38
f 21 38 22
f 22 38 23
f 23 38 39
f 23 39 40
f 23 40 41
f 23 41 24
f 24 41 42
f 24 42 25
f 25 42 26
f 26 42 43
f 29 44 45
f 29 45 30
f 30 45 31
f 31 45 46
f 31 46 47
f 31 47 35
f 32 48 49
f 34 51 52
f 34 52 53
f 34 53 54
f 34 54 55
f 34 55 56
f 34 56 57
f 34 57 58
f 34 58 59
f 34 59 60
f 34 60 61
f 34 61 62
f 34 62 63
f 34 63 64
f 34 64 65
f 34 65 66
f 34 66 67
f 34 67 68
f 34 68 69
f 35 47 70
f 35 70 71
f 35 71 37
f 35 37 36
f 37 71 38
f 38 71 72
f 38 72 73
f 38 73 74
f 38 74 75
f 38 75 39
f 39 76 77
f 39 77 40
f 39 75 76
f 40 77 41
f 41 77 78
f 41 78 42
f 42 78 43
f 43 78 79
f 44 80 81
f 44 81 45
f 45 81 46
f 46 81 82
f 46 82 83
f 46 83 84
f 46 84 85
f 46 85 86
f 46 86 87
f 46 87 88
f 46 88 89
f 46 89 47
f 47 89 70
f 48 90 91
f 48 91 49
f 49 91 92
f 49 92 93
f 50 94 95
f 50 95 96
f 51 97 98
f 51 98 52
f 52 98 99
f 52 99 54
f 52 54 53
f 54 99 100
f 54 100 55
f 55 100 101
f 55 101 102
f 55 102 57
f 55 57 56
f 57 102 100
f 57 100 103
f 57 103 104
f 57 104 105
f 57 105 106
f 57 106 107
f 57 107 108
f 57 108 58
f 58 108 59
f 59 108 107
f 59 107 109
f 59 109 110
f 59 110 111
f 59 111 112
f 59 112 113
f 59 113 114
f 59 114 60
f 60 114 61
f 61 114 113
f 61 113 62
f 62 113 115
f 62 115 116
f 62 116 117
f 62 117 63
f 63 117 118
f 63 118 64
f 64 118 119
f 64 119 65
f 65 119 87
f 65 87 66
f 66 87 67
f 67 120 69
f 67 69 68
f 67 87 86
f 67 86 120
f 70 121 72
f 70 72 71
f 70 89 122
f 70 122 121
f 72 121 73
f 73 121 123
f 73 123 74
f 74 124 125
f 74 125 126
f 74 126 127
f 74 127 128
f 74 128 129
f 74 129 76
f 74 76 75
f 74 123 130
f 74 130 116
f 74 116 131
f 74 131 132
f 74 132 133
f 74 133 124
f 76 129 134
f 76 134 135
f 76 135 136
f 76 136 77
f 77 136 78
f 78 136 137
f 78 137 138
f 78 138 139
f 78 139 79
f 79 139 140
f 80 141 81
f 81 141 82
f 83 142 84
f 84 86 85
f 84 142 86
f 86 142 120
f 87 119 143
f 87 143 88
f 88 144 89
f 88 143 144
f 89 144 122
f 90 145 146
f 90 146 91
f 91 146 92
f 92 147 93
f 92 146 148
f 92 148 147
f 94 149 150
f 94 150 95
f 95 151 152
f 95 152 153
f 95 153 96
f 95 150 151
f 97 154 155
f 97 155 156
f 97 156 98
f 98 156 99
f 99 156 100
f 100 102 101
f 100 156 157
f 100 157 158
f 100 158 103
f 103 158 104
f 104 158 159
f 104 159 105
f 105 159 160
f 105 160 161
f 105 161 162
f 105 162 106
f 106 162 107
f 107 162 163
f 107 163 164
f 107 164 165
f 107 165 166
f 107 166 167
f 107 167 109
f 109 167 110
f 110 168 111
f 110 167 166
f 110 166 168
f 111 168 112
f 112 168 113
f 113 168 115
f 115 168 116
f 116 130 123
f 116 123 169
f 116 169 170
f 116 170 171
f 116 171 172
f 116 172 117
f 116 168 173
f 116 173 133
f 116 133 131
f 117 172 118
f 118 172 119
f 119 172 174
f 119 174 143
f 121 122 171
f 121 171 170
f 121 170 169
f 121 169 123
f 122 144 171
f 124 175 125
f 124 133 176
f 124 176 175
f 125 175 177
f 125 177 126
f 126 177 178
f 126 178 179
f 126 179 127
f 127 179 128
f 128 179 180
f 128 180 129
f 129 180 181
f 129 181 134
f 131 133 132
f 133 173 168
f 133 168 182
f 133 182 166
f 133 166 176
f 134 181 135
f 135 137 136
f 135 181 183
f 135 183 138
f 135 138 137
f 138 184 185
f 138 185 186
f 138 186 187
f 138 187 188
f 138 188 189
f 138 189 190
f 138 190 191
f 138 191 140
f 138 140 139
f 138 183 181
f 138 181 192
f 138 192 184
f 143 174 144
f 144 174 172
f 144 172 171
f 145 193 146
f 146 193 187
f 146 187 194
f 146 194 148
f 147 148 195
f 147 195 196
f 148 194 197
f 148 197 195
f 149 198 150
f 150 198 199
f 150 199 151
f 151 199 152
f 152 199 157
f 152 157 155
f 152 155 200
f 152 200 153
f 154 201 155
f 155 157 156
f 155 201 200
f 157 199 202
f 157 202 203
f 157 203 158
f 158 203 160
f 158 160 159
f 160 204 205
f 160 205 163
f 160 163 161
f 160 203 204
f 161 163 162
f 163 204 206
f 163 206 207
f 163 207 208
f 163 208 209
f 163 209 210
f 163 210 211
f 163 211 212
f 163 212 164
f 163 205 204
f 164 212 211
f 164 211 165
f 165 211 213
f 165 213 166
f 166 213 214
f 166 214 215
f 166 215 175
f 166 175 176
f 166 182 168
f 175 215 216
f 175 216 217
f 175 217 177
f 177 217 178
f 178 217 179
f 179 181 180
f 179 217 218
f 179 218 219
f 179 219 220
f 179 220 221
f 179 221 222
f 179 222 223
f 179 223 224
f 179 224 181
f 181 224 192
f 184 223 185
f 184 192 224
f 184 224 223
f 185 223 225
f 185 225 187
f 185 187 186
f 187 226 227
f 187 227 197
f 187 197 194
f 187 193 228
f 187 228 188
f 187 225 223
f 187 223 226
f 188 228 229
f 188 229 189
f 195 197 230
f 195 230 231
f 195 231 196
f 196 231 232
f 197 231 230
f 197 227 233
f 197 233 231
f 198 234 235
f 198 235 199
f 199 235 236
f 199 236 204
f 199 204 202
f 202 204 203
f 204 236 237
f 204 237 235
f 204 235 238
f 204 238 239
f 204 239 240
f 204 240 241
f 204 241 207
f 204 207 206
f 207 242 208
f 207 241 243
f 207 243 244
f 207 244 245
f 207 245 246
f 207 246 247
f 207 247 242
f 208 242 209
f 209 242 248
f 209 248 249
f 209 249 214
f 209 214 210
f 210 213 211
f 210 214 213
f 214 249 250
f 214 250 251
f 214 251 216
f 214 216 215
f 216 251 252
f 216 252 253
f 216 253 217
f 217 253 254
f 217 254 218
f 218 254 219
f 219 254 255
f 219 255 256
f 219 256 220
f 220 256 257
f 220 257 258
f 220 258 221
f 221 259 260
f 221 260 261
f 221 261 233
f 221 233 262
f 221 262 222
f 221 258 259
f 222 262 223
f 223 262 226
f 226 262 263
f 226 263 227
f 227 263 233
f 231 233 264
f 231 264 260
f 231 260 265
f 231 265 266
f 231 266 232
f 233 260 264
f 233 263 262
f 233 261 260
f 234 267 238
f 234 238 235
f 235 237 236
f 238 267 239
f 239 267 268
f 239 268 240
f 240 268 269
f 240 269 243
f 240 243 241
f 242 247 250
f 242 250 248
f 243 269 270
f 243 270 244
f 244 271 272
f 244 272 245
f 244 270 271
f 245 272 273
f 245 273 246
f 246 250 247
f 246 273 250
f 248 250 249
f 250 273 274
f 250 274 275
f 250 275 251
f 251 275 252
f 252 275 256
f 252 256 255
f 252 255 254
f 252 254 253
f 256 276 277
f 256 277 257
f 256 275 274
f 256 274 276
f 257 277 278
f 257 278 279
f 257 279 258
f 258 279 259
f 259 279 280
f 259 280 260
f 260 280 278
f 260 278 281
f 260 281 282
f 260 282 265
f 272 283 273
f 273 284 285
f 273 285 276
f 273 276 274
f 273 283 286
f 273 286 284
f 276 285 287
f 276 287 288
f 276 288 278
f 276 278 277
f 278 288 289
f 278 289 281
f 278 280 279

