# https://github.com/mikedh/trimesh
v 88.50786624 46.61562270 5.42328044
v 88.85273755 46.61562270 5.56094980
v 88.50786624 46.61562270 12.04330579
v 88.50786624 48.50670560 0.43149313
v 89.09336395 46.61562270 5.65952780
v 96.51515875 46.61562270 16.88892593
v 88.50786624 62.75539288 8.34323069
v 88.50786624 48.73104457 -0.15487474
v 90.24398082 46.61562270 6.15071860
v 89.95711032 46.61562270 6.02494734
v 89.67180790 46.61562270 5.90087397
v 96.51515875 62.75539288 12.62797512
v 96.51515875 46.61562270 9.63324308
v 88.50786624 62.75539288 -0.47440492
v 88.63170696 48.79265839 -0.12938194
v 96.38348150 46.61562270 9.54486272
v 96.00177068 46.61562270 9.29161845
v 95.19210622 46.61562270 8.76473593
v 94.79158363 46.61562270 8.51489130
v 94.24292542 46.61562270 8.19536369
v 93.71229237 46.61562270 7.89452960
v 93.42463912 46.61562270 7.73476580
v 92.09061263 46.61562270 7.01752528
v 91.69165811 46.61562270 6.81697094
v 91.46357247 46.61562270 6.70649484
v 90.81145209 46.61562270 6.40566204
v 88.50786624 49.38668413 -0.33843474
v 88.91622535 49.38984341 -0.23815757
v 96.51515875 62.75539288 5.93146816
v 89.45469621 49.68211606 -0.10898667
v 90.25260267 50.61422797 -0.05629675
v 91.20491962 52.17828221 -0.13278030
v 91.93855553 53.25100169 -0.01040868
v 92.89008716 55.59550276 -0.11408420
v 96.51515875 46.63142042 9.62474462
v 93.22398580 62.75539288 -0.47440492
v 88.50786624 51.10872201 -0.47440492
v 88.50786624 50.24612343 -0.45400965
v 88.91230645 50.24612343 -0.43701274
v 89.77448602 51.10872201 -0.39792138
v 89.75567425 50.29509881 -0.19396868
v 96.51515875 62.31935401 5.93146816
v 94.25468213 62.75539288 0.43149313
v 90.41876859 51.10872201 -0.15997485
v 90.69388238 51.92392615 -0.26875048
v 91.49962793 53.69652035 -0.35543166
v 91.49492499 52.91133394 -0.18206929
v 92.04907147 53.69652035 -0.11748513
v 92.24423652 54.55911958 -0.22795994
v 93.00373796 56.28115875 -0.20416374
v 93.71307641 58.19435956 -0.07839377
v 96.51515875 46.89841620 9.49897208
v 93.22398580 61.45675478 -0.47440492
v 93.94194609 62.75539288 -0.23645839
v 88.91230645 51.10872201 -0.47440492
v 89.77448602 51.97132189 -0.47440492
v 90.63744835 52.83392112 -0.45570883
v 96.51515875 61.29244998 5.97395787
v 94.25468213 62.31935401 0.43149313
v 94.09792209 62.75539288 0.09496860
v 91.49962793 54.55911958 -0.46420729
v 92.36180622 56.28115875 -0.44211284
v 93.78361797 58.86895644 -0.15657649
v 93.22398580 58.86895644 -0.39452302
v 96.51515875 51.16401726 7.79935125
v 96.51515875 50.91440013 7.88263279
v 96.51515875 50.41516716 8.05599387
v 96.51515875 49.32032881 8.44690750
v 96.51515875 48.62203502 8.71884657
v 96.51515875 48.40401462 8.80892611
v 96.51515875 47.85422662 9.05197274
v 96.51515875 47.26494110 9.32731146
v 92.36180622 57.14375798 -0.47440492
v 93.94194609 62.31935401 -0.23645839
v 93.22398580 60.59415491 -0.47100657
v 96.51515875 60.59257526 6.00795042
v 94.22019474 61.45675478 0.43149313
v 93.90275576 60.59415491 -0.23475922
v 93.92783726 61.45675478 -0.23645839
v 96.51515875 60.34611871 6.02494734
v 96.51515875 59.73155600 6.06743705
v 93.22398580 59.73155600 -0.45060873
v 93.85572762 59.73155600 -0.21436395
v 96.51515875 53.78973154 7.03282173
v 96.51515875 53.61120802 7.08041155
v 96.51515875 52.79284460 7.30986091
v 96.51515875 51.96816132 7.54610827
v 96.51515875 58.87053641 6.15071860
v 96.51515875 58.03163473 6.24589824
v 96.51515875 57.14375798 6.35977268
v 96.51515875 56.58449020 6.45495104
v 96.51515875 56.26851968 6.51103803
v 96.51515875 55.48649320 6.66400384
v 96.51515875 54.55911958 6.85266266
f 1 2 5
f 1 5 11
f 1 11 10
f 1 10 9
f 1 9 26
f 1 26 25
f 1 25 24
f 1 24 23
f 1 23 22
f 1 22 21
f 1 21 20
f 1 20 19
f 1 19 18
f 1 18 17
f 1 17 16
f 1 16 13
f 1 13 6
f 1 6 3
f 1 3 7
f 1 7 14
f 1 14 37
f 1 37 38
f 1 38 27
f 1 27 8
f 1 8 4
f 1 4 2
f 2 4 5
f 3 6 7
f 4 8 9
f 4 9 10
f 4 10 11
f 4 11 5
f 6 12 7
f 6 13 35
f 6 35 52
f 6 52 72
f 6 72 71
f 6 71 70
f 6 70 69
f 6 69 68
f 6 68 67
f 6 67 66
f 6 66 65
f 6 65 87
f 6 87 86
f 6 86 85
f 6 85 84
f 6 84 94
f 6 94 93
f 6 93 92
f 6 92 91
f 6 91 90
f 6 90 89
f 6 89 88
f 6 88 81
f 6 81 80
f 6 80 76
f 6 76 58
f 6 58 42
f 6 42 29
f 6 29 12
f 7 12 29
f 7 29 43
f 7 43 60
f 7 60 54
f 7 54 36
f 7 36 14
f 8 15 13
f 8 13 16
f 8 16 17
f 8 17 18
f 8 18 19
f 8 19 20
f 8 20 21
f 8 21 22
f 8 22 23
f 8 23 24
f 8 24 25
f 8 25 26
f 8 26 9
f 8 27 28
f 8 28 15
f 13 15 30
f 13 30 31
f 13 31 32
f 13 32 33
f 13 33 34
f 13 34 35
f 14 36 53
f 14 53 73
f 14 73 56
f 14 56 55
f 14 55 37
f 15 28 30
f 27 38 39
f 27 39 28
f 28 39 40
f 28 40 41
f 28 41 30
f 29 42 59
f 29 59 43
f 30 41 31
f 31 41 44
f 31 44 32
f 32 44 45
f 32 45 46
f 32 46 47
f 32 47 48
f 32 48 33
f 33 48 34
f 34 48 49
f 34 49 50
f 34 50 51
f 34 51 52
f 34 52 35
f 36 54 74
f 36 74 53
f 37 55 38
f 38 55 39
f 39 55 56
f 39 56 57
f 39 57 40
f 40 46 45
f 40 45 44
f 40 44 41
f 40 57 46
f 42 58 59
f 43 59 60
f 46 57 61
f 46 61 62
f 46 62 49
f 46 49 47
f 47 49 48
f 49 62 50
f 50 63 51
f 50 62 64
f 50 64 63
f 51 63 65
f 51 65 66
f 51 66 67
f 51 67 68
f 51 68 69
f 51 69 70
f 51 70 71
f 51 71 72
f 51 72 52
f 53 74 75
f 53 75 73
f 54 60 74
f 56 73 61
f 56 61 57
f 58 76 59
f 59 77 78
f 59 78 79
f 59 79 74
f 59 74 60
f 59 76 80
f 59 80 81
f 59 81 77
f 61 73 62
f 62 82 64
f 62 73 82
f 63 64 83
f 63 83 84
f 63 84 85
f 63 85 86
f 63 86 87
f 63 87 65
f 64 82 83
f 73 75 82
f 74 79 75
f 75 79 78
f 75 78 82
f 77 81 88
f 77 88 78
f 78 83 82
f 78 88 89
f 78 89 90
f 78 90 83
f 83 90 91
f 83 91 92
f 83 92 93
f 83 93 94
f 83 94 84

