# https://github.com/mikedh/trimesh
v 73.82492193 62.75539738 5.53170904
v 88.50786624 62.75337687 8.34021278
v 73.82492193 62.75539738 -0.47440492
v 61.23000493 62.75539738 7.57450972
v 86.43852909 42.11077566 13.72236875
v 88.50786624 46.61718692 12.04365861
v 88.50786624 62.75337687 -0.47440492
v 61.23000493 42.21383681 13.64732732
v 61.23000493 62.75539738 -0.47440492
v 86.43852909 42.11077566 6.89635543
v 73.82492193 42.11077566 11.30019009
v 88.50786624 46.61718692 5.42470457
v 88.50786624 51.10945336 -0.47440492
v 61.23000493 42.21383681 6.82826237
v 61.23000493 48.60162561 -0.47440492
v 84.38788353 45.36630444 -0.13254894
v 85.95256949 46.31810599 -0.05611680
v 86.88710806 47.11834914 -0.10892498
v 87.77625469 47.94081912 -0.12977010
v 88.50786624 48.73297768 -0.15339407
v 88.50786624 48.50866827 0.43304321
v 86.12879681 42.11077566 6.79213107
v 74.25213981 42.31487746 0.43165379
v 75.11191570 42.34923118 0.43165379
v 75.97169175 42.41187581 0.43165379
v 76.83413771 42.51291646 0.43165379
v 77.69925390 42.78572697 -0.15756361
v 78.37212204 42.85645491 -0.07835264
v 80.97281073 43.67892618 -0.11448265
v 83.31716848 44.63072772 -0.01164771
v 73.82492193 42.11077566 4.51864585
v 88.50786624 50.24656686 -0.45355980
v 88.04593676 50.24656686 -0.47440492
v 61.23000493 46.87989362 -0.17701803
v 61.68125478 46.32012778 -0.05611680
v 63.24594010 45.36630444 -0.13393707
v 64.31665450 44.63274823 -0.01025701
v 66.66368248 43.68094668 -0.11448265
v 69.26170094 42.85645491 -0.07835264
v 70.79968559 42.51493696 0.43304321
v 71.66213155 42.41187581 0.43304321
v 72.52457751 42.34923118 0.43304321
v 73.38702363 42.31487746 0.43304321
v 62.17522441 47.65790608 -0.47440492
v 61.23000493 48.52079258 -0.47162609
v 83.65627262 45.07530682 -0.18118757
v 82.87126038 45.07126453 -0.35489440
v 84.64421446 45.87756919 -0.27012576
v 85.45859857 46.15240021 -0.16034244
v 82.87126038 44.52160506 -0.11865219
v 86.14481689 46.61718692 -0.13949732
v 87.17815067 47.65386379 -0.23816271
v 86.27298268 46.81522720 -0.19369362
v 88.05661639 48.51270928 -0.24928063
v 88.50786624 49.38772137 -0.33821881
v 85.88314614 42.11077566 6.71153068
v 74.25213981 42.62810192 -0.23538388
v 75.11191570 42.64224802 -0.23538388
v 75.97169175 42.66649793 -0.23538388
v 84.60950343 42.11077566 6.31686653
v 83.91794401 42.11077566 6.11814503
v 83.43732359 42.11077566 5.99029671
v 83.27177654 42.11077566 5.94721704
v 82.87126038 42.11077566 5.85133048
v 81.99012315 42.11077566 5.65260898
v 81.16505877 42.11077566 5.47612203
v 79.34404251 42.11077566 5.09257579
v 77.69925390 42.11077566 4.83548845
v 76.83413771 42.11077566 4.71875677
v 75.97169175 42.11077566 4.62425962
v 75.11191570 42.11077566 4.55477715
v 74.25213981 42.11077566 4.51864585
v 73.82492193 42.31487746 0.43165379
v 76.83413771 42.71297596 -0.21453875
v 77.69925390 43.34549153 -0.39241512
v 80.28392218 43.56575993 -0.20481154
v 82.00881410 44.32760578 -0.22426596
v 88.04593676 49.38367908 -0.45217166
v 84.59615229 46.79704009 -0.47440492
v 61.23000493 46.93647546 -0.20064200
v 61.36084030 46.81522720 -0.19508432
v 62.17522441 46.15240021 -0.16034244
v 62.98960852 45.87958969 -0.26873505
v 64.76256325 45.07328632 -0.35489440
v 63.97755036 45.07732861 -0.18257570
v 64.76256325 44.52160506 -0.11726148
v 65.62500888 44.32558528 -0.22704480
v 67.34990144 43.56575993 -0.20481154
v 69.93723931 42.78774748 -0.15756361
v 70.79968559 42.71499775 -0.21314804
v 71.66213155 42.66649793 -0.23399317
v 72.52457751 42.64224802 -0.23538388
v 73.38702363 42.62810192 -0.23538388
v 63.03767133 46.79704009 -0.47440492
v 61.23000493 47.73873783 -0.43966304
v 80.28392218 44.20837803 -0.44105375
v 82.00881410 45.07126453 -0.46467771
v 83.73370601 45.93415231 -0.45495050
v 85.45859857 46.79704009 -0.39658466
v 86.32104421 47.65992659 -0.43688421
v 87.18348984 48.52281308 -0.45217166
v 75.11191570 43.34549153 -0.47440492
v 75.97169175 43.34549153 -0.47162609
v 76.83413771 43.34549153 -0.45078096
v 79.42414613 44.20837803 -0.47440492
v 61.23000493 47.65790608 -0.41881792
v 62.17522441 46.79704009 -0.39797279
v 65.62500888 45.07328632 -0.46467771
v 67.34990144 44.21039853 -0.44105375
v 63.90011697 45.93415231 -0.45633863
v 69.93723931 43.34751204 -0.39380325
v 70.79968559 43.34751204 -0.45078096
v 71.66213155 43.34751204 -0.47162609
v 72.52457751 43.34751204 -0.47440492
v 73.82492193 43.34549153 -0.47440492
v 61.31277877 47.65790608 -0.43827491
v 68.21234708 44.21039853 -0.47440492
f 1 2 7
f 1 7 3
f 1 3 9
f 1 9 4
f 1 4 2
f 2 5 6
f 2 6 12
f 2 12 21
f 2 21 20
f 2 20 55
f 2 55 32
f 2 32 13
f 2 13 7
f 2 4 8
f 2 8 5
f 3 7 13
f 3 13 33
f 3 33 79
f 3 79 105
f 3 105 102
f 3 102 115
f 3 115 114
f 3 114 117
f 3 117 94
f 3 94 44
f 3 44 15
f 3 15 9
f 4 9 15
f 4 15 45
f 4 45 95
f 4 95 106
f 4 106 80
f 4 80 34
f 4 34 14
f 4 14 8
f 5 10 12
f 5 12 6
f 5 8 11
f 5 11 31
f 5 31 72
f 5 72 71
f 5 71 70
f 5 70 69
f 5 69 68
f 5 68 67
f 5 67 66
f 5 66 65
f 5 65 64
f 5 64 63
f 5 63 62
f 5 62 61
f 5 61 60
f 5 60 56
f 5 56 22
f 5 22 10
f 8 14 31
f 8 31 11
f 10 16 17
f 10 17 18
f 10 18 19
f 10 19 20
f 10 20 21
f 10 21 12
f 10 22 23
f 10 23 24
f 10 24 25
f 10 25 26
f 10 26 27
f 10 27 28
f 10 28 29
f 10 29 30
f 10 30 16
f 13 32 33
f 14 34 35
f 14 35 36
f 14 36 37
f 14 37 38
f 14 38 39
f 14 39 40
f 14 40 41
f 14 41 42
f 14 42 43
f 14 43 31
f 15 44 45
f 16 46 47
f 16 47 48
f 16 48 49
f 16 49 17
f 16 30 50
f 16 50 46
f 17 49 51
f 17 51 18
f 18 52 19
f 18 51 53
f 18 53 52
f 19 52 54
f 19 54 20
f 20 54 55
f 22 56 23
f 23 57 58
f 23 58 59
f 23 59 24
f 23 56 60
f 23 60 61
f 23 61 62
f 23 62 63
f 23 63 64
f 23 64 65
f 23 65 66
f 23 66 67
f 23 67 68
f 23 68 69
f 23 69 70
f 23 70 71
f 23 71 72
f 23 72 31
f 23 31 73
f 23 73 93
f 23 93 57
f 24 59 74
f 24 74 25
f 25 74 27
f 25 27 26
f 27 75 76
f 27 76 28
f 27 74 75
f 28 76 29
f 29 76 77
f 29 77 50
f 29 50 30
f 31 43 73
f 32 55 78
f 32 78 33
f 33 78 79
f 34 80 81
f 34 81 35
f 35 81 82
f 35 82 36
f 36 83 84
f 36 84 85
f 36 85 86
f 36 86 37
f 36 82 83
f 37 86 38
f 38 86 87
f 38 87 88
f 38 88 39
f 39 89 40
f 39 88 89
f 40 89 41
f 41 89 90
f 41 90 42
f 42 90 91
f 42 91 43
f 43 91 92
f 43 92 93
f 43 93 73
f 44 94 45
f 45 94 95
f 46 50 47
f 47 50 77
f 47 77 96
f 47 96 97
f 47 97 98
f 47 98 99
f 47 99 48
f 48 99 53
f 48 53 49
f 49 53 51
f 52 53 99
f 52 99 100
f 52 100 54
f 54 100 101
f 54 101 78
f 54 78 55
f 57 102 103
f 57 103 58
f 57 93 115
f 57 115 102
f 58 103 59
f 59 103 104
f 59 104 74
f 74 104 75
f 75 96 76
f 75 104 96
f 76 96 77
f 78 101 79
f 79 101 100
f 79 100 98
f 79 98 97
f 79 97 105
f 80 106 107
f 80 107 81
f 81 107 82
f 82 107 83
f 83 107 84
f 84 108 109
f 84 109 87
f 84 87 85
f 84 107 110
f 84 110 108
f 85 87 86
f 87 109 88
f 88 109 111
f 88 111 89
f 89 111 90
f 90 112 91
f 90 111 112
f 91 112 113
f 91 113 92
f 92 113 93
f 93 113 114
f 93 114 115
f 94 108 110
f 94 110 116
f 94 116 95
f 94 117 108
f 95 116 106
f 96 104 105
f 96 105 97
f 98 100 99
f 102 105 103
f 103 105 104
f 106 116 107
f 107 116 110
f 108 117 109
f 109 117 112
f 109 112 111
f 112 117 113
f 113 117 114

