# https://github.com/mikedh/trimesh
v 53.03612680 28.10697044 26.79866990
v 53.03612680 34.28696861 26.79866990
v 53.21112279 28.00641050 26.79866990
v 53.30269072 27.49030015 27.84817029
v 53.03612680 27.76536124 27.57839246
v 53.03612680 28.85081684 42.70896244
v 73.82402888 22.96510283 42.69415826
v 73.82402888 27.50804511 26.79866990
v 54.15528832 27.47699207 26.79866990
v 54.10645175 27.45628832 26.90065910
v 53.57332392 27.62930880 27.18195136
v 53.08699801 27.36903646 28.42391508
v 53.87651526 27.33058776 27.47475870
v 53.57332392 27.23150592 28.09656252
v 53.61809120 26.83813993 28.96017971
v 53.03612680 27.38234712 28.46339461
v 53.03612680 28.55653011 43.31596208
v 73.82402888 22.55990686 43.36202238
v 73.82402888 22.35435010 26.79866990
v 54.27534382 27.41044395 26.79866990
v 54.57242995 27.24777278 26.79866990
v 54.39946860 27.17087536 27.18195136
v 53.03612680 27.33946152 28.56702836
v 54.44219995 26.76863560 28.05379325
v 54.17563604 26.62962438 28.71343203
v 53.95180348 26.50984137 29.28917683
v 53.03612680 27.19897220 28.90754056
v 53.03612680 27.84817621 43.52487607
v 73.82402888 21.78204607 43.60218992
v 73.82402888 22.29076076 26.94836331
v 73.38450362 22.35435010 26.79866990
v 54.92242193 27.05848287 26.79866990
v 55.27241392 26.71539814 27.15234172
v 54.98346636 26.60004944 27.77908047
v 54.75149523 26.47878576 28.35482527
v 53.80326041 26.42850450 29.75964268
v 53.37187500 26.67251254 29.75964268
v 53.03612680 26.87511053 29.74812760
v 53.03612680 27.11763790 29.11809846
v 54.44219995 26.39153390 28.96017971
v 55.33549427 25.94049355 28.95359958
v 55.66717190 25.64472872 29.27930695
v 55.06689571 25.77634428 29.75964268
v 54.41167646 26.11055782 29.75964268
v 54.70062401 25.58853505 30.83875207
v 53.03612680 26.95644483 43.60218992
v 53.54890564 26.95644483 43.60218992
v 73.82402888 20.91989220 43.60218992
v 73.82402888 22.13104837 27.37934963
v 73.38450362 22.12956769 27.37934963
v 73.38450362 22.29076076 26.94836331
v 73.18102006 22.36174319 26.79866990
v 55.25817013 26.88102552 26.79866990
v 55.74856533 26.62223129 26.79866990
v 55.80147118 26.57195260 26.85130905
v 55.55932555 26.45216702 27.42540865
v 55.27241392 26.33829643 28.05379325
v 55.89303910 25.75712121 28.70356215
v 54.41167646 25.50424197 31.54116141
v 54.12476483 25.74233245 31.28947880
v 53.94976883 25.64620940 31.86522295
v 53.51227950 26.30280650 30.61996948
v 53.19891365 26.57343071 30.32880734
v 53.03612680 26.63406127 30.42750615
v 53.03612680 26.72870622 30.15937416
v 55.49828112 25.56043564 29.75964268
v 56.16367231 25.52494571 28.95359958
v 56.13518474 25.24692584 29.75964268
v 54.89189843 25.68909499 30.26465247
v 55.21747213 25.41847078 30.58048996
v 55.33345834 25.04136908 31.53458064
v 53.03612680 26.09429096 43.60218992
v 66.48436914 20.91989220 43.60218992
v 73.82402888 20.05773833 43.59560915
v 73.82402888 21.89295788 28.03569803
v 73.38450362 21.89147721 28.03569803
v 72.52173280 21.59127806 28.89767068
v 72.52173280 21.91070285 28.03569803
v 72.52173280 22.14287834 27.41882916
v 72.52173280 22.30850572 26.98784284
v 72.27958717 22.39575758 26.79866990
v 55.82995875 26.58230448 26.79866990
v 55.90117896 26.54829008 26.79866990
v 56.73139292 25.73937367 27.77908047
v 56.46889829 25.61515378 28.35318072
v 54.41167646 25.26171460 32.34720387
v 55.08724343 24.91567108 32.34720387
v 53.82360941 25.57670507 32.34720387
v 53.39222400 25.81627366 32.34720387
v 53.03612680 26.02183043 32.32417372
v 53.03612680 26.27618777 31.49839150
v 53.61605528 25.93901545 31.54116141
v 53.03612680 26.47434887 30.89961655
v 56.99795556 25.16263276 28.89767068
v 56.14535924 24.96447166 30.59693933
v 55.86251689 24.87278549 31.27960891
v 56.95725884 24.89940422 29.68232818
v 56.64185836 24.83285611 30.29261756
v 55.66106797 24.78109675 31.85370852
v 53.03612680 25.19812526 43.47717057
v 53.54890564 25.23213709 43.58080497
v 54.41167646 25.23213709 43.60218992
v 63.03735386 21.78204607 43.60218992
v 62.78299909 21.78204607 43.60054473
v 62.17254840 21.78204607 43.59560915
v 65.62159832 20.91989220 43.59396652
v 73.38450362 20.05773833 43.59560915
v 73.82402888 19.39670434 43.35873199
v 73.82402888 21.73472359 28.47326449
v 73.82402888 21.58240429 28.89767068
v 73.38450362 21.58240429 28.89767068
v 72.52173280 21.39163628 29.46190040
v 71.65896134 21.40790314 29.51618475
v 71.65896134 21.62676799 28.89767068
v 71.65896134 21.94915155 28.03569803
v 71.65896134 22.16210141 27.46817857
v 71.65896134 22.32625069 27.03719225
v 71.65896134 22.42385442 26.79866990
v 56.62761457 26.21259843 26.79866990
v 57.01016470 25.86951113 27.18030617
v 57.57991996 25.73050248 26.89736871
v 57.30725211 25.60775812 27.47311351
v 57.01016470 25.49684630 28.05379325
v 54.92242193 24.84024920 32.93775285
v 54.46051303 25.00735725 33.21904511
v 53.52855792 25.49093132 33.26016983
v 55.51862884 24.71307053 32.34720387
v 55.96018874 24.05499531 34.07279307
v 53.08699801 25.64620940 33.58094291
v 53.03612680 25.89317108 32.78312513
v 57.93805051 25.07390537 28.11465773
v 58.27786800 24.79588550 28.45352473
v 57.64503367 24.88905235 28.89767068
v 57.43951546 24.80475927 29.34181598
v 56.43634015 24.74116993 30.86836236
v 57.21568419 24.70715554 29.91591623
v 57.61044217 24.01358783 31.48523123
v 57.43748082 23.94260540 31.92937718
v 56.99795556 24.28569271 31.48523123
v 56.13518474 24.42765756 32.34720387
v 53.03612680 24.61103248 43.26661396
v 54.41167646 24.36998579 43.47223756
v 55.27241392 24.36998579 43.58574055
v 57.86072638 23.50783192 43.60218992
v 60.44904140 22.64419994 43.60218992
v 59.58626930 22.64419994 43.59725434
v 61.30977629 21.78204607 43.54790622
v 64.75882686 20.91989220 43.56106520
v 69.93341906 20.05773833 43.53803505
v 70.79619052 20.05773833 43.56600079
v 71.65896134 20.05773833 43.57751458
v 72.52173280 20.05773833 43.58738574
v 73.38450362 19.39670434 43.35873199
v 73.82402888 19.17931759 42.69415826
v 73.82402888 21.48480056 29.17896294
v 73.82402888 21.39015818 29.45203052
v 73.38450362 21.39015818 29.45367507
v 73.38450362 21.25410574 29.88466139
v 73.38450362 21.02784523 30.62325987
v 72.52173280 21.26002073 29.89288608
v 71.65896134 21.27776826 29.94717107
v 70.79619052 21.13580083 30.62325987
v 70.79619052 21.30882131 30.05409457
v 70.79619052 21.44339564 29.62310889
v 69.93341906 21.76134232 28.89767068
v 70.79619052 21.69035733 28.89767068
v 70.79619052 22.00386969 28.03569803
v 70.79619052 22.18724204 27.53562319
v 70.79619052 22.34991321 27.10463686
v 71.37408435 22.43864318 26.79866990
v 57.62875653 25.75268432 26.79866990
v 57.77119438 25.68761431 26.79866990
v 58.05403672 25.56339442 26.79866990
v 57.86479695 25.48797511 27.18030617
v 55.27241392 24.38625265 34.07279307
v 54.64568352 24.70271865 34.07279307
v 54.21633275 24.92158607 34.07279307
v 53.54890564 25.26910769 34.07279307
v 53.03612680 25.61663188 33.79808030
v 56.20029973 24.15555525 33.25688073
v 55.79333132 23.97957600 34.69788727
v 56.52994400 23.92190165 33.57600732
v 56.39157415 23.86126853 34.07279307
v 53.03612680 25.68761431 33.53323741
v 58.79878798 25.07094659 27.24939534
v 58.79878798 24.71898551 28.11465773
v 58.72349848 24.44392700 28.89767068
v 59.30342695 23.99288408 29.49644498
v 58.74995141 24.12006276 29.77444750
v 57.91363223 24.15703336 30.66931889
v 58.23717257 23.91746477 30.98844613
v 58.04182758 23.83908668 31.48523123
v 58.72349848 23.57881434 31.48523123
v 58.80285726 23.28453019 32.42451773
v 57.77933295 23.71930367 32.26824418
v 57.86072638 23.45163567 33.21082042
v 57.27265933 23.86866419 32.50347678
v 53.03612680 24.46462817 42.70567334
v 53.97215247 23.93520973 43.13007824
v 54.41167646 23.83317169 43.23371264
v 53.63029906 24.37885698 43.30280309
v 55.27241392 23.63944747 43.34886340
v 56.99795556 22.82165730 43.33899223
v 56.99795556 23.50783192 43.57586938
v 58.72349848 22.64419994 43.53638986
v 61.30977629 21.18164264 43.31102906
v 62.17254840 21.07221150 43.35873199
v 63.89605539 20.91989220 43.47881576
v 59.58626930 21.89591409 43.36037719
v 64.75882686 20.31061757 43.32254286
v 65.62159832 20.23519825 43.35708680
v 69.07268288 20.05773833 43.48868436
v 69.93341906 19.48247552 43.30115790
v 70.79619052 19.44846113 43.32912106
v 71.65896134 19.43071873 43.34063742
v 72.52173280 19.41297120 43.35050859
v 73.38450362 19.18079827 42.69415826
v 73.82402888 19.20889511 41.83218691
v 73.82402888 21.25262763 29.88301620
v 73.82402888 21.02636713 30.62325987
v 73.38450362 20.77200978 31.48523123
v 72.52173280 21.04411209 30.62325987
v 71.65896134 21.07812649 30.62325987
v 70.79619052 20.87552850 31.48523123
v 69.90493149 21.23044322 30.55252551
v 69.59563621 21.35910256 30.21694825
v 69.90493149 21.45818440 29.81557222
v 69.07268288 21.55430746 29.75964268
v 69.07268288 21.84267663 28.89767068
v 69.98225498 22.09111898 27.98305888
v 70.30375940 22.20646768 27.58826234
v 70.79619052 22.47265500 26.79866990
v 69.98225498 22.36765818 27.24939534
v 69.95987198 22.54955499 26.79866990
v 58.35112285 25.44065263 26.79866990
v 54.06778969 24.84468608 34.71269145
v 53.61605528 25.02214601 34.97424395
v 53.03612680 25.52494571 34.16162200
v 53.03612680 25.54712756 34.07279307
v 56.10262788 23.78732732 34.96437407
v 55.66717190 23.91894287 35.26869648
v 55.33549427 24.14964027 34.96437407
v 56.99795556 23.60247687 34.07279307
v 56.99795556 23.41022818 34.93476442
v 58.76826448 25.27502525 26.79866990
v 59.13860546 24.79440740 27.58826234
v 59.58830394 24.10231779 28.90260562
v 59.87725150 23.88936793 29.19212257
v 59.58830394 23.79915986 29.77444750
v 59.05517611 23.90119791 30.07218914
v 58.74995141 23.82577860 30.66931889
v 59.58626930 23.53001376 30.62325987
v 59.91794821 23.04052214 31.79942353
v 59.34412367 23.14551897 32.18763993
v 59.14267475 23.07157776 32.76174018
v 58.99006240 23.01390341 33.21082042
v 58.55867699 23.17509648 33.21082042
v 58.37147185 23.10707026 33.77175976
v 57.89328452 23.23277083 34.06456838
v 53.03612680 24.47941692 42.09538460
v 53.97215247 23.93520973 43.04783008
v 56.31832059 22.96066595 43.25180721
v 56.20233438 22.90742848 42.69415826
v 58.13746479 22.15618642 43.20245908
v 58.72349848 22.04823339 43.29951270
v 60.64845439 21.27776826 43.21890846
v 63.36903277 20.45997809 43.16791257
v 63.89605539 20.39934753 43.24029342
v 67.69713258 19.61557175 43.14159460
v 68.20991206 19.58451357 43.18600971
v 69.07268288 19.53423745 43.25016201
v 70.79619052 19.28283631 42.69415826
v 71.65896134 19.24290436 42.69415826
v 72.52173280 19.20889511 42.69415826
v 72.52173280 19.22663750 41.83218691
v 72.52173280 19.25177813 40.96856907
v 73.38450362 19.21037064 41.83218691
v 73.38450362 19.24290436 40.96856907
v 73.82402888 19.24290436 40.96856907
v 73.82402888 20.77200978 31.48523123
v 73.38450362 20.56645302 32.22053932
v 72.52173280 20.79566973 31.48523123
v 71.65896134 20.83116223 31.48523123
v 70.79619052 20.64335043 32.34720387
v 69.93341906 20.71285733 32.34720387
v 69.93341906 20.94798903 31.48523123
v 69.07268288 21.26002073 30.74663339
v 69.07268288 21.38719940 30.31564707
v 68.20991206 21.31178009 30.92264670
v 68.20991206 21.66669737 29.75964268
v 68.20991206 21.95654722 28.89767068
v 68.20991206 22.16358209 28.33837525
v 69.07268288 22.10590774 28.18703664
v 69.72790021 22.23456452 27.66064190
v 69.07268288 22.49927373 27.17372603
v 69.04216002 22.65602992 26.79866990
v 53.94569955 24.78405552 35.28350195
v 53.42071157 24.96003478 35.79509187
v 53.03612680 25.34157080 34.94627950
v 56.13518474 23.61726305 35.79509187
v 57.04068691 23.22833394 35.78193160
v 55.56950005 23.87457918 35.79509187
v 54.98346636 24.00471663 36.65706323
v 54.41167646 24.28864892 36.65706323
v 54.41167646 24.45132009 35.79509187
v 56.13518474 23.47086131 36.65706323
v 58.20054515 23.03904404 34.34750584
v 57.48631611 23.09967717 35.48747907
v 58.04996744 22.97545470 34.93476442
v 59.37261124 25.04284975 26.79866990
v 59.58626930 24.89348923 26.95987839
v 59.58626930 24.71159242 27.39086407
v 59.58626930 24.44540510 28.03569803
v 60.18858141 23.99584286 28.61802297
v 60.46531855 23.80063797 28.90260562
v 61.30977629 23.52705498 28.89767068
v 61.90394984 23.12777400 29.48328471
v 61.31588151 23.22241895 29.76622217
v 60.44904140 23.50783192 29.75964268
v 60.45311069 23.22389706 30.62490442
v 60.17026834 23.12925211 31.22532392
v 59.61272223 22.98580657 32.42451773
v 60.45311069 22.94439909 31.50168125
v 60.44904140 22.70778928 32.34720387
v 59.58626930 22.79651667 33.21082042
v 58.68483641 22.91630225 34.06456838
v 59.58626930 22.58356681 34.07279307
v 53.03612680 24.50751633 41.23176676
v 53.54890564 24.25020021 40.96856907
v 53.99860540 23.94704228 42.47373048
v 55.27241392 23.38213135 40.96856907
v 55.27241392 23.35551262 41.83218691
v 55.81774961 23.12481522 40.96856907
v 56.22268338 22.92073913 41.83218691
v 56.99795556 22.58652559 41.83218691
v 56.99795556 22.56877806 42.69415826
v 58.07438572 22.13252647 42.69415826
v 58.72349848 21.89147721 42.69415826
v 60.12143178 21.39163628 42.69415826
v 57.64300031 22.30554951 42.69415826
v 60.55281718 21.24671008 42.69415826
v 63.34257985 20.45406310 42.69415826
v 63.89605539 20.32392565 42.69415826
v 64.75882686 20.14055330 42.69415826
v 61.30977629 21.02193024 42.69415826
v 65.62159832 19.97936023 42.69415826
v 66.48436914 19.82260405 42.69415826
v 67.25964260 19.68359540 42.69415826
v 67.69102801 19.61409108 42.69415826
v 68.20991206 19.55197984 42.69415826
v 69.07268288 19.44994180 42.69415826
v 69.93341906 19.35382131 42.69415826
v 69.93341906 19.38043748 41.83218691
v 70.79619052 19.31093315 41.83218691
v 71.65896134 19.28431185 40.96856907
v 71.65896134 19.26065190 41.83218691
v 72.52173280 19.30205938 40.10659643
v 73.38450362 19.29466629 40.10659643
v 73.82402888 19.29318562 40.10659643
v 73.82402888 20.56793112 32.22382971
v 73.38450362 20.45554120 32.65152629
v 72.52173280 20.57976367 32.27811470
v 71.67524041 20.58124177 32.42122734
v 71.39646735 20.49547059 32.81108958
v 70.79619052 20.51173745 32.89004864
v 69.38808272 20.47476684 33.58423201
v 69.08896131 20.58715676 33.26181503
v 69.07268288 20.81193659 32.34720387
v 69.07268288 21.04559020 31.48523123
v 69.93341906 20.54722995 33.03645295
v 68.20991206 21.14910891 31.48523123
v 67.72562015 21.34283570 31.02792565
v 67.34713996 21.80126914 29.75964268
v 66.48436914 22.14435645 29.13783822
v 67.39190724 22.09703397 28.86806039
v 67.13348254 22.24787517 28.56209342
v 67.70934108 22.20203080 28.43707471
v 67.34713996 22.73440801 27.17372603
v 68.20991206 22.32773136 27.90738958
v 69.07268288 22.27301322 27.75605097
v 68.20991206 22.60722934 27.17372603
v 68.66368047 22.70039361 26.79866990
v 68.20991206 22.75658986 26.79866990
v 53.85209698 24.73377427 35.79509187
v 53.27623779 24.88757167 36.65706323
v 53.03612680 25.07833968 36.32806675
v 53.03612680 25.17742152 35.76877262
v 53.03612680 25.27650335 35.26540609
v 53.70762320 24.65243997 36.65706323
v 56.79854256 23.17361837 36.65706323
v 57.35608740 23.04495903 36.06157996
v 57.22992797 22.99024346 36.65706323
v 54.88375986 23.95739415 37.21471346
v 54.46661824 24.11710655 37.50916599
v 56.63778907 23.10707026 37.51903587
v 58.72349848 22.70778928 34.93476442
v 57.80782052 22.91186537 35.78193160
v 59.58626930 24.96299356 26.79866990
v 59.95661028 24.82546301 26.79866990
v 60.07666578 24.78109675 26.79866990
v 60.49787669 24.62877745 26.79866990
v 60.37578655 24.54892125 27.09805673
v 60.46531855 24.12302153 28.06530832
v 60.76444060 23.90119791 28.37127529
v 62.18272290 23.24016392 28.91905499
v 62.47777439 23.03608783 29.22008766
v 61.60482907 23.03165095 30.05738496
v 61.03100452 23.12481522 30.34032241
v 60.74612753 23.03017284 30.91442202
v 61.30977629 22.67229678 31.48523123
v 60.44904140 22.49779563 33.21082042
v 61.38506579 22.39132070 32.42122734
v 61.11443259 22.28484577 33.21082042
v 60.43683098 22.31146450 34.02344366
v 60.71763996 22.16062331 34.27841538
v 60.14381542 22.25526826 34.71269145
v 59.64324444 22.36913885 34.97424395
v 53.03612680 24.51934631 40.96856907
v 53.54890564 24.30787456 40.10659643
v 54.06982433 23.98401289 40.96856907
v 53.03612680 24.57406188 40.10659643
v 54.50120974 23.76514547 40.96856907
v 55.27241392 23.43832759 40.10659643
v 55.88082996 23.15143396 40.10659643
v 56.24913502 22.93996477 40.96856907
v 56.99795556 22.62645240 40.96856907
v 58.14560465 22.15323021 40.96856907
v 57.67555717 22.31146450 41.83218691
v 58.10490794 22.14140024 41.83218691
v 58.72349848 21.90774407 41.83218691
v 59.58626930 21.60014926 41.83218691
v 60.17026834 21.40051005 41.83218691
v 60.60165375 21.26150140 41.83218691
v 61.30977629 21.07368960 40.96856907
v 61.30977629 21.04411209 41.83218691
v 62.97223886 20.57976367 41.83218691
v 63.40362492 20.47180806 41.83218691
v 63.89605539 20.35202248 41.83218691
v 62.17254840 20.79566973 41.83218691
v 62.17254840 20.81933226 40.96856907
v 64.75882686 20.18639510 40.96856907
v 64.75882686 20.16125705 41.83218691
v 65.62159832 19.98675333 41.83218691
v 66.48436914 19.82999971 41.83218691
v 67.74393387 19.62000864 42.10525320
v 69.07268288 19.46768934 41.83218691
v 69.07268288 19.49134929 40.96856907
v 69.93341906 19.41592740 40.96856907
v 70.79619052 19.34494755 40.96856907
v 71.65896134 19.33459310 40.10659643
v 72.52173280 19.38043748 39.24462507
v 73.38450362 19.43811182 38.38100852
v 73.38450362 19.36268994 39.24462507
v 73.82402888 19.32720001 39.68219024
v 73.82402888 20.45702188 32.65481539
v 73.82402888 20.39195187 32.93446374
v 73.38450362 20.32984321 33.21082042
v 72.52173280 20.15829827 34.07279307
v 72.52173280 20.35350316 33.21082042
v 72.52173280 20.47032996 32.70910038
v 71.97232654 20.48215994 32.75844979
v 71.67524041 20.40526252 33.14337645
v 71.65896134 20.19231009 34.07279307
v 70.79619052 20.41561439 33.32103431
v 69.93341906 20.44962622 33.46908382
v 69.08896131 20.40674062 34.03824784
v 68.81425850 20.50877867 33.72899113
v 69.93341906 20.32096944 34.07279307
v 68.20991206 20.70842044 33.21082042
v 68.20991206 20.91693342 32.34720387
v 67.34713996 21.03080401 32.34720387
v 67.40208110 21.26002073 31.47207160
v 67.15179625 21.38867750 31.17432932
v 67.40208110 21.49958932 30.69234904
v 66.48436914 21.94323657 29.75964268
v 65.94513738 22.19167892 29.26614732
v 66.48436914 22.29963453 28.70685190
v 67.39190724 22.37653194 28.10314265
v 66.66139977 23.00207343 26.79866990
v 67.34713996 22.88080975 26.79866990
v 66.48436914 22.55251120 28.03569803
v 67.70934108 22.82757229 26.79866990
v 53.17653130 24.83433421 37.30518759
v 53.03612680 24.94228981 37.12094894
v 53.03612680 25.02066791 36.65706323
v 53.49803571 24.61842814 37.56345098
v 57.06917448 22.91926103 37.51903587
v 57.86072638 22.73588611 36.65706323
v 57.86072638 22.59835557 37.51903587
v 55.21136821 23.76218926 37.50916599
v 54.79219194 23.91598667 37.79045825
v 54.28958760 24.09344402 38.38100852
v 56.56860607 23.07601464 37.95166675
v 58.72349848 22.54955499 35.79509187
v 59.40720402 22.29963453 35.79509187
v 60.90891438 24.48829069 26.79866990
v 61.36471808 24.15555525 27.23294597
v 61.68825713 23.92042355 27.55865269
v 61.36471808 23.82725670 28.06530832
v 62.78299909 23.19136334 28.57525305
v 62.17254840 23.58325123 28.03569803
v 62.78299909 23.00946910 29.07368399
v 63.89605539 22.49927373 29.75964268
v 63.03735386 22.71370426 29.75964268
v 63.43618241 22.20498957 31.02792565
v 62.18272290 22.94883597 29.76622217
v 62.86439251 23.14108465 28.64434286
v 61.31588151 22.94144288 30.62490442
v 62.17254840 22.68560486 30.62325987
v 62.22748890 22.38984260 31.54280597
v 62.55306260 22.19907202 31.86686814
v 61.97720341 22.28040889 32.18105980
v 60.92315817 22.22864953 33.70267059
v 61.72284863 22.20794578 32.75680459
v 61.54581800 22.15027144 33.21082042
v 61.25076651 22.04823339 34.02344366
v 61.30977629 21.83232475 34.93476442
v 59.97085407 22.19759391 35.28350195
v 53.54890564 24.39068696 39.24462507
v 54.20208896 24.05203911 39.24462507
v 54.55818616 23.79324488 40.10659643
v 53.03612680 24.66131374 39.24462507
v 55.27241392 23.52409878 39.24462507
v 54.63347437 23.83317169 39.24462507
v 55.97646717 23.19875643 39.24462507
v 56.40785258 23.00651032 39.24462507
v 56.31221537 22.96806161 40.10659643
v 56.99795556 22.68264865 40.10659643
v 58.21275429 22.17984895 40.10659643
v 58.72349848 21.93436537 40.96856907
v 59.58626930 21.63120487 40.96856907
v 60.23131277 21.41973312 40.96856907
v 60.66269818 21.27924637 40.96856907
v 61.30977629 21.12544896 40.10659643
v 62.17254840 20.86961094 40.10659643
v 63.11060807 20.57828299 40.99159922
v 63.44635627 20.48363804 41.29263125
v 63.83094104 20.40378184 40.99159922
v 63.49926213 20.49694869 40.71853164
v 64.75882686 20.23815446 40.10659643
v 65.62159832 20.06069454 40.10659643
v 65.62159832 20.01041585 40.96856907
v 66.48436914 19.86401154 40.96856907
v 67.41428960 19.68063919 41.82231574
v 67.80904886 19.63035794 41.52950969
v 68.31165320 19.57860115 40.96856907
v 68.14276242 19.57860115 41.82231574
v 68.50089330 19.60374178 40.10659643
v 69.07268288 19.54163054 40.10659643
v 69.93341906 19.46620866 40.10659643
v 70.79619052 19.39818501 40.10659643
v 70.79619052 19.46916487 39.24462507
v 70.30375940 19.61852796 37.90396253
v 71.65896134 19.41592740 39.24462507
v 72.52173280 19.46472799 38.38100852
v 73.38450362 19.54163054 37.51903587
v 73.82402888 19.54163054 37.51903587
v 73.82402888 19.43959250 38.38100852
v 73.82402888 19.40114122 38.82021888
v 73.82402888 19.36417062 39.24462507
v 73.82402888 20.32984321 33.21082042
v 73.82402888 20.23519825 33.64838688
v 73.38450362 20.14499019 34.07279307
v 72.52173280 19.97640403 34.93476442
v 71.65896134 20.01041585 34.93476442
v 70.79619052 20.24998444 34.07279307
v 69.07268288 20.22040950 34.93476442
v 68.20991206 20.44814811 34.33763467
v 68.20991206 20.54722995 33.90664899
v 69.93341906 20.14350951 34.93476442
v 67.34713996 20.82968413 33.21082042
v 66.48436914 20.97312966 33.21082042
v 66.41721950 21.20826137 32.27646951
v 66.65936513 21.29995011 31.75007412
v 66.48436914 21.67557114 30.62325987
v 65.64398132 22.10294896 29.74483786
v 65.37131283 22.25083138 29.44709558
v 65.64398132 22.36913885 28.94702008
v 65.62159832 22.71666047 28.03569803
v 66.46809071 22.91186537 27.12108688
v 65.62159832 23.15291463 26.93684824
v 66.16896929 23.09967717 26.79866990
v 53.03612680 24.83285611 37.82335829
v 53.03612680 24.89940422 37.39237261
v 53.54890564 24.48237570 38.38100852
v 53.09920716 24.78997051 37.88093238
v 56.91249285 22.88968352 38.29546869
v 57.86072638 22.49188064 38.38100852
v 58.79064812 22.37505384 36.69983314
v 59.12436168 22.20203080 37.01731583
v 58.59530313 22.32477258 37.51903587
v 58.44472542 22.27005702 38.38100852
v 55.27241392 23.62022183 38.38100852
v 54.72097301 23.87753539 38.38100852
v 56.49535122 23.04348092 38.52576635
v 56.17791609 23.21354519 38.29546869
v 59.25052110 22.24787517 36.44157103
v 59.83858943 22.15027144 35.79509187
v 59.55778173 22.09555587 36.69983314
v 61.32198544 24.34780137 26.79866990
v 62.17254840 24.02098349 26.95000851
v 62.17254840 23.84648234 27.38099419
v 62.78299909 23.79768176 27.06844708
v 63.10653879 23.28748640 28.10972279
v 63.10653879 22.98136969 28.91905499
v 63.89605539 22.79503857 28.89767068
v 64.75882686 22.58652559 28.89767068
v 64.70999093 22.30850572 29.74483786
v 64.38848652 22.22717142 30.23504282
v 63.89605539 22.28632388 30.41928147
v 63.89605539 22.14731523 30.85191234
v 63.89605539 21.95211033 31.48523123
v 63.10450350 22.14140024 31.54280597
v 62.78299909 22.17393396 31.73197955
v 63.43618241 23.06862155 28.44694459
v 62.78299909 22.07485212 32.09716581
v 62.17254840 21.96541841 33.21082042
v 62.22748890 22.14879333 32.42122734
v 62.17254840 21.75542734 34.07279307
v 61.30977629 21.67261236 35.79509187
v 62.17254840 21.57057432 34.93476442
v 60.44904140 21.94915155 35.79509187
v 60.44904140 21.79535415 36.65706323
v 53.03612680 24.76039300 38.38100852
v 56.99795556 22.75806796 39.24462507
v 58.26769479 22.20203080 39.58349143
v 58.72349848 21.98760283 40.10659643
v 59.58626930 21.68444234 40.10659643
v 60.74612753 21.30734320 40.10659643
v 60.82548503 21.33248383 39.47656792
v 60.90484381 21.35910256 38.90246832
v 61.24059201 21.22896511 39.21172503
v 62.17254840 20.95094781 39.24462507
v 63.03735386 20.72468731 39.24462507
v 62.78299909 20.71433543 40.10659643
v 64.01814617 20.41265561 40.10659643
v 63.03735386 20.65074610 40.10659643
v 64.16465395 20.44814811 39.24462507
v 64.27046566 20.47476684 38.68368574
v 64.75882686 20.31801066 39.24462507
v 65.62159832 20.14055330 39.24462507
v 66.48436914 20.06661209 38.38100852
v 66.48436914 19.98675333 39.24462507
v 66.48436914 19.91577090 40.10659643
v 67.88026779 19.64070981 40.96856907
v 68.63519258 19.62444295 39.66903125
v 68.06950757 19.66732854 40.10659643
v 67.34713996 19.84922535 39.24462507
v 67.34713996 19.92612277 38.38100852
v 69.45930165 19.62000864 38.76428998
v 69.93341906 19.53571298 39.24462507
v 69.98225498 19.60078043 38.43858261
v 69.72993549 19.65106168 38.18854519
v 69.07268288 19.81225475 37.51903587
v 69.98225498 19.70134294 37.57825516
v 69.93341906 19.84626657 36.65706323
v 70.79619052 19.77528414 36.65706323
v 70.79619052 19.66732854 37.37427676
v 70.79619052 19.60521731 37.80526372
v 71.65896134 19.50317926 38.38100852
v 71.65896134 19.58599424 37.66214980
v 72.53394194 19.57564494 37.46310697
v 72.83102807 19.62000864 37.05515016
v 73.38450362 19.61409108 37.02060493
v 73.82402888 19.61557175 37.02389532
v 73.82402888 20.14499019 34.07279307
v 73.82402888 20.05478212 34.51035824
v 73.82402888 19.96753026 34.93476442
v 73.38450362 19.97048647 34.93476442
v 72.52173280 19.82556283 35.79509187
v 71.65896134 19.85661845 35.79509187
v 73.82402888 19.88767406 35.37068569
v 73.38450362 19.81373285 35.79509187
v 70.79619052 19.91577090 35.79509187
v 70.79619052 20.07252708 34.93476442
v 69.07268288 20.06956830 35.79509187
v 68.20991206 20.17456513 35.79509187
v 68.20991206 20.32688443 34.93476442
v 69.93341906 19.98823400 35.79509187
v 67.75003780 20.48363804 34.48239379
v 67.41632488 20.61081671 34.14681653
v 66.48436914 20.77644666 34.07279307
v 65.62159832 20.92876597 34.07279307
v 65.62159832 21.13580083 33.21082042
v 66.08350594 21.35614378 31.94089225
v 65.62159832 21.58240429 31.48523123
v 65.62159832 21.83972042 30.62325987
v 64.96434570 22.16062331 30.02283973
v 64.75882686 22.92221724 28.00115345
v 65.04573913 23.04200282 27.51917317
v 65.62159832 22.98136969 27.36783456
v 65.62159832 23.21058898 26.79866990
v 64.75882686 23.39544200 26.79866990
v 65.43235790 23.25051579 26.79866990
v 53.03612680 24.81658925 37.94344206
v 58.34908821 22.23456452 39.00939182
v 59.02465390 22.16506019 37.51903587
v 59.58626930 21.95950343 37.51903587
v 58.87611083 22.11034462 38.38100852
v 60.44904140 21.66078238 37.51903587
v 62.17254840 24.08457283 26.79866990
v 62.59579395 23.96035036 26.79866990
v 62.78299909 23.86274920 26.90723859
v 62.98037872 23.72669676 27.10792661
v 63.47280920 23.71782299 26.79866990
v 63.89605539 23.45163567 27.17372603
v 63.89605539 23.01242531 28.30218612
v 64.70999093 22.05118960 30.56239539
v 63.89605539 21.71401985 32.34720387
v 64.75882686 21.75838355 31.48523123
v 63.89605539 23.17953336 27.87119980
v 64.46987994 23.10854836 27.69189674
v 63.03735386 21.94028036 32.34720387
v 62.78299909 22.00534780 32.37023402
v 62.78299909 21.79831293 33.21082042
v 63.03735386 21.72880860 33.21082042
v 62.78299909 21.58388240 34.11227259
v 62.78299909 21.41086192 34.90515478
v 62.17051376 21.42860689 35.72435751
v 61.38506579 21.49663311 36.72286330
v 62.78299909 21.39311439 34.98904941
v 62.62428152 21.35614378 35.39042545
v 61.17751294 21.43452188 37.51903587
v 58.67059262 22.08668210 39.27587991
v 59.58626930 21.76429853 39.24462507
v 60.44904140 21.55578556 38.38100852
v 60.50194597 21.46114061 39.21172503
v 60.99437709 21.38424319 38.38100852
v 61.42576250 21.26002073 38.38100852
v 62.17254840 21.04707087 38.38100852
v 63.03735386 20.80749971 38.38100852
v 63.94896125 20.57976367 38.38923320
v 63.73326854 20.55314237 39.24462507
v 64.41086951 20.50582246 38.10794094
v 65.62159832 20.23223948 38.38100852
v 66.48436914 20.16865014 37.51903587
v 67.34713996 19.77824035 40.10659643
v 68.20991206 19.81225475 38.38100852
v 69.13169331 19.69394727 38.43858261
v 67.34713996 20.02816081 37.51903587
v 69.07268288 19.93647464 36.65706323
v 68.20991206 19.91724900 37.51903587
v 68.20991206 20.03999336 36.65706323
v 71.65896134 19.72648356 36.65706323
v 71.65896134 19.64514669 37.23116412
v 73.82402888 19.81077407 35.79509187
v 73.82402888 19.68211730 36.59126445
v 67.34713996 20.15829827 36.65706323
v 67.34713996 20.30174380 35.79509187
v 67.41632488 20.44075245 34.97753434
v 67.17417925 20.52948241 34.71927223
v 66.52099656 20.58567866 34.97753434
v 65.62159832 20.74686915 34.93476442
v 64.75882686 20.92876597 34.93476442
v 64.75882686 21.11213831 34.07279307
v 64.57976094 21.40051005 33.00519682
v 65.15358548 21.34283570 32.74857991
v 64.82394185 21.49219622 32.41629304
v 64.75882686 23.23129272 27.20827126
v 63.91029982 23.60099619 26.79866990
v 59.58626930 21.85155039 38.38100852
v 62.67515273 23.93816851 26.79866990
v 63.12892179 23.81246795 26.79866990
v 64.27046566 21.33691814 33.57929771
v 63.94896125 21.48775934 33.26016983
v 63.09839957 21.49663311 34.13365755
v 63.42804320 21.34135503 34.46265403
v 61.88156620 21.39015818 36.47940536
v 62.45539074 21.30882131 35.96617025
v 61.72284863 21.34579191 37.05350497
v 62.78299909 21.33987692 35.27198687
v 63.23676814 21.29403512 34.93476442
v 63.89605539 20.97460777 35.79509187
v 62.78299909 21.28959824 35.54998875
v 63.03735386 21.04263399 36.65706323
v 62.17254840 21.15354580 37.51903587
v 62.78299909 20.98200343 37.51903587
v 63.03735386 20.91101843 37.51903587
v 63.89605539 20.69363169 37.51903587
v 64.60010929 20.54279306 37.51903587
v 65.03149534 20.45554120 37.51903587
v 65.62159832 20.33723630 37.51903587
v 65.18207305 20.48659682 37.07653512
v 65.66229503 20.44223055 36.73602357
v 65.97565959 20.47328874 36.13231304
v 66.48436914 20.29878502 36.65706323
v 66.52099656 20.43188125 35.82470152
v 66.25443265 20.52060864 35.55656952
v 66.83029184 20.47476684 35.29008144
v 65.66229503 20.58420055 35.82470152
v 64.75882686 20.77496599 35.79509187
v 63.89605539 21.13580083 34.93476442
v 63.94896125 21.28959824 34.13365755
v 63.69664176 21.40642504 33.88690923
v 62.17051376 21.27037260 36.72286330
v 62.78299909 21.10918210 36.67680299
v 62.78299909 21.01601525 37.28709302
v 63.89605539 20.82524725 36.65706323
v 64.84022028 20.60786050 36.73602357
v 65.39980040 20.52948241 36.50079032
f 1 2 8
f 1 8 19
f 1 19 31
f 1 31 52
f 1 52 81
f 1 81 118
f 1 118 170
f 1 170 232
f 1 232 234
f 1 234 296
f 1 296 382
f 1 382 383
f 1 383 482
f 1 482 480
f 1 480 479
f 1 479 582
f 1 582 692
f 1 692 694
f 1 694 693
f 1 693 760
f 1 760 705
f 1 705 763
f 1 763 762
f 1 762 702
f 1 702 701
f 1 701 600
f 1 600 496
f 1 496 401
f 1 401 400
f 1 400 399
f 1 399 398
f 1 398 310
f 1 310 245
f 1 245 235
f 1 235 173
f 1 173 172
f 1 172 171
f 1 171 119
f 1 119 83
f 1 83 82
f 1 82 54
f 1 54 53
f 1 53 32
f 1 32 21
f 1 21 20
f 1 20 9
f 1 9 3
f 1 3 4
f 1 4 5
f 1 5 16
f 1 16 23
f 1 23 27
f 1 27 39
f 1 39 38
f 1 38 65
f 1 65 64
f 1 64 93
f 1 93 91
f 1 91 90
f 1 90 130
f 1 130 184
f 1 184 179
f 1 179 239
f 1 239 238
f 1 238 299
f 1 299 388
f 1 388 387
f 1 387 386
f 1 386 485
f 1 485 484
f 1 484 584
f 1 584 583
f 1 583 695
f 1 695 624
f 1 624 522
f 1 522 421
f 1 421 418
f 1 418 328
f 1 328 260
f 1 260 198
f 1 198 141
f 1 141 100
f 1 100 72
f 1 72 46
f 1 46 28
f 1 28 17
f 1 17 6
f 1 6 2
f 2 6 7
f 2 7 8
f 3 9 10
f 3 10 11
f 3 11 4
f 4 12 5
f 4 11 13
f 4 13 14
f 4 14 15
f 4 15 12
f 5 12 16
f 6 17 7
f 7 18 29
f 7 29 48
f 7 48 74
f 7 74 108
f 7 108 154
f 7 154 218
f 7 218 279
f 7 279 359
f 7 359 454
f 7 454 560
f 7 560 559
f 7 559 558
f 7 558 557
f 7 557 665
f 7 665 747
f 7 747 746
f 7 746 672
f 7 672 668
f 7 668 667
f 7 667 666
f 7 666 562
f 7 562 561
f 7 561 456
f 7 456 455
f 7 455 360
f 7 360 280
f 7 280 220
f 7 220 219
f 7 219 156
f 7 156 155
f 7 155 110
f 7 110 109
f 7 109 75
f 7 75 49
f 7 49 30
f 7 30 19
f 7 19 8
f 7 17 18
f 9 20 10
f 10 20 21
f 10 21 22
f 10 22 13
f 10 13 11
f 12 23 16
f 12 15 23
f 13 22 24
f 13 24 25
f 13 25 14
f 14 25 26
f 14 26 15
f 15 26 27
f 15 27 23
f 17 28 29
f 17 29 18
f 19 30 51
f 19 51 31
f 21 32 22
f 22 32 33
f 22 33 24
f 24 33 34
f 24 34 25
f 25 34 35
f 25 35 26
f 26 36 37
f 26 37 38
f 26 38 39
f 26 39 27
f 26 35 40
f 26 40 41
f 26 41 42
f 26 42 43
f 26 43 44
f 26 44 45
f 26 45 36
f 28 46 47
f 28 47 29
f 29 47 46
f 29 46 72
f 29 72 102
f 29 102 144
f 29 144 145
f 29 145 103
f 29 103 73
f 29 73 48
f 30 49 50
f 30 50 51
f 31 51 52
f 32 53 33
f 33 53 54
f 33 54 55
f 33 55 56
f 33 56 34
f 34 56 35
f 35 56 57
f 35 57 58
f 35 58 40
f 36 45 59
f 36 59 60
f 36 60 61
f 36 61 62
f 36 62 63
f 36 63 37
f 37 63 64
f 37 64 65
f 37 65 38
f 40 58 41
f 41 58 42
f 42 66 43
f 42 58 67
f 42 67 68
f 42 68 66
f 43 66 69
f 43 69 44
f 44 69 45
f 45 69 70
f 45 70 71
f 45 71 59
f 48 73 107
f 48 107 74
f 49 75 76
f 49 76 50
f 50 76 77
f 50 77 78
f 50 78 51
f 51 78 79
f 51 79 80
f 51 80 81
f 51 81 52
f 54 82 55
f 55 82 83
f 55 83 84
f 55 84 85
f 55 85 56
f 56 85 58
f 56 58 57
f 58 85 67
f 59 86 61
f 59 61 60
f 59 71 87
f 59 87 86
f 61 88 89
f 61 89 90
f 61 90 91
f 61 91 92
f 61 92 62
f 61 86 88
f 62 92 63
f 63 93 64
f 63 92 93
f 66 68 70
f 66 70 69
f 67 85 94
f 67 94 68
f 68 95 96
f 68 96 71
f 68 71 70
f 68 94 97
f 68 97 98
f 68 98 95
f 71 96 99
f 71 99 87
f 72 100 101
f 72 101 102
f 73 103 104
f 73 104 105
f 73 105 106
f 73 106 152
f 73 152 107
f 74 107 153
f 74 153 108
f 75 109 76
f 76 109 110
f 76 110 111
f 76 111 77
f 77 111 112
f 77 112 113
f 77 113 114
f 77 114 78
f 78 114 115
f 78 115 116
f 78 116 79
f 79 116 117
f 79 117 80
f 80 117 81
f 81 117 118
f 83 119 120
f 83 120 84
f 84 120 121
f 84 121 122
f 84 122 85
f 85 122 123
f 85 123 94
f 86 87 124
f 86 124 125
f 86 125 126
f 86 126 88
f 87 99 127
f 87 127 128
f 87 128 124
f 88 126 129
f 88 129 130
f 88 130 89
f 89 130 90
f 91 93 92
f 94 123 131
f 94 131 132
f 94 132 133
f 94 133 134
f 94 134 97
f 95 98 96
f 96 98 135
f 96 135 99
f 97 134 136
f 97 136 98
f 98 136 137
f 98 137 138
f 98 138 139
f 98 139 135
f 99 135 139
f 99 139 138
f 99 138 140
f 99 140 127
f 100 141 142
f 100 142 101
f 101 142 143
f 101 143 102
f 102 143 144
f 103 145 146
f 103 146 104
f 104 146 105
f 105 146 147
f 105 147 148
f 105 148 106
f 106 148 149
f 106 149 150
f 106 150 151
f 106 151 152
f 107 152 153
f 108 153 154
f 110 155 111
f 111 155 156
f 111 156 157
f 111 157 112
f 112 157 158
f 112 158 159
f 112 159 160
f 112 160 113
f 113 160 161
f 113 161 224
f 113 224 162
f 113 162 163
f 113 163 164
f 113 164 165
f 113 165 166
f 113 166 114
f 114 166 167
f 114 167 168
f 114 168 115
f 115 168 116
f 116 168 169
f 116 169 117
f 117 169 170
f 117 170 118
f 119 171 121
f 119 121 120
f 121 171 172
f 121 172 122
f 122 172 173
f 122 173 123
f 123 173 174
f 123 174 131
f 124 128 175
f 124 175 176
f 124 176 177
f 124 177 125
f 125 177 178
f 125 178 126
f 126 178 179
f 126 179 129
f 127 140 180
f 127 180 128
f 128 181 175
f 128 180 182
f 128 182 183
f 128 183 181
f 129 179 184
f 129 184 130
f 131 174 173
f 131 173 185
f 131 185 132
f 132 185 186
f 132 186 187
f 132 187 134
f 132 134 133
f 134 187 188
f 134 188 189
f 134 189 190
f 134 190 136
f 136 190 137
f 137 190 191
f 137 191 138
f 138 191 192
f 138 192 193
f 138 193 194
f 138 194 195
f 138 195 196
f 138 196 197
f 138 197 182
f 138 182 180
f 138 180 140
f 141 198 199
f 141 199 200
f 141 200 201
f 141 201 142
f 142 201 202
f 142 202 203
f 142 203 204
f 142 204 143
f 143 204 146
f 143 146 144
f 144 146 145
f 146 204 205
f 146 205 147
f 147 206 207
f 147 207 208
f 147 208 148
f 147 205 209
f 147 209 206
f 148 208 210
f 148 210 211
f 148 211 149
f 149 212 213
f 149 213 214
f 149 214 150
f 149 211 212
f 150 214 215
f 150 215 216
f 150 216 153
f 150 153 151
f 151 153 152
f 153 216 217
f 153 217 154
f 154 217 277
f 154 277 218
f 156 219 157
f 157 219 158
f 158 219 159
f 159 219 220
f 159 220 221
f 159 221 160
f 160 221 222
f 160 222 161
f 161 222 223
f 161 223 224
f 162 224 225
f 162 225 163
f 163 225 226
f 163 226 227
f 163 227 164
f 164 227 165
f 165 227 228
f 165 228 229
f 165 229 230
f 165 230 231
f 165 231 166
f 166 231 167
f 167 231 168
f 168 231 169
f 169 232 170
f 169 231 233
f 169 233 234
f 169 234 232
f 173 235 185
f 175 181 236
f 175 236 176
f 176 236 177
f 177 236 178
f 178 236 237
f 178 237 238
f 178 238 239
f 178 239 179
f 181 183 240
f 181 240 241
f 181 241 242
f 181 242 236
f 182 243 183
f 182 197 243
f 183 243 244
f 183 244 240
f 185 245 246
f 185 246 186
f 185 235 245
f 186 246 247
f 186 247 187
f 187 247 188
f 188 247 248
f 188 248 249
f 188 249 250
f 188 250 191
f 188 191 189
f 189 191 190
f 191 250 251
f 191 251 193
f 191 193 192
f 193 251 252
f 193 252 253
f 193 253 254
f 193 254 194
f 194 254 255
f 194 255 256
f 194 256 257
f 194 257 195
f 195 257 258
f 195 258 196
f 196 243 197
f 196 258 259
f 196 259 243
f 198 260 261
f 198 261 199
f 199 262 200
f 199 261 263
f 199 263 264
f 199 264 262
f 200 262 202
f 200 202 201
f 202 262 203
f 203 262 265
f 203 265 205
f 203 205 204
f 205 265 209
f 206 209 265
f 206 265 266
f 206 266 267
f 206 267 268
f 206 268 210
f 206 210 207
f 207 210 208
f 210 268 269
f 210 269 270
f 210 270 271
f 210 271 213
f 210 213 211
f 211 213 212
f 213 272 214
f 213 271 272
f 214 272 273
f 214 273 274
f 214 274 217
f 214 217 215
f 215 217 216
f 217 274 275
f 217 275 276
f 217 276 277
f 218 277 278
f 218 278 279
f 220 280 221
f 221 280 281
f 221 281 282
f 221 282 222
f 222 282 223
f 223 282 283
f 223 283 224
f 224 284 285
f 224 285 286
f 224 286 225
f 224 283 284
f 225 286 226
f 226 286 287
f 226 287 288
f 226 288 228
f 226 228 227
f 228 288 289
f 228 289 290
f 228 290 229
f 229 290 291
f 229 291 292
f 229 292 293
f 229 293 294
f 229 294 230
f 230 294 231
f 231 294 233
f 233 294 295
f 233 295 234
f 234 295 296
f 236 297 237
f 236 242 297
f 237 297 298
f 237 298 299
f 237 299 238
f 240 300 241
f 240 244 301
f 240 301 300
f 241 302 303
f 241 303 304
f 241 304 305
f 241 305 297
f 241 297 242
f 241 300 306
f 241 306 302
f 243 259 307
f 243 307 244
f 244 308 301
f 244 307 309
f 244 309 308
f 245 310 246
f 246 310 311
f 246 311 312
f 246 312 313
f 246 313 247
f 247 313 314
f 247 314 248
f 248 314 315
f 248 315 316
f 248 316 317
f 248 317 318
f 248 318 319
f 248 319 320
f 248 320 249
f 249 252 250
f 249 320 321
f 249 321 252
f 250 252 251
f 252 321 253
f 253 322 254
f 253 321 323
f 253 323 324
f 253 324 322
f 254 322 255
f 255 322 325
f 255 325 256
f 256 326 257
f 256 325 327
f 256 327 326
f 257 326 258
f 258 326 307
f 258 307 259
f 260 328 261
f 261 328 329
f 261 329 330
f 261 330 331
f 261 331 332
f 261 332 263
f 262 264 265
f 263 332 333
f 263 333 334
f 263 334 335
f 263 335 336
f 263 336 264
f 264 337 338
f 264 338 339
f 264 339 266
f 264 266 265
f 264 336 340
f 264 340 337
f 266 339 341
f 266 341 267
f 267 342 343
f 267 343 344
f 267 344 269
f 267 269 268
f 267 341 345
f 267 345 342
f 269 344 346
f 269 346 347
f 269 347 348
f 269 348 349
f 269 349 350
f 269 350 351
f 269 351 352
f 269 352 272
f 269 272 270
f 270 272 271
f 272 352 353
f 272 353 354
f 272 354 355
f 272 355 356
f 272 356 273
f 273 356 275
f 273 275 274
f 275 356 355
f 275 355 276
f 276 355 450
f 276 450 357
f 276 357 278
f 276 278 277
f 278 357 358
f 278 358 359
f 278 359 279
f 280 360 281
f 281 360 455
f 281 455 361
f 281 361 362
f 281 362 282
f 282 362 283
f 283 362 363
f 283 363 284
f 284 363 364
f 284 364 365
f 284 365 285
f 285 366 367
f 285 367 368
f 285 368 369
f 285 369 286
f 285 365 370
f 285 370 366
f 286 369 287
f 287 369 289
f 287 289 288
f 289 371 372
f 289 372 290
f 289 369 371
f 290 372 373
f 290 373 374
f 290 374 291
f 291 374 375
f 291 375 376
f 291 376 377
f 291 377 292
f 292 377 378
f 292 378 379
f 292 379 293
f 293 380 294
f 293 379 381
f 293 381 380
f 294 380 295
f 295 382 296
f 295 380 381
f 295 381 383
f 295 383 382
f 297 384 298
f 297 305 384
f 298 385 386
f 298 386 387
f 298 387 388
f 298 388 299
f 298 384 389
f 298 389 385
f 300 301 390
f 300 390 306
f 301 308 391
f 301 391 392
f 301 392 390
f 302 306 393
f 302 393 303
f 303 393 304
f 304 393 394
f 304 394 389
f 304 389 384
f 304 384 305
f 306 390 395
f 306 395 393
f 307 326 396
f 307 396 309
f 308 397 391
f 308 309 397
f 309 396 397
f 310 398 311
f 311 398 399
f 311 399 400
f 311 400 312
f 312 400 401
f 312 401 402
f 312 402 313
f 313 402 403
f 313 403 314
f 314 403 404
f 314 404 316
f 314 316 315
f 316 404 405
f 316 405 406
f 316 406 317
f 317 407 318
f 317 406 407
f 318 407 408
f 318 408 319
f 319 408 409
f 319 409 320
f 320 409 321
f 321 409 323
f 322 324 325
f 323 409 410
f 323 410 324
f 324 411 327
f 324 327 325
f 324 410 412
f 324 412 413
f 324 413 411
f 326 327 396
f 327 411 414
f 327 414 415
f 327 415 416
f 327 416 417
f 327 417 396
f 328 418 329
f 329 419 420
f 329 420 330
f 329 418 421
f 329 421 419
f 330 420 422
f 330 422 331
f 331 423 333
f 331 333 332
f 331 422 423
f 333 423 424
f 333 424 425
f 333 425 335
f 333 335 334
f 335 425 426
f 335 426 427
f 335 427 428
f 335 428 340
f 335 340 336
f 337 429 430
f 337 430 338
f 337 340 428
f 337 428 429
f 338 430 339
f 339 431 432
f 339 432 341
f 339 430 431
f 341 432 433
f 341 433 434
f 341 434 435
f 341 435 345
f 342 436 437
f 342 437 438
f 342 438 343
f 342 345 439
f 342 439 440
f 342 440 436
f 343 438 441
f 343 441 442
f 343 442 344
f 344 442 443
f 344 443 346
f 345 435 439
f 346 443 444
f 346 444 347
f 347 444 348
f 348 444 445
f 348 445 349
f 349 445 350
f 350 446 351
f 350 445 446
f 351 446 352
f 352 446 447
f 352 447 353
f 353 447 448
f 353 448 449
f 353 449 354
f 354 449 355
f 355 449 450
f 357 450 451
f 357 451 452
f 357 452 453
f 357 453 358
f 358 453 359
f 359 453 454
f 361 455 456
f 361 456 561
f 361 561 457
f 361 457 458
f 361 458 459
f 361 459 460
f 361 460 362
f 362 461 363
f 362 460 461
f 363 461 364
f 364 461 462
f 364 462 463
f 364 463 365
f 365 463 464
f 365 464 465
f 365 465 370
f 366 466 467
f 366 467 367
f 366 370 465
f 366 465 468
f 366 468 466
f 367 467 469
f 367 469 470
f 367 470 368
f 368 470 371
f 368 371 369
f 371 470 471
f 371 471 472
f 371 472 372
f 372 472 473
f 372 473 474
f 372 474 373
f 373 474 473
f 373 473 475
f 373 475 374
f 374 476 477
f 374 477 376
f 374 376 375
f 374 475 476
f 376 478 377
f 376 477 478
f 377 478 378
f 378 479 480
f 378 480 381
f 378 381 379
f 378 478 481
f 378 481 479
f 381 482 383
f 381 480 482
f 385 483 484
f 385 484 485
f 385 485 386
f 385 389 483
f 389 394 486
f 389 486 483
f 390 392 487
f 390 487 395
f 391 397 392
f 392 397 488
f 392 488 489
f 392 489 487
f 393 395 490
f 393 490 491
f 393 491 394
f 394 492 486
f 394 491 492
f 395 487 493
f 395 493 490
f 396 494 397
f 396 417 495
f 396 495 494
f 397 494 488
f 401 403 402
f 401 496 403
f 403 496 497
f 403 497 404
f 404 497 498
f 404 498 499
f 404 499 405
f 405 500 406
f 405 499 501
f 405 501 500
f 406 502 503
f 406 503 504
f 406 504 505
f 406 505 506
f 406 506 407
f 406 500 507
f 406 507 502
f 407 410 508
f 407 508 409
f 407 409 408
f 407 506 410
f 409 508 410
f 410 506 509
f 410 509 510
f 410 510 511
f 410 511 512
f 410 512 412
f 411 413 513
f 411 513 414
f 412 512 514
f 412 514 515
f 412 515 413
f 413 515 516
f 413 516 513
f 414 513 415
f 415 513 516
f 415 516 517
f 415 517 416
f 416 518 417
f 416 517 518
f 417 518 495
f 419 519 520
f 419 520 521
f 419 521 420
f 419 421 519
f 420 521 422
f 421 522 519
f 422 521 423
f 423 523 424
f 423 521 524
f 423 524 523
f 424 523 525
f 424 525 526
f 424 526 527
f 424 527 425
f 425 527 426
f 426 527 528
f 426 528 529
f 426 529 427
f 427 529 530
f 427 530 429
f 427 429 428
f 429 530 430
f 430 530 431
f 431 531 432
f 431 530 531
f 432 532 533
f 432 533 433
f 432 531 532
f 433 533 434
f 434 534 535
f 434 535 440
f 434 440 435
f 434 533 534
f 435 440 439
f 436 536 437
f 436 440 536
f 437 536 537
f 437 537 438
f 438 537 538
f 438 538 441
f 440 535 536
f 441 538 539
f 441 539 540
f 441 540 541
f 441 541 542
f 441 542 442
f 442 542 443
f 443 542 444
f 444 543 544
f 444 544 445
f 444 542 543
f 445 545 546
f 445 546 547
f 445 547 446
f 445 544 545
f 446 547 546
f 446 546 447
f 447 546 548
f 447 548 549
f 447 549 550
f 447 550 448
f 448 550 449
f 449 550 551
f 449 551 450
f 450 551 552
f 450 552 553
f 450 553 554
f 450 554 451
f 451 554 555
f 451 555 452
f 452 555 556
f 452 556 557
f 452 557 558
f 452 558 559
f 452 559 453
f 453 559 560
f 453 560 454
f 457 561 562
f 457 562 563
f 457 563 458
f 458 564 565
f 458 565 463
f 458 463 459
f 458 563 564
f 459 463 462
f 459 462 461
f 459 461 460
f 463 565 566
f 463 566 464
f 464 566 465
f 465 566 468
f 466 468 567
f 466 567 568
f 466 568 467
f 467 568 569
f 467 569 469
f 468 570 567
f 468 566 675
f 468 675 570
f 469 569 571
f 469 571 471
f 469 471 470
f 471 571 572
f 471 572 573
f 471 573 574
f 471 574 472
f 472 574 473
f 473 574 575
f 473 575 475
f 475 575 476
f 476 576 577
f 476 577 578
f 476 578 477
f 476 575 576
f 477 481 478
f 477 578 579
f 477 579 481
f 479 481 580
f 479 580 581
f 479 581 582
f 481 579 580
f 483 583 584
f 483 584 484
f 483 486 583
f 486 492 585
f 486 585 586
f 486 586 583
f 487 587 493
f 487 489 588
f 487 588 587
f 488 494 589
f 488 589 489
f 489 589 590
f 489 590 591
f 489 591 592
f 489 592 588
f 490 493 491
f 491 493 593
f 491 593 594
f 491 594 492
f 492 594 524
f 492 524 520
f 492 520 519
f 492 519 585
f 493 587 595
f 493 595 596
f 493 596 593
f 494 495 597
f 494 597 589
f 495 518 598
f 495 598 599
f 495 599 597
f 496 600 497
f 497 600 498
f 498 600 601
f 498 601 602
f 498 602 501
f 498 501 499
f 500 501 602
f 500 602 603
f 500 603 604
f 500 604 507
f 502 507 605
f 502 605 503
f 503 605 606
f 503 606 607
f 503 607 577
f 503 577 608
f 503 608 609
f 503 609 610
f 503 610 504
f 504 610 505
f 505 610 611
f 505 611 612
f 505 612 613
f 505 613 614
f 505 614 509
f 505 509 506
f 507 604 615
f 507 615 605
f 509 614 510
f 510 614 511
f 511 614 616
f 511 616 512
f 512 617 514
f 512 616 618
f 512 618 617
f 514 617 619
f 514 619 515
f 515 619 516
f 516 619 517
f 517 620 518
f 517 619 621
f 517 621 620
f 518 620 622
f 518 622 623
f 518 623 598
f 519 522 585
f 520 524 521
f 522 624 585
f 523 524 594
f 523 594 593
f 523 593 525
f 525 593 596
f 525 596 595
f 525 595 526
f 526 595 587
f 526 587 625
f 526 625 527
f 527 625 528
f 528 625 626
f 528 626 529
f 529 626 627
f 529 627 530
f 530 627 628
f 530 628 531
f 531 628 532
f 532 628 533
f 533 628 629
f 533 629 534
f 534 629 630
f 534 630 631
f 534 631 632
f 534 632 535
f 535 632 633
f 535 633 634
f 535 634 635
f 535 635 536
f 536 635 539
f 536 539 538
f 536 538 537
f 539 636 540
f 539 635 637
f 539 637 636
f 540 636 638
f 540 638 639
f 540 639 640
f 540 640 641
f 540 641 541
f 541 641 642
f 541 642 643
f 541 643 644
f 541 644 543
f 541 543 542
f 543 644 645
f 543 645 544
f 544 645 545
f 545 645 546
f 546 645 548
f 548 646 549
f 548 645 647
f 548 647 648
f 548 648 649
f 548 649 646
f 549 646 650
f 549 650 651
f 549 651 550
f 550 651 551
f 551 651 552
f 552 651 553
f 553 651 652
f 553 652 650
f 553 650 653
f 553 653 654
f 553 654 655
f 553 655 656
f 553 656 657
f 553 657 658
f 553 658 659
f 553 659 660
f 553 660 554
f 554 660 555
f 555 660 659
f 555 659 661
f 555 661 662
f 555 662 556
f 556 662 663
f 556 663 664
f 556 664 557
f 557 664 665
f 562 666 563
f 563 666 667
f 563 667 668
f 563 668 669
f 563 669 564
f 564 670 671
f 564 671 565
f 564 669 672
f 564 672 673
f 564 673 670
f 565 671 674
f 565 674 675
f 565 675 566
f 567 676 677
f 567 677 678
f 567 678 568
f 567 570 679
f 567 679 676
f 568 678 680
f 568 680 571
f 568 571 569
f 570 675 674
f 570 674 679
f 571 680 681
f 571 681 682
f 571 682 572
f 572 682 683
f 572 683 573
f 573 683 684
f 573 684 685
f 573 685 574
f 574 685 686
f 574 686 687
f 574 687 575
f 575 687 576
f 576 687 577
f 577 687 688
f 577 688 608
f 577 607 578
f 578 607 689
f 578 689 579
f 579 690 691
f 579 691 580
f 579 689 690
f 580 691 581
f 581 692 582
f 581 691 690
f 581 690 693
f 581 693 694
f 581 694 692
f 583 586 695
f 585 624 586
f 586 624 695
f 587 588 626
f 587 626 625
f 588 592 696
f 588 696 626
f 589 597 590
f 590 697 591
f 590 597 599
f 590 599 698
f 590 698 697
f 591 697 592
f 592 697 699
f 592 699 696
f 598 623 599
f 599 623 700
f 599 700 698
f 600 701 601
f 601 701 702
f 601 702 602
f 602 702 703
f 602 703 603
f 603 703 704
f 603 704 604
f 604 705 706
f 604 706 615
f 604 704 705
f 605 615 606
f 606 615 607
f 607 615 707
f 607 707 689
f 608 688 609
f 609 611 610
f 609 688 611
f 611 688 708
f 611 708 612
f 612 709 613
f 612 708 710
f 612 710 709
f 613 709 614
f 614 709 616
f 615 706 711
f 615 711 712
f 615 712 707
f 616 709 713
f 616 713 714
f 616 714 618
f 617 618 714
f 617 714 713
f 617 713 715
f 617 715 619
f 619 715 716
f 619 716 717
f 619 717 718
f 619 718 621
f 620 621 719
f 620 719 720
f 620 720 623
f 620 623 622
f 621 718 721
f 621 721 722
f 621 722 719
f 623 720 723
f 623 723 700
f 626 696 724
f 626 724 627
f 627 724 725
f 627 725 628
f 628 725 726
f 628 726 727
f 628 727 630
f 628 630 629
f 630 727 631
f 631 728 632
f 631 727 726
f 631 726 728
f 632 728 633
f 633 728 729
f 633 729 730
f 633 730 731
f 633 731 634
f 634 731 732
f 634 732 733
f 634 733 637
f 634 637 635
f 636 637 638
f 637 733 638
f 638 733 732
f 638 732 639
f 639 732 734
f 639 734 641
f 639 641 640
f 641 734 735
f 641 735 642
f 642 735 736
f 642 736 740
f 642 740 649
f 642 649 643
f 643 649 648
f 643 648 737
f 643 737 644
f 644 737 645
f 645 737 647
f 646 649 738
f 646 738 739
f 646 739 650
f 647 737 648
f 649 740 738
f 650 739 653
f 650 652 651
f 653 739 738
f 653 738 654
f 654 741 655
f 654 738 742
f 654 742 743
f 654 743 741
f 655 741 656
f 656 679 674
f 656 674 657
f 656 741 676
f 656 676 679
f 657 674 671
f 657 671 744
f 657 744 658
f 658 744 659
f 659 744 745
f 659 745 661
f 661 745 662
f 662 745 663
f 663 745 744
f 663 744 671
f 663 671 670
f 663 670 664
f 664 670 673
f 664 673 746
f 664 746 747
f 664 747 665
f 668 672 669
f 672 746 673
f 676 741 743
f 676 743 677
f 677 743 748
f 677 748 749
f 677 749 678
f 678 749 750
f 678 750 680
f 680 750 751
f 680 751 682
f 680 682 681
f 682 751 752
f 682 752 753
f 682 753 683
f 683 753 754
f 683 754 755
f 683 755 756
f 683 756 757
f 683 757 684
f 684 757 685
f 685 757 758
f 685 758 710
f 685 710 686
f 686 710 687
f 687 710 688
f 688 710 708
f 689 707 712
f 689 712 690
f 690 712 759
f 690 759 693
f 693 759 706
f 693 706 760
f 696 699 724
f 697 698 699
f 698 700 761
f 698 761 699
f 699 761 724
f 700 726 761
f 700 723 728
f 700 728 726
f 702 762 703
f 703 762 763
f 703 763 705
f 703 705 704
f 705 760 706
f 706 759 712
f 706 712 711
f 709 710 758
f 709 758 756
f 709 756 764
f 709 764 765
f 709 765 766
f 709 766 716
f 709 716 713
f 713 716 715
f 716 766 717
f 717 766 718
f 718 766 767
f 718 767 721
f 719 768 720
f 719 722 769
f 719 769 768
f 720 768 770
f 720 770 723
f 721 771 722
f 721 767 772
f 721 772 771
f 722 771 773
f 722 773 774
f 722 774 775
f 722 775 769
f 723 770 776
f 723 776 730
f 723 730 729
f 723 729 728
f 724 761 725
f 725 761 726
f 730 776 777
f 730 777 778
f 730 778 731
f 731 778 779
f 731 779 732
f 732 779 734
f 734 779 780
f 734 780 781
f 734 781 782
f 734 782 735
f 735 782 736
f 736 782 783
f 736 783 784
f 736 784 785
f 736 785 786
f 736 786 748
f 736 748 740
f 738 740 742
f 740 748 743
f 740 743 742
f 748 786 749
f 749 786 787
f 749 787 788
f 749 788 789
f 749 789 750
f 750 789 751
f 751 789 752
f 752 789 788
f 752 788 753
f 753 788 790
f 753 790 791
f 753 791 754
f 754 791 773
f 754 773 792
f 754 792 767
f 754 767 755
f 755 767 793
f 755 793 764
f 755 764 756
f 756 758 757
f 764 793 767
f 764 767 794
f 764 794 765
f 765 794 766
f 766 794 767
f 767 792 772
f 768 769 795
f 768 795 770
f 769 775 796
f 769 796 795
f 770 795 797
f 770 797 778
f 770 778 777
f 770 777 776
f 771 772 773
f 772 792 773
f 773 798 774
f 773 791 798
f 774 798 775
f 775 798 779
f 775 779 778
f 775 778 796
f 778 797 796
f 779 798 799
f 779 799 780
f 780 799 783
f 780 783 781
f 781 783 782
f 783 799 800
f 783 800 784
f 784 800 785
f 785 800 790
f 785 790 788
f 785 788 786
f 786 788 787
f 790 800 791
f 791 800 799
f 791 799 798
f 795 796 797

