# https://github.com/mikedh/trimesh
v 53.03692626 42.21189986 18.29206473
v 53.03692626 42.21189986 10.82073544
v 61.23000493 42.21189986 13.64764929
v 61.23000493 62.75539802 7.57579631
v 53.03692626 62.75539802 11.38835516
v 53.04976007 42.21189986 10.81234688
v 53.03692626 42.83528331 10.41808824
v 53.09708126 42.89561054 10.33979626
v 61.23000493 42.21189986 6.83062091
v 61.23000493 62.75539802 4.00929879
v 53.03692626 62.75539802 4.64542479
v 53.42432329 42.21189986 10.57187793
v 53.03692626 42.92778566 10.35937022
v 53.03692626 42.99213461 10.32162200
v 53.03692626 43.40839451 10.08115241
v 53.57029959 43.36616443 9.78196352
v 54.15420095 43.09268041 9.59322244
v 54.42930831 42.49946057 9.77916669
v 53.85102118 42.21189986 10.30484487
v 53.60960046 42.21189986 10.45443932
v 61.23000493 46.57156105 4.00929879
v 61.08964285 42.21189986 6.87675705
v 53.32727352 62.75539802 4.00929879
v 53.03692626 62.31902947 4.64542479
v 53.03692626 44.09612693 9.69248679
v 53.29839907 43.97547248 9.59741640
v 53.87347937 43.66780183 9.42545374
v 54.72928125 42.79908646 9.42405532
v 55.03246102 42.21189986 9.59462086
v 54.42048596 42.21189986 9.96231539
v 60.76480820 42.21189986 6.98860328
v 60.44318040 42.21189986 7.10324505
v 59.62106516 42.21189986 7.42200791
v 58.97781084 42.21189986 7.68903968
v 58.54309134 42.21189986 7.87917917
v 57.88540044 42.21189986 8.17137727
v 60.63407180 47.00994111 4.00929879
v 53.32727352 62.31902947 4.00929879
v 53.03692626 61.45634734 4.67758063
v 53.03692626 44.55059390 9.44083245
v 54.08121344 44.75168422 8.68307388
v 54.38519525 44.18661776 8.83126991
v 54.95466003 43.88498036 8.68726784
v 55.25463168 43.33197909 8.83826070
v 55.29874603 42.49946057 9.28704404
v 56.40799911 42.77696631 8.54186735
v 55.46397111 42.21189986 9.36813285
v 57.17958374 42.21189986 8.49712963
v 59.73896776 47.82436120 4.00929879
v 57.02077620 42.48739538 8.41044845
v 56.12647549 43.33197909 8.37270023
v 53.36096016 61.45634734 4.00929879
v 53.03692626 61.00791360 4.71113489
v 53.03692626 45.10359517 9.15003147
v 53.54864343 45.05131140 8.85783337
v 54.65629245 44.46010178 8.52928547
v 53.83658460 45.32680564 8.54186735
v 58.07228039 49.56983411 4.00929879
v 58.88878140 48.67497815 4.00929879
v 55.52974032 43.61149634 8.53347943
v 55.83292010 43.03637492 8.69425863
v 56.74245943 42.21189986 8.71383130
v 53.42512532 60.59567607 4.00929879
v 53.03692626 59.46152078 4.89148676
v 53.03692626 59.73299394 4.85373726
v 53.03692626 60.21561366 4.78802845
v 53.03692626 60.59567607 4.74468786
v 53.03692626 45.61235613 8.89278604
v 53.26150430 45.68474854 8.71522972
v 53.03692626 46.25986996 8.57542161
v 57.30310185 50.53507356 4.00929879
v 53.03692626 57.01021639 5.26617080
v 53.03692626 58.87031180 4.98096220
v 53.52297712 59.73299394 4.00929879
v 53.03692626 56.28226605 5.38920178
v 53.03692626 45.79937104 8.79911407
v 53.03692626 46.84303484 8.30279618
v 53.29118078 47.45033138 7.86380046
v 56.31736560 52.03722606 4.00929879
v 53.03692626 47.99126618 7.77292531
v 53.07141622 48.02545281 7.73657551
v 53.65291149 58.87031180 4.00929879
v 53.03692626 54.56896697 5.71774969
v 53.03692626 55.38941966 5.55417494
v 53.03692626 47.56897561 7.96585907
v 55.62919619 53.18143631 4.00929879
v 53.03692626 48.05561642 7.74636185
v 53.83016705 58.02170636 4.00929879
v 53.03692626 53.69421900 5.92047106
v 53.03692626 50.50490994 6.83481487
v 55.39980595 53.69421900 4.00929879
v 53.03692626 48.13605229 7.71560442
v 54.35391471 56.28226605 4.00929879
v 53.03692626 53.24377440 6.03651125
v 53.03692626 51.12226017 6.63768587
v 54.64185587 55.42963759 4.00929879
v 53.03692626 51.95075696 6.39581787
v 53.03692626 52.72696934 6.17911619
f 1 2 6
f 1 6 12
f 1 12 20
f 1 20 19
f 1 19 30
f 1 30 29
f 1 29 47
f 1 47 62
f 1 62 48
f 1 48 36
f 1 36 35
f 1 35 34
f 1 34 33
f 1 33 32
f 1 32 31
f 1 31 22
f 1 22 9
f 1 9 3
f 1 3 4
f 1 4 5
f 1 5 11
f 1 11 24
f 1 24 39
f 1 39 53
f 1 53 67
f 1 67 66
f 1 66 65
f 1 65 64
f 1 64 73
f 1 73 72
f 1 72 75
f 1 75 84
f 1 84 83
f 1 83 89
f 1 89 94
f 1 94 98
f 1 98 97
f 1 97 95
f 1 95 90
f 1 90 92
f 1 92 87
f 1 87 80
f 1 80 85
f 1 85 77
f 1 77 70
f 1 70 76
f 1 76 68
f 1 68 54
f 1 54 40
f 1 40 25
f 1 25 15
f 1 15 14
f 1 14 13
f 1 13 7
f 1 7 2
f 2 7 8
f 2 8 6
f 3 9 21
f 3 21 10
f 3 10 4
f 4 10 23
f 4 23 11
f 4 11 5
f 6 8 12
f 7 13 8
f 8 13 14
f 8 14 15
f 8 15 16
f 8 16 17
f 8 17 18
f 8 18 19
f 8 19 20
f 8 20 12
f 9 22 21
f 10 21 37
f 10 37 49
f 10 49 59
f 10 59 58
f 10 58 71
f 10 71 79
f 10 79 86
f 10 86 91
f 10 91 96
f 10 96 93
f 10 93 88
f 10 88 82
f 10 82 74
f 10 74 63
f 10 63 52
f 10 52 38
f 10 38 23
f 11 23 38
f 11 38 24
f 15 25 26
f 15 26 16
f 16 26 27
f 16 27 17
f 17 28 18
f 17 27 28
f 18 29 30
f 18 30 19
f 18 28 29
f 21 22 31
f 21 31 32
f 21 32 33
f 21 33 34
f 21 34 35
f 21 35 36
f 21 36 37
f 24 38 39
f 25 40 26
f 26 40 41
f 26 41 27
f 27 41 28
f 28 41 42
f 28 42 43
f 28 43 44
f 28 44 45
f 28 45 29
f 29 45 46
f 29 46 47
f 36 48 37
f 37 48 50
f 37 50 46
f 37 46 51
f 37 51 49
f 38 52 53
f 38 53 39
f 40 54 55
f 40 55 41
f 41 56 42
f 41 55 57
f 41 57 58
f 41 58 59
f 41 59 56
f 42 56 43
f 43 56 60
f 43 60 61
f 43 61 44
f 44 61 45
f 45 61 46
f 46 50 62
f 46 62 47
f 46 61 51
f 48 62 50
f 49 51 60
f 49 60 56
f 49 56 59
f 51 61 60
f 52 63 64
f 52 64 65
f 52 65 66
f 52 66 67
f 52 67 53
f 54 68 69
f 54 69 55
f 55 69 57
f 57 69 70
f 57 70 71
f 57 71 58
f 63 72 73
f 63 73 64
f 63 74 75
f 63 75 72
f 68 76 69
f 69 76 70
f 70 77 78
f 70 78 71
f 71 78 80
f 71 80 81
f 71 81 79
f 74 82 83
f 74 83 84
f 74 84 75
f 77 85 78
f 78 85 80
f 79 81 87
f 79 87 86
f 80 87 81
f 82 88 89
f 82 89 83
f 86 90 91
f 86 87 92
f 86 92 90
f 88 93 94
f 88 94 89
f 90 95 96
f 90 96 91
f 93 96 97
f 93 97 98
f 93 98 94
f 95 97 96

