# https://github.com/mikedh/trimesh
v 56.14199430 101.13392357 43.60218992
v 56.13439042 101.13392357 43.60218992
v 56.14199430 100.27093682 43.60218992
v 56.14199430 102.06163330 43.40469718
v 55.26949627 101.13392357 43.58600018
v 50.95832847 98.54662393 43.60218992
v 55.26949627 99.40795007 43.60218992
v 56.14199430 99.40795007 43.57628839
v 56.14199430 102.11308161 43.38527104
v 55.26949627 101.86414313 43.34965772
v 54.40840278 101.13392357 43.47268484
v 53.54540960 100.27093682 43.57952737
v 51.82132293 99.40795007 43.56333763
v 49.23424180 97.68363718 43.56657661
v 48.36934765 96.82065043 43.59895095
v 47.50635319 95.95932430 43.60218992
v 39.74891173 85.61344700 43.60218992
v 40.66703049 85.61344700 43.41764795
v 56.14199430 98.69764764 43.33994593
v 56.14199430 102.20435906 43.34965772
v 54.40840278 101.66997162 43.23310597
v 52.88010581 100.83187872 43.25900493
v 53.62904717 101.12562562 43.30109363
v 50.95072458 99.44280248 43.38203463
v 51.82132293 100.09501926 43.32375619
v 50.09343432 98.54662393 43.49211099
v 48.36174377 97.71351032 43.38203463
v 46.64526098 95.95932430 43.50506176
v 45.78416620 95.09633755 43.54391405
v 44.92497368 94.23335337 43.55686225
v 44.06007953 93.37534590 43.56657661
v 43.19708507 92.51235915 43.56657661
v 40.61000394 89.06207277 43.60218992
v 38.88401758 85.61344700 43.60218992
v 40.72025510 85.61344700 43.40145821
v 40.79438911 85.61344700 43.37232027
v 41.21257954 85.80761850 43.27519467
v 41.14224748 85.61344700 43.08093834
v 56.14199430 85.61344700 17.94758864
v 56.14199430 102.49312667 43.07446296
v 53.97120392 101.56873561 43.12950242
v 51.23395509 99.93570017 43.23310597
v 48.64307202 98.22134586 43.23958135
v 47.69263804 97.44465727 43.28166749
v 45.85069632 95.91949517 43.29138184
v 44.95728890 95.07144370 43.33023157
v 44.08098893 94.22173418 43.34965772
v 43.20468895 93.36870600 43.35936950
v 42.33599286 91.64937240 43.55686225
v 39.74891173 88.19908601 43.59895095
v 38.88401758 86.47477313 43.60218992
v 38.02482506 85.61344700 43.59895095
v 56.14199430 85.61344700 10.52705152
v 56.14199430 102.56780822 42.69566721
v 53.97120392 101.56873561 43.04856400
v 52.77365659 100.89328303 42.69566721
v 51.16552271 99.97553187 42.69566721
v 49.64673061 98.98973393 43.14245319
v 46.18144724 96.41737214 43.15864036
v 45.26713043 95.60583371 43.20720444
v 44.37942463 94.76774080 43.22663059
v 43.49362109 93.92964790 43.23958135
v 42.64203245 93.07827777 43.23958135
v 42.34549643 92.49244202 43.34965772
v 41.47299840 90.78638565 43.54391405
v 38.88401758 87.33775988 43.56657661
v 38.02482506 86.47477313 43.49211099
v 37.12761569 85.62008433 43.38203463
v 37.12761569 85.61344700 43.38203463
v 56.08116581 85.61344700 10.55942586
v 56.13248945 86.31379342 11.01916324
v 56.14199430 86.31545147 11.01592555
v 56.14199430 102.54623304 41.83123064
v 55.81504532 102.37861600 40.97003560
v 55.79033398 102.38857200 41.83123064
v 55.26949627 102.14627341 41.83123064
v 55.26949627 102.11971895 40.97003560
v 54.49774326 101.73801327 40.97003560
v 53.99591525 101.55545838 42.47551192
v 53.54540960 101.25341353 40.97003560
v 52.80977375 100.86838918 40.97003560
v 52.78886436 100.88332447 41.83123064
v 52.35926810 100.64268393 41.83123064
v 51.82132293 100.33068308 41.83123064
v 52.38017749 100.62940927 40.97003560
v 51.19403599 99.95893597 41.83123064
v 50.76254004 99.69505964 41.83123064
v 50.73402677 99.70667625 42.69566721
v 50.09343432 99.28846011 42.69566721
v 49.64292866 98.98973393 42.69566721
v 49.21333240 98.70262436 42.69566721
v 48.57654190 98.27113355 42.69566721
v 48.14694563 97.96410942 42.69566721
v 47.57668525 97.53261604 42.69566721
v 46.17194368 96.42567009 42.69566721
v 45.74234742 96.06885826 42.69566721
v 45.23101327 95.63736489 42.69566721
v 44.79951732 95.24570064 42.69566721
v 44.33000196 94.81420727 42.69566721
v 43.89850601 94.41590826 42.69566721
v 43.43659453 93.98773355 42.69566721
v 43.00699827 93.56785679 42.69566721
v 41.79994738 92.19205778 43.22663059
v 41.49770973 91.61618060 43.33023157
v 42.58500590 93.13636341 42.69566721
v 40.61000394 89.92505952 43.50506176
v 38.85550431 88.20738396 43.38203463
v 38.34797210 87.92525368 43.23958135
v 37.43365528 86.47477313 43.25576853
v 37.12001181 85.61344700 43.37879565
v 55.31131505 85.61344700 10.99002531
v 55.60975076 86.11796130 11.16161652
v 56.13248945 86.74528680 11.33644671
v 56.14199430 86.74196813 11.32997132
v 56.14199430 102.54125375 41.65963943
v 56.14199430 102.51802052 40.97003560
v 56.14199430 102.50308524 40.72074237
v 55.87777350 102.35206153 40.10560160
v 55.26949627 102.06495453 40.10560160
v 54.55476981 101.70980075 40.10560160
v 54.02442724 101.54052310 41.83123064
v 53.54540960 101.19532788 40.10560160
v 52.86299836 100.83851605 40.10560160
v 52.42960016 100.60119418 40.10560160
v 51.82132293 100.29583067 40.97003560
v 51.22635121 99.93736079 40.97003560
v 50.79675495 99.67514507 40.97003560
v 50.10293789 99.24365170 40.97003560
v 49.67334163 98.97147998 40.97003560
v 50.00789449 99.21045990 41.75676759
v 49.65623417 98.98309659 41.99311006
v 48.60125323 98.25619570 41.83123064
v 48.17165697 97.94585290 41.83123064
v 47.17940421 97.17580421 40.97003560
v 47.15849481 97.18742083 41.83123064
v 46.64526098 96.77916069 41.83123064
v 46.18905113 96.41239286 41.83123064
v 45.75945487 96.04894370 41.83123064
v 45.25192266 95.61745032 41.83123064
v 44.84513805 95.22246741 40.97003560
v 44.35471329 94.79097403 40.97003560
v 44.34140778 94.80425127 41.83123064
v 43.45750393 93.97279570 41.83123064
v 43.02790767 93.54628161 41.83123064
v 42.60021366 93.11478823 41.83123064
v 40.96166425 91.30583780 43.20720444
v 40.64992304 90.72166267 43.29138184
v 41.75432665 92.24184548 42.69566721
v 41.77903799 92.21695163 40.97003560
v 41.76573248 92.23022887 41.83123064
v 39.12542673 88.87453859 43.28166749
v 40.15379666 90.38974469 43.15864036
v 37.57812135 86.92286240 43.14245319
v 36.76074761 85.61344700 42.93200968
v 54.39319630 85.61344700 11.54365124
v 55.03378874 85.87566272 11.33644671
v 53.99591525 86.02668386 12.09080307
v 55.26759401 86.47809180 11.64401709
v 55.49759991 87.05894826 11.95158748
v 56.14199430 87.33278060 11.80265883
v 56.14199430 102.46325354 40.10560160
v 56.14199430 102.37861600 39.24440399
v 55.97471787 102.30393445 39.24440399
v 55.26949627 101.97865380 39.24440399
v 54.62890382 101.66997162 39.24440399
v 54.19930756 101.45090627 39.24440399
v 53.54540960 101.11234839 39.24440399
v 52.94663594 100.79536826 39.24440399
v 52.51513870 100.55472772 39.24440399
v 51.42594157 99.81787083 38.18571365
v 51.82132293 100.23774502 40.10560160
v 51.27577388 99.90748766 40.10560160
v 50.84617762 99.64361389 40.10560160
v 50.15046087 99.21377856 40.10560160
v 49.71706267 98.94160685 40.10560160
v 49.23424180 98.66113461 40.97003560
v 48.63546813 98.23628114 40.97003560
v 48.20397219 97.92427772 40.97003560
v 47.60900047 97.49278434 40.97003560
v 47.22122299 97.14261242 40.10560160
v 46.68327782 96.71111904 40.10560160
v 46.56352309 96.67792724 40.95708484
v 46.20615858 96.39911562 41.23875498
v 45.27663399 95.59421452 40.97003560
v 45.31655310 95.56102272 40.10560160
v 44.88315489 95.18761499 40.10560160
v 44.39463239 94.75612162 40.10560160
v 43.96123419 94.34122671 40.10560160
v 43.92321735 94.37773718 40.97003560
v 43.48601720 93.94956247 40.97003560
v 43.05261900 93.51972971 40.97003560
v 42.62112306 93.08823633 40.97003560
v 42.19152680 92.64678439 40.97003560
v 41.32283071 91.77384164 42.69566721
v 40.93125129 91.34234827 42.69566721
v 42.22574170 92.61027393 40.10560160
v 41.81515515 92.17878055 40.10560160
v 41.38175694 91.68588286 40.10560160
v 41.34944173 91.72571456 40.97003560
v 40.95216068 91.32077308 41.83123064
v 40.50165503 90.83119406 42.69566721
v 40.14429309 90.39970069 42.69566721
v 39.03798722 88.99070988 42.69566721
v 38.60458902 88.42479127 42.69566721
v 38.29664974 87.99329789 42.69566721
v 37.86515123 87.35601640 42.69566721
v 37.57812135 86.92452302 42.69566721
v 37.27968565 86.47477313 42.69566721
v 36.86339489 85.83583102 42.69566721
v 36.72273077 85.61344700 42.69566721
v 54.19550562 85.61344700 11.66344196
v 54.92163789 86.83822229 12.12965408
v 53.54540960 85.61344700 12.06814051
v 53.54540960 85.83915225 12.23649403
v 53.89516766 86.97431072 12.88724813
v 54.83039515 87.77423254 12.93581221
v 55.27139595 87.93521225 12.80307073
v 55.89297998 87.63316740 12.18792995
v 56.14199430 88.21070263 12.51816418
v 56.14199430 102.29231527 38.46090841
v 55.26949627 101.88405769 38.38320639
v 54.71824430 101.62516321 38.38320639
v 54.28674707 101.40941652 38.38320639
v 53.54540960 101.02107094 38.38320639
v 53.03977836 100.74391994 38.38320639
v 52.60828113 100.50494002 38.38320639
v 50.30823245 99.12084307 38.38320639
v 50.22649456 99.17063077 39.24440399
v 51.34230400 99.86765853 39.24440399
v 53.09490394 100.71238876 37.88138095
v 51.94107509 100.01370038 37.51877238
v 51.51148140 99.76974118 37.51877238
v 50.95832847 99.41956925 37.51877238
v 49.79689830 98.89015853 39.24440399
v 48.82175299 98.10019528 38.08211267
v 48.77613226 98.13172646 38.65840115
v 48.73431347 98.16159959 39.24440399
v 49.23424180 98.59973030 40.10560160
v 48.67918918 98.20308934 40.10560160
v 48.24579097 97.89274654 40.10560160
v 47.65462119 97.46125316 40.10560160
v 47.71734937 97.41810280 39.24440399
v 47.78768144 97.36831510 38.38320639
v 47.28775311 97.08950605 39.24440399
v 46.73650244 96.65801268 39.24440399
v 46.31260780 96.31447808 39.24440399
v 46.25558125 96.35762588 40.10560160
v 46.22706797 96.38251973 40.66246393
v 45.86590409 96.09375211 40.95708484
v 45.37928128 95.50625831 39.02100972
v 44.45355863 94.69969659 39.24440399
v 43.64378878 93.79190143 38.05297474
v 43.60577194 93.83007251 38.62926322
v 43.56775509 93.86658297 39.24440399
v 43.52213436 93.91471005 40.10560160
v 43.08873616 93.48487729 40.10560160
v 42.65913990 93.05338392 40.10560160
v 40.17090411 90.36816951 41.22580422
v 40.15759860 90.38310479 41.83123064
v 42.70476063 93.00525684 39.24440399
v 42.74277747 92.96708576 38.64868937
v 41.87027944 92.11903686 39.24440399
v 41.10423063 91.14817676 38.38320639
v 41.06431153 91.19132456 39.03396049
v 41.03389857 91.22617697 39.61025154
v 41.00918724 91.25438949 40.10560160
v 40.97687202 91.29422119 40.97003560
v 40.47694369 90.70838544 40.95060946
v 39.79073052 89.92505952 41.83123064
v 39.38394591 89.40892603 41.83123064
v 39.39725142 89.38735341 40.97003560
v 38.62359872 88.39823680 41.83123064
v 38.31375720 87.96674343 41.83123064
v 37.90697001 87.33775988 40.97003560
v 37.59903074 86.89630794 40.97003560
v 37.59142686 86.90460589 41.43300875
v 37.58572523 86.91456446 42.00929980
v 36.87289846 85.80761850 41.83123064
v 36.75504599 85.61344700 41.83123064
v 54.25443185 87.54852729 13.11064111
v 52.91812266 85.61344700 12.48902495
v 52.99035569 86.15115310 12.85487250
v 53.32110661 86.72703028 13.08150318
v 53.80963040 87.90368107 13.68693088
v 55.80363949 88.55755846 13.00380116
v 54.50914909 88.12606509 13.43439996
v 56.14199430 89.02722035 13.20453159
v 56.14199430 102.27737999 38.33140590
v 54.79047734 101.58865018 37.79072945
v 54.46352836 101.38618072 37.50906060
v 53.49598693 100.88664570 37.56409878
v 50.40327585 99.05943619 37.51877238
v 52.75654914 100.47672494 37.56409878
v 53.17473958 100.66923840 37.30509247
v 52.07033596 99.94399812 36.65757607
v 51.64073970 99.69008035 36.65757607
v 50.55344354 98.95986079 36.33057953
v 50.47930954 99.00799044 36.90686930
v 48.43967971 97.85291741 38.37349460
v 49.96987764 98.77398724 37.51877238
v 49.32168131 98.34249386 37.51877238
v 48.89018537 98.05372625 37.51877238
v 48.36934765 97.67533923 37.51877238
v 47.87322127 97.30359212 37.51877238
v 48.30471721 97.84793813 39.24440399
v 46.88667013 96.53686210 37.51877238
v 46.80303256 96.60158508 38.38320639
v 46.37533598 96.26469038 38.38320639
v 45.85449826 95.83319701 38.38320639
v 45.42490200 95.46476856 38.38320639
v 44.86224550 94.96191231 38.45767201
v 45.02762096 94.96357036 37.51877238
v 44.12660965 94.13709664 37.51877238
v 43.69701339 93.74211373 37.51877238
v 43.26741713 93.31062035 37.51877238
v 42.83401893 92.87248965 37.51877238
v 42.78649852 92.92393539 38.07563729
v 43.19328313 93.38032261 38.35083205
v 40.18611187 90.34825494 40.64951574
v 39.89337780 90.00637839 40.95060946
v 42.34169449 92.50406120 38.43500945
v 41.90259466 92.08418444 38.79114264
v 41.60796090 91.71077671 38.45767201
v 41.94441345 92.03937603 38.21809056
v 41.60225670 91.54481772 37.51877238
v 41.17076075 91.07017655 37.51877238
v 40.74116449 90.71668339 38.38320639
v 40.25644394 90.26029616 39.24440399
v 40.20892095 90.31838181 40.10560160
v 39.42576469 89.34586367 40.10560160
v 39.07980600 88.95586004 40.97003560
v 38.64640780 88.36504500 40.97003560
v 38.33466659 87.93521225 40.97003560
v 37.96779851 87.33775988 40.10560160
v 37.62564176 86.85149952 40.10560160
v 37.32530637 86.46647518 40.97003560
v 36.89380786 85.77276866 40.97003560
v 36.80066671 85.61344700 40.97003560
v 52.68621708 85.61344700 12.64766669
v 52.41439239 85.89225862 13.05560293
v 52.65960477 86.49302965 13.35669794
v 52.90481715 87.08550273 13.65779294
v 53.77161227 88.78492176 14.51898926
v 54.18980270 88.47955568 13.94593719
v 54.76386503 88.68202770 13.75491983
v 53.23366581 87.65971929 13.89413670
v 53.19754994 88.56419579 14.72619508
v 56.06215738 89.11352108 13.32432231
v 56.14199430 89.13675431 13.30165847
v 56.14199430 102.16950664 37.51877238
v 56.13439042 102.16618798 37.51877238
v 54.88171879 101.54550238 37.21767738
v 54.40840278 101.21358440 36.65757607
v 53.70318118 100.85013267 36.65757607
v 53.27358492 100.61613203 36.65757607
v 52.68431611 100.28753272 36.65757607
v 52.60828113 100.08340522 35.74134029
v 52.17678519 99.88425443 35.99387121
v 52.26802664 99.82948745 35.42081913
v 51.85933977 99.64527194 35.74134029
v 50.63518143 98.91007310 35.79637975
v 50.09343432 98.55492188 35.79637975
v 49.43383216 98.26947293 36.65757607
v 50.15236056 98.74577472 36.63491223
v 48.31992498 97.48946568 36.71261425
v 49.00233621 97.97240737 36.65757607
v 47.92454362 97.26210238 37.03637309
v 46.98551547 96.46051994 36.65757607
v 46.45707387 96.19664617 37.51877238
v 45.93623615 95.76515280 37.51877238
v 45.50663989 95.39506373 37.51877238
v 45.11506048 94.88225148 36.65757607
v 44.68356453 94.48892919 36.65757607
v 44.22165305 94.06075448 36.65757607
v 43.78825485 93.64917567 36.65757607
v 43.35485665 93.21768486 36.65757607
v 42.92336070 92.78287025 36.65757607
v 42.43103626 92.44099627 37.51877238
v 42.59641172 92.25844138 35.79637975
v 42.51087189 92.35137944 36.65757607
v 39.85726064 89.88688843 40.10560160
v 42.07937595 91.88835232 36.65757607
v 40.80769462 90.63868318 37.51877238
v 41.69159847 91.45685894 36.65757607
v 41.25820027 90.96727992 36.65757607
v 40.88943250 90.53578654 36.65757607
v 40.30776629 90.19225195 38.38320639
v 39.91048525 89.82880279 39.24440399
v 39.10831928 88.91437029 40.10560160
v 39.48088899 89.28445678 39.24440399
v 39.15013807 88.85296341 39.24440399
v 38.36507955 87.89040383 40.10560160
v 38.40499865 87.83563685 39.24440399
v 36.93752890 85.61344700 39.24440399
v 37.35571934 86.42000615 40.10560160
v 38.43541161 87.79414711 38.66487654
v 38.47152877 87.74269879 38.09182446
v 37.44506111 86.26234511 38.38320639
v 37.02496841 85.61344700 38.42529509
v 37.01546485 85.61344700 38.51271147
v 36.92422339 85.72298096 40.10560160
v 36.85959295 85.61344700 40.10560160
v 51.81561873 85.61344700 13.27575823
v 51.43544514 85.99681329 13.83585954
v 52.00950747 86.26068706 13.63189270
v 52.33075482 86.83490363 13.86175978
v 53.17283861 89.44709711 15.57120422
v 53.74880190 89.66450441 15.36723610
v 54.12897550 90.24038160 15.64243086
v 54.70303782 90.45114900 15.43522504
v 54.73155110 89.57156635 14.59345359
v 55.75041488 89.45871372 13.83262185
v 51.36891502 86.92286240 14.64849306
v 52.23571142 88.64385662 15.51292706
v 52.68241514 88.82309285 15.34780995
v 56.14199430 89.27118212 13.42144919
v 56.14199430 102.03507883 36.65757607
v 56.13439042 102.03176274 36.65757607
v 55.41016039 101.69984476 36.65757607
v 54.98056413 101.49737273 36.65757607
v 55.66297537 101.58367346 35.26865278
v 54.40840278 101.05260469 35.79637975
v 53.85144918 100.76881379 35.79637975
v 53.41805098 100.54310853 35.79637975
v 52.79076404 100.02697762 34.93194446
v 52.35926810 99.77472046 34.93194446
v 50.78534912 98.81879565 34.93194446
v 50.04781359 98.34581253 34.96108368
v 49.63152284 98.13836636 35.26865278
v 49.55358689 98.19147272 35.79637975
v 47.99867763 97.20899601 36.46332102
v 49.12209095 97.88444859 35.79637975
v 48.51951534 97.45295522 35.79637975
v 47.11857571 96.35430721 35.54060985
v 47.04824365 96.41073224 36.11689962
v 46.55591921 96.11034801 36.65757607
v 46.03698118 95.67885463 36.65757607
v 45.60738492 95.31374485 36.65757607
v 45.21010387 94.79263465 35.79637975
v 44.77670567 94.39931236 35.79637975
v 44.32049839 93.97113765 35.79637975
v 43.45180230 93.11644885 35.79637975
v 43.02220604 92.68993476 35.79637975
v 42.16681546 91.78877692 35.79637975
v 42.68385124 92.16716394 35.07763542
v 40.37619867 90.10927245 37.51877238
v 40.20892095 89.45373701 35.53089678
v 41.78283993 91.35728355 35.79637975
v 41.03199631 90.36650889 35.32692866
v 40.98067396 90.42625515 35.79637975
v 40.03404192 89.67778165 37.51877238
v 39.53791554 89.21475452 38.38320639
v 38.71864212 88.26546961 39.24440399
v 39.19956074 88.78326115 38.38320639
v 38.71484018 88.12772570 38.37996999
v 39.26419117 88.70028165 37.51877238
v 38.89352115 88.19908601 37.51877238
v 38.51714950 87.67797581 37.51877238
v 38.22631768 87.24648244 37.51877238
v 37.50778929 86.16940962 37.51877238
v 37.14852509 85.61344700 37.52524777
v 51.65974684 85.61344700 13.39231126
v 51.03056021 86.40341025 14.49308902
v 51.76239412 86.51958154 14.02040151
v 50.96022815 85.61344700 13.92003694
v 50.90320417 85.61344700 13.96536333
v 50.87088895 85.61344700 13.99126358
v 50.50021893 86.06983422 14.64525537
v 52.68241514 89.25458622 15.75574620
v 52.21670172 89.52177865 16.36117390
v 53.75260385 90.51919065 16.21872063
v 54.42741120 90.77476903 15.97590149
v 55.27139595 90.63702256 15.25068307
v 55.72190161 90.34327566 14.67763099
v 55.27139595 90.18893328 14.82008427
v 54.72584690 91.29256057 16.30613508
v 55.27139595 91.06851593 15.68775725
v 55.71429901 91.21124169 15.53559090
v 55.27139595 89.75743991 14.41862469
v 56.14199430 89.86199459 13.96860102
v 50.79485269 86.64405079 14.88807450
v 50.45079626 86.97762939 15.46112529
v 50.41277941 87.86882865 16.29642200
v 51.33659980 87.81572229 15.48702682
v 51.65784715 88.39159947 15.74603312
v 51.30618684 88.70360032 16.32232289
v 51.93727572 88.96083675 16.05360351
v 56.14199430 101.88903698 35.78666539
v 56.13439042 101.88737636 35.79637975
v 55.56793197 101.62848188 35.79637975
v 56.10017551 101.71644065 34.96108368
v 55.79033398 101.52392720 34.69560071
v 55.33412542 101.35298892 34.96108368
v 53.94269064 100.71902609 35.28484124
v 53.61193972 100.48004617 34.97079547
v 53.54540960 100.23442635 34.07074814
v 52.97134727 99.92242294 34.07074814
v 52.53985004 99.67182640 34.07074814
v 51.76809832 99.21045990 34.06750917
v 51.32709623 99.01462777 34.35241829
v 51.00775114 98.74079544 34.06750917
v 50.27971917 98.27777088 34.07074814
v 49.73036818 98.06866153 34.69236430
v 48.08991908 97.14261242 35.79637975
v 49.30077192 97.82636294 34.96108368
v 48.65637753 97.35669849 34.93194446
v 48.22488158 97.04469507 34.93194446
v 46.60534188 95.79004664 34.99669700
v 46.20615858 95.53778949 35.32369225
v 46.14343040 95.58757719 35.79637975
v 47.64321537 96.61486231 34.93194446
v 47.21361911 96.27962567 34.93194446
v 45.71383414 95.22412803 35.79637975
v 45.29184176 94.71961115 35.16181283
v 44.43264924 93.86492235 34.93194446
v 43.56395315 93.00857550 34.93194446
v 41.85317199 91.27596467 35.17152590
v 43.70461728 92.86584974 33.91210641
v 42.76748881 92.08086578 34.50134694
v 41.93110794 91.18966651 34.59523613
v 40.15759860 89.52012061 36.10394885
v 40.10817593 89.58318297 36.65757607
v 39.42766438 88.47623701 35.79637975
v 39.36303651 88.56917508 36.45360794
v 39.30600996 88.64551467 37.02989771
v 40.77728165 89.96488865 34.99669700
v 40.28685690 89.35913833 34.93194446
v 39.95610598 88.92764495 34.93194446
v 39.52461003 88.34346982 34.93194446
v 41.62506835 90.67685169 34.07074814
v 41.10803258 90.28021073 34.75064017
v 38.59508545 87.56844185 36.65757607
v 38.29664974 87.13694847 36.65757607
v 37.82143276 86.41834810 36.63167582
v 37.60663462 86.01672529 36.32410415
v 37.30629667 85.61344700 36.63167582
v 50.21698842 85.61344700 14.52222695
v 50.08202849 85.61344700 14.63230460
v 49.92425692 85.77110804 14.89454860
v 49.59540568 86.11298459 15.46760067
v 49.87483425 86.68885920 15.71041981
v 53.47507754 90.83783396 16.76587181
v 51.64073970 89.27781945 16.61046777
v 51.31188847 89.55828912 17.18675690
v 51.33089817 90.40136130 18.06737936
v 52.24331531 90.36152960 17.24503341
v 52.84588963 91.42532776 17.89578751
v 53.19945091 91.15647471 17.31949774
v 54.15178586 91.09507040 16.51981499
v 56.00513212 90.86604648 15.01757701
v 56.14199430 90.90753623 14.97548831
v 56.14199430 90.22378570 14.31502242
v 55.27139595 91.46515689 16.11835477
v 53.77351324 91.36060478 17.09610476
v 53.23176613 91.99954433 18.20983328
v 53.80582846 92.18873912 17.98967734
v 54.77336989 92.12401357 17.20294536
v 55.27139595 92.71814727 17.51051510
v 55.79983755 92.88576688 17.31949774
v 55.75611780 92.04767398 16.42592516
v 56.02223957 91.71575600 15.88524871
v 56.14199430 91.75392708 15.84963539
v 56.14199430 91.56805352 15.65538034
v 56.14199430 91.11166630 15.17945643
v 49.54788527 87.02741708 16.28670957
v 49.83871709 87.60163365 16.54247819
v 50.73212451 88.44470583 16.57485446
v 51.02295890 89.00564774 16.87918715
v 56.14199430 101.73303655 34.96108368
v 56.14199430 101.72473860 34.92223138
v 56.14199430 101.70648209 34.83805398
v 56.14199430 101.53222515 34.07074814
v 55.95570945 101.44758503 34.07074814
v 55.26949627 101.11566705 34.07074814
v 54.64411030 100.80200559 34.07074814
v 54.06624732 100.65762178 34.70855147
v 54.21071338 100.58294023 34.07074814
v 54.45782545 100.49664207 33.21602592
v 53.52450021 100.01203976 33.25811462
v 53.08539909 99.85603934 33.57863449
v 52.75274720 99.58220701 33.25811462
v 52.14066803 99.04284029 32.54260927
v 51.99620196 99.13245969 33.20955054
v 51.56470601 98.86858335 33.20955054
v 50.42038330 98.18483282 33.39085611
v 50.11814565 97.91432172 33.14479928
v 49.85012291 97.98900327 34.07074814
v 48.96241711 97.13597251 33.20955054
v 49.17911750 97.51767819 34.07722352
v 48.75142092 97.28699622 34.36860546
v 46.83154583 95.73196100 34.07074814
v 46.40384926 95.37183050 34.07074814
v 46.29359809 95.46144733 34.75064017
v 48.85406821 97.21231468 33.79231569
v 47.79528532 96.49869102 34.07074814
v 47.36568906 96.16345437 34.07074814
v 46.97601190 95.61081042 33.20955054
v 45.89631705 94.94033713 34.07074814
v 45.38308322 94.64161094 34.58876075
v 44.89075878 94.07071304 34.15492554
v 44.49347773 93.80517866 34.50134694
v 44.24256244 93.18283244 33.20955054
v 43.81296618 92.75631835 33.20955054
v 43.39857769 92.32482498 33.20955054
v 42.83211924 92.00950290 34.07074814
v 42.13450024 90.97060116 33.20955054
v 42.00524194 91.10834506 34.07074814
v 38.42780773 86.94111892 35.25570202
v 38.37268343 87.01911913 35.79637975
v 39.07980600 88.24887371 36.70937784
v 41.19547209 90.17233738 34.07074814
v 40.84000983 89.74084401 34.07074814
v 40.40661163 89.20479853 34.07074814
v 40.06825683 88.77330515 34.07074814
v 39.35163069 87.71946556 33.78260262
v 39.21096656 87.91197902 34.93194446
v 41.74482308 90.54076583 33.20955054
v 38.01151955 86.47477313 35.79637975
v 37.65985924 85.93540641 35.79637975
v 37.46406824 85.61344700 35.79637975
v 37.31770249 85.61344700 36.57016097
v 49.57829823 85.61344700 15.06290340
v 49.22283597 85.61344700 15.37371148
v 49.01944367 85.81591645 15.72337057
v 50.73782614 89.30769259 17.44252616
v 50.41848104 89.58816225 18.01881592
v 50.75683585 90.16403943 18.31667324
v 50.43749075 90.42957382 18.89296300
v 52.26992633 91.20294374 18.13536895
v 52.58927271 91.72405395 18.46236420
v 52.33075482 92.02111951 19.05160474
v 52.90671683 92.23022887 18.78612241
v 53.32490856 92.80444543 19.15844469
v 53.99401300 93.79356204 19.85452454
v 53.90087185 92.99364022 18.91562620
v 54.25062991 92.76461630 18.33933643
v 54.82659450 92.95048986 18.10623037
v 55.27139595 93.08989438 17.94111390
v 55.88157544 93.70560326 18.24544660
v 56.12678653 93.37700395 17.67886991
v 56.14199430 92.67499690 16.86299870
v 56.06405835 92.55384890 16.77882194
v 48.70389794 86.14783443 16.29965969
v 48.97192068 86.72205100 16.55219126
v 48.66968304 87.04235236 17.12848038
v 49.24754731 87.32116398 16.83709845
v 49.52507362 87.90202045 17.11876795
v 50.12574697 88.17253155 16.84681088
v 50.41087973 88.73181540 17.15114358
v 56.14199430 101.31979712 33.25163924
v 55.51470736 100.79038897 32.34511653
v 55.08321141 100.58791952 32.34511653
v 55.23337911 100.88332447 33.21602592
v 54.92163789 100.66260106 32.93759476
v 54.77717183 100.73396137 33.51064683
v 54.40840278 100.24272430 32.34511653
v 53.82293591 99.92574417 32.34511653
v 53.22606322 99.77803913 33.00234601
v 52.61398404 99.23867241 32.29331476
v 52.28133215 98.96152141 31.96955720
v 51.83843038 98.78394581 32.29331476
v 51.08188514 98.31760001 32.34511653
v 50.88229478 98.41385674 33.14479928
v 50.54393997 98.10351394 32.81456506
v 49.53647944 97.33844454 32.49728288
v 49.39581532 97.44133860 33.20955054
v 48.32372692 96.66133134 33.22573900
v 49.24184568 97.05631426 32.26093913
v 48.55943444 96.57669123 32.34511653
v 48.00247957 96.33937193 32.95054424
v 46.54261370 95.25234054 33.20955054
v 47.56908137 96.08047488 33.22573900
v 47.05964947 95.54110816 32.73686304
v 46.04078312 94.82084717 33.20955054
v 45.46672079 94.56361073 34.07074814
v 45.60738492 94.43416220 33.20955054
v 45.13216793 94.00598750 33.20955054
v 44.58471919 93.72219916 33.92505589
v 44.70447392 93.61266520 33.20955054
v 45.25572460 93.89479549 32.52642082
v 44.39653208 93.03346935 32.34511653
v 43.96503613 92.60363660 32.34511653
v 43.54304376 92.17214322 32.34511653
v 42.56409650 91.43528633 33.20955054
v 42.67624735 91.31413575 32.51994672
v 41.83606454 90.43123444 32.59440976
v 38.50004205 86.83988291 34.68264994
v 38.22251574 86.52124216 34.95460830
v 37.75110069 85.78438527 34.93194446
v 41.31142488 90.02131624 33.20955054
v 40.96356651 89.58982287 33.20955054
v 40.49215146 89.00232650 33.22250130
v 40.22793066 88.56751446 32.94730654
v 40.14619277 88.67372976 33.52035862
v 39.90098168 88.24721309 33.22250130
v 39.42576469 87.61325283 33.20955054
v 37.53630256 85.61344700 35.44995835
v 48.59745129 85.61344700 15.94028817
v 49.84441871 89.32594653 18.29077235
v 50.14285699 89.88190915 18.59186800
v 49.83681740 88.47623701 17.41338822
v 49.54788527 89.59812082 18.86382443
v 49.86342842 90.17399800 19.19082032
v 49.65053255 91.22783759 20.68982125
v 50.50592056 91.23447492 19.82214891
v 50.80245657 91.00545100 19.24585914
v 51.37841859 91.22617697 18.97066502
v 51.81942067 91.39545463 18.76993459
v 52.02281555 92.25014343 19.62465617
v 51.44685097 92.03605736 19.89661324
v 51.52478691 92.84427713 20.83551222
v 52.41819434 92.82602061 19.99050307
v 52.99415635 93.02517140 19.73473446
v 54.56997630 93.97113765 19.62141912
v 54.92733952 93.75041168 19.04836704
v 54.48633744 93.11810947 18.59510569
v 53.09110200 93.82011394 20.68334587
v 53.54540960 93.97445632 20.48585313
v 54.10426416 94.58850458 20.81608671
v 55.23718105 93.54628161 18.54006622
v 56.14199430 93.69896336 18.07385475
v 55.50140185 93.92134995 18.82173637
v 56.13248945 94.85569701 19.59228054
v 56.14199430 94.07071304 18.54330391
v 56.14199430 93.36206867 17.65296902
v 48.43397551 85.61344700 16.09245452
v 48.35794182 85.61344700 16.16368116
v 48.12983818 85.83583102 16.57161676
v 47.82569828 86.16276971 17.14466884
v 48.09562071 86.73698885 17.41338822
v 48.37885122 87.32614327 17.69505772
v 48.94911160 87.61657150 17.40043745
v 48.66588110 88.75836730 18.84439892
v 48.95861517 88.48121630 18.27134749
v 49.53457719 88.75172997 17.98967734
v 56.14199430 101.10571106 32.44871880
v 56.14199430 101.07583792 32.33864115
v 55.65917343 100.72234476 31.85300417
v 55.33222445 100.46345028 31.53248301
v 54.41030375 99.99876510 31.53895840
v 53.94649258 99.85603934 31.86271660
v 53.39143868 99.68676169 32.34511653
v 52.42389725 98.87854192 31.48391957
v 51.39552861 98.11015128 31.06627154
v 51.25106254 98.20640800 31.64256066
v 53.61193972 99.56395306 31.53895840
v 53.54921154 99.34322709 30.97238170
v 53.23746776 99.16897015 30.97238170
v 53.02647157 99.02624439 30.89791737
v 53.19564897 98.93164828 30.32486530
v 49.66764000 97.25048576 31.92099311
v 50.01169643 97.58240374 32.26093913
v 48.70009857 96.46881789 31.69112474
v 48.12603624 96.24145458 32.34511653
v 46.14723234 94.72790910 32.59440976
v 46.65856649 95.08472093 32.37749216
v 47.18320615 95.44319338 32.16057456
v 46.25938319 94.62667566 32.02135833
v 45.36787545 93.79190143 31.95013105
v 44.94968502 93.52470899 32.28036528
v 45.46101916 93.70726131 31.48391957
v 45.07324169 93.15130126 30.97238170
v 44.48587385 92.94882924 31.89833056
v 43.73313055 91.97631110 31.31880310
v 43.62287939 92.08750311 31.89509287
v 43.35295696 91.67426625 31.55838390
v 42.77889463 91.20626241 31.94365631
v 41.12894197 89.38569280 32.17352468
v 41.03199631 89.50518276 32.74657740
v 42.86063252 91.11332435 31.48391957
v 42.47665699 90.68183097 31.48391957
v 41.94441345 90.30842324 32.02135833
v 41.77143410 89.64624790 30.97238170
v 41.67829296 89.75910053 31.48391957
v 40.99398204 88.69198370 30.91410519
v 38.57797800 86.71873233 34.07074814
v 38.29284780 86.28723896 34.07074814
v 37.80622499 85.61344700 34.26824088
v 37.64655116 85.61344700 34.93194446
v 40.80769462 89.08364795 32.41310548
v 40.89703639 88.81147366 31.48391957
v 40.32677600 88.44304522 32.34511653
v 39.98842120 88.01155441 32.34511653
v 39.51320421 87.32946193 32.26417682
v 39.23187596 87.03571503 32.49728288
v 39.12922867 87.18175946 33.20955054
v 49.25324893 89.04215820 18.56596711
v 48.97192068 89.33424448 19.15844469
v 48.70199826 89.58318297 19.73473446
v 49.01944367 90.15906015 20.07468047
v 49.59540568 90.41629659 19.76711009
v 50.58005456 92.03771541 20.75781020
v 50.16946801 91.38051935 20.34987459
v 48.80464554 91.21456036 21.57044307
v 49.44143604 91.40043391 21.13336953
v 51.15601914 92.26839995 20.47290301
v 50.91270774 92.54886961 21.08156840
v 51.24535834 93.05338392 21.40856429
v 51.87454754 93.33551420 21.18517131
v 52.51513870 93.62262377 20.96177768
v 52.10074892 93.04840463 20.56679284
v 54.67832649 94.75446357 20.57974296
v 55.04899523 94.54369617 20.00345384
v 52.22240591 93.82343261 21.53482975
v 53.52830086 94.40926836 21.11394403
v 53.22986516 94.59016263 21.67728367
v 53.80392620 94.77603875 21.39237648
v 53.96930166 95.53281021 22.41868991
v 54.71444236 96.46383860 23.17304627
v 54.39889792 94.95195374 21.11394403
v 55.19346129 95.38178907 21.07833071
v 55.76372039 95.49298108 20.75457251
v 55.62495852 94.70965516 19.78329790
v 56.14199430 94.85072030 19.58256811
v 56.08306678 95.31374485 20.25274771
v 56.14199430 95.32536147 20.22360913
v 47.68693641 85.61344700 16.80795987
v 47.25163595 85.84412897 17.43281372
v 47.53296421 86.44490000 17.71124553
v 47.49304768 85.61344700 16.99573954
v 47.81619471 87.03405441 17.98967734
v 48.08801940 87.60993160 18.27134749
v 47.81429246 87.90533911 18.84439892
v 48.66588110 87.90533911 17.97672722
v 48.08991908 88.47955568 19.13578150
v 56.14199430 100.84017667 31.52924532
v 55.98422272 100.58957757 30.97238170
v 55.81124338 100.50825869 30.97238170
v 55.26189238 100.24272430 30.97238170
v 54.69543394 99.91578561 30.83640317
v 54.64030836 99.93238151 30.97238170
v 54.12327258 99.76144323 31.28642747
v 53.50739147 99.20216195 30.61624723
v 52.59497562 98.80219975 30.97238170
v 51.95818511 98.29436678 30.61948492
v 50.20938711 97.46291378 31.48391957
v 52.13876577 98.18317477 29.99786940
v 51.83843038 97.90270511 29.72915003
v 51.09329097 97.44465727 29.75505091
v 50.53633609 97.24550648 30.20507458
v 50.38996777 97.34508187 30.78136434
v 53.80012426 99.07603209 29.75505091
v 53.94649258 98.99471321 29.28236341
v 53.36862831 98.83041484 29.75505091
v 52.63299247 98.38398361 29.72915003
v 52.71663004 98.74909339 30.61624723
v 49.95277019 97.11107867 30.97238170
v 49.16390973 96.71775637 31.43535613
v 47.76297010 95.66391935 31.48391957
v 48.83315881 96.36592383 31.11807267
v 48.01578508 95.46642661 30.35724093
v 47.88652678 95.56932067 30.93029300
v 47.33337384 95.32038219 31.48391957
v 46.80683450 94.88888881 31.48391957
v 45.99706465 94.00101078 30.97238170
v 45.74234742 93.77198686 30.97238170
v 46.37913792 94.52710027 31.48391957
v 46.06929639 93.93462719 30.61948492
v 45.56556613 93.61100715 30.97238170
v 44.60182664 92.83431856 31.32204079
v 45.63780045 93.54296294 30.61948492
v 45.17778866 93.11313018 30.61948492
v 43.80346262 91.90660884 30.97238170
v 43.45560424 91.40209453 30.61948492
v 43.41568514 91.50498859 30.97238170
v 42.95567592 91.00379295 30.97238170
v 42.79980403 90.82787540 30.97238170
v 42.57550233 90.57229958 30.97238170
v 42.04706073 90.19059390 31.48391957
v 42.64393213 90.49595742 30.61948492
v 42.15921158 89.90680300 30.55149598
v 41.80565158 89.60807682 30.79755216
v 41.45208901 89.08364795 30.56768379
v 41.09852901 88.55589784 30.34105311
v 40.76207389 88.24057576 30.62272261
v 40.23173260 87.69457171 30.97238170
v 40.10437399 87.86882865 31.69760013
v 38.38408926 86.14783443 33.38761713
v 38.65401169 86.45153990 33.14479928
v 37.84614409 85.61344700 34.10959787
v 38.14838173 85.68978916 33.14479928
v 39.85155901 87.40248286 31.43859382
v 39.31931547 86.90128722 31.92099311
v 38.46392489 86.02834447 32.81132865
v 38.98476261 86.55775263 32.26417682
v 47.82569828 88.74343202 19.71207126
v 48.12793593 89.31930920 20.05525497
v 48.75332061 90.39970069 20.65097024
v 50.04971328 91.85516052 21.08156840
v 49.73036818 92.02443818 21.64167035
v 50.30633019 92.25512272 21.33409996
v 47.92834556 90.36650889 21.55101757
v 47.31626639 90.12752897 21.99456649
v 47.12237765 90.31506314 22.48344149
v 48.00628151 91.15647471 22.51257974
v 48.58034384 91.41371115 22.14349547
v 48.90919250 91.98958833 22.56114351
v 49.14490003 91.72073528 21.89420160
v 47.87322127 89.55497045 20.62830705
v 50.67129859 92.82933928 21.72908480
v 50.41848104 93.02683202 22.30213688
v 51.02295890 93.32555820 22.06903082
v 51.37461922 93.81513466 22.41221453
v 51.64834359 93.62594243 21.83592508
v 52.36307004 94.59016263 22.53848031
v 52.94093302 94.77769680 22.25033543
v 53.39333965 95.35357398 22.70035941
v 53.62714620 95.64898150 22.93670284
v 55.82644986 97.18908145 23.40615233
v 55.30561214 96.59660580 22.87518896
v 55.61545367 96.43728671 22.35070064
v 55.03949037 96.27962567 22.59675682
v 54.85700746 95.51787493 21.58015615
v 54.13847906 96.28958423 23.46119115
v 54.41980732 96.61154365 23.73962329
v 54.95014989 97.19571878 24.26411160
v 55.25048656 97.05133497 23.70400997
v 56.14199430 95.38842640 20.31102358
v 55.43296947 95.68051525 21.33086227
v 56.14199430 95.96596420 21.16898285
v 46.83914715 85.61344700 17.66915683
v 46.97981127 86.15281372 18.00586516
v 47.23833044 87.59001703 19.15844469
v 47.53106452 88.17419217 19.43687650
v 47.24213239 86.72869090 18.29401004
v 56.14199430 100.66094045 30.97238170
v 56.14199430 100.50494002 30.48998177
v 56.14199430 100.25766216 29.74857553
v 55.21437069 100.08506326 30.57415917
v 54.88932268 99.81454959 30.26011404
v 54.24873023 99.72327215 30.97238170
v 52.30984543 98.08028071 29.42481733
v 51.27006968 97.32848597 29.14638552
v 50.65989276 97.16252698 29.75505091
v 50.03830745 96.70780038 29.72267529
v 49.55738883 96.46715984 29.99139467
v 49.39201337 96.58498918 30.61948492
v 55.06420171 99.72659339 29.75505091
v 55.66297537 99.86101863 29.27265098
v 54.43881702 99.11254512 28.95536816
v 54.74675630 99.02458634 28.34994046
v 54.17269525 98.87522325 28.70931198
v 53.57012093 98.27113355 28.09093351
v 53.61383941 98.66611389 28.95536816
v 52.92002363 98.23296247 28.89385395
v 48.96241711 96.27464638 30.61948492
v 48.60125323 95.67885463 29.75505091
v 48.16785503 95.34527603 29.75505091
v 47.64131311 94.91378266 29.75505091
v 47.09386438 94.64990889 30.22450008
v 46.96270382 94.76110090 30.79755216
v 46.53500981 94.46569596 30.97238170
v 46.17954756 93.83505179 30.11442243
v 44.74629271 92.69325342 30.61948492
v 45.29564370 93.00027755 30.05938361
v 43.87759662 91.83358534 30.61948492
v 43.57155703 91.27928334 30.05938361
v 43.02410573 90.92745079 30.61948492
v 42.74277747 90.38476541 30.12737256
v 41.91780243 89.47697024 30.22126303
v 42.01474551 89.35913833 29.75505091
v 41.65548131 88.92764495 29.75505091
v 41.22398537 88.39823680 29.75505091
v 40.89323444 87.96840405 29.75505091
v 40.29636304 87.60495488 30.61948492
v 39.92569302 87.27303690 30.97238170
v 38.09895907 85.61344700 33.15127467
v 38.33466659 85.61344700 32.34511653
v 39.39725142 86.79507450 31.48391957
v 39.45617765 86.62247560 30.97238170
v 39.21857044 86.18600551 30.76517653
v 39.18245329 86.23745126 30.97238170
v 39.10261765 86.36358112 31.48391957
v 38.62549841 85.61344700 31.42564306
v 46.98171353 87.86882865 19.73473446
v 47.25163595 88.44470583 20.05201728
v 47.05394528 89.51845999 21.53482975
v 49.48705677 92.22524958 22.21795980
v 49.59540568 92.99861694 23.20865991
v 50.07632430 92.52729443 21.97190362
v 47.61280241 89.82382350 21.25639794
v 46.86956268 89.69603559 21.99456649
v 46.25177931 89.45539506 22.47696642
v 46.90757952 90.51919065 23.05973093
v 46.99311935 91.30085852 24.03748092
v 47.20981717 91.09507040 23.46119115
v 47.54437003 91.61784122 23.77199923
v 48.10702653 91.93316073 23.50327986
v 48.44728102 92.44431494 23.82056300
v 48.78943777 92.95380852 24.13784582
v 49.02134335 92.75963702 23.56155637
v 50.04210939 93.63257977 23.64573345
v 50.54583966 93.79024081 23.30902481
v 51.17502628 93.96117908 22.85900082
v 51.51148140 94.57688797 23.43205290
v 52.08744341 94.77935742 23.11477008
v 52.73373749 95.06646699 22.90756458
v 53.10060557 95.53612887 23.27664918
v 56.14199430 97.03473907 22.88166402
v 56.12108491 97.01316389 22.86223851
v 55.52421221 97.34508187 23.98244210
v 56.12108491 97.49942425 23.70400997
v 56.14199430 97.48946568 23.66839633
v 56.14199430 96.47379717 21.97190362
v 55.95570945 96.25473182 21.77764857
v 52.25091662 95.52617288 24.15403395
v 53.87235858 96.45388261 24.03748092
v 54.39699824 97.04137640 24.56196891
v 54.67832649 97.34508187 24.83716367
v 55.49950088 98.22466452 25.66922205
v 55.78653204 98.07198276 25.09616998
v 46.62434902 85.61344700 17.90550058
v 46.40575151 85.81259779 18.32962336
v 46.15293397 86.11796130 18.90591313
v 46.14533266 86.98426672 19.76063470
v 46.97791159 87.01580047 18.87029981
v 55.49569894 99.94399812 29.75505091
v 56.14199430 99.97387125 28.96184354
v 52.48852640 97.97074675 28.89385395
v 51.77950157 97.52763676 28.87442845
v 51.46395842 97.20401673 28.57009575
v 50.97353623 97.00984522 28.87442845
v 50.30062857 96.55345800 28.89385395
v 49.71326073 96.35430721 29.41510490
v 49.25515119 96.14353981 29.72267529
v 55.89107901 99.74484733 28.69959890
v 55.26949627 99.16730953 28.04884481
v 54.98246382 98.90509638 27.77365069
v 54.43881702 98.73415811 28.04884481
v 54.39699824 98.33087725 27.17469773
v 53.87425826 98.17155816 27.46931799
v 53.29829625 98.01057588 27.84487733
v 53.08539909 98.13338708 28.41792940
v 48.74381704 95.57098129 29.22732523
v 47.81429246 94.77105947 29.09134670
v 46.32781557 93.70560326 29.53813267
v 45.43440814 92.86751036 29.48633154
v 45.13596987 92.29661246 28.89385395
v 44.56570948 92.00784228 29.47985615
v 44.43074955 92.14227009 30.05614592
v 42.86633415 90.24370026 29.55432048
v 44.70447392 91.86677713 28.89385395
v 44.41934373 91.29256057 28.31432650
v 43.70651953 91.13489953 29.48633154
v 43.44419842 90.55404306 28.89385395
v 43.01460216 90.08437860 28.89385395
v 42.62872694 89.65122718 28.89385395
v 42.73707585 89.52841856 28.39850390
v 41.80374932 88.75504863 29.09782144
v 41.93300762 88.59572697 28.52153167
v 41.46539709 88.20904458 28.87442845
v 41.12894197 87.65971929 28.65427315
v 41.00158335 87.82070157 29.23056228
v 40.42752102 87.31452665 29.72267529
v 40.10247430 87.01082118 29.99139467
v 40.78488554 87.35767445 28.92299253
v 40.21462515 86.85481819 29.41510490
v 39.31741578 86.03996109 30.19212445
v 38.80038001 85.65327613 30.97238170
v 38.77756836 85.61344700 30.97238170
v 46.40765120 87.55848585 20.07468047
v 46.70988884 88.13104180 20.34987459
v 47.01402875 88.69530237 20.62830705
v 46.74600600 88.95751809 21.25639794
v 46.20806084 88.64219600 21.55101757
v 46.43806416 89.25790489 21.99456649
v 49.27796027 93.12972608 23.79789980
v 49.71896235 93.76368891 24.22202290
v 45.41159649 88.56751446 22.50934205
v 45.21200613 88.78492176 23.08239413
v 45.47812662 89.36079895 23.46766654
v 45.27853625 89.57156635 24.04395598
v 46.05218894 89.66284380 23.05325587
v 46.33541945 90.23872098 23.45795378
v 46.03508149 88.82641151 21.99456649
v 46.13392683 90.43787177 24.03424323
v 45.36027414 90.34825494 25.02494334
v 46.22516829 91.20958107 25.03141872
v 46.80493224 91.48009474 24.58463211
v 47.09956600 92.06095121 25.05084423
v 47.26874341 91.91158812 24.58463211
v 47.88272484 92.12899285 24.07956930
v 48.01198314 92.87912698 25.12207087
v 48.63356588 93.08657572 24.58463211
v 48.93390384 93.69730532 25.20624795
v 49.22663791 93.54794222 24.53930604
v 50.29302468 93.97279570 23.88531457
v 51.26626774 94.75446357 24.00510497
v 51.80801485 94.96025169 23.72019778
v 52.45811344 95.39672435 23.72019778
v 56.14199430 97.01316389 22.84605070
v 56.14199430 97.94087362 24.51016778
v 52.46381506 96.25805048 25.26452446
v 53.03977836 96.43562609 24.93105351
v 53.29639528 96.27796505 24.35800143
v 51.76999800 95.38510773 24.49721766
v 51.44685097 95.48800180 25.08645755
v 52.22050366 96.41073224 25.84081391
v 53.54921154 97.01482451 25.44259138
v 54.10046222 97.18244155 25.15120912
v 54.39699824 97.49942425 25.44259138
v 54.92353758 98.06700348 25.97355475
v 55.23528008 98.38066494 26.28112514
v 56.14199430 98.82709360 26.25846194
v 56.09827326 98.38730228 25.40697806
v 56.14199430 98.38730228 25.36488936
v 46.06739671 85.61344700 18.53359148
v 45.92483033 85.61344700 18.69547026
v 45.57887421 85.76612875 19.23938440
v 45.33176086 86.07149484 19.81567353
v 45.86210215 86.38183507 19.49839071
v 45.56936807 86.64571140 20.10705610
v 45.33936475 86.92452302 20.68334587
v 45.87160572 87.24150315 20.37901317
v 46.17194368 87.81738034 20.64773255
v 56.14199430 99.62037809 28.09740889
v 52.75084623 97.79151053 28.09093351
v 52.08364147 97.35669849 28.02941930
v 52.23951336 97.26044176 27.58263333
v 51.83272875 96.81567372 27.18441080
v 50.65038662 96.30783818 27.78336312
v 50.46220208 96.43562609 28.35965289
v 49.66383806 95.52617288 27.60205884
v 49.86913005 96.24145458 28.89385395
v 55.55652615 99.05113824 27.42075391
v 55.26949627 98.78726447 27.14555979
v 54.67832649 98.20474996 26.54984452
v 54.10236319 98.04376768 26.89950329
v 53.57012093 97.87117136 27.17469773
v 53.01886768 97.30857141 26.62107116
v 52.71282810 97.40150690 27.24592501
v 49.21523209 95.78008808 28.92299253
v 48.91679639 95.43987472 28.65103546
v 47.97016435 94.63995032 28.51505693
v 47.51965870 94.40761031 28.83881513
v 47.05584753 93.82343261 28.41792940
v 46.49699297 93.55457955 28.89385395
v 46.01797404 93.12474680 28.89385395
v 45.58647552 92.72810584 28.89385395
v 45.27663399 92.15554732 28.30461407
v 44.91927205 91.65435168 28.02294456
v 44.56000786 91.14485810 27.73803737
v 43.57345672 90.41463854 28.34994046
v 43.84908334 90.98553644 28.89385395
v 43.71792279 90.25863554 27.77365069
v 42.88154191 89.35913833 27.82221413
v 42.51657609 89.06705205 28.07798339
v 42.04706073 88.45134317 28.02941930
v 41.27340804 87.47550636 28.02941930
v 40.93695549 87.04401298 28.02941930
v 40.31917212 86.70213643 28.89385395
v 40.02073641 86.27230368 28.89385395
v 40.13478952 86.11132397 28.35641520
v 39.40865724 85.90387523 29.75505091
v 39.21857044 85.61344700 29.75505091
v 38.95054770 85.61344700 30.46731857
v 38.97715872 85.69642649 30.53530816
v 38.92203443 85.61344700 30.54502059
v 46.43996642 88.39159947 20.97796549
v 45.37357965 87.74767807 21.58986858
v 45.15117764 87.99163728 22.16292098
v 46.02177598 88.14266099 21.21107155
v 45.55036093 87.55184595 21.13336953
v 49.50796617 93.92632924 24.79831266
v 49.67334163 94.65820684 25.88937767
v 49.84061934 94.53539822 25.44582907
v 50.27211529 94.85403897 25.44582907
v 50.46600403 94.70965516 24.93752889
v 50.69220798 94.54535421 24.36123912
v 44.57711531 87.66801724 22.54495537
v 44.89266103 88.23393843 22.81367475
v 44.63604155 88.47291835 23.50327986
v 44.95728890 89.02224364 23.77199923
v 44.51058519 89.47199096 25.04436885
v 45.51234152 90.19391257 24.58463211
v 44.84893999 90.00305973 25.32280098
v 45.18729479 90.52416993 25.60123311
v 45.29944564 91.27264601 26.65020974
v 45.47432467 91.09838907 26.07391997
v 46.04838700 91.38051935 25.60447080
v 46.35062465 91.95639653 26.09334547
v 46.17384336 92.12069490 26.66639755
v 46.92278729 92.22358896 25.62389598
v 47.05774722 92.96210647 26.70524856
v 47.96066078 93.78692214 26.77000014
v 47.81429246 93.04840463 25.69512294
v 48.73431347 93.85828502 25.77930002
v 50.96973429 94.89386809 24.62348312
v 52.72423392 96.55013933 25.51058064
v 53.26217909 97.16750627 26.04801940
v 50.64468500 95.44651205 26.02535621
v 50.94122101 95.79834459 26.31026340
v 50.42228298 95.60085442 26.59840828
v 51.42404189 96.36592383 26.79266333
v 52.04182269 96.53022220 26.31026340
v 52.71282810 96.96835548 26.32321384
v 53.83814239 97.33180464 25.72749857
v 53.54921154 97.46291378 26.32321384
v 54.39699824 97.91930101 26.28112514
v 55.79793787 98.93164828 26.84770216
v 56.14199430 98.85198745 26.31350109
v 45.74614936 85.61344700 18.90267544
v 45.21390582 85.61344700 19.53076633
v 44.70067198 85.66655336 20.21713375
v 44.53149458 85.99183144 20.75781020
v 45.18159060 86.40507087 20.34663754
v 44.71397749 86.51626288 21.07833071
v 44.55240397 86.83158496 21.64490740
v 56.14199430 99.46437767 27.72508661
v 52.44480664 97.13265385 27.00958126
v 50.94692264 96.19664617 27.11318352
v 50.23219619 95.73527966 27.16822299
v 48.71720602 94.72956972 27.46608030
v 48.54612636 94.86399496 28.02941930
v 49.80259993 95.42327882 27.16822299
v 49.20382626 94.96523097 27.17469773
v 48.11653010 94.52710027 28.02941930
v 47.78387950 93.93130595 27.34305189
v 47.50064899 94.05079848 28.09093351
v 47.20981717 93.68900737 27.84487733
v 46.16053785 92.99529827 28.35641520
v 45.42300232 92.01448218 27.73156199
v 45.14927795 91.42532776 27.16822299
v 44.71777943 90.97889911 27.16822299
v 44.31289451 90.54906378 27.16822299
v 43.88139856 90.08105994 27.16822299
v 43.48791946 89.64956656 27.16822299
v 43.01080022 89.06705205 27.10670878
v 42.78649852 88.60568554 26.77971289
v 42.64203245 88.78492176 27.35276496
v 41.83796680 87.85057213 27.46608030
v 41.03770051 86.91124579 27.58910871
v 40.48834952 86.42830410 28.05532019
v 40.26214556 85.91881051 27.78336312
v 39.94090078 85.61344700 28.04560776
v 39.58163658 85.61344700 28.88090383
v 39.55122362 85.61344700 28.95213047
v 49.47184901 94.81586788 26.46566744
v 44.34331004 87.09214006 22.22119717
v 43.76734546 86.72869090 22.62913277
v 44.07148536 87.32116398 22.87518896
v 44.37752494 87.89870178 23.12124514
v 44.44405506 88.68534637 24.07633193
v 43.62478164 87.77257192 24.14432120
v 43.85478497 88.36504500 24.58463211
v 42.69905900 87.84891409 25.75987452
v 43.52213436 88.75504863 25.69188525
v 43.77114740 89.32926777 26.13543417
v 44.34520973 89.65454585 25.62065861
v 44.61323247 90.22876498 26.09010778
v 45.58837778 91.85682114 27.16822299
v 46.01987373 92.26010200 27.16822299
v 46.70228496 92.45925022 26.39767817
v 46.91898535 93.08657572 27.16822299
v 47.50064899 93.56453812 27.10023340
v 48.33893212 94.25990526 27.11642121
v 48.89778668 94.58850458 26.89302823
v 56.14199430 99.22041846 27.14879748
v 56.14199430 99.20382257 27.10994647
v 56.14199430 99.18390543 27.06462008
v 44.61893409 85.61344700 20.26893552
v 44.02396237 85.65659736 21.08156840
v 44.32049839 86.25736582 21.33086227
v 46.31450749 92.85423313 27.78012607
v 44.45165895 90.39970069 26.66639755
v 44.11140446 89.87029253 26.40091586
v 43.61337582 89.51016204 26.71172362
v 42.91575682 88.45798307 26.31026340
v 42.55649262 88.02648969 26.31026340
v 41.97863092 87.67133848 26.89302823
v 42.08317789 87.36431435 26.22608632
v 41.90829886 86.89962917 25.88290261
v 41.12514003 85.92876908 26.03830665
v 40.97687202 86.13289658 26.61459610
v 40.76777809 85.62838228 26.31997615
v 40.87612699 86.43992071 27.24916206
v 40.37239673 85.61344700 27.10670878
v 43.74643606 85.89723790 21.72908480
v 43.54494344 86.15115310 22.30213688
v 42.77129075 86.03498181 23.29931205
v 43.57345672 86.97762939 23.20542222
v 43.80346262 87.55184595 23.57126912
v 44.12280771 88.12274385 23.82380037
v 42.81881373 86.83988291 24.23821103
v 42.87203835 87.63648606 25.18682244
v 43.48981915 87.93355163 24.58463211
v 42.64393213 87.06226693 24.81126279
v 42.48235862 87.34439721 25.46201688
v 44.07148536 85.61344700 20.97796549
v 44.00495524 85.61344700 21.06538059
v 43.96123419 85.61344700 21.12365710
v 42.03185296 86.73200957 25.44582907
v 41.85887619 86.10634469 24.93105351
v 41.23919313 85.61344700 25.40697806
v 40.76587583 85.61344700 26.30378834
v 43.33965145 85.61344700 22.00104187
v 43.25411162 85.61344700 22.12406997
v 42.75608555 85.61344700 22.85900082
v 42.35690226 85.61344700 23.47737929
v 42.29037213 85.67153264 23.64897114
v 42.59451204 86.26400573 23.87236413
v 42.94046815 86.51958154 23.63925839
v 42.01854745 85.88230005 24.35800143
v 41.67068908 85.61344700 24.63643356
v 42.26185886 85.61344700 23.62954564
v 42.21623813 85.61344700 23.70400997
f 1 2 6
f 1 6 16
f 1 16 33
f 1 33 51
f 1 51 34
f 1 34 17
f 1 17 7
f 1 7 3
f 1 3 8
f 1 8 19
f 1 19 39
f 1 39 53
f 1 53 72
f 1 72 114
f 1 114 160
f 1 160 219
f 1 219 287
f 1 287 349
f 1 349 416
f 1 416 480
f 1 480 552
f 1 552 551
f 1 551 564
f 1 564 563
f 1 563 562
f 1 562 641
f 1 641 725
f 1 725 721
f 1 721 724
f 1 724 814
f 1 814 816
f 1 816 918
f 1 918 920
f 1 920 1004
f 1 1004 1091
f 1 1091 999
f 1 999 1003
f 1 1003 1092
f 1 1092 1106
f 1 1106 1104
f 1 1104 1201
f 1 1201 1260
f 1 1260 1259
f 1 1259 1258
f 1 1258 1209
f 1 1209 1116
f 1 1116 1018
f 1 1018 928
f 1 928 927
f 1 927 926
f 1 926 826
f 1 826 737
f 1 737 736
f 1 736 650
f 1 650 572
f 1 572 571
f 1 571 570
f 1 570 569
f 1 569 488
f 1 488 417
f 1 417 350
f 1 350 288
f 1 288 220
f 1 220 162
f 1 162 161
f 1 161 117
f 1 117 116
f 1 116 115
f 1 115 73
f 1 73 54
f 1 54 40
f 1 40 20
f 1 20 9
f 1 9 4
f 1 4 2
f 2 5 6
f 2 4 5
f 3 7 8
f 4 9 10
f 4 10 11
f 4 11 5
f 5 12 6
f 5 11 12
f 6 12 13
f 6 13 14
f 6 14 15
f 6 15 16
f 7 17 8
f 8 17 18
f 8 18 19
f 9 20 10
f 10 20 21
f 10 21 22
f 10 22 23
f 10 23 11
f 11 24 13
f 11 13 12
f 11 23 22
f 11 22 25
f 11 25 24
f 13 24 26
f 13 26 14
f 14 26 27
f 14 27 28
f 14 28 29
f 14 29 15
f 15 29 30
f 15 30 31
f 15 31 16
f 16 31 32
f 16 32 33
f 17 34 52
f 17 52 69
f 17 69 110
f 17 110 154
f 17 154 210
f 17 210 279
f 17 279 338
f 17 338 402
f 17 402 394
f 17 394 400
f 17 400 399
f 17 399 461
f 17 461 536
f 17 536 621
f 17 621 620
f 17 620 697
f 17 697 779
f 17 779 778
f 17 778 880
f 17 880 967
f 17 967 968
f 17 968 974
f 17 974 1060
f 17 1060 1158
f 17 1158 1156
f 17 1156 1155
f 17 1155 1237
f 17 1237 1236
f 17 1236 1235
f 17 1235 1277
f 17 1277 1295
f 17 1295 1294
f 17 1294 1304
f 17 1304 1306
f 17 1306 1305
f 17 1305 1299
f 17 1299 1298
f 17 1298 1297
f 17 1297 1296
f 17 1296 1291
f 17 1291 1290
f 17 1290 1289
f 17 1289 1261
f 17 1261 1203
f 17 1203 1202
f 17 1202 1108
f 17 1108 1107
f 17 1107 1012
f 17 1012 921
f 17 921 820
f 17 820 817
f 17 817 727
f 17 727 726
f 17 726 698
f 17 698 623
f 17 623 622
f 17 622 538
f 17 538 537
f 17 537 467
f 17 467 466
f 17 466 465
f 17 465 462
f 17 462 403
f 17 403 339
f 17 339 281
f 17 281 213
f 17 213 211
f 17 211 155
f 17 155 111
f 17 111 70
f 17 70 53
f 17 53 39
f 17 39 38
f 17 38 36
f 17 36 35
f 17 35 18
f 18 35 19
f 19 35 36
f 19 36 37
f 19 37 38
f 19 38 39
f 20 40 21
f 21 40 41
f 21 41 22
f 22 41 42
f 22 42 25
f 24 27 26
f 24 25 42
f 24 42 43
f 24 43 27
f 27 43 44
f 27 44 45
f 27 45 28
f 28 45 46
f 28 46 29
f 29 46 47
f 29 47 48
f 29 48 30
f 30 48 31
f 31 48 32
f 32 49 50
f 32 50 33
f 32 48 49
f 33 50 51
f 34 51 52
f 36 38 37
f 40 54 41
f 41 54 55
f 41 55 56
f 41 56 57
f 41 57 42
f 42 57 58
f 42 58 43
f 43 58 59
f 43 59 44
f 44 59 60
f 44 60 45
f 45 60 46
f 46 60 61
f 46 61 62
f 46 62 47
f 47 62 48
f 48 62 63
f 48 63 64
f 48 64 65
f 48 65 49
f 49 65 50
f 50 52 51
f 50 65 66
f 50 66 52
f 52 66 67
f 52 67 68
f 52 68 69
f 53 70 71
f 53 71 72
f 54 73 74
f 54 74 75
f 54 75 55
f 55 75 76
f 55 76 74
f 55 74 77
f 55 77 78
f 55 78 79
f 55 79 80
f 55 80 81
f 55 81 82
f 55 82 56
f 56 82 83
f 56 83 57
f 57 83 84
f 57 84 85
f 57 85 86
f 57 86 87
f 57 87 88
f 57 88 58
f 58 88 89
f 58 89 90
f 58 90 91
f 58 91 92
f 58 92 93
f 58 93 59
f 59 93 94
f 59 94 95
f 59 95 96
f 59 96 97
f 59 97 60
f 60 97 98
f 60 98 99
f 60 99 100
f 60 100 101
f 60 101 61
f 61 101 62
f 62 101 102
f 62 102 63
f 63 103 104
f 63 104 64
f 63 102 105
f 63 105 103
f 64 104 65
f 65 106 66
f 65 104 106
f 66 106 107
f 66 107 67
f 67 107 68
f 68 107 108
f 68 108 109
f 68 109 110
f 68 110 69
f 70 111 112
f 70 112 71
f 71 112 113
f 71 113 72
f 72 113 114
f 73 115 74
f 74 115 116
f 74 116 117
f 74 117 118
f 74 118 119
f 74 119 77
f 74 76 75
f 77 119 78
f 78 119 120
f 78 120 80
f 78 80 121
f 78 121 79
f 79 121 80
f 80 120 122
f 80 122 123
f 80 123 81
f 81 123 124
f 81 124 85
f 81 85 82
f 82 85 83
f 83 85 84
f 85 124 125
f 85 125 86
f 86 125 126
f 86 126 127
f 86 127 87
f 87 127 128
f 87 128 129
f 87 129 88
f 88 129 130
f 88 130 89
f 89 130 129
f 89 129 131
f 89 131 90
f 90 131 91
f 91 131 129
f 91 129 92
f 92 129 132
f 92 132 93
f 93 132 133
f 93 133 134
f 93 134 94
f 94 134 135
f 94 135 95
f 95 135 136
f 95 136 137
f 95 137 96
f 96 137 97
f 97 137 138
f 97 138 139
f 97 139 140
f 97 140 141
f 97 141 98
f 98 141 142
f 98 142 99
f 99 142 100
f 100 142 101
f 101 142 141
f 101 141 143
f 101 143 102
f 102 143 144
f 102 144 145
f 102 145 105
f 103 146 104
f 103 105 146
f 104 146 147
f 104 147 106
f 105 148 146
f 105 145 149
f 105 149 150
f 105 150 148
f 106 147 107
f 107 147 151
f 107 151 108
f 108 151 152
f 108 152 153
f 108 153 109
f 109 153 154
f 109 154 110
f 111 155 156
f 111 156 112
f 112 156 157
f 112 157 158
f 112 158 159
f 112 159 113
f 113 159 160
f 113 160 114
f 117 161 118
f 118 161 162
f 118 162 163
f 118 163 164
f 118 164 119
f 119 164 165
f 119 165 120
f 120 165 122
f 122 165 166
f 122 166 167
f 122 167 123
f 123 167 168
f 123 168 124
f 124 168 169
f 124 169 170
f 124 170 171
f 124 171 125
f 125 171 126
f 126 171 172
f 126 172 127
f 127 172 173
f 127 173 174
f 127 174 128
f 128 174 175
f 128 175 129
f 129 176 132
f 129 175 176
f 132 176 177
f 132 177 133
f 133 177 178
f 133 178 179
f 133 179 134
f 134 137 136
f 134 136 135
f 134 179 180
f 134 180 181
f 134 181 182
f 134 182 137
f 137 182 183
f 137 183 138
f 138 183 139
f 139 183 184
f 139 184 140
f 140 184 185
f 140 185 186
f 140 186 141
f 141 186 187
f 141 187 188
f 141 188 189
f 141 189 143
f 143 189 190
f 143 190 191
f 143 191 144
f 144 191 192
f 144 192 145
f 145 192 193
f 145 193 149
f 146 152 151
f 146 151 147
f 146 148 194
f 146 194 195
f 146 195 152
f 148 150 194
f 149 193 196
f 149 196 197
f 149 197 198
f 149 198 199
f 149 199 200
f 149 200 195
f 149 195 194
f 149 194 150
f 152 195 201
f 152 201 202
f 152 202 203
f 152 203 204
f 152 204 153
f 153 204 205
f 153 205 206
f 153 206 207
f 153 207 208
f 153 208 209
f 153 209 210
f 153 210 154
f 155 211 156
f 156 211 157
f 157 212 158
f 157 211 213
f 157 213 214
f 157 214 215
f 157 215 212
f 158 212 159
f 159 212 216
f 159 216 217
f 159 217 218
f 159 218 160
f 160 218 219
f 162 220 163
f 163 220 221
f 163 221 164
f 164 221 222
f 164 222 165
f 165 222 223
f 165 223 166
f 166 223 167
f 167 223 224
f 167 224 168
f 168 224 225
f 168 225 226
f 168 226 169
f 169 226 170
f 170 227 228
f 170 228 175
f 170 175 174
f 170 174 229
f 170 229 171
f 170 226 230
f 170 230 231
f 170 231 232
f 170 232 233
f 170 233 227
f 171 229 172
f 172 229 173
f 173 229 174
f 175 228 227
f 175 227 234
f 175 234 235
f 175 235 236
f 175 236 237
f 175 237 238
f 175 238 176
f 176 238 177
f 177 238 239
f 177 239 240
f 177 240 178
f 178 240 179
f 179 240 241
f 179 241 180
f 180 241 242
f 180 242 243
f 180 243 244
f 180 244 245
f 180 245 181
f 181 245 246
f 181 246 247
f 181 247 248
f 181 248 182
f 182 248 183
f 183 248 249
f 183 249 184
f 184 249 248
f 184 248 185
f 185 248 247
f 185 247 250
f 185 250 186
f 186 250 187
f 187 250 251
f 187 251 252
f 187 252 253
f 187 253 254
f 187 254 188
f 188 254 255
f 188 255 189
f 189 255 190
f 190 255 256
f 190 256 191
f 191 256 192
f 192 256 257
f 192 257 196
f 192 196 193
f 195 200 258
f 195 258 259
f 195 259 201
f 196 257 260
f 196 260 197
f 197 260 261
f 197 261 262
f 197 262 263
f 197 263 264
f 197 264 198
f 198 264 265
f 198 265 266
f 198 266 267
f 198 267 199
f 199 267 200
f 200 267 268
f 200 268 258
f 201 259 202
f 202 259 269
f 202 269 270
f 202 270 203
f 203 270 204
f 204 270 271
f 204 271 272
f 204 272 273
f 204 273 205
f 205 273 274
f 205 274 275
f 205 275 276
f 205 276 206
f 206 276 277
f 206 277 207
f 207 277 208
f 208 277 276
f 208 276 209
f 209 276 275
f 209 275 278
f 209 278 210
f 210 278 279
f 212 215 280
f 212 280 216
f 213 281 214
f 214 281 282
f 214 282 283
f 214 283 215
f 215 283 284
f 215 284 280
f 216 285 217
f 216 280 284
f 216 284 286
f 216 286 285
f 217 285 219
f 217 219 218
f 219 285 287
f 220 288 221
f 221 288 289
f 221 289 222
f 222 289 223
f 223 289 290
f 223 290 291
f 223 291 224
f 224 291 230
f 224 230 225
f 225 230 226
f 227 233 292
f 227 292 235
f 227 235 234
f 230 291 293
f 230 293 231
f 231 294 295
f 231 295 232
f 231 293 294
f 232 295 296
f 232 296 297
f 232 297 233
f 233 297 298
f 233 298 292
f 235 243 299
f 235 299 236
f 235 292 300
f 235 300 301
f 235 301 302
f 235 302 303
f 235 303 304
f 235 304 243
f 236 299 242
f 236 242 305
f 236 305 237
f 237 305 241
f 237 241 240
f 237 240 239
f 237 239 238
f 241 305 242
f 242 299 243
f 243 304 306
f 243 306 307
f 243 307 244
f 244 307 245
f 245 307 308
f 245 308 246
f 246 308 309
f 246 309 250
f 246 250 247
f 250 309 310
f 250 310 251
f 251 310 311
f 251 311 252
f 252 311 310
f 252 310 312
f 252 312 313
f 252 313 314
f 252 314 315
f 252 315 316
f 252 316 317
f 252 317 318
f 252 318 253
f 253 318 261
f 253 261 260
f 253 260 254
f 254 260 256
f 254 256 255
f 256 260 257
f 258 269 259
f 258 268 319
f 258 319 320
f 258 320 271
f 258 271 269
f 261 318 317
f 261 317 321
f 261 321 262
f 262 321 322
f 262 322 323
f 262 323 263
f 263 323 324
f 263 324 325
f 263 325 326
f 263 326 383
f 263 383 327
f 263 327 264
f 264 328 329
f 264 329 265
f 264 327 328
f 265 329 266
f 266 329 319
f 266 319 267
f 267 319 268
f 269 271 270
f 271 320 319
f 271 319 330
f 271 330 389
f 271 389 331
f 271 331 272
f 272 331 332
f 272 332 333
f 272 333 273
f 273 333 274
f 274 333 334
f 274 334 335
f 274 335 275
f 275 336 278
f 275 335 336
f 278 336 337
f 278 337 279
f 279 337 338
f 281 339 282
f 282 339 340
f 282 340 341
f 282 341 283
f 283 341 342
f 283 342 284
f 284 343 344
f 284 344 345
f 284 345 286
f 284 342 346
f 284 346 347
f 284 347 343
f 285 348 287
f 285 286 345
f 285 345 348
f 287 348 349
f 288 350 351
f 288 351 289
f 289 351 352
f 289 352 290
f 290 352 353
f 290 353 354
f 290 354 291
f 291 294 293
f 291 354 294
f 292 298 300
f 294 354 355
f 294 355 356
f 294 356 295
f 295 356 357
f 295 357 358
f 295 358 296
f 296 358 359
f 296 359 360
f 296 360 361
f 296 361 297
f 297 361 362
f 297 362 363
f 297 363 364
f 297 364 298
f 298 364 300
f 300 364 301
f 301 364 363
f 301 363 302
f 302 365 303
f 302 363 366
f 302 366 365
f 303 365 367
f 303 367 304
f 304 367 306
f 306 367 368
f 306 368 369
f 306 369 308
f 306 308 307
f 308 369 370
f 308 370 309
f 309 370 310
f 310 370 371
f 310 371 312
f 312 371 372
f 312 372 373
f 312 373 313
f 313 373 314
f 314 373 374
f 314 374 375
f 314 375 376
f 314 376 315
f 315 376 377
f 315 377 316
f 316 378 317
f 316 377 379
f 316 379 380
f 316 380 378
f 317 324 321
f 317 378 324
f 319 329 381
f 319 381 330
f 321 324 322
f 322 324 323
f 324 378 325
f 325 378 382
f 325 382 326
f 326 382 384
f 326 384 385
f 326 385 386
f 326 386 383
f 327 383 387
f 327 387 328
f 328 387 388
f 328 388 381
f 328 381 329
f 330 381 388
f 330 388 390
f 330 390 391
f 330 391 389
f 331 389 332
f 332 389 392
f 332 392 333
f 333 392 334
f 334 392 393
f 334 393 335
f 335 394 395
f 335 395 336
f 335 393 396
f 335 396 397
f 335 397 398
f 335 398 399
f 335 399 400
f 335 400 394
f 336 395 337
f 337 395 401
f 337 401 402
f 337 402 338
f 339 403 404
f 339 404 340
f 340 404 405
f 340 405 341
f 341 405 406
f 341 406 342
f 342 406 346
f 343 347 407
f 343 407 408
f 343 408 409
f 343 409 410
f 343 410 411
f 343 411 344
f 344 411 345
f 345 411 412
f 345 412 348
f 346 406 413
f 346 413 414
f 346 414 347
f 347 414 415
f 347 415 407
f 348 412 416
f 348 416 349
f 350 417 418
f 350 418 351
f 351 418 352
f 352 418 419
f 352 419 420
f 352 420 353
f 353 420 421
f 353 421 422
f 353 422 423
f 353 423 354
f 354 423 424
f 354 424 355
f 355 424 357
f 355 357 356
f 357 359 358
f 357 424 425
f 357 425 359
f 359 361 360
f 359 425 426
f 359 426 427
f 359 427 361
f 361 427 428
f 361 428 362
f 362 428 429
f 362 429 430
f 362 430 363
f 363 430 366
f 365 366 431
f 365 431 367
f 366 430 432
f 366 432 433
f 366 433 431
f 367 431 434
f 367 434 435
f 367 435 368
f 368 435 369
f 369 435 436
f 369 436 370
f 370 436 437
f 370 437 438
f 370 438 371
f 371 438 372
f 372 438 439
f 372 439 440
f 372 440 373
f 373 440 374
f 374 440 441
f 374 441 375
f 375 441 442
f 375 442 443
f 375 443 376
f 376 443 377
f 377 443 379
f 378 380 382
f 379 444 382
f 379 382 380
f 379 443 445
f 379 445 444
f 382 444 384
f 383 446 387
f 383 386 447
f 383 447 446
f 384 444 448
f 384 448 385
f 385 448 449
f 385 449 450
f 385 450 386
f 386 450 447
f 387 446 451
f 387 451 456
f 387 456 452
f 387 452 390
f 387 390 388
f 389 391 453
f 389 453 393
f 389 393 392
f 390 452 454
f 390 454 391
f 391 454 455
f 391 455 396
f 391 396 453
f 393 453 396
f 394 402 401
f 394 401 395
f 396 455 397
f 397 455 454
f 397 454 456
f 397 456 457
f 397 457 458
f 397 458 459
f 397 459 460
f 397 460 398
f 398 460 461
f 398 461 399
f 403 462 404
f 404 463 413
f 404 413 464
f 404 464 406
f 404 406 405
f 404 462 465
f 404 465 466
f 404 466 467
f 404 467 468
f 404 468 463
f 406 464 413
f 407 469 470
f 407 470 409
f 407 409 408
f 407 415 469
f 409 470 471
f 409 471 472
f 409 472 410
f 410 473 474
f 410 474 475
f 410 475 411
f 410 472 476
f 410 476 477
f 410 477 478
f 410 478 473
f 411 475 479
f 411 479 412
f 412 479 475
f 412 475 474
f 412 474 480
f 412 480 416
f 413 463 468
f 413 468 481
f 413 481 482
f 413 482 483
f 413 483 484
f 413 484 485
f 413 485 414
f 414 485 486
f 414 486 487
f 414 487 470
f 414 470 469
f 414 469 415
f 417 488 489
f 417 489 418
f 418 489 421
f 418 421 490
f 418 490 419
f 419 490 420
f 420 490 421
f 421 489 488
f 421 488 491
f 421 491 492
f 421 492 493
f 421 493 494
f 421 494 422
f 422 494 423
f 423 494 424
f 424 494 495
f 424 495 425
f 425 496 497
f 425 497 498
f 425 498 426
f 425 495 496
f 426 498 499
f 426 499 500
f 426 500 427
f 427 500 501
f 427 501 502
f 427 502 428
f 428 502 503
f 428 503 429
f 429 504 433
f 429 433 432
f 429 432 430
f 429 503 505
f 429 505 506
f 429 506 507
f 429 507 504
f 431 433 504
f 431 504 434
f 434 508 509
f 434 509 510
f 434 510 437
f 434 437 436
f 434 436 435
f 434 504 511
f 434 511 512
f 434 512 508
f 437 510 513
f 437 513 438
f 438 513 439
f 439 513 514
f 439 514 440
f 440 514 515
f 440 515 441
f 441 515 442
f 442 515 516
f 442 516 443
f 443 516 445
f 444 445 517
f 444 517 448
f 445 516 518
f 445 518 519
f 445 519 520
f 445 520 517
f 446 447 521
f 446 521 522
f 446 522 451
f 447 523 524
f 447 524 525
f 447 525 521
f 447 450 449
f 447 449 526
f 447 526 527
f 447 527 528
f 447 528 529
f 447 529 523
f 448 517 449
f 449 517 530
f 449 530 531
f 449 531 526
f 451 522 456
f 452 456 454
f 456 522 525
f 456 525 457
f 457 525 532
f 457 532 458
f 458 532 533
f 458 533 459
f 459 533 534
f 459 534 460
f 460 534 535
f 460 535 461
f 461 535 536
f 467 537 468
f 468 537 538
f 468 538 539
f 468 539 540
f 468 540 541
f 468 541 482
f 468 482 481
f 470 542 471
f 470 487 486
f 470 486 543
f 470 543 544
f 470 544 545
f 470 545 546
f 470 546 547
f 470 547 548
f 470 548 542
f 471 542 549
f 471 549 472
f 472 549 476
f 473 478 474
f 474 478 550
f 474 550 551
f 474 551 552
f 474 552 480
f 476 553 478
f 476 478 477
f 476 549 554
f 476 554 555
f 476 555 556
f 476 556 557
f 476 557 558
f 476 558 559
f 476 559 553
f 478 553 560
f 478 560 561
f 478 561 562
f 478 562 563
f 478 563 564
f 478 564 551
f 478 551 550
f 482 541 565
f 482 565 566
f 482 566 483
f 483 566 567
f 483 567 486
f 483 486 485
f 483 485 484
f 486 567 568
f 486 568 543
f 488 569 491
f 491 569 570
f 491 570 571
f 491 571 492
f 492 571 572
f 492 572 573
f 492 573 574
f 492 574 575
f 492 575 576
f 492 576 493
f 493 576 494
f 494 576 495
f 495 576 496
f 496 577 578
f 496 578 579
f 496 579 497
f 496 576 577
f 497 579 580
f 497 580 581
f 497 581 582
f 497 582 583
f 497 583 498
f 498 583 499
f 499 583 500
f 500 583 584
f 500 584 501
f 501 584 502
f 502 584 585
f 502 585 586
f 502 586 587
f 502 587 503
f 503 587 588
f 503 588 589
f 503 589 590
f 503 590 505
f 504 507 511
f 505 590 506
f 506 590 507
f 507 590 511
f 508 512 591
f 508 591 592
f 508 592 593
f 508 593 509
f 509 593 514
f 509 514 513
f 509 513 510
f 511 590 594
f 511 594 595
f 511 595 596
f 511 596 512
f 512 596 597
f 512 597 591
f 514 593 598
f 514 598 599
f 514 599 600
f 514 600 601
f 514 601 515
f 515 601 518
f 515 518 516
f 517 520 530
f 518 601 602
f 518 602 603
f 518 603 519
f 519 603 604
f 519 604 605
f 519 605 606
f 519 606 607
f 519 607 520
f 520 607 530
f 521 525 522
f 523 529 608
f 523 608 609
f 523 609 532
f 523 532 524
f 524 532 610
f 524 610 525
f 525 610 532
f 526 531 611
f 526 611 527
f 527 611 612
f 527 612 613
f 527 613 614
f 527 614 528
f 528 614 615
f 528 615 529
f 529 615 616
f 529 616 608
f 530 611 531
f 530 607 617
f 530 617 611
f 532 609 533
f 533 609 535
f 533 535 534
f 535 609 618
f 535 618 619
f 535 619 620
f 535 620 621
f 535 621 536
f 538 622 539
f 539 622 540
f 540 622 623
f 540 623 624
f 540 624 541
f 541 624 565
f 542 548 549
f 543 568 544
f 544 625 626
f 544 626 627
f 544 627 545
f 544 568 625
f 545 627 628
f 545 628 629
f 545 629 546
f 546 629 547
f 547 629 555
f 547 555 548
f 548 555 554
f 548 554 549
f 553 559 560
f 555 629 630
f 555 630 631
f 555 631 632
f 555 632 633
f 555 633 634
f 555 634 635
f 555 635 636
f 555 636 637
f 555 637 556
f 556 637 558
f 556 558 557
f 558 637 638
f 558 638 559
f 559 638 639
f 559 639 640
f 559 640 641
f 559 641 642
f 559 642 560
f 560 642 561
f 561 642 562
f 562 642 641
f 565 624 643
f 565 643 644
f 565 644 645
f 565 645 646
f 565 646 566
f 566 646 647
f 566 647 648
f 566 648 567
f 567 648 649
f 567 649 568
f 568 649 625
f 572 650 573
f 573 650 651
f 573 651 652
f 573 652 653
f 573 653 654
f 573 654 574
f 574 655 575
f 574 654 655
f 575 655 577
f 575 577 576
f 577 655 578
f 578 655 654
f 578 654 656
f 578 656 579
f 579 656 657
f 579 657 658
f 579 658 580
f 580 658 581
f 581 658 582
f 582 658 659
f 582 659 660
f 582 660 661
f 582 661 584
f 582 584 583
f 584 661 662
f 584 662 663
f 584 663 585
f 585 663 664
f 585 664 586
f 586 664 665
f 586 665 666
f 586 666 587
f 587 666 588
f 588 667 595
f 588 595 594
f 588 594 589
f 588 666 665
f 588 665 668
f 588 668 669
f 588 669 670
f 588 670 667
f 589 594 590
f 591 597 671
f 591 671 592
f 592 598 593
f 592 671 598
f 595 672 596
f 595 667 670
f 595 670 672
f 596 672 673
f 596 673 597
f 597 673 671
f 598 671 674
f 598 674 599
f 599 674 675
f 599 675 600
f 600 675 676
f 600 676 677
f 600 677 678
f 600 678 601
f 601 678 602
f 602 678 679
f 602 679 680
f 602 680 681
f 602 681 603
f 603 681 682
f 603 682 683
f 603 683 604
f 604 684 605
f 604 683 685
f 604 685 684
f 605 684 606
f 606 617 607
f 606 684 685
f 606 685 686
f 606 686 617
f 608 619 618
f 608 618 609
f 608 616 615
f 608 615 687
f 608 687 688
f 608 688 689
f 608 689 619
f 611 617 690
f 611 690 612
f 612 690 613
f 613 690 691
f 613 691 692
f 613 692 693
f 613 693 694
f 613 694 614
f 614 694 695
f 614 695 696
f 614 696 615
f 615 696 687
f 617 686 690
f 619 689 697
f 619 697 620
f 623 698 624
f 624 698 643
f 625 649 626
f 626 699 700
f 626 700 628
f 626 628 627
f 626 649 701
f 626 701 699
f 628 700 702
f 628 702 703
f 628 703 704
f 628 704 705
f 628 705 706
f 628 706 707
f 628 707 629
f 629 707 708
f 629 708 630
f 630 708 631
f 631 709 632
f 631 708 707
f 631 707 710
f 631 710 709
f 632 709 711
f 632 711 712
f 632 712 713
f 632 713 633
f 633 713 634
f 634 714 715
f 634 715 637
f 634 637 716
f 634 716 635
f 634 713 717
f 634 717 718
f 634 718 719
f 634 719 714
f 635 716 636
f 636 716 637
f 637 715 720
f 637 720 639
f 637 639 638
f 639 721 640
f 639 720 722
f 639 722 723
f 639 723 724
f 639 724 721
f 640 725 641
f 640 721 725
f 643 698 726
f 643 726 727
f 643 727 728
f 643 728 729
f 643 729 644
f 644 729 645
f 645 729 730
f 645 730 731
f 645 731 732
f 645 732 646
f 646 732 647
f 647 732 733
f 647 733 734
f 647 734 735
f 647 735 701
f 647 701 648
f 648 701 649
f 650 736 651
f 651 736 737
f 651 737 738
f 651 738 652
f 652 738 739
f 652 739 740
f 652 740 656
f 652 656 654
f 652 654 653
f 656 740 741
f 656 741 657
f 657 741 742
f 657 742 658
f 658 742 659
f 659 742 660
f 660 743 744
f 660 744 745
f 660 745 661
f 660 742 741
f 660 741 746
f 660 746 747
f 660 747 748
f 660 748 749
f 660 749 750
f 660 750 743
f 661 745 662
f 662 664 663
f 662 745 751
f 662 751 752
f 662 752 664
f 664 752 665
f 665 752 751
f 665 751 668
f 668 751 753
f 668 753 669
f 669 753 754
f 669 754 670
f 670 754 673
f 670 673 672
f 671 673 755
f 671 755 674
f 673 756 755
f 673 754 757
f 673 757 756
f 674 676 675
f 674 755 676
f 676 755 677
f 677 679 678
f 677 755 680
f 677 680 679
f 680 755 758
f 680 758 759
f 680 759 760
f 680 760 681
f 681 760 761
f 681 761 762
f 681 762 763
f 681 763 764
f 681 764 682
f 682 765 683
f 682 764 765
f 683 765 766
f 683 766 685
f 685 766 767
f 685 767 686
f 686 768 769
f 686 769 690
f 686 767 770
f 686 770 771
f 686 771 772
f 686 772 773
f 686 773 774
f 686 774 775
f 686 775 768
f 687 696 776
f 687 776 777
f 687 777 688
f 688 777 778
f 688 778 689
f 689 779 697
f 689 778 779
f 690 769 691
f 691 769 692
f 692 769 693
f 693 769 780
f 693 780 781
f 693 781 782
f 693 782 783
f 693 783 695
f 693 695 694
f 695 783 696
f 696 783 784
f 696 784 785
f 696 785 786
f 696 786 776
f 699 701 735
f 699 735 787
f 699 787 702
f 699 702 700
f 702 788 703
f 702 787 733
f 702 733 788
f 703 789 790
f 703 790 791
f 703 791 704
f 703 788 789
f 704 792 793
f 704 793 705
f 704 791 794
f 704 794 795
f 704 795 792
f 705 793 792
f 705 792 796
f 705 796 710
f 705 710 706
f 706 710 707
f 709 710 711
f 710 796 711
f 711 797 798
f 711 798 799
f 711 799 800
f 711 800 717
f 711 717 801
f 711 801 712
f 711 796 792
f 711 792 797
f 712 801 717
f 712 717 713
f 714 722 715
f 714 719 802
f 714 802 803
f 714 803 722
f 715 722 720
f 717 800 804
f 717 804 805
f 717 805 719
f 717 719 718
f 719 805 806
f 719 806 807
f 719 807 808
f 719 808 809
f 719 809 810
f 719 810 811
f 719 811 812
f 719 812 802
f 722 803 813
f 722 813 723
f 723 814 724
f 723 813 815
f 723 815 816
f 723 816 814
f 727 817 728
f 728 817 729
f 729 818 819
f 729 819 730
f 729 817 820
f 729 820 818
f 730 819 821
f 730 821 731
f 731 821 822
f 731 822 732
f 732 822 823
f 732 823 824
f 732 824 733
f 733 825 788
f 733 787 735
f 733 735 734
f 733 824 825
f 737 826 738
f 738 826 827
f 738 827 828
f 738 828 739
f 739 828 829
f 739 829 830
f 739 830 831
f 739 831 740
f 740 831 832
f 740 832 741
f 741 832 833
f 741 833 747
f 741 747 746
f 743 834 835
f 743 835 744
f 743 750 834
f 744 836 751
f 744 751 745
f 744 835 837
f 744 837 838
f 744 838 839
f 744 839 840
f 744 840 841
f 744 841 836
f 747 833 750
f 747 750 748
f 748 750 749
f 750 842 843
f 750 843 844
f 750 844 845
f 750 845 846
f 750 846 834
f 750 833 842
f 751 847 848
f 751 848 753
f 751 836 841
f 751 841 840
f 751 840 847
f 753 849 757
f 753 757 754
f 753 848 850
f 753 850 851
f 753 851 852
f 753 852 849
f 755 756 758
f 756 757 758
f 757 853 854
f 757 854 758
f 757 849 852
f 757 852 853
f 758 855 856
f 758 856 761
f 758 761 759
f 758 854 857
f 758 857 858
f 758 858 855
f 759 761 760
f 761 856 859
f 761 859 762
f 762 860 763
f 762 859 861
f 762 861 862
f 762 862 860
f 763 860 764
f 764 860 863
f 764 863 864
f 764 864 865
f 764 865 766
f 764 766 765
f 766 865 770
f 766 770 767
f 768 775 781
f 768 781 769
f 769 781 780
f 770 865 864
f 770 864 866
f 770 866 771
f 771 866 867
f 771 867 868
f 771 868 772
f 772 868 869
f 772 869 773
f 773 869 870
f 773 870 871
f 773 871 872
f 773 872 873
f 773 873 775
f 773 775 774
f 775 873 874
f 775 874 875
f 775 875 876
f 775 876 877
f 775 877 783
f 775 783 781
f 776 878 777
f 776 786 879
f 776 879 878
f 777 880 778
f 777 878 881
f 777 881 880
f 781 783 782
f 783 877 784
f 784 877 882
f 784 882 883
f 784 883 785
f 785 884 879
f 785 879 786
f 785 883 885
f 785 885 884
f 788 825 886
f 788 886 789
f 789 886 887
f 789 887 888
f 789 888 790
f 790 888 794
f 790 794 791
f 792 795 889
f 792 889 890
f 792 890 891
f 792 891 797
f 794 892 893
f 794 893 894
f 794 894 895
f 794 895 896
f 794 896 897
f 794 897 898
f 794 898 890
f 794 890 795
f 794 888 887
f 794 887 899
f 794 899 892
f 795 890 889
f 797 891 798
f 798 891 890
f 798 890 900
f 798 900 901
f 798 901 902
f 798 902 903
f 798 903 904
f 798 904 804
f 798 804 799
f 799 804 800
f 802 812 815
f 802 815 803
f 803 815 813
f 804 904 905
f 804 905 806
f 804 806 805
f 806 906 807
f 806 905 906
f 807 906 907
f 807 907 808
f 808 907 908
f 808 908 809
f 809 909 910
f 809 910 911
f 809 911 912
f 809 912 913
f 809 913 810
f 809 908 914
f 809 914 915
f 809 915 916
f 809 916 917
f 809 917 909
f 810 913 811
f 811 913 812
f 812 918 815
f 812 913 919
f 812 919 912
f 812 912 911
f 812 911 920
f 812 920 918
f 815 918 816
f 818 921 922
f 818 922 819
f 818 820 921
f 819 922 821
f 821 922 823
f 821 823 822
f 823 923 924
f 823 924 825
f 823 825 824
f 823 922 925
f 823 925 923
f 825 924 886
f 826 926 827
f 827 926 927
f 827 927 828
f 828 927 928
f 828 928 829
f 829 928 929
f 829 929 830
f 830 929 930
f 830 930 843
f 830 843 831
f 831 931 832
f 831 843 842
f 831 842 931
f 832 931 842
f 832 842 833
f 834 846 837
f 834 837 835
f 837 845 932
f 837 932 838
f 837 846 845
f 838 932 933
f 838 933 839
f 839 933 934
f 839 934 840
f 840 934 935
f 840 935 936
f 840 936 937
f 840 937 847
f 843 932 844
f 843 930 938
f 843 938 939
f 843 939 940
f 843 940 941
f 843 941 942
f 843 942 943
f 843 943 944
f 843 944 945
f 843 945 932
f 844 932 845
f 847 937 848
f 848 937 850
f 850 937 946
f 850 946 947
f 850 947 851
f 851 947 948
f 851 948 949
f 851 949 950
f 851 950 951
f 851 951 854
f 851 854 853
f 851 853 852
f 854 952 857
f 854 951 952
f 855 858 856
f 856 858 861
f 856 861 859
f 857 952 858
f 858 953 861
f 858 952 953
f 860 862 954
f 860 954 863
f 861 953 955
f 861 955 862
f 862 955 954
f 863 954 956
f 863 956 864
f 864 956 957
f 864 957 958
f 864 958 866
f 866 958 867
f 867 958 870
f 867 870 868
f 868 870 869
f 870 958 959
f 870 959 871
f 871 959 960
f 871 960 872
f 872 960 873
f 873 960 874
f 874 960 961
f 874 961 962
f 874 962 963
f 874 963 964
f 874 964 965
f 874 965 875
f 875 965 876
f 876 965 966
f 876 966 882
f 876 882 877
f 878 879 884
f 878 884 881
f 880 881 967
f 881 884 968
f 881 968 967
f 882 969 883
f 882 966 970
f 882 970 969
f 883 968 885
f 883 969 971
f 883 971 972
f 883 972 973
f 883 973 974
f 883 974 968
f 884 885 968
f 886 899 887
f 886 924 975
f 886 975 976
f 886 976 977
f 886 977 899
f 890 898 978
f 890 978 979
f 890 979 980
f 890 980 900
f 892 977 893
f 892 899 981
f 892 981 977
f 893 977 982
f 893 982 894
f 894 983 984
f 894 984 985
f 894 985 986
f 894 986 895
f 894 982 983
f 895 986 987
f 895 987 896
f 896 987 988
f 896 988 897
f 897 979 978
f 897 978 898
f 897 988 989
f 897 989 990
f 897 990 991
f 897 991 979
f 899 977 981
f 900 980 901
f 901 979 992
f 901 992 993
f 901 993 902
f 901 980 979
f 902 993 903
f 903 993 994
f 903 994 995
f 903 995 996
f 903 996 904
f 904 996 905
f 905 996 997
f 905 997 906
f 906 997 998
f 906 998 907
f 907 998 908
f 908 998 914
f 909 999 1000
f 909 1000 910
f 909 917 1001
f 909 1001 1002
f 909 1002 1003
f 909 1003 999
f 910 1000 911
f 911 1000 1004
f 911 1004 1005
f 911 1005 920
f 912 919 913
f 914 1006 1007
f 914 1007 915
f 914 998 1006
f 915 1007 1008
f 915 1008 916
f 916 1001 917
f 916 1008 1009
f 916 1009 1010
f 916 1010 1011
f 916 1011 1001
f 920 1005 1004
f 921 1012 922
f 922 1012 1013
f 922 1013 1014
f 922 1014 1015
f 922 1015 1016
f 922 1016 923
f 922 923 925
f 923 1016 1015
f 923 1015 975
f 923 975 924
f 928 1017 929
f 928 1018 939
f 928 939 1017
f 929 1017 930
f 930 1017 939
f 930 939 938
f 932 945 1019
f 932 1019 933
f 933 1019 1020
f 933 1020 1021
f 933 1021 1022
f 933 1022 934
f 934 1022 1023
f 934 1023 1024
f 934 1024 935
f 935 1024 936
f 936 1024 1025
f 936 1025 946
f 936 946 937
f 939 1018 1026
f 939 1026 941
f 939 941 940
f 941 1027 1028
f 941 1028 942
f 941 1026 1027
f 942 1028 1029
f 942 1029 1030
f 942 1030 1031
f 942 1031 943
f 943 1031 1032
f 943 1032 944
f 944 1032 1033
f 944 1033 945
f 945 1033 1019
f 946 1025 947
f 947 1025 1034
f 947 1034 948
f 948 1034 1035
f 948 1035 949
f 949 953 950
f 949 1035 953
f 950 953 951
f 951 953 952
f 953 1035 1036
f 953 1036 1037
f 953 1037 955
f 954 955 956
f 955 1037 1038
f 955 1038 1039
f 955 1039 1040
f 955 1040 956
f 956 1040 957
f 957 1041 959
f 957 959 958
f 957 1040 1039
f 957 1039 1042
f 957 1042 1043
f 957 1043 1044
f 957 1044 1045
f 957 1045 1046
f 957 1046 1041
f 959 1041 1047
f 959 1047 960
f 960 1047 961
f 961 1047 1048
f 961 1048 962
f 962 1048 963
f 963 1048 1049
f 963 1049 1050
f 963 1050 1051
f 963 1051 1052
f 963 1052 1053
f 963 1053 964
f 964 1054 1055
f 964 1055 965
f 964 1053 1056
f 964 1056 1057
f 964 1057 1054
f 965 1055 1058
f 965 1058 966
f 966 1058 970
f 969 970 1058
f 969 1058 971
f 971 1058 1059
f 971 1059 972
f 972 1059 974
f 972 974 973
f 974 1059 1060
f 975 1015 1061
f 975 1061 976
f 976 1061 1062
f 976 1062 1063
f 976 1063 977
f 977 1063 1064
f 977 1064 1065
f 977 1065 1066
f 977 1066 983
f 977 983 982
f 979 991 990
f 979 990 1067
f 979 1067 1068
f 979 1068 992
f 983 1069 1070
f 983 1070 1071
f 983 1071 1072
f 983 1072 1073
f 983 1073 1074
f 983 1074 984
f 983 1066 1075
f 983 1075 1069
f 984 1074 985
f 985 1076 1077
f 985 1077 1078
f 985 1078 1079
f 985 1079 1080
f 985 1080 1081
f 985 1081 1082
f 985 1082 987
f 985 987 986
f 985 1074 1076
f 987 1082 988
f 988 1082 989
f 989 1082 990
f 990 1082 1080
f 990 1080 1083
f 990 1083 1084
f 990 1084 1085
f 990 1085 1086
f 990 1086 1068
f 990 1068 1067
f 992 1068 993
f 993 995 994
f 993 1068 1087
f 993 1087 995
f 995 1087 1088
f 995 1088 1089
f 995 1089 996
f 996 1089 1006
f 996 1006 1090
f 996 1090 998
f 996 998 997
f 998 1090 1006
f 999 1091 1000
f 1000 1091 1004
f 1001 1011 1092
f 1001 1092 1002
f 1002 1092 1003
f 1006 1093 1094
f 1006 1094 1095
f 1006 1095 1007
f 1006 1089 1088
f 1006 1088 1096
f 1006 1096 1097
f 1006 1097 1098
f 1006 1098 1093
f 1007 1095 1094
f 1007 1094 1099
f 1007 1099 1100
f 1007 1100 1008
f 1008 1100 1009
f 1009 1100 1101
f 1009 1101 1102
f 1009 1102 1010
f 1010 1102 1103
f 1010 1103 1104
f 1010 1104 1105
f 1010 1105 1011
f 1011 1105 1106
f 1011 1106 1092
f 1012 1107 1013
f 1013 1107 1108
f 1013 1108 1014
f 1014 1108 1109
f 1014 1109 1110
f 1014 1110 1111
f 1014 1111 1015
f 1015 1111 1110
f 1015 1110 1112
f 1015 1112 1113
f 1015 1113 1114
f 1015 1114 1115
f 1015 1115 1061
f 1018 1116 1026
f 1019 1033 1117
f 1019 1117 1118
f 1019 1118 1020
f 1020 1118 1021
f 1021 1118 1119
f 1021 1119 1120
f 1021 1120 1121
f 1021 1121 1022
f 1022 1121 1122
f 1022 1122 1023
f 1023 1122 1123
f 1023 1123 1124
f 1023 1124 1024
f 1024 1124 1034
f 1024 1034 1025
f 1026 1116 1125
f 1026 1125 1027
f 1027 1125 1028
f 1028 1125 1126
f 1028 1126 1029
f 1029 1126 1030
f 1030 1126 1127
f 1030 1127 1128
f 1030 1128 1129
f 1030 1129 1031
f 1031 1129 1032
f 1032 1129 1130
f 1032 1130 1131
f 1032 1131 1033
f 1033 1131 1117
f 1034 1124 1132
f 1034 1132 1123
f 1034 1123 1133
f 1034 1133 1134
f 1034 1134 1035
f 1035 1134 1135
f 1035 1135 1036
f 1036 1135 1136
f 1036 1136 1137
f 1036 1137 1138
f 1036 1138 1037
f 1037 1138 1139
f 1037 1139 1140
f 1037 1140 1038
f 1038 1140 1042
f 1038 1042 1039
f 1041 1046 1047
f 1042 1140 1043
f 1043 1140 1141
f 1043 1141 1142
f 1043 1142 1143
f 1043 1143 1144
f 1043 1144 1044
f 1044 1144 1045
f 1045 1144 1143
f 1045 1143 1048
f 1045 1048 1046
f 1046 1048 1047
f 1048 1143 1145
f 1048 1145 1146
f 1048 1146 1147
f 1048 1147 1050
f 1048 1050 1049
f 1050 1052 1051
f 1050 1147 1148
f 1050 1148 1052
f 1052 1056 1053
f 1052 1148 1149
f 1052 1149 1150
f 1052 1150 1056
f 1054 1058 1055
f 1054 1057 1058
f 1056 1150 1151
f 1056 1151 1057
f 1057 1151 1058
f 1058 1151 1152
f 1058 1152 1153
f 1058 1153 1154
f 1058 1154 1155
f 1058 1155 1156
f 1058 1156 1157
f 1058 1157 1059
f 1059 1157 1158
f 1059 1158 1060
f 1061 1115 1062
f 1062 1115 1159
f 1062 1159 1063
f 1063 1159 1064
f 1064 1159 1065
f 1065 1160 1161
f 1065 1161 1075
f 1065 1075 1066
f 1065 1159 1115
f 1065 1115 1162
f 1065 1162 1163
f 1065 1163 1160
f 1068 1086 1085
f 1068 1085 1164
f 1068 1164 1165
f 1068 1165 1166
f 1068 1166 1167
f 1068 1167 1168
f 1068 1168 1169
f 1068 1169 1088
f 1068 1088 1087
f 1069 1170 1171
f 1069 1171 1070
f 1069 1075 1161
f 1069 1161 1170
f 1070 1171 1172
f 1070 1172 1173
f 1070 1173 1071
f 1071 1173 1072
f 1072 1173 1174
f 1072 1174 1077
f 1072 1077 1175
f 1072 1175 1073
f 1073 1175 1074
f 1074 1175 1077
f 1074 1077 1076
f 1077 1174 1176
f 1077 1176 1177
f 1077 1177 1178
f 1077 1178 1179
f 1077 1179 1078
f 1078 1080 1079
f 1078 1179 1180
f 1078 1180 1080
f 1080 1082 1081
f 1080 1180 1181
f 1080 1181 1182
f 1080 1182 1183
f 1080 1183 1184
f 1080 1184 1185
f 1080 1185 1186
f 1080 1186 1083
f 1083 1186 1084
f 1084 1186 1085
f 1085 1186 1185
f 1085 1185 1187
f 1085 1187 1164
f 1088 1169 1188
f 1088 1188 1096
f 1093 1098 1189
f 1093 1189 1094
f 1094 1189 1190
f 1094 1190 1099
f 1096 1188 1097
f 1097 1188 1191
f 1097 1191 1192
f 1097 1192 1098
f 1098 1192 1193
f 1098 1193 1194
f 1098 1194 1195
f 1098 1195 1196
f 1098 1196 1190
f 1098 1190 1189
f 1099 1190 1100
f 1100 1190 1197
f 1100 1197 1101
f 1101 1197 1102
f 1102 1197 1190
f 1102 1190 1198
f 1102 1198 1130
f 1102 1130 1199
f 1102 1199 1127
f 1102 1127 1103
f 1103 1127 1126
f 1103 1126 1200
f 1103 1200 1104
f 1104 1200 1201
f 1104 1106 1105
f 1108 1202 1109
f 1109 1203 1110
f 1109 1202 1203
f 1110 1203 1204
f 1110 1204 1205
f 1110 1205 1206
f 1110 1206 1112
f 1112 1206 1113
f 1113 1115 1114
f 1113 1206 1205
f 1113 1205 1207
f 1113 1207 1208
f 1113 1208 1170
f 1113 1170 1161
f 1113 1161 1160
f 1113 1160 1163
f 1113 1163 1115
f 1115 1163 1162
f 1116 1209 1200
f 1116 1200 1125
f 1117 1119 1118
f 1117 1131 1119
f 1119 1131 1210
f 1119 1210 1120
f 1120 1210 1194
f 1120 1194 1121
f 1121 1194 1211
f 1121 1211 1193
f 1121 1193 1212
f 1121 1212 1122
f 1122 1212 1123
f 1123 1213 1214
f 1123 1214 1133
f 1123 1132 1124
f 1123 1212 1215
f 1123 1215 1216
f 1123 1216 1213
f 1125 1200 1126
f 1127 1130 1128
f 1127 1199 1130
f 1128 1130 1129
f 1130 1210 1131
f 1130 1198 1190
f 1130 1190 1196
f 1130 1196 1210
f 1133 1214 1134
f 1134 1214 1217
f 1134 1217 1218
f 1134 1218 1219
f 1134 1219 1135
f 1135 1219 1136
f 1136 1219 1220
f 1136 1220 1137
f 1137 1220 1221
f 1137 1221 1138
f 1138 1221 1222
f 1138 1222 1139
f 1139 1222 1140
f 1140 1222 1141
f 1141 1222 1142
f 1142 1145 1143
f 1142 1222 1223
f 1142 1223 1224
f 1142 1224 1225
f 1142 1225 1145
f 1145 1225 1226
f 1145 1226 1227
f 1145 1227 1146
f 1146 1227 1228
f 1146 1228 1229
f 1146 1229 1230
f 1146 1230 1147
f 1147 1230 1231
f 1147 1231 1148
f 1148 1231 1149
f 1149 1231 1232
f 1149 1232 1150
f 1150 1232 1233
f 1150 1233 1151
f 1151 1233 1153
f 1151 1153 1152
f 1153 1233 1234
f 1153 1234 1235
f 1153 1235 1236
f 1153 1236 1237
f 1153 1237 1154
f 1154 1237 1155
f 1156 1158 1157
f 1164 1187 1165
f 1165 1187 1238
f 1165 1238 1193
f 1165 1193 1167
f 1165 1167 1166
f 1167 1193 1191
f 1167 1191 1168
f 1168 1191 1188
f 1168 1188 1169
f 1170 1208 1239
f 1170 1239 1240
f 1170 1240 1241
f 1170 1241 1242
f 1170 1242 1171
f 1171 1242 1172
f 1172 1243 1174
f 1172 1174 1173
f 1172 1242 1243
f 1174 1243 1244
f 1174 1244 1245
f 1174 1245 1246
f 1174 1246 1247
f 1174 1247 1248
f 1174 1248 1249
f 1174 1249 1176
f 1176 1249 1250
f 1176 1250 1177
f 1177 1250 1178
f 1178 1224 1223
f 1178 1223 1251
f 1178 1251 1180
f 1178 1180 1179
f 1178 1250 1224
f 1180 1251 1181
f 1181 1251 1182
f 1182 1251 1252
f 1182 1252 1184
f 1182 1184 1253
f 1182 1253 1183
f 1183 1253 1184
f 1184 1252 1254
f 1184 1254 1255
f 1184 1255 1185
f 1185 1255 1218
f 1185 1218 1256
f 1185 1256 1257
f 1185 1257 1238
f 1185 1238 1187
f 1191 1193 1192
f 1193 1238 1215
f 1193 1215 1212
f 1193 1211 1194
f 1194 1210 1195
f 1195 1210 1196
f 1200 1209 1258
f 1200 1258 1259
f 1200 1259 1260
f 1200 1260 1201
f 1203 1261 1204
f 1204 1261 1205
f 1205 1262 1207
f 1205 1261 1262
f 1207 1262 1263
f 1207 1263 1208
f 1208 1263 1239
f 1213 1218 1217
f 1213 1217 1214
f 1213 1216 1257
f 1213 1257 1256
f 1213 1256 1218
f 1215 1238 1257
f 1215 1257 1216
f 1218 1220 1219
f 1218 1255 1220
f 1220 1255 1254
f 1220 1254 1264
f 1220 1264 1221
f 1221 1264 1222
f 1222 1264 1254
f 1222 1254 1252
f 1222 1252 1251
f 1222 1251 1223
f 1224 1250 1265
f 1224 1265 1225
f 1225 1265 1226
f 1226 1265 1266
f 1226 1266 1227
f 1227 1266 1249
f 1227 1249 1267
f 1227 1267 1228
f 1228 1267 1229
f 1229 1267 1248
f 1229 1248 1268
f 1229 1268 1246
f 1229 1246 1269
f 1229 1269 1230
f 1230 1269 1270
f 1230 1270 1231
f 1231 1270 1232
f 1232 1234 1233
f 1232 1270 1271
f 1232 1271 1272
f 1232 1272 1273
f 1232 1273 1274
f 1232 1274 1275
f 1232 1275 1276
f 1232 1276 1277
f 1232 1277 1234
f 1234 1277 1235
f 1239 1263 1278
f 1239 1278 1240
f 1240 1278 1279
f 1240 1279 1280
f 1240 1280 1281
f 1240 1281 1241
f 1241 1281 1242
f 1242 1281 1282
f 1242 1282 1244
f 1242 1244 1283
f 1242 1283 1243
f 1243 1283 1244
f 1244 1282 1284
f 1244 1284 1285
f 1244 1285 1286
f 1244 1286 1245
f 1245 1286 1246
f 1246 1286 1285
f 1246 1285 1287
f 1246 1287 1288
f 1246 1288 1272
f 1246 1272 1271
f 1246 1271 1270
f 1246 1270 1269
f 1246 1268 1247
f 1247 1268 1248
f 1248 1267 1249
f 1249 1266 1250
f 1250 1266 1265
f 1261 1289 1262
f 1262 1289 1290
f 1262 1290 1291
f 1262 1291 1278
f 1262 1278 1263
f 1272 1288 1292
f 1272 1292 1293
f 1272 1293 1294
f 1272 1294 1273
f 1273 1295 1275
f 1273 1275 1274
f 1273 1294 1295
f 1275 1295 1277
f 1275 1277 1276
f 1278 1296 1297
f 1278 1297 1279
f 1278 1291 1296
f 1279 1297 1280
f 1280 1297 1298
f 1280 1298 1299
f 1280 1299 1300
f 1280 1300 1301
f 1280 1301 1284
f 1280 1284 1302
f 1280 1302 1281
f 1281 1302 1284
f 1281 1284 1282
f 1284 1301 1287
f 1284 1287 1285
f 1287 1292 1288
f 1287 1301 1303
f 1287 1303 1292
f 1292 1303 1293
f 1293 1303 1294
f 1294 1303 1304
f 1299 1305 1300
f 1300 1305 1306
f 1300 1306 1303
f 1300 1303 1301
f 1303 1306 1304

