# https://github.com/mikedh/trimesh
v 96.91232668 85.38226633 22.09093826
v 87.74676844 91.92654139 22.09093826
v 100.75709985 85.38226633 22.09093826
v 100.75709985 85.38226633 26.68522474
v 100.75709985 92.01416342 42.69574690
v 88.40136046 99.80705368 43.17370417
v 87.74676844 100.00785223 42.69574690
v 87.74676844 98.26636506 22.09093826
v 100.75709985 89.75059179 22.09093826
v 100.75709985 92.53076733 43.37583430
v 100.28462057 92.71513965 43.28529720
v 87.74676844 100.33278585 43.34004104
v 87.74676844 98.44343425 22.39413603
v 88.05114098 98.23533258 22.22990385
v 88.05114098 98.14953569 22.09093826
v 100.34447737 90.15401917 22.09093826
v 100.50494295 90.30735901 22.49099042
v 100.75709985 90.48260306 23.04053614
v 100.75709985 93.35587605 43.55480575
v 87.74676844 101.13416264 43.59060159
v 87.74676844 98.89249779 23.17107975
v 87.98109811 98.66978988 22.93525912
v 88.54017374 98.14040743 22.38781938
v 88.82926526 97.82642978 22.09093826
v 99.99553163 90.48807848 22.09093826
v 100.18273933 90.84404457 22.78787155
v 100.43617126 91.10508295 23.45532758
v 100.75709985 90.55744656 23.14370783
v 100.75709985 94.23574918 43.59902292
v 100.12288510 94.23574918 43.59902292
v 88.05114098 101.13416264 43.59902292
v 87.74676844 101.99760439 43.59902292
v 87.74676844 98.96916642 23.31004534
v 88.22179263 98.87789412 23.48480548
v 90.32692947 97.30799816 22.33728620
v 89.82643561 97.38284165 22.09093826
v 88.87638465 97.80634813 22.09093826
v 88.86237608 98.28096873 22.88051527
v 89.11453426 98.01262466 22.60679540
v 99.82870120 90.64689372 22.09093826
v 99.62493615 91.15802222 22.50783503
v 99.86053828 91.36977674 23.08264733
v 99.53069479 91.94479534 23.50375478
v 100.09104545 91.61986429 23.76694733
v 100.63611636 91.29675839 24.03224522
v 100.75709985 91.25112223 24.13752224
v 100.75709985 90.90428440 23.62798174
v 100.75709985 95.09736580 43.59902292
v 87.74676844 102.85922357 43.59902292
v 87.74676844 99.84538671 25.00711033
v 88.59748306 99.02575597 24.05961714
v 88.89676193 98.74098309 23.75220870
v 90.65549922 96.99401794 22.09093826
v 90.56253160 97.03965409 22.09093826
v 89.76912629 97.87206593 22.88051527
v 90.05312284 98.04365714 23.41953367
v 90.90128999 97.17108713 22.57310683
v 89.47748858 98.17509019 23.18160771
v 99.39824892 91.04666826 22.09093826
v 99.12698720 91.28580499 22.09093826
v 99.04930318 91.40810977 22.16463204
v 98.88883759 91.49390667 22.09093826
v 99.28999770 91.67645384 22.82366609
v 98.95506181 92.18575720 23.13949651
v 98.03939799 93.00356280 23.20476832
v 98.61503097 92.76077580 23.57113256
v 98.83535078 92.94879839 24.14594486
v 99.74464718 92.12734252 24.07856708
v 100.35084479 91.89915919 24.58389691
v 100.75709985 91.40628464 24.38597616
v 100.12288510 95.95898241 43.59902292
v 100.75709985 95.95898241 43.53164450
v 87.74676844 103.67520403 43.36530763
v 88.05114098 102.85922357 43.59902292
v 87.74676844 99.88919772 25.09554275
v 87.99510540 99.97864489 25.47243431
v 88.24471738 99.74681385 25.20292510
v 89.52970422 99.05496331 24.86603876
v 89.17311604 98.90710146 24.29122710
v 89.76912629 98.33573057 23.71220348
v 90.10533720 98.93630881 25.10396473
v 89.80096466 98.79027209 24.58179094
v 91.38395662 96.62162560 22.09093826
v 90.39187995 98.20247239 23.99434598
v 90.96623918 98.06556394 24.24490524
v 91.22731226 97.33172752 23.14791914
v 91.80167149 97.18569081 23.40900571
v 91.50876133 97.02140014 22.85946000
v 92.02071885 96.43907843 22.34781416
v 98.54243933 91.79145808 22.09093826
v 98.71436472 91.98313094 22.56468421
v 98.27754760 92.01781370 22.09093826
v 98.14000677 92.22591537 22.22148186
v 97.78723852 92.80093654 22.62995601
v 97.21288057 93.02729473 22.30780894
v 97.51470435 93.19523567 22.89314857
v 97.09062206 93.79581133 23.30583467
v 97.58729598 93.63699609 23.64482635
v 97.90949704 93.76112858 24.23016597
v 98.35523163 93.12769272 23.80484721
v 98.40235102 93.54389864 24.54389170
v 98.99326631 93.08023143 24.58389691
v 99.81978630 93.05467437 25.69351631
v 99.61729371 92.87760517 25.11870400
v 99.92039508 92.28250492 24.58389691
v 100.51767779 92.04702104 25.07027616
v 100.75709985 92.15837500 25.60508325
v 99.26070809 96.82242416 43.59691759
v 96.67290462 98.54748509 43.59902292
v 100.18401436 96.88266655 43.40952480
v 99.26834797 97.71325068 43.38215288
v 98.39853109 97.68404334 43.56744033
v 100.75709985 96.67638744 43.31056378
v 88.05114098 103.60766109 43.36109696
v 88.91331670 103.45614639 43.30003711
v 87.74676844 104.03116756 42.69574690
v 88.91331670 102.85922357 43.53796307
v 89.77549371 101.99760439 43.59902292
v 92.36329718 101.13416264 43.58638835
v 90.63894317 101.99760439 43.57586167
v 87.74676844 100.06444178 25.46401232
v 88.05114098 100.34556438 26.30833319
v 88.59875680 99.89102286 25.77773741
v 90.67460276 98.81947943 25.41347915
v 91.27952662 98.22255405 24.81971690
v 90.66314038 98.37954416 24.55231368
v 89.17311604 99.76689294 26.04092996
v 89.76912629 99.63911017 26.32096648
v 90.40970974 99.06956699 25.68088301
v 91.54441964 96.53582871 22.09093826
v 92.11750642 97.34450605 23.98381802
v 92.69186565 97.19846934 24.25122124
v 92.38749311 97.04513207 23.70588684
v 92.44607617 96.04112902 22.09093826
v 92.27414949 96.13787674 22.09093826
v 92.33018507 96.58876542 22.88472659
v 92.59507809 96.27843804 22.61311205
v 97.82799307 92.38473062 22.09093826
v 97.59493843 92.57275321 22.09093826
v 97.43574530 92.69871084 22.09093826
v 96.65252991 93.30293678 22.09093826
v 96.11255396 94.57345876 23.43427230
v 96.36598588 94.75600337 24.00908461
v 97.33386406 93.97470824 23.88064633
v 96.25518975 93.81589299 22.41308597
v 96.45767977 93.96010456 22.85946000
v 96.94034640 94.54790170 24.36281491
v 97.35806127 94.85275366 25.44716772
v 97.95661900 94.65925565 25.89143641
v 98.11708202 93.92541924 24.80497827
v 98.69271499 93.69541077 25.20713642
v 99.25816061 93.37595771 25.45137903
v 99.51286499 93.66072802 26.30833319
v 100.11397020 93.18610741 26.37360499
v 100.39541927 92.79911140 26.12725704
v 100.75709985 92.20401115 25.68088301
v 93.22547290 100.27254602 43.59902292
v 95.81072761 99.40910170 43.56322709
v 94.08892236 100.27254602 43.58007234
v 99.93567483 97.44490662 43.28108653
v 96.68054706 99.44378703 43.38004754
v 97.53635408 98.54748509 43.49374590
v 98.98562644 98.22255405 43.23897469
v 100.75709985 96.97576399 42.69574690
v 90.63894317 102.68032667 43.33793571
v 91.31900615 102.54341821 43.25160927
v 89.49913960 103.34844528 43.20318143
v 87.74676844 104.02203930 42.32096132
v 88.91331670 103.61313650 42.69574690
v 88.91331670 103.59670769 41.83247481
v 88.05114098 103.90520993 41.83247481
v 93.22547290 101.13416264 43.47268998
v 87.74676844 100.19404968 25.74404884
v 88.89676193 100.00967994 26.32096648
v 87.74676844 100.44596494 26.29359456
v 87.74676844 100.58834881 26.61153096
v 87.74676844 100.67414570 26.81155768
v 88.05114098 100.61573102 26.95052327
v 89.07505474 100.59930221 27.85801061
v 88.83818015 100.43501155 27.24950973
v 91.54059970 98.38866984 25.40926848
v 90.98534272 98.93813394 25.96723618
v 91.85388714 98.07651733 25.09764808
v 89.47748858 99.89650084 26.61574227
v 90.05312284 99.77236835 26.89156812
v 90.67460276 99.21925398 26.27675059
v 92.97331472 97.35180917 24.82603355
v 93.24712263 97.05060749 24.55652499
v 93.76544757 96.45550724 24.04487851
v 93.20382317 96.60519680 23.74168074
v 92.90072437 96.45185696 23.19002969
v 92.85869736 95.80747028 22.09093826
v 93.22547290 95.66690898 22.20042595
v 96.58630570 93.35222578 22.09093826
v 95.53819344 94.77608502 23.12054657
v 95.38791778 95.53365080 24.14383889
v 95.99411538 95.35292876 24.58389691
v 95.77252311 93.94732603 22.09093826
v 96.66144224 94.89656467 24.62390213
v 96.98873825 95.44785391 26.02829667
v 97.58220102 95.13204855 26.24727269
v 98.15910902 94.81624576 26.46624872
v 98.89902752 93.85970400 25.78194872
v 99.08114026 94.00574072 26.30833319
v 99.67078309 93.78851078 26.77576314
v 100.57753202 92.96522720 26.70206935
v 100.75709985 92.57092807 26.30833319
v 95.81072761 100.09730197 43.32530113
v 96.39909799 99.93665901 43.23476402
v 100.05284095 97.53252864 42.69574690
v 99.48484784 97.96516337 42.69574690
v 97.98463615 98.98924551 43.14212158
v 100.75709985 96.96116032 41.83247481
v 92.36329718 101.86434621 43.34846238
v 93.22547290 101.67084820 43.23476402
v 93.66356505 101.56862250 43.13159233
v 91.43489724 102.59635491 42.69574690
v 90.63894317 102.93589220 42.69574690
v 89.99453978 103.19875829 42.69574690
v 89.56408879 103.37217721 42.69574690
v 87.74676844 104.00743563 41.83247481
v 89.53352416 103.36304895 41.83247481
v 88.91331670 103.57115062 40.96920401
v 88.05114098 103.87235231 40.96920401
v 87.74676844 103.99283196 41.41768402
v 94.00614338 101.12685952 43.30424778
v 89.76912629 100.02063076 27.17581595
v 87.74676844 100.99907932 27.61376799
v 88.49942176 100.70883103 27.58639543
v 89.37688108 100.71613158 28.43282227
v 89.70927077 100.44048696 28.10014724
v 92.12642131 98.21525092 25.67246039
v 91.83350986 98.93083082 26.84524625
v 91.25787689 99.06591671 26.54204848
v 92.39386181 97.94873456 25.40926848
v 90.33711811 99.90015112 27.46637978
v 90.63002956 99.63728503 27.17581595
v 92.70078055 98.06556394 25.97986947
v 93.24712263 97.50332130 25.43664040
v 93.54894769 97.18934365 25.14186461
v 94.06727263 96.59241826 24.61758548
v 94.06727263 96.09406573 23.74168074
v 93.67247995 95.53730108 22.41308597
v 93.47508360 96.28391345 23.46796087
v 93.22547290 95.59754090 22.09093826
v 95.26566055 94.59171271 22.54573491
v 94.69002629 94.77973530 22.25095912
v 94.05708528 95.09006267 22.09093826
v 94.24811421 95.35475647 22.70364980
v 94.08382869 97.01592473 25.43664040
v 94.90779991 96.54860725 25.51243952
v 95.40702003 96.40804595 25.84300921
v 96.19023798 95.49166492 25.08080412
v 95.02623720 94.45297912 22.09093826
v 96.41310528 95.64317705 25.65772176
v 96.68946196 95.79651689 26.31254450
v 97.20778561 95.59754090 26.60310897
v 97.82799307 95.42594712 27.17160463
v 98.73346954 94.59171271 26.89577879
v 99.66059317 94.64282684 28.51704466
v 99.83888855 93.92724438 27.35057544
v 100.41452152 93.68628508 27.85379929
v 100.12543258 93.56397773 27.10633283
v 100.75709985 92.71148937 26.55047046
v 100.75709985 93.13317071 27.34425879
v 100.75709985 93.06745290 27.21582116
v 100.75709985 92.87760517 26.84945692
v 94.74988181 100.83296095 43.25792527
v 96.46659466 99.97681975 42.69574690
v 100.46928336 97.18751851 41.83247481
v 99.05439557 98.27184047 42.69574690
v 100.44890609 97.17291484 40.96920401
v 99.46065063 97.94508429 41.83247481
v 99.02892590 98.25906194 41.83247481
v 98.41763334 98.70265006 42.69574690
v 97.98718363 98.99107322 42.69574690
v 97.53635408 99.28862206 42.69574690
v 96.89704437 99.70665311 42.69574690
v 100.75709985 96.92830270 40.95446538
v 94.85813175 100.89320077 42.69574690
v 93.66356505 101.56862250 43.04947656
v 92.36329718 102.14911651 41.83247481
v 91.84624598 102.38825324 41.83247481
v 91.81822755 102.37912498 40.96920401
v 91.41452125 102.58357638 41.83247481
v 90.63894317 102.91763826 41.83247481
v 89.96397515 103.19328030 41.83247481
v 89.49277089 103.35027041 40.96920401
v 89.42654796 103.32471592 40.10803854
v 88.91331670 103.51821392 40.10803854
v 88.05114098 103.81941561 40.10803854
v 87.74676844 103.97275287 40.96920401
v 87.74676844 101.16884539 28.03908675
v 87.74676844 101.28384963 28.33596787
v 87.74676844 101.44814029 28.76549794
v 88.32240141 101.50655497 29.48769782
v 88.59748306 101.61243352 30.06251012
v 89.57427614 100.79827819 28.89604155
v 90.19448360 100.69787763 29.34241558
v 90.00600216 100.61755615 28.89604155
v 90.63894317 100.33643612 28.89604155
v 90.63002956 100.01150508 28.05382602
v 92.39386181 98.37224103 26.28517258
v 91.52786487 99.20830058 27.14844402
v 92.09840288 99.05861359 27.42005856
v 92.37730575 98.79392237 27.14844402
v 90.91275237 99.76871808 27.78221084
v 92.95421247 98.20429753 26.55468178
v 93.23566154 97.91770208 26.28517258
v 93.79346472 97.33172752 25.71667692
v 94.61106853 97.30799816 26.62837556
v 93.99468228 95.12839828 22.09093826
v 94.85049059 94.57163363 22.09093826
v 94.91798726 96.96481060 26.32938910
v 95.18542776 97.13275410 26.99473916
v 95.58913534 96.52852559 26.30833319
v 96.01958762 96.24193015 26.30833319
v 96.20552030 96.36606007 26.79260774
v 96.68436700 96.19446629 27.11686079
v 96.97982593 96.30582025 27.79063347
v 97.39626834 95.73262679 27.17160463
v 98.42654823 94.96775789 27.17792128
v 97.96553390 95.52634768 27.60324068
v 99.08241529 94.86370705 28.03487544
v 98.71436472 95.44055079 28.65600961
v 99.27471795 95.10831919 28.87498627
v 99.82360624 94.77608502 29.09185632
v 100.57498711 93.82319354 28.42861160
v 100.75709985 93.46540487 28.01382080
v 96.86902722 99.69569972 41.83247481
v 96.43857752 99.96039094 41.83247481
v 95.25292443 100.63215983 40.96920401
v 95.27457416 100.64311322 41.83247481
v 97.95407152 98.96916642 40.81550043
v 97.96807881 98.97829468 41.39031210
v 100.40687908 97.14187979 40.10803854
v 100.01718136 97.49236790 40.96920401
v 98.99836127 98.23898285 40.96920401
v 100.75709985 96.86441003 40.10803854
v 94.84284943 100.88407509 41.83247481
v 94.82247344 100.86764371 40.96920401
v 94.08892236 101.25464228 40.96920401
v 93.63809538 101.55584397 42.47466490
v 93.13632650 101.74021371 40.96920401
v 92.36329718 102.12356202 40.96920401
v 92.36329718 102.06697247 40.10803854
v 91.75582455 102.35174278 40.10803854
v 91.38777656 102.56167216 40.96920401
v 90.63894317 102.87747752 40.96920401
v 90.63894317 102.82088797 40.10803854
v 90.63894317 102.74969475 39.24476645
v 89.37051367 103.30098399 39.57954810
v 88.96553234 103.41781336 39.27213966
v 88.05114098 103.74274440 39.24476645
v 87.74676844 103.84314497 39.23002911
v 87.74676844 103.91981360 40.10803854
v 87.74676844 101.61060838 29.19923868
v 88.04095234 101.70918123 29.76773433
v 88.05114098 101.99212897 30.62258380
v 88.89676193 101.68727701 30.66890566
v 89.17184358 101.49195387 30.41202976
v 89.85445276 100.95891858 29.68140790
v 90.43008573 100.79827819 29.91722789
v 91.00444625 100.67597084 30.27306417
v 90.68606385 100.60295248 29.68140790
v 91.47055555 99.96951920 28.95499671
v 91.73672230 99.74863899 28.70443745
v 91.16236178 99.88372231 28.35702379
v 91.50112017 100.25976749 29.75931300
v 91.47055555 99.61720595 28.05382602
v 92.37730575 99.17544296 28.03908675
v 92.67276340 98.91440201 27.75694426
v 93.23566154 98.34120855 27.17792128
v 93.52984544 98.04365714 26.89367345
v 94.06727263 97.87023822 27.17792128
v 94.91798726 97.40657358 27.23898177
v 95.40320009 97.26601228 27.56955147
v 96.40419038 96.50114339 27.36742005
v 96.68436700 96.62527588 28.06014203
v 97.16703363 96.43360301 28.36544513
v 97.33004413 96.55225752 28.89604155
v 97.76176886 96.24010244 28.89604155
v 97.91713948 96.35510667 29.41611001
v 98.88756514 95.57015869 29.23082255
v 99.45683070 95.34745335 29.75931300
v 99.99171169 94.91481862 29.75931300
v 100.42343642 94.55337711 29.75931300
v 100.75709985 94.28138533 29.78668492
v 100.75709985 93.95827943 29.05185110
v 100.75709985 93.91446841 28.95289137
v 100.75709985 93.88891134 28.89604155
v 100.75709985 93.73739665 28.58021049
v 96.83337020 99.67379293 40.96920401
v 96.40291793 99.93848672 40.96920401
v 95.81072761 100.29992823 40.96920401
v 95.81072761 100.23968584 40.10803854
v 95.20071007 100.60295248 40.10803854
v 98.95378936 98.20612524 40.10803854
v 98.39853109 98.60042436 40.10803854
v 97.91077206 98.93995908 40.10803854
v 97.47904733 99.21195343 40.10803854
v 96.78497578 99.64276045 40.10803854
v 96.35452350 99.90927938 40.10803854
v 100.75709985 96.76583718 39.24476645
v 100.34574983 97.09076823 39.24476645
v 99.91402509 97.41935212 39.24476645
v 99.97515435 97.45951029 40.10803854
v 99.38551409 97.89214502 40.10803854
v 94.77025908 100.83843636 40.10803854
v 94.08892236 101.19622760 40.10803854
v 93.08029092 101.71283151 40.10803854
v 93.00515309 101.67084820 39.24476645
v 92.36329718 101.97935044 39.24476645
v 91.66285821 102.30428149 39.24476645
v 91.13052470 102.45579618 38.38149693
v 91.23113348 102.49960720 39.24476645
v 91.32409982 102.53428995 40.10803854
v 90.63894317 102.66754813 38.38149693
v 89.77549371 103.01438597 38.38149693
v 89.28645965 103.26995151 39.00473515
v 89.19349331 103.23526618 38.38149693
v 88.76176858 103.39408143 38.38149693
v 88.05114098 103.65512238 38.38149693
v 87.74676844 103.75917321 38.38149693
v 87.74676844 101.80958180 29.76562900
v 87.74676844 102.09252954 30.62258380
v 87.74676844 102.18927982 30.93209757
v 87.74676844 102.43936480 31.76589176
v 88.02057635 102.26229561 31.50059388
v 88.91331670 101.92458603 31.48374927
v 89.39343585 101.58687645 30.98894740
v 89.71945941 101.34591716 30.66890566
v 90.68606385 100.91145729 30.58468392
v 91.21585117 100.76907085 30.84787647
v 91.50239391 100.55001578 30.58468392
v 91.96850450 99.85816524 29.27924911
v 92.14297737 99.94761241 29.75931300
v 92.89053573 99.02940625 28.33175720
v 93.19745576 98.74098309 28.03908675
v 93.76544757 98.17509019 27.46848576
v 94.33726061 98.01262466 27.84958798
v 94.54611805 98.13127917 28.42440093
v 94.70530861 98.22985460 28.89604155
v 95.13703334 97.96881365 28.89604155
v 95.55602323 97.36276257 28.03487544
v 96.16604334 97.20394732 28.58021049
v 95.98774796 97.08163997 28.03487544
v 96.65507482 97.00679647 28.87919694
v 96.96963600 97.16378658 29.75931300
v 97.59239095 96.71107277 29.72562378
v 98.07251010 96.46828577 29.99302701
v 98.37560890 96.14152959 29.72562378
v 99.02637842 95.67421210 29.75931300
v 99.60837881 95.46245758 30.36781323
v 100.75709985 94.73044887 30.90051498
v 100.53550758 94.65012740 30.23095297
v 100.75709985 94.52782261 30.39518579
v 96.29212179 99.87094378 39.24476645
v 96.25518975 99.84903698 38.74575455
v 95.11793109 100.55549119 39.24476645
v 94.68620636 100.79645306 39.24476645
v 98.89520758 98.16413936 39.24476645
v 98.85318057 98.13127917 38.67627208
v 97.83563295 98.88884495 39.24476645
v 97.32749664 99.12615653 38.38149693
v 97.40390822 99.17361782 39.24476645
v 96.72384652 99.60442742 39.24476645
v 100.75709985 96.65448322 38.38149693
v 100.27825572 97.03417868 38.38149693
v 99.84652842 97.37188826 38.38149693
v 99.32693231 97.85015914 39.24476645
v 99.18811646 97.85563712 38.38570760
v 94.08892236 101.11590869 39.24476645
v 93.43687782 101.45544341 39.24476645
v 93.34773142 101.41345753 38.38149693
v 92.91728042 101.62338434 38.38149693
v 92.36329718 101.88442529 38.38149693
v 91.07448912 102.43023912 37.93722759
v 90.66823534 102.55436904 37.59823528
v 89.77549371 102.90485715 37.52033018
v 89.04449011 103.18050434 37.52033018
v 88.61276538 103.33931702 37.52033018
v 88.05114098 103.54559355 37.52033018
v 87.74676844 103.65147210 37.52033018
v 87.74676844 102.47039985 31.87116878
v 88.28674311 102.35539562 32.17857722
v 88.83818015 102.21665946 32.41860917
v 89.84681160 101.78950271 32.27964293
v 89.57809736 101.66171994 31.48374927
v 90.18174877 101.55401883 31.94907324
v 90.00982209 101.48282561 31.48374927
v 91.79148414 100.63581010 31.28161785
v 90.63894317 101.21448154 31.48374927
v 90.37787137 101.64346600 32.52388619
v 91.50239391 100.84391435 31.53428245
v 92.42442644 100.09364912 30.57415596
v 92.57470210 99.72673220 29.75931300
v 92.75299491 99.81982964 30.25621956
v 93.19745576 99.10972773 28.96763000
v 93.67630117 98.98742037 29.30030503
v 94.06727263 98.27001533 28.09593657
v 94.01378453 98.66066419 28.96763000
v 94.26721646 98.83773338 29.75931300
v 94.99567257 98.39049498 29.73404641
v 95.31532743 98.07651733 29.42874330
v 95.85148216 97.52340296 28.87919694
v 96.35452350 97.32260183 29.15502279
v 96.53918630 97.43943120 29.75931300
v 97.10080941 97.24958347 30.19937038
v 98.23552059 96.58694028 30.62258380
v 98.66724532 96.26930978 30.62258380
v 98.79459880 96.36240979 31.12370232
v 98.93468454 96.47193604 31.69640865
v 99.74209970 95.56833356 30.94262553
v 100.75709985 94.95132908 31.48374927
v 100.75709985 94.83084944 31.16370754
v 96.59522059 99.59894943 38.42781815
v 96.19788043 99.81435423 38.17094289
v 94.59705995 100.74716406 38.38149693
v 94.08892236 101.02828666 38.38149693
v 98.80223867 98.09659642 38.10356447
v 98.46857524 98.35763736 38.38570760
v 97.75794892 98.83773338 38.38149693
v 97.23325528 99.06408900 37.52033018
v 96.67290462 99.42188024 37.52033018
v 100.75709985 96.52305018 37.52033018
v 100.19547674 96.96846087 37.52033018
v 99.76374943 97.30799816 37.52033018
v 99.26070809 97.67674022 37.52033018
v 94.13986427 100.88955050 37.55612473
v 93.16943732 101.38607533 37.51401417
v 92.84341505 101.58870159 37.79826265
v 90.97515408 102.38825324 37.36241465
v 92.75172117 101.54671571 37.22344970
v 92.22575635 101.70370582 36.65705937
v 90.40716226 102.51238573 36.65705937
v 89.77549371 102.76794870 36.65705937
v 88.91331670 102.96509954 35.79589391
v 88.84582003 103.13304048 36.69706459
v 88.51343034 103.30280912 37.01079032
v 88.39371930 103.25899811 36.43387204
v 88.08425180 103.40868510 36.69706459
v 87.74676844 103.52186420 36.68232596
v 87.74676844 102.61095859 32.39544791
v 88.02057635 102.51968628 32.41860917
v 88.50069550 102.43388939 32.75549486
v 89.77549371 102.06514733 33.20818554
v 90.17538135 101.78585244 32.75549486
v 91.96723075 100.71978185 31.85642951
v 92.54541121 100.58469854 32.34702007
v 92.29834670 100.46239375 31.53428245
v 90.65422548 101.70918123 33.25029738
v 90.95223061 101.51203296 32.99131550
v 91.50112017 101.07574795 32.34702007
v 92.93510893 99.91475479 30.82892653
v 94.45187797 98.94178422 30.30254207
v 93.83803792 99.07321726 29.75931300
v 95.49489398 98.18786872 30.00355497
v 97.53253414 97.06338602 30.54046803
v 96.10363906 98.02905347 30.62258380
v 96.22971751 98.10754981 31.07527448
v 96.38126820 98.20612524 31.65008678
v 96.55319359 98.32295461 32.34702007
v 97.41664305 97.46316056 31.48374927
v 97.95916391 97.24593320 31.93222928
v 97.84836778 97.17108713 31.48374927
v 98.46348028 96.71837332 31.43953274
v 98.38579625 97.05608290 32.27122095
v 99.07732033 96.57963973 32.34702007
v 99.50777260 96.24375529 32.34702007
v 99.86435822 95.66508384 31.48374927
v 100.29608295 95.32189628 31.48374927
v 100.44763363 95.44237850 32.17857722
v 100.75709985 94.99879037 31.62060953
v 96.11510144 99.76506780 37.52033018
v 95.68337671 100.01333021 37.52033018
v 94.53975063 100.71613158 37.86774512
v 98.73601445 98.05096026 37.52033018
v 98.30428972 98.34303369 37.52033018
v 97.66498001 98.77384328 37.52033018
v 98.19604107 98.27001533 36.65705937
v 97.15557125 99.01115230 36.90761863
v 96.74040129 99.22290682 36.63600474
v 95.99411538 99.68839917 36.65705937
v 100.75709985 96.40257053 36.84655878
v 99.70771514 97.26601228 37.02973962
v 98.62649334 97.97246649 36.65705937
v 94.45951912 100.67049543 37.29293217
v 94.36145782 100.62120900 36.65705937
v 93.93227929 100.84938976 36.65705937
v 93.22547290 101.21265641 36.65705937
v 92.65748109 101.49925442 36.65705937
v 91.50112017 102.03776513 36.65705937
v 91.50112017 101.89537869 35.79589391
v 90.83761325 102.33166369 36.65705937
v 92.08184811 101.63616288 35.79589391
v 90.59564371 102.27690185 35.77904994
v 90.15627782 102.40650719 35.48216818
v 89.83152929 102.59452978 35.77904994
v 89.59083348 102.53063968 34.93262310
v 88.91331670 102.79898118 34.93262310
v 88.23962242 103.20971168 35.79589391
v 87.74676844 103.38860602 35.88011501
v 87.74676844 102.70588373 32.75549486
v 88.03331247 102.60365804 32.75549486
v 88.05114098 102.71318686 33.20818554
v 88.65097116 102.49047894 33.20818554
v 89.08142215 102.32983855 33.20818554
v 89.26480992 102.39738150 33.76615453
v 89.43546286 102.46492187 34.34096619
v 89.74365534 102.27507414 34.06092967
v 90.63894317 101.90450695 34.06935230
v 92.11495893 100.78914994 32.34702007
v 93.22547290 100.24333868 32.34702007
v 92.54031625 100.70152791 32.75549486
v 92.71478912 100.66501744 32.92183302
v 92.86379233 100.54271266 32.75549486
v 93.22419916 99.99324856 31.54059909
v 91.24132083 101.64346600 34.06935230
v 91.10887497 101.58322617 33.56823378
v 92.86761226 100.73986351 33.49664468
v 92.40150168 100.88590022 33.20818554
v 93.51074319 99.76324266 31.29214517
v 94.91798726 98.75741447 30.60363386
v 95.67318679 98.29739754 30.62258380
v 93.68521607 99.85634010 31.86695747
v 93.81766193 99.93118360 32.34702007
v 94.60979478 99.03123138 30.87735373
v 95.34207212 98.95638789 31.98486779
v 95.20580375 98.87424385 31.48374927
v 95.88968666 98.43248086 31.41005548
v 95.79417284 98.78662182 32.30280419
v 96.98491832 98.03453145 32.34702007
v 95.93298612 98.83225797 32.75549486
v 96.32523390 98.58582069 32.75549486
v 96.65634985 98.37406617 32.75549486
v 97.09316954 98.10754981 32.80813338
v 97.08043214 98.10024669 32.75549486
v 98.09033732 97.33720550 32.50704094
v 98.52970450 97.09989649 32.75549486
v 98.88247018 96.84433095 32.75549486
v 99.18556898 96.61979790 32.75549486
v 99.45301076 96.41717420 32.75549486
v 99.59055159 96.31129566 32.75549486
v 100.14580729 95.76183413 32.41860917
v 100.56607221 95.53547594 32.75549486
v 100.75709985 95.23244911 32.29648754
v 95.46050941 99.88919772 35.96433740
v 95.56239065 99.94578727 36.65705937
v 94.87596154 100.47699742 37.55612473
v 94.94855189 100.29445025 36.65705937
v 98.08396991 98.19699698 35.79589391
v 97.53635408 98.55661335 35.79589391
v 97.07279227 98.95821303 36.33491231
v 96.99128573 98.90710146 35.79589391
v 95.77252311 99.65188870 35.72430481
v 100.75709985 96.36788521 36.65705937
v 100.57880704 96.41169622 36.12225293
v 100.51003534 96.35693181 35.54743998
v 99.62875609 97.20577246 36.45492796
v 98.51569464 97.88666960 35.79589391
v 94.21500210 100.54453780 35.79589391
v 95.03005842 100.08817371 35.72430481
v 93.22547290 101.05749400 35.79589391
v 92.51357284 101.42258579 35.79589391
v 91.98378681 101.59052673 35.25898084
v 90.63894317 102.09252954 34.93262310
v 88.95152377 102.58357638 34.06092967
v 88.05114098 102.91763826 34.06935230
v 87.99638042 103.13486562 34.96841765
v 87.74676844 103.37400234 35.79589391
v 87.74676844 103.29550857 35.34951923
v 87.74676844 102.82088797 33.20818554
v 91.52786487 101.72013463 34.95578307
v 93.20637065 100.36746860 32.75549486
v 93.18344718 100.50437963 33.20818554
v 91.83478360 101.51933351 34.68206384
v 91.67177311 101.44449001 34.06935230
v 92.99751193 100.80740388 34.06935230
v 93.42923666 100.58652367 34.06935230
v 93.51711061 100.20317794 32.75549486
v 94.11311958 100.02063076 33.25450805
v 94.41494592 99.78332175 32.99763150
v 95.49489398 99.04400992 32.55967945
v 95.01222863 99.24116077 32.30280419
v 96.07307443 98.87606898 33.20818554
v 96.75186367 98.42152746 33.13870307
v 97.20905807 98.18604358 33.38083970
v 97.78087111 97.98889530 34.06935230
v 98.23424557 97.43943120 33.20818554
v 98.66469784 97.13640438 33.20818554
v 99.30910252 96.66361148 33.22292546
v 99.62875609 96.34050300 32.94499299
v 100.75709985 95.37848583 32.75549486
v 100.75709985 95.32372142 32.57863003
v 100.06430333 96.07763692 33.22292546
v 100.64757617 95.60484402 33.20818554
v 100.75709985 95.42959996 32.92183302
v 95.37136301 99.83443588 35.38952445
v 98.00755834 98.14405770 35.25055950
v 96.84355755 98.81582916 34.93262310
v 100.75709985 96.30399511 36.31385639
v 100.75709985 96.18534060 35.71167280
v 100.75709985 96.09041545 35.28635405
v 100.41706901 96.28391345 34.93262310
v 99.98661673 96.61249735 34.93262310
v 99.53578975 97.13822952 35.79589391
v 94.84539691 100.02428104 34.93262310
v 94.02142569 100.47699742 34.97262832
v 93.69030974 100.71978185 35.28635405
v 93.25858501 100.87312169 34.97262832
v 87.74676844 103.01621111 34.04829638
v 87.74676844 103.26812637 35.20844895
v 87.74676844 103.18963003 34.83787404
v 94.08892236 100.23421042 34.06935230
v 94.65818921 99.92023020 34.06935230
v 94.54739179 99.85634010 33.57244445
v 94.87978148 99.58434576 33.25450805
v 95.32296859 99.19552462 32.75549486
v 95.64134970 99.13163195 33.20818554
v 95.27712164 99.77967147 34.93262310
v 96.18896553 98.94543449 33.77457587
v 96.62196529 98.74280823 34.06514034
v 97.34914638 98.27731588 34.06935230
v 97.90185716 98.07103935 34.67364122
v 98.77422152 97.21307301 33.79141983
v 99.83761609 96.50114339 34.06935230
v 99.73700731 96.42629989 33.51980594
v 100.26806580 96.16525895 34.06935230
v 100.75709985 95.51539685 33.20818554
v 100.75709985 95.76913468 34.06935230
v 96.30103669 99.01297744 34.34938881
v 99.40461634 97.04148180 34.93262310
v 98.87737779 97.28791651 34.36833811
v 97.58220102 98.34668397 34.94946706
v 100.75709985 96.01192168 34.96841765
v 100.75709985 95.79651689 34.16831203
v 99.20339877 96.97211372 34.07566830
v 95.08864020 99.67379293 34.06935230
f 1 2 8
f 1 8 15
f 1 15 24
f 1 24 37
f 1 37 36
f 1 36 54
f 1 54 53
f 1 53 83
f 1 83 130
f 1 130 135
f 1 135 134
f 1 134 192
f 1 192 245
f 1 245 312
f 1 312 248
f 1 248 313
f 1 313 254
f 1 254 198
f 1 198 194
f 1 194 141
f 1 141 140
f 1 140 139
f 1 139 138
f 1 138 92
f 1 92 90
f 1 90 62
f 1 62 60
f 1 60 59
f 1 59 40
f 1 40 25
f 1 25 16
f 1 16 9
f 1 9 3
f 1 3 4
f 1 4 5
f 1 5 6
f 1 6 7
f 1 7 2
f 2 7 12
f 2 12 20
f 2 20 32
f 2 32 49
f 2 49 73
f 2 73 116
f 2 116 168
f 2 168 221
f 2 221 225
f 2 225 292
f 2 292 356
f 2 356 355
f 2 355 424
f 2 424 484
f 2 484 543
f 2 543 603
f 2 603 671
f 2 671 672
f 2 672 713
f 2 713 714
f 2 714 712
f 2 712 673
f 2 673 604
f 2 604 544
f 2 544 485
f 2 485 428
f 2 428 427
f 2 427 426
f 2 426 425
f 2 425 357
f 2 357 295
f 2 295 294
f 2 294 293
f 2 293 228
f 2 228 177
f 2 177 176
f 2 176 175
f 2 175 173
f 2 173 121
f 2 121 75
f 2 75 50
f 2 50 33
f 2 33 21
f 2 21 13
f 2 13 8
f 3 9 18
f 3 18 28
f 3 28 47
f 3 47 46
f 3 46 70
f 3 70 107
f 3 107 156
f 3 156 207
f 3 207 264
f 3 264 267
f 3 267 266
f 3 266 265
f 3 265 329
f 3 329 392
f 3 392 391
f 3 391 390
f 3 390 389
f 3 389 388
f 3 388 457
f 3 457 455
f 3 455 516
f 3 516 515
f 3 515 574
f 3 574 647
f 3 647 695
f 3 695 694
f 3 694 698
f 3 698 730
f 3 730 731
f 3 731 737
f 3 737 736
f 3 736 704
f 3 704 703
f 3 703 702
f 3 702 657
f 3 657 585
f 3 585 526
f 3 526 468
f 3 468 404
f 3 404 339
f 3 339 279
f 3 279 213
f 3 213 164
f 3 164 113
f 3 113 72
f 3 72 48
f 3 48 29
f 3 29 19
f 3 19 10
f 3 10 5
f 3 5 4
f 5 10 11
f 5 11 6
f 6 11 12
f 6 12 7
f 8 13 14
f 8 14 15
f 9 16 17
f 9 17 18
f 10 19 20
f 10 20 12
f 10 12 11
f 13 21 22
f 13 22 14
f 14 22 23
f 14 23 15
f 15 23 24
f 16 25 26
f 16 26 17
f 17 26 18
f 18 26 27
f 18 27 28
f 19 29 30
f 19 30 20
f 20 30 31
f 20 31 32
f 21 33 34
f 21 34 22
f 22 34 23
f 23 35 36
f 23 36 37
f 23 37 24
f 23 34 38
f 23 38 39
f 23 39 35
f 25 40 26
f 26 40 41
f 26 41 42
f 26 42 27
f 27 43 44
f 27 44 45
f 27 45 46
f 27 46 47
f 27 47 28
f 27 42 43
f 29 48 71
f 29 71 109
f 29 109 157
f 29 157 118
f 29 118 74
f 29 74 49
f 29 49 32
f 29 32 31
f 29 31 30
f 33 50 34
f 34 50 51
f 34 51 52
f 34 52 38
f 35 53 54
f 35 54 36
f 35 39 55
f 35 55 56
f 35 56 57
f 35 57 53
f 38 52 58
f 38 58 39
f 39 58 55
f 40 59 41
f 41 59 60
f 41 60 61
f 41 61 62
f 41 62 42
f 42 62 63
f 42 63 64
f 42 64 43
f 43 64 65
f 43 65 66
f 43 66 67
f 43 67 68
f 43 68 44
f 44 68 45
f 45 68 69
f 45 69 70
f 45 70 46
f 48 72 71
f 49 74 73
f 50 75 76
f 50 76 77
f 50 77 51
f 51 77 78
f 51 78 79
f 51 79 52
f 52 80 58
f 52 79 81
f 52 81 82
f 52 82 80
f 53 57 83
f 55 58 56
f 56 58 80
f 56 80 84
f 56 84 57
f 57 84 85
f 57 85 86
f 57 86 87
f 57 87 88
f 57 88 89
f 57 89 83
f 60 62 61
f 62 90 63
f 63 91 64
f 63 90 92
f 63 92 91
f 64 91 92
f 64 92 93
f 64 93 65
f 65 94 95
f 65 95 96
f 65 96 97
f 65 97 98
f 65 98 99
f 65 99 100
f 65 100 67
f 65 67 66
f 65 93 94
f 67 99 101
f 67 101 102
f 67 102 103
f 67 103 104
f 67 104 68
f 67 100 99
f 68 104 103
f 68 103 105
f 68 105 69
f 69 105 103
f 69 103 106
f 69 106 70
f 70 106 107
f 71 72 108
f 71 108 109
f 72 110 111
f 72 111 112
f 72 112 108
f 72 113 110
f 73 114 115
f 73 115 116
f 73 74 117
f 73 117 114
f 74 118 119
f 74 119 120
f 74 120 117
f 75 121 76
f 76 121 122
f 76 122 123
f 76 123 77
f 77 123 78
f 78 123 81
f 78 81 79
f 80 82 81
f 80 81 84
f 81 124 125
f 81 125 126
f 81 126 84
f 81 123 127
f 81 127 128
f 81 128 129
f 81 129 124
f 83 89 130
f 84 126 85
f 85 126 125
f 85 125 131
f 85 131 86
f 86 131 87
f 87 131 132
f 87 132 133
f 87 133 88
f 88 133 89
f 89 134 135
f 89 135 130
f 89 133 136
f 89 136 137
f 89 137 134
f 92 138 93
f 93 138 139
f 93 139 94
f 94 139 140
f 94 140 95
f 95 140 141
f 95 141 97
f 95 97 96
f 97 142 143
f 97 143 144
f 97 144 98
f 97 141 145
f 97 145 146
f 97 146 142
f 98 144 99
f 99 147 148
f 99 148 149
f 99 149 150
f 99 150 151
f 99 151 101
f 99 144 147
f 101 151 152
f 101 152 102
f 102 152 103
f 103 153 154
f 103 154 155
f 103 155 107
f 103 107 106
f 103 152 153
f 107 155 156
f 108 112 109
f 109 112 158
f 109 158 159
f 109 159 119
f 109 119 157
f 110 113 160
f 110 160 111
f 111 161 162
f 111 162 112
f 111 160 163
f 111 163 161
f 112 162 158
f 113 164 160
f 114 117 115
f 115 117 165
f 115 165 166
f 115 166 167
f 115 167 116
f 116 167 169
f 116 169 170
f 116 170 171
f 116 171 168
f 117 120 165
f 118 157 119
f 119 159 172
f 119 172 120
f 120 172 165
f 121 173 122
f 122 174 123
f 122 173 175
f 122 175 176
f 122 176 177
f 122 177 178
f 122 178 179
f 122 179 180
f 122 180 174
f 123 174 127
f 124 181 125
f 124 129 182
f 124 182 181
f 125 181 183
f 125 183 132
f 125 132 131
f 127 174 184
f 127 184 128
f 128 184 185
f 128 185 129
f 129 185 186
f 129 186 182
f 132 183 187
f 132 187 188
f 132 188 189
f 132 189 190
f 132 190 191
f 132 191 133
f 133 191 136
f 134 137 192
f 136 191 137
f 137 191 193
f 137 193 192
f 141 194 145
f 142 146 145
f 142 145 195
f 142 195 196
f 142 196 143
f 143 196 197
f 143 197 147
f 143 147 144
f 145 194 198
f 145 198 195
f 147 197 199
f 147 199 200
f 147 200 148
f 148 200 149
f 149 200 201
f 149 201 202
f 149 202 203
f 149 203 150
f 150 203 151
f 151 203 152
f 152 203 153
f 153 204 205
f 153 205 154
f 153 203 204
f 154 205 206
f 154 206 155
f 155 206 207
f 155 207 156
f 158 162 161
f 158 161 208
f 158 208 172
f 158 172 159
f 160 164 163
f 161 163 209
f 161 209 208
f 163 164 210
f 163 210 211
f 163 211 212
f 163 212 209
f 164 213 210
f 165 214 166
f 165 172 214
f 166 214 215
f 166 215 216
f 166 216 167
f 167 216 217
f 167 217 218
f 167 218 219
f 167 219 220
f 167 220 169
f 168 171 221
f 169 220 170
f 170 222 223
f 170 223 171
f 170 220 222
f 171 223 224
f 171 224 225
f 171 225 221
f 172 208 226
f 172 226 214
f 174 180 227
f 174 227 184
f 177 228 229
f 177 229 178
f 178 229 179
f 179 227 180
f 179 229 230
f 179 230 231
f 179 231 227
f 181 232 183
f 181 182 233
f 181 233 232
f 182 186 234
f 182 234 233
f 183 232 235
f 183 235 187
f 184 227 185
f 185 227 236
f 185 236 186
f 186 236 237
f 186 237 234
f 187 235 238
f 187 238 239
f 187 239 240
f 187 240 188
f 188 241 189
f 188 240 241
f 189 241 196
f 189 196 242
f 189 242 243
f 189 243 244
f 189 244 190
f 190 244 191
f 191 244 243
f 191 243 193
f 192 193 245
f 193 243 245
f 195 198 246
f 195 246 196
f 196 246 247
f 196 247 248
f 196 248 249
f 196 249 243
f 196 243 242
f 196 241 240
f 196 240 250
f 196 250 251
f 196 251 252
f 196 252 253
f 196 253 197
f 197 253 199
f 198 254 246
f 199 253 200
f 200 253 255
f 200 255 256
f 200 256 257
f 200 257 201
f 201 257 202
f 202 204 203
f 202 257 258
f 202 258 259
f 202 259 204
f 204 259 205
f 205 259 260
f 205 260 261
f 205 261 262
f 205 262 263
f 205 263 206
f 206 264 207
f 206 263 265
f 206 265 266
f 206 266 267
f 206 267 264
f 208 209 268
f 208 268 226
f 209 216 268
f 209 212 269
f 209 269 216
f 210 213 270
f 210 270 211
f 211 271 212
f 211 270 272
f 211 272 273
f 211 273 274
f 211 274 271
f 212 271 275
f 212 275 276
f 212 276 277
f 212 277 278
f 212 278 269
f 213 279 272
f 213 272 270
f 214 226 215
f 215 226 268
f 215 268 216
f 216 269 280
f 216 280 281
f 216 281 217
f 217 282 283
f 217 283 284
f 217 284 285
f 217 285 286
f 217 286 218
f 217 281 282
f 218 286 287
f 218 287 219
f 219 287 220
f 220 287 222
f 222 287 288
f 222 288 223
f 223 288 289
f 223 289 290
f 223 290 291
f 223 291 224
f 224 291 356
f 224 356 292
f 224 292 225
f 227 231 236
f 228 293 229
f 229 293 230
f 230 293 294
f 230 294 295
f 230 295 296
f 230 296 297
f 230 297 298
f 230 298 299
f 230 299 300
f 230 300 231
f 231 300 301
f 231 301 302
f 231 302 236
f 232 303 238
f 232 238 235
f 232 233 303
f 233 304 305
f 233 305 306
f 233 306 303
f 233 234 304
f 234 237 304
f 236 302 307
f 236 307 304
f 236 304 237
f 238 303 306
f 238 306 308
f 238 308 239
f 239 308 309
f 239 309 310
f 239 310 240
f 240 310 311
f 240 311 250
f 243 249 248
f 243 248 312
f 243 312 245
f 246 254 313
f 246 313 247
f 247 313 248
f 250 311 314
f 250 314 251
f 251 314 252
f 252 255 253
f 252 314 315
f 252 315 316
f 252 316 255
f 255 316 317
f 255 317 256
f 256 317 318
f 256 318 257
f 257 318 319
f 257 319 320
f 257 320 321
f 257 321 258
f 258 322 259
f 258 321 323
f 258 323 322
f 259 322 260
f 260 322 324
f 260 324 323
f 260 323 325
f 260 325 326
f 260 326 327
f 260 327 328
f 260 328 262
f 260 262 261
f 262 329 265
f 262 265 263
f 262 328 329
f 269 278 330
f 269 330 331
f 269 331 332
f 269 332 333
f 269 333 280
f 271 274 334
f 271 334 335
f 271 335 275
f 272 279 336
f 272 336 337
f 272 337 273
f 273 338 274
f 273 337 338
f 274 338 334
f 275 335 276
f 276 335 277
f 277 335 278
f 278 335 334
f 278 334 330
f 279 339 336
f 280 333 281
f 281 333 340
f 281 340 332
f 281 332 341
f 281 341 342
f 281 342 343
f 281 343 344
f 281 344 345
f 281 345 282
f 282 345 284
f 282 284 283
f 284 345 346
f 284 346 347
f 284 347 348
f 284 348 286
f 284 286 285
f 286 348 349
f 286 349 288
f 286 288 287
f 288 349 289
f 289 350 351
f 289 351 352
f 289 352 290
f 289 349 350
f 290 352 353
f 290 353 354
f 290 354 291
f 291 354 355
f 291 355 356
f 295 357 296
f 296 357 358
f 296 358 297
f 297 358 359
f 297 359 360
f 297 360 361
f 297 361 362
f 297 362 298
f 298 362 299
f 299 362 363
f 299 363 364
f 299 364 365
f 299 365 301
f 299 301 300
f 301 366 367
f 301 367 368
f 301 368 302
f 301 365 364
f 301 364 369
f 301 369 366
f 302 370 307
f 302 368 370
f 304 307 305
f 305 307 370
f 305 370 371
f 305 371 372
f 305 372 306
f 306 372 373
f 306 373 308
f 308 373 374
f 308 374 309
f 309 374 310
f 310 374 311
f 311 374 375
f 311 375 376
f 311 376 315
f 311 315 314
f 315 376 377
f 315 377 318
f 315 318 316
f 316 318 317
f 318 377 378
f 318 378 319
f 319 378 320
f 320 378 377
f 320 377 379
f 320 379 380
f 320 380 321
f 321 380 323
f 322 323 324
f 323 380 381
f 323 381 382
f 323 382 383
f 323 383 384
f 323 384 325
f 325 384 326
f 326 384 327
f 327 384 385
f 327 385 386
f 327 386 387
f 327 387 388
f 327 388 389
f 327 389 390
f 327 390 391
f 327 391 328
f 328 391 392
f 328 392 329
f 330 393 394
f 330 394 331
f 330 334 393
f 331 394 395
f 331 395 332
f 332 340 333
f 332 395 396
f 332 396 397
f 332 397 409
f 332 409 341
f 334 398 399
f 334 399 400
f 334 400 401
f 334 401 402
f 334 402 403
f 334 403 393
f 334 338 398
f 336 339 404
f 336 404 405
f 336 405 406
f 336 406 407
f 336 407 337
f 337 407 408
f 337 408 338
f 338 408 398
f 341 409 342
f 342 409 410
f 342 410 411
f 342 411 344
f 342 344 343
f 344 411 345
f 345 411 346
f 346 411 412
f 346 412 413
f 346 413 347
f 347 413 414
f 347 414 415
f 347 415 416
f 347 416 417
f 347 417 348
f 348 417 349
f 349 417 350
f 350 417 351
f 351 417 416
f 351 416 418
f 351 418 352
f 352 418 419
f 352 419 420
f 352 420 353
f 353 420 421
f 353 421 422
f 353 422 423
f 353 423 354
f 354 423 424
f 354 424 355
f 357 425 358
f 358 425 359
f 359 425 426
f 359 426 427
f 359 427 428
f 359 428 429
f 359 429 430
f 359 430 360
f 360 430 431
f 360 431 361
f 361 364 363
f 361 363 362
f 361 431 432
f 361 432 364
f 364 432 433
f 364 433 434
f 364 434 435
f 364 435 369
f 366 436 367
f 366 369 436
f 367 436 371
f 367 371 370
f 367 370 368
f 369 435 437
f 369 437 436
f 371 436 438
f 371 438 372
f 372 438 439
f 372 439 440
f 372 440 373
f 373 440 374
f 374 440 375
f 375 440 376
f 376 440 441
f 376 441 377
f 377 441 442
f 377 442 443
f 377 443 444
f 377 444 445
f 377 445 446
f 377 446 447
f 377 447 379
f 379 447 446
f 379 446 448
f 379 448 380
f 380 448 381
f 381 448 449
f 381 449 383
f 381 383 382
f 383 449 450
f 383 450 451
f 383 451 452
f 383 452 384
f 384 452 453
f 384 453 385
f 385 453 454
f 385 454 386
f 386 454 455
f 386 455 456
f 386 456 387
f 387 456 388
f 388 456 457
f 393 403 394
f 394 403 395
f 395 403 396
f 396 403 458
f 396 458 459
f 396 459 397
f 397 459 460
f 397 460 461
f 397 461 409
f 398 408 471
f 398 471 462
f 398 462 399
f 399 462 400
f 400 462 463
f 400 463 464
f 400 464 465
f 400 465 466
f 400 466 467
f 400 467 401
f 401 467 402
f 402 467 403
f 403 467 458
f 404 468 469
f 404 469 405
f 405 469 470
f 405 470 406
f 406 471 407
f 406 470 472
f 406 472 471
f 407 471 408
f 409 461 473
f 409 473 410
f 410 473 474
f 410 474 411
f 411 474 412
f 412 474 475
f 412 475 476
f 412 476 413
f 413 476 477
f 413 477 414
f 414 477 415
f 415 477 478
f 415 478 418
f 415 418 416
f 418 478 479
f 418 479 480
f 418 480 419
f 419 480 421
f 419 421 420
f 421 480 481
f 421 481 482
f 421 482 422
f 422 482 423
f 423 482 483
f 423 483 484
f 423 484 424
f 428 485 429
f 429 485 430
f 430 485 486
f 430 486 487
f 430 487 488
f 430 488 489
f 430 489 431
f 431 433 432
f 431 489 490
f 431 490 491
f 431 491 433
f 433 491 434
f 434 492 435
f 434 491 493
f 434 493 494
f 434 494 495
f 434 495 492
f 435 496 437
f 435 492 496
f 436 437 497
f 436 497 438
f 437 496 498
f 437 498 497
f 438 497 499
f 438 499 500
f 438 500 439
f 439 501 441
f 439 441 440
f 439 500 502
f 439 502 501
f 441 501 442
f 442 502 503
f 442 503 443
f 442 501 502
f 443 503 504
f 443 504 505
f 443 505 444
f 444 505 445
f 445 505 506
f 445 506 507
f 445 507 446
f 446 507 448
f 448 507 449
f 449 507 508
f 449 508 509
f 449 509 450
f 450 509 451
f 451 509 510
f 451 510 511
f 451 511 453
f 451 453 452
f 453 511 512
f 453 512 513
f 453 513 454
f 454 513 514
f 454 514 515
f 454 515 516
f 454 516 455
f 455 457 456
f 458 467 459
f 459 517 518
f 459 518 460
f 459 467 466
f 459 466 517
f 460 518 519
f 460 519 461
f 461 519 520
f 461 520 473
f 462 471 472
f 462 472 463
f 463 472 521
f 463 521 522
f 463 522 464
f 464 522 523
f 464 523 465
f 465 523 524
f 465 524 525
f 465 525 517
f 465 517 466
f 468 526 527
f 468 527 469
f 469 527 528
f 469 528 470
f 470 528 472
f 472 528 529
f 472 529 521
f 473 520 474
f 474 520 475
f 475 520 530
f 475 530 531
f 475 531 532
f 475 532 476
f 476 532 477
f 477 532 478
f 478 533 479
f 478 532 534
f 478 534 535
f 478 535 533
f 479 533 536
f 479 536 480
f 480 536 537
f 480 537 538
f 480 538 539
f 480 539 481
f 481 539 540
f 481 540 482
f 482 540 483
f 483 540 541
f 483 541 542
f 483 542 484
f 484 542 543
f 485 544 545
f 485 545 486
f 486 545 546
f 486 546 487
f 487 546 547
f 487 547 488
f 488 490 489
f 488 547 548
f 488 548 494
f 488 494 490
f 490 493 491
f 490 494 493
f 492 495 549
f 492 549 550
f 492 550 551
f 492 551 496
f 494 548 552
f 494 552 553
f 494 553 495
f 495 553 554
f 495 554 549
f 496 551 555
f 496 555 498
f 497 498 500
f 497 500 499
f 498 555 556
f 498 556 557
f 498 557 500
f 500 503 502
f 500 557 503
f 503 557 556
f 503 556 504
f 504 556 558
f 504 558 505
f 505 507 506
f 505 558 507
f 507 558 508
f 508 558 509
f 509 559 510
f 509 558 560
f 509 560 561
f 509 561 562
f 509 562 563
f 509 563 564
f 509 564 565
f 509 565 566
f 509 566 559
f 510 567 513
f 510 513 512
f 510 512 511
f 510 559 567
f 513 565 568
f 513 568 569
f 513 569 570
f 513 570 571
f 513 571 514
f 513 567 566
f 513 566 565
f 514 571 572
f 514 572 515
f 515 572 573
f 515 573 574
f 517 525 518
f 518 525 575
f 518 575 576
f 518 576 577
f 518 577 519
f 519 577 520
f 520 577 530
f 521 523 522
f 521 529 578
f 521 578 579
f 521 579 580
f 521 580 524
f 521 524 523
f 524 580 581
f 524 581 582
f 524 582 525
f 525 582 583
f 525 583 584
f 525 584 575
f 526 585 527
f 527 585 586
f 527 586 528
f 528 586 529
f 529 586 587
f 529 587 578
f 530 577 588
f 530 588 589
f 530 589 590
f 530 590 531
f 531 590 591
f 531 591 592
f 531 592 534
f 531 534 532
f 533 535 593
f 533 593 594
f 533 594 595
f 533 595 536
f 534 592 596
f 534 596 535
f 535 596 593
f 536 595 597
f 536 597 598
f 536 598 599
f 536 599 537
f 537 599 538
f 538 599 600
f 538 600 601
f 538 601 602
f 538 602 541
f 538 541 539
f 539 541 540
f 541 602 542
f 542 602 543
f 543 602 603
f 544 604 545
f 545 604 605
f 545 605 546
f 546 605 606
f 546 606 607
f 546 607 608
f 546 608 547
f 547 608 609
f 547 609 610
f 547 610 611
f 547 611 612
f 547 612 552
f 547 552 548
f 549 554 613
f 549 613 550
f 550 614 551
f 550 613 615
f 550 615 616
f 550 616 617
f 550 617 614
f 551 614 618
f 551 618 555
f 552 612 619
f 552 619 620
f 552 620 553
f 553 620 621
f 553 621 622
f 553 622 616
f 553 616 615
f 553 615 613
f 553 613 554
f 555 623 556
f 555 618 623
f 556 624 625
f 556 625 558
f 556 623 626
f 556 626 627
f 556 627 628
f 556 628 629
f 556 629 630
f 556 630 631
f 556 631 624
f 558 625 560
f 559 566 567
f 560 625 561
f 561 625 631
f 561 631 562
f 562 632 563
f 562 631 632
f 563 633 564
f 563 632 634
f 563 634 635
f 563 635 636
f 563 636 637
f 563 637 638
f 563 638 633
f 564 633 565
f 565 633 638
f 565 638 639
f 565 639 568
f 568 639 640
f 568 640 569
f 569 640 641
f 569 641 642
f 569 642 643
f 569 643 644
f 569 644 570
f 570 645 573
f 570 573 571
f 570 644 645
f 571 573 572
f 573 645 646
f 573 646 647
f 573 647 574
f 575 584 648
f 575 648 649
f 575 649 576
f 576 650 577
f 576 649 651
f 576 651 650
f 577 650 651
f 577 651 588
f 578 587 652
f 578 652 581
f 578 581 579
f 579 581 580
f 581 652 582
f 582 652 653
f 582 653 654
f 582 654 583
f 583 654 655
f 583 655 656
f 583 656 584
f 584 656 648
f 585 657 658
f 585 658 586
f 586 658 659
f 586 659 660
f 586 660 661
f 586 661 587
f 587 661 652
f 588 651 589
f 589 662 590
f 589 651 663
f 589 663 662
f 590 662 664
f 590 664 591
f 591 664 665
f 591 665 592
f 592 665 596
f 593 596 594
f 594 596 666
f 594 666 597
f 594 597 595
f 596 665 666
f 597 666 598
f 598 666 667
f 598 667 600
f 598 600 599
f 600 667 612
f 600 612 611
f 600 611 610
f 600 610 601
f 601 610 609
f 601 609 668
f 601 668 669
f 601 669 670
f 601 670 602
f 602 671 603
f 602 670 672
f 602 672 671
f 604 673 606
f 604 606 605
f 606 668 609
f 606 609 607
f 606 673 669
f 606 669 668
f 607 609 608
f 612 667 674
f 612 674 619
f 614 627 626
f 614 626 618
f 614 617 675
f 614 675 627
f 616 622 621
f 616 621 676
f 616 676 675
f 616 675 617
f 618 626 623
f 619 674 666
f 619 666 620
f 620 666 677
f 620 677 678
f 620 678 621
f 621 678 677
f 621 677 666
f 621 666 679
f 621 679 680
f 621 680 676
f 624 631 625
f 627 675 681
f 627 681 682
f 627 682 683
f 627 683 684
f 627 684 685
f 627 685 628
f 628 685 629
f 629 685 684
f 629 684 632
f 629 632 630
f 630 632 631
f 632 684 634
f 634 686 635
f 634 684 686
f 635 686 636
f 636 686 687
f 636 687 637
f 637 687 688
f 637 688 689
f 637 689 690
f 637 690 639
f 637 639 638
f 639 690 691
f 639 691 640
f 640 691 641
f 641 691 692
f 641 692 642
f 642 692 693
f 642 693 643
f 643 693 644
f 644 693 646
f 644 646 645
f 646 694 695
f 646 695 647
f 646 693 696
f 646 696 697
f 646 697 698
f 646 698 694
f 648 651 649
f 648 656 699
f 648 699 663
f 648 663 651
f 652 661 700
f 652 700 653
f 653 655 654
f 653 700 655
f 655 700 701
f 655 701 699
f 655 699 656
f 657 702 658
f 658 702 659
f 659 703 704
f 659 704 705
f 659 705 706
f 659 706 707
f 659 707 660
f 659 702 703
f 660 707 661
f 661 707 700
f 662 663 699
f 662 699 708
f 662 708 709
f 662 709 710
f 662 710 664
f 664 710 666
f 664 666 665
f 666 710 711
f 666 711 680
f 666 680 679
f 666 674 667
f 669 673 712
f 669 712 670
f 670 713 672
f 670 712 714
f 670 714 713
f 675 676 681
f 676 680 682
f 676 682 681
f 680 715 682
f 680 711 710
f 680 710 709
f 680 709 715
f 682 715 716
f 682 716 717
f 682 717 683
f 683 717 718
f 683 718 719
f 683 719 684
f 684 719 720
f 684 720 686
f 686 720 721
f 686 721 722
f 686 722 723
f 686 723 724
f 686 724 687
f 687 724 688
f 688 724 725
f 688 725 689
f 689 725 690
f 690 725 691
f 691 725 726
f 691 726 692
f 692 726 727
f 692 727 728
f 692 728 693
f 693 728 696
f 696 728 729
f 696 729 697
f 697 730 698
f 697 729 731
f 697 731 730
f 699 721 708
f 699 701 732
f 699 732 722
f 699 722 721
f 700 706 733
f 700 733 734
f 700 734 726
f 700 726 725
f 700 725 735
f 700 735 701
f 700 707 706
f 701 735 723
f 701 723 722
f 701 722 732
f 704 736 705
f 705 737 731
f 705 731 729
f 705 729 727
f 705 727 706
f 705 736 737
f 706 727 738
f 706 738 734
f 706 734 733
f 708 721 716
f 708 716 715
f 708 715 709
f 716 739 717
f 716 721 739
f 717 739 718
f 718 739 720
f 718 720 719
f 720 739 721
f 723 735 724
f 724 735 725
f 726 734 738
f 726 738 727
f 727 729 728

