# https://github.com/mikedh/trimesh
v 115.09083340 48.80804867 42.69481763
v 114.94354994 48.80804867 43.00304609
v 114.52170665 47.65722487 43.30088541
v 114.41260970 47.07074775 43.20391662
v 114.67807982 47.65722487 42.69481763
v 114.97082675 48.51895973 41.83246710
v 115.06901401 48.80804867 41.83246710
v 109.81232982 49.94503999 22.20967277
v 114.73808571 48.80804867 43.36668805
v 114.67262497 48.51895973 43.35976281
v 113.92348824 47.65722487 43.53638729
v 113.74711569 45.93099045 43.33898195
v 113.60710707 45.25045576 43.25240102
v 112.63431901 42.90454729 43.13118875
v 113.66165555 45.13426648 42.69481763
v 113.99985868 45.93099045 42.69481763
v 114.26350881 46.57417922 42.69481763
v 114.43806651 47.00573815 42.69481763
v 114.66171527 47.65722487 41.83246710
v 114.63625846 47.65722487 40.97011658
v 114.93809509 48.51895973 40.97011658
v 115.03264750 48.80804867 40.97011658
v 111.49607066 48.80666568 26.28938549
v 110.95421816 48.80666568 25.13612186
v 110.83057408 48.80666568 24.87984137
v 110.67783834 48.80666568 24.57161162
v 110.25599506 48.80666568 23.74389420
v 110.09598448 48.80666568 23.43566461
v 109.93597389 48.80666568 23.15514096
v 109.59777332 49.36271184 22.20967277
v 109.44139759 49.35441261 21.94646576
v 109.14319838 49.05010819 21.62784622
v 109.68868574 49.94503999 21.99841438
v 103.60286211 49.94503999 22.20967277
v 113.34890922 48.80804867 43.60218992
v 113.92348824 48.80804867 43.59872730
v 114.25623653 48.80804867 43.51907162
v 114.97809902 48.80804867 40.10776606
v 114.95445963 48.80804867 39.82031717
v 114.87809176 48.80804867 38.95450274
v 114.82172586 48.80804867 38.38306629
v 114.71262890 48.80804867 37.52071577
v 114.57989255 48.80804867 36.68260873
v 114.43079424 48.80804867 35.79601601
v 114.40352000 48.80804867 35.64363373
v 114.32169471 48.80804867 35.19341084
v 114.25078169 48.80804867 34.85054718
v 114.07622655 48.80804867 34.05053667
v 114.01440323 48.80804867 33.78040217
v 113.87803203 48.80804867 33.20896572
v 113.80530159 48.80804867 32.91805293
v 113.77075250 48.80804867 32.78298504
v 113.67074525 48.80666568 32.39163826
v 113.53619405 48.80666568 31.89639296
v 113.49437269 48.80666568 31.74747265
v 113.14344243 48.80666568 30.61845218
v 112.86888004 48.80666568 29.75956492
v 112.67977779 48.80666568 29.18812847
v 112.51613235 48.80666568 28.76561169
v 112.45976388 48.80666568 28.62361856
v 112.08337681 48.80666568 27.68161363
v 111.79608729 48.80666568 26.96818277
v 111.73426397 48.80666568 26.81579984
v 113.92348824 48.51895973 43.59872730
v 113.06161971 45.93099045 43.57448382
v 112.19974861 43.34302117 43.47058722
v 112.92888337 44.20613902 43.34937238
v 112.73614369 43.34302117 43.23508278
v 111.89791198 41.82011736 43.25932883
v 111.00149436 40.16995776 43.23162273
v 111.04149572 40.10218089 42.69481763
v 111.95791531 41.71222731 42.69481763
v 112.63431901 42.90454729 43.04806915
v 113.21435545 44.20613902 41.83246710
v 113.45255133 44.72345628 41.83246710
v 113.44346163 44.75111997 40.97011658
v 113.64710843 45.15501521 41.83246710
v 113.98167414 45.93099045 41.83246710
v 114.25805396 46.60460889 41.83246710
v 114.42897424 47.03616782 41.83246710
v 114.41806454 47.07351502 40.97011658
v 114.39079030 47.14267488 40.10776606
v 114.58170998 47.65722487 40.10776606
v 114.88354661 48.51895973 40.10776606
v 110.95058074 47.96982852 25.78375040
v 111.03240345 48.57843608 25.47552097
v 111.39424341 48.51757674 26.30323855
v 110.80875469 48.33222759 25.20538711
v 110.62874471 48.57843608 24.65126666
v 110.17598977 48.58811959 23.75082073
v 109.24320564 47.07213203 23.17938380
v 109.72141483 48.58811959 22.93349278
v 109.79960269 47.67382334 23.75082073
v 108.59407618 48.49129476 21.08757882
v 108.39406166 48.76101925 20.58540699
v 108.96682583 49.35441261 21.14991723
v 109.24684306 49.62413710 21.44775720
v 109.30684639 48.60886704 22.20967277
v 109.28138958 48.54524043 22.20967277
v 109.19592944 48.05143788 22.40361517
v 109.14319838 48.20358881 22.20967277
v 109.30684639 49.94503999 21.35424942
v 96.51697617 49.94503999 15.24507013
v 111.39606340 48.80804867 43.33898195
v 111.63425928 48.80804867 43.42556288
v 112.19974861 48.80804867 43.59179949
v 112.48703812 48.80804867 43.60218992
v 113.06161971 46.79272403 43.60218992
v 114.80717874 48.51895973 39.24195291
v 114.72172117 48.51895973 38.38306629
v 114.61443907 48.51895973 37.52071577
v 114.47261302 48.48852877 36.69646178
v 114.27078365 48.33637656 35.79601601
v 114.41806454 48.76793549 35.79601601
v 114.19805063 48.57428711 34.97176202
v 113.98167414 48.51895973 34.06785363
v 113.77620735 48.51895973 33.20896572
v 113.77075250 48.80666568 32.78298504
v 113.58528768 48.54800641 32.41588046
v 113.28163105 47.73191798 32.41588046
v 112.62704674 46.36808134 31.92409906
v 112.98343184 47.65584188 31.48080206
v 112.74523596 47.67797360 30.66347459
v 113.04343517 48.51757674 30.61845218
v 112.77069278 48.51619375 29.76302882
v 112.57795311 48.22848780 29.47904191
v 112.46521873 48.51619375 28.89721568
v 112.11974332 48.51757674 28.03140189
v 111.77063048 48.07218533 27.58464227
v 111.67971549 48.51757674 26.95086677
v 111.50334294 47.73330097 27.24870641
v 111.07604481 47.67105736 26.30323855
v 112.19974861 44.20613902 43.58833687
v 111.16150238 40.75781916 43.32512890
v 112.19065634 42.56427994 43.30435060
v 111.33606008 42.48128759 43.58141163
v 110.47418897 40.75781916 43.56063077
v 109.28684443 37.58337276 43.23854797
v 110.05416312 38.58342734 43.14157661
v 110.50691806 39.88778635 43.38054110
v 110.77238818 39.67062325 42.69481763
v 110.75966106 39.70105421 41.83246710
v 111.02513118 40.13122886 41.83246710
v 111.69608004 41.31801558 40.97011658
v 111.70698973 41.29726814 41.83246710
v 111.94882304 41.72882578 41.83246710
v 111.93245849 41.75095750 40.97011658
v 112.31793783 42.48128759 40.97011658
v 112.60522735 42.96125765 41.83246710
v 112.80523929 43.43292976 40.97011658
v 113.18708121 44.20613902 40.97011658
v 113.62710646 45.18267889 40.97011658
v 113.41800482 44.81474786 40.10776606
v 113.94167278 45.93099045 40.97011658
v 114.23987199 46.64333908 40.97011658
v 113.88712430 45.93099045 40.10776606
v 113.81257386 45.93099045 39.24195291
v 114.36533606 47.19938525 39.58481529
v 114.48170529 47.60466348 39.27658554
v 110.83602893 47.39441662 26.01925163
v 110.67965577 47.67105736 25.47552097
v 110.09052963 47.97259579 24.06251342
v 109.40321366 46.78719206 23.70233505
v 109.11956157 46.49672012 23.40103198
v 108.93773159 46.78719206 22.87808090
v 109.07592278 47.47602598 22.60448378
v 109.33593806 47.72085276 22.87808090
v 108.27223758 48.18560734 20.77242254
v 108.51043346 49.37931031 20.41570743
v 109.05410339 49.94503999 20.94212210
v 108.07040564 48.49129476 20.28756735
v 107.61037842 48.51619375 19.61915955
v 107.41582133 49.04595921 19.03386941
v 108.21768910 49.37931031 19.98280086
v 109.17047262 49.94503999 21.12913766
v 96.51697617 49.94503999 8.22159169
v 96.51515875 39.61252989 22.20967277
v 96.51515875 35.81564216 26.76038796
v 103.08283156 35.81564216 42.69481763
v 103.14465231 35.81564216 42.82988423
v 110.87421286 48.16209392 43.16928271
v 103.78105466 36.28454829 43.28356974
v 103.59922468 35.81564216 43.37361329
v 103.70104937 35.81564216 43.40824720
v 104.42109443 35.81564216 43.55370553
v 104.67383742 35.81564216 43.60218992
v 112.19974861 48.51895973 43.60218992
v 109.61231787 39.89608430 43.60218992
v 114.33442440 47.28237760 39.00991494
v 114.45988590 47.80799409 38.38306629
v 114.24350941 47.52443840 37.52071577
v 114.36715349 48.05558686 37.01508196
v 114.32351470 48.18007538 36.43671771
v 114.29987532 47.37505217 38.38306629
v 114.02713292 47.65722487 35.79601601
v 113.86348492 47.65722487 34.93366549
v 113.65074585 47.61849596 34.06092582
v 113.55619344 47.92141739 33.20896572
v 113.49982754 48.07080233 32.75181631
v 113.67438267 48.53555820 32.78298504
v 113.72165887 48.66834596 32.78298504
v 112.84887807 46.71111595 32.26349754
v 112.65068355 47.17033857 30.98209349
v 112.72523400 46.97392420 31.48080206
v 113.11980561 46.79272403 33.20896572
v 112.70159718 46.19933195 32.49899877
v 112.55613371 45.71106137 32.78298504
v 112.51249493 45.91854224 32.26349754
v 112.13974528 45.06787388 32.34315258
v 111.78517760 44.59758477 31.85483380
v 111.90700425 45.07478884 31.53275100
v 111.73790139 45.56997566 30.28251696
v 111.67244322 45.88672829 29.67298399
v 111.76517563 46.36808134 29.33012161
v 112.67068552 47.98089374 30.05394162
v 112.12519816 47.65584188 28.89028915
v 112.45249161 47.67797360 29.76302882
v 111.84700092 47.73330097 28.11105694
v 110.96876528 47.07628100 26.59415166
v 111.65971610 47.49815770 27.87555571
v 108.74862934 38.16985116 43.56755601
v 109.61231787 39.03296902 43.49482813
v 108.77954100 37.30120134 43.38054110
v 108.51043346 36.63311358 43.28010712
v 108.04495140 35.81564216 42.69481763
v 108.59771103 36.51692687 42.69481763
v 109.03046401 37.08403825 42.69481763
v 109.33593806 37.51559589 42.69481763
v 109.76687361 38.15186970 42.69481763
v 110.05598054 38.58204435 42.69481763
v 110.03598115 38.61247531 40.97011658
v 110.30690612 39.04403295 40.97011658
v 110.73784167 39.73563414 40.97011658
v 111.00331179 40.16719178 40.97011658
v 111.36151432 40.75781916 40.97011658
v 111.30514842 40.75781916 40.10776606
v 111.66698837 41.36919398 40.10776606
v 111.90336683 41.80075291 40.10776606
v 112.25975193 42.48128759 40.10776606
v 112.77614763 43.48964141 40.10776606
v 113.13071531 44.20613902 40.10776606
v 113.59983222 45.24492251 40.10776606
v 113.04525517 44.20613902 39.24195291
v 113.37072861 44.90742244 39.24195291
v 113.52164693 45.43995389 38.38306629
v 113.56346828 45.33759709 39.24195291
v 113.73075114 45.93099045 38.38306629
v 114.07804398 46.79272403 38.38306629
v 110.27053961 46.77889282 25.42703529
v 110.11416645 47.05829954 24.86945158
v 109.97052297 47.39718389 24.29455155
v 110.70511258 46.79134103 26.30323855
v 109.84869633 46.77889282 24.58546467
v 109.26866246 46.17443424 23.97593217
v 108.25405304 44.76218647 23.40449525
v 108.39769908 45.33759709 23.15514096
v 108.53043543 45.95588815 22.86422785
v 108.36678742 46.25880958 22.34473970
v 108.99046264 45.90470975 23.70233505
v 108.45951983 46.87295039 22.02958375
v 108.41951847 47.65445889 21.39580825
v 107.43582329 46.40127828 20.73086371
v 107.56673964 46.97669018 20.53692131
v 107.69402114 47.68350685 20.25986125
v 107.49764404 47.99057725 19.78193226
v 108.15222836 47.65445889 20.96290168
v 108.30496667 49.84268319 19.85812404
v 108.41224620 49.94503999 19.96202129
v 108.61044072 49.94503999 20.25986125
v 106.51031144 48.26721670 18.22346847
v 107.30490437 48.51619375 19.18971560
v 107.20671711 49.35164663 18.56979347
v 107.52855571 49.62137112 18.87455996
v 106.63577294 48.84262860 18.05723186
v 107.59037646 49.94503999 18.78451513
v 96.98246081 49.94503999 8.52635882
v 97.09519519 49.83576694 8.63718323
v 96.51697617 49.31568370 8.45016704
v 96.51515875 35.81564216 22.20967277
v 106.39757706 35.81564216 43.60218992
v 107.02488971 36.44638144 43.60218992
v 107.88675824 37.30811630 43.59872730
v 113.96894702 46.79272403 37.52071577
v 114.19441578 47.72361875 36.69646178
v 113.65983555 46.73877964 35.78216296
v 113.83257583 46.79272403 36.65836653
v 113.59437738 46.98084044 34.93366549
v 113.53073920 47.13575864 34.34144947
v 113.46164360 47.30589231 33.76654912
v 113.39436800 47.48985718 33.20896572
v 113.33617953 46.82592096 34.06092582
v 112.76705536 45.91992523 33.25052488
v 112.72705399 46.09420788 32.78298504
v 112.64886613 45.46070262 33.56914378
v 112.41248767 45.13011750 33.25052488
v 111.65244125 44.02078987 32.34315258
v 111.52697975 44.26838264 31.53275100
v 111.69608004 44.79399913 31.27993410
v 111.60516762 45.07478884 30.58728281
v 111.32515038 45.06787388 29.75610230
v 111.04331315 45.09553757 28.94570072
v 111.40515310 45.92960746 28.89028915
v 111.67971549 46.57417922 28.89028915
v 111.77063048 47.21321773 28.45045541
v 111.49607066 46.87156740 28.11105694
v 111.08513451 46.79134103 27.17597854
v 110.83966635 46.50225209 26.89199163
v 110.28326930 45.90056078 26.27553244
v 107.02488971 35.81564216 43.53292467
v 107.29581467 35.81564216 43.47751246
v 107.93767187 35.81564216 42.99958347
v 107.74311477 35.81564216 43.30781322
v 108.03767655 35.81564216 42.30346957
v 108.02676686 35.81564216 41.83246710
v 108.25041819 36.10058213 41.83246710
v 108.23768850 36.11994658 40.97011658
v 109.01046461 37.11031766 41.83246710
v 109.32139094 37.54049488 41.83246710
v 109.72505225 38.16985116 40.97011658
v 109.66504892 38.16985116 40.10776606
v 110.00688691 38.65811917 40.10776606
v 110.27599446 39.08829639 40.10776606
v 110.70874743 39.78542955 40.10776606
v 110.93239877 40.28338107 39.24195291
v 110.90876195 40.31934399 38.77095045
v 111.61971217 41.45218633 39.24195291
v 111.86154547 41.88236098 39.24195291
v 110.87966771 40.37052239 38.19605139
v 112.17974664 42.48128759 39.24195291
v 112.51613235 43.13554158 39.24195291
v 112.73614369 43.56710051 39.24195291
v 112.68886749 43.65562482 38.38306629
v 112.94888533 44.20613902 38.38306629
v 113.49437269 45.49389956 37.93630731
v 113.61983419 45.90194377 37.59690755
v 110.13053099 46.16890099 25.70063242
v 109.98688752 46.48288764 25.12573239
v 109.99961464 45.59348909 25.96730301
v 109.87233314 45.90056078 25.42703529
v 109.27957215 45.29471792 24.82096590
v 109.12865127 45.59902234 24.24606587
v 107.52855571 43.64870858 23.16899402
v 107.66129205 44.23656998 22.87115437
v 108.07949791 45.05680738 22.86422785
v 109.13774354 44.72069030 25.09456302
v 108.40860878 44.46203102 23.98285870
v 108.11586442 44.18677457 23.70579831
v 108.22314395 45.68478067 22.58024094
v 108.21768910 46.12602183 22.20967277
v 108.19041486 46.63918882 21.76983968
v 107.47218723 45.46485159 21.53433845
v 107.31763406 45.92960746 20.91787926
v 106.71577823 45.27811945 20.52653185
v 106.86669655 45.93652370 20.25293472
v 106.65941233 46.22976162 19.75076289
v 107.25944816 46.73048041 20.25986125
v 107.36672770 47.41516535 19.96202129
v 106.71941565 47.81076007 18.79836818
v 108.24678077 49.94503999 19.72305679
v 105.79572380 47.09011349 18.03298902
v 105.93391242 47.65445889 17.86328978
v 105.70480881 48.14272946 17.28492617
v 106.17210830 48.49267775 17.67281096
v 106.58486188 47.23534945 18.98538373
v 106.40666933 47.57561680 18.52823432
v 107.29581467 49.94503999 18.37238813
v 107.43036844 49.94503999 18.55940368
v 105.83390773 48.71814008 17.13254324
v 106.40303191 49.37931031 17.48925867
v 106.74305247 49.37931031 17.92216525
v 97.24065608 49.94503999 8.69952068
v 97.55522240 49.94503999 8.91770560
v 96.96791369 49.37931031 8.72722678
v 96.51697617 48.61716756 8.72376416
v 96.51697617 48.40000446 8.81380900
v 96.51697617 47.85087325 9.05623611
v 96.51697617 46.89369783 9.50299638
v 96.51697617 46.10942336 9.87702748
v 96.51697617 45.92960746 9.96707231
v 96.51697617 45.49528255 10.18871985
v 96.51697617 45.19236112 10.34456604
v 96.51697617 44.90742244 10.50387613
v 96.51697617 43.94886403 11.05799690
v 96.51697617 43.48410816 11.33505664
v 96.51697617 43.20331845 11.50475588
v 96.51697617 42.48405358 11.96536920
v 96.51697617 41.65966592 12.50909954
v 96.51697617 41.41760640 12.67187354
v 96.51697617 40.90997137 13.02858768
v 96.51697617 40.62779738 13.23984607
v 96.51697617 40.19485675 13.57231931
v 96.51697617 40.05515404 13.67967981
v 96.51697617 38.97902206 14.53856643
v 96.51697617 38.32476936 15.08576068
v 96.51697617 38.14771816 15.24160686
v 96.51697617 37.46580048 15.87191878
v 96.51697617 37.34269623 15.98966971
v 96.51697617 36.46574589 16.84162981
v 96.51697617 36.32742617 16.97669706
v 96.51697617 35.81564216 17.49618520
v 113.57801283 46.16198475 36.65836653
v 113.47073587 46.41372778 35.48432364
v 113.52346435 46.28923925 36.05922270
v 113.41436740 46.54928152 34.93366549
v 113.15616955 45.93099045 34.93366549
v 112.96524988 45.93099045 34.06785363
v 112.70705203 45.32238161 34.06785363
v 112.51431236 44.89220696 34.06785363
v 111.73062912 43.85480646 32.93536860
v 111.30878584 43.34163818 32.34315258
v 111.06331511 43.34302117 31.53275100
v 110.98149240 43.63072712 30.83317383
v 111.15059268 44.14804438 30.57342976
v 110.92694392 44.59620177 29.26778352
v 110.80875469 44.82719607 28.69288317
v 110.95240073 45.40260797 28.35002143
v 111.07058996 45.94205567 28.04871821
v 110.96149043 46.23806085 27.46689133
v 110.82875666 45.66265024 27.77512108
v 109.99779721 44.73313851 26.84696921
v 110.13053099 45.30855041 26.54220304
v 108.01403974 35.81564216 41.45497209
v 107.99585777 35.81564216 40.96319005
v 107.93221702 35.81564216 40.10776606
v 108.20677941 36.16282447 40.10776606
v 108.52498058 36.59300168 40.10776606
v 108.55588967 36.55150680 40.97011658
v 108.98864522 37.14213161 40.97011658
v 109.30139154 37.57230883 40.97011658
v 109.26866246 37.61656970 40.10776606
v 109.22684110 37.67604862 39.24195291
v 109.19592944 37.71754351 38.68090561
v 109.16138292 37.76733892 38.10600655
v 109.95415843 38.73419656 39.24195291
v 110.18689946 39.24598057 38.38306629
v 110.23417567 39.16437121 39.24195291
v 110.66692865 39.85182342 39.24195291
v 110.66147380 39.97769365 38.44194241
v 111.56880111 41.54486090 38.38306629
v 111.81063441 41.97503555 38.38306629
v 112.08883165 42.48128759 38.38306629
v 111.77972275 42.03174721 37.87743120
v 110.48691610 39.89608430 37.52071577
v 110.83421150 40.45213175 37.52071577
v 112.47612842 43.22406590 38.38306629
v 112.65250355 43.72616896 37.80123942
v 112.80523929 44.14527839 37.51378925
v 112.61068219 43.81884225 37.22634036
v 113.45255133 45.59348909 37.36140696
v 109.88142541 45.04020891 26.27553244
v 109.29048185 44.43298435 25.66946305
v 109.45230729 45.03190967 25.40971898
v 108.25769046 43.88800340 24.26684545
v 107.67401917 43.35270468 23.74389420
v 107.35218058 43.07329797 23.46683382
v 106.60304385 42.03313020 23.27289174
v 106.42121645 42.33051838 22.69799155
v 106.59758901 42.90454729 22.42093149
v 106.72668793 43.34855442 22.20967277
v 106.58122446 43.78979557 21.57936086
v 107.34490830 43.96961147 22.59409399
v 107.50491632 44.54502337 22.35166623
v 107.45946011 44.62939871 22.20967277
v 106.55577022 44.70409183 20.75856981
v 105.81754319 43.62242789 20.57155394
v 105.96118666 44.24071895 20.28064083
v 105.61571125 43.97791071 20.00011718
v 105.77572183 44.55332261 19.78193226
v 106.50849401 45.65434972 19.95509476
v 105.72117335 45.51879598 18.99231026
v 105.54298080 45.85491434 18.52130779
v 105.65571518 46.51470159 18.21654195
v 106.47758235 46.79134103 19.13084077
v 106.79396610 46.79134103 19.56374734
v 104.85202998 46.39574632 17.27453702
v 105.58661958 47.65445889 17.43038321
v 104.99203860 46.96977394 17.10830040
v 104.88839392 48.04867061 16.36716408
v 104.99385602 48.51619375 16.24248726
v 106.82305776 49.94503999 17.74553948
v 105.97209636 49.37931031 16.96284401
v 104.62837864 48.51619375 15.80958069
v 104.77384211 49.17459671 15.63988081
v 105.61207640 49.37931031 16.52993743
v 105.71208108 49.85374841 16.41218650
v 105.83027031 49.94503999 16.51262112
v 106.51212887 49.94503999 17.35072816
v 98.16253051 49.94503999 9.35061281
v 98.07707294 49.61998812 9.41641416
v 97.91887979 49.04457622 9.53070248
v 96.65880479 48.48991177 8.87268382
v 97.33157364 48.51619375 9.33329714
v 97.17156306 47.98642699 9.44758417
v 96.98246081 47.41239937 9.57918816
v 97.20610957 46.21731341 10.28569121
v 96.69880615 45.92960746 10.08482197
v 97.00064278 45.64190151 10.42768435
v 96.69880615 45.02084446 10.56621486
v 96.66062221 44.24348494 10.98873164
v 96.93882203 43.98344396 11.34198317
v 97.33339107 43.50347261 11.91688352
v 97.09337519 42.92806200 12.09004666
v 96.61152858 41.69562884 12.55412260
v 97.22065669 41.92800741 12.85542583
v 96.96427627 41.35259551 13.05975769
v 96.72062554 40.71078973 13.33681743
v 97.05337383 40.38712086 13.84937905
v 97.12974170 39.44516220 14.64939084
v 96.60243631 39.10766084 14.50047118
v 96.83881477 38.86975030 14.88142881
v 97.18792760 38.52395099 15.45632852
v 96.88245355 37.94853909 15.72299912
v 96.89336325 37.06882277 16.57149659
v 97.22792896 36.76866732 17.14639629
v 96.89881809 36.19325542 17.43038321
v 96.69698872 35.81564216 17.64856812
v 113.39436800 45.73042711 36.65836653
v 113.34163438 45.97386962 35.78216296
v 112.78160247 45.03605993 34.96137159
v 112.59068023 44.72760525 34.69123837
v 111.79972472 43.71233648 33.51026895
v 111.56334626 43.39281658 33.21589225
v 111.43788476 43.36791887 32.78298504
v 112.18156664 44.20613902 34.06785363
v 110.99421952 42.75654405 32.34315258
v 110.92512649 42.88103257 31.85483380
v 111.19968888 42.91976276 32.78298504
v 110.82875666 43.05531650 31.27993410
v 110.05416312 42.88656582 29.28856245
v 110.45418701 43.34163818 29.75610230
v 110.79057272 43.99589217 29.75610230
v 110.17416977 43.37345213 28.95609050
v 110.08689221 43.68328851 28.34655817
v 110.23053825 44.20475603 28.04871821
v 110.11780387 44.49107899 27.41840629
v 109.85051375 44.20475603 27.14480917
v 109.26866246 43.61412865 26.54566630
v 109.44321759 44.17017610 26.27899571
v 107.83402976 35.81564216 39.24195291
v 108.15586578 36.22506937 39.24195291
v 108.48134180 36.65524659 39.24195291
v 108.91227478 37.24448841 39.24195291
v 108.91591220 37.38004215 38.38999282
v 109.89960995 38.81580592 38.38306629
v 109.42139820 38.10069130 38.38999282
v 108.37042484 36.81016478 37.52071577
v 108.73771965 37.30811630 37.52071577
v 109.11774157 37.83234980 37.52071577
v 110.12689614 39.33865643 37.52071577
v 111.95246046 42.43149218 37.56227493
v 112.45249161 43.40111581 37.51378925
v 111.07786223 40.88368939 37.52071577
v 111.54152687 41.69424585 37.56227493
v 111.73426397 42.11058929 37.30253085
v 110.07416508 39.41611424 36.90772017
v 110.02507145 39.49495761 36.33282111
v 110.28872415 39.82692443 36.63412305
v 111.00876664 41.00956219 36.65836653
v 111.35424205 41.62093701 36.65836653
v 110.75602364 40.57800197 36.65836653
v 112.56340599 43.91428410 36.65836653
v 112.76523793 44.34722601 36.65836653
v 113.09798622 45.06787388 36.65836653
v 112.95252018 45.06787388 35.79601601
v 109.13047126 43.85757244 25.97076628
v 108.40860878 43.61136267 24.84520874
v 108.10313473 43.33195595 24.56814835
v 108.24496334 43.03733376 25.14997491
v 108.08131534 42.48267059 25.44088834
v 107.65038235 42.50756829 24.62009730
v 106.73032535 41.83118258 23.71965136
v 107.50128147 41.97780282 24.93178999
v 105.84845228 41.02201168 23.10665561
v 106.13574436 41.66519917 22.90232342
v 106.46121781 41.40100793 23.71965136
v 105.84663486 41.87129576 22.25123193
v 105.83572516 42.74686182 21.39927152
v 105.64662291 43.04701727 20.82783475
v 106.44485327 44.12867992 21.08065230
v 107.04488910 44.16740883 21.96378175
v 106.74305247 44.36520748 21.33346984
v 105.34478628 43.27386131 20.21483883
v 104.86111968 42.92667772 19.85119752
v 105.04294965 43.50208962 19.62262281
v 104.81566347 43.86448869 19.04772246
v 105.29933007 44.20890500 19.41136378
v 104.93203527 45.39430874 18.03645228
v 105.07567874 45.92960746 17.85636325
v 104.72474848 45.92960746 17.42691994
v 104.24471930 46.00015031 16.83470328
v 104.02107054 46.33626868 16.37755387
v 103.75559785 46.79134103 15.80958069
v 104.06834417 47.96982852 15.46325504
v 104.74838530 47.47326000 16.53340070
v 104.19744309 48.51619375 15.31779865
v 104.89566876 49.74862434 15.49788767
v 105.13568207 49.42910572 15.94118403
v 105.64662291 49.94503999 16.29097294
v 98.79347801 49.94503999 9.81468875
v 98.89348527 48.84124561 10.30993341
v 97.76250662 48.51619375 9.63806299
v 98.72620241 48.26583371 10.43114825
v 98.15162082 47.80522810 10.22681639
v 97.39521182 46.79134103 10.15062460
v 97.96797599 47.22981620 10.35841909
v 97.82432995 46.79134103 10.46578088
v 97.58431407 45.86321358 10.74976715
v 97.96433856 45.51049803 11.22423352
v 97.36430273 45.06648961 11.02336427
v 97.16974306 44.55747158 11.17228393
v 97.90797009 43.85480646 12.12467929
v 97.58795149 43.26694506 12.24935547
v 98.04797871 42.82570391 12.87966802
v 97.52067332 42.51586752 12.68572530
v 97.79523571 42.25029330 13.08399989
v 97.89706039 41.27513642 13.86669472
v 97.32066395 40.96114977 13.63119413
v 97.98615796 40.31381202 14.65631737
v 98.04070643 39.39398380 15.46671831
v 97.76432662 38.81857190 15.71607259
v 98.65710681 38.78814094 16.55071701
v 98.08070780 38.49490303 16.29097294
v 97.48794423 38.22102956 16.00698603
v 97.21156442 37.64423467 16.29789947
v 97.50794620 37.34131324 16.85201959
v 97.80251055 37.03977480 17.40960363
v 97.51521847 36.47128043 17.70744359
v 97.22611154 35.91523298 18.00528291
v 97.00064278 35.81564216 17.91177546
v 112.65068355 44.59620177 35.26613872
v 111.72335428 42.99998784 34.71201795
v 111.86700032 43.57954872 34.06785363
v 112.41976252 44.26699965 34.96137159
v 111.64698641 43.14798979 34.06785363
v 111.29969357 42.48128759 34.06785363
v 110.02688888 41.21980775 31.96912084
v 111.03422345 42.61407535 32.78298504
v 110.92148907 42.02206498 33.57607159
v 110.84330120 42.16315197 33.00117124
v 110.18871689 41.79383666 31.48080206
v 110.09234705 41.96673632 30.90243909
v 110.26508476 42.44670766 30.61498891
v 111.07786223 42.46330613 33.25745140
v 110.13780583 42.74271285 29.75610230
v 109.14138096 41.25300469 29.42709297
v 109.29593670 41.86023054 28.89028915
v 109.72868967 42.55321344 28.95609050
v 109.93961131 43.10787790 28.71366275
v 109.99415979 42.13686999 30.32753874
v 109.89233511 42.31391991 29.75610230
v 109.96870298 43.91566709 27.77512108
v 109.39775881 43.33333894 27.17597854
v 109.79778527 43.37345213 28.04871821
v 109.10683188 43.03871803 26.89545489
v 108.52861543 42.48267059 26.32055454
v 107.70856568 35.81564216 38.28609493
v 108.09586245 36.29561222 38.38306629
v 108.43224560 36.72717243 38.38306629
v 107.59037646 35.81564216 37.52071577
v 108.32860349 36.86272617 37.03239764
v 107.61219585 35.81564216 37.65924629
v 108.55588967 37.25832089 36.71031483
v 109.03773885 37.94438755 36.65836653
v 109.33230063 38.37456477 36.65836653
v 109.80869496 39.08967938 36.63412305
v 111.91609395 42.64035605 36.65836653
v 112.27975390 43.34302117 36.65836653
v 111.68153549 42.21156310 36.65836653
v 109.97234040 39.57933295 35.79601601
v 109.25411534 38.49352004 35.79601601
v 109.20320171 38.56821186 35.25921091
v 110.94876331 41.11468497 35.98995744
v 111.14877525 41.54486090 35.74060380
v 110.23781052 40.01089059 35.79601601
v 110.89603226 41.20597655 35.41505838
v 112.48703812 44.06781930 35.79601601
v 112.69614233 44.49937694 35.79601601
v 108.23405365 42.19634763 26.04349447
v 108.39588166 42.77037654 25.72487526
v 107.61947069 41.66243318 25.50669002
v 106.58486188 41.20182629 24.16641115
v 106.01755514 40.74398667 23.71965136
v 105.64480548 40.44659978 23.43566461
v 104.86293967 39.47697615 23.30406095
v 105.47024778 40.74398667 22.83305848
v 105.66117003 41.29588386 22.53175558
v 105.79208638 41.82703360 22.20967277
v 105.46843036 42.46883810 21.12221145
v 104.88112164 42.03589618 20.68584129
v 105.03203996 42.48405358 20.48497269
v 105.65389518 42.17144992 21.67633190
v 104.39200019 41.69286285 20.33258977
v 103.89924389 41.34844654 19.97933760
v 104.09380098 41.92247416 19.73344658
v 103.86469737 42.26550877 19.15508361
v 104.05743447 42.84091939 18.91611912
v 103.82833086 43.19225324 18.34121877
v 104.01197827 43.76766385 18.10918080
v 104.98658375 44.43990059 18.82953754
v 104.76111499 44.81889684 18.25463720
v 103.78650951 44.20475603 17.51696478
v 103.94652009 44.73728748 17.32648532
v 104.11925780 45.31269938 17.13254324
v 103.86105995 45.76085678 16.55764354
v 103.02828308 45.70829539 15.66066039
v 103.18829110 46.28370600 15.48057136
v 102.91736613 46.79134103 14.90567101
v 103.07010187 47.37090191 14.74636220
v 103.21738533 47.94631381 14.59397864
v 103.79196435 48.51619375 14.89181796
v 103.93379040 49.11926805 14.74289830
v 105.37024310 49.94503999 15.96542687
v 104.05561705 49.69467995 14.61475822
v 104.53200881 49.94503999 15.01649542
v 104.93749012 49.94503999 15.45632852
v 99.20259417 49.94503999 10.12638112
v 99.02803904 49.37931031 10.20603681
v 99.45897459 49.37931031 10.54197266
v 99.81899455 48.71675709 11.11340911
v 99.27896461 48.49129476 10.77401063
v 99.66625881 48.14134519 11.24154919
v 99.08622494 47.65445889 11.01297513
v 98.91712466 47.09426246 11.15150436
v 98.42254836 47.57284953 10.53504614
v 98.42618321 46.80102455 10.91946639
v 98.15707567 46.08590864 11.07184995
v 98.12071173 44.43021708 11.96190658
v 97.79705571 45.06648961 11.34890970
v 99.51716049 45.92960746 12.22164937
v 98.90621496 45.39984071 12.02424403
v 98.69529075 44.82581308 12.18701802
v 98.40618381 44.16740883 12.34286421
v 98.84075422 43.76489787 12.93508023
v 98.36072503 43.42324753 12.75499056
v 98.62256030 43.18948597 13.12555904
v 98.95530859 42.76484328 13.70045939
v 98.82257225 41.20320928 14.67709695
v 98.62074288 40.75920215 14.85025880
v 98.88984785 40.26678260 15.47364483
v 98.61528803 39.69137069 15.72299912
v 99.54625216 38.76877649 17.40267710
v 98.96985314 38.46585506 17.12907998
v 98.37890957 38.19336459 16.84162981
v 97.78614601 37.91949113 16.55764354
v 98.10252719 37.61518671 17.13254324
v 98.67892621 37.89044316 17.39921384
v 98.10434718 36.74930287 17.98796724
v 97.80069056 36.17527396 18.28926982
v 97.31520910 35.81564216 18.20615216
v 111.78336017 42.88103257 35.28691701
v 112.11974332 43.34302117 35.79601601
v 111.54516429 42.54906446 34.97522464
v 111.09240935 41.72467680 34.93366549
v 110.98876467 41.90587569 34.06785363
v 109.27593473 40.18517324 31.63664889
v 109.50503834 40.67759279 31.40114765
v 109.94324874 41.36227774 31.48080206
v 110.47782640 41.62093701 32.78298504
v 110.10507675 41.08425401 32.54402054
v 109.85051375 40.78271558 32.29120364
v 108.38860681 40.21422120 29.14656932
v 108.27041759 40.40233634 28.56820635
v 109.44503501 41.57390758 29.73185946
v 109.24684306 41.08010504 30.00199332
v 108.96137098 40.77994959 29.73185946
v 109.19774686 42.02068199 28.41582278
v 109.33593806 42.50756829 28.08681410
v 109.81232982 41.65551694 30.61498891
v 108.93409674 42.50756829 27.17597854
v 109.23775079 42.81187271 27.47381786
v 108.36860742 41.96258734 26.61839450
v 107.43400330 35.81564216 36.65836653
v 107.47400723 35.99130780 36.13541577
v 107.41763875 36.06323622 35.56051542
v 108.27223758 36.93741800 36.45749729
v 108.51770574 37.46441749 35.79601601
v 108.94864129 38.06195982 35.79601601
v 111.60698505 42.35818206 35.79601601
v 111.83245380 42.78974099 35.79601601
v 109.41048850 38.98455660 34.95444635
v 109.88142541 39.72733362 34.93366549
v 108.10858958 37.16426461 34.93366549
v 108.89227538 38.23624504 34.95444635
v 109.13774354 38.66365371 34.68431185
v 108.20495941 37.03285985 35.79601601
v 110.51601033 40.75781916 34.93366549
v 110.84330120 41.29450087 34.93366549
v 107.47764208 41.15617986 25.83569935
v 108.03404170 41.65274967 26.32055454
v 106.74487247 40.96253276 24.74131117
v 106.55213280 40.38850385 25.08763650
v 106.37939509 39.87671984 25.40279245
v 105.95755181 39.91268277 24.62356056
v 105.77753926 39.40228175 24.93525325
v 104.07198159 38.52533398 23.19323686
v 104.27017611 39.05094791 22.88847069
v 104.71565621 39.68030676 22.85730132
v 105.02840254 40.11048141 22.85730132
v 105.03567738 39.24598057 23.87896097
v 104.70111166 38.98870557 23.64345974
v 104.88112164 40.31519501 22.41400496
v 104.96476436 40.62641439 22.20967277
v 104.89021391 41.16448038 21.53780171
v 105.01385799 41.69839611 21.20186618
v 104.11380295 41.03999314 20.55077436
v 104.68838197 41.46186856 20.96290168
v 103.61377180 40.71078973 20.22522862
v 103.10646838 40.38020590 19.89275603
v 103.32466486 40.95561780 19.62608607
v 103.08283156 41.27651941 19.05118572
v 103.59376984 41.60018828 19.39058484
v 103.25374927 42.76069431 17.98104072
v 103.51376711 43.44122900 17.75939189
v 103.20102079 43.68882176 17.19488197
v 103.11374065 44.68887635 16.42603955
v 103.28647836 45.26428825 16.23556073
v 102.45188407 45.23385729 15.34896801
v 102.17186683 45.68339768 14.77753093
v 102.68462510 45.98355184 15.13078310
v 102.34460453 46.25742659 14.60783169
v 102.48643058 46.79134103 14.46583856
v 102.35551423 47.94631381 13.73162812
v 103.36102880 48.51619375 14.45198550
v 103.07192187 49.11097010 13.87708515
v 103.05919217 49.94503999 13.48573709
v 103.41012243 49.94503999 13.84245253
v 104.10653068 49.94503999 14.55934601
v 99.59716578 49.94503999 10.43114825
v 100.09537694 49.94503999 10.83288546
v 99.98991483 49.37931031 10.97487859
v 100.41903296 49.37931031 11.33505664
v 101.30999572 49.17874697 12.17316497
v 101.13907544 48.51619375 12.31862073
v 99.84263394 46.97392420 11.95844267
v 99.67353365 46.39851230 12.09697319
v 99.51897792 47.65445889 11.35930013
v 100.58267839 48.04590463 12.05887665
v 98.72983983 46.52023355 11.29696140
v 99.82808682 45.30993340 12.82771972
v 99.26441749 45.06787388 12.50909954
v 99.00076480 44.20475603 12.80347624
v 99.62444002 44.73590449 13.00434549
v 99.43170035 44.20475603 13.17058082
v 99.74626410 43.70680323 13.75933422
v 99.52988761 43.13139132 13.94981303
v 99.85899848 42.71089890 14.52471338
v 99.62989487 42.13686999 14.72558263
v 99.70444274 41.17969586 15.51866725
v 99.21168644 40.83942851 15.32472517
v 99.46624686 40.60428396 15.75416848
v 99.75899122 40.25571609 16.32906883
v 99.80081258 39.34418839 17.14985956
v 100.62995460 40.24880113 17.18449219
v 100.37721160 39.67338923 17.44423626
v 100.10083178 39.06616595 17.71090686
v 99.82444940 38.46447207 17.97757745
v 99.25896265 38.17814911 17.69012728
v 98.97349056 37.60412020 17.97757745
v 98.67892621 37.02871087 18.27541677
v 98.95712602 36.75898638 18.85031712
v 98.65710681 36.18357448 19.16201014
v 98.08252779 35.91661597 18.86417017
v 97.88069585 35.81564216 18.77412534
v 110.73965909 41.47431677 34.06785363
v 109.38503169 40.01780812 32.34315258
v 109.09955960 39.58624791 32.34315258
v 108.31587636 38.60417479 31.91370927
v 108.40860878 39.33035591 30.79161468
v 109.17411005 40.33594246 31.06174854
v 109.36139487 40.89752187 30.61845218
v 110.13780583 41.03169262 32.78298504
v 109.93233904 40.50745912 33.20896572
v 109.89415510 40.63471491 32.78298504
v 108.07768048 39.91544875 28.87297220
v 108.50497861 40.03993856 29.75610230
v 108.22132395 39.60837835 29.75610230
v 107.50128147 39.39951577 28.35694796
v 107.69220114 39.88640336 28.05564473
v 107.56310222 40.16580879 27.36992061
v 108.14859351 40.59321745 28.03140189
v 108.19223229 41.38717544 27.00974192
v 108.32133121 41.18107885 27.58464227
v 108.41951847 41.02339467 28.03140189
v 108.46133983 41.65274967 27.24870641
v 109.07410279 42.23784380 27.84092308
v 107.24672104 35.81564216 35.71982423
v 107.07761819 35.81564216 34.97176202
v 107.34672573 36.15037754 34.93366549
v 107.67947402 36.58193518 34.93366549
v 109.34503033 39.21416662 34.06785363
v 110.07961993 40.26678260 34.35530252
v 109.80687497 39.94449671 34.06785363
v 108.35406030 37.68987853 34.36915557
v 108.58498391 38.12005575 34.07824149
v 109.05592082 38.78399197 34.06785363
v 110.27781445 40.70802375 34.06785363
v 107.59401388 40.98051422 26.30323855
v 106.51576629 39.57518141 26.02271490
v 106.70850596 40.15059331 25.66253652
v 105.92300273 39.20586867 25.44781487
v 105.72844563 38.60694077 25.88418470
v 104.81930089 38.67195166 24.23913935
v 103.25374927 37.61380371 23.13782465
v 103.56286074 38.18921562 22.87808090
v 103.87015222 38.77430846 22.61833683
v 104.19198825 38.21134605 23.80623277
v 104.01197827 37.73829095 24.14909483
v 103.82833086 37.94992208 23.57419481
v 103.00828112 37.03839181 23.50839297
v 104.09743841 39.34972036 22.30318087
v 104.21744506 39.60146339 22.20967277
v 104.10653068 40.19485675 21.42005109
v 104.39745504 40.81452952 21.19147639
v 103.90469873 40.46596423 20.84515106
v 102.30278318 39.44239622 19.82002815
v 102.28823606 40.32210997 18.97153068
v 102.91554870 40.70387477 19.36634200
v 103.32829972 40.09526593 20.46419311
v 103.10465095 39.51985403 20.75856981
v 102.30096575 38.58342734 20.67891477
v 102.26641667 41.21427579 18.13688690
v 102.77917494 41.53241141 18.46935885
v 103.05010248 42.18528241 18.23039436
v 103.28829836 41.85054832 18.80529470
v 102.47370346 41.78968769 17.89445914
v 102.07731442 41.55039287 17.63817834
v 102.22459788 42.13548700 17.31955879
v 103.00828112 43.11340986 17.40614037
v 102.68098768 43.39143359 16.85548286
v 102.35551423 43.66807432 16.31521578
v 102.27005409 44.65844539 15.54291009
v 102.96100491 44.20475603 16.58881226
v 101.93367095 44.94476835 15.01649542
v 101.40818299 44.65567941 14.67709695
v 101.59546781 45.23109131 14.50393380
v 101.28817633 45.71659462 13.92903346
v 101.46455146 46.29062353 13.76626074
v 101.60819493 46.79134103 13.62773023
v 101.49000570 47.96706254 12.87966802
v 102.20277849 47.37228619 13.88401168
v 102.06094987 48.51619375 13.16019167
v 102.92827583 48.51619375 14.01907829
v 102.20641334 49.11511908 13.01819854
v 102.82645114 49.94503999 13.25716303
v 100.43357750 49.94503999 11.10994520
v 100.53722218 49.85098114 11.23462266
v 101.44636692 49.75415759 12.05541403
v 101.82639142 49.43463897 12.53334302
v 101.63001432 48.51619375 12.75152794
v 100.66450111 49.94503999 11.30388792
v 101.23544528 49.94503999 11.79220606
v 100.12810602 46.72909741 12.32208463
v 100.57904354 46.32520346 12.92468980
v 100.11901375 45.99461706 12.69957835
v 100.41539553 47.47049273 12.20086979
v 100.40266841 45.75117455 13.08399989
v 100.71359474 45.26290397 13.65890024
v 100.52267507 44.68749336 13.83552600
v 100.64450171 43.65147585 14.58705211
v 100.08992209 43.39143359 14.26843322
v 100.43539750 43.07606395 14.78099483
v 100.18447193 42.41212773 15.04073762
v 100.51176537 42.11335656 15.57407946
v 100.57540612 41.17001235 16.37409061
v 100.33539024 40.59598601 16.60959184
v 101.44091207 41.16586337 17.23297787
v 101.20453619 40.59045147 17.48579541
v 101.47000631 40.26954858 18.06069512
v 100.92451895 39.97077870 17.75246601
v 100.64813657 39.36216985 18.01913596
v 100.39721356 38.78814094 18.29273309
v 100.65722884 38.49490303 18.86763344
v 100.10992148 38.19198160 18.56979347
v 99.54988958 37.88906017 18.27195351
v 99.53170504 37.04115780 19.14815708
v 99.80445000 36.76866732 19.72305679
v 99.23168841 36.47681240 19.44253314
v 99.50806822 36.19325542 20.04167633
v 98.93348920 35.92629691 19.73690984
v 98.17344021 35.81564216 19.07196530
v 110.19598916 40.93901933 33.20896572
v 109.25047792 39.35802088 33.39251801
v 109.16865520 39.48250812 32.81761895
v 108.84136176 39.01083601 32.78298504
v 108.97591553 39.05509945 33.14662699
v 108.44315529 38.42436017 32.78298504
v 108.12313669 38.18644963 32.25657101
v 107.53764798 37.63316817 31.68167130
v 107.78675355 38.10345728 31.42885376
v 108.23950849 38.71898108 31.48080206
v 108.30496667 39.48250812 30.21671497
v 110.00688691 40.38573787 33.78040217
v 107.61947069 39.23906561 28.89028915
v 108.12131927 39.03850098 30.54918756
v 107.77038901 38.97763907 29.72493293
v 106.71941565 38.42850915 28.18724872
v 107.04488910 39.00530404 27.98637947
v 106.79396610 39.18511865 27.16905201
v 107.36854512 39.59039688 27.78204761
v 107.30672437 38.80750540 28.89028915
v 106.50849401 37.85309725 28.65132466
v 106.65759233 39.37046780 26.59761493
v 107.42673102 40.37052239 26.79502027
v 106.84123973 35.81564216 34.06785363
v 107.23217392 36.29699521 34.06785363
v 107.56855707 36.72855543 34.06785363
v 108.03767655 37.36344368 34.07824149
v 108.19586971 37.90980761 33.20896572
v 108.50316119 38.34136783 33.20896572
v 106.19574769 38.98732258 26.23743655
v 105.87390909 38.41744265 26.45215821
v 105.07204389 37.48793091 26.30323855
v 104.92839785 37.66636511 25.78028714
v 104.76111499 37.88076222 25.20192385
v 104.98658375 38.45479113 24.81403937
v 104.60292440 38.16846817 24.55083236
v 102.43551952 36.70919097 23.07894950
v 102.74099100 37.27906834 22.81920543
v 103.05010248 37.85309725 22.56292462
v 103.27375124 38.41467666 22.20967277
v 103.08646641 38.67748362 21.64516254
v 104.44109639 37.30811630 25.44435161
v 104.14289461 37.57645780 24.58546467
v 103.94652009 36.95125049 25.11187934
v 103.78105466 37.14489759 24.58546467
v 102.68280510 36.47957838 23.77160015
v 103.19011109 36.82676325 24.08329300
v 103.88833419 39.62082784 21.72481726
v 102.06640472 38.86698432 20.10401506
v 101.49182570 38.52533398 19.76115268
v 101.77547779 39.13117427 19.50487187
v 102.09186154 40.75920215 18.34121877
v 102.92282098 38.99285455 21.08065230
v 102.78099493 38.09653976 21.90490661
v 102.26459924 37.76318994 21.58975065
v 102.08822411 37.95822003 21.13260092
v 101.46818631 37.69126153 20.64428246
v 101.76820552 38.26667343 20.37761154
v 102.43369953 42.70951591 17.09791061
v 102.15731971 43.09266242 16.52301091
v 101.30635830 43.07468096 15.64680733
v 101.50455282 43.65009286 15.44247547
v 100.97724743 43.36238691 15.11000288
v 100.82814912 44.20475603 14.41388897
v 101.14635029 46.79134103 13.19828692
v 101.32272285 47.39303363 13.03551421
v 100.71541474 46.79134103 12.80347624
v 102.33914969 49.69053098 12.89352107
v 102.39369816 49.94503999 12.83810887
v 101.93003353 49.94503999 12.41559209
v 101.49000570 49.94503999 12.01731750
v 100.73177928 42.68876718 15.35589454
v 101.37363647 42.11750554 16.43989260
v 101.58455811 42.69291744 16.22170768
v 101.22271816 39.69413668 18.33429224
v 101.23181043 38.81995489 19.18625233
v 100.39357614 37.91949113 19.16547340
v 99.81717712 37.61518671 18.84685386
v 100.64995656 37.64423467 19.74037311
v 100.37902902 37.06882277 20.04860286
v 100.62631717 36.80601324 20.62003962
v 100.07537497 36.50032582 20.33258977
v 99.77353834 35.94428095 20.61311310
v 99.03531131 35.81564216 19.96894781
v 108.16314062 38.03291443 32.78298504
v 107.64310751 37.49484844 32.34315258
v 107.30672437 37.06329080 32.34315258
v 106.51031144 36.11856359 32.17345334
v 106.39030479 36.27209879 31.48080206
v 106.73032535 36.70227344 31.48080206
v 107.20671711 37.33162973 31.42885376
v 107.43218587 37.77148789 31.10677095
v 107.64856236 38.33168431 30.61845218
v 107.41582133 38.65397020 29.41670318
v 106.63395551 37.68434657 29.22622436
v 107.52855571 38.49905200 29.99160288
v 106.40485190 38.15325269 27.95174685
v 106.58486188 38.61109232 27.61234837
v 106.47939978 38.75356101 27.16905201
v 106.17392830 37.29566681 28.86604567
v 105.70662624 36.90560405 28.51279414
v 105.93209500 37.48516493 28.03140189
v 106.58486188 35.81564216 33.20896572
v 106.67213945 35.92076495 33.20896572
v 107.49218920 36.83229522 33.52412200
v 106.60668128 35.99822533 32.78298504
v 107.68492887 37.38004215 32.78298504
v 106.02482741 38.14633516 27.17597854
v 105.65026033 37.84203074 26.89545489
v 104.85020998 36.90283807 26.77424101
v 104.72656591 37.05637327 26.30323855
v 104.12471265 36.74515390 25.68677936
v 102.17004940 36.13377907 23.45990729
v 101.91003156 36.38552210 22.78457280
v 102.22459788 36.94294997 22.50404947
v 102.47370346 37.51836187 22.16465068
v 103.62104407 36.39796902 25.37854961
v 102.35733166 35.93598043 24.03480748
v 101.22635558 37.95130507 20.07284570
v 101.61183235 37.36620966 21.21225596
v 101.20271619 37.11585219 20.98368126
v 101.42454753 36.87379011 21.55858129
v 100.88815244 36.55288979 21.26074132
v 100.34629994 36.23198433 20.96636494
v 99.52988761 35.81564216 20.50228901
v 100.57540612 35.99960832 21.54126497
v 99.89354756 35.81564216 20.92480579
v 107.40309420 36.94433296 32.94922165
v 107.37763739 36.97752990 32.78298504
v 106.82487519 36.42148502 32.41241784
v 106.30120722 35.81564216 32.29120364
v 106.02300998 35.81564216 31.48080206
v 105.98482605 35.81564216 31.37690481
v 106.52122114 36.96646597 30.36909789
v 106.62850067 36.82814624 30.94399824
v 106.40485190 37.11723519 29.75610230
v 106.73759762 37.54879283 29.75610230
v 107.33763603 37.90012667 30.61845218
v 107.20489969 38.19613057 29.72493293
v 105.83572516 36.75068586 29.08769449
v 104.95748951 35.81564216 28.89028915
v 104.89021391 35.99407379 28.42274931
v 105.11568267 36.44776443 28.09374062
v 104.99385602 36.73408739 27.35260430
v 105.59025701 37.05360729 28.03140189
v 105.79572380 37.65945015 27.47381786
v 106.50485659 35.81564216 32.94229513
v 106.45576296 35.81564216 32.78298504
v 106.39212221 35.81564216 32.57865446
v 104.02834281 35.99545935 26.70497575
v 104.25017415 36.45191598 26.37250348
v 104.75020529 36.15867549 27.84784960
v 104.62656122 36.44776443 27.10671328
v 103.86651480 36.16974199 26.13007572
v 103.33557456 35.81564216 25.78028714
v 103.29375320 35.85852262 25.64522021
v 103.23192988 35.81564216 25.60712464
v 102.17732168 35.81564216 23.93090992
v 101.97367231 35.81564216 23.62960685
v 101.61910463 35.81564216 23.12743518
v 101.55546645 35.81564216 23.04085361
v 101.37363647 36.06323622 22.48673316
v 101.59546781 36.69535849 21.99495112
v 103.11374065 36.05216971 25.07032018
v 102.46642861 35.81564216 24.38113280
v 100.75723352 35.81564216 22.00880417
v 100.26084237 35.81564216 21.38195520
v 105.73390048 35.81564216 30.73966638
v 105.82663289 35.89586853 30.80546773
v 105.97209636 36.58331817 29.75610230
v 105.61571125 36.15037754 29.75610230
v 105.34478628 35.81564216 29.78380840
v 104.53382881 35.81564216 28.00715905
v 103.77923723 35.81564216 26.54912957
v 104.14834946 35.86128860 27.16905201
v 104.10834810 35.81564216 27.16905201
v 104.46109579 35.81564216 27.86170265
v 103.64104604 35.81564216 26.30323855
v 102.96827719 35.81564216 25.18460754
v 105.59389186 35.81564216 30.39334073
v 105.71389851 36.03695424 30.22710476
f 1 2 3
f 1 3 4
f 1 4 5
f 1 5 6
f 1 6 7
f 1 7 8
f 1 8 2
f 2 8 9
f 2 9 3
f 3 9 10
f 3 10 11
f 3 11 12
f 3 12 13
f 3 13 4
f 4 13 14
f 4 14 15
f 4 15 16
f 4 16 17
f 4 17 18
f 4 18 5
f 5 18 19
f 5 19 6
f 6 19 20
f 6 20 21
f 6 21 7
f 7 21 22
f 7 22 8
f 8 23 24
f 8 24 25
f 8 25 26
f 8 26 27
f 8 27 28
f 8 28 29
f 8 29 30
f 8 30 31
f 8 31 32
f 8 32 33
f 8 33 102
f 8 102 175
f 8 175 170
f 8 170 269
f 8 269 268
f 8 268 359
f 8 359 275
f 8 275 367
f 8 367 366
f 8 366 480
f 8 480 487
f 8 487 486
f 8 486 598
f 8 598 712
f 8 712 715
f 8 715 714
f 8 714 827
f 8 827 826
f 8 826 825
f 8 825 944
f 8 944 1049
f 8 1049 1050
f 8 1050 1051
f 8 1051 951
f 8 951 950
f 8 950 945
f 8 945 829
f 8 829 828
f 8 828 716
f 8 716 599
f 8 599 488
f 8 488 372
f 8 372 371
f 8 371 276
f 8 276 176
f 8 176 103
f 8 103 34
f 8 34 107
f 8 107 35
f 8 35 36
f 8 36 37
f 8 37 9
f 8 22 38
f 8 38 39
f 8 39 40
f 8 40 41
f 8 41 42
f 8 42 43
f 8 43 44
f 8 44 45
f 8 45 46
f 8 46 47
f 8 47 48
f 8 48 49
f 8 49 50
f 8 50 51
f 8 51 52
f 8 52 53
f 8 53 54
f 8 54 55
f 8 55 56
f 8 56 57
f 8 57 58
f 8 58 59
f 8 59 60
f 8 60 61
f 8 61 62
f 8 62 63
f 8 63 23
f 9 37 11
f 9 11 10
f 11 64 65
f 11 65 12
f 11 37 64
f 12 65 66
f 12 66 67
f 12 67 13
f 13 68 14
f 13 67 68
f 14 68 69
f 14 69 70
f 14 70 71
f 14 71 72
f 14 72 73
f 14 73 15
f 15 73 74
f 15 74 75
f 15 75 76
f 15 76 77
f 15 77 78
f 15 78 16
f 16 78 79
f 16 79 17
f 17 79 18
f 18 79 80
f 18 80 19
f 19 80 81
f 19 81 20
f 20 81 82
f 20 82 83
f 20 83 84
f 20 84 21
f 21 84 38
f 21 38 22
f 23 85 86
f 23 86 24
f 23 63 87
f 23 87 85
f 24 86 25
f 25 86 88
f 25 88 26
f 26 88 89
f 26 89 90
f 26 90 27
f 27 90 28
f 28 91 92
f 28 92 29
f 28 90 93
f 28 93 91
f 29 92 32
f 29 32 30
f 30 32 31
f 32 94 95
f 32 95 96
f 32 96 97
f 32 97 33
f 32 92 98
f 32 98 99
f 32 99 100
f 32 100 101
f 32 101 94
f 33 97 102
f 34 103 104
f 34 104 105
f 34 105 106
f 34 106 107
f 35 108 64
f 35 64 36
f 35 107 187
f 35 187 186
f 35 186 280
f 35 280 281
f 35 281 188
f 35 188 108
f 36 64 37
f 38 84 39
f 39 84 109
f 39 109 40
f 40 109 41
f 41 109 110
f 41 110 111
f 41 111 42
f 42 111 43
f 43 111 112
f 43 112 113
f 43 113 114
f 43 114 44
f 44 114 45
f 45 114 46
f 46 115 47
f 46 114 113
f 46 113 115
f 47 115 48
f 48 115 116
f 48 116 49
f 49 116 50
f 50 116 117
f 50 117 51
f 51 118 53
f 51 53 52
f 51 117 118
f 53 119 54
f 53 118 119
f 54 119 120
f 54 120 55
f 55 120 121
f 55 121 122
f 55 122 123
f 55 123 124
f 55 124 56
f 56 124 125
f 56 125 57
f 57 125 58
f 58 125 126
f 58 126 127
f 58 127 59
f 59 127 60
f 60 127 61
f 61 127 128
f 61 128 62
f 62 128 63
f 63 128 129
f 63 129 130
f 63 130 131
f 63 131 132
f 63 132 87
f 64 133 65
f 64 108 133
f 65 133 66
f 66 134 135
f 66 135 67
f 66 133 136
f 66 136 137
f 66 137 134
f 67 135 68
f 68 135 69
f 69 135 134
f 69 134 70
f 70 138 139
f 70 139 71
f 70 134 140
f 70 140 138
f 71 139 141
f 71 141 142
f 71 142 143
f 71 143 144
f 71 144 145
f 71 145 72
f 72 145 73
f 73 145 146
f 73 146 144
f 73 144 147
f 73 147 148
f 73 148 149
f 73 149 150
f 73 150 151
f 73 151 74
f 74 151 76
f 74 76 75
f 76 152 78
f 76 78 77
f 76 151 153
f 76 153 152
f 78 152 154
f 78 154 155
f 78 155 81
f 78 81 79
f 79 81 80
f 81 155 82
f 82 156 157
f 82 157 158
f 82 158 83
f 82 155 156
f 83 158 159
f 83 159 109
f 83 109 84
f 85 87 132
f 85 132 160
f 85 160 161
f 85 161 88
f 85 88 86
f 88 161 162
f 88 162 89
f 89 162 90
f 90 162 93
f 91 93 163
f 91 163 164
f 91 164 165
f 91 165 166
f 91 166 167
f 91 167 92
f 92 167 100
f 92 100 99
f 92 99 98
f 93 162 163
f 94 168 95
f 94 101 100
f 94 100 166
f 94 166 168
f 95 169 170
f 95 170 96
f 95 168 171
f 95 171 172
f 95 172 173
f 95 173 174
f 95 174 169
f 96 170 175
f 96 175 97
f 97 175 102
f 100 167 166
f 103 176 177
f 103 177 178
f 103 178 179
f 103 179 180
f 103 180 181
f 103 181 104
f 104 181 180
f 104 180 182
f 104 182 183
f 104 183 105
f 105 183 184
f 105 184 106
f 106 185 186
f 106 186 187
f 106 187 107
f 106 184 185
f 108 188 133
f 109 159 110
f 110 189 190
f 110 190 111
f 110 159 189
f 111 191 192
f 111 192 193
f 111 193 112
f 111 190 194
f 111 194 191
f 112 193 113
f 113 193 195
f 113 195 196
f 113 196 115
f 115 196 116
f 116 196 197
f 116 197 117
f 117 197 198
f 117 198 199
f 117 199 200
f 117 200 201
f 117 201 118
f 118 201 119
f 119 201 200
f 119 200 199
f 119 199 120
f 120 199 202
f 120 202 121
f 121 203 204
f 121 204 122
f 121 202 205
f 121 205 206
f 121 206 207
f 121 207 208
f 121 208 209
f 121 209 210
f 121 210 211
f 121 211 212
f 121 212 213
f 121 213 214
f 121 214 203
f 122 204 203
f 122 203 123
f 123 215 124
f 123 203 215
f 124 215 126
f 124 126 125
f 126 214 216
f 126 216 127
f 126 215 217
f 126 217 214
f 127 216 218
f 127 218 129
f 127 129 128
f 129 218 131
f 129 131 130
f 131 219 132
f 131 218 220
f 131 220 219
f 132 219 160
f 133 188 136
f 134 137 140
f 136 188 137
f 137 188 221
f 137 221 222
f 137 222 140
f 138 140 223
f 138 223 224
f 138 224 225
f 138 225 226
f 138 226 227
f 138 227 139
f 139 227 228
f 139 228 229
f 139 229 230
f 139 230 141
f 140 222 223
f 141 230 231
f 141 231 142
f 142 231 232
f 142 232 233
f 142 233 143
f 143 233 234
f 143 234 235
f 143 235 144
f 144 146 145
f 144 235 236
f 144 236 237
f 144 237 238
f 144 238 147
f 147 238 148
f 148 150 149
f 148 238 239
f 148 239 240
f 148 240 150
f 150 240 241
f 150 241 151
f 151 241 153
f 152 153 242
f 152 242 154
f 153 241 243
f 153 243 244
f 153 244 245
f 153 245 246
f 153 246 242
f 154 242 156
f 154 156 155
f 156 242 157
f 157 242 246
f 157 246 247
f 157 247 158
f 158 247 248
f 158 248 189
f 158 189 159
f 160 249 250
f 160 250 251
f 160 251 161
f 160 219 252
f 160 252 249
f 161 251 162
f 162 251 163
f 163 251 253
f 163 253 254
f 163 254 164
f 164 255 256
f 164 256 257
f 164 257 258
f 164 258 165
f 164 254 259
f 164 259 255
f 165 258 260
f 165 260 166
f 166 260 261
f 166 261 168
f 168 262 263
f 168 263 264
f 168 264 265
f 168 265 171
f 168 261 266
f 168 266 262
f 169 174 267
f 169 267 268
f 169 268 269
f 169 269 170
f 171 265 172
f 172 265 270
f 172 270 271
f 172 271 173
f 173 272 273
f 173 273 174
f 173 271 274
f 173 274 272
f 174 273 275
f 174 275 267
f 176 276 277
f 176 277 278
f 176 278 279
f 176 279 177
f 177 279 178
f 178 279 400
f 178 400 516
f 178 516 629
f 178 629 749
f 178 749 863
f 178 863 980
f 178 980 1064
f 178 1064 1105
f 178 1105 1107
f 178 1107 1147
f 178 1147 1146
f 178 1146 1141
f 178 1141 1140
f 178 1140 1139
f 178 1139 1138
f 178 1138 1145
f 178 1145 1159
f 178 1159 1137
f 178 1137 1135
f 178 1135 1158
f 178 1158 1154
f 178 1154 1156
f 178 1156 1157
f 178 1157 1153
f 178 1153 1121
f 178 1121 1152
f 178 1152 1160
f 178 1160 1148
f 178 1148 1113
f 178 1113 1112
f 178 1112 1111
f 178 1111 1129
f 178 1129 1128
f 178 1128 1127
f 178 1127 1083
f 178 1083 1004
f 178 1004 887
f 178 887 886
f 178 886 772
f 178 772 659
f 178 659 661
f 178 661 656
f 178 656 539
f 178 539 424
f 178 424 423
f 178 423 422
f 178 422 314
f 178 314 313
f 178 313 225
f 178 225 311
f 178 311 312
f 178 312 310
f 178 310 309
f 178 309 280
f 178 280 186
f 178 186 185
f 178 185 184
f 178 184 183
f 178 183 180
f 178 180 179
f 180 183 182
f 188 281 282
f 188 282 221
f 189 248 194
f 189 194 190
f 191 283 192
f 191 194 283
f 192 283 284
f 192 284 193
f 193 284 195
f 194 248 283
f 195 285 196
f 195 284 283
f 195 283 286
f 195 286 285
f 196 287 288
f 196 288 197
f 196 285 287
f 197 289 198
f 197 288 289
f 198 289 290
f 198 290 199
f 199 290 202
f 202 290 205
f 203 214 217
f 203 217 215
f 205 290 289
f 205 289 288
f 205 288 291
f 205 291 292
f 205 292 293
f 205 293 206
f 206 293 294
f 206 294 207
f 207 294 295
f 207 295 209
f 207 209 208
f 209 296 210
f 209 295 296
f 210 297 298
f 210 298 211
f 210 296 297
f 211 298 212
f 212 299 300
f 212 300 213
f 212 298 299
f 213 301 302
f 213 302 214
f 213 300 301
f 214 302 303
f 214 303 216
f 216 303 304
f 216 304 220
f 216 220 218
f 219 220 305
f 219 305 306
f 219 306 307
f 219 307 308
f 219 308 252
f 220 304 305
f 221 282 309
f 221 309 310
f 221 310 223
f 221 223 222
f 223 310 224
f 224 311 225
f 224 310 312
f 224 312 311
f 225 313 226
f 226 313 314
f 226 314 315
f 226 315 316
f 226 316 227
f 227 316 317
f 227 317 318
f 227 318 228
f 228 318 231
f 228 231 229
f 229 231 230
f 231 318 319
f 231 319 320
f 231 320 321
f 231 321 232
f 232 321 322
f 232 322 233
f 233 322 323
f 233 323 234
f 234 323 236
f 234 236 235
f 236 323 324
f 236 324 325
f 236 325 237
f 237 326 327
f 237 327 238
f 237 325 328
f 237 328 326
f 238 327 329
f 238 329 239
f 239 329 330
f 239 330 240
f 240 330 331
f 240 331 241
f 241 331 243
f 243 331 332
f 243 332 333
f 243 333 245
f 243 245 244
f 245 333 334
f 245 334 247
f 245 247 246
f 247 334 335
f 247 335 248
f 248 335 283
f 249 252 336
f 249 336 337
f 249 337 253
f 249 253 250
f 250 253 251
f 252 308 338
f 252 338 336
f 253 337 254
f 254 337 339
f 254 339 340
f 254 340 341
f 254 341 259
f 255 342 343
f 255 343 344
f 255 344 256
f 255 259 341
f 255 341 345
f 255 345 346
f 255 346 347
f 255 347 342
f 256 344 348
f 256 348 257
f 257 348 258
f 258 348 349
f 258 349 262
f 258 262 350
f 258 350 260
f 260 350 262
f 260 262 266
f 260 266 261
f 262 351 352
f 262 352 353
f 262 353 354
f 262 354 355
f 262 355 356
f 262 356 263
f 262 349 351
f 263 356 357
f 263 357 264
f 264 357 265
f 265 357 358
f 265 358 270
f 267 359 268
f 267 275 359
f 270 360 361
f 270 361 362
f 270 362 363
f 270 363 274
f 270 274 271
f 270 358 364
f 270 364 365
f 270 365 360
f 272 366 367
f 272 367 273
f 272 274 366
f 273 367 275
f 274 363 368
f 274 368 369
f 274 369 370
f 274 370 366
f 276 371 277
f 277 371 372
f 277 372 373
f 277 373 278
f 278 373 374
f 278 374 279
f 279 374 375
f 279 375 376
f 279 376 377
f 279 377 378
f 279 378 379
f 279 379 380
f 279 380 381
f 279 381 382
f 279 382 383
f 279 383 384
f 279 384 385
f 279 385 386
f 279 386 387
f 279 387 388
f 279 388 389
f 279 389 390
f 279 390 391
f 279 391 392
f 279 392 393
f 279 393 394
f 279 394 395
f 279 395 396
f 279 396 397
f 279 397 398
f 279 398 399
f 279 399 400
f 280 309 281
f 281 309 282
f 283 335 401
f 283 401 286
f 285 402 287
f 285 286 401
f 285 401 403
f 285 403 402
f 287 404 288
f 287 402 404
f 288 404 405
f 288 405 406
f 288 406 291
f 291 406 292
f 292 406 294
f 292 294 293
f 294 406 407
f 294 407 408
f 294 408 295
f 295 408 409
f 295 409 296
f 296 410 411
f 296 411 297
f 296 409 410
f 297 411 412
f 297 412 413
f 297 413 299
f 297 299 298
f 299 413 300
f 300 413 414
f 300 414 301
f 301 415 416
f 301 416 302
f 301 414 415
f 302 416 417
f 302 417 306
f 302 306 305
f 302 305 303
f 303 305 304
f 306 417 418
f 306 418 307
f 307 418 419
f 307 419 420
f 307 420 421
f 307 421 308
f 308 421 338
f 314 422 316
f 314 316 315
f 316 422 423
f 316 423 424
f 316 424 425
f 316 425 426
f 316 426 427
f 316 427 317
f 317 427 428
f 317 428 429
f 317 429 318
f 318 429 319
f 319 429 320
f 320 429 430
f 320 430 431
f 320 431 321
f 321 431 432
f 321 432 433
f 321 433 434
f 321 434 435
f 321 435 436
f 321 436 437
f 321 437 322
f 322 437 323
f 323 437 324
f 324 437 325
f 325 438 328
f 325 437 438
f 326 328 439
f 326 439 440
f 326 440 327
f 327 440 441
f 327 441 329
f 328 442 439
f 328 438 435
f 328 435 443
f 328 443 444
f 328 444 442
f 329 441 445
f 329 445 330
f 330 445 331
f 331 445 332
f 332 445 446
f 332 446 333
f 333 446 334
f 334 446 447
f 334 447 448
f 334 448 449
f 334 449 335
f 335 449 401
f 336 338 339
f 336 339 337
f 338 421 450
f 338 450 451
f 338 451 452
f 338 452 339
f 339 452 340
f 340 345 341
f 340 452 345
f 342 347 453
f 342 453 454
f 342 454 455
f 342 455 456
f 342 456 457
f 342 457 458
f 342 458 459
f 342 459 460
f 342 460 461
f 342 461 343
f 343 461 462
f 343 462 344
f 344 462 351
f 344 351 348
f 345 453 347
f 345 347 346
f 345 452 451
f 345 451 453
f 348 351 349
f 351 353 352
f 351 462 463
f 351 463 353
f 353 463 464
f 353 464 465
f 353 465 466
f 353 466 467
f 353 467 468
f 353 468 469
f 353 469 354
f 354 469 355
f 355 469 470
f 355 470 471
f 355 471 472
f 355 472 473
f 355 473 474
f 355 474 356
f 356 474 357
f 357 474 358
f 358 474 364
f 360 365 472
f 360 472 475
f 360 475 361
f 361 475 476
f 361 476 362
f 362 476 475
f 362 475 477
f 362 477 478
f 362 478 479
f 362 479 368
f 362 368 363
f 364 474 473
f 364 473 472
f 364 472 365
f 366 370 480
f 368 481 369
f 368 479 482
f 368 482 483
f 368 483 484
f 368 484 481
f 369 481 485
f 369 485 486
f 369 486 487
f 369 487 480
f 369 480 370
f 372 488 489
f 372 489 490
f 372 490 373
f 373 491 374
f 373 490 492
f 373 492 491
f 374 491 375
f 375 491 493
f 375 493 376
f 376 493 494
f 376 494 495
f 376 495 377
f 377 495 378
f 378 495 496
f 378 496 379
f 379 496 380
f 380 497 381
f 380 496 497
f 381 497 382
f 382 498 383
f 382 497 498
f 383 498 499
f 383 499 500
f 383 500 384
f 384 500 501
f 384 501 502
f 384 502 385
f 385 502 386
f 386 502 387
f 387 502 503
f 387 503 388
f 388 503 504
f 388 504 505
f 388 505 389
f 389 505 506
f 389 506 390
f 390 506 391
f 391 506 392
f 392 506 507
f 392 507 508
f 392 508 509
f 392 509 393
f 393 510 394
f 393 509 510
f 394 511 395
f 394 510 511
f 395 511 512
f 395 512 396
f 396 512 513
f 396 513 397
f 397 513 398
f 398 513 514
f 398 514 399
f 399 514 515
f 399 515 400
f 400 515 516
f 401 517 518
f 401 518 403
f 401 449 517
f 402 403 518
f 402 518 519
f 402 519 405
f 402 405 404
f 405 519 407
f 405 407 406
f 407 519 520
f 407 520 408
f 408 520 409
f 409 521 522
f 409 522 523
f 409 523 410
f 409 520 524
f 409 524 521
f 410 525 526
f 410 526 411
f 410 523 527
f 410 527 525
f 411 528 412
f 411 526 528
f 412 529 530
f 412 530 531
f 412 531 414
f 412 414 413
f 412 528 529
f 414 531 530
f 414 530 529
f 414 529 532
f 414 532 533
f 414 533 534
f 414 534 535
f 414 535 415
f 415 535 416
f 416 535 420
f 416 420 419
f 416 419 418
f 416 418 417
f 420 536 537
f 420 537 538
f 420 538 451
f 420 451 450
f 420 450 421
f 420 535 536
f 424 539 425
f 425 539 540
f 425 540 541
f 425 541 426
f 426 430 429
f 426 429 428
f 426 428 427
f 426 541 542
f 426 542 431
f 426 431 430
f 431 542 432
f 432 542 541
f 432 541 543
f 432 543 433
f 433 435 544
f 433 544 545
f 433 545 434
f 433 543 546
f 433 546 547
f 433 547 548
f 433 548 549
f 433 549 435
f 434 545 544
f 434 544 435
f 435 549 443
f 435 438 436
f 436 438 437
f 439 442 440
f 440 442 441
f 441 442 550
f 441 550 551
f 441 551 445
f 442 444 552
f 442 552 553
f 442 553 554
f 442 554 550
f 443 549 555
f 443 555 556
f 443 556 557
f 443 557 444
f 444 558 559
f 444 559 552
f 444 557 560
f 444 560 558
f 445 551 446
f 446 551 448
f 446 448 447
f 448 561 562
f 448 562 449
f 448 551 561
f 449 562 563
f 449 563 564
f 449 564 517
f 451 538 565
f 451 565 566
f 451 566 453
f 453 566 567
f 453 567 454
f 454 567 568
f 454 568 569
f 454 569 570
f 454 570 455
f 455 571 456
f 455 570 572
f 455 572 571
f 456 573 574
f 456 574 457
f 456 571 575
f 456 575 573
f 457 576 458
f 457 574 576
f 458 576 577
f 458 577 578
f 458 578 459
f 459 578 460
f 460 578 465
f 460 465 579
f 460 579 580
f 460 580 461
f 461 463 462
f 461 580 463
f 463 580 464
f 464 580 581
f 464 581 579
f 464 579 465
f 465 578 582
f 465 582 467
f 465 467 466
f 467 582 583
f 467 583 584
f 467 584 585
f 467 585 586
f 467 586 587
f 467 587 468
f 468 470 469
f 468 587 470
f 470 587 471
f 471 587 588
f 471 588 472
f 472 588 475
f 475 588 589
f 475 589 590
f 475 590 591
f 475 591 592
f 475 592 593
f 475 593 594
f 475 594 477
f 477 594 478
f 478 594 593
f 478 593 482
f 478 482 479
f 481 484 485
f 482 593 595
f 482 595 483
f 483 595 596
f 483 596 597
f 483 597 484
f 484 597 596
f 484 596 485
f 485 596 598
f 485 598 486
f 488 599 600
f 488 600 489
f 489 600 490
f 490 600 601
f 490 601 492
f 491 492 493
f 492 601 493
f 493 601 602
f 493 602 603
f 493 603 604
f 493 604 494
f 494 604 495
f 495 605 606
f 495 606 607
f 495 607 497
f 495 497 496
f 495 604 605
f 497 607 608
f 497 608 609
f 497 609 610
f 497 610 498
f 498 610 499
f 499 610 500
f 500 610 611
f 500 611 501
f 501 611 502
f 502 611 612
f 502 612 613
f 502 613 614
f 502 614 503
f 503 614 504
f 504 614 613
f 504 613 615
f 504 615 505
f 505 615 616
f 505 616 617
f 505 617 506
f 506 617 618
f 506 618 507
f 507 618 508
f 508 618 511
f 508 511 510
f 508 510 509
f 511 618 619
f 511 619 620
f 511 620 621
f 511 621 622
f 511 622 623
f 511 623 624
f 511 624 512
f 512 624 514
f 512 514 513
f 514 624 625
f 514 625 626
f 514 626 627
f 514 627 628
f 514 628 515
f 515 628 629
f 515 629 516
f 517 564 518
f 518 564 630
f 518 630 519
f 519 630 520
f 520 631 632
f 520 632 524
f 520 630 633
f 520 633 631
f 521 634 522
f 521 524 632
f 521 632 634
f 522 634 635
f 522 635 527
f 522 527 523
f 525 636 526
f 525 527 637
f 525 637 638
f 525 638 639
f 525 639 636
f 526 636 640
f 526 640 641
f 526 641 642
f 526 642 528
f 527 635 643
f 527 643 637
f 528 642 644
f 528 644 529
f 529 645 646
f 529 646 647
f 529 647 648
f 529 648 532
f 529 644 649
f 529 649 650
f 529 650 645
f 532 648 533
f 533 651 535
f 533 535 534
f 533 648 651
f 535 651 536
f 536 652 537
f 536 651 653
f 536 653 652
f 537 652 654
f 537 654 655
f 537 655 565
f 537 565 538
f 539 656 540
f 540 656 657
f 540 657 658
f 540 658 541
f 541 658 543
f 543 658 546
f 546 659 660
f 546 660 547
f 546 658 656
f 546 656 661
f 546 661 659
f 547 660 548
f 548 660 662
f 548 662 663
f 548 663 664
f 548 664 665
f 548 665 555
f 548 555 549
f 550 554 666
f 550 666 551
f 551 666 667
f 551 667 561
f 552 559 553
f 553 559 554
f 554 559 668
f 554 668 666
f 555 665 556
f 556 669 557
f 556 665 670
f 556 670 671
f 556 671 669
f 557 669 560
f 558 560 672
f 558 672 673
f 558 673 559
f 559 673 668
f 560 669 674
f 560 674 675
f 560 675 672
f 561 667 676
f 561 676 630
f 561 630 677
f 561 677 562
f 562 677 563
f 563 677 630
f 563 630 564
f 565 655 678
f 565 678 679
f 565 679 566
f 566 679 568
f 566 568 567
f 568 679 569
f 569 679 678
f 569 678 572
f 569 572 570
f 571 572 575
f 572 678 680
f 572 680 681
f 572 681 575
f 573 575 682
f 573 682 683
f 573 683 684
f 573 684 685
f 573 685 686
f 573 686 574
f 574 686 687
f 574 687 576
f 575 681 682
f 576 687 577
f 577 687 578
f 578 688 689
f 578 689 690
f 578 690 583
f 578 583 582
f 578 687 691
f 578 691 688
f 579 581 580
f 583 690 689
f 583 689 692
f 583 692 693
f 583 693 694
f 583 694 695
f 583 695 696
f 583 696 697
f 583 697 698
f 583 698 584
f 584 698 585
f 585 699 586
f 585 698 700
f 585 700 587
f 585 587 699
f 586 699 587
f 587 700 698
f 587 698 701
f 587 701 702
f 587 702 703
f 587 703 589
f 587 589 588
f 589 703 590
f 590 703 704
f 590 704 705
f 590 705 706
f 590 706 591
f 591 706 592
f 592 706 593
f 593 706 707
f 593 707 708
f 593 708 709
f 593 709 710
f 593 710 595
f 595 710 711
f 595 711 596
f 596 712 598
f 596 711 713
f 596 713 714
f 596 714 715
f 596 715 712
f 599 716 717
f 599 717 600
f 600 602 601
f 600 717 718
f 600 718 719
f 600 719 720
f 600 720 602
f 602 605 603
f 602 720 721
f 602 721 722
f 602 722 723
f 602 723 724
f 602 724 605
f 603 605 604
f 605 724 606
f 606 724 725
f 606 725 726
f 606 726 607
f 607 726 608
f 608 727 611
f 608 611 728
f 608 728 609
f 608 726 729
f 608 729 730
f 608 730 727
f 609 728 611
f 609 611 610
f 611 731 732
f 611 732 733
f 611 733 734
f 611 734 613
f 611 613 612
f 611 727 731
f 613 734 733
f 613 733 735
f 613 735 736
f 613 736 737
f 613 737 615
f 615 737 616
f 616 737 618
f 616 618 617
f 618 737 738
f 618 738 739
f 618 739 619
f 619 739 740
f 619 740 620
f 620 740 621
f 621 740 739
f 621 739 741
f 621 741 742
f 621 742 622
f 622 742 743
f 622 743 744
f 622 744 623
f 623 744 624
f 624 744 625
f 625 744 745
f 625 745 626
f 626 745 746
f 626 746 747
f 626 747 627
f 627 747 748
f 627 748 628
f 628 748 749
f 628 749 629
f 630 750 633
f 630 676 751
f 630 751 750
f 631 633 750
f 631 750 752
f 631 752 635
f 631 635 634
f 631 634 632
f 635 752 753
f 635 753 754
f 635 754 643
f 636 755 756
f 636 756 757
f 636 757 641
f 636 641 640
f 636 639 758
f 636 758 759
f 636 759 760
f 636 760 755
f 637 643 754
f 637 754 638
f 638 754 758
f 638 758 639
f 641 649 642
f 641 757 649
f 642 649 644
f 645 761 762
f 645 762 646
f 645 650 763
f 645 763 764
f 645 764 765
f 645 765 761
f 646 762 766
f 646 766 647
f 647 766 767
f 647 767 648
f 648 767 652
f 648 652 653
f 648 653 651
f 649 757 768
f 649 768 763
f 649 763 650
f 652 769 654
f 652 767 770
f 652 770 769
f 654 769 655
f 655 769 771
f 655 771 678
f 656 658 657
f 659 772 660
f 660 772 773
f 660 773 774
f 660 774 775
f 660 775 662
f 662 775 776
f 662 776 777
f 662 777 663
f 663 777 671
f 663 671 670
f 663 670 664
f 664 670 665
f 666 668 778
f 666 778 779
f 666 779 751
f 666 751 667
f 667 751 676
f 668 673 778
f 669 675 674
f 669 671 780
f 669 780 781
f 669 781 675
f 671 782 783
f 671 783 784
f 671 784 780
f 671 777 776
f 671 776 785
f 671 785 782
f 672 675 673
f 673 675 753
f 673 753 778
f 675 781 786
f 675 786 787
f 675 787 753
f 678 788 680
f 678 771 789
f 678 789 788
f 680 788 681
f 681 788 790
f 681 790 791
f 681 791 682
f 682 791 792
f 682 792 793
f 682 793 683
f 683 793 794
f 683 794 684
f 684 795 796
f 684 796 797
f 684 797 798
f 684 798 685
f 684 794 799
f 684 799 800
f 684 800 795
f 685 798 801
f 685 801 686
f 686 801 802
f 686 802 803
f 686 803 804
f 686 804 691
f 686 691 687
f 688 804 689
f 688 691 804
f 689 805 692
f 689 804 803
f 689 803 806
f 689 806 805
f 692 805 693
f 693 805 807
f 693 807 808
f 693 808 809
f 693 809 810
f 693 810 811
f 693 811 812
f 693 812 695
f 693 695 694
f 695 812 696
f 696 812 697
f 697 812 698
f 698 812 813
f 698 813 814
f 698 814 701
f 701 814 702
f 702 814 703
f 703 814 815
f 703 815 816
f 703 816 705
f 703 705 704
f 705 816 815
f 705 815 817
f 705 817 818
f 705 818 819
f 705 819 706
f 706 819 820
f 706 820 707
f 707 820 708
f 708 820 821
f 708 821 822
f 708 822 709
f 709 822 823
f 709 823 710
f 710 823 711
f 711 823 824
f 711 824 825
f 711 825 826
f 711 826 713
f 713 827 714
f 713 826 827
f 716 828 717
f 717 828 718
f 718 829 830
f 718 830 719
f 718 828 829
f 719 721 720
f 719 830 831
f 719 831 832
f 719 832 833
f 719 833 721
f 721 834 835
f 721 835 836
f 721 836 722
f 721 833 837
f 721 837 834
f 722 836 723
f 723 838 726
f 723 726 725
f 723 725 724
f 723 836 835
f 723 835 838
f 726 838 835
f 726 835 729
f 727 730 731
f 729 835 839
f 729 839 730
f 730 839 840
f 730 840 731
f 731 840 841
f 731 841 732
f 732 841 733
f 733 841 839
f 733 839 842
f 733 842 843
f 733 843 844
f 733 844 845
f 733 845 735
f 735 845 736
f 736 845 846
f 736 846 847
f 736 847 737
f 737 847 848
f 737 848 849
f 737 849 739
f 737 739 738
f 739 849 848
f 739 848 850
f 739 850 851
f 739 851 852
f 739 852 741
f 741 852 853
f 741 853 854
f 741 854 855
f 741 855 856
f 741 856 857
f 741 857 742
f 742 857 746
f 742 746 743
f 743 746 744
f 744 746 745
f 746 857 858
f 746 858 747
f 747 858 859
f 747 859 748
f 748 859 860
f 748 860 861
f 748 861 862
f 748 862 863
f 748 863 749
f 750 751 779
f 750 779 778
f 750 778 752
f 752 778 753
f 753 787 864
f 753 864 754
f 754 864 759
f 754 759 758
f 755 760 865
f 755 865 866
f 755 866 867
f 755 867 868
f 755 868 869
f 755 869 756
f 756 869 870
f 756 870 757
f 757 870 768
f 759 871 872
f 759 872 873
f 759 873 760
f 759 864 871
f 760 873 865
f 761 874 762
f 761 765 875
f 761 875 876
f 761 876 874
f 762 874 877
f 762 877 878
f 762 878 879
f 762 879 880
f 762 880 881
f 762 881 882
f 762 882 883
f 762 883 766
f 763 768 870
f 763 870 764
f 764 870 765
f 765 870 869
f 765 869 875
f 766 883 882
f 766 882 884
f 766 884 885
f 766 885 767
f 767 885 769
f 767 769 770
f 769 885 771
f 771 885 884
f 771 884 881
f 771 881 789
f 772 886 773
f 773 886 774
f 774 785 775
f 774 886 887
f 774 887 888
f 774 888 889
f 774 889 785
f 775 785 776
f 780 784 890
f 780 890 781
f 781 891 786
f 781 890 892
f 781 892 891
f 782 889 893
f 782 893 784
f 782 784 783
f 782 785 889
f 784 893 894
f 784 894 895
f 784 895 890
f 786 891 787
f 787 891 896
f 787 896 864
f 788 789 897
f 788 897 898
f 788 898 899
f 788 899 791
f 788 791 790
f 789 881 897
f 791 899 792
f 792 899 898
f 792 898 794
f 792 794 793
f 794 898 900
f 794 900 901
f 794 901 902
f 794 902 799
f 795 903 904
f 795 904 905
f 795 905 796
f 795 800 902
f 795 902 906
f 795 906 907
f 795 907 908
f 795 908 909
f 795 909 903
f 796 905 910
f 796 910 797
f 797 910 801
f 797 801 798
f 799 902 800
f 801 910 911
f 801 911 912
f 801 912 913
f 801 913 803
f 801 803 802
f 803 913 805
f 803 805 806
f 805 913 914
f 805 914 807
f 807 914 808
f 808 915 916
f 808 916 917
f 808 917 809
f 808 914 918
f 808 918 919
f 808 919 920
f 808 920 915
f 809 917 921
f 809 921 810
f 810 922 923
f 810 923 812
f 810 812 924
f 810 924 811
f 810 921 922
f 811 924 812
f 812 925 926
f 812 926 927
f 812 927 928
f 812 928 813
f 812 923 921
f 812 921 925
f 813 928 814
f 814 928 929
f 814 929 930
f 814 930 931
f 814 931 932
f 814 932 815
f 815 932 817
f 817 933 818
f 817 932 931
f 817 931 933
f 818 934 935
f 818 935 936
f 818 936 820
f 818 820 819
f 818 933 934
f 820 936 937
f 820 937 938
f 820 938 939
f 820 939 940
f 820 940 821
f 821 940 822
f 822 941 942
f 822 942 823
f 822 940 939
f 822 939 941
f 823 942 824
f 824 942 941
f 824 941 943
f 824 943 825
f 825 943 944
f 829 945 830
f 830 945 946
f 830 946 831
f 831 946 832
f 832 947 948
f 832 948 949
f 832 949 833
f 832 946 950
f 832 950 951
f 832 951 947
f 833 949 939
f 833 939 837
f 834 837 835
f 835 837 952
f 835 952 953
f 835 953 954
f 835 954 839
f 837 939 955
f 837 955 952
f 839 841 840
f 839 954 956
f 839 956 957
f 839 957 958
f 839 958 959
f 839 959 842
f 842 844 843
f 842 959 844
f 844 960 845
f 844 959 960
f 845 960 961
f 845 961 846
f 846 961 847
f 847 961 962
f 847 962 963
f 847 963 848
f 848 963 964
f 848 964 850
f 850 964 965
f 850 965 853
f 850 853 851
f 851 853 852
f 853 966 967
f 853 967 968
f 853 968 969
f 853 969 854
f 853 965 964
f 853 964 966
f 854 969 970
f 854 970 855
f 855 970 856
f 856 970 971
f 856 971 972
f 856 972 973
f 856 973 974
f 856 974 857
f 857 974 858
f 858 974 859
f 859 974 975
f 859 975 860
f 860 975 976
f 860 976 977
f 860 977 861
f 861 977 978
f 861 978 979
f 861 979 862
f 862 979 980
f 862 980 863
f 864 896 981
f 864 981 871
f 865 873 872
f 865 872 890
f 865 890 982
f 865 982 983
f 865 983 866
f 866 983 867
f 867 983 984
f 867 984 985
f 867 985 986
f 867 986 987
f 867 987 988
f 867 988 989
f 867 989 990
f 867 990 868
f 868 991 869
f 868 990 991
f 869 991 876
f 869 876 875
f 871 981 872
f 872 981 992
f 872 992 892
f 872 892 890
f 874 993 877
f 874 876 993
f 876 991 994
f 876 994 995
f 876 995 993
f 877 996 997
f 877 997 998
f 877 998 999
f 877 999 878
f 877 993 1000
f 877 1000 1001
f 877 1001 996
f 878 999 879
f 879 999 1002
f 879 1002 1003
f 879 1003 881
f 879 881 880
f 881 1003 897
f 881 884 882
f 887 1004 888
f 888 1004 1005
f 888 1005 1006
f 888 1006 889
f 889 1006 893
f 890 895 982
f 891 892 992
f 891 992 896
f 893 1006 1007
f 893 1007 1008
f 893 1008 894
f 894 1008 895
f 895 1008 1009
f 895 1009 986
f 895 986 985
f 895 985 982
f 896 992 981
f 897 1003 898
f 898 1010 901
f 898 901 900
f 898 1003 1002
f 898 1002 1010
f 901 1010 1011
f 901 1011 1012
f 901 1012 1013
f 901 1013 1014
f 901 1014 1015
f 901 1015 902
f 902 1015 1014
f 902 1014 1016
f 902 1016 906
f 903 909 1017
f 903 1017 1018
f 903 1018 904
f 904 1018 1019
f 904 1019 1020
f 904 1020 905
f 905 1020 1021
f 905 1021 910
f 906 1016 1014
f 906 1014 1022
f 906 1022 1023
f 906 1023 907
f 907 1023 1024
f 907 1024 1025
f 907 1025 909
f 907 909 908
f 909 1026 1017
f 909 1025 1027
f 909 1027 1026
f 910 1021 919
f 910 919 1028
f 910 1028 914
f 910 914 912
f 910 912 911
f 912 914 913
f 914 1028 919
f 914 919 918
f 915 920 1029
f 915 1029 1030
f 915 1030 1031
f 915 1031 968
f 915 968 916
f 916 968 1032
f 916 1032 917
f 917 1032 921
f 919 1021 1033
f 919 1033 920
f 920 1033 1021
f 920 1021 1034
f 920 1034 1035
f 920 1035 1036
f 920 1036 1037
f 920 1037 1038
f 920 1038 1030
f 920 1030 1029
f 921 926 925
f 921 923 922
f 921 1032 968
f 921 968 966
f 921 966 926
f 926 966 927
f 927 966 1039
f 927 1039 928
f 928 1039 1040
f 928 1040 929
f 929 1040 930
f 930 1040 1041
f 930 1041 1042
f 930 1042 931
f 931 1042 934
f 931 934 933
f 934 1042 1043
f 934 1043 959
f 934 959 1044
f 934 1044 957
f 934 957 935
f 935 957 936
f 936 957 956
f 936 956 937
f 937 956 953
f 937 953 1045
f 937 1045 938
f 938 1045 1046
f 938 1046 939
f 939 1046 953
f 939 953 1047
f 939 1047 952
f 939 952 955
f 939 949 941
f 941 949 943
f 943 949 948
f 943 948 1048
f 943 1048 944
f 944 1048 1049
f 945 950 946
f 947 1050 948
f 947 951 1051
f 947 1051 1050
f 948 1050 1048
f 952 1047 953
f 953 1046 1045
f 953 956 954
f 957 1044 958
f 958 1044 959
f 959 1043 961
f 959 961 960
f 961 1043 1052
f 961 1052 963
f 961 963 962
f 963 1052 966
f 963 966 964
f 966 968 967
f 966 1052 1053
f 966 1053 1054
f 966 1054 1039
f 968 1031 1030
f 968 1030 1055
f 968 1055 970
f 968 970 969
f 970 1055 971
f 971 1055 1056
f 971 1056 1030
f 971 1030 972
f 972 1030 973
f 973 1030 1057
f 973 1057 1058
f 973 1058 974
f 974 1058 976
f 974 976 975
f 976 1059 1060
f 976 1060 1061
f 976 1061 1062
f 976 1062 1063
f 976 1063 978
f 976 978 977
f 976 1058 1057
f 976 1057 1059
f 978 1064 979
f 978 1063 1064
f 979 1064 980
f 982 985 983
f 983 985 984
f 986 1065 987
f 986 1009 1008
f 986 1008 1065
f 987 1066 988
f 987 1065 1066
f 988 1066 1067
f 988 1067 1068
f 988 1068 1069
f 988 1069 1070
f 988 1070 1071
f 988 1071 1072
f 988 1072 989
f 989 1072 1073
f 989 1073 994
f 989 994 990
f 990 994 991
f 993 995 1074
f 993 1074 1075
f 993 1075 1000
f 994 1073 995
f 995 1073 1076
f 995 1076 1074
f 996 1077 1078
f 996 1078 997
f 996 1001 1077
f 997 1078 998
f 998 1079 1002
f 998 1002 999
f 998 1078 1079
f 1000 1075 1001
f 1001 1075 1080
f 1001 1080 1081
f 1001 1081 1082
f 1001 1082 1077
f 1002 1079 1010
f 1004 1083 1084
f 1004 1084 1005
f 1005 1085 1006
f 1005 1084 1086
f 1005 1086 1085
f 1006 1085 1008
f 1006 1008 1007
f 1008 1085 1087
f 1008 1087 1066
f 1008 1066 1065
f 1010 1079 1011
f 1011 1079 1088
f 1011 1088 1089
f 1011 1089 1012
f 1012 1089 1090
f 1012 1090 1091
f 1012 1091 1013
f 1013 1092 1022
f 1013 1022 1014
f 1013 1091 1092
f 1017 1026 1093
f 1017 1093 1094
f 1017 1094 1095
f 1017 1095 1018
f 1018 1095 1019
f 1019 1095 1096
f 1019 1096 1034
f 1019 1034 1020
f 1020 1034 1021
f 1022 1092 1023
f 1023 1092 1024
f 1024 1027 1025
f 1024 1092 1027
f 1026 1027 1097
f 1026 1097 1098
f 1026 1098 1093
f 1027 1092 1097
f 1030 1038 1037
f 1030 1037 1099
f 1030 1099 1059
f 1030 1059 1057
f 1030 1056 1055
f 1034 1096 1035
f 1035 1100 1037
f 1035 1037 1036
f 1035 1096 1095
f 1035 1095 1100
f 1037 1100 1101
f 1037 1101 1061
f 1037 1061 1099
f 1039 1054 1040
f 1040 1054 1041
f 1041 1054 1053
f 1041 1053 1052
f 1041 1052 1043
f 1041 1043 1042
f 1048 1050 1049
f 1059 1099 1060
f 1060 1099 1061
f 1061 1101 1102
f 1061 1102 1103
f 1061 1103 1104
f 1061 1104 1063
f 1061 1063 1062
f 1063 1105 1064
f 1063 1104 1106
f 1063 1106 1107
f 1063 1107 1105
f 1066 1087 1085
f 1066 1085 1108
f 1066 1108 1109
f 1066 1109 1067
f 1067 1109 1110
f 1067 1110 1068
f 1068 1110 1086
f 1068 1086 1111
f 1068 1111 1112
f 1068 1112 1069
f 1069 1112 1113
f 1069 1113 1114
f 1069 1114 1115
f 1069 1115 1070
f 1070 1115 1071
f 1071 1115 1072
f 1072 1115 1114
f 1072 1114 1116
f 1072 1116 1117
f 1072 1117 1075
f 1072 1075 1118
f 1072 1118 1073
f 1073 1118 1076
f 1074 1076 1119
f 1074 1119 1075
f 1075 1119 1118
f 1075 1117 1116
f 1075 1116 1120
f 1075 1120 1080
f 1076 1118 1119
f 1077 1082 1088
f 1077 1088 1079
f 1077 1079 1078
f 1080 1120 1081
f 1081 1120 1121
f 1081 1121 1122
f 1081 1122 1123
f 1081 1123 1124
f 1081 1124 1090
f 1081 1090 1125
f 1081 1125 1082
f 1082 1125 1126
f 1082 1126 1088
f 1083 1127 1084
f 1084 1127 1086
f 1085 1086 1108
f 1086 1128 1129
f 1086 1129 1111
f 1086 1110 1109
f 1086 1109 1108
f 1086 1127 1128
f 1088 1126 1089
f 1089 1126 1090
f 1090 1130 1131
f 1090 1131 1091
f 1090 1126 1125
f 1090 1124 1132
f 1090 1132 1133
f 1090 1133 1130
f 1091 1131 1092
f 1092 1131 1134
f 1092 1134 1135
f 1092 1135 1136
f 1092 1136 1137
f 1092 1137 1097
f 1093 1098 1138
f 1093 1138 1139
f 1093 1139 1140
f 1093 1140 1141
f 1093 1141 1094
f 1094 1142 1095
f 1094 1141 1142
f 1095 1142 1143
f 1095 1143 1102
f 1095 1102 1101
f 1095 1101 1100
f 1097 1137 1144
f 1097 1144 1145
f 1097 1145 1098
f 1098 1145 1138
f 1102 1143 1103
f 1103 1106 1104
f 1103 1143 1142
f 1103 1142 1106
f 1106 1146 1147
f 1106 1147 1107
f 1106 1142 1146
f 1113 1148 1149
f 1113 1149 1116
f 1113 1116 1114
f 1116 1149 1150
f 1116 1150 1120
f 1120 1150 1151
f 1120 1151 1152
f 1120 1152 1121
f 1121 1153 1122
f 1122 1153 1132
f 1122 1132 1123
f 1123 1132 1124
f 1130 1154 1134
f 1130 1134 1131
f 1130 1133 1155
f 1130 1155 1156
f 1130 1156 1154
f 1132 1153 1157
f 1132 1157 1133
f 1133 1157 1155
f 1134 1158 1135
f 1134 1154 1158
f 1135 1137 1136
f 1137 1159 1144
f 1141 1146 1142
f 1144 1159 1145
f 1148 1160 1161
f 1148 1161 1149
f 1149 1161 1150
f 1150 1161 1151
f 1151 1161 1152
f 1152 1161 1160
f 1155 1157 1156

