# https://github.com/mikedh/trimesh
v 56.14199430 93.60709211 27.38688154
v 56.14199430 98.38743852 42.69895889
v 56.14199430 99.32109922 27.38688154
v 73.82402888 98.30403230 27.38688154
v 73.82402888 102.53912014 42.69578418
v 56.14199430 98.69990465 43.34026983
v 56.14199430 99.46675035 27.72976063
v 56.46738806 99.89125679 28.35202201
v 56.14718694 99.32359015 27.38688154
v 73.82402888 103.37692513 27.38688154
v 73.82402888 102.94495105 43.36408144
v 56.14199430 99.41073147 43.57679223
v 56.14199430 99.60244290 28.05200345
v 56.16276488 99.97964229 28.95205978
v 56.99874988 100.34190382 28.89650105
v 57.01086519 100.00827381 28.05200345
v 57.30510308 99.89872443 27.47101396
v 56.73047264 99.76676698 27.77738258
v 56.14199430 99.62236003 28.09962541
v 56.14199430 99.96345769 28.93459822
v 56.91394010 99.68211658 27.38688154
v 73.37401615 103.37692513 27.38688154
v 73.82402888 103.49145380 27.70118759
v 73.82402888 103.33957922 43.48472304
v 56.14199430 99.41820169 43.57837830
v 73.82402888 103.72300207 43.60060385
v 56.14199430 100.18380321 29.54257341
v 56.95547869 100.60581872 29.68067720
v 57.44010799 100.69918351 29.34097346
v 57.64261343 100.61577729 28.89650105
v 57.93858263 100.43028933 28.11232425
v 57.46779996 99.93358198 27.38688154
v 57.34664424 99.88005147 27.38688154
v 57.22029330 99.82278842 27.38688154
v 73.20612662 103.37194585 27.38688154
v 72.52245386 103.59353555 28.03454190
v 72.52245386 103.91346932 28.89650105
v 73.38440079 103.61220851 28.03454190
v 73.82402888 103.61220851 28.03454190
v 56.99874988 100.27218871 43.60060385
v 56.14199430 100.27218871 43.60060385
v 73.82402888 104.58570605 43.60060385
v 56.14199430 100.26098596 29.75846019
v 56.64047022 100.67179616 30.29182709
v 57.21510066 100.79753015 29.91561290
v 57.91435200 101.34652382 30.66804129
v 57.78107840 100.95563076 29.68067720
v 58.75033700 101.38511392 29.77274639
v 59.30246683 101.51209208 29.49495145
v 58.72264375 101.06144504 28.89650105
v 58.27955432 100.70914207 28.45202863
v 57.88146611 100.10910881 27.38688154
v 58.56340949 100.59336923 27.87738920
v 72.58130169 103.35202614 27.38688154
v 72.52245386 103.36198728 27.41704258
v 71.66050628 103.34331176 27.46625189
v 71.66050628 103.55618706 28.03454190
v 71.66050628 103.87861176 28.89650105
v 72.52245386 104.11389513 29.46002835
v 73.38440079 103.92093953 28.89650105
v 73.82402888 103.92218371 28.89650105
v 56.14199430 101.14236290 43.60060385
v 73.82402888 105.02390360 43.59901521
v 66.48536139 104.58570605 43.60060385
v 56.14199430 100.50622790 30.49501439
v 56.14199430 100.53983871 30.59660772
v 56.43623347 100.76391677 30.86646653
v 57.43664666 101.56313167 31.92685026
v 57.60972883 101.49217494 31.48396520
v 58.23801573 101.58803066 30.98710876
v 59.05669149 101.60421269 30.07117824
v 59.58632200 101.97518861 30.62200670
v 59.58805202 101.70504768 29.77274639
v 59.87882986 101.61666218 29.19175754
v 59.58805202 101.40129852 28.90126311
v 58.80053085 100.78508065 28.11232425
v 58.66206461 100.43278025 27.38688154
v 59.13803993 100.71038882 27.58689413
v 58.93726451 100.54606474 27.38688154
v 72.52245386 103.34953779 27.38688154
v 71.66050628 103.31219187 27.38688154
v 70.79682867 103.26114972 27.38688154
v 70.79682867 103.31717116 27.53451011
v 71.66050628 104.09646635 29.51400036
v 70.79682867 103.50016819 28.03454190
v 70.79682867 103.81387850 28.89650105
v 72.52245386 104.24460840 29.89180192
v 73.38440079 104.47615667 30.62200670
v 73.38440079 104.25083186 29.88386450
v 73.82402888 104.25207604 29.88227714
v 73.82402888 104.11513931 29.45050421
v 56.14199430 102.06232994 43.40693876
v 57.86069681 101.99759667 43.60060385
v 56.99874988 101.99759667 43.57679223
v 73.82402888 105.44840747 43.59742657
v 73.38440079 105.44840747 43.59742657
v 65.62168315 104.58570605 43.59584050
v 62.17389412 103.72300207 43.59742657
v 63.03584170 103.72300207 43.60060385
v 56.14199430 100.84234627 31.53158780
v 57.27221847 101.63657932 32.50307833
v 57.86069681 102.05361555 33.20947085
v 57.77934837 101.78720972 32.26814200
v 58.80226088 102.22043055 32.42211934
v 58.72264375 101.92539320 31.48396520
v 58.04070165 101.66645759 31.48396520
v 56.14199430 101.08011800 32.34592499
v 56.14199430 101.32162483 33.25391809
v 56.14199430 101.37266442 33.44758190
v 56.52969723 101.58305137 33.57457420
v 58.75033700 101.67890709 30.66804129
v 59.91863842 102.46567249 31.79827125
v 60.17133772 102.37604024 31.22363182
v 60.45346158 102.28142871 30.62359405
v 61.31021587 101.97767697 28.89650105
v 60.46557689 101.70380350 28.90126311
v 60.19037699 101.50960115 28.61711811
v 60.44826893 101.99759667 29.75846019
v 61.90388686 102.37852860 29.48225197
v 59.58632200 101.06020086 28.03454190
v 59.28169882 100.67926637 27.38688154
v 59.58632200 100.79379504 27.39005689
v 70.50778215 103.23874422 27.38688154
v 70.30354539 103.29725145 27.58530677
v 71.66050628 104.22717962 29.94577329
v 69.93488109 103.74416595 28.89650105
v 70.79682867 104.06160880 29.62194311
v 70.79682867 104.19605717 30.05371669
v 70.79682867 104.37033982 30.62200670
v 72.52245386 104.45997207 30.62200670
v 73.38440079 104.73260135 31.48396520
v 73.82402888 104.60437901 31.04584285
v 73.82402888 104.47740085 30.62200670
v 73.82402888 104.36287218 30.24420450
v 56.14199430 102.11586045 43.38789049
v 56.99874988 102.68228034 43.34026983
v 59.58632200 102.86029809 43.59901521
v 58.72264375 102.86029809 43.53869313
v 73.82402888 106.10819471 43.36090416
v 73.38440079 106.10819471 43.36090416
v 72.52245386 105.44840747 43.58949108
v 70.79682867 105.44840747 43.56726810
v 69.93488109 105.44840747 43.53869313
v 64.76146688 104.58570605 43.56250475
v 61.31021587 103.72300207 43.54980590
v 56.99009461 101.70131515 33.25709280
v 56.99874988 101.90298514 34.07143064
v 57.89358142 102.27147014 34.06349386
v 58.20166722 102.46567249 34.34605087
v 58.37301936 102.39844830 33.77141144
v 58.55994687 102.32997994 33.20947085
v 58.99092098 102.49056891 33.20947085
v 59.14323257 102.43330329 32.76182372
v 59.61401525 102.51920044 32.42211934
v 59.34400799 102.35861146 32.18559694
v 56.14199430 101.53325596 34.07143064
v 56.38950095 101.64404953 34.07143064
v 60.44826893 102.79805575 32.34592499
v 60.45346158 102.56152820 31.49984004
v 60.74596944 102.47563106 30.91408848
v 60.76500871 101.60421269 28.36948357
v 62.47851858 102.46816085 29.21874323
v 62.18427941 102.26524668 28.91713731
v 60.46557689 101.38262299 28.06311494
v 61.03155463 102.37977535 30.33786169
v 61.31540851 102.28267289 29.76480962
v 62.18427941 102.55530217 29.76480962
v 61.60618635 102.47314013 30.05689140
v 60.13152916 100.98799739 27.38688154
v 59.58632200 100.79130411 27.38688154
v 70.11488625 103.20264249 27.38688154
v 69.98334396 103.19019299 27.38688154
v 69.72891400 103.26986411 27.65991506
v 69.98334396 103.41427105 27.98215724
v 71.66050628 104.42511451 30.62200670
v 70.79682867 104.62803125 31.48396520
v 69.07293384 103.66324809 28.89650105
v 69.90372651 104.04791512 29.81401892
v 69.59564103 104.14626176 30.21563210
v 69.93488109 104.55707196 31.48396520
v 72.52245386 104.70894911 31.48396520
v 73.38440079 104.93800645 32.21893269
v 73.82402888 104.73260135 31.48396520
v 56.31680649 102.54409943 43.25296141
v 56.14199430 102.20549013 43.35138003
v 58.72264375 103.45659625 43.30058465
v 59.58632200 103.60847340 43.36249280
v 73.82402888 106.32480512 42.69578418
v 73.38440079 106.32356094 42.69578418
v 71.66050628 106.07458133 43.34185590
v 70.79682867 106.05715255 43.33074569
v 69.93488109 106.02230013 43.30217072
v 69.07293384 105.44840747 43.48948639
v 65.62168315 105.26914554 43.35931809
v 64.76146688 105.19445371 43.32439627
v 63.89778863 104.58570605 43.47995969
v 61.31021587 104.32303534 43.31169743
v 62.17389412 104.43258472 43.36090416
v 56.99874988 102.09345239 34.93497650
v 58.72264375 102.79805575 34.93497650
v 58.68456521 102.58891555 34.06349386
v 57.62011283 102.35114125 34.93497650
v 58.05108566 102.52916157 34.93497650
v 59.58632200 102.92129881 34.07143064
v 59.58632200 102.70842350 33.20947085
v 56.14199430 101.70753861 34.83973259
v 56.14199430 101.72621157 34.92386501
v 60.44826893 103.00719596 33.20947085
v 61.11463438 103.22006870 33.20947085
v 61.38637295 103.11301024 32.41894463
v 61.31021587 102.83291074 31.48396520
v 61.31540851 102.56277238 30.62359405
v 61.36387234 101.67766034 28.06311494
v 61.68753479 101.58429555 27.55832109
v 61.11290307 101.49092820 27.79484414
v 63.03584170 102.78934136 29.75846019
v 63.89778863 103.00594921 29.75846019
v 63.10507418 102.52417972 28.91713731
v 62.86276017 102.36234657 28.64410380
v 63.43739125 103.29974238 31.02679394
v 62.17389412 101.92165810 28.03454190
v 61.19598282 101.35523564 27.38688154
v 60.40326772 101.08385310 27.38688154
v 62.17389412 102.81797289 30.62200670
v 69.89853386 103.18147860 27.38688154
v 69.73410632 103.16404983 27.38688154
v 69.07293384 103.23251819 27.75515896
v 69.07293384 103.39933320 28.18534518
v 71.66050628 104.67284738 31.48396520
v 70.79682867 104.86206787 32.34592499
v 69.93488109 104.79235533 32.34592499
v 69.07293384 103.95081523 29.75846019
v 68.20925591 103.34206758 28.33614782
v 68.20925591 103.54871942 28.89650105
v 68.20925591 103.83877492 29.75846019
v 69.07293384 104.11763024 30.31405072
v 69.07293384 104.24460840 30.74582429
v 69.07293384 104.45997207 31.48396520
v 72.52245386 104.92431278 32.27607877
v 73.38440079 105.04880259 32.65070626
v 73.82402888 105.04880259 32.65388097
v 73.82402888 104.93676227 32.22210740
v 73.82402888 104.83343635 31.84589320
v 56.20257344 102.59638319 42.69578418
v 56.14199430 102.56899584 42.69578418
v 56.14199430 102.49554819 43.07517245
v 58.13762803 103.34829361 43.20375210
v 60.64904435 104.22593287 43.22121430
v 73.82402888 106.29617360 41.83382439
v 73.38440079 106.29492942 41.83382439
v 72.52245386 106.25384583 40.97027853
v 72.52245386 106.27750064 41.83382439
v 72.52245386 106.29617360 42.69578418
v 70.79682867 106.22148177 42.69578418
v 71.66050628 106.26131604 42.69578418
v 69.07293384 105.97125798 43.25296141
v 68.20925591 105.92022096 43.18787855
v 67.69693400 105.88909594 43.14343002
v 63.89778863 105.10482146 43.24343728
v 63.36815876 105.04506748 43.16883028
v 56.14199430 101.73492596 34.96355019
v 57.04028847 102.27644942 35.78265009
v 57.48510920 102.40591594 35.48898031
v 57.80877165 102.59264809 35.78265009
v 58.72264375 102.95615380 35.79534893
v 59.40804718 103.20513085 35.79534893
v 59.64343852 103.13666248 34.97307432
v 60.14364447 103.24994697 34.71115294
v 60.43788493 103.19392810 34.02222133
v 60.92424425 103.27733432 33.70156651
v 61.25136804 103.45659625 34.02222133
v 61.54560721 103.35451707 33.20947085
v 61.72388202 103.29725145 32.75547430
v 61.97831134 103.22380380 32.18083487
v 62.55294306 103.30596584 31.86652947
v 62.22928062 103.11549859 31.54111257
v 62.15485613 101.65525227 27.38688154
v 61.82426973 101.55566403 27.38688154
v 61.51791396 101.46105249 27.38688154
v 63.89778863 102.71091443 28.89650105
v 63.89778863 103.21882452 30.41881875
v 64.38934125 103.27733432 30.23309301
v 64.71127302 103.19641646 29.74417335
v 65.37071452 103.25368208 29.44574215
v 63.43739125 102.43703840 28.44567856
v 63.01507176 101.90174096 27.38688154
v 63.10507418 102.21669545 28.10914954
v 63.10507418 103.36323146 31.54111257
v 63.89778863 103.55245196 31.48396520
v 63.89778863 103.35700800 30.85059233
v 62.86276017 103.21882452 31.29189003
v 62.73641052 101.82206728 27.38688154
v 69.07293384 103.08811125 27.38688154
v 68.20925591 102.97856186 27.38688154
v 71.67435290 104.92306860 32.42053327
v 70.79682867 104.99278114 32.88881602
v 71.39742233 105.00896575 32.81103303
v 69.93488109 104.95792616 33.03644524
v 69.07293384 104.69276451 32.34592499
v 69.09024212 104.91808932 33.26026880
v 69.38967361 105.03012706 33.58251098
v 68.20925591 104.06285554 30.49025233
v 67.70904932 103.30223331 28.43615443
v 67.35769362 102.85283045 27.38688154
v 67.39057887 103.12794809 28.10280012
v 67.13268757 103.25741718 28.55997138
v 66.48536139 103.35949636 29.13619881
v 67.72462725 104.16244636 31.02520658
v 67.34730833 103.70308494 29.75846019
v 68.20925591 104.19232207 30.92202590
v 68.20925591 104.35540197 31.48396520
v 72.52245386 105.03386216 32.70785235
v 73.38440079 105.17577818 33.20947085
v 72.52245386 105.15212594 33.20947085
v 73.82402888 105.11104492 32.92850120
v 56.22334274 102.58393627 41.83382439
v 56.14199430 102.56650749 42.57196659
v 56.99874988 102.93623666 42.69578418
v 56.99874988 102.91756371 41.83382439
v 60.12114387 104.11265095 42.69578418
v 59.58632200 103.92218371 42.69578418
v 58.72264375 103.61345268 42.69578418
v 58.07358626 103.37319003 42.69578418
v 57.64261343 103.19890738 42.69578418
v 60.55211798 104.25830207 42.69578418
v 73.82402888 106.26256022 40.97027853
v 73.38440079 106.26131604 40.97027853
v 72.52245386 106.20280881 40.10831874
v 71.66050628 106.22148177 40.97027853
v 71.66050628 106.24388726 41.83382439
v 70.79682867 106.19285024 41.83382439
v 69.93488109 106.12437931 41.83382439
v 69.93488109 106.15176665 42.69578418
v 69.07293384 106.05466419 42.69578418
v 68.20925591 105.95258502 42.69578418
v 67.69174136 105.89034011 42.69578418
v 67.26076789 105.82187432 42.69578418
v 66.48536139 105.68119991 42.69578418
v 65.62168315 105.52434604 42.69578418
v 64.76146688 105.36375707 42.69578418
v 63.89778863 105.18200421 42.69578418
v 63.34219618 105.05129094 42.69578418
v 61.31021587 104.48362431 42.69578418
v 56.14199430 101.89053565 35.78741216
v 57.22894857 102.51422115 36.65730744
v 57.35529693 102.45944646 36.06203238
v 56.79797446 102.32997994 36.65730744
v 57.86069681 102.76942166 36.65730744
v 58.79187559 103.12919227 36.70175468
v 59.25054295 103.25741718 36.44300801
v 59.55689872 103.40929176 36.70175468
v 59.83902129 103.35451707 35.79534893
v 59.97056359 103.30721002 35.28579237
v 60.43788493 103.39808645 34.97307432
v 61.31021587 103.67320666 34.93497650
v 60.71827619 103.34331176 34.27620465
v 62.17389412 103.74914524 34.07143064
v 62.17389412 103.53876086 33.20947085
v 62.22928062 103.35576125 32.41894463
v 63.03584170 103.56365728 32.34592499
v 64.76146688 102.91880789 28.89650105
v 64.96397232 103.34455850 30.02038158
v 65.64418375 103.40306830 29.74417335
v 65.94534624 103.31343605 29.26477783
v 65.64418375 103.13541830 28.94412300
v 63.89778863 102.49181309 28.30122535
v 64.75973621 102.58268952 27.99961879
v 64.47242035 102.39595738 27.69007545
v 63.89778863 102.32624483 27.86945178
v 63.89778863 102.13702176 27.38688154
v 63.71605313 102.08971728 27.38688154
v 63.89778863 103.79022626 32.34592499
v 64.76146688 103.74665431 31.48396520
v 64.71127302 103.45410789 30.56168526
v 71.97205341 105.02141267 32.75706166
v 70.79682867 105.08863686 33.32058960
v 71.66050628 105.31271748 34.07143064
v 69.93488109 105.05502605 33.46821752
v 71.67435290 105.09984217 33.14280063
v 68.20925591 104.58819441 32.34592499
v 68.20925591 104.79609044 33.20947085
v 68.81504222 104.99527207 33.72696420
v 69.09024212 105.09859542 34.03809489
v 69.93488109 105.18449257 34.07143064
v 67.13268757 102.81548196 27.38688154
v 66.48536139 103.20513085 28.70442524
v 67.40096416 104.00558992 30.69185227
v 67.14999553 104.11638349 31.17283451
v 67.40096416 104.24460840 31.46967900
v 66.48536139 103.56241310 29.75846019
v 73.38440079 105.36002196 34.07143064
v 73.82402888 105.36002196 34.07143064
v 73.82402888 105.17453400 33.20947085
v 72.52245386 105.34632829 34.07143064
v 56.14199430 102.51920044 40.97027853
v 56.14199430 102.54285268 41.66397348
v 56.14199430 102.54783453 41.83382439
v 57.67376802 103.19392810 41.83382439
v 56.99874988 102.87897104 40.97027853
v 56.24930468 102.56526074 40.97027853
v 58.14628072 103.35078197 40.97027853
v 57.71530789 103.17400839 40.97027853
v 60.16960770 104.10393656 41.83382439
v 59.58632200 103.90475493 41.83382439
v 58.72264375 103.59602391 41.83382439
v 58.10474213 103.36447564 41.83382439
v 61.31021587 104.46121625 41.83382439
v 60.60058181 104.24460840 41.83382439
v 73.82402888 106.23641705 40.53215553
v 73.38440079 106.20902970 40.10831874
v 72.52245386 106.12562349 39.24477288
v 71.66050628 106.16919543 40.10831874
v 73.38440079 106.14180809 39.24477288
v 73.38440079 106.06587208 38.38281309
v 70.79682867 106.15923687 40.97027853
v 69.93488109 106.08952175 40.97027853
v 69.07293384 106.01358574 40.97027853
v 69.07293384 106.03723541 41.83382439
v 68.14175410 105.92644185 41.82430025
v 67.74366588 105.88411922 42.10527119
v 67.41308012 105.82436268 41.82430025
v 66.48536139 105.67497645 41.83382439
v 65.62168315 105.51812001 41.83382439
v 64.76146688 105.34383736 41.83382439
v 63.89778863 105.15212594 41.83382439
v 64.76146688 105.31769420 40.97027853
v 63.40277468 105.03386216 41.83382439
v 62.97180186 104.92431278 41.83382439
v 62.17389412 104.68529687 40.97027853
v 62.17389412 104.71019329 41.83382439
v 56.14199430 102.03743095 36.65730744
v 57.06971303 102.58642462 37.52085458
v 57.86069681 102.90635839 37.52085458
v 56.63873891 102.39720155 37.52085458
v 59.12419330 103.30347748 37.01764872
v 59.58632200 103.54498432 37.52085458
v 60.44826893 103.84500095 37.52085458
v 60.44826893 103.70930840 36.65730744
v 60.44826893 103.55618706 35.79534893
v 61.31021587 103.83130728 35.79534893
v 62.17389412 103.93587738 34.93497650
v 62.80564236 104.10642492 34.93497650
v 63.09815087 104.00808085 34.13333879
v 63.03584170 103.77528841 33.20947085
v 65.62168315 103.66449227 30.62200670
v 66.65844356 104.20477156 31.74906130
v 66.48536139 103.82881635 30.62200670
v 65.62168315 102.78809462 28.03454190
v 65.04532076 102.46318156 27.51704855
v 64.92589442 102.38351045 27.38688154
v 64.65242519 102.31877462 27.38688154
v 63.94971315 104.01803942 33.25868016
v 64.27164558 104.16866982 33.57933627
v 64.57973137 104.10269239 33.00310948
v 64.82550736 104.01181596 32.41418385
v 65.62168315 104.10144564 32.12527614
v 66.08381184 104.14750594 31.93955039
v 65.62168315 103.92093953 31.48396520
v 70.79682867 105.25420768 34.07143064
v 71.66050628 105.49571452 34.93497650
v 67.34730833 104.47242156 32.34592499
v 68.20925591 105.05627023 34.33652674
v 67.34730833 104.67533573 33.20947085
v 69.07293384 105.28408339 34.93497650
v 69.93488109 105.36002196 34.93497650
v 70.79682867 105.43222544 34.93497650
v 66.47324608 102.69721819 27.38688154
v 66.48536139 102.95117452 28.03454190
v 73.38440079 105.53430461 34.93497650
v 73.82402888 105.53679554 34.93497650
v 72.52245386 105.52808115 34.93497650
v 56.14199430 102.50426258 40.72423070
v 56.99874988 102.82295217 40.10831874
v 56.30988382 102.53662921 40.10831874
v 58.21205251 103.32463880 40.10831874
v 57.78107840 103.14662105 40.10831874
v 56.14199430 102.46567249 40.10831874
v 58.72264375 103.57112749 40.97027853
v 60.23018556 104.08526361 40.97027853
v 59.58632200 103.87363248 40.97027853
v 61.31021587 104.43134054 40.97027853
v 60.66115967 104.22468870 40.97027853
v 73.82402888 106.21027388 40.10831874
v 72.52245386 106.03972891 38.38281309
v 71.66050628 106.08952175 39.24477288
v 70.30354539 105.88660758 37.90500492
v 70.79682867 106.03599124 39.24477288
v 70.79682867 106.10695053 40.10831874
v 73.82402888 106.14056391 39.24477288
v 73.82402888 106.10197382 38.80664988
v 73.38440079 105.96378776 37.52085458
v 73.82402888 106.06462276 38.38281309
v 69.93488109 106.03723541 40.10831874
v 69.07293384 105.96254359 40.10831874
v 68.50003343 105.90154800 40.10831874
v 68.31137429 105.92644185 40.97027853
v 67.80943703 105.87540226 41.53063047
v 67.88040018 105.86419952 40.97027853
v 67.34730833 105.77954655 40.97027853
v 66.48536139 105.64136564 40.97027853
v 65.62168315 105.49447034 40.97027853
v 63.83201749 105.10108635 40.99250279
v 64.76146688 105.26665461 40.10831874
v 63.50143173 105.00896575 40.71946863
v 63.44777589 105.02141267 41.29410806
v 63.11026682 104.92680371 40.99250279
v 62.17389412 104.63425471 40.10831874
v 56.14199430 102.16938839 37.51133045
v 57.86069681 103.01341942 38.38281309
v 56.56777577 102.42832401 37.95262816
v 56.91220751 102.61630290 38.29709332
v 58.44398123 103.23500912 38.38281309
v 58.59456279 103.18023443 37.52085458
v 59.02553690 103.33957922 37.52085458
v 59.58632200 103.65204278 38.38281309
v 58.87668665 103.39435391 38.38281309
v 60.44826893 103.94832687 38.38281309
v 60.99520740 104.12136534 38.38281309
v 61.17694355 104.06907901 37.52085458
v 61.38637295 104.00932503 36.72397894
v 62.17043278 104.07654922 35.72550272
v 62.62390750 104.14999687 35.39373640
v 63.89778863 104.37033982 34.93497650
v 63.42873727 104.16369054 34.46034433
v 63.69701386 104.09895728 33.88570490
v 66.41612891 104.29564799 32.27449142
v 65.62168315 102.53164993 27.38688154
v 66.22054614 102.64866953 27.38688154
v 65.17513239 102.43828514 27.38688154
v 64.76146688 104.39274788 34.07143064
v 63.94971315 104.21597431 34.13333879
v 65.62168315 104.57574749 34.07143064
v 65.15263178 104.16119961 32.74753752
v 65.62168315 104.20850667 32.55704842
v 71.66050628 105.64883328 35.79534893
v 70.79682867 105.58907930 35.79534893
v 66.48536139 104.53217554 33.20947085
v 67.74885853 105.02141267 34.48256731
v 68.20925591 105.17826911 34.93497650
v 67.41654146 104.89443708 34.14603892
v 66.48536139 104.72762207 34.07143064
v 68.20925591 105.33139044 35.79534893
v 69.07293384 105.43595797 35.79534893
v 69.93488109 105.51687583 35.79534893
v 73.38440079 105.69116105 35.79534893
v 73.82402888 105.69364941 35.79534893
v 72.52245386 105.67995573 35.79534893
v 56.99874988 102.74701360 39.24477288
v 56.40854022 102.49803912 39.24477288
v 58.72264375 103.51759697 40.10831874
v 58.26743901 103.30098656 39.58447597
v 56.14199430 102.38101952 39.24477288
v 60.31499661 104.05787626 40.10831874
v 59.58632200 103.82010196 40.10831874
v 61.31021587 104.37905421 40.10831874
v 60.74596944 104.19730135 40.10831874
v 72.53630048 105.92893021 37.46529585
v 71.66050628 105.91897164 37.66372044
v 70.79682867 105.89905450 37.80658630
v 71.66050628 106.00237786 38.38281309
v 69.98334396 105.90403636 38.43996046
v 69.93488109 105.96876962 39.24477288
v 70.79682867 105.83805635 37.37481273
v 70.79682867 105.72850696 36.65730744
v 69.93488109 105.65879442 36.65730744
v 69.07293384 105.56791799 36.65730744
v 69.07293384 105.69240523 37.52085458
v 69.72891400 105.85423838 38.19073792
v 69.46063708 105.88411922 38.76537735
v 73.38440079 105.89034011 37.02082344
v 72.83227032 105.88411922 37.05574526
v 73.82402888 105.96254359 37.52085458
v 68.63676772 105.88038155 39.67019574
v 67.34730833 105.57787656 38.38281309
v 67.34730833 105.65630349 39.24477288
v 68.06905964 105.83681217 40.10831874
v 67.34730833 105.72726021 40.10831874
v 66.48536139 105.58907930 40.10831874
v 65.62168315 105.44342818 40.10831874
v 64.76146688 105.18698350 39.24477288
v 64.27164558 105.03012706 38.68441965
v 64.16606586 105.05627023 39.24477288
v 64.01894628 105.09112778 40.10831874
v 63.58797217 104.98780186 40.10831874
v 63.03584170 104.85460023 40.10831874
v 63.03584170 104.77990584 39.24477288
v 62.17389412 104.55209267 39.24477288
v 61.24098403 104.27573085 39.21302448
v 56.14199430 102.18930810 37.65419631
v 57.93165996 103.13292737 39.27652128
v 58.34878745 103.26986411 39.00983782
v 56.49335128 102.46193739 38.52726630
v 56.14199430 102.27520524 38.30026803
v 59.58632200 103.74043085 39.24477288
v 58.67071987 103.41800615 39.27652128
v 60.50192412 104.04293584 39.21302448
v 60.90520498 104.14626176 38.90348114
v 61.42618151 104.24585258 38.38281309
v 61.60791638 104.19232207 37.52085458
v 61.72388202 104.15995544 37.05415790
v 61.88138625 104.11513931 36.47951847
v 62.45601797 104.19605717 35.96678848
v 63.03584170 104.46246042 36.65730744
v 63.89778863 104.67907084 36.65730744
v 63.89778863 104.52968461 35.79534893
v 64.76146688 104.57699166 34.93497650
v 65.62168315 104.36909564 33.20947085
v 65.62168315 104.75749777 34.93497650
v 71.66050628 105.77830237 36.65730744
v 67.17422681 104.97535237 34.71750236
v 67.41654146 105.06374044 34.97624903
v 67.34730833 105.20192135 35.79534893
v 66.51997796 104.91933349 34.97624903
v 67.34730833 105.34632829 36.65730744
v 68.20925591 105.46459207 36.65730744
v 73.38440079 105.82062757 36.59063722
v 73.82402888 105.75713849 36.18584998
v 56.14199430 102.29387820 38.46218344
v 60.82558785 104.17115818 39.47812058
v 72.25590793 105.87166716 37.13987768
v 71.66050628 105.85922023 37.23194687
v 68.20925591 105.58783513 37.52085458
v 68.20925591 105.69240523 38.38281309
v 69.13351266 105.81066900 38.43996046
v 73.82402888 105.85672931 36.80493665
v 67.34730833 105.47704156 37.52085458
v 66.48536139 105.43844890 38.38281309
v 66.48536139 105.51687583 39.24477288
v 65.62168315 105.36251032 39.24477288
v 64.41357252 105.00025136 38.10978022
v 63.94971315 104.92555696 38.39075115
v 63.73509175 104.95170012 39.24477288
v 63.03584170 104.69649962 38.38281309
v 62.17389412 104.45872789 38.38281309
v 63.03584170 104.59442044 37.52085458
v 62.17043278 104.23464726 36.72397894
v 63.89778863 104.81102829 37.52085458
v 64.84281532 104.89692543 36.73667779
v 64.76146688 104.73011043 35.79534893
v 65.66149236 104.92057767 35.82550998
v 66.25516270 104.98406676 35.55723788
v 66.82979442 105.03012706 35.29214179
v 66.51997796 105.07245483 35.82550998
v 66.48536139 105.20565645 36.65730744
v 66.48536139 105.33636972 37.52085458
v 65.62168315 105.27288064 38.38281309
v 65.62168315 105.16706636 37.52085458
v 64.60050067 104.96290287 37.52085458
v 65.18205570 105.01892431 37.07638217
v 65.40013844 104.97535237 36.50174274
v 65.97477015 105.03261799 36.13346467
v 65.66149236 105.06249369 36.73667779
f 1 2 6
f 1 6 12
f 1 12 25
f 1 25 41
f 1 41 62
f 1 62 92
f 1 92 135
f 1 135 185
f 1 185 246
f 1 246 245
f 1 245 317
f 1 317 397
f 1 397 396
f 1 396 395
f 1 395 472
f 1 472 477
f 1 477 552
f 1 552 618
f 1 618 593
f 1 593 589
f 1 589 508
f 1 508 431
f 1 431 344
f 1 344 261
f 1 261 207
f 1 207 206
f 1 206 156
f 1 156 109
f 1 109 108
f 1 108 107
f 1 107 100
f 1 100 66
f 1 66 65
f 1 65 43
f 1 43 27
f 1 27 20
f 1 20 19
f 1 19 13
f 1 13 7
f 1 7 3
f 1 3 9
f 1 9 21
f 1 21 34
f 1 34 33
f 1 33 32
f 1 32 52
f 1 52 77
f 1 77 79
f 1 79 121
f 1 121 170
f 1 170 169
f 1 169 223
f 1 223 222
f 1 222 279
f 1 279 278
f 1 278 277
f 1 277 292
f 1 292 286
f 1 286 371
f 1 371 370
f 1 370 451
f 1 451 450
f 1 450 529
f 1 529 527
f 1 527 528
f 1 528 467
f 1 467 385
f 1 385 304
f 1 304 294
f 1 294 293
f 1 293 226
f 1 226 225
f 1 225 172
f 1 172 171
f 1 171 123
f 1 123 82
f 1 82 81
f 1 81 80
f 1 80 54
f 1 54 35
f 1 35 22
f 1 22 10
f 1 10 4
f 1 4 5
f 1 5 2
f 2 5 6
f 3 7 8
f 3 8 9
f 4 10 23
f 4 23 39
f 4 39 61
f 4 61 91
f 4 91 90
f 4 90 134
f 4 134 133
f 4 133 132
f 4 132 183
f 4 183 243
f 4 243 242
f 4 242 241
f 4 241 315
f 4 315 393
f 4 393 392
f 4 392 470
f 4 470 546
f 4 546 617
f 4 617 625
f 4 625 572
f 4 572 492
f 4 492 490
f 4 490 489
f 4 489 483
f 4 483 409
f 4 409 326
f 4 326 249
f 4 249 188
f 4 188 139
f 4 139 95
f 4 95 63
f 4 63 42
f 4 42 26
f 4 26 24
f 4 24 11
f 4 11 5
f 5 11 6
f 6 11 12
f 7 13 8
f 8 14 15
f 8 15 16
f 8 16 17
f 8 17 18
f 8 18 9
f 8 13 19
f 8 19 20
f 8 20 14
f 9 18 21
f 10 22 23
f 11 24 12
f 12 24 26
f 12 26 25
f 14 20 27
f 14 27 15
f 15 27 28
f 15 28 29
f 15 29 30
f 15 30 31
f 15 31 16
f 16 31 17
f 17 31 32
f 17 32 33
f 17 33 34
f 17 34 21
f 17 21 18
f 22 35 36
f 22 36 37
f 22 37 38
f 22 38 23
f 23 38 39
f 25 40 41
f 25 26 40
f 26 42 64
f 26 64 99
f 26 99 93
f 26 93 62
f 26 62 41
f 26 41 40
f 27 43 28
f 28 43 44
f 28 44 45
f 28 45 29
f 29 45 46
f 29 46 47
f 29 47 48
f 29 48 49
f 29 49 50
f 29 50 30
f 30 50 51
f 30 51 31
f 31 52 32
f 31 51 53
f 31 53 52
f 35 54 55
f 35 55 36
f 36 55 56
f 36 56 57
f 36 57 58
f 36 58 37
f 37 59 60
f 37 60 38
f 37 58 59
f 38 60 61
f 38 61 39
f 42 63 64
f 43 65 44
f 44 65 66
f 44 66 67
f 44 67 68
f 44 68 69
f 44 69 45
f 45 69 46
f 46 69 70
f 46 70 48
f 46 48 47
f 48 70 49
f 49 70 71
f 49 71 72
f 49 72 73
f 49 73 74
f 49 74 75
f 49 75 50
f 50 76 51
f 50 75 76
f 51 76 53
f 52 53 77
f 53 76 78
f 53 78 79
f 53 79 77
f 54 80 55
f 55 80 81
f 55 81 56
f 56 81 82
f 56 82 83
f 56 83 57
f 57 83 58
f 58 84 59
f 58 83 85
f 58 85 86
f 58 86 84
f 59 87 88
f 59 88 89
f 59 89 90
f 59 90 91
f 59 91 60
f 59 84 125
f 59 125 87
f 60 91 61
f 62 93 94
f 62 94 92
f 63 95 96
f 63 96 64
f 64 96 97
f 64 97 98
f 64 98 99
f 66 100 67
f 67 100 68
f 68 101 102
f 68 102 103
f 68 103 104
f 68 104 105
f 68 105 106
f 68 106 69
f 68 100 107
f 68 107 108
f 68 108 109
f 68 109 110
f 68 110 101
f 69 106 70
f 70 105 111
f 70 111 71
f 70 106 105
f 71 111 72
f 72 112 113
f 72 113 73
f 72 111 105
f 72 105 112
f 73 113 114
f 73 114 74
f 74 115 116
f 74 116 117
f 74 117 75
f 74 114 118
f 74 118 119
f 74 119 115
f 75 117 120
f 75 120 78
f 75 78 76
f 78 121 79
f 78 120 122
f 78 122 121
f 82 123 83
f 83 123 124
f 83 124 85
f 84 86 126
f 84 126 127
f 84 127 128
f 84 128 129
f 84 129 125
f 85 124 86
f 86 124 126
f 87 130 131
f 87 131 88
f 87 125 130
f 88 131 132
f 88 132 133
f 88 133 134
f 88 134 89
f 89 134 90
f 92 94 136
f 92 136 135
f 93 99 137
f 93 137 94
f 94 137 138
f 94 138 136
f 95 139 140
f 95 140 96
f 96 140 141
f 96 141 97
f 97 141 142
f 97 142 143
f 97 143 144
f 97 144 98
f 98 145 137
f 98 137 99
f 98 144 145
f 101 110 146
f 101 146 147
f 101 147 102
f 102 147 148
f 102 148 149
f 102 149 150
f 102 150 103
f 103 150 151
f 103 151 104
f 104 151 152
f 104 152 153
f 104 153 154
f 104 154 155
f 104 155 105
f 105 155 112
f 109 156 110
f 110 156 157
f 110 157 147
f 110 147 146
f 112 155 154
f 112 154 158
f 112 158 159
f 112 159 113
f 113 159 160
f 113 160 114
f 114 160 118
f 115 161 117
f 115 117 116
f 115 119 162
f 115 162 163
f 115 163 161
f 117 161 164
f 117 164 120
f 118 160 165
f 118 165 166
f 118 166 119
f 119 167 162
f 119 166 168
f 119 168 167
f 120 164 169
f 120 169 122
f 121 122 170
f 122 169 170
f 123 171 124
f 124 171 172
f 124 172 173
f 124 173 174
f 124 174 126
f 125 175 130
f 125 129 176
f 125 176 175
f 126 174 177
f 126 177 178
f 126 178 127
f 127 178 128
f 128 178 179
f 128 179 129
f 129 180 176
f 129 179 180
f 130 181 131
f 130 175 181
f 131 182 183
f 131 183 132
f 131 181 182
f 135 136 184
f 135 184 185
f 136 138 186
f 136 186 184
f 137 145 138
f 138 145 187
f 138 187 186
f 139 188 140
f 140 188 189
f 140 189 190
f 140 190 142
f 140 142 141
f 142 190 191
f 142 191 143
f 143 191 192
f 143 192 193
f 143 193 194
f 143 194 144
f 144 194 195
f 144 195 196
f 144 196 145
f 145 197 187
f 145 196 198
f 145 198 197
f 147 157 199
f 147 199 149
f 147 149 148
f 149 200 201
f 149 201 150
f 149 199 202
f 149 202 203
f 149 203 200
f 150 201 151
f 151 201 152
f 152 201 204
f 152 204 205
f 152 205 153
f 153 205 154
f 154 205 158
f 156 206 157
f 157 206 207
f 157 207 199
f 158 205 204
f 158 204 208
f 158 208 209
f 158 209 210
f 158 210 211
f 158 211 159
f 159 211 160
f 160 211 212
f 160 212 168
f 160 168 165
f 161 163 213
f 161 213 214
f 161 214 215
f 161 215 164
f 162 216 217
f 162 217 218
f 162 218 219
f 162 219 163
f 162 167 220
f 162 220 216
f 163 219 221
f 163 221 213
f 164 215 222
f 164 222 223
f 164 223 169
f 165 168 166
f 167 168 211
f 167 211 224
f 167 224 220
f 168 212 211
f 172 225 173
f 173 225 226
f 173 226 227
f 173 227 228
f 173 228 177
f 173 177 174
f 175 229 181
f 175 176 229
f 176 230 229
f 176 180 231
f 176 231 230
f 177 232 178
f 177 228 233
f 177 233 234
f 177 234 235
f 177 235 232
f 178 232 179
f 179 232 236
f 179 236 180
f 180 236 237
f 180 237 238
f 180 238 231
f 181 239 182
f 181 229 239
f 182 240 241
f 182 241 242
f 182 242 243
f 182 243 183
f 182 239 240
f 184 244 245
f 184 245 246
f 184 246 185
f 184 186 247
f 184 247 244
f 186 187 197
f 186 197 248
f 186 248 247
f 188 249 250
f 188 250 189
f 189 250 251
f 189 251 252
f 189 252 253
f 189 253 191
f 189 191 190
f 191 254 192
f 191 253 255
f 191 255 254
f 192 254 256
f 192 256 194
f 192 194 193
f 194 256 195
f 195 256 257
f 195 257 258
f 195 258 259
f 195 259 197
f 195 197 198
f 195 198 196
f 197 259 260
f 197 260 248
f 199 207 261
f 199 261 262
f 199 262 263
f 199 263 202
f 200 203 264
f 200 264 265
f 200 265 266
f 200 266 267
f 200 267 204
f 200 204 201
f 202 263 203
f 203 263 264
f 204 267 268
f 204 268 269
f 204 269 208
f 208 269 270
f 208 270 209
f 209 270 271
f 209 271 272
f 209 272 210
f 210 272 273
f 210 273 274
f 210 274 211
f 211 274 275
f 211 275 276
f 211 276 224
f 213 221 214
f 214 221 277
f 214 277 278
f 214 278 279
f 214 279 215
f 215 279 222
f 216 220 217
f 217 280 218
f 217 220 281
f 217 281 282
f 217 282 283
f 217 283 284
f 217 284 280
f 218 280 285
f 218 285 219
f 219 286 221
f 219 285 287
f 219 287 286
f 220 288 289
f 220 289 290
f 220 290 281
f 220 224 291
f 220 291 288
f 221 286 292
f 221 292 277
f 224 276 291
f 226 293 227
f 227 293 294
f 227 294 228
f 228 294 233
f 229 295 239
f 229 230 295
f 230 296 297
f 230 297 295
f 230 231 296
f 231 298 296
f 231 238 299
f 231 299 300
f 231 300 301
f 231 301 298
f 232 235 302
f 232 302 236
f 233 303 234
f 233 294 304
f 233 304 305
f 233 305 303
f 234 303 306
f 234 306 307
f 234 307 235
f 235 308 302
f 235 307 309
f 235 309 308
f 236 302 310
f 236 310 237
f 237 310 238
f 238 310 311
f 238 311 380
f 238 380 299
f 239 295 312
f 239 312 240
f 240 313 241
f 240 312 314
f 240 314 313
f 241 313 315
f 244 316 317
f 244 317 245
f 244 247 318
f 244 318 319
f 244 319 316
f 247 248 320
f 247 320 321
f 247 321 322
f 247 322 323
f 247 323 324
f 247 324 318
f 248 260 325
f 248 325 320
f 249 326 327
f 249 327 250
f 250 327 251
f 251 328 329
f 251 329 252
f 251 327 328
f 252 329 330
f 252 330 253
f 253 330 255
f 254 331 332
f 254 332 333
f 254 333 258
f 254 258 257
f 254 257 256
f 254 255 330
f 254 330 329
f 254 329 331
f 258 333 334
f 258 334 335
f 258 335 336
f 258 336 337
f 258 337 338
f 258 338 339
f 258 339 340
f 258 340 260
f 258 260 259
f 260 340 341
f 260 341 342
f 260 342 343
f 260 343 325
f 261 344 262
f 262 345 346
f 262 346 263
f 262 344 347
f 262 347 345
f 263 346 264
f 264 348 265
f 264 346 348
f 265 349 350
f 265 350 266
f 265 348 349
f 266 351 352
f 266 352 353
f 266 353 267
f 266 350 351
f 267 353 268
f 268 353 354
f 268 354 355
f 268 355 356
f 268 356 269
f 269 356 270
f 270 356 271
f 271 355 357
f 271 357 272
f 271 356 355
f 272 357 273
f 273 357 358
f 273 358 359
f 273 359 274
f 274 359 275
f 275 359 360
f 275 360 288
f 275 288 276
f 276 288 291
f 280 284 361
f 280 361 285
f 281 290 282
f 282 362 283
f 282 290 362
f 283 362 284
f 284 362 363
f 284 363 364
f 284 364 365
f 284 365 361
f 285 361 366
f 285 366 367
f 285 367 368
f 285 368 369
f 285 369 370
f 285 370 371
f 285 371 287
f 286 287 371
f 288 372 289
f 288 360 372
f 289 372 373
f 289 373 374
f 289 374 290
f 290 374 362
f 295 375 312
f 295 297 375
f 296 376 377
f 296 377 297
f 296 298 378
f 296 378 376
f 297 377 379
f 297 379 375
f 298 301 378
f 299 380 300
f 300 380 381
f 300 381 382
f 300 382 301
f 301 382 383
f 301 383 384
f 301 384 378
f 302 308 310
f 303 305 306
f 304 385 386
f 304 386 305
f 305 386 306
f 306 386 307
f 307 386 364
f 307 364 309
f 308 387 388
f 308 388 389
f 308 389 311
f 308 311 310
f 308 309 387
f 309 388 387
f 309 364 390
f 309 390 388
f 311 389 380
f 312 375 379
f 312 379 314
f 313 391 392
f 313 392 393
f 313 393 315
f 313 314 394
f 313 394 391
f 314 379 377
f 314 377 394
f 316 395 396
f 316 396 397
f 316 397 317
f 316 319 395
f 318 324 398
f 318 398 319
f 319 399 400
f 319 400 395
f 319 398 401
f 319 401 402
f 319 402 399
f 320 403 404
f 320 404 321
f 320 325 403
f 321 404 405
f 321 405 322
f 322 405 323
f 323 405 406
f 323 406 398
f 323 398 324
f 325 343 407
f 325 407 408
f 325 408 403
f 326 409 327
f 327 410 328
f 327 409 410
f 328 411 412
f 328 412 329
f 328 410 413
f 328 413 414
f 328 414 411
f 329 412 488
f 329 488 415
f 329 415 331
f 331 415 332
f 332 415 416
f 332 416 417
f 332 417 333
f 333 417 418
f 333 418 334
f 334 418 335
f 335 418 419
f 335 419 336
f 336 419 420
f 336 420 337
f 337 420 421
f 337 421 422
f 337 422 338
f 338 422 423
f 338 423 339
f 339 423 340
f 340 423 424
f 340 424 341
f 341 425 342
f 341 424 426
f 341 426 425
f 342 425 427
f 342 427 428
f 342 428 429
f 342 429 430
f 342 430 343
f 343 430 407
f 344 431 347
f 345 347 432
f 345 432 433
f 345 433 348
f 345 348 346
f 347 431 434
f 347 434 432
f 348 433 349
f 349 435 350
f 349 433 435
f 350 435 351
f 351 435 436
f 351 436 437
f 351 437 438
f 351 438 352
f 352 438 439
f 352 439 353
f 353 439 355
f 353 355 354
f 355 439 440
f 355 440 441
f 355 441 357
f 357 441 442
f 357 442 443
f 357 443 444
f 357 444 358
f 358 444 360
f 358 360 359
f 360 444 372
f 361 365 367
f 361 367 366
f 362 374 373
f 362 373 363
f 363 445 446
f 363 446 447
f 363 447 364
f 363 373 445
f 364 447 390
f 364 386 365
f 365 386 448
f 365 448 367
f 367 448 449
f 367 449 368
f 368 449 450
f 368 450 451
f 368 451 370
f 368 370 369
f 372 452 453
f 372 453 454
f 372 454 455
f 372 455 373
f 372 444 452
f 373 455 456
f 373 456 457
f 373 457 458
f 373 458 445
f 376 459 377
f 376 378 459
f 377 459 460
f 377 460 394
f 378 384 459
f 380 389 461
f 380 461 381
f 381 462 382
f 381 461 463
f 381 463 462
f 382 462 383
f 383 464 384
f 383 462 464
f 384 465 466
f 384 466 459
f 384 464 465
f 385 467 468
f 385 468 386
f 386 468 448
f 388 390 447
f 388 447 446
f 388 446 389
f 389 446 461
f 391 469 470
f 391 470 392
f 391 394 471
f 391 471 469
f 394 460 471
f 395 400 472
f 398 406 401
f 399 473 474
f 399 474 400
f 399 402 475
f 399 475 476
f 399 476 473
f 400 474 477
f 400 477 472
f 401 406 478
f 401 478 475
f 401 475 402
f 403 479 480
f 403 480 404
f 403 408 479
f 404 480 478
f 404 478 405
f 405 478 406
f 407 481 408
f 407 430 429
f 407 429 481
f 408 481 482
f 408 482 479
f 409 483 410
f 410 483 413
f 411 484 485
f 411 485 412
f 411 414 484
f 412 485 486
f 412 486 487
f 412 487 488
f 413 483 489
f 413 489 490
f 413 490 414
f 414 491 484
f 414 490 492
f 414 492 572
f 414 572 491
f 415 488 493
f 415 493 416
f 416 493 494
f 416 494 417
f 417 494 495
f 417 495 496
f 417 496 418
f 418 496 419
f 419 496 420
f 420 497 421
f 420 496 497
f 421 497 498
f 421 498 499
f 421 499 500
f 421 500 422
f 422 500 501
f 422 501 423
f 423 501 424
f 424 501 426
f 425 502 427
f 425 426 502
f 426 501 579
f 426 579 503
f 426 503 504
f 426 504 502
f 427 505 506
f 427 506 428
f 427 502 505
f 428 506 429
f 429 506 507
f 429 507 481
f 431 508 434
f 432 509 433
f 432 434 510
f 432 510 511
f 432 511 509
f 433 509 512
f 433 512 513
f 433 513 435
f 434 508 510
f 435 513 514
f 435 514 436
f 436 515 437
f 436 514 516
f 436 516 515
f 437 515 517
f 437 517 518
f 437 518 519
f 437 519 520
f 437 520 438
f 438 520 440
f 438 440 439
f 440 520 521
f 440 521 441
f 441 521 522
f 441 522 442
f 442 522 523
f 442 523 524
f 442 524 443
f 443 524 525
f 443 525 452
f 443 452 444
f 445 458 446
f 446 458 457
f 446 457 526
f 446 526 461
f 448 527 449
f 448 468 467
f 448 467 528
f 448 528 527
f 449 527 529
f 449 529 450
f 452 525 453
f 453 530 454
f 453 525 531
f 453 531 530
f 454 530 532
f 454 532 533
f 454 533 455
f 455 533 456
f 456 534 457
f 456 533 534
f 457 534 526
f 459 466 460
f 460 535 471
f 460 466 536
f 460 536 535
f 461 526 537
f 461 537 463
f 462 538 539
f 462 539 464
f 462 463 538
f 463 540 538
f 463 537 541
f 463 541 540
f 464 539 542
f 464 542 543
f 464 543 544
f 464 544 465
f 465 544 536
f 465 536 466
f 469 545 546
f 469 546 470
f 469 471 545
f 471 535 547
f 471 547 545
f 473 476 548
f 473 548 474
f 474 548 549
f 474 549 477
f 475 478 550
f 475 550 551
f 475 551 548
f 475 548 476
f 477 549 552
f 478 480 554
f 478 554 550
f 479 482 556
f 479 556 553
f 479 553 554
f 479 554 480
f 481 555 482
f 481 507 555
f 482 555 556
f 484 491 557
f 484 557 558
f 484 558 559
f 484 559 560
f 484 560 485
f 485 560 486
f 486 561 562
f 486 562 487
f 486 560 559
f 486 559 563
f 486 563 564
f 486 564 565
f 486 565 566
f 486 566 567
f 486 567 568
f 486 568 569
f 486 569 561
f 487 562 488
f 488 562 493
f 491 570 571
f 491 571 557
f 491 572 570
f 493 562 494
f 494 569 573
f 494 573 495
f 494 562 569
f 495 573 574
f 495 574 575
f 495 575 576
f 495 576 498
f 495 498 496
f 496 498 497
f 498 576 577
f 498 577 499
f 499 577 578
f 499 578 500
f 500 578 579
f 500 579 501
f 502 504 506
f 502 506 505
f 503 580 581
f 503 581 582
f 503 582 583
f 503 583 504
f 503 579 580
f 504 584 585
f 504 585 506
f 504 583 584
f 506 585 507
f 507 585 586
f 507 586 587
f 507 587 588
f 507 588 555
f 508 589 510
f 509 590 551
f 509 551 591
f 509 591 512
f 509 511 590
f 510 592 511
f 510 589 593
f 510 593 592
f 511 592 549
f 511 549 548
f 511 548 590
f 512 591 516
f 512 516 514
f 512 514 513
f 515 594 517
f 515 516 595
f 515 595 594
f 516 591 595
f 517 596 597
f 517 597 518
f 517 594 596
f 518 597 588
f 518 588 587
f 518 587 598
f 518 598 519
f 519 598 599
f 519 599 600
f 519 600 520
f 520 600 601
f 520 601 521
f 521 601 602
f 521 602 522
f 522 602 603
f 522 603 604
f 522 604 605
f 522 605 523
f 523 605 606
f 523 606 524
f 524 606 531
f 524 531 525
f 526 534 607
f 526 607 532
f 526 532 537
f 530 531 606
f 530 606 532
f 532 607 533
f 532 606 608
f 532 608 541
f 532 541 537
f 533 607 534
f 535 536 564
f 535 564 563
f 535 563 609
f 535 609 571
f 535 571 547
f 536 544 565
f 536 565 564
f 538 540 541
f 538 541 610
f 538 610 611
f 538 611 539
f 539 611 612
f 539 612 542
f 541 608 613
f 541 613 610
f 542 612 614
f 542 614 615
f 542 615 543
f 543 615 566
f 543 566 565
f 543 565 544
f 545 547 616
f 545 616 546
f 546 616 617
f 547 571 570
f 547 570 616
f 548 551 590
f 549 592 552
f 550 595 551
f 550 554 594
f 550 594 595
f 551 595 591
f 552 592 618
f 553 556 619
f 553 619 554
f 554 619 596
f 554 596 594
f 555 588 597
f 555 597 619
f 555 619 556
f 557 571 620
f 557 620 621
f 557 621 558
f 558 621 559
f 559 621 609
f 559 609 563
f 561 569 562
f 566 615 567
f 567 615 622
f 567 622 568
f 568 622 623
f 568 623 624
f 568 624 569
f 569 624 573
f 570 572 625
f 570 625 617
f 570 617 616
f 571 609 620
f 573 624 623
f 573 623 574
f 574 623 626
f 574 626 627
f 574 627 628
f 574 628 575
f 575 577 576
f 575 628 578
f 575 578 577
f 578 628 579
f 579 629 580
f 579 628 627
f 579 627 629
f 580 629 581
f 581 629 630
f 581 630 631
f 581 631 582
f 582 631 632
f 582 632 585
f 582 585 584
f 582 584 583
f 585 632 586
f 586 633 587
f 586 632 631
f 586 631 633
f 587 633 634
f 587 634 598
f 592 593 618
f 596 619 597
f 598 634 599
f 599 634 635
f 599 635 600
f 600 635 636
f 600 636 601
f 601 636 602
f 602 636 603
f 603 635 637
f 603 637 604
f 603 636 635
f 604 637 638
f 604 638 639
f 604 639 605
f 605 639 606
f 606 639 608
f 608 640 641
f 608 641 613
f 608 639 640
f 609 621 620
f 610 642 611
f 610 613 642
f 611 642 612
f 612 642 641
f 612 641 643
f 612 643 614
f 613 641 642
f 614 626 615
f 614 643 644
f 614 644 645
f 614 645 626
f 615 626 622
f 622 626 623
f 626 645 627
f 627 645 646
f 627 646 629
f 629 646 630
f 630 646 647
f 630 647 648
f 630 648 637
f 630 637 631
f 631 637 633
f 633 635 634
f 633 637 635
f 637 648 638
f 638 649 650
f 638 650 639
f 638 648 649
f 639 650 640
f 640 651 641
f 640 650 651
f 641 651 644
f 641 644 643
f 644 651 645
f 645 651 652
f 645 652 649
f 645 649 647
f 645 647 646
f 647 649 648
f 649 652 650
f 650 652 651

