# https://github.com/mikedh/trimesh
v 110.19753667 62.75539288 29.12560658
v 107.55772706 76.35666143 29.12560658
v 115.07199592 62.75539288 29.12560658
v 113.60340281 62.75539288 42.69527905
v 112.76709391 76.35666143 29.12560658
v 111.19648846 76.35666143 42.69527905
v 115.07199592 63.18409328 29.12560658
v 115.17978444 62.75539288 29.45294566
v 113.80742749 62.75539288 43.03253620
v 111.48712749 76.35666143 43.33861949
v 112.90856521 76.35666143 29.52804878
v 113.44461070 74.66582311 29.47420144
v 113.20209104 75.02262980 29.12560658
v 115.05082433 64.04682104 29.12560658
v 115.17016005 64.04682104 29.47136734
v 115.31547956 64.04682104 29.90356763
v 115.17978444 63.18409328 29.45294566
v 115.31740495 62.75539288 29.88372890
v 114.00856536 62.75539288 43.36412515
v 112.20121386 76.12100918 43.57526786
v 112.20121386 76.35666143 43.58235248
v 112.98555517 76.35666143 29.76044535
v 113.06447052 76.12100918 29.75902830
v 113.34933594 75.25828206 29.76044535
v 113.53218645 74.09067085 29.22763435
v 113.46482088 74.18786071 29.12560658
v 113.54181084 74.97070592 30.04952337
v 113.62649980 74.38490359 29.76044535
v 115.01425474 64.90954816 29.12560658
v 115.15283666 64.90954816 29.52663173
v 115.29815618 64.90954816 29.95883203
v 115.53778903 64.04682104 30.62201184
v 115.31740495 63.18409328 29.88372890
v 115.54356264 62.75539288 30.62201184
v 114.78809448 62.75539288 43.60218992
v 113.06254513 74.39555494 43.60218992
v 113.06254513 76.35666143 43.60218992
v 113.18765446 76.35666143 30.38536411
v 113.34837196 76.11302099 30.62484594
v 113.44653609 75.54585691 30.34143613
v 113.55047125 73.88297790 29.12560658
v 113.86035905 73.53282782 29.75902830
v 113.62938660 75.25828206 30.62484594
v 113.89404183 74.39555494 30.62201184
v 114.98442016 65.45674112 29.12560658
v 115.26350941 65.77227560 30.05094042
v 115.50218085 64.90954816 30.62201184
v 114.96324857 65.77227560 29.12560658
v 115.12588889 65.77227560 29.62015718
v 115.74470051 64.90954816 31.48357832
v 115.77934728 64.04682104 31.48357832
v 115.79474527 63.18409328 31.48357832
v 115.54356264 63.18409328 30.62201184
v 115.79474527 62.75539288 31.48357832
v 115.65038717 62.75539288 43.60218992
v 113.92580180 76.12100918 43.60218992
v 113.92580180 76.35666143 43.60077351
v 113.42824872 76.35666143 31.14065168
v 113.44845891 76.35666143 31.20441967
v 113.53796263 75.82011982 30.91534101
v 113.65344757 73.48090394 29.12560658
v 114.17313365 73.45960189 30.69711561
v 114.28765718 72.67143100 30.41795631
v 114.34636234 72.19879491 30.22382080
v 114.41854011 71.62364392 30.01409706
v 114.07304413 72.67143100 29.75902830
v 113.85458544 72.67143100 29.12560658
v 113.70637913 73.27054784 29.12560658
v 113.89019362 75.25828206 31.48357832
v 114.28573179 73.69791794 31.29936153
v 114.18083264 74.33431129 31.54592862
v 114.36849535 74.00546391 31.87468410
v 115.23656421 66.40733865 30.13596356
v 115.43673810 65.77227560 30.62201184
v 115.68792074 65.77227560 31.48357832
v 114.91416522 66.36074077 29.12560658
v 114.89010682 66.64299091 29.12560658
v 115.11049090 66.66961832 29.81287629
v 115.21250324 66.98115902 30.21390143
v 115.92755359 65.77227560 32.34656122
v 116.06324872 65.77227560 32.86236824
v 115.98914556 64.90954816 32.41883153
v 115.98914556 64.04682104 32.27712630
v 116.11714169 63.18409328 32.64981040
v 115.99973136 63.18409328 32.21902716
v 115.99973136 62.75539288 32.21902716
v 116.51267985 62.75539288 43.59794070
v 115.65038717 70.08324964 43.60218992
v 114.78809448 73.53282782 43.60218992
v 114.78809448 74.39555494 43.59794070
v 114.78809448 75.25828206 43.54975963
v 114.81600366 76.35666143 43.37121233
v 113.46674627 76.35666143 31.26393587
v 113.62072619 76.11302099 31.50199936
v 114.42238832 73.45960189 31.54592862
v 114.36176033 73.12276567 31.03579045
v 114.41854011 72.67143100 30.84873956
v 114.60909219 72.67143100 31.48357832
v 114.52536464 71.86994688 30.55541038
v 114.74478731 70.94597676 30.62201184
v 114.47435847 70.91668651 29.73918957
v 114.31748918 71.18562311 29.43877513
v 114.12308889 71.54376138 29.12560658
v 114.05668473 71.82468026 29.12560658
v 113.90751443 72.45175512 29.12560658
v 113.86420983 76.12100918 32.34656122
v 114.17602045 75.18638835 32.41741383
v 114.28573179 74.58061489 32.17651559
v 114.42238832 74.33431129 32.41741383
v 114.63315058 73.53282782 32.34656122
v 115.61670438 66.63367146 31.48357832
v 115.33953796 66.66961832 30.54974217
v 115.85826263 66.63367146 32.34656122
v 114.79675489 67.49639858 29.12560658
v 115.01329076 67.49639858 29.75902830
v 115.18844484 67.49639858 30.29183931
v 115.31740495 67.49639858 30.72403960
v 116.02860452 66.63367146 33.01115808
v 116.15852604 65.77227560 33.29315084
v 116.37602332 64.90954816 34.07111188
v 116.16526105 64.90954816 33.13869279
v 116.07575991 65.19579271 32.80426845
v 116.08827110 64.62197235 32.75467227
v 116.09981830 64.04682104 32.70791019
v 116.21723120 64.04682104 33.20954540
v 116.24610180 63.18409328 33.20954540
v 116.11714169 62.75539288 32.64981040
v 116.51267985 63.18409328 43.59794070
v 117.17287582 62.75539288 43.35987592
v 115.65038717 70.94597676 43.59652171
v 115.65038717 71.80870388 43.56251246
v 115.65038717 72.67143100 43.48032472
v 115.38862131 75.25828206 43.31311126
v 115.29141859 75.91997284 43.22100351
v 115.20961644 76.35666143 42.69527905
v 113.57934441 76.35666143 31.63803638
v 114.85642404 72.67143100 32.34656122
v 114.80734326 71.80870388 31.48357832
v 114.98730697 70.94597676 31.48357832
v 115.21058042 70.46801499 31.94553607
v 115.13743867 70.14182949 31.48074422
v 114.90069262 70.08324964 30.62201184
v 114.37619435 70.61047148 29.27439707
v 114.62930237 70.08324964 29.75902830
v 114.29343078 70.75026545 29.12560658
v 114.23857383 71.01387638 29.12560658
v 113.78529448 76.35666143 32.36781764
v 113.99797956 76.35666143 33.20954540
v 114.08074313 76.12100918 33.20954540
v 114.29054398 75.46331313 33.20954540
v 113.71407813 76.35666143 32.10141182
v 114.36368573 74.85088307 32.75183816
v 114.85161184 73.53282782 33.20954540
v 115.53201543 67.49639858 31.48357832
v 115.76009850 67.49639858 32.34656122
v 114.68512073 68.35912634 29.12560658
v 114.90357942 68.35912634 29.75902830
v 115.13551328 68.35912634 30.46755314
v 115.26447339 68.35912634 30.89833638
v 115.98433336 67.47909094 33.25772518
v 116.09597009 67.18086442 33.57797770
v 116.12387927 66.63367146 33.44335838
v 116.32405317 65.77227560 34.07111188
v 116.56079922 64.90954816 34.93409478
v 116.41066751 64.04682104 34.07111188
v 116.24610180 62.75539288 33.20954540
v 116.59544599 64.04682104 34.93409478
v 116.42895488 63.18409328 34.07111188
v 116.51267985 64.04682104 43.58943710
v 117.17287582 63.18409328 43.35987592
v 117.28162317 62.75539288 43.02545158
v 116.51267985 64.90954816 43.57951709
v 116.51267985 65.77227560 43.56676426
v 116.51267985 66.63367146 43.53983962
v 116.33464154 70.94597676 43.35987592
v 116.25957440 71.80870388 43.32444768
v 116.17007325 72.67143100 43.24225994
v 116.10944269 73.20131600 43.16857322
v 115.32413997 76.01716270 42.69527905
v 115.18459663 76.35666143 41.83371128
v 115.07392131 71.75411812 32.40891152
v 115.09124470 72.62616501 33.25063927
v 115.17016005 72.00441518 32.99131935
v 115.16246105 70.94597676 32.12408466
v 115.27987138 70.94597676 32.55486854
v 115.36263495 70.14182949 32.27854335
v 115.26254800 69.89286337 31.76557108
v 115.17978444 69.42022728 31.19024915
v 115.22886521 68.84507565 31.02161993
v 115.07392131 69.16859864 30.68861329
v 114.42335230 70.03931395 29.12560658
v 114.41565331 70.08324964 29.12560658
v 114.77077110 69.22185346 29.75902830
v 114.18660625 76.35666143 34.03143442
v 114.25974800 76.12899737 34.01726390
v 114.34539836 75.65103625 33.69417598
v 114.41854011 75.03194957 33.20954540
v 114.51959104 75.32218758 34.01726390
v 114.80926608 74.39555494 34.07111188
v 114.60620538 74.39555494 33.20954540
v 115.00174355 74.39555494 34.93409478
v 115.07295990 73.46625914 34.13487859
v 115.16727325 72.88445026 33.88972920
v 115.42519089 68.35912634 31.48357832
v 115.65135115 68.35912634 32.34656122
v 115.86307482 68.35912634 33.20954540
v 114.59850639 68.94759119 29.12560658
v 114.56000884 69.19922047 29.12560658
v 116.06036191 67.75601605 33.73527114
v 116.16141284 67.47909094 34.04277084
v 116.35003953 67.49639858 34.93409478
v 116.25476220 66.63367146 34.07111188
v 116.49728186 65.77227560 34.93409478
v 116.65415115 65.77227560 35.79707896
v 116.71670453 64.90954816 35.79707896
v 116.42895488 62.75539288 34.07111188
v 116.75135130 64.04682104 35.79707896
v 116.75808888 63.18409328 35.79707896
v 116.60121959 63.18409328 34.93409478
v 116.51460524 62.75539288 34.49906038
v 117.38844771 63.18409328 42.69527905
v 117.15651642 64.04682104 43.35137232
v 117.38844771 62.75539288 42.69527905
v 117.13919047 64.90954816 43.34145231
v 117.12186965 65.77227560 43.33011589
v 116.51267985 67.49639858 43.49024215
v 117.08722289 66.63367146 43.30177485
v 117.03621672 67.49639858 43.25217737
v 116.98521055 68.35912634 43.18841067
v 116.95441456 68.87303496 43.14306499
v 116.42991629 71.80870388 42.69527905
v 116.24706321 72.67143100 42.69527905
v 116.11618028 73.22794373 42.69527905
v 115.55030022 75.25828206 42.69527905
v 115.53009003 75.25828206 41.83371128
v 115.31066737 75.96923228 41.83371128
v 115.29141859 75.91065307 40.97072839
v 115.14609908 76.35666143 40.97072839
v 115.22982662 71.42926420 32.73766764
v 115.23560280 72.30929928 33.56664128
v 115.28179677 71.75411812 33.25063927
v 115.44058889 70.94597676 33.20954540
v 115.61093078 70.08324964 33.20954540
v 115.53490223 69.22185346 32.34656122
v 115.30392978 69.16859864 31.48074422
v 114.30209119 76.35666143 34.55716016
v 114.40795431 75.84541597 34.26808150
v 114.74286192 75.25828206 34.93409478
v 114.90550481 75.25828206 35.79707896
v 115.14706306 74.40354313 35.72480865
v 115.21539261 73.94954529 35.38896791
v 115.16919864 73.76182347 34.93409478
v 115.22693982 73.13474796 34.46505113
v 115.43866349 72.67143100 34.93409478
v 115.28083279 72.62616501 34.13487859
v 115.75047669 69.22185346 33.20954540
v 116.02282834 68.35912634 33.90673382
v 116.11906708 68.35912634 34.33893412
v 116.42702949 66.63367146 34.93409478
v 116.24610180 68.35912634 34.93409478
v 116.50787023 67.49639858 35.79707896
v 116.58389621 66.63367146 35.79707896
v 116.72440610 66.63367146 36.65722775
v 116.79369706 65.77227560 36.65722775
v 116.95345315 66.27686445 37.89714654
v 116.90340839 65.77227560 37.36575259
v 116.84470323 64.90954816 36.65722775
v 116.88993322 64.03350718 36.72524626
v 116.94960237 63.73661191 37.05683649
v 116.95537597 63.18409328 37.02282723
v 116.88704642 63.18409328 36.59062694
v 116.75808888 62.75539288 35.79707896
v 116.67917353 62.75539288 35.36204456
v 116.60121959 62.75539288 34.93409478
v 117.36054110 64.04682104 42.69527905
v 117.36054110 63.18409328 41.83371128
v 117.31915417 64.04682104 40.97072839
v 117.34225373 64.04682104 41.83371128
v 117.36054110 62.75539288 41.83371128
v 117.32685574 64.90954816 42.69527905
v 117.28643537 65.77227560 42.69527905
v 116.88608501 69.30972355 42.69527905
v 116.74653910 70.08324964 42.69527905
v 116.59063379 70.94597676 42.69527905
v 117.21714183 66.63367146 42.69527905
v 117.12090824 67.49639858 42.69527905
v 117.01889590 68.35912634 42.69527905
v 116.95633738 68.87835999 42.69527905
v 116.58486019 70.94597676 41.83371128
v 116.41066751 71.80870388 41.83371128
v 116.38564770 71.80870388 40.97072839
v 116.21819262 72.67143100 41.83371128
v 116.09885689 73.16803230 41.83371128
v 115.99010954 73.59939650 41.83371128
v 115.75336349 74.39555494 40.97072839
v 115.77742189 74.39555494 41.83371128
v 115.50121944 75.25828206 40.97072839
v 115.26447339 75.82810801 40.10774549
v 115.14513767 76.35666143 40.95230606
v 115.64365215 71.80870388 34.93409478
v 115.45502547 71.80870388 34.07111188
v 115.63498918 70.94597676 34.07111188
v 115.79763207 70.08324964 34.07111188
v 115.96316177 69.15661636 34.14196450
v 114.32422677 76.35666143 34.66060434
v 114.34732375 76.35666143 34.76971672
v 114.46473408 76.12899737 34.97235583
v 114.42046550 76.35666143 35.12397978
v 114.50130367 76.35666143 35.54767776
v 114.62449018 76.12100918 35.79707896
v 114.77269649 76.12100918 36.65722775
v 114.91127842 76.12100918 37.52021193
v 115.07488272 75.18239489 36.72382985
v 115.18267124 74.69644430 36.48009686
v 115.26350941 74.12129331 35.96287343
v 115.52720323 73.53282782 36.65722775
v 115.35589993 73.61004656 35.72480865
v 115.60034498 72.67143100 35.79707896
v 115.27602060 73.33045926 34.93409478
v 115.80629248 71.80870388 35.79707896
v 116.08730968 68.82643675 34.47638754
v 116.13157827 69.15661636 34.97518994
v 116.40393250 68.35912634 35.79707896
v 116.63682777 67.49639858 36.65722775
v 116.91880639 66.85201608 38.19189341
v 116.94960237 67.10630755 38.76721534
v 116.97077397 66.59239893 38.44129461
v 117.03429389 66.63367146 39.24617772
v 117.10262088 65.77227560 39.24617772
v 117.23446779 64.90954816 40.10774549
v 117.02755374 65.77227560 38.38319483
v 117.06797411 64.90954816 38.38319483
v 116.96596177 65.77227560 37.79653648
v 116.75808888 67.49639858 37.52021193
v 116.65318974 68.35912634 37.52021193
v 116.92554140 64.90954816 37.22829917
v 116.93805259 64.31176322 37.13902552
v 116.99290697 64.03350718 37.46352984
v 117.02851515 63.18409328 37.52021193
v 116.95537597 62.75539288 37.02282723
v 116.88704642 62.75539288 36.59062694
v 117.32589433 63.18409328 40.97072839
v 117.28451255 64.90954816 40.97072839
v 117.30856838 64.90954816 41.83371128
v 117.26911456 64.04682104 40.10774549
v 117.32589433 62.75539288 40.97072839
v 117.25756221 65.77227560 41.83371128
v 117.18923522 66.63367146 41.83371128
v 116.74076550 70.08324964 41.83371128
v 117.07952132 67.49639858 40.97072839
v 117.10262088 67.49639858 41.83371128
v 116.94960237 68.82510518 42.10436890
v 116.99194556 68.25794238 40.97072839
v 116.88993322 69.15661636 41.82379256
v 116.56079922 70.94597676 40.97072839
v 116.07383451 73.06951086 40.71424257
v 116.16718645 72.73799968 40.98915071
v 116.33367755 71.80870388 40.10774549
v 116.15852604 72.55427130 40.10774549
v 115.99203236 73.45960189 40.98915071
v 115.92081601 73.53282782 40.10774549
v 115.70043193 74.39555494 40.10774549
v 115.44732647 75.25828206 40.10774549
v 115.23752562 75.74556295 39.46015325
v 115.11049090 76.06775372 39.20224974
v 115.09124470 76.35666143 40.10774549
v 115.82072906 70.94597676 34.93409478
v 115.98433336 70.05129688 34.97518994
v 116.04015173 69.40158838 34.71445232
v 114.54557483 76.35666143 35.79707896
v 114.63700137 76.35666143 36.32847291
v 114.69378114 76.35666143 36.66856417
v 115.13359046 75.39275100 37.52021193
v 114.83044025 76.35666143 37.52021193
v 114.93822619 76.35666143 38.38319483
v 115.01810295 76.12100918 38.38319483
v 115.18748343 75.58047283 38.38319483
v 115.30104298 74.40354313 36.72382985
v 115.22405302 74.84422646 37.05400238
v 115.42037870 74.39555494 37.52021193
v 115.66193695 73.53282782 37.52021193
v 115.74181371 72.67143100 36.65722775
v 115.87654742 72.67143100 37.52021193
v 115.96508716 71.72882197 36.73374857
v 116.04496392 71.17763492 36.49710149
v 115.99203236 70.91269242 35.82542000
v 116.09693150 69.74241869 35.28977425
v 116.27016020 69.22185346 35.79707896
v 116.41066751 69.22185346 36.65722775
v 116.54347841 69.22185346 37.52021193
v 116.53289004 68.35912634 36.65722775
v 116.75712490 68.35912634 38.38319483
v 116.87549921 67.43515557 38.44129461
v 116.91495560 67.68145918 39.09738788
v 116.94479018 67.93175655 39.67270981
v 116.96596177 67.43515557 39.32978445
v 117.02851515 67.49639858 40.10774549
v 117.10262088 66.63367146 40.10774549
v 117.17191441 65.77227560 40.10774549
v 117.22292058 65.77227560 40.97072839
v 117.15554987 64.90954816 39.24617772
v 117.10262088 64.04682104 38.38319483
v 116.98328773 64.90954816 37.65908177
v 117.02851515 62.75539288 37.52021193
v 117.13052749 63.18409328 38.38319483
v 117.07952132 62.75539288 37.94816043
v 117.27488816 63.18409328 40.10774549
v 117.19019663 64.04682104 39.24617772
v 117.20559463 63.18409328 39.24617772
v 117.27488816 62.75539288 40.10774549
v 117.15458846 66.63367146 40.97072839
v 116.70611873 70.08324964 40.97072839
v 116.96596177 68.06755611 40.10774549
v 116.93997798 68.75986807 41.52904569
v 116.92843077 68.68930594 40.97072839
v 116.90340839 68.49891967 40.10774549
v 116.84470323 69.22185346 40.97072839
v 116.50883164 70.94597676 40.10774549
v 116.42895488 70.94597676 39.24617772
v 116.25283938 71.80870388 39.24617772
v 116.09597009 72.29997951 38.68502631
v 116.12195388 72.40782072 39.24617772
v 116.01994154 72.83918428 39.24617772
v 115.84959965 73.53282782 39.24617772
v 115.77068430 73.53282782 38.38319483
v 115.61766579 74.39555494 39.24617772
v 115.21346722 75.66967578 38.88483132
v 115.01521615 76.35666143 39.21500386
v 116.04977612 70.31757032 35.55618008
v 115.25773580 74.96138615 37.52021193
v 115.31162878 75.14911055 38.38319483
v 115.52816464 74.39555494 38.38319483
v 116.02667913 71.96979990 37.52021193
v 115.99395775 72.62083934 38.39169714
v 116.06517411 72.15619144 38.10970438
v 116.08442031 71.38799167 37.07242342
v 116.09789548 70.60248329 36.13150201
v 116.23551600 70.94597676 37.52021193
v 116.40393250 70.08324964 37.52021193
v 116.13831585 70.05129688 35.82542000
v 116.27112418 70.08324964 36.65722775
v 116.50883164 70.08324964 38.38319483
v 116.64741357 69.22185346 38.38319483
v 117.16806363 62.75539288 38.81114461
v 117.13052749 62.75539288 38.38319483
v 117.24024139 62.75539288 39.67412750
v 117.20559463 62.75539288 39.24617772
v 116.65415115 70.08324964 40.10774549
v 116.72344211 69.22185346 39.24617772
v 116.79273308 69.22185346 40.10774549
v 116.58486019 70.08324964 39.24617772
v 116.34041514 70.94597676 38.38319483
v 116.15852604 71.84465138 38.39169714
v 116.11521887 71.53843570 37.52021193
f 1 2 5
f 1 5 13
f 1 13 26
f 1 26 41
f 1 41 61
f 1 61 68
f 1 68 67
f 1 67 105
f 1 105 104
f 1 104 103
f 1 103 146
f 1 146 145
f 1 145 192
f 1 192 191
f 1 191 208
f 1 208 207
f 1 207 156
f 1 156 114
f 1 114 77
f 1 77 76
f 1 76 48
f 1 48 45
f 1 45 29
f 1 29 14
f 1 14 7
f 1 7 3
f 1 3 8
f 1 8 18
f 1 18 34
f 1 34 54
f 1 54 86
f 1 86 127
f 1 127 166
f 1 166 216
f 1 216 220
f 1 220 274
f 1 274 273
f 1 273 272
f 1 272 341
f 1 341 340
f 1 340 404
f 1 404 406
f 1 406 445
f 1 445 444
f 1 444 447
f 1 447 446
f 1 446 410
f 1 410 346
f 1 346 279
f 1 279 223
f 1 223 171
f 1 171 129
f 1 129 87
f 1 87 55
f 1 55 35
f 1 35 19
f 1 19 9
f 1 9 4
f 1 4 2
f 2 4 6
f 2 6 10
f 2 10 21
f 2 21 37
f 2 37 57
f 2 57 92
f 2 92 135
f 2 135 180
f 2 180 238
f 2 238 299
f 2 299 366
f 2 366 428
f 2 428 375
f 2 375 374
f 2 374 372
f 2 372 371
f 2 371 370
f 2 370 309
f 2 309 308
f 2 308 306
f 2 306 305
f 2 305 246
f 2 246 194
f 2 194 148
f 2 148 147
f 2 147 151
f 2 151 136
f 2 136 93
f 2 93 59
f 2 59 58
f 2 58 38
f 2 38 22
f 2 22 11
f 2 11 5
f 3 7 17
f 3 17 8
f 4 9 10
f 4 10 6
f 5 11 12
f 5 12 13
f 7 14 15
f 7 15 16
f 7 16 17
f 8 17 33
f 8 33 18
f 9 19 10
f 10 19 20
f 10 20 21
f 11 22 23
f 11 23 24
f 11 24 12
f 12 25 26
f 12 26 13
f 12 24 27
f 12 27 28
f 12 28 25
f 14 29 30
f 14 30 15
f 15 30 31
f 15 31 16
f 16 31 32
f 16 32 33
f 16 33 17
f 18 33 53
f 18 53 34
f 19 35 20
f 20 35 21
f 21 35 36
f 21 36 37
f 22 38 39
f 22 39 23
f 23 39 40
f 23 40 27
f 23 27 24
f 25 41 26
f 25 28 42
f 25 42 41
f 27 40 43
f 27 43 44
f 27 44 28
f 28 44 42
f 29 45 30
f 30 45 31
f 31 46 47
f 31 47 32
f 31 45 48
f 31 48 49
f 31 49 46
f 32 47 50
f 32 50 51
f 32 51 52
f 32 52 53
f 32 53 33
f 34 53 52
f 34 52 54
f 35 55 88
f 35 88 89
f 35 89 56
f 35 56 37
f 35 37 36
f 37 56 57
f 38 58 39
f 39 58 59
f 39 59 60
f 39 60 40
f 40 60 43
f 41 42 61
f 42 44 62
f 42 62 63
f 42 63 64
f 42 64 65
f 42 65 66
f 42 66 67
f 42 67 68
f 42 68 61
f 43 60 69
f 43 69 44
f 44 70 62
f 44 69 71
f 44 71 72
f 44 72 70
f 46 73 74
f 46 74 47
f 46 49 73
f 47 74 75
f 47 75 50
f 48 76 49
f 49 76 77
f 49 77 78
f 49 78 79
f 49 79 73
f 50 75 80
f 50 80 81
f 50 81 82
f 50 82 83
f 50 83 51
f 51 83 84
f 51 84 85
f 51 85 52
f 52 85 86
f 52 86 54
f 55 87 128
f 55 128 88
f 56 89 90
f 56 90 57
f 57 90 91
f 57 91 92
f 59 93 60
f 60 93 94
f 60 94 69
f 62 70 95
f 62 95 96
f 62 96 63
f 63 96 97
f 63 97 64
f 64 97 98
f 64 98 99
f 64 99 65
f 65 99 100
f 65 100 101
f 65 101 102
f 65 102 103
f 65 103 104
f 65 104 105
f 65 105 67
f 65 67 66
f 69 94 106
f 69 106 107
f 69 107 71
f 70 72 95
f 71 107 108
f 71 108 72
f 72 108 109
f 72 109 110
f 72 110 95
f 73 79 74
f 74 111 75
f 74 79 112
f 74 112 111
f 75 111 113
f 75 113 80
f 77 114 115
f 77 115 116
f 77 116 79
f 77 79 78
f 79 116 117
f 79 117 112
f 80 113 81
f 81 118 119
f 81 119 120
f 81 120 121
f 81 121 122
f 81 122 82
f 81 113 118
f 82 122 123
f 82 123 83
f 83 123 124
f 83 124 84
f 84 124 125
f 84 125 126
f 84 126 166
f 84 166 127
f 84 127 86
f 84 86 85
f 87 129 170
f 87 170 128
f 88 128 130
f 88 130 90
f 88 90 89
f 90 130 131
f 90 131 91
f 91 131 132
f 91 132 133
f 91 133 92
f 92 133 134
f 92 134 135
f 93 136 94
f 94 136 106
f 95 110 98
f 95 98 96
f 96 98 97
f 98 110 137
f 98 137 138
f 98 138 99
f 99 138 100
f 100 138 139
f 100 139 140
f 100 140 141
f 100 141 142
f 100 142 101
f 101 143 102
f 101 142 144
f 101 144 143
f 102 143 145
f 102 145 146
f 102 146 103
f 106 147 148
f 106 148 149
f 106 149 150
f 106 150 107
f 106 136 151
f 106 151 147
f 107 109 108
f 107 150 152
f 107 152 109
f 109 152 110
f 110 152 153
f 110 153 137
f 111 154 113
f 111 112 117
f 111 117 154
f 113 155 118
f 113 154 155
f 114 156 157
f 114 157 115
f 115 157 116
f 116 157 158
f 116 158 159
f 116 159 117
f 117 159 154
f 118 160 161
f 118 161 162
f 118 162 119
f 118 155 160
f 119 162 163
f 119 163 164
f 119 164 120
f 120 164 167
f 120 167 165
f 120 165 125
f 120 125 121
f 121 125 123
f 121 123 122
f 123 125 124
f 125 165 126
f 126 165 167
f 126 167 168
f 126 168 216
f 126 216 166
f 128 169 130
f 128 170 169
f 129 171 170
f 130 169 172
f 130 172 173
f 130 173 174
f 130 174 131
f 131 174 175
f 131 175 176
f 131 176 132
f 132 176 133
f 133 176 177
f 133 177 178
f 133 178 134
f 134 178 179
f 134 179 135
f 135 179 180
f 137 181 138
f 137 153 182
f 137 182 183
f 137 183 181
f 138 181 139
f 139 181 184
f 139 184 140
f 140 184 185
f 140 185 186
f 140 186 187
f 140 187 141
f 141 188 142
f 141 187 188
f 142 188 189
f 142 189 190
f 142 190 144
f 143 144 191
f 143 191 192
f 143 192 145
f 144 190 193
f 144 193 191
f 148 194 149
f 149 194 195
f 149 195 196
f 149 196 150
f 150 197 152
f 150 196 198
f 150 198 199
f 150 199 197
f 152 197 200
f 152 200 153
f 153 200 199
f 153 199 201
f 153 201 202
f 153 202 203
f 153 203 182
f 154 204 155
f 154 159 204
f 155 205 206
f 155 206 160
f 155 204 205
f 156 207 157
f 157 193 158
f 157 207 208
f 157 208 193
f 158 193 190
f 158 190 189
f 158 189 159
f 159 189 204
f 160 206 161
f 161 209 210
f 161 210 211
f 161 211 162
f 161 206 209
f 162 211 212
f 162 212 163
f 163 212 213
f 163 213 164
f 164 213 214
f 164 214 215
f 164 215 217
f 164 217 167
f 167 217 218
f 167 218 219
f 167 219 168
f 168 219 220
f 168 220 216
f 169 170 172
f 170 171 221
f 170 221 222
f 170 222 173
f 170 173 172
f 171 223 221
f 173 222 224
f 173 224 225
f 173 225 174
f 174 226 175
f 174 225 227
f 174 227 226
f 175 227 228
f 175 228 176
f 175 226 227
f 176 228 229
f 176 229 230
f 176 230 177
f 177 230 178
f 178 230 231
f 178 231 232
f 178 232 233
f 178 233 234
f 178 234 179
f 179 234 235
f 179 235 236
f 179 236 180
f 180 236 237
f 180 237 238
f 181 183 239
f 181 239 185
f 181 185 184
f 182 203 240
f 182 240 183
f 183 240 241
f 183 241 242
f 183 242 239
f 185 239 243
f 185 243 186
f 186 244 187
f 186 243 244
f 187 244 245
f 187 245 188
f 188 245 189
f 189 245 244
f 189 244 204
f 191 193 208
f 194 246 195
f 195 246 247
f 195 247 196
f 196 247 248
f 196 248 198
f 197 199 200
f 198 248 201
f 198 201 199
f 201 248 249
f 201 249 250
f 201 250 251
f 201 251 252
f 201 252 202
f 202 252 203
f 203 252 253
f 203 253 254
f 203 254 255
f 203 255 240
f 204 244 205
f 205 244 256
f 205 256 206
f 206 256 257
f 206 257 209
f 209 257 258
f 209 258 210
f 210 258 211
f 211 259 212
f 211 258 260
f 211 260 323
f 211 323 261
f 211 261 259
f 212 259 213
f 213 259 262
f 213 262 214
f 214 262 263
f 214 263 264
f 214 264 215
f 215 264 265
f 215 265 266
f 215 266 267
f 215 267 217
f 217 267 268
f 217 268 269
f 217 269 270
f 217 270 271
f 217 271 218
f 218 271 341
f 218 341 272
f 218 272 273
f 218 273 219
f 219 273 274
f 219 274 220
f 221 275 225
f 221 225 224
f 221 224 222
f 221 223 279
f 221 279 276
f 221 276 277
f 221 277 278
f 221 278 275
f 225 275 280
f 225 280 281
f 225 281 227
f 227 281 228
f 228 281 229
f 229 281 230
f 230 282 283
f 230 283 284
f 230 284 231
f 230 281 285
f 230 285 286
f 230 286 287
f 230 287 288
f 230 288 282
f 231 284 289
f 231 289 290
f 231 290 232
f 232 290 291
f 232 291 292
f 232 292 233
f 233 292 293
f 233 293 294
f 233 294 295
f 233 295 296
f 233 296 234
f 234 296 235
f 235 296 295
f 235 295 297
f 235 297 236
f 236 297 237
f 237 297 298
f 237 298 299
f 237 299 238
f 239 242 243
f 240 255 300
f 240 300 301
f 240 301 241
f 241 301 302
f 241 302 242
f 242 302 243
f 243 256 244
f 243 302 303
f 243 303 304
f 243 304 256
f 246 305 247
f 247 305 248
f 248 305 306
f 248 306 307
f 248 307 308
f 248 308 309
f 248 309 249
f 249 310 311
f 249 311 312
f 249 312 313
f 249 313 314
f 249 314 250
f 249 309 310
f 250 314 315
f 250 315 251
f 251 315 316
f 251 316 317
f 251 317 318
f 251 318 254
f 251 254 319
f 251 319 252
f 252 319 253
f 253 319 254
f 254 300 255
f 254 318 320
f 254 320 300
f 256 304 321
f 256 321 257
f 257 321 258
f 258 321 260
f 259 261 262
f 260 321 322
f 260 322 323
f 261 323 391
f 261 391 324
f 261 324 265
f 261 265 263
f 261 263 262
f 263 265 264
f 265 325 326
f 265 326 327
f 265 327 328
f 265 328 329
f 265 329 330
f 265 330 331
f 265 331 332
f 265 332 333
f 265 333 266
f 265 324 334
f 265 334 335
f 265 335 325
f 266 333 267
f 267 333 336
f 267 336 337
f 267 337 269
f 267 269 268
f 269 337 338
f 269 338 339
f 269 339 270
f 270 339 404
f 270 404 340
f 270 340 341
f 270 341 271
f 275 278 344
f 275 344 280
f 276 279 346
f 276 346 342
f 276 342 277
f 277 343 344
f 277 344 278
f 277 342 345
f 277 345 330
f 277 330 343
f 280 344 281
f 281 344 343
f 281 343 347
f 281 347 348
f 281 348 285
f 282 288 349
f 282 349 283
f 283 349 289
f 283 289 284
f 285 348 350
f 285 350 351
f 285 351 286
f 286 351 287
f 287 352 288
f 287 351 353
f 287 353 352
f 288 352 354
f 288 354 349
f 289 349 355
f 289 355 290
f 290 355 291
f 291 356 357
f 291 357 292
f 291 355 418
f 291 418 358
f 291 358 359
f 291 359 356
f 292 357 293
f 293 357 360
f 293 360 294
f 294 360 295
f 295 360 361
f 295 361 362
f 295 362 297
f 297 362 363
f 297 363 298
f 298 363 364
f 298 364 365
f 298 365 366
f 298 366 299
f 300 367 302
f 300 302 301
f 300 320 367
f 302 367 303
f 303 367 368
f 303 368 369
f 303 369 321
f 303 321 304
f 306 308 307
f 309 370 310
f 310 370 311
f 311 370 371
f 311 371 372
f 311 372 312
f 312 373 313
f 312 372 374
f 312 374 375
f 312 375 376
f 312 376 377
f 312 377 373
f 313 373 314
f 314 378 315
f 314 373 379
f 314 379 380
f 314 380 378
f 315 378 381
f 315 381 316
f 316 381 383
f 316 383 382
f 316 382 317
f 317 382 318
f 318 382 320
f 320 382 383
f 320 383 384
f 320 384 385
f 320 385 386
f 320 386 367
f 321 369 322
f 322 387 388
f 322 388 323
f 322 369 387
f 323 388 389
f 323 389 390
f 323 390 391
f 324 391 334
f 325 335 392
f 325 392 393
f 325 393 326
f 326 393 394
f 326 394 395
f 326 395 396
f 326 396 397
f 326 397 327
f 327 397 328
f 328 397 398
f 328 398 399
f 328 399 329
f 329 399 330
f 330 399 400
f 330 400 343
f 330 345 408
f 330 408 401
f 330 401 331
f 331 401 332
f 332 402 333
f 332 401 408
f 332 408 402
f 333 403 336
f 333 402 403
f 334 391 335
f 335 391 390
f 335 390 443
f 335 443 392
f 336 403 337
f 337 403 338
f 338 403 402
f 338 402 339
f 339 402 405
f 339 405 406
f 339 406 404
f 342 346 410
f 342 410 407
f 342 407 345
f 343 400 347
f 345 407 409
f 345 409 405
f 345 405 408
f 347 400 411
f 347 411 348
f 348 411 350
f 349 354 412
f 349 412 355
f 350 353 351
f 350 411 397
f 350 397 413
f 350 413 353
f 352 353 414
f 352 414 354
f 353 415 414
f 353 413 416
f 353 416 415
f 354 414 415
f 354 415 417
f 354 417 412
f 355 412 448
f 355 448 418
f 356 361 360
f 356 360 357
f 356 359 361
f 358 418 419
f 358 419 420
f 358 420 421
f 358 421 422
f 358 422 359
f 359 422 423
f 359 423 361
f 361 423 424
f 361 424 362
f 362 424 425
f 362 425 426
f 362 426 427
f 362 427 363
f 363 427 364
f 364 427 365
f 365 427 376
f 365 376 428
f 365 428 366
f 367 386 429
f 367 429 368
f 368 429 387
f 368 387 369
f 373 430 379
f 373 377 431
f 373 431 430
f 375 428 376
f 376 427 377
f 377 427 426
f 377 426 431
f 378 380 381
f 379 430 380
f 380 430 431
f 380 431 432
f 380 432 425
f 380 425 381
f 381 425 383
f 383 433 384
f 383 425 434
f 383 434 435
f 383 435 433
f 384 433 436
f 384 436 385
f 385 437 386
f 385 436 438
f 385 438 439
f 385 439 437
f 386 437 429
f 387 429 388
f 388 440 441
f 388 441 389
f 388 429 440
f 389 441 439
f 389 439 390
f 390 439 442
f 390 442 443
f 392 443 395
f 392 395 394
f 392 394 393
f 395 413 397
f 395 397 396
f 395 443 413
f 397 411 398
f 398 411 399
f 399 411 400
f 402 408 405
f 405 409 444
f 405 444 445
f 405 445 406
f 407 410 446
f 407 446 409
f 409 447 444
f 409 446 447
f 412 417 450
f 412 450 448
f 413 449 416
f 413 443 449
f 415 416 450
f 415 450 417
f 416 449 450
f 418 448 451
f 418 451 442
f 418 442 419
f 419 442 452
f 419 452 453
f 419 453 421
f 419 421 420
f 421 453 435
f 421 435 434
f 421 434 422
f 422 434 423
f 423 434 425
f 423 425 424
f 425 432 426
f 426 432 431
f 429 437 441
f 429 441 440
f 433 454 436
f 433 435 454
f 435 453 452
f 435 452 438
f 435 438 454
f 436 454 438
f 437 439 441
f 438 452 442
f 438 442 439
f 442 451 449
f 442 449 443
f 448 450 449
f 448 449 451

