# https://github.com/mikedh/trimesh
v 73.82402888 27.51221208 26.79096705
v 53.03699567 34.28666527 26.79537951
v 61.92886554 29.57662265 26.79537951
v 73.82402888 22.35507501 26.79096705
v 73.82402888 42.20995518 11.24288591
v 53.03699567 28.11092919 26.79537951
v 53.03699567 42.20995518 18.29093719
v 61.92886554 24.15900245 26.79537951
v 73.38452226 22.35312905 26.79096705
v 73.82402888 22.55918195 26.30770917
v 73.82402888 42.20995518 4.25441477
v 53.20994931 28.00984742 26.79537951
v 53.03699567 28.17896569 26.63429441
v 53.03699567 42.20995518 10.82141537
v 61.32250856 24.34755973 26.79537951
v 61.92886554 24.15900245 26.79096705
v 62.17507017 24.08319241 26.79096705
v 62.67765394 23.93739990 26.79096705
v 63.12936907 23.81104639 26.79096705
v 63.91071369 23.59916334 26.79096705
v 64.75920602 23.39505384 26.79096705
v 65.43067414 23.25120729 26.79096705
v 65.62194085 23.21038590 26.79096705
v 66.17539391 23.09764124 26.79096705
v 66.66169925 23.00433301 26.79096705
v 66.90790453 22.95767889 26.79096705
v 67.34741116 22.88381223 26.79096705
v 67.70756222 22.82743861 26.79096705
v 68.21014599 22.75745873 26.79096705
v 68.66389608 22.70108768 26.79096705
v 69.04235989 22.65637695 26.79096705
v 69.96003329 22.54946245 26.79096705
v 70.79631712 22.47170644 26.79096705
v 71.37622117 22.43866117 26.79096705
v 71.65905195 22.42311151 26.79096705
v 72.27965143 22.39589640 26.79096705
v 72.52178742 22.58834045 26.30770917
v 73.38452226 22.55918195 26.30770917
v 73.82402888 22.91297073 25.51331417
v 73.82402888 37.52324090 7.61073356
v 73.38452226 37.52129494 7.60852797
v 73.38452226 42.20995518 4.25662036
v 54.15610964 27.47916424 26.79537951
v 54.68107576 27.30032646 26.54823531
v 53.03699567 28.19062858 26.61002136
v 54.92728040 27.43639946 25.97229836
v 53.42563430 42.20995518 10.57206301
v 53.22826238 41.29632729 11.28701889
v 53.03699567 41.67927458 11.16344615
v 60.90945421 24.48751951 26.79537951
v 61.27163992 24.58665790 26.25695621
v 61.92886554 24.36699873 26.29226298
v 62.17507017 24.28535596 26.30770917
v 62.98083243 24.06180745 26.29667608
v 63.66247377 23.99377352 26.00319139
v 63.23110636 23.87130678 26.57912770
v 63.92902676 23.79744012 26.29667608
v 64.23627454 23.91213074 25.82224570
v 64.75920602 23.59138723 26.30770917
v 65.62194085 23.41254945 26.30770917
v 66.46839790 23.22787894 26.34301530
v 66.74512475 23.04321101 26.65636058
v 67.34741116 22.98683739 26.52396098
v 68.21014599 22.92463362 26.37611584
v 69.93358165 22.74773922 26.30770917
v 70.79631712 22.66803984 26.30770917
v 71.65905195 22.62333168 26.30770917
v 72.52178742 22.92463362 25.53538099
v 73.38452226 22.91297073 25.51552105
v 73.38452226 23.10735817 25.08301678
v 73.82402888 23.00821978 25.30147547
v 73.82402888 37.30358173 7.76961307
v 73.38452226 37.08975273 7.92407884
v 72.52178742 37.53295783 7.61514731
v 69.93358165 38.71873173 6.98183742
v 69.07084682 38.79843112 7.03479725
v 72.52178742 42.20995518 4.37577999
v 71.65905195 37.56794906 7.64604098
v 70.79631712 37.61654656 7.67914023
v 54.57119862 27.24978557 26.79537951
v 55.74932109 26.62190996 26.79537951
v 55.25894646 26.88239051 26.79537951
v 54.92321111 27.06122829 26.79537951
v 55.23859746 27.12537802 26.27902302
v 53.03699567 28.42000725 26.15765715
v 53.26488852 28.33642109 26.04291127
v 53.84072329 28.17313297 25.72294601
v 54.68107576 28.15952669 24.83587130
v 54.95373204 28.30920597 24.25993499
v 55.50311645 27.28088746 25.66777994
v 53.61079580 42.20995518 10.45511025
v 53.96484293 42.03500675 10.34257124
v 53.07972574 40.28939374 12.05272774
v 53.03699567 41.39741035 11.34659871
v 53.80409715 41.02418385 11.10386698
v 60.49843323 24.62942524 26.79537951
v 60.61441429 24.70523529 26.51072102
v 60.95828821 24.82964541 25.93699159
v 61.53208834 24.73245040 25.73177286
v 61.92886554 24.45447423 26.08704425
v 62.23204274 24.65858117 25.44490815
v 63.03577036 24.71884156 24.84249128
v 63.03577036 24.92684041 24.40998765
v 63.63195284 24.84325168 24.23786818
v 63.91071369 25.00265046 23.76785154
v 64.75920602 24.70329190 23.95321033
v 64.75920602 24.05986406 25.26616869
v 64.75920602 23.85381374 25.69646673
v 65.67891407 23.79355335 25.41842823
v 66.48467633 23.62248912 25.44490815
v 67.34741116 23.16761856 26.09366423
v 68.21014599 23.10541478 25.94361157
v 68.99963046 22.89353173 26.22385695
v 68.66186144 23.07820224 25.88182552
v 69.23769653 23.04515439 25.80679887
v 69.93358165 23.00433301 25.72073978
v 70.79631712 22.96351162 25.63468004
v 71.65905195 22.94407262 25.57730710
v 71.65905195 23.13457328 25.14480283
v 72.52178742 23.11707767 25.10508359
v 73.82402888 23.10735817 25.08301678
v 72.52178742 23.35228906 24.58210648
v 73.38452226 23.33673940 24.58210648
v 73.82402888 36.79428094 8.14695127
v 72.52178742 37.09947223 7.93511192
v 73.82402888 36.08281660 8.68096083
v 73.38452226 36.08281660 8.68096083
v 71.65905195 36.55518278 8.38747613
v 71.65905195 37.13835023 7.95938625
v 69.93358165 38.16860955 7.36800311
v 69.09119389 38.10251901 7.51364138
v 67.31282030 39.08612679 7.13409759
v 67.00353788 39.48462373 6.91784449
v 68.21014599 39.33494446 6.82295790
v 69.07084682 39.22997334 6.76117314
v 68.21014599 37.83814911 7.83360600
v 68.21014599 38.26969390 7.53791443
v 70.13502221 42.20995518 4.72222453
v 70.79631712 36.58822805 8.42057539
v 70.79631712 37.18694773 7.98807176
v 69.93358165 36.64265828 8.46250214
v 69.93358165 37.67486356 7.72106698
v 55.89989365 26.54804330 26.79537951
v 56.10743750 26.68605969 26.27460991
v 53.03699567 28.59884502 25.81562572
v 53.03699567 29.07315459 24.92413791
v 53.57213630 28.91764258 24.61741261
v 53.55178730 28.48998713 25.43828817
v 54.10524099 28.32281224 25.14700970
v 54.40028091 28.46277459 24.56003967
v 54.42266198 28.89431681 23.73695788
v 54.71770062 29.04010931 23.16984842
v 55.25487589 28.45305252 23.70165175
v 55.52753217 28.15952669 23.97969025
v 55.79001523 27.43251269 25.09184363
v 56.10133229 27.11760191 25.40518827
v 53.85089650 42.20995518 10.30505824
v 55.03308825 42.20995518 9.59672233
v 54.41045284 41.82701047 10.20796606
v 54.41045284 41.39546568 10.48821079
v 53.03699567 40.31077612 12.06817457
v 53.03699567 40.35937363 12.03507403
v 54.12762335 40.45073590 11.30246509
v 55.03919218 39.62847285 11.33556563
v 55.61299231 39.38548534 11.16123928
v 53.99943443 39.47684762 12.09024074
v 53.89973050 38.53017445 12.88684261
v 53.32389573 38.77704874 13.08102826
v 53.03699567 39.27468407 12.88463574
v 54.84996011 41.19330213 10.35801807
v 60.07520438 24.78104790 26.79537951
v 60.03857953 24.81020640 26.75565963
v 60.37634823 24.90351207 26.25695621
v 59.58482975 25.17371212 26.30550294
v 59.02934270 25.61497641 25.77590585
v 59.64994218 25.53333106 25.46918119
v 60.44756458 25.25341151 25.44490815
v 60.44756458 25.56443552 24.81159825
v 60.95014835 25.68884307 24.19594207
v 61.27163992 24.96182907 25.44490815
v 61.92886554 24.69162901 25.56627401
v 61.26757063 25.42058640 24.52252666
v 61.92886554 24.91323157 25.10728982
v 61.92886554 24.87824291 25.17790273
v 61.98176882 24.87241018 25.15583655
v 62.55760359 24.78688063 24.98371708
v 63.03577036 25.26313358 23.71930481
v 63.03577036 25.57026568 23.12130169
v 63.94530455 25.48667952 22.82781700
v 64.75920602 24.91711834 23.52291294
v 65.36963165 24.84325168 23.37506715
v 65.64228857 24.62748185 23.68399868
v 65.43067414 23.98599740 25.11390980
v 66.00447427 23.92768040 24.99254394
v 67.34741116 23.46503372 25.44490815
v 66.48467633 24.08319241 24.46074061
v 68.21014599 23.33479345 25.44490815
v 69.07084682 23.62248912 24.58210648
v 68.99963046 23.21621606 25.48904113
v 69.93358165 23.20260979 25.29044238
v 69.93358165 23.52918346 24.58210648
v 70.79631712 23.16373178 25.20217577
v 71.65905195 23.39311045 24.58210648
v 73.82402888 23.33673940 24.58210648
v 72.52178742 23.74300989 23.75681782
v 73.38452226 23.73912312 23.74799161
v 73.82402888 23.73523635 23.75019784
v 73.82402888 23.53307023 24.17166902
v 72.52178742 36.09642545 8.69420079
v 73.82402888 35.57935111 9.07374586
v 73.38452226 35.57935111 9.06933212
v 71.65905195 36.12558395 8.71626825
v 70.79631712 36.15668583 8.73833442
v 69.39233774 37.71568495 7.75196065
v 69.09119389 37.37744839 8.03882473
v 68.81650265 37.77205600 7.79167924
v 67.69738900 36.85648472 8.61476232
v 67.34741116 38.37466245 7.61294172
v 66.48467633 39.03169913 7.32607636
v 66.48467633 39.56043378 6.96639058
v 66.48467633 39.99003518 6.70159268
v 69.07084682 42.20995518 4.89213713
v 68.21014599 39.89089679 6.47430778
v 67.38403666 37.24915150 8.38747613
v 67.34741116 37.94312023 7.90863201
v 68.21014599 36.80788979 8.57724931
v 69.93358165 36.21305945 8.78246676
v 57.62739796 25.75299280 26.79537951
v 56.37602450 26.43918541 26.54161469
v 56.65885527 26.56942569 25.96788461
v 53.03699567 29.34529803 24.42764071
v 53.87531350 29.05177220 24.03485632
v 54.14186714 29.21505775 23.46112625
v 53.62910887 29.85654220 22.93373603
v 53.97094686 29.97123025 22.41737954
v 53.80613179 30.72934871 21.38907902
v 54.10727564 30.91790599 20.81534895
v 54.40028091 30.55245431 21.11324739
v 54.86013333 29.98678248 21.57664404
v 55.23859746 29.52413580 21.96280845
v 55.04326147 29.22672063 22.59611835
v 55.30778046 28.90792308 22.87194998
v 55.82867730 28.31503870 23.40375330
v 53.10414274 29.96734348 23.27356058
v 56.12371465 28.00401469 23.70165175
v 56.36381535 27.28866357 24.82042511
v 56.10133229 27.56275297 24.55121345
v 56.67106313 27.43834285 24.24448816
v 56.96813769 26.69772258 25.42284133
v 55.05547061 42.20995518 9.58348237
v 54.70142348 40.20386419 11.13255313
v 56.56932585 38.60015434 11.21640599
v 56.13592379 38.75955312 11.33777186
v 55.50108052 38.44464234 11.95122181
v 55.26911967 39.02586640 11.64229028
v 55.42376152 40.95420396 10.19693169
v 55.77577273 40.38075601 10.39111733
v 56.35160750 40.15332073 10.23665156
v 56.72803698 39.57792940 10.43304408
v 56.13592379 39.19109791 11.02001347
v 54.57526791 39.23969284 11.91150193
v 54.92728040 38.66624489 12.12996062
v 54.33720313 38.98309906 12.25794647
v 54.25784820 37.95478312 13.11192128
v 53.81223700 37.60099433 13.68565136
v 53.56806701 38.18610517 13.38333981
v 53.03699567 38.37271906 13.60400537
v 53.03699567 38.87813051 13.20018789
v 55.22638960 41.57819280 9.89462078
v 59.95515403 24.82575863 26.79537951
v 59.58482975 24.96377245 26.79537951
v 59.37321533 25.04347184 26.79537951
v 58.73430278 25.49445563 26.30550294
v 58.45350793 25.72772107 26.01863758
v 58.73430278 25.88517646 25.46918119
v 59.97957231 26.51110869 23.26032127
v 59.40577219 25.75882296 25.19996954
v 59.97957231 25.64996507 24.98592396
v 60.44756458 25.77631857 24.38130086
v 61.52598312 25.59359402 24.01058328
v 60.44756458 26.10872240 23.71930481
v 61.26757063 25.82491607 23.71930481
v 62.22797346 25.51194868 23.72151169
v 62.54946373 25.64607829 23.25590752
v 63.03577036 25.81519657 22.68879742
v 63.69096070 25.71994753 22.52329857
v 64.26476082 25.64802168 22.39751960
v 64.75920602 25.27285051 22.85650315
v 65.94343177 24.77521518 23.24046133
v 67.34741116 23.80327028 24.73215914
v 67.93341978 23.96266906 24.20256205
v 68.21625056 23.76439228 24.52693977
v 66.48467633 24.43697862 23.71930481
v 67.34741116 24.00932317 24.29965487
v 68.50925487 23.91796090 24.10767610
v 69.07084682 23.87908290 24.02602947
v 69.93358165 23.83437474 23.93114352
v 70.79631712 23.45531679 24.58210648
v 71.65905195 23.76439228 23.79874457
v 72.52178742 23.95683890 23.32431419
v 73.38452226 23.95295213 23.31769421
v 73.82402888 23.84214828 23.53835913
v 72.52178742 35.12253716 9.46873649
v 73.82402888 35.10115478 9.45108407
v 73.38452226 35.10115478 9.45108407
v 70.79631712 35.62211588 9.17083804
v 69.93358165 35.67654611 9.21276480
v 67.12155359 36.92257783 8.66551400
v 68.21014599 36.37440161 8.91486635
v 68.21014599 35.82816878 9.34736998
v 67.38403666 36.51630478 8.94134627
v 66.48467633 38.49518580 7.69458707
v 65.98005727 38.57488518 7.74975249
v 65.66467092 38.98698840 7.54012130
v 65.62194085 39.71205901 7.06127717
v 65.62194085 40.14554719 6.79427239
v 66.12045534 41.20885307 6.05283724
v 66.43787697 40.79869196 6.22936917
v 65.62194085 41.73370352 5.85644472
v 68.06364399 42.20995518 5.09514898
v 66.48467633 38.06364101 7.99469110
v 69.07084682 35.74846939 9.27675772
v 57.76983067 25.68884307 26.79537951
v 57.86342809 25.86185069 26.30550294
v 58.15236408 25.60331352 26.59457453
v 56.96813769 26.28756018 26.27460991
v 57.23469133 26.43529864 25.69425986
v 53.03699567 29.61938742 23.94659035
v 53.03699567 29.74768431 23.72151169
v 53.03699567 29.92652209 23.41258016
v 53.03699567 30.05092964 23.20736143
v 53.39714673 30.15006803 22.69762428
v 53.23233166 30.91401664 21.67373686
v 53.53144087 31.09285442 21.11324739
v 53.03699567 30.68463798 22.22098702
v 53.09396824 31.68574137 20.67853625
v 53.54975394 31.53217275 20.47773094
v 53.99739850 31.71489987 19.85104135
v 54.33923649 31.22698404 20.21293240
v 54.68311041 30.74878771 20.57261689
v 55.19790332 30.12090953 21.07794062
v 55.43596938 29.82544031 21.32729233
v 55.96093551 29.25004898 21.77524343
v 55.76763287 30.01205164 20.75356258
v 56.15016757 29.55135092 21.14193354
v 55.61909752 29.06926524 22.35117974
v 56.20307086 28.95846397 22.03342136
v 56.12371465 28.48998713 22.86091689
v 57.56228553 27.44806235 23.39713332
v 56.97424162 27.57635924 23.69944487
v 56.40451078 28.16924619 23.14998848
v 57.24486325 27.30227242 23.97307027
v 55.46445567 42.20995518 9.36943615
v 55.60485373 41.96502686 9.43784282
v 57.30387175 39.37187907 10.28961140
v 57.85935881 39.18137584 10.15059247
v 57.85935881 38.74983362 10.46393775
v 58.29683144 38.60209773 10.35581120
v 58.15236408 37.64570506 11.14358686
v 57.57856267 37.83620573 11.29363887
v 56.99865990 37.49019306 11.88060827
v 56.99865990 37.05865084 12.22925967
v 56.47165785 37.66708745 12.02404095
v 56.16441007 38.16083601 11.79675605
v 55.89582308 37.87119439 12.18733357
v 55.27318896 37.56989245 12.80298975
v 54.83368169 37.72929122 12.93538935
v 55.95279694 41.39157891 9.62099538
v 56.15220222 40.76759007 9.92992691
v 57.46868682 40.35354090 9.50845637
v 54.51422605 37.37744839 13.43409277
v 54.76653462 36.82149606 13.75626426
v 54.19273449 37.02365961 13.94603680
v 53.77561086 36.71846833 14.51976623
v 53.19977609 36.94007345 14.72498496
v 53.23640095 37.84203846 13.89307696
v 53.03699567 38.19193790 13.74964428
v 58.76685964 25.27673985 26.79537951
v 58.35176936 25.44002540 26.79537951
v 57.84511631 26.29144952 25.42284133
v 58.12387780 26.45084830 24.86676496
v 58.46978507 26.60052757 24.29082801
v 58.74244264 26.33810364 24.57989960
v 59.04358520 26.48195018 24.06133624
v 58.74244264 26.76770247 23.75240471
v 58.13812030 27.32365480 23.17426153
v 59.11887084 27.37419569 22.39972583
v 59.58482975 27.27700069 22.23864009
v 60.12403967 27.42862335 21.62739765
v 60.44756458 26.67634019 22.67555746
v 60.44756458 26.42751995 23.11026861
v 61.92886554 25.77631857 23.39492709
v 61.97362897 25.73938396 23.43685320
v 61.30623013 26.29922563 22.81457704
v 61.92886554 26.05429474 22.88960304
v 61.92886554 26.19036774 22.65128442
v 63.00321479 26.26812118 21.93412230
v 61.92886554 26.42168980 22.24746694
v 62.17507017 26.38281180 22.17906091
v 62.69393237 26.55193007 21.60753771
v 63.26773185 26.46834391 21.46631190
v 63.89647055 26.63746219 20.88375497
v 64.44992360 26.56164957 20.75576913
v 65.02575837 26.48195018 20.62778328
v 64.75920602 25.83657896 21.86130253
v 64.75920602 25.58776129 22.29380680
v 66.48467633 24.96182907 22.71307111
v 66.48467633 24.72273090 23.14336850
v 65.62194085 25.48862290 22.11948109
v 65.62194085 26.05429474 21.13090046
v 66.13469848 25.67912357 21.58988400
v 68.21625056 24.12401379 23.77888463
v 67.34741116 24.29118868 23.71930481
v 69.07084682 24.08902256 23.59352584
v 69.93358165 24.04236845 23.49863925
v 70.79631712 23.79744012 23.86273749
v 70.79631712 24.00932317 23.43244010
v 71.65905195 23.97822129 23.36844717
v 71.65905195 24.25619745 22.85650315
v 71.65905195 24.64497490 22.14154791
v 72.52178742 24.21148930 22.85650315
v 73.38452226 24.84714102 21.64946382
v 73.38452226 24.61387301 22.08196809
v 73.38452226 24.19788045 22.85650315
v 73.82402888 24.19982384 22.85650315
v 72.52178742 34.68904899 9.83504160
v 71.65905195 34.20696589 10.28519765
v 71.68957352 34.79985027 9.78870110
v 71.42098589 35.16335855 9.50404262
v 73.82402888 34.66766660 9.82400852
v 73.38452226 34.66766660 9.82400852
v 72.52178742 34.18558350 10.26533836
v 70.79631712 35.19251705 9.52831566
v 69.93358165 35.24305794 9.57024242
v 69.07084682 35.31692717 9.62761600
v 66.48467633 37.01977284 8.73392067
v 66.48467633 37.44937167 8.42498914
v 67.34741116 35.92536378 9.42239599
v 66.83058360 35.98756756 9.47315024
v 66.25678348 36.06726694 9.53272941
v 68.21014599 35.39856995 9.69160892
v 65.02982766 37.68458306 8.59048799
v 65.40422250 38.67207762 7.81374541
v 64.45806217 40.37686924 6.93329133
v 65.03186294 40.26217862 6.86488465
v 64.75920602 38.78871162 7.89318517
v 64.07349411 39.35632684 7.69900081
v 64.75106681 40.70149952 6.67070030
v 65.62194085 40.75592718 6.43238103
v 65.62194085 41.30216002 6.11020954
v 64.75920602 42.20995518 5.78803805
v 65.63618399 42.20995518 5.58502619
v 64.75920602 41.47905441 6.20950859
v 64.75920602 41.90865324 5.95795065
v 68.21014599 34.86594338 10.12411255
v 58.05469609 25.56443552 26.79537951
v 53.03699567 31.17644315 21.47955186
v 53.03699567 31.38638282 21.16841346
v 53.03699567 30.97622042 21.77744967
v 53.03699567 31.70518037 20.70501616
v 53.03699567 32.43413776 19.75174198
v 53.32796502 32.70239443 19.15373886
v 53.23436759 33.50133427 18.20708433
v 53.90379979 32.51189376 18.91100680
v 54.33516720 31.88401815 19.35895759
v 54.92931633 31.75377788 19.04119952
v 56.34143428 29.85070947 20.51965738
v 55.05343597 30.95872737 19.99888714
v 56.08708979 30.19283537 20.24603230
v 56.53473563 29.09648036 21.53471793
v 56.75041934 28.34419720 22.57625841
v 57.02104226 28.03317319 22.86091689
v 57.32625411 28.19840469 22.34014666
v 57.85325616 27.62884609 22.87415685
v 56.72600234 42.20995518 8.72509446
v 56.75041934 42.19829230 8.71847383
v 57.02104226 41.65205946 8.91707323
v 56.52863042 41.15636751 9.46873649
v 58.04248694 40.15137735 9.37384990
v 58.47995957 39.57792940 9.57465616
v 58.87266620 38.41937318 10.22782535
v 58.64070407 38.14722717 10.53013626
v 58.72209492 37.04115522 11.35542492
v 58.05062552 36.72819040 11.95342869
v 57.47682539 36.90313883 12.10127383
v 58.72209492 37.47269744 11.00456728
v 57.05766712 36.44826827 12.70148382
v 56.38009507 36.73790733 12.82946967
v 55.80629494 36.94590361 13.00158850
v 55.27318896 37.13835023 13.16708735
v 56.99865990 40.96781024 9.35178373
v 57.69657967 41.38769085 8.74936750
v 57.86953331 40.76175991 9.06271278
v 55.75339037 36.04394117 13.83349714
v 55.27318896 36.21111606 13.98796291
v 54.73601369 35.93313990 14.59258601
v 56.06674208 36.39189723 13.32375999
v 54.70752740 35.05255728 15.43332086
v 53.75119386 35.83788828 15.36712106
v 53.17739374 36.05560406 15.57013356
v 53.03699567 36.11003172 15.62088652
v 53.03699567 36.23249845 15.50614064
v 53.03699567 37.02754895 14.76691171
v 53.03699567 37.91784850 13.97913605
v 58.54507071 27.49471647 22.60053145
v 59.58482975 27.53553785 21.80834269
v 59.26130355 28.29559970 20.77121564
v 59.83713960 28.17896569 20.58806340
v 60.42518223 27.60940709 21.15296663
v 60.69987443 27.32171142 21.45307194
v 60.42518223 27.12343464 21.94736226
v 61.01526078 26.57136907 22.50123240
v 63.00321479 26.72688108 21.15958661
v 62.17507017 26.63357285 21.74876351
v 62.32767610 27.29643969 20.55275695
v 63.03577036 27.18952518 20.38505155
v 63.83135876 27.08844341 20.19086591
v 64.74699752 26.75992635 20.31223177
v 64.75920602 27.22257303 19.59948277
v 65.62194085 26.68605969 20.08935998
v 65.62194085 26.41391368 20.51965738
v 66.44601554 25.42253236 21.92308922
v 67.34741116 25.56249213 21.38687215
v 67.34741116 25.22036624 21.99370212
v 67.34741116 24.88990579 22.58067151
v 67.34741116 24.65275101 23.01317578
v 66.44601554 25.85990730 21.17503344
v 68.26101463 24.62164913 22.80795706
v 69.07084682 24.47780001 22.85650315
v 69.93358165 24.38255096 22.85650315
v 70.79631712 24.31451446 22.85650315
v 70.79631712 24.67413340 22.19230087
v 71.65905195 24.88212968 21.71124987
v 72.52178742 24.62359251 22.10624113
v 72.52178742 25.17371212 21.13090046
v 73.38452226 25.14844296 21.13090046
v 73.82402888 25.14261023 21.13090046
v 73.82402888 24.84714102 21.64725695
v 73.82402888 24.72856363 21.86571563
v 72.52178742 24.86269068 21.67594374
v 73.82402888 24.61387301 22.07976122
v 71.65905195 33.77347771 10.66253586
v 70.79631712 33.81235571 10.69563511
v 70.79631712 34.24584389 10.32050507
v 73.82402888 33.95231549 10.44407717
v 73.38452226 34.17197466 10.25209840
v 72.52178742 33.75209533 10.64708902
v 69.07084682 34.79596349 10.05791275
v 69.98038100 34.64822760 10.06673897
v 69.07084682 34.36442128 10.42201100
v 64.45399289 37.77983468 8.65889466
v 65.62194085 36.16446195 9.60775542
v 65.62194085 36.59406078 9.27675772
v 64.74903217 37.36189617 8.90383327
v 67.34741116 35.49187561 9.77104868
v 67.34741116 34.96313839 10.20355231
v 66.01057884 35.13808939 10.34257124
v 65.43677872 35.21389944 10.40656416
v 63.83135876 39.81314079 7.46509529
v 63.89647055 40.49350067 7.00831733
v 63.89647055 40.92504546 6.74793189
v 63.89647055 38.32217817 8.43822910
v 63.83135876 39.05502490 7.96600559
v 63.49969399 39.47490423 7.77623241
v 64.12639804 42.20995518 5.95574377
v 64.26476082 42.01945452 6.02194357
v 68.21014599 34.43634455 10.48159017
v 53.03699567 33.22141215 18.73888797
v 53.03699567 33.58686382 18.28211066
v 53.03699567 33.79680348 18.04379203
v 53.20181074 34.34886905 17.31559619
v 53.77764550 34.14281615 17.09272440
v 54.20087435 33.56742482 17.41048246
v 53.80816772 33.31472038 17.98641909
v 54.82961240 32.55465854 18.10116497
v 54.48980905 32.38748621 18.59104219
v 55.24063339 31.96177416 18.53587580
v 55.88564987 31.80042942 18.24239078
v 55.50514981 31.58465960 18.81612086
v 56.99865990 29.25199236 20.92126798
v 56.72193306 30.05676237 19.94372075
v 57.00476255 29.70297358 20.24603230
v 56.13592379 30.64964932 19.58624281
v 57.70675288 28.38112924 21.76420971
v 57.94074966 28.10898581 22.03121513
v 57.47886132 29.13730175 20.73590919
v 58.28258765 28.24700220 21.55678475
v 58.72209492 28.15175058 21.39349213
v 56.76059256 42.20995518 8.70744075
v 57.18178676 42.20995518 8.50001515
v 57.32421947 41.96308219 8.57504115
v 58.27241444 41.17191974 8.61696791
v 58.72209492 40.58680891 8.79129425
v 58.75058121 39.87728795 9.25248467
v 59.58482975 39.23580607 9.33413130
v 59.58482975 38.80620724 9.63864909
v 59.34879833 37.84398184 10.43083721
v 59.20840027 36.90313883 11.23847216
v 59.11480155 35.98756756 12.05714149
v 58.78517142 36.44049216 11.83426905
v 58.53896679 36.15279906 12.20057352
v 57.38526261 35.98562417 12.91773628
v 56.80942655 36.16446195 13.07440828
v 57.93464445 41.65205946 8.48236272
v 56.32719050 35.85344051 13.64813835
v 55.72490409 35.15947178 14.67643887
v 55.27318896 35.31498121 14.81987155
v 55.27318896 34.86594338 15.25016895
v 55.27318896 34.43440117 15.68487945
v 54.72990976 34.21085266 16.30494906
v 54.43080184 34.72987038 15.97395104
v 54.13169264 35.26444033 15.64074646
v 53.03699567 35.67848950 16.05118392
v 58.05266144 29.00317470 20.53510389
v 58.74651192 28.87293442 20.25485883
v 59.04969041 29.06537847 19.77160160
v 59.56448204 28.49193052 20.28795873
v 58.72209492 28.41806386 20.96319473
v 60.44756458 28.35002736 19.98123375
v 60.44756458 28.06427508 20.41373802
v 61.75184133 27.39363469 20.70501616
v 61.31030070 27.47527747 20.83741544
v 61.92886554 27.22840319 20.88154842
v 61.92886554 27.36253280 20.65867631
v 61.92886554 27.47916424 20.47773094
v 62.09367932 27.56080958 20.26589224
v 63.03577036 27.46555797 19.95254728
v 63.50172863 27.39752146 19.85324790
v 64.07756340 27.31782207 19.73408859
v 65.41032643 27.44028881 19.04781950
v 65.66874021 27.16231264 19.36337069
v 63.89647055 28.07010780 18.71240805
v 64.47434060 28.28976697 18.16515790
v 65.04814073 28.21590031 18.06144510
v 66.48467633 26.96403586 19.40529712
v 66.48467633 26.60052757 19.95254728
v 66.48467633 26.32643818 20.38284468
v 67.34741116 25.81130723 20.95657475
v 68.21014599 25.73744057 20.82858891
v 68.21014599 25.49250967 21.25888630
v 68.01074071 24.83547556 22.49019867
v 68.58454083 24.79271079 22.41075956
v 69.07084682 24.75966552 22.35338662
v 69.93358165 24.95210957 21.83261638
v 70.79631712 25.26118762 21.13090046
v 70.79631712 24.91128818 21.76200347
v 71.65905195 25.20481658 21.13090046
v 71.65905195 25.55471602 20.52848391
v 72.52178742 25.54110975 20.50641742
v 73.38452226 25.52944429 20.48876403
v 73.82402888 25.33116751 20.81534895
v 71.65905195 33.29333799 11.09283389
v 69.72400251 34.31776716 10.38008424
v 70.29983728 34.27694577 10.34698499
v 70.79631712 33.33027004 11.12814002
v 69.93358165 33.38664365 11.18330609
v 73.82402888 33.49355816 10.85010152
v 73.82402888 33.25445999 11.06194023
v 73.38452226 33.25640338 11.06414710
v 72.52178742 33.27389899 11.07738706
v 69.15223703 33.79291671 10.92512817
v 64.75920602 36.73402056 9.38488298
v 64.21389218 36.82927217 9.45770340
v 63.91478362 37.25887100 9.21497038
v 63.89647055 37.89257934 8.74054000
v 64.75920602 35.75430212 10.15059247
v 64.75920602 36.30442172 9.72029443
v 67.34741116 34.53353956 10.56544368
v 64.75920602 34.82706538 10.92954063
v 64.75920602 35.32081394 10.49703700
v 66.48467633 34.15642500 11.09945323
v 65.29434601 34.31387782 11.24067904
v 63.03577036 40.01530434 7.56218747
v 62.98693636 40.77342280 7.09658459
v 63.24331485 41.07278135 6.83619915
v 63.19855078 38.47574679 8.54194190
v 62.62271602 38.60793046 8.63241474
v 63.03577036 39.58376212 7.84905283
v 63.49155478 42.20995518 6.12786325
v 68.91620561 33.46439966 11.25612587
v 68.21014599 33.95814822 10.91409444
v 67.34741116 34.04756711 10.99794730
v 53.03699567 34.39163382 17.40386248
v 53.03699567 34.54908921 17.23615708
v 53.03699567 35.37135483 16.36452856
v 53.18146302 35.19446044 16.43734833
v 53.47853759 34.66572322 16.76393293
v 54.15610964 34.40912944 16.51899432
v 54.77467447 33.38081350 17.20085030
v 55.27318896 32.78792654 17.50536873
v 55.27318896 32.41469876 17.93787268
v 55.80222437 32.62075165 17.31338964
v 56.13185450 32.12894905 17.67748756
v 56.45944999 31.64491999 18.03937893
v 56.58763892 30.84986948 18.98823969
v 57.29776782 29.90902648 19.74512200
v 57.16347497 30.69824425 18.78964094
v 58.15236408 30.76822671 18.01731211
v 57.80442088 29.31225275 20.25485883
v 57.87970781 28.69215326 21.14414041
v 57.88784638 42.20995518 8.17343119
v 58.54507071 42.20995518 7.87994650
v 58.58983543 42.20995518 7.86008592
v 59.11073227 42.01556775 7.74534003
v 59.58482975 41.85033624 7.64383410
v 58.72209492 41.01835369 8.51987573
v 59.57262061 39.91616595 8.87735335
v 59.58482975 41.41879402 7.90863201
v 60.11183052 41.24189963 7.80050674
v 59.57262061 40.71510580 8.35658247
v 59.27758198 40.40213840 8.67875524
v 60.44756458 39.59931178 8.71847383
v 60.10369195 38.64875184 9.52390191
v 60.67749208 38.48935307 9.40915731
v 59.92463310 37.68652645 10.31609132
v 61.04374707 36.96145584 10.41759725
v 60.44756458 37.11696784 10.54337622
v 59.56651668 37.29385966 10.77286928
v 59.78423632 36.75151617 11.11490006
v 60.44756458 36.14890972 11.33115188
v 59.58482975 35.42967183 12.31752629
v 59.03544663 35.08171578 12.88022263
v 58.45961186 35.24694471 13.03248217
v 57.85935881 34.96119500 13.62386531
v 57.35677504 35.10504155 13.76067736
v 57.08411876 35.63183538 13.41643970
v 56.78297491 35.27610321 13.92838309
v 56.29870421 34.98063400 14.50211317
v 56.76262848 34.40718605 14.78235790
v 55.71879887 34.29443882 15.53482679
v 55.75949430 33.45662354 16.42410837
v 55.27318896 34.03979099 16.11738372
v 55.27318896 33.21752538 17.02211149
v 53.75526315 34.98257739 16.21668277
v 58.47589029 29.20145148 19.96137381
v 57.85935881 29.77489943 19.55976289
v 58.30700465 29.98483909 18.98382658
v 58.88283942 29.84876609 18.80288090
v 59.35693819 30.06259510 18.22915082
v 59.58482975 29.26559864 19.18021845
v 59.58482975 28.95069042 19.61051617
v 60.42111294 28.80101115 19.35233761
v 60.90945421 28.26255185 19.85324790
v 61.92886554 27.62884609 20.25265228
v 61.48528898 28.15758331 19.70098869
v 61.92886554 28.07593796 19.59065623
v 62.17507017 28.03122980 19.53107642
v 62.63492387 28.26060847 18.98823969
v 63.21075928 28.16924619 18.86025384
v 63.83135876 27.59385486 19.43177704
v 65.98616184 27.37419569 18.95293323
v 66.48467633 27.32171142 18.87570035
v 63.89647055 28.36946636 18.28211066
v 64.19150983 29.06926524 17.19643720
v 64.76124066 28.52497836 17.73706737
v 65.62194085 28.46082863 17.53626175
v 65.62194085 28.14980719 17.96876602
v 66.48467633 27.61718063 18.44319640
v 67.32909809 26.76186974 19.46267039
v 67.60379029 26.49166969 19.78704843
v 67.02795488 26.54804330 19.87090129
v 67.34741116 27.23617930 18.74992106
v 67.32909809 26.28173002 20.20189931
v 68.21014599 26.08345324 20.26809879
v 68.87754482 25.69078645 20.74914915
v 69.07084682 25.00265046 21.92308922
v 69.93358165 25.35060651 21.13090046
v 69.93358165 25.62858268 20.64543667
v 70.79631712 25.58193113 20.57261689
v 71.65905195 25.83074623 20.09597996
v 72.52178742 25.81519657 20.07612002
v 73.38452226 26.21758286 19.40529712
v 73.82402888 25.52944429 20.48876403
v 72.52178742 32.84041082 11.48561764
v 71.65905195 32.85984982 11.50989069
v 70.79631712 32.89678443 11.54519746
v 69.93358165 32.50217426 12.02183471
v 69.35571224 32.53910888 12.05714149
v 68.77987715 32.57993027 12.09906695
v 73.82402888 33.03480083 11.26715896
v 73.82402888 32.82097182 11.46796458
v 73.38452226 32.82680455 11.47017081
v 63.89647055 35.91370089 10.27637144
v 63.91478362 36.50269850 9.80635353
v 63.64009206 36.94201684 9.54376250
v 63.03577036 37.49796917 9.30985697
v 62.96048472 38.18027501 8.83322101
v 63.89647055 34.98063400 11.06635398
v 64.75920602 34.39746655 11.31791192
v 63.89647055 34.54714583 11.44810464
v 63.89647055 35.48021272 10.63384906
v 66.48467633 33.72293682 11.49003139
v 65.77454742 33.34387888 12.00638788
v 65.20074729 33.42552166 12.08141453
v 62.17507017 39.14638718 8.41395605
v 61.45680270 39.31939223 8.53311440
v 62.34191988 40.18636858 7.67472648
v 62.66747944 41.22051724 6.92225824
v 61.92886554 40.50127679 7.61294172
v 63.02966643 42.20995518 6.26026284
v 62.17507017 38.71484496 8.70744075
v 61.92886554 38.92089528 8.64786157
v 61.92886554 37.88674662 9.39591607
v 61.92886554 38.15889263 9.19731796
v 68.21014599 33.52466004 11.31349881
v 67.34741116 33.61602232 11.39514480
v 66.48467633 33.25445999 11.92032815
v 56.33329443 33.28167511 16.23433616
v 56.76669777 33.54409905 15.65839953
v 57.34253254 33.37109400 15.47304074
v 56.37805914 32.45357676 17.12361742
v 56.99865990 31.85485965 17.43254895
v 56.99865990 31.50107087 17.86284635
v 57.57856267 30.91790599 18.21591086
v 57.85935881 30.09175360 19.12725894
v 57.81459409 31.24642304 17.64659453
v 58.05062552 31.57299671 17.10155093
v 58.72209492 30.97622042 17.41489589
v 58.72209492 30.63409709 17.84519328
v 58.64680800 30.16173091 18.52704926
v 58.97847406 42.20995518 7.69017332
v 59.62349054 42.20995518 7.42316854
v 60.44349530 42.20995518 7.10541080
v 60.41907830 41.56652863 7.49157521
v 60.68766529 41.07278135 7.69458707
v 60.88300257 39.46324135 8.63020787
v 59.85138210 40.21941385 8.55959432
v 61.22484056 39.03169913 8.81336042
v 61.31030070 38.32800833 9.28999768
v 61.61754719 36.80983317 10.30285136
v 60.44756458 37.54851006 10.21017165
v 61.26757063 36.41910977 10.76404178
v 60.44756458 36.58045451 10.97367426
v 60.91555814 36.02838894 11.23185283
v 60.24815930 35.25861017 12.17188737
v 59.58482975 34.93981261 12.75003056
v 59.58482975 34.50826783 13.15605426
v 59.01509891 34.21279604 13.72978434
v 58.73837335 34.72598361 13.37892670
v 57.85935881 34.08255577 14.46680639
v 57.33846197 34.22834827 14.61244595
v 57.05359655 33.88816833 15.12659620
v 59.20433098 30.85958898 17.27587663
v 59.56855133 30.40083165 17.66866070
v 59.93277167 29.94207175 18.06365197
v 60.11589981 29.15285397 19.02795956
v 60.68969993 29.04010931 18.86908037
v 61.31030070 28.92347531 18.70358152
v 61.24315363 28.44916575 19.41191710
v 61.81084854 29.13730175 18.14309141
v 61.92886554 29.11591936 18.11881804
v 62.96862329 28.46082863 18.56014884
v 67.34741116 27.52776174 18.31962366
v 63.03577036 28.93708158 17.87167320
v 63.90257512 28.83794319 17.63335457
v 64.75920602 29.34529803 16.67125353
v 64.75920602 28.99539858 17.10155093
v 63.61567506 29.16451686 17.31338964
v 61.92886554 29.87014847 17.11920432
v 63.11512529 29.74379497 16.79703283
v 63.45289463 29.97123025 16.38218194
v 63.89647055 30.25698253 15.86803136
v 64.75920602 30.13646176 15.71577247
v 66.48467633 28.05066880 17.83195332
v 66.48467633 28.36363620 17.39944905
v 68.21014599 26.44112880 19.71202210
v 69.07084682 26.38475518 19.62375581
v 69.12782003 25.91239158 20.34974510
v 69.93358165 25.90461546 20.21513895
v 69.93358165 26.33616025 19.54652293
v 70.79631712 25.86379407 20.14231950
v 71.65905195 26.26229102 19.43839702
v 72.20843508 26.53249107 18.98382658
v 72.78223520 26.51888480 18.96175977
v 70.79631712 26.91154902 18.54470233
v 73.38452226 26.51110869 18.95072668
v 73.82402888 26.51110869 18.95293323
v 73.82402888 26.00764062 19.73629514
v 73.38452226 32.38165349 11.90046885
v 72.52178742 32.39331637 11.91812191
v 71.65905195 32.41858810 11.94018873
v 70.79631712 32.45357676 11.97549486
v 69.93358165 32.07451882 12.44551213
v 69.30280831 31.67602187 12.91552941
v 68.72697354 31.71489987 12.95524928
v 68.21014599 32.63824727 12.15202679
v 68.21014599 33.06784610 11.74379621
v 68.21014599 32.19698298 12.58232483
v 73.82402888 32.37971010 11.89826197
v 62.86688601 36.11392106 10.43745783
v 63.10698672 36.41716639 10.12190568
v 62.17507017 36.68736644 10.20796606
v 63.03577036 37.06837034 9.63864909
v 62.39685781 37.63987233 9.42019040
v 62.13437475 37.33468362 9.73574127
v 62.62678530 34.29443882 12.08582764
v 63.31453121 35.08948932 11.16344615
v 64.75920602 33.49550154 12.14761369
v 63.89647055 34.06894949 11.88060827
v 63.20262007 34.18947027 11.99094169
v 62.73869580 35.20029317 11.26053898
v 66.48467633 32.82097182 12.32855937
v 65.54055064 33.02896810 12.36386614
v 65.16005187 32.55077176 12.93097560
v 61.92886554 38.79648774 8.73392067
v 61.92886554 40.29328051 7.74313315
v 61.92886554 40.72482530 7.47612838
v 61.92886554 41.44211980 7.03921100
v 61.92886554 41.86199913 6.79647927
v 62.20355646 42.20995518 6.51182078
v 62.48435259 42.20995518 6.42576169
v 61.31030070 40.89588696 7.58425364
v 61.76405047 40.33604785 7.77402682
v 61.31030070 40.46434474 7.85346658
v 61.82102304 37.77205600 9.51728258
v 67.34741116 33.15726499 11.82764907
v 57.85935881 32.80542216 15.80403844
v 57.40357568 32.54882838 16.37335541
v 57.85935881 33.65101355 14.89489756
v 57.85935881 33.23502099 15.32519495
v 57.06987626 32.33305598 16.83013272
v 57.47682539 31.72656276 17.27808319
v 58.54303607 31.82375776 16.52782117
v 58.78720735 31.45441932 16.81468589
v 60.76498557 42.20995518 6.99066491
v 61.01526078 42.13025579 6.94653129
v 61.30623013 41.65011608 7.12968384
v 61.92886554 36.49880916 10.44187029
v 61.49139291 35.89231594 11.11048632
v 60.82195943 35.12253716 12.05493461
v 60.50453844 34.74153583 12.52936499
v 60.18508152 34.36053193 13.01482846
v 59.58482975 34.06894949 13.58635230
v 59.01306427 33.35359838 14.59258601
v 58.43722950 33.49744493 14.74043179
v 58.44129879 34.36830805 13.88204387
v 60.44756458 30.59521909 16.95811857
v 61.03560849 30.04121014 17.32883615
v 60.44756458 30.16367687 17.48992189
v 59.11683620 31.68379799 16.36894198
v 59.58482975 31.95011127 15.80845219
v 60.23798609 31.79848603 15.63633271
v 60.44756458 29.83321386 17.92021929
v 60.42111294 29.36668041 18.56676882
v 61.31030070 29.22866659 18.27328413
v 61.31843927 29.69325408 17.64218111
v 61.61144326 29.92652209 17.18761034
v 61.92886554 29.21700113 17.98200566
v 68.21014599 27.45778185 18.21370431
v 67.12969281 28.29365374 17.30456310
v 67.39014123 28.01179080 17.62894115
v 67.70552757 28.23922608 17.23174333
v 63.03577036 29.25782509 17.43916893
v 66.01057884 29.96345671 15.51496685
v 65.62194085 28.89431681 16.97135853
v 65.62194085 29.23644014 16.53885426
v 62.87909387 30.06648187 16.49692783
v 61.92886554 29.57467669 17.50757528
v 62.72648794 30.88291476 15.57454667
v 63.30028807 30.78183298 15.45759391
v 63.89647055 30.69047071 15.34946800
v 64.75920602 30.56606059 15.21044907
v 66.52333647 28.84766269 16.76834635
v 69.07084682 26.67050746 19.19125186
v 69.93358165 26.99708113 18.54470233
v 69.93358165 26.61996658 19.11622553
v 71.65905195 26.54804330 19.00809962
v 70.79631712 27.29060953 17.97538600
v 72.50550900 26.75992635 18.62193521
v 73.38452226 26.79880435 18.51822241
v 73.82402888 26.79880435 18.52042928
v 73.38452226 31.52634260 12.76106364
v 72.52178742 31.52828598 12.76768298
v 72.52178742 31.96566093 12.33738622
v 71.65905195 31.98898670 12.35945240
v 71.65905195 31.54966837 12.79195667
v 70.79631712 31.59243571 12.83167654
v 69.93358165 31.63908726 12.87801640
v 69.93358165 31.20948843 13.34141370
v 69.93358165 30.81099148 13.77171045
v 69.48390116 30.83626064 13.80039724
v 68.21014599 31.76738415 13.01041535
v 67.34741116 32.28834782 12.67059080
v 69.14613246 30.54467820 14.17552857
v 69.07084682 30.04315609 14.74263867
v 68.21014599 30.54662159 14.34323429
v 67.34741116 30.62437759 14.42929339
v 67.34741116 31.02093115 13.99899599
v 67.34741116 32.72766616 12.23808653
v 73.82402888 31.52634260 12.76106364
v 62.17507017 35.74652600 10.98470734
v 62.17507017 36.25582422 10.55441059
v 62.96251936 33.88039222 12.35503929
v 62.57184609 33.40997200 12.92876937
v 62.24018260 33.83179471 12.66397082
v 61.92886554 34.44606405 12.22043346
v 61.92886554 34.56658483 12.11230691
v 61.92886554 35.79706689 11.02884033
v 63.89647055 33.18642349 12.71031068
v 63.89647055 33.63546132 12.28001264
v 66.48467633 32.38165349 12.75885677
v 65.62194085 32.48856799 12.86698267
v 64.58421710 32.64213404 13.02586154
v 65.78879056 31.62936776 13.72757811
v 65.21499044 31.70712376 13.81143033
v 64.75920602 31.36888720 14.31013440
v 63.89647055 31.49135137 14.44474022
v 63.89647055 31.90540054 14.01444283
v 61.59109555 41.96113752 6.85164598
v 61.44255891 42.20995518 6.76117314
v 58.47181972 32.64991015 15.62529963
v 58.74244264 33.00175298 15.10452939
v 61.09054642 42.20995518 6.87812590
v 61.31030070 35.01367927 11.95784115
v 61.31030070 34.58213706 12.34621244
v 61.31030070 34.11171427 12.77651047
v 60.76091629 34.23417843 12.88904949
v 61.31030070 33.68017205 13.19356727
v 60.75277772 33.36720465 13.74743741
v 60.17897759 33.49550154 13.87542325
v 59.58482975 33.20974926 14.45136020
v 60.17694295 32.63824727 14.74484490
v 59.58482975 32.78209382 14.89710443
v 60.49436394 31.43498032 15.93864426
v 60.81382086 31.67407849 15.49510691
v 60.92369671 30.85764560 16.40866186
v 59.04765448 32.50995038 15.47083386
v 59.58482975 32.37971010 15.32960806
v 60.49436394 32.15227482 15.11997622
v 62.17507017 30.61854486 16.12620993
v 61.49749684 30.74295498 16.27846914
v 61.92886554 31.01315503 15.76873231
v 62.13030546 29.35501753 17.70838058
v 68.21014599 27.83683979 17.68190066
v 68.81446768 27.41501708 18.14971138
v 66.83668817 29.09453697 16.36452856
v 68.21014599 28.20034808 17.18319724
v 67.34741116 29.04593947 16.30494906
v 68.21014599 28.97012942 16.20785624
v 69.07084682 29.24421625 15.68708632
v 65.29027608 30.86541914 14.69629881
v 65.86611149 30.78960910 14.61244595
v 66.48467633 30.28030830 15.01847030
v 66.48467633 29.91096986 15.44876769
v 61.92886554 31.15311481 15.60543969
v 61.92886554 31.57105075 15.13321618
v 62.96658865 31.24253370 15.06701639
v 63.20668936 31.60409860 14.56610609
v 63.89647055 31.06175253 14.91917060
v 64.75920602 30.93928837 14.77794480
v 69.39030309 27.37419569 18.09013189
v 69.93358165 27.33531769 18.03717205
v 69.93358165 27.65411524 17.60466778
v 70.79631712 27.61135047 17.54508828
v 71.65905195 27.58413536 17.50978183
v 71.65905195 27.26533780 17.94228610
v 72.52178742 27.24589880 17.91359931
v 73.38452226 27.22840319 17.89594625
v 73.82402888 27.01068741 18.21370431
v 73.82402888 31.09285442 13.20901410
v 73.38452226 31.09285442 13.21122098
v 72.52178742 31.09868715 13.21784096
v 71.65905195 31.12006954 13.23990713
v 70.79631712 31.16089092 13.28845386
v 70.79631712 30.76239398 13.71875126
v 69.69348094 29.99844536 14.68967883
v 67.34741116 31.85874642 13.10750818
v 69.07084682 29.67381508 15.17293606
v 68.21014599 30.11702275 14.82649089
v 67.34741116 30.19088942 14.91475750
v 66.48467633 30.71379648 14.52859308
v 66.48467633 31.11423681 14.09829569
v 63.03577036 33.33027004 12.84932961
v 63.03577036 32.89678443 13.29066073
v 62.60033366 32.56049126 13.80260412
v 61.92886554 32.68878816 13.93500307
v 61.31030070 32.39331637 14.49108008
v 60.75277772 32.50606103 14.60803220
v 61.92886554 33.54604243 13.06116832
v 61.92886554 33.58880978 13.01924221
v 66.48467633 31.95399804 13.20901410
v 63.89647055 32.75682466 13.14060807
v 63.89647055 32.33305598 13.57311234
v 61.31030070 31.96371754 14.95447737
v 61.31030070 31.57882687 15.38698100
v 67.34741116 29.39389553 15.87244511
v 69.07084682 28.90597969 16.11958995
v 69.07084682 28.47249152 16.67566696
v 69.07084682 28.14008769 17.10817091
v 68.21014599 29.31613952 15.77755916
v 69.93358165 29.18589925 15.61647342
v 67.34741116 29.82738370 15.34505489
v 62.63288923 31.71101053 14.67864574
v 69.93358165 28.08371408 17.03535145
v 70.79631712 28.04094930 16.97797851
v 71.65905195 28.01373419 16.93605176
v 72.52178742 28.31503870 16.47265478
v 72.52178742 27.56080958 17.48109536
v 73.82402888 27.23034657 17.89815312
v 73.38452226 27.54914670 17.46344198
v 73.82402888 30.88680410 13.42747279
v 73.82402888 30.69047071 13.63931150
v 73.38452226 30.69435748 13.64151837
v 72.52178742 30.70213359 13.64813835
v 71.65905195 30.72351598 13.67241140
v 70.26728107 29.96734348 14.65437206
v 69.96206858 29.68159120 15.02509028
v 68.21014599 29.74962770 15.25899516
v 61.92886554 32.32916921 14.31013440
v 61.92886554 31.96760431 14.69188506
v 69.93358165 28.84960608 16.04897705
v 70.79631712 29.14507786 15.56571981
v 70.79631712 28.80684130 15.99601785
v 71.65905195 28.34225124 16.50575436
v 71.63666960 28.83211303 15.87685822
v 73.38452226 28.30920597 16.46162138
v 73.38452226 27.98068891 16.89191877
v 71.91136116 29.09842631 15.51055374
v 72.52178742 28.71547903 15.95629797
v 73.38452226 28.69798341 15.95629797
v 73.82402888 27.55303347 17.46564885
v 73.82402888 27.98068891 16.89412565
v 73.82402888 30.25698253 14.12256873
v 73.38452226 30.26086930 14.12256873
v 72.52178742 30.26864542 14.13580869
v 71.65905195 30.29002780 14.16228861
v 70.79631712 29.94401770 14.63009901
v 73.82402888 28.30920597 16.46162138
v 72.52178742 29.45998864 15.05818953
v 72.52178742 29.08287409 15.49069380
v 71.65905195 29.91291325 14.59479224
v 73.38452226 29.07509797 15.48186759
v 73.82402888 28.88848408 15.72018558
v 73.82402888 28.49970663 16.21447622
v 73.82402888 29.87986797 14.55507300
v 73.38452226 29.44637980 15.04936332
v 73.38452226 29.87986797 14.55507300
v 73.82402888 29.07704136 15.48628070
v 73.82402888 29.44637980 15.05598330
f 1 2 3
f 1 3 8
f 1 8 4
f 1 4 10
f 1 10 39
f 1 39 71
f 1 71 121
f 1 121 204
f 1 204 208
f 1 208 207
f 1 207 302
f 1 302 425
f 1 425 541
f 1 541 539
f 1 539 538
f 1 538 537
f 1 537 651
f 1 651 773
f 1 773 878
f 1 878 877
f 1 877 971
f 1 971 1059
f 1 1059 1099
f 1 1099 1121
f 1 1121 1122
f 1 1122 1128
f 1 1128 1134
f 1 1134 1133
f 1 1133 1138
f 1 1138 1139
f 1 1139 1135
f 1 1135 1123
f 1 1123 1102
f 1 1102 1101
f 1 1101 1060
f 1 1060 990
f 1 990 889
f 1 889 781
f 1 781 780
f 1 780 658
f 1 658 657
f 1 657 545
f 1 545 430
f 1 430 304
f 1 304 210
f 1 210 126
f 1 126 124
f 1 124 72
f 1 72 40
f 1 40 11
f 1 11 5
f 1 5 2
f 2 6 12
f 2 12 43
f 2 43 80
f 2 80 83
f 2 83 82
f 2 82 81
f 2 81 143
f 2 143 228
f 2 228 323
f 2 323 456
f 2 456 379
f 2 379 378
f 2 378 272
f 2 272 271
f 2 271 270
f 2 270 171
f 2 171 96
f 2 96 50
f 2 50 15
f 2 15 8
f 2 8 3
f 2 5 7
f 2 7 14
f 2 14 49
f 2 49 94
f 2 94 162
f 2 162 161
f 2 161 169
f 2 169 268
f 2 268 267
f 2 267 377
f 2 377 504
f 2 504 503
f 2 503 502
f 2 502 501
f 2 501 613
f 2 613 685
f 2 685 684
f 2 684 683
f 2 683 570
f 2 570 569
f 2 569 568
f 2 568 461
f 2 461 460
f 2 460 458
f 2 458 457
f 2 457 459
f 2 459 335
f 2 335 331
f 2 331 330
f 2 330 329
f 2 329 328
f 2 328 231
f 2 231 146
f 2 146 145
f 2 145 85
f 2 85 45
f 2 45 13
f 2 13 6
f 4 9 10
f 4 8 9
f 5 11 42
f 5 42 77
f 5 77 138
f 5 138 222
f 5 222 320
f 5 320 452
f 5 452 451
f 5 451 565
f 5 565 679
f 5 679 800
f 5 800 911
f 5 911 910
f 5 910 1010
f 5 1010 1013
f 5 1013 925
f 5 925 823
f 5 823 822
f 5 822 821
f 5 821 703
f 5 703 702
f 5 702 701
f 5 701 590
f 5 590 589
f 5 589 475
f 5 475 353
f 5 353 250
f 5 250 158
f 5 158 157
f 5 157 91
f 5 91 47
f 5 47 14
f 5 14 7
f 6 13 12
f 8 15 16
f 8 16 17
f 8 17 18
f 8 18 19
f 8 19 20
f 8 20 21
f 8 21 22
f 8 22 23
f 8 23 24
f 8 24 25
f 8 25 26
f 8 26 27
f 8 27 28
f 8 28 29
f 8 29 30
f 8 30 31
f 8 31 32
f 8 32 33
f 8 33 34
f 8 34 35
f 8 35 36
f 8 36 9
f 9 36 37
f 9 37 38
f 9 38 10
f 10 38 39
f 11 40 41
f 11 41 42
f 12 13 43
f 13 44 43
f 13 45 46
f 13 46 44
f 14 47 48
f 14 48 49
f 15 50 51
f 15 51 16
f 16 51 52
f 16 52 17
f 17 52 53
f 17 53 18
f 18 53 54
f 18 54 55
f 18 55 56
f 18 56 19
f 19 56 57
f 19 57 20
f 20 57 58
f 20 58 21
f 21 58 59
f 21 59 22
f 22 59 23
f 23 59 60
f 23 60 24
f 24 60 61
f 24 61 62
f 24 62 25
f 25 62 26
f 26 62 63
f 26 63 27
f 27 63 28
f 28 63 64
f 28 64 29
f 29 64 30
f 30 64 65
f 30 65 31
f 31 65 32
f 32 65 33
f 33 65 66
f 33 66 34
f 34 66 35
f 35 66 67
f 35 67 36
f 36 67 37
f 37 67 68
f 37 68 38
f 38 68 69
f 38 69 39
f 39 69 70
f 39 70 71
f 40 72 41
f 41 72 73
f 41 73 74
f 41 74 42
f 42 75 76
f 42 76 77
f 42 74 78
f 42 78 79
f 42 79 75
f 43 44 80
f 44 81 82
f 44 82 83
f 44 83 80
f 44 46 84
f 44 84 81
f 45 85 86
f 45 86 46
f 46 86 87
f 46 87 88
f 46 88 89
f 46 89 90
f 46 90 84
f 47 91 92
f 47 92 48
f 48 93 94
f 48 94 49
f 48 92 95
f 48 95 93
f 50 96 97
f 50 97 51
f 51 98 99
f 51 99 100
f 51 100 52
f 51 97 98
f 52 100 53
f 53 100 55
f 53 55 54
f 55 100 101
f 55 101 58
f 55 58 57
f 55 57 56
f 58 101 102
f 58 102 103
f 58 103 104
f 58 104 105
f 58 105 106
f 58 106 107
f 58 107 108
f 58 108 59
f 59 108 60
f 60 108 61
f 61 108 109
f 61 109 110
f 61 110 111
f 61 111 62
f 62 111 63
f 63 111 112
f 63 112 64
f 64 112 113
f 64 113 65
f 65 113 114
f 65 114 115
f 65 115 116
f 65 116 66
f 66 116 117
f 66 117 67
f 67 117 118
f 67 118 68
f 68 118 119
f 68 119 120
f 68 120 69
f 69 120 70
f 70 121 71
f 70 120 122
f 70 122 123
f 70 123 204
f 70 204 121
f 72 124 73
f 73 125 74
f 73 124 126
f 73 126 127
f 73 127 125
f 74 125 128
f 74 128 129
f 74 129 78
f 75 130 131
f 75 131 76
f 75 79 130
f 76 132 133
f 76 133 134
f 76 134 135
f 76 135 77
f 76 131 136
f 76 136 137
f 76 137 132
f 77 135 138
f 78 129 139
f 78 139 140
f 78 140 79
f 79 140 141
f 79 141 142
f 79 142 130
f 81 84 144
f 81 144 143
f 84 90 144
f 85 145 86
f 86 145 146
f 86 146 147
f 86 147 148
f 86 148 149
f 86 149 87
f 87 149 88
f 88 149 150
f 88 150 89
f 89 150 151
f 89 151 152
f 89 152 153
f 89 153 154
f 89 154 155
f 89 155 90
f 90 155 156
f 90 156 144
f 91 157 92
f 92 157 158
f 92 158 159
f 92 159 160
f 92 160 95
f 93 161 162
f 93 162 94
f 93 95 163
f 93 163 164
f 93 164 165
f 93 165 166
f 93 166 167
f 93 167 168
f 93 168 169
f 93 169 161
f 95 160 170
f 95 170 163
f 96 171 172
f 96 172 97
f 97 172 173
f 97 173 98
f 98 173 174
f 98 174 175
f 98 175 176
f 98 176 177
f 98 177 178
f 98 178 179
f 98 179 180
f 98 180 99
f 99 181 100
f 99 180 182
f 99 182 183
f 99 183 184
f 99 184 185
f 99 185 181
f 100 181 101
f 101 185 186
f 101 186 102
f 101 181 185
f 102 186 103
f 103 187 104
f 103 186 187
f 104 187 105
f 105 187 188
f 105 188 189
f 105 189 190
f 105 190 106
f 106 190 191
f 106 191 192
f 106 192 107
f 107 193 108
f 107 192 193
f 108 193 109
f 109 193 194
f 109 194 110
f 110 195 111
f 110 194 196
f 110 196 195
f 111 195 112
f 112 114 113
f 112 195 197
f 112 197 198
f 112 198 199
f 112 199 114
f 114 199 115
f 115 199 116
f 116 199 198
f 116 198 200
f 116 200 117
f 117 200 201
f 117 201 202
f 117 202 203
f 117 203 119
f 117 119 118
f 119 203 122
f 119 122 120
f 122 203 205
f 122 205 123
f 123 205 206
f 123 206 207
f 123 207 208
f 123 208 204
f 125 127 209
f 125 209 128
f 126 210 211
f 126 211 127
f 127 211 209
f 128 209 212
f 128 212 213
f 128 213 139
f 128 139 129
f 130 142 214
f 130 214 131
f 131 214 215
f 131 215 216
f 131 216 217
f 131 217 136
f 132 137 218
f 132 218 133
f 133 218 219
f 133 219 220
f 133 220 221
f 133 221 222
f 133 222 138
f 133 138 223
f 133 223 134
f 134 223 138
f 134 138 135
f 136 217 224
f 136 224 225
f 136 225 218
f 136 218 137
f 139 141 140
f 139 213 141
f 141 226 215
f 141 215 214
f 141 214 142
f 141 213 227
f 141 227 226
f 143 144 229
f 143 229 228
f 144 156 230
f 144 230 229
f 146 231 232
f 146 232 147
f 147 232 148
f 148 232 150
f 148 150 149
f 150 232 151
f 151 232 233
f 151 233 152
f 152 234 235
f 152 235 236
f 152 236 237
f 152 237 238
f 152 238 239
f 152 239 240
f 152 240 241
f 152 241 242
f 152 242 243
f 152 243 153
f 152 233 244
f 152 244 234
f 153 243 154
f 154 243 245
f 154 245 155
f 155 246 156
f 155 245 247
f 155 247 248
f 155 248 246
f 156 246 249
f 156 249 230
f 158 250 159
f 159 170 160
f 159 250 170
f 163 251 165
f 163 165 164
f 163 170 251
f 165 252 253
f 165 253 254
f 165 254 255
f 165 255 166
f 165 251 170
f 165 170 256
f 165 256 257
f 165 257 258
f 165 258 259
f 165 259 260
f 165 260 252
f 166 255 261
f 166 261 262
f 166 262 263
f 166 263 167
f 167 263 262
f 167 262 264
f 167 264 265
f 167 265 266
f 167 266 168
f 168 266 267
f 168 267 268
f 168 268 169
f 170 250 269
f 170 269 256
f 171 270 172
f 172 174 173
f 172 270 271
f 172 271 174
f 174 271 272
f 174 272 273
f 174 273 175
f 175 274 275
f 175 275 276
f 175 276 277
f 175 277 176
f 175 273 274
f 176 277 278
f 176 278 177
f 177 278 178
f 178 278 279
f 178 279 179
f 179 280 182
f 179 182 180
f 179 279 281
f 179 281 282
f 179 282 280
f 182 280 183
f 183 185 184
f 183 280 283
f 183 283 185
f 185 283 187
f 185 187 186
f 187 283 284
f 187 284 188
f 188 285 286
f 188 286 189
f 188 284 285
f 189 286 287
f 189 287 288
f 189 288 289
f 189 289 191
f 189 191 190
f 191 289 192
f 192 289 193
f 193 289 196
f 193 196 194
f 195 196 290
f 195 290 291
f 195 291 292
f 195 292 197
f 196 289 293
f 196 293 294
f 196 294 290
f 197 292 295
f 197 295 296
f 197 296 198
f 198 296 201
f 198 201 200
f 201 296 297
f 201 297 202
f 202 297 298
f 202 298 203
f 203 298 299
f 203 299 205
f 205 299 300
f 205 300 206
f 206 300 301
f 206 301 207
f 207 301 302
f 209 211 303
f 209 303 212
f 210 304 211
f 211 304 305
f 211 305 303
f 212 303 213
f 213 303 306
f 213 306 307
f 213 307 227
f 215 226 217
f 215 217 216
f 217 308 224
f 217 226 227
f 217 227 309
f 217 309 310
f 217 310 311
f 217 311 308
f 218 225 219
f 219 225 312
f 219 312 313
f 219 313 220
f 220 313 314
f 220 314 315
f 220 315 221
f 221 316 317
f 221 317 318
f 221 318 222
f 221 315 316
f 222 318 317
f 222 317 319
f 222 319 320
f 224 308 225
f 225 321 312
f 225 308 321
f 227 307 322
f 227 322 309
f 228 229 324
f 228 324 325
f 228 325 323
f 229 230 326
f 229 326 324
f 230 249 327
f 230 327 324
f 230 324 326
f 231 328 232
f 232 328 329
f 232 329 233
f 233 329 330
f 233 330 244
f 234 244 331
f 234 331 235
f 235 331 332
f 235 332 236
f 236 333 334
f 236 334 237
f 236 332 331
f 236 331 335
f 236 335 333
f 237 336 337
f 237 337 338
f 237 338 339
f 237 339 340
f 237 340 238
f 237 334 336
f 238 340 341
f 238 341 239
f 239 341 342
f 239 342 240
f 240 343 241
f 240 342 344
f 240 344 345
f 240 345 343
f 241 343 346
f 241 346 242
f 242 346 347
f 242 347 348
f 242 348 243
f 243 349 350
f 243 350 245
f 243 348 351
f 243 351 349
f 244 330 331
f 245 350 248
f 245 248 247
f 246 248 352
f 246 352 249
f 248 350 349
f 248 349 352
f 249 352 327
f 250 353 354
f 250 354 269
f 252 260 259
f 252 259 355
f 252 355 356
f 252 356 357
f 252 357 358
f 252 358 359
f 252 359 360
f 252 360 361
f 252 361 362
f 252 362 363
f 252 363 364
f 252 364 253
f 253 364 254
f 254 364 365
f 254 365 366
f 254 366 367
f 254 367 264
f 254 264 262
f 254 262 255
f 255 262 261
f 256 269 368
f 256 368 369
f 256 369 257
f 257 369 258
f 258 369 370
f 258 370 259
f 259 370 355
f 264 367 265
f 265 371 372
f 265 372 373
f 265 373 374
f 265 374 375
f 265 375 376
f 265 376 266
f 265 367 371
f 266 376 377
f 266 377 267
f 269 354 368
f 272 378 273
f 273 378 379
f 273 379 325
f 273 325 274
f 274 327 380
f 274 380 381
f 274 381 275
f 274 325 324
f 274 324 327
f 275 381 382
f 275 382 383
f 275 383 276
f 276 281 279
f 276 279 278
f 276 278 277
f 276 383 384
f 276 384 385
f 276 385 386
f 276 386 387
f 276 387 388
f 276 388 389
f 276 389 390
f 276 390 391
f 276 391 281
f 280 282 283
f 281 391 282
f 282 392 393
f 282 393 283
f 282 391 392
f 283 393 284
f 284 393 392
f 284 392 394
f 284 394 395
f 284 395 396
f 284 396 285
f 285 397 286
f 285 396 398
f 285 398 399
f 285 399 400
f 285 400 397
f 286 397 401
f 286 401 402
f 286 402 403
f 286 403 404
f 286 404 287
f 287 405 406
f 287 406 288
f 287 404 405
f 288 406 289
f 289 407 408
f 289 408 293
f 289 406 409
f 289 409 410
f 289 410 411
f 289 411 407
f 290 294 291
f 291 412 295
f 291 295 292
f 291 294 413
f 291 413 412
f 293 408 413
f 293 413 294
f 295 412 414
f 295 414 296
f 296 414 415
f 296 415 297
f 297 416 298
f 297 415 416
f 298 416 299
f 299 416 417
f 299 417 418
f 299 418 300
f 300 418 419
f 300 419 420
f 300 420 421
f 300 421 422
f 300 422 423
f 300 423 424
f 300 424 301
f 301 424 425
f 301 425 302
f 303 305 426
f 303 426 427
f 303 427 428
f 303 428 429
f 303 429 306
f 304 430 431
f 304 431 305
f 305 431 432
f 305 432 426
f 306 429 433
f 306 433 434
f 306 434 307
f 307 434 435
f 307 435 322
f 308 436 437
f 308 437 321
f 308 311 438
f 308 438 439
f 308 439 440
f 308 440 436
f 309 322 310
f 310 322 441
f 310 441 311
f 311 441 438
f 312 321 313
f 313 321 437
f 313 437 442
f 313 442 443
f 313 443 314
f 314 443 315
f 315 444 445
f 315 445 316
f 315 443 446
f 315 446 447
f 315 447 444
f 316 445 448
f 316 448 449
f 316 449 317
f 317 449 450
f 317 450 319
f 319 451 452
f 319 452 320
f 319 450 453
f 319 453 454
f 319 454 451
f 322 435 455
f 322 455 441
f 323 325 456
f 325 379 456
f 327 352 380
f 333 457 458
f 333 458 334
f 333 335 459
f 333 459 457
f 334 458 460
f 334 460 336
f 336 460 461
f 336 461 337
f 337 461 338
f 338 461 462
f 338 462 463
f 338 463 464
f 338 464 465
f 338 465 466
f 338 466 339
f 339 466 340
f 340 467 344
f 340 344 341
f 340 466 468
f 340 468 469
f 340 469 467
f 341 344 342
f 343 347 346
f 343 345 470
f 343 470 347
f 344 467 345
f 345 467 470
f 347 471 348
f 347 470 471
f 348 471 351
f 349 385 382
f 349 382 381
f 349 381 380
f 349 380 352
f 349 351 472
f 349 472 473
f 349 473 474
f 349 474 386
f 349 386 385
f 351 471 472
f 353 475 476
f 353 476 354
f 354 476 477
f 354 477 478
f 354 478 368
f 355 370 356
f 356 358 357
f 356 370 479
f 356 479 480
f 356 480 358
f 358 480 481
f 358 481 482
f 358 482 359
f 359 483 484
f 359 484 485
f 359 485 360
f 359 482 486
f 359 486 483
f 360 485 361
f 361 485 362
f 362 487 488
f 362 488 363
f 362 485 487
f 363 488 364
f 364 488 365
f 365 488 366
f 366 488 489
f 366 489 367
f 367 489 490
f 367 490 371
f 368 478 369
f 369 478 370
f 370 478 491
f 370 491 492
f 370 492 493
f 370 493 479
f 371 490 372
f 372 494 495
f 372 495 496
f 372 496 373
f 372 490 489
f 372 489 497
f 372 497 494
f 373 496 498
f 373 498 374
f 374 498 499
f 374 499 500
f 374 500 375
f 375 500 501
f 375 501 502
f 375 502 503
f 375 503 376
f 376 504 377
f 376 503 504
f 382 385 384
f 382 384 383
f 386 474 505
f 386 505 387
f 387 506 388
f 387 505 507
f 387 507 506
f 388 506 389
f 389 507 508
f 389 508 509
f 389 509 510
f 389 510 511
f 389 511 390
f 389 506 507
f 390 511 512
f 390 512 391
f 391 512 394
f 391 394 392
f 394 512 395
f 395 512 396
f 396 512 398
f 397 400 513
f 397 513 401
f 398 514 399
f 398 512 514
f 399 514 400
f 400 515 513
f 400 514 515
f 401 513 402
f 402 513 516
f 402 516 403
f 403 516 517
f 403 517 404
f 404 517 518
f 404 518 519
f 404 519 520
f 404 520 521
f 404 521 410
f 404 410 406
f 404 406 405
f 406 410 409
f 407 522 523
f 407 523 524
f 407 524 525
f 407 525 408
f 407 411 522
f 408 525 526
f 408 526 413
f 410 521 411
f 411 521 527
f 411 527 522
f 412 413 526
f 412 526 414
f 414 526 528
f 414 528 529
f 414 529 415
f 415 417 416
f 415 529 530
f 415 530 417
f 417 530 531
f 417 531 418
f 418 531 532
f 418 532 419
f 419 532 420
f 420 532 646
f 420 646 533
f 420 533 534
f 420 534 421
f 421 534 422
f 422 535 536
f 422 536 537
f 422 537 538
f 422 538 539
f 422 539 423
f 422 534 540
f 422 540 535
f 423 539 424
f 424 539 541
f 424 541 425
f 426 432 427
f 427 432 542
f 427 542 543
f 427 543 544
f 427 544 433
f 427 433 429
f 427 429 428
f 430 545 546
f 430 546 431
f 431 546 432
f 432 546 547
f 432 547 542
f 433 544 434
f 434 548 435
f 434 544 549
f 434 549 550
f 434 550 548
f 435 548 455
f 436 551 442
f 436 442 437
f 436 440 552
f 436 552 553
f 436 553 554
f 436 554 551
f 438 441 555
f 438 555 439
f 439 555 556
f 439 556 557
f 439 557 440
f 440 557 558
f 440 558 552
f 441 455 555
f 442 551 443
f 443 551 446
f 444 447 559
f 444 559 560
f 444 560 561
f 444 561 453
f 444 453 448
f 444 448 445
f 446 551 562
f 446 562 447
f 447 562 563
f 447 563 564
f 447 564 559
f 448 453 449
f 449 453 450
f 451 454 566
f 451 566 565
f 453 561 454
f 454 561 566
f 455 567 556
f 455 556 555
f 455 548 567
f 461 568 463
f 461 463 462
f 463 568 569
f 463 569 570
f 463 570 571
f 463 571 572
f 463 572 573
f 463 573 574
f 463 574 575
f 463 575 464
f 464 575 576
f 464 576 465
f 465 576 466
f 466 576 575
f 466 575 577
f 466 577 578
f 466 578 579
f 466 579 468
f 467 580 470
f 467 469 581
f 467 581 582
f 467 582 580
f 468 579 583
f 468 583 469
f 469 583 581
f 470 580 473
f 470 473 471
f 471 473 472
f 473 584 585
f 473 585 474
f 473 580 586
f 473 586 584
f 474 585 587
f 474 587 588
f 474 588 507
f 474 507 505
f 475 589 476
f 476 589 590
f 476 590 591
f 476 591 477
f 477 491 478
f 477 591 491
f 479 493 592
f 479 592 593
f 479 593 594
f 479 594 480
f 480 594 595
f 480 595 596
f 480 596 481
f 481 597 482
f 481 596 597
f 482 597 486
f 483 486 598
f 483 598 599
f 483 599 600
f 483 600 484
f 484 600 601
f 484 601 602
f 484 602 485
f 485 602 487
f 486 597 598
f 487 602 603
f 487 603 488
f 488 603 497
f 488 497 489
f 491 591 492
f 492 591 604
f 492 604 592
f 492 592 493
f 494 497 605
f 494 605 606
f 494 606 607
f 494 607 495
f 495 607 496
f 496 607 498
f 497 603 605
f 498 607 606
f 498 606 608
f 498 608 609
f 498 609 610
f 498 610 611
f 498 611 612
f 498 612 499
f 499 612 500
f 500 612 501
f 501 612 613
f 507 614 615
f 507 615 616
f 507 616 617
f 507 617 508
f 507 588 587
f 507 587 618
f 507 618 614
f 508 617 619
f 508 619 620
f 508 620 621
f 508 621 622
f 508 622 509
f 509 622 510
f 510 622 621
f 510 621 512
f 510 512 511
f 512 621 623
f 512 623 514
f 513 515 516
f 514 623 515
f 515 623 624
f 515 624 625
f 515 625 626
f 515 626 627
f 515 627 516
f 516 627 517
f 517 627 628
f 517 628 629
f 517 629 518
f 518 629 519
f 519 630 631
f 519 631 520
f 519 629 632
f 519 632 633
f 519 633 634
f 519 634 630
f 520 631 635
f 520 635 636
f 520 636 637
f 520 637 521
f 521 637 638
f 521 638 527
f 522 527 638
f 522 638 523
f 523 638 639
f 523 639 640
f 523 640 524
f 524 640 525
f 525 641 528
f 525 528 526
f 525 640 641
f 528 641 642
f 528 642 529
f 529 642 643
f 529 643 644
f 529 644 530
f 530 644 645
f 530 645 646
f 530 646 532
f 530 532 531
f 533 540 534
f 533 646 645
f 533 645 647
f 533 647 540
f 535 540 647
f 535 647 648
f 535 648 649
f 535 649 536
f 536 649 650
f 536 650 537
f 537 650 651
f 542 547 652
f 542 652 543
f 543 653 654
f 543 654 544
f 543 652 655
f 543 655 656
f 543 656 653
f 544 654 549
f 545 657 546
f 546 657 658
f 546 658 659
f 546 659 547
f 547 659 660
f 547 660 652
f 548 550 567
f 549 654 653
f 549 653 550
f 550 661 567
f 550 653 656
f 550 656 661
f 551 554 662
f 551 662 663
f 551 663 664
f 551 664 665
f 551 665 562
f 552 558 666
f 552 666 667
f 552 667 662
f 552 662 553
f 553 662 554
f 556 567 668
f 556 668 557
f 557 668 558
f 558 669 670
f 558 670 666
f 558 668 671
f 558 671 672
f 558 672 669
f 559 564 560
f 560 564 673
f 560 673 674
f 560 674 675
f 560 675 561
f 561 675 566
f 562 665 676
f 562 676 564
f 562 564 563
f 564 676 677
f 564 677 678
f 564 678 673
f 565 566 679
f 566 675 679
f 567 661 680
f 567 680 681
f 567 681 682
f 567 682 668
f 570 683 571
f 571 683 684
f 571 684 685
f 571 685 686
f 571 686 687
f 571 687 572
f 572 687 688
f 572 688 610
f 572 610 573
f 573 610 689
f 573 689 690
f 573 690 574
f 574 690 575
f 575 690 691
f 575 691 578
f 575 578 577
f 578 691 692
f 578 692 693
f 578 693 694
f 578 694 695
f 578 695 583
f 578 583 579
f 580 582 586
f 581 696 582
f 581 583 695
f 581 695 697
f 581 697 698
f 581 698 696
f 582 696 699
f 582 699 586
f 584 586 700
f 584 700 618
f 584 618 587
f 584 587 585
f 586 614 618
f 586 618 700
f 586 699 614
f 590 701 591
f 591 701 604
f 592 604 702
f 592 702 703
f 592 703 704
f 592 704 705
f 592 705 706
f 592 706 593
f 593 707 594
f 593 706 708
f 593 708 709
f 593 709 710
f 593 710 711
f 593 711 707
f 594 707 712
f 594 712 595
f 595 713 596
f 595 712 713
f 596 713 597
f 597 713 714
f 597 714 715
f 597 715 716
f 597 716 717
f 597 717 718
f 597 718 598
f 598 719 720
f 598 720 721
f 598 721 599
f 598 718 719
f 599 721 722
f 599 722 602
f 599 602 601
f 599 601 600
f 602 722 723
f 602 723 724
f 602 724 725
f 602 725 726
f 602 726 603
f 603 726 605
f 604 701 702
f 605 726 727
f 605 727 728
f 605 728 606
f 606 728 729
f 606 729 730
f 606 730 608
f 608 730 609
f 609 730 731
f 609 731 732
f 609 732 610
f 610 733 689
f 610 688 611
f 610 732 733
f 611 688 734
f 611 734 612
f 612 734 685
f 612 685 613
f 614 699 735
f 614 735 615
f 615 735 616
f 616 735 736
f 616 736 737
f 616 737 738
f 616 738 739
f 616 739 740
f 616 740 741
f 616 741 617
f 617 741 619
f 619 741 742
f 619 742 743
f 619 743 620
f 620 743 621
f 621 624 623
f 621 743 625
f 621 625 624
f 625 743 744
f 625 744 626
f 626 744 745
f 626 745 746
f 626 746 747
f 626 747 627
f 627 747 748
f 627 748 749
f 627 749 632
f 627 632 628
f 628 632 750
f 628 750 629
f 629 750 632
f 630 751 631
f 630 634 751
f 631 751 752
f 631 752 635
f 632 749 753
f 632 753 633
f 633 753 754
f 633 754 755
f 633 755 634
f 634 755 756
f 634 756 757
f 634 757 758
f 634 758 751
f 635 759 760
f 635 760 761
f 635 761 636
f 635 752 762
f 635 762 759
f 636 761 637
f 637 761 760
f 637 760 763
f 637 763 638
f 638 763 764
f 638 764 639
f 639 765 640
f 639 764 765
f 640 765 643
f 640 643 642
f 640 642 641
f 643 766 644
f 643 765 766
f 644 766 765
f 644 765 767
f 644 767 645
f 645 767 768
f 645 768 769
f 645 769 647
f 647 769 648
f 648 769 770
f 648 770 771
f 648 771 649
f 649 771 772
f 649 772 650
f 650 773 651
f 650 772 773
f 652 660 774
f 652 774 775
f 652 775 776
f 652 776 655
f 655 776 777
f 655 777 778
f 655 778 656
f 656 778 779
f 656 779 680
f 656 680 661
f 658 780 659
f 659 780 781
f 659 781 782
f 659 782 774
f 659 774 660
f 662 667 663
f 663 667 666
f 663 666 783
f 663 783 784
f 663 784 785
f 663 785 664
f 664 785 786
f 664 786 665
f 665 786 787
f 665 787 676
f 666 670 783
f 668 682 671
f 669 788 670
f 669 672 789
f 669 789 790
f 669 790 788
f 670 788 791
f 670 791 783
f 671 682 792
f 671 792 672
f 672 792 793
f 672 793 794
f 672 794 789
f 673 678 795
f 673 795 796
f 673 796 797
f 673 797 674
f 674 798 675
f 674 797 799
f 674 799 798
f 675 800 679
f 675 798 800
f 676 787 677
f 677 801 802
f 677 802 795
f 677 795 678
f 677 787 803
f 677 803 804
f 677 804 801
f 680 779 805
f 680 805 681
f 681 805 806
f 681 806 682
f 682 806 807
f 682 807 792
f 685 734 686
f 686 734 687
f 687 734 688
f 689 733 690
f 690 733 692
f 690 692 691
f 692 733 732
f 692 732 731
f 692 731 808
f 692 808 809
f 692 809 810
f 692 810 811
f 692 811 693
f 693 811 694
f 694 811 812
f 694 812 813
f 694 813 698
f 694 698 814
f 694 814 695
f 695 814 697
f 696 815 736
f 696 736 735
f 696 735 699
f 696 698 815
f 697 814 698
f 698 813 816
f 698 816 817
f 698 817 818
f 698 818 819
f 698 819 820
f 698 820 737
f 698 737 815
f 703 821 704
f 704 821 822
f 704 822 705
f 705 709 708
f 705 708 706
f 705 822 823
f 705 823 824
f 705 824 709
f 707 711 712
f 709 824 825
f 709 825 826
f 709 826 827
f 709 827 710
f 710 827 711
f 711 827 712
f 712 827 826
f 712 826 713
f 713 826 714
f 714 826 828
f 714 828 829
f 714 829 830
f 714 830 831
f 714 831 715
f 715 831 716
f 716 831 830
f 716 830 832
f 716 832 833
f 716 833 719
f 716 719 717
f 717 719 718
f 719 833 720
f 720 833 834
f 720 834 835
f 720 835 721
f 721 836 722
f 721 835 836
f 722 836 837
f 722 837 838
f 722 838 839
f 722 839 724
f 722 724 723
f 724 840 725
f 724 839 840
f 725 727 726
f 725 840 841
f 725 841 727
f 727 841 728
f 728 841 729
f 729 842 730
f 729 841 842
f 730 842 810
f 730 810 809
f 730 809 731
f 731 809 808
f 736 815 737
f 737 820 738
f 738 820 819
f 738 819 739
f 739 819 843
f 739 843 844
f 739 844 845
f 739 845 846
f 739 846 740
f 740 846 741
f 741 846 742
f 742 846 847
f 742 847 743
f 743 847 848
f 743 848 849
f 743 849 745
f 743 745 744
f 745 849 848
f 745 848 850
f 745 850 746
f 746 850 747
f 747 850 748
f 748 850 851
f 748 851 852
f 748 852 749
f 749 852 753
f 751 758 752
f 752 758 853
f 752 853 762
f 753 852 854
f 753 854 855
f 753 855 754
f 754 856 857
f 754 857 755
f 754 855 858
f 754 858 859
f 754 859 860
f 754 860 861
f 754 861 862
f 754 862 863
f 754 863 856
f 755 857 756
f 756 864 757
f 756 857 865
f 756 865 864
f 757 864 758
f 758 864 853
f 759 762 760
f 760 866 764
f 760 764 763
f 760 762 866
f 762 853 866
f 764 866 867
f 764 867 868
f 764 868 765
f 765 868 768
f 765 768 767
f 768 868 867
f 768 867 869
f 768 869 769
f 769 869 870
f 769 870 871
f 769 871 770
f 770 872 873
f 770 873 874
f 770 874 771
f 770 871 875
f 770 875 872
f 771 874 772
f 772 874 876
f 772 876 877
f 772 877 878
f 772 878 773
f 774 782 879
f 774 879 880
f 774 880 775
f 775 880 881
f 775 881 882
f 775 882 776
f 776 882 777
f 777 882 883
f 777 883 884
f 777 884 778
f 778 884 885
f 778 885 779
f 779 886 887
f 779 887 805
f 779 885 888
f 779 888 886
f 781 889 879
f 781 879 782
f 783 890 891
f 783 891 785
f 783 785 784
f 783 791 890
f 785 891 892
f 785 892 893
f 785 893 786
f 786 894 787
f 786 893 892
f 786 892 830
f 786 830 895
f 786 895 894
f 787 894 803
f 788 790 896
f 788 896 897
f 788 897 791
f 789 794 898
f 789 898 899
f 789 899 790
f 790 899 900
f 790 900 896
f 791 897 901
f 791 901 890
f 792 807 793
f 793 807 902
f 793 902 903
f 793 903 794
f 794 903 904
f 794 904 898
f 795 802 796
f 796 802 905
f 796 905 826
f 796 826 797
f 797 826 906
f 797 906 799
f 798 799 907
f 798 907 908
f 798 908 909
f 798 909 910
f 798 910 911
f 798 911 800
f 799 912 907
f 799 906 913
f 799 913 914
f 799 914 912
f 801 905 802
f 801 804 829
f 801 829 905
f 803 894 915
f 803 915 804
f 804 915 829
f 805 887 806
f 806 887 916
f 806 916 902
f 806 902 807
f 810 917 918
f 810 918 811
f 810 842 841
f 810 841 919
f 810 919 920
f 810 920 917
f 811 918 921
f 811 921 922
f 811 922 812
f 812 922 813
f 813 922 816
f 816 922 817
f 817 923 924
f 817 924 818
f 817 922 918
f 817 918 917
f 817 917 923
f 818 924 843
f 818 843 819
f 823 925 926
f 823 926 824
f 824 926 927
f 824 927 825
f 825 914 826
f 825 927 912
f 825 912 914
f 826 905 828
f 826 914 913
f 826 913 906
f 828 905 829
f 829 915 830
f 830 915 895
f 830 892 928
f 830 928 929
f 830 929 832
f 832 929 834
f 832 834 833
f 834 929 835
f 835 929 930
f 835 930 931
f 835 931 836
f 836 931 932
f 836 932 837
f 837 932 933
f 837 933 838
f 838 933 934
f 838 934 935
f 838 935 840
f 838 840 936
f 838 936 839
f 839 936 840
f 840 935 919
f 840 919 841
f 843 937 938
f 843 938 939
f 843 939 844
f 843 924 940
f 843 940 941
f 843 941 942
f 843 942 937
f 844 939 845
f 845 939 943
f 845 943 846
f 846 943 944
f 846 944 847
f 847 944 945
f 847 945 848
f 848 945 850
f 850 945 946
f 850 946 947
f 850 947 948
f 850 948 851
f 851 948 854
f 851 854 852
f 853 949 866
f 853 864 950
f 853 950 951
f 853 951 952
f 853 952 949
f 854 948 953
f 854 953 858
f 854 858 855
f 856 863 954
f 856 954 857
f 857 955 865
f 857 954 956
f 857 956 955
f 858 953 859
f 859 957 861
f 859 861 860
f 859 953 958
f 859 958 947
f 859 947 959
f 859 959 960
f 859 960 957
f 861 957 960
f 861 960 862
f 862 960 961
f 862 961 863
f 863 961 962
f 863 962 954
f 864 865 950
f 865 955 963
f 865 963 950
f 866 964 867
f 866 949 964
f 867 964 965
f 867 965 966
f 867 966 870
f 867 870 869
f 870 966 875
f 870 875 871
f 872 967 873
f 872 875 967
f 873 967 968
f 873 968 969
f 873 969 874
f 874 969 970
f 874 970 876
f 875 965 968
f 875 968 967
f 875 966 965
f 876 970 971
f 876 971 877
f 879 889 972
f 879 972 973
f 879 973 974
f 879 974 880
f 880 974 975
f 880 975 881
f 881 975 882
f 882 975 976
f 882 976 977
f 882 977 978
f 882 978 883
f 883 978 884
f 884 979 980
f 884 980 981
f 884 981 885
f 884 978 979
f 885 982 983
f 885 983 888
f 885 981 984
f 885 984 985
f 885 985 986
f 885 986 987
f 885 987 988
f 885 988 982
f 886 916 887
f 886 888 989
f 886 989 916
f 888 983 989
f 889 990 972
f 890 892 891
f 890 901 991
f 890 991 992
f 890 992 892
f 892 992 928
f 894 895 915
f 896 901 897
f 896 900 993
f 896 993 994
f 896 994 995
f 896 995 996
f 896 996 997
f 896 997 929
f 896 929 998
f 896 998 991
f 896 991 901
f 898 904 999
f 898 999 1000
f 898 1000 899
f 899 1000 900
f 900 1000 993
f 902 916 989
f 902 989 1001
f 902 1001 1002
f 902 1002 903
f 903 1002 904
f 904 1003 999
f 904 1002 1004
f 904 1004 1005
f 904 1005 1006
f 904 1006 1007
f 904 1007 1008
f 904 1008 1003
f 907 912 908
f 908 927 926
f 908 926 1009
f 908 1009 909
f 908 912 927
f 909 1009 910
f 910 1009 1010
f 917 920 1011
f 917 1011 923
f 918 922 921
f 919 935 920
f 920 935 1012
f 920 1012 1011
f 923 940 924
f 923 1011 940
f 925 1013 926
f 926 1013 1010
f 926 1010 1009
f 928 992 998
f 928 998 929
f 929 997 1014
f 929 1014 930
f 930 1014 996
f 930 996 1015
f 930 1015 931
f 931 1015 1016
f 931 1016 1017
f 931 1017 932
f 932 1017 1018
f 932 1018 1019
f 932 1019 1020
f 932 1020 933
f 933 1020 1021
f 933 1021 934
f 934 1021 1022
f 934 1022 1023
f 934 1023 935
f 935 1023 1012
f 937 942 1024
f 937 1024 1025
f 937 1025 1026
f 937 1026 938
f 938 1026 947
f 938 947 946
f 938 946 943
f 938 943 939
f 940 1011 941
f 941 1011 1027
f 941 1027 1028
f 941 1028 942
f 942 1025 1024
f 942 1028 1022
f 942 1022 1029
f 942 1029 1025
f 943 946 945
f 943 945 944
f 947 1030 959
f 947 958 948
f 947 1026 1025
f 947 1025 1031
f 947 1031 1032
f 947 1032 1030
f 948 958 1033
f 948 1033 953
f 949 952 1034
f 949 1034 1035
f 949 1035 964
f 950 963 1036
f 950 1036 952
f 950 952 951
f 952 1037 1034
f 952 1036 1038
f 952 1038 1039
f 952 1039 1040
f 952 1040 1037
f 953 1033 958
f 954 962 1041
f 954 1041 1042
f 954 1042 1043
f 954 1043 1044
f 954 1044 1036
f 954 1036 956
f 955 956 1036
f 955 1036 963
f 959 1032 1045
f 959 1045 1046
f 959 1046 1047
f 959 1047 960
f 959 1030 1032
f 960 1047 1048
f 960 1048 1049
f 960 1049 961
f 961 1049 962
f 962 1049 1050
f 962 1050 1041
f 964 1035 1051
f 964 1051 1052
f 964 1052 965
f 965 1052 968
f 968 1052 1053
f 968 1053 1054
f 968 1054 1055
f 968 1055 1056
f 968 1056 969
f 969 1056 1057
f 969 1057 970
f 970 1057 1058
f 970 1058 971
f 971 1058 1059
f 972 990 1060
f 972 1060 1061
f 972 1061 973
f 973 1061 1062
f 973 1062 1063
f 973 1063 976
f 973 976 975
f 973 975 974
f 976 1063 977
f 977 1063 1064
f 977 1064 978
f 978 1064 979
f 979 1064 1065
f 979 1065 980
f 980 1065 1066
f 980 1066 981
f 981 1066 984
f 982 1067 1001
f 982 1001 983
f 982 988 1067
f 983 1001 989
f 984 1066 985
f 985 1066 1068
f 985 1068 1069
f 985 1069 986
f 986 1069 1070
f 986 1070 987
f 987 1071 988
f 987 1070 1071
f 988 1071 1072
f 988 1072 1067
f 991 998 992
f 993 1000 1073
f 993 1073 994
f 994 1074 1048
f 994 1048 1075
f 994 1075 1076
f 994 1076 1077
f 994 1077 1078
f 994 1078 1079
f 994 1079 1080
f 994 1080 995
f 994 1073 1074
f 995 1080 1016
f 995 1016 996
f 996 1016 1015
f 996 1014 997
f 999 1073 1000
f 999 1003 1073
f 1001 1067 1081
f 1001 1081 1004
f 1001 1004 1002
f 1003 1082 1073
f 1003 1008 1083
f 1003 1083 1082
f 1004 1072 1071
f 1004 1071 1042
f 1004 1042 1041
f 1004 1041 1005
f 1004 1081 1072
f 1005 1041 1006
f 1006 1041 1050
f 1006 1050 1007
f 1007 1050 1049
f 1007 1049 1048
f 1007 1048 1008
f 1008 1048 1074
f 1008 1074 1083
f 1011 1012 1027
f 1012 1023 1027
f 1016 1080 1017
f 1017 1080 1018
f 1018 1080 1079
f 1018 1079 1078
f 1018 1078 1019
f 1019 1078 1020
f 1020 1078 1022
f 1020 1022 1021
f 1022 1078 1029
f 1022 1028 1023
f 1023 1028 1027
f 1025 1045 1032
f 1025 1032 1031
f 1025 1029 1078
f 1025 1078 1084
f 1025 1084 1085
f 1025 1085 1045
f 1034 1052 1051
f 1034 1051 1035
f 1034 1037 1052
f 1036 1044 1086
f 1036 1086 1038
f 1037 1040 1087
f 1037 1087 1088
f 1037 1088 1089
f 1037 1089 1053
f 1037 1053 1052
f 1038 1086 1090
f 1038 1090 1039
f 1039 1090 1040
f 1040 1090 1068
f 1040 1068 1091
f 1040 1091 1087
f 1042 1071 1043
f 1043 1070 1044
f 1043 1071 1070
f 1044 1070 1092
f 1044 1092 1086
f 1045 1085 1046
f 1046 1085 1084
f 1046 1084 1093
f 1046 1093 1047
f 1047 1093 1048
f 1048 1093 1075
f 1053 1089 1094
f 1053 1094 1054
f 1054 1094 1095
f 1054 1095 1096
f 1054 1096 1055
f 1055 1096 1097
f 1055 1097 1098
f 1055 1098 1056
f 1056 1098 1057
f 1057 1098 1058
f 1058 1099 1059
f 1058 1098 1100
f 1058 1100 1099
f 1060 1101 1061
f 1061 1101 1102
f 1061 1102 1103
f 1061 1103 1062
f 1062 1103 1104
f 1062 1104 1063
f 1063 1104 1105
f 1063 1105 1065
f 1063 1065 1064
f 1065 1105 1106
f 1065 1106 1066
f 1066 1106 1107
f 1066 1107 1091
f 1066 1091 1068
f 1067 1072 1081
f 1068 1090 1108
f 1068 1108 1070
f 1068 1070 1069
f 1070 1108 1092
f 1073 1082 1074
f 1074 1082 1083
f 1075 1093 1109
f 1075 1109 1076
f 1076 1109 1077
f 1077 1109 1093
f 1077 1093 1110
f 1077 1110 1084
f 1077 1084 1078
f 1084 1110 1093
f 1086 1092 1090
f 1087 1091 1088
f 1088 1091 1111
f 1088 1111 1094
f 1088 1094 1089
f 1090 1092 1108
f 1091 1112 1113
f 1091 1113 1095
f 1091 1095 1111
f 1091 1107 1112
f 1094 1111 1095
f 1095 1114 1096
f 1095 1113 1115
f 1095 1115 1114
f 1096 1114 1097
f 1097 1116 1117
f 1097 1117 1100
f 1097 1100 1098
f 1097 1114 1118
f 1097 1118 1119
f 1097 1119 1120
f 1097 1120 1116
f 1099 1100 1121
f 1100 1117 1122
f 1100 1122 1121
f 1102 1123 1124
f 1102 1124 1103
f 1103 1124 1104
f 1104 1124 1125
f 1104 1125 1105
f 1105 1125 1126
f 1105 1126 1127
f 1105 1127 1106
f 1106 1127 1118
f 1106 1118 1112
f 1106 1112 1107
f 1112 1118 1115
f 1112 1115 1113
f 1114 1115 1118
f 1116 1128 1117
f 1116 1120 1128
f 1117 1128 1122
f 1118 1129 1130
f 1118 1130 1119
f 1118 1127 1131
f 1118 1131 1126
f 1118 1126 1129
f 1119 1130 1120
f 1120 1130 1132
f 1120 1132 1133
f 1120 1133 1134
f 1120 1134 1128
f 1123 1135 1136
f 1123 1136 1137
f 1123 1137 1124
f 1124 1137 1125
f 1125 1137 1136
f 1125 1136 1129
f 1125 1129 1126
f 1126 1131 1127
f 1129 1136 1130
f 1130 1136 1132
f 1132 1138 1133
f 1132 1136 1139
f 1132 1139 1138
f 1135 1139 1136

