# https://github.com/mikedh/trimesh
v 53.03612423 46.31333750 15.62303556
v 53.03612423 46.31333750 8.55142490
v 53.03612423 62.75539802 11.38934613
v 43.00807793 46.31333750 26.18406638
v 53.00580638 46.31333750 8.56829200
v 53.03612423 46.84284333 8.30263294
v 53.03612423 62.75539802 4.64453922
v 38.90931502 62.75539802 26.18406638
v 37.20954895 46.31333750 26.18406638
v 52.94895720 46.31333750 8.60202748
v 52.71966851 46.86859577 8.47763022
v 53.03612423 47.57031233 7.96528582
v 53.03612423 62.31923897 4.64453922
v 49.62711937 62.75539802 6.87734700
v 33.67926755 62.75539802 26.18406638
v 37.03142323 46.70604156 26.18406638
v 37.37251317 46.31333750 25.82563699
v 51.51258934 46.31333750 9.47701644
v 51.40836627 46.39059094 9.50020983
v 52.23645947 47.20335942 8.61678539
v 53.03612423 47.99198595 7.77342016
v 53.03612423 61.45818790 4.67827341
v 49.62711937 62.31923897 6.87734700
v 49.41109506 62.75539802 7.02915218
v 33.67926755 62.31923897 26.18406638
v 33.79485789 62.75539802 25.91208168
v 36.99352463 46.79295024 26.18406638
v 37.63401683 46.46945360 25.10666838
v 37.66623179 46.31333750 25.19100516
v 51.44058123 46.31333750 9.52129402
v 50.34720042 46.31333750 10.30983958
v 49.66880963 47.23232898 10.35411588
v 49.47931408 47.80689901 10.22339490
v 50.64660011 47.41580544 9.57189532
v 51.22266237 46.96516097 9.37581385
v 50.97821475 48.50539716 8.87401155
v 51.27761701 48.78383090 8.55564071
v 51.46900711 48.20765038 8.67793007
v 52.08296797 47.65883150 8.51769070
v 53.03612423 48.05475398 7.74601225
v 53.03612423 61.00754407 4.71200890
v 49.71997261 59.73286573 6.93849040
v 49.68586310 60.59552697 6.91529701
v 49.64796450 61.65132087 6.88999701
v 48.60763864 61.45818790 7.62583208
v 49.19696786 62.31923897 7.18095736
v 49.19696786 62.75539802 7.18095736
v 33.68305664 62.18082735 26.18406638
v 33.96919452 62.31923897 25.51148325
v 33.96919452 62.75539802 25.51148325
v 36.87224810 47.07460367 26.18406638
v 37.51652938 47.04402491 24.86209287
v 37.66054559 47.39327398 24.28649653
v 37.77424138 46.77202799 24.57745752
v 38.22144893 46.31333750 24.12625716
v 37.78561122 46.31333750 24.95486320
v 36.80213454 47.40614892 26.02804411
v 36.95752058 47.67975375 25.47564051
v 49.81472038 46.79616994 10.46164476
v 49.38835539 46.31333750 11.02037400
v 49.20833770 47.57513995 10.52911444
v 48.90514635 48.27202890 10.42791056
v 49.86967245 48.52149179 9.63304000
v 50.46468530 47.99037675 9.44539015
v 50.65986449 49.38254286 8.71588008
v 51.09001600 49.38254286 8.43546183
v 51.83852035 49.35840221 7.98004630
v 52.31604575 49.05421732 7.80293854
v 52.91295315 48.52149179 7.64269917
v 53.03612423 50.50432513 6.83517861
v 53.03612423 60.59552697 4.74574310
v 49.78629451 58.87020480 6.98065879
v 49.23297191 58.87020480 7.36438883
v 49.23297191 59.73286573 7.28005205
v 48.63606452 60.59552697 7.64691627
v 49.23297191 60.59552697 7.22945075
v 49.31066365 61.40024813 7.13668106
v 48.17559258 61.45818790 7.93155162
v 48.59247972 62.31923897 7.61107288
v 48.59247972 62.75539802 7.61107288
v 33.70769086 61.45818790 26.18406638
v 33.98435344 61.45818790 25.53678454
v 34.06962593 62.75539802 25.29642549
v 34.17195188 62.31923897 25.07925918
v 34.81433862 61.45818790 23.75096002
v 34.42587479 61.45818790 24.58167397
v 36.66949073 47.55582691 26.18406638
v 37.39904193 47.67170644 24.57745752
v 37.53926905 47.96784401 24.05878812
v 37.83487965 47.67170644 23.75096002
v 38.23281877 46.80421725 23.70668373
v 38.33135563 46.31333750 23.92385004
v 36.68464966 47.98232815 25.78346860
v 36.58800734 47.75378750 26.18406638
v 36.99731629 48.57782170 24.64492656
v 48.99420793 46.31333750 11.32398500
v 48.90135726 46.51773748 11.29235871
v 48.71565080 47.09230751 11.14687853
v 48.54510583 47.65883150 11.00350690
v 48.74786576 48.84660021 10.30983958
v 49.71239186 49.03973318 9.52340193
v 47.96904356 48.14488236 11.23964886
v 48.35940193 48.49574064 10.76947349
v 50.30172108 48.52149179 9.32942836
v 50.52721811 49.81548350 8.62732749
v 51.95790235 50.24520443 7.57944659
v 52.13792261 49.63039783 7.69540966
v 52.70829996 50.23554791 7.12613896
v 53.01338584 50.51720006 6.84361152
v 52.84663125 51.10786600 6.74662474
v 53.03612423 51.12235014 6.63909585
v 53.03612423 60.21569849 4.79001939
v 51.37994296 58.39220062 6.03398177
v 50.21644859 58.87020480 6.70867344
v 49.97010643 57.14488263 7.10083767
v 49.33340332 57.14488263 7.53306239
v 49.17043910 58.03329502 7.52252029
v 51.43679214 57.81762963 6.06771596
v 50.30929925 58.00754388 6.76138393
v 50.40215249 57.14488263 6.82041942
v 48.78197527 58.33747959 7.75022806
v 48.73839047 58.87020480 7.71860176
v 48.67964675 59.73286573 7.67432547
v 48.20401589 60.59552697 7.95474372
v 47.60900304 60.59552697 8.38486053
v 47.58057973 61.45818790 8.36377634
v 48.16043366 62.31923897 7.92522662
v 48.37456086 62.75539802 7.76920435
v 33.71337706 61.31172832 26.18406638
v 34.20037776 60.59552697 25.14461967
v 34.00330403 60.59552697 25.57473584
v 33.74180037 60.59552697 26.18406638
v 34.28754479 62.75539802 24.83257512
v 34.40692678 62.31923897 24.58167397
v 35.01899310 61.45818790 23.32084450
v 35.03983823 60.59552697 23.36301225
v 34.83518375 60.59552697 23.79523696
v 34.46377339 60.59552697 24.58167397
v 37.45210202 48.59230713 23.75096002
v 37.69844419 48.35410996 23.48319177
v 38.43368416 48.04348825 22.39103522
v 38.29914067 47.71677063 22.88018623
v 38.39578299 47.09713641 23.18379787
v 38.52464028 46.52256510 23.41150628
v 38.56632796 46.31333750 23.51060161
v 36.70928387 48.90453933 24.97383885
v 36.82297966 48.32996802 25.20998080
v 36.34355972 48.39273733 26.18406638
v 36.83056041 49.38254286 24.36450766
v 48.45414971 46.31333750 11.75620972
v 48.34234847 46.74949654 11.62127164
v 47.78712875 46.98286480 11.95229183
v 48.11305977 47.65883150 11.35561129
v 47.81365752 48.71945367 11.11314433
v 47.64311255 49.38254286 10.97398916
v 48.17938167 49.38254286 10.54387363
v 47.88187653 50.56226425 10.30562249
v 48.61143030 49.38254286 10.20441861
v 48.83313825 50.73930388 9.51075193
v 48.96199296 50.24520443 9.60562952
v 49.25571158 49.34874569 9.73846098
v 49.55890036 49.61430321 9.41165595
v 47.05378590 48.04670666 12.05771216
v 47.51994146 48.46677108 11.47157437
v 47.21296103 47.47213535 12.18843379
v 49.16475290 51.05958211 9.16497190
v 49.78629451 51.10786600 8.71166427
v 49.67638781 51.56333808 8.63576168
v 50.38888811 50.39005481 8.53244861
v 50.53100977 52.41312344 7.76709644
v 50.64470556 51.97052628 7.83878193
v 50.96305583 51.03383096 7.94209372
v 51.40078809 50.69745810 7.77131225
v 51.52775083 50.24520443 7.84721484
v 52.41458262 51.10786600 6.99752589
v 52.61544801 51.92546209 6.63909585
v 53.03612423 51.94960404 6.39662890
v 52.28383208 51.60679178 6.91951539
v 53.03612423 59.73286573 4.85327198
v 50.47416059 56.52041951 6.86680491
v 50.15012412 56.25325214 7.12403106
v 49.43004564 56.28222170 7.59842288
v 48.90135726 57.14488263 7.83456484
v 48.83882445 57.76290860 7.79028854
v 51.51827554 57.14488263 6.11831855
v 50.95926674 57.14488263 6.46831439
v 51.95032160 57.14488263 5.85687530
v 48.44467442 58.03329502 8.03064631
v 47.78144255 58.00754388 8.50925651
v 48.30634441 58.87020480 8.03064631
v 48.24760069 59.73286573 7.99058711
v 47.66395767 59.73286573 8.42070392
v 47.17885152 60.59552697 8.70533798
v 47.14853110 61.45818790 8.68214588
v 48.16043366 62.75539802 7.92522662
v 47.57679064 62.31923897 8.35745133
v 47.86671761 62.75539802 8.14239357
v 34.22690652 59.73286573 25.19733016
v 34.02604113 59.73286573 25.62744633
v 33.74937854 60.43780167 26.18406638
v 34.40692678 62.75539802 24.58167397
v 34.80676044 62.31923897 23.74463502
v 35.01520144 62.31923897 23.31241095
v 35.25965163 62.31923897 22.85699413
v 35.26912692 61.45818790 22.85699413
v 35.31081461 60.59552697 22.85699413
v 35.07394516 59.73286573 23.43258983
v 34.86550160 59.73286573 23.86481455
v 34.52062257 59.73286573 24.58167397
v 35.37903105 59.73286573 22.85699413
v 35.44914461 58.87020480 22.85699413
v 37.16975581 49.38254286 23.71933373
v 37.58095931 48.92867998 23.27235111
v 38.34083093 48.52149179 22.22868730
v 38.58906763 48.52149179 21.79857178
v 38.76908790 47.71677063 22.06001438
v 38.55874979 47.46730773 22.61031008
v 38.70086888 46.80421725 22.88018623
v 39.25608859 46.31333750 22.31091553
v 38.73877005 46.31333750 23.20909852
v 35.89635217 49.90722108 25.94159942
v 36.62401139 49.38254286 24.79673238
v 36.29239674 48.52953910 26.18406638
v 36.03089308 49.23286616 26.18406638
v 36.74718247 49.87020421 24.18740119
v 48.08273935 46.31333750 12.05560426
v 47.96714902 46.40829478 12.09988055
v 47.50288799 46.73501112 12.31493832
v 46.17263517 49.73179194 12.03873652
v 47.21106649 49.38254286 11.32820210
v 47.09547358 49.85089117 11.22910676
v 47.48772650 50.20657835 10.76736430
v 47.75870545 51.10786600 10.20231070
v 48.39161690 51.05958211 9.72791888
v 48.33666226 50.26290827 10.07369762
v 46.95903812 50.42546248 11.11525224
v 48.69480824 51.31387391 9.41165595
v 46.92682316 48.52149179 11.94807538
v 46.32423213 49.15722192 12.17367524
v 47.05378590 46.31333750 12.90951031
v 46.90787514 46.79616994 12.78933078
v 46.30528154 47.40453842 13.02547338
v 46.68048099 47.72481794 12.53843027
v 49.54374143 52.13951796 8.53877490
v 50.01747775 51.89971094 8.28998165
v 51.57133306 52.83318721 7.01228380
v 52.00148457 52.83318721 6.74873393
v 52.15118699 52.18136309 6.83939442
v 51.25298279 51.27202813 7.67643337
v 50.11412007 52.75432455 7.95685291
v 50.41352232 52.98769410 7.68908466
v 51.44437032 53.39810135 6.93427330
v 51.74187803 51.03383096 7.44450980
v 52.53396461 53.69584813 6.19843823
v 53.03612423 53.15507593 6.06139096
v 53.03612423 52.72857405 6.17946323
v 53.03612423 59.46087010 4.89122327
v 50.55374687 55.94584820 6.91740620
v 50.09517205 55.41956078 7.32643882
v 49.55511127 55.41956078 7.68486756
v 49.12306521 55.41956078 7.99269630
v 48.99989413 56.28222170 7.90835952
v 48.37077177 57.14488263 8.21618826
v 51.64334117 56.28222170 6.19422114
v 53.03612423 58.87020480 4.97977715
v 52.75756839 57.18672841 5.39513348
v 53.03612423 57.00969006 5.26652040
v 52.68366446 56.28222170 5.58699786
v 52.07538979 56.28222170 5.93277789
v 47.87050670 57.14488263 8.57672491
v 47.34939649 58.00754388 8.83606025
v 47.28686368 58.87020480 8.78756686
v 47.71890974 58.87020480 8.46287231
v 47.23190904 59.73286573 8.74539847
v 46.69185083 59.73286573 9.17762190
v 46.25980220 59.73286573 9.52551112
v 46.22758981 60.33801612 9.50020983
v 46.56678520 60.61323081 9.20292448
v 46.20674468 60.91419600 9.48123482
v 46.64637149 61.45818790 9.09328640
v 46.17832137 62.31923897 9.46015063
v 46.64637149 62.31923897 9.08063512
v 47.14474202 62.31923897 8.68003798
v 47.35887179 62.75539802 8.51979861
v 47.57679064 62.75539802 8.35745133
v 34.90150565 58.87020480 23.93650068
v 34.59641976 58.87020480 24.58167397
v 34.26669966 58.87020480 25.28377484
v 34.06583684 58.87020480 25.71599956
v 33.78727971 59.73286573 26.18406638
v 34.80676044 62.75539802 23.74463502
v 35.01520144 62.75539802 23.31241095
v 35.25965163 62.75539802 22.85699413
v 35.67843331 62.31923897 22.09164068
v 35.68411694 61.45818790 22.10639987
v 35.70496207 60.59552697 22.14435116
v 35.73907158 59.73286573 22.19706101
v 35.10805467 58.87020480 23.50638452
v 35.77507563 58.87020480 22.26453069
v 35.54199784 58.00754388 22.85699413
v 36.89119868 50.19370213 23.71933373
v 37.63970046 49.95711417 22.51121475
v 37.49947591 49.38254286 23.12476238
v 37.74581808 49.38254286 22.69464622
v 38.18923397 49.35357330 21.94405195
v 38.48863622 49.04617000 21.62357321
v 39.03816973 48.50539716 21.08803671
v 39.19923941 47.65883150 21.38532271
v 39.30346248 47.20175021 21.54345353
v 39.16892156 46.86698528 22.03049664
v 39.51380059 46.31333750 21.88923292
v 35.80160439 50.48179239 25.74340876
v 36.02899854 50.21462567 25.45033922
v 35.95130680 49.45174900 26.18406638
v 35.70875373 50.14059063 26.18406638
v 36.65432924 50.44638472 24.00818618
v 36.57284584 51.16419592 23.71933373
v 36.71117842 51.48930305 23.25759191
v 36.48378427 50.19370213 24.51842203
v 36.11047936 51.16419592 24.64703511
v 47.99746687 46.31333750 12.12518185
v 46.06462558 50.24520443 11.94174973
v 46.15747625 47.97910973 12.88631821
v 45.58709761 48.52149179 13.15830291
v 45.12662568 48.52149179 13.59052698
v 45.43550323 49.12664315 13.01703919
v 44.55435250 49.09928151 13.86462088
v 45.30096231 49.70121317 12.88842611
v 45.17968577 50.24520443 12.77668078
v 45.63257696 50.24520443 12.34445670
v 47.32855137 51.10786600 10.55863154
v 47.18074607 51.80475366 10.43845266
v 47.48393741 52.04456068 10.11375811
v 48.12253506 51.97052628 9.62671371
v 46.38107874 51.10786600 11.35561129
v 46.81123282 51.10786600 10.99085626
v 48.55458112 51.97052628 9.30834417
v 46.15747625 46.31333750 13.74654926
v 46.47582652 46.79616994 13.18571211
v 46.02293533 46.79616994 13.61582828
v 45.43171414 47.37235045 13.87937943
v 45.27443355 47.94852968 13.72968216
v 49.39972779 52.83318721 8.43335392
v 51.76840679 53.68941067 6.66018005
v 49.84882989 53.69584813 7.88938323
v 50.28087595 53.69584813 7.60053078
v 51.00853517 53.68941067 7.13668106
v 51.32877999 53.97267266 6.86258652
v 52.35015526 54.55689985 6.09301726
v 52.96601196 53.69584813 5.95807918
v 53.03612423 53.40453946 5.99603047
v 52.17771575 55.60303723 5.99392128
v 51.86315457 55.35679275 6.23006324
v 52.26488278 55.02685672 6.04663177
v 51.07106799 55.41956078 6.70445635
v 50.63901936 55.41956078 6.97222460
v 50.78872177 54.55689985 7.06921266
v 50.05348180 54.59552658 7.54149658
v 49.63848921 54.90936798 7.74601225
v 49.30308290 54.59552658 8.05383970
v 48.65311799 54.55689985 8.52190651
v 48.22296647 54.55689985 8.82973525
v 48.52426327 55.41956078 8.42491973
v 48.09410919 55.41956078 8.73907347
v 48.32339788 56.34499037 8.39118553
v 47.92925042 56.67492576 8.61889330
v 53.03612423 56.28222170 5.39091638
v 52.60407817 55.35679275 5.79783981
v 47.43845807 57.14488263 8.90563784
v 46.89271365 57.14488263 9.33575336
v 46.80933828 58.00754388 9.26828497
v 46.74490835 58.87020480 9.21979029
v 46.31286229 58.87020480 9.56978742
v 45.33317470 59.18565541 10.33514087
v 45.78227680 59.73286573 9.91767535
v 45.30475140 59.73286573 10.31194749
v 45.86376020 60.61323081 9.78695308
v 46.18969121 61.45818790 9.46858354
v 45.27443355 60.59552697 10.28453829
v 45.75953713 61.45818790 9.83122938
v 45.74627275 62.31923897 9.81436357
v 46.17832137 62.75539802 9.46015063
v 46.40950461 62.75539802 9.27250078
v 46.64637149 62.75539802 9.08063512
v 46.89271365 62.75539802 8.88244574
v 47.14474202 62.75539802 8.68003798
v 34.94509045 58.00754388 24.02927037
v 34.68927299 58.00754388 24.58167397
v 34.10752452 58.16526918 25.80455279
v 33.86686599 58.87020480 26.18406638
v 35.67843331 62.75539802 22.09164068
v 35.79781530 62.75539802 21.87658291
v 35.92098638 62.31923897 21.65941660
v 36.21849152 62.31923897 21.13231365
v 35.93046167 61.45818790 21.67628370
v 36.28102433 60.59552697 21.13231365
v 35.94940969 60.59552697 21.71212645
v 36.33597897 59.73286573 21.13231365
v 35.97783556 59.73286573 21.76694548
v 35.15353402 58.00754388 23.59915485
v 36.01952325 58.87020480 21.83441452
v 35.82244952 58.00754388 22.34886683
v 35.85466191 57.50861681 22.40579377
v 35.68411694 57.18994746 22.80850074
v 36.80782074 50.91312253 23.43258983
v 37.36872408 50.24520443 22.82325929
v 37.54116360 50.53329469 22.33621618
v 37.81593164 50.24520443 22.02628019
v 38.38062407 49.62074131 21.44646675
v 38.67244558 49.35357330 21.14707220
v 39.24850784 48.78222169 20.59888570
v 39.36410075 48.20765038 20.76966684
v 39.13102296 49.38254286 20.42177923
v 39.48537728 47.65883150 20.95520718
v 40.06902030 46.99735023 20.53985021
v 40.20545576 46.42116971 20.74225765
v 39.91552880 46.31333750 21.26092673
v 39.71087432 46.31333750 21.57929692
v 35.72959628 51.16419592 25.45033922
v 35.85087282 51.48930305 24.98016385
v 35.93993439 50.91473302 25.16781241
v 35.67274967 50.25486095 26.18406638
v 35.45103916 50.97106294 26.18406638
v 36.32460913 51.97052628 23.71933373
v 35.98351919 51.97052628 24.40035105
v 36.63917031 51.97052628 23.13108739
v 36.88172339 51.97052628 22.69886331
v 37.61317170 51.61805879 21.60248902
v 37.69086344 51.10786600 21.74164419
v 37.44641582 51.10786600 22.17176036
v 45.89028896 51.10786600 11.78572746
v 46.26548840 51.66151378 11.25651660
v 45.46013744 51.10786600 12.17789169
v 44.69457962 48.52149179 14.00377541
v 44.27011174 48.52149179 14.43600013
v 43.69973310 49.12664315 14.74593677
v 44.06545726 49.40024670 14.23991801
v 43.87596428 50.24520443 14.06070299
v 43.73194807 50.92277905 13.91100572
v 43.61067153 51.49735036 13.78450119
v 44.42928687 49.67546202 13.74233280
v 44.74953169 50.24520443 13.19203775
v 44.59983184 50.94853149 13.04655693
v 44.48234439 51.52310151 12.93270305
v 47.06894482 52.38093418 10.34568297
v 46.14610641 52.23769365 11.15742063
v 46.98367234 52.83318721 10.27610538
v 48.00315307 52.56762969 9.53816112
v 48.96767917 52.83318721 8.74961557
v 45.28201172 46.31333750 14.59623950
v 45.59088927 46.79616994 14.03540170
v 45.15125990 46.79616994 14.46551787
v 44.92007666 47.65722230 14.23148446
v 44.41033886 47.94048365 14.58358885
v 49.17991439 53.69906719 8.36166715
v 48.85587792 53.41419598 8.66738798
v 51.82146431 54.55689985 6.41771309
v 49.73702607 54.33640652 7.81348064
v 48.74976031 53.99037650 8.59148539
v 51.22076783 54.55689985 6.79301022
v 52.78220261 54.55689985 5.85687530
v 53.03612423 53.69584813 5.92012788
v 53.03612423 55.39059122 5.55537285
v 48.42572641 53.69906719 8.90352993
v 47.79091784 53.69584813 9.37370594
v 47.64690163 54.55689985 9.26195868
v 48.00315307 56.09874589 8.67371169
v 47.45172502 55.45335924 9.22400867
v 46.99314763 56.28222170 9.42009014
v 46.56109900 56.28222170 9.77008727
v 46.03051608 56.28222170 10.20020280
v 46.46066759 57.14488263 9.69207421
v 46.37728965 58.00754388 9.62671371
v 45.38054859 58.61108475 10.37730798
v 44.99587642 58.88629911 10.68302881
v 44.45202655 58.87020480 11.17850482
v 44.40086357 59.73286573 11.13001143
v 44.87270534 59.73286573 10.69778672
v 45.22705966 62.31923897 10.24658700
v 44.84238492 60.59552697 10.67037752
v 44.81775070 61.45818790 10.64718542
v 45.24979933 61.45818790 10.26345410
v 45.48477166 62.75539802 10.03152923
v 45.74627275 62.75539802 9.81436357
v 34.98298905 57.44584846 24.10728151
v 34.39934603 57.14488263 25.44401421
v 34.14163403 57.59069819 25.88045538
v 33.97298361 57.95282284 26.18406638
v 36.21849152 62.75539802 21.13231365
v 36.24312831 61.45818790 21.13231365
v 36.59558551 62.31923897 20.47870617
v 36.62780048 60.59552697 20.53352489
v 36.65432924 59.73286573 20.57569296
v 36.41935691 58.87020480 21.13231365
v 36.69601949 58.87020480 20.64737909
v 35.18953807 57.15292994 23.78047777
v 36.06879168 58.00754388 21.91664276
v 36.80213454 57.14488263 20.83291911
v 36.55768692 57.14488263 21.26303528
v 36.09532044 57.18994746 22.06844793
v 36.28481599 56.28222170 21.99465389
v 35.95509589 56.28222170 22.58500879
v 35.71633190 56.28222170 23.01723286
v 38.30482687 50.33211440 21.14707220
v 38.45263217 50.67653457 20.70008926
v 38.56253887 50.10196455 20.87087040
v 39.41715827 49.38254286 19.98955484
v 40.20545576 49.02041886 19.01336039
v 40.31536246 48.52149179 19.17359976
v 40.13534220 47.99520436 19.77660530
v 40.26419949 47.41902385 19.96425387
v 39.32809670 49.84767275 19.85461644
v 40.95016846 46.31333750 19.70702771
v 40.87058217 46.31333750 19.82509869
v 40.23198452 46.31333750 20.78231749
v 35.49841304 51.97052628 25.44401421
v 35.40745693 51.11591203 26.18406638
v 35.78076183 51.97052628 24.83257512
v 35.90203837 52.55636332 24.22956958
v 36.06689714 52.83962532 23.76782777
v 36.55389783 52.88790856 22.83380139
v 36.79076727 52.63683518 22.53229830
v 37.44073219 52.83318721 21.30309512
v 37.33272003 51.93190020 21.93140131
v 37.53169088 52.19262946 21.45911739
v 37.69276055 52.83318721 20.87087040
v 37.78940031 51.93190020 21.15550639
v 38.05279851 51.10786600 21.13231365
v 45.36728421 51.57782222 12.09144701
v 45.25548296 52.15400274 11.98602667
v 45.75764258 51.90775826 11.62127164
v 43.83806568 48.52149179 14.89563340
v 43.44581019 48.52149179 15.32574956
v 42.73899610 49.75432468 15.49442248
v 43.58035111 49.70121317 14.61310659
v 42.96639025 52.83318721 14.01853460
v 43.53297722 51.97052628 13.70438151
v 43.82100964 52.83318721 13.13089371
v 43.96881494 51.97052628 13.27215744
v 44.30801034 50.24520443 13.62215328
v 43.46665532 50.24520443 14.49292707
v 43.03650381 50.24520443 14.95466889
v 42.63856469 50.24520443 15.38689360
v 42.47370335 51.10786600 15.20346149
v 42.77879181 51.57621302 14.67846709
v 42.67835783 52.15078433 14.56883030
v 44.40086357 51.97052628 12.85469191
v 46.03241062 52.83318721 11.06043385
v 46.55352082 52.83318721 10.62821042
v 45.60036199 52.83318721 11.43783953
v 47.56731535 52.84606278 9.80382147
v 47.36076633 53.69584813 9.71737678
v 47.89324637 53.14220035 9.45382434
v 45.24221858 46.31333750 14.63629934
v 44.56572234 47.36591234 14.74382822
v 44.41412795 46.31333750 15.49653103
v 43.71868369 47.40453842 15.62514411
v 43.57087839 47.98071894 15.46279619
v 53.03612423 54.56977543 5.71982931
v 53.03612423 54.27363785 5.78729771
v 47.21485558 54.55689985 9.60141371
v 47.12579400 55.18780108 9.52972693
v 46.14231732 55.41956078 10.29297248
v 45.59846745 56.28222170 10.56074073
v 45.94145193 57.14488263 10.12430021
v 45.50940587 57.14488263 10.48694605
v 45.86565474 58.00754388 10.05683053
v 45.43360868 58.00754388 10.42158556
v 45.02240518 57.14488263 10.91706158
v 44.86133550 58.08157827 10.92338722
v 44.48613605 58.41956098 11.21223967
v 43.60309078 58.28919635 12.05349507
v 43.56708673 58.87020480 12.01976087
v 44.36675406 60.59552697 11.10049369
v 43.96881494 59.73286573 11.54325986
v 43.47991970 60.59552697 11.93753328
v 43.93660255 60.59552697 11.50530856
v 44.79690557 62.31923897 10.62821042
v 45.22705966 62.75539802 10.24658700
v 44.34401439 61.45818790 11.07940949
v 35.35629395 56.28222170 23.71933373
v 35.07394516 56.28222170 24.29914717
v 34.86739614 56.28222170 24.72926270
v 34.52820332 56.28222170 25.44401421
v 34.17005734 57.14488263 25.94159942
v 34.06962593 57.14488263 26.18406638
v 36.59558551 62.75539802 20.47870617
v 36.61074701 61.45818790 20.50400714
v 36.85898372 62.31923897 20.04648178
v 36.89309323 60.59552697 20.10130049
v 36.91962199 59.73286573 20.14557711
v 36.72444280 58.40829493 20.69376426
v 36.54252799 58.07514048 21.07749526
v 36.96510133 58.87020480 20.21726324
v 36.75855231 57.83372394 20.75490797
v 37.15080522 57.14488263 20.26997341
v 37.34030078 56.26129881 20.20250437
v 36.87224810 56.28222170 20.95309864
v 36.62780048 56.28222170 21.38532271
v 36.03089308 55.41956078 22.71573041
v 35.78834001 55.41956078 23.14795448
v 39.51001150 50.17921800 19.41395849
v 38.38441573 51.10786600 20.59677715
v 39.32051595 51.55529077 18.98173442
v 39.39821026 51.10786600 19.09558862
v 40.09744360 49.59499017 18.86366344
v 40.42148008 49.33747996 18.56216067
v 40.99943689 48.86108434 18.06035869
v 40.78151803 48.55207184 18.52631760
v 40.91037531 47.80368059 18.80251940
v 41.04112714 47.22750008 18.97540910
v 40.83647267 46.79616994 19.54678867
v 41.14345310 46.79616994 19.11456427
v 41.55844569 46.31333750 18.89107264
v 35.17816823 51.91580557 26.18406638
v 35.06068078 52.61269388 26.00485136
v 34.98109450 53.18726454 25.83196199
v 35.83381935 53.13093463 24.08619731
v 35.45861990 53.69584813 24.58167397
v 35.90961655 54.30260806 23.37144644
v 35.98351919 53.69584813 23.51903516
v 35.83760844 54.87556952 23.23861627
v 36.33976806 53.69584813 22.85699413
v 36.71496751 53.21140649 22.39946877
v 36.98973555 52.88790856 22.06634003
v 37.61696336 53.36430353 20.74436587
v 38.25176678 51.97052628 20.39647826
v 45.13231188 52.83318721 11.86795569
v 42.74089064 48.03543965 16.35887095
v 42.86785338 49.17975337 15.63990266
v 42.49075939 49.43404516 15.93929720
v 41.91280001 49.83640574 16.39893079
v 42.15156399 50.17277989 15.96881495
v 42.56845113 52.83318721 14.45075868
v 42.00565324 53.69584813 14.77545451
v 42.76742197 54.13522623 13.80347684
v 43.39654176 52.83318721 13.56311779
v 43.61824971 54.09981856 12.93059450
v 44.25305827 52.83318721 12.71131964
v 42.04355184 51.10786600 15.68417960
v 41.84647811 52.23769365 15.46068764
v 41.74604670 52.83318721 15.35105021
v 42.13640507 52.83318721 14.92093469
v 44.70216037 52.83318721 12.27909557
v 45.45634578 53.69584813 11.30922645
v 45.88839441 53.69584813 10.93603787
v 46.40192387 53.69584813 10.50592105
v 46.83397249 53.69584813 10.14960021
v 44.71921384 46.79616994 14.90406759
v 43.64478104 46.31333750 16.34411208
v 43.48370879 46.79616994 16.23236610
v 42.87732867 47.46086963 16.51489354
v 46.29201716 54.39112723 10.41736846
v 46.60657834 54.62932504 10.09267391
v 46.20674468 54.96408869 10.34568297
v 45.71026869 55.41956078 10.65772752
v 45.21189816 55.41956078 11.08784304
v 45.10578312 56.28222170 10.99085626
v 44.59225367 57.14488263 11.31133500
v 44.53350994 57.84499031 11.25651660
v 44.06735181 58.06709317 11.65500584
v 43.65046467 57.71462536 12.09777265
v 42.78068635 57.67438943 12.95378725
v 42.73899610 58.24896009 12.91161886
v 43.52160996 59.73286573 11.97548457
v 42.70299204 58.87020480 12.87366756
v 43.09145587 59.73286573 12.39716655
v 43.45339094 61.45818790 11.91223199
v 43.91196833 61.45818790 11.48211646
v 43.04976819 60.59552697 12.35288961
v 44.32696092 62.31923897 11.06043385
v 44.79690557 62.75539802 10.62821042
v 35.50220470 55.41956078 23.71933373
v 35.14785038 55.41956078 24.45938654
v 34.68737845 55.41956078 25.44401421
v 34.23259015 56.28222170 26.09340460
v 34.94509045 55.41956078 24.89161061
v 34.15489841 56.55743639 26.18406638
v 36.85898372 62.75539802 20.04648178
v 37.28155705 62.31923897 19.40552494
v 37.58474840 61.76076294 18.96697555
v 37.36114334 61.46623521 19.32540526
v 37.32514185 60.59552697 19.43925946
v 37.35167061 59.73286573 19.48353608
v 37.39714739 58.87020480 19.54678867
v 36.98026025 58.07514048 20.35220164
v 37.45020748 58.00754388 19.62479980
v 37.50705409 57.14488263 19.71335304
v 37.55632252 56.53490429 19.78714740
v 37.38956921 55.41956078 20.38593616
v 37.61127716 55.95872442 19.86937531
v 37.47673624 54.55689985 20.52087456
v 36.92151653 55.38093405 21.17448204
v 36.68654420 55.64327316 21.49074368
v 38.53790466 51.97052628 19.96425387
v 38.98700675 51.89327283 19.32329703
v 39.23145437 52.12986144 18.85101279
v 39.51190605 51.89327283 18.55583535
v 40.09933815 51.32192122 18.00975707
v 39.85299599 51.06441102 18.47782421
v 39.98185327 50.24520443 18.70131552
v 40.20356122 50.74734991 18.14680370
v 40.29641445 50.24520443 18.27119968
v 41.10744905 49.99413105 17.33506540
v 40.89332185 49.38254286 17.92331174
v 41.13018872 48.28651432 18.22692306
v 41.23441179 49.38254286 17.49108767
v 41.66456330 49.38254286 16.95133439
v 41.80479042 48.72589177 17.12844118
v 41.92985605 48.15132046 17.28446346
v 41.22872558 47.57192154 18.52631760
v 41.83889736 47.09391671 18.02873272
v 41.60203049 46.80260804 18.51577551
v 41.70435644 46.31333750 18.69920730
v 35.10237104 52.18297294 26.18406638
v 34.93940425 52.77041918 26.18406638
v 34.89013581 52.95067658 26.18406638
v 34.74043597 53.56387398 26.18406638
v 34.71011555 53.69584813 26.18406638
v 34.92424532 53.69584813 25.70545746
v 35.12700526 53.69584813 25.27323275
v 35.76560034 53.69584813 23.94915069
v 35.68980314 54.57621354 23.68349099
v 36.89498777 53.69584813 21.86182372
v 36.65432924 53.69584813 22.29193989
v 35.21796137 54.61323041 24.65546866
v 34.99246434 54.93833754 24.99070595
v 36.48947047 55.38093405 21.92507631
v 36.74339081 55.06870250 21.58983902
v 37.11290663 54.55689985 21.13231365
v 36.79645090 54.55689985 21.68471725
v 37.35167061 53.67009698 21.07116961
v 37.54305814 53.93887420 20.62629490
v 37.82161527 53.67009698 20.31214180
v 38.38251861 53.02310177 19.73443723
v 38.14754628 52.77524744 20.19407082
v 38.46589655 52.44853110 19.85883321
v 44.56193325 53.69584813 12.14837395
v 44.99397931 53.69584813 11.73934262
v 42.51728815 47.71194301 16.81007099
v 42.15914474 48.47159869 16.83115519
v 42.01133687 49.38254286 16.51911032
v 41.79910422 50.41097705 16.26399239
v 41.61718941 53.69584813 15.20557004
v 41.92985605 54.23662098 14.69322628
v 42.69162221 54.70818769 13.72124861
v 43.05166273 54.47642799 13.40920406
v 43.55192781 54.55689985 12.86523401
v 44.49371423 54.14488275 12.08090491
v 41.67593314 51.10786600 16.11429512
v 41.31399807 52.83318721 15.85706897
v 41.18514335 53.69584813 15.70104670
v 45.37865405 54.22374540 11.23964886
v 45.79364663 54.59230752 10.79055769
v 43.61635516 46.31333750 16.37573837
v 43.00997248 46.73340191 16.81007099
v 42.63667014 46.97964639 17.09048957
v 45.29906776 54.79670687 11.16585482
v 44.41412795 54.71945342 12.00711087
v 44.78174665 55.41956078 11.48844147
v 44.67373449 56.28222170 11.38934613
v 44.13557082 57.14488263 11.74145052
v 43.70352476 57.14488263 12.15048249
v 43.26389539 57.14488263 12.58270657
v 42.83374387 57.14488263 13.00860564
v 42.08524209 56.28222170 13.99745041
v 42.00186415 57.14488263 13.90889717
v 41.60771412 57.14488263 14.34112125
v 41.94312043 57.84338078 13.84564523
v 41.89953563 58.41795145 13.79925975
v 41.02596565 59.19531225 14.64684144
v 41.82752752 59.73286573 13.71914006
v 42.22925573 59.73286573 13.28902454
v 42.65940982 59.73286573 12.82939062
v 43.44581019 62.31923897 11.90379844
v 43.89680684 62.31923897 11.47157437
v 43.02513397 61.45818790 12.32758896
v 42.61771956 60.59552697 12.78511433
v 43.66941526 62.75539802 11.68874003
v 44.32696092 62.75539802 11.06043385
v 34.86171251 54.61323041 25.42082147
v 34.53009786 54.56494717 26.18406638
v 34.36334198 55.40507600 26.18406638
v 34.25532982 55.96677109 26.18406638
v 34.19658610 56.28222170 26.18406638
v 37.28155705 62.75539802 19.40552494
v 37.58095931 62.31923897 18.96065022
v 38.31051051 61.45818790 17.90433609
v 37.82540436 61.46623521 18.62541293
v 37.59801278 61.18458242 18.98595119
v 37.61317170 60.59552697 19.00703539
v 37.92394122 60.59552697 18.54318470
v 37.64159501 59.73286573 19.05131201
v 38.06795743 58.87020480 18.54318470
v 38.43368416 58.30207160 18.08565966
v 38.21197364 58.01076261 18.47571566
v 38.47537184 57.72750093 18.14469515
v 38.22902968 57.14488263 18.64438858
v 38.59664838 56.28222170 18.32180162
v 38.30293233 56.28222170 18.75402601
v 38.67434012 55.41956078 18.44198114
v 38.03005884 55.41956078 19.40552494
v 37.66812377 55.41956078 19.95371177
v 38.38441573 55.41956078 18.87420522
v 37.75908246 54.55689985 20.09075872
v 39.13102296 52.83318721 18.70553262
v 39.42852810 52.83318721 18.27330822
v 39.98943145 51.97052628 17.86849335
v 40.32483776 51.97052628 17.43626895
v 40.90468911 51.10786600 17.07994747
v 41.00133143 50.57031156 17.19801877
v 42.04165729 47.65883150 17.42783540
v 41.98101902 46.51934669 18.21005596
v 42.18756805 46.31333750 18.08987643
v 35.05120549 54.36537608 25.11721047
v 38.23281877 54.60035484 19.36546510
v 38.50379515 54.34445384 19.04920346
v 38.29156249 53.69584813 19.60160706
v 41.24578162 51.10786600 16.64772340
v 41.10176541 54.37503325 15.59773427
v 41.03165185 54.94960391 15.51339813
v 41.85974249 54.80958244 14.61521514
v 41.78394529 55.41956078 14.53509546
v 42.17619821 55.41956078 14.10287138
v 42.60824684 55.41956078 13.63058683
v 43.01376414 55.41956078 13.19836275
v 43.44391565 55.41956078 12.75981304
v 43.89301775 55.41956078 12.32758896
v 44.32316926 55.41956078 11.91855699
v 44.09956677 54.48286546 12.36554026
v 41.13018872 51.80797336 16.49802612
v 41.03354640 52.38254338 16.37995515
v 40.96343284 52.83318721 16.28929336
v 40.84026175 53.69584813 16.13327077
v 40.30020354 54.55689985 16.54230274
v 40.78720423 54.61966788 15.91399655
v 43.22978845 46.31333750 16.82061309
v 42.92469999 46.31333750 17.17693457
v 42.81289875 46.31333750 17.30765588
v 42.78826453 46.40507508 17.27813813
v 44.22463240 56.28222170 11.82157021
v 43.79258634 56.28222170 12.23903573
v 43.35485408 56.28222170 12.66915125
v 42.92280545 56.28222170 13.10348388
v 42.51728815 56.28222170 13.53360004
v 41.68730297 56.28222170 14.42967512
v 41.25525434 56.28222170 14.90617549
v 41.17756261 57.14488263 14.81762226
v 41.61340032 58.08157827 14.17244897
v 41.11313525 58.00754388 14.74593677
v 40.80615225 57.14488263 15.24773843
v 40.25472419 58.87020480 15.62092701
v 40.20924485 59.73286573 15.56400007
v 40.59960322 59.73286573 15.09593261
v 40.99943689 59.73286573 14.61943160
v 41.39548146 59.73286573 14.18720752
v 42.18756805 60.59552697 13.24896469
v 43.44581019 62.75539802 11.90379844
v 43.01755322 62.31923897 12.32337251
v 42.59308534 61.45818790 12.75981304
v 42.16293383 61.45818790 13.22155550
v 37.58095931 62.75539802 18.96065022
v 37.87467279 62.31923897 18.52842583
v 38.33325018 60.59552697 17.93807094
v 38.30482687 62.31923897 17.89801109
v 38.61370185 61.45818790 17.47422057
v 37.98837115 59.73286573 18.54318470
v 38.40525828 58.87020480 18.04349127
v 38.71413326 58.87020480 17.61337574
v 38.71603038 58.01076261 17.75042237
v 38.52274573 57.14488263 18.21427274
v 38.90552336 57.14488263 17.68084478
v 39.08175453 56.34820878 17.63024284
v 39.10638875 55.41956078 17.82632496
v 39.20113652 54.55689985 17.95704658
v 38.73687293 54.60035484 18.61487084
v 38.43747325 54.91741530 18.95010813
v 39.05332866 53.69101987 18.48836599
v 39.35273091 53.40132041 18.16367080
v 39.90605608 52.85250089 17.63235139
v 40.22819543 52.57889541 17.31398120
v 40.80994390 52.04456068 16.79952889
v 40.97669722 55.41956078 15.44803764
v 41.35379121 55.41956078 15.02003002
v 40.50106636 55.45496845 16.02785044
v 40.14671204 53.15346608 17.21066909
v 40.40821570 53.69584813 16.68356646
v 39.95911360 54.55689985 16.97452681
v 40.22630089 55.19262934 16.44742418
v 39.91173971 55.45496845 16.76790260
v 40.88195201 56.28222170 15.33840021
v 40.37600073 57.14488263 15.77484138
v 40.31536246 58.00754388 15.69472169
v 39.96858889 58.00754388 16.12694577
v 39.53843481 58.00754388 16.66669904
v 39.19734487 58.00754388 17.09892344
v 39.48348274 58.87020480 16.60133823
v 40.18650518 60.34445359 15.53659087
v 39.87194657 59.73286573 15.99411559
v 39.06849015 60.59552697 16.93657552
v 39.40768555 60.59552697 16.50435145
v 40.97290813 60.59552697 14.58780530
v 41.36137196 60.59552697 14.15558123
v 41.79342058 60.59552697 13.68118877
v 43.01755322 62.75539802 12.32337251
v 42.58929625 62.31923897 12.75559658
v 42.15724763 62.31923897 13.21312195
v 41.76878637 61.45818790 13.65377957
v 41.32536790 62.31923897 14.11341348
v 41.75741653 62.31923897 13.64323747
v 37.87467279 62.75539802 18.52842583
v 38.63833607 60.59552697 17.50584654
v 38.30482687 62.75539802 17.89801109
v 38.60991276 62.31923897 17.46789525
v 39.04195882 62.31923897 16.89440745
v 39.04575048 61.45818790 16.90494923
v 38.67623466 59.73286573 17.55855671
v 39.14618189 58.87020480 17.03145408
v 39.26745843 57.14488263 17.18747667
v 39.30914611 56.67975402 17.24229507
v 39.36220620 56.10357351 17.30976443
v 39.42852810 55.41956078 17.39410088
v 39.27693372 53.97589108 18.05825046
v 39.52896208 54.55689985 17.52482251
v 39.59907307 53.69101987 17.73566318
v 40.15997642 55.76720065 16.36308773
v 40.44990338 56.28222170 15.86971961
v 40.07280939 53.69584813 17.11579054
v 40.03491079 57.14488263 16.20706545
v 40.17324080 60.92063411 15.51972313
v 40.47264305 60.61805907 15.17816084
v 39.38494588 61.45818790 16.47483370
v 39.79804392 61.45818790 15.95616430
v 39.10638875 59.73286573 16.98085246
v 40.52001694 61.45818790 15.07484841
v 40.95206300 61.45818790 14.56461320
v 41.33863228 61.45818790 14.13238913
v 42.58929625 62.75539802 12.75559658
v 42.37137740 62.75539802 12.98541290
v 42.15724763 62.75539802 13.21312195
v 40.93311499 62.31923897 14.54563756
v 41.32536790 62.75539802 14.11341348
v 41.75741653 62.75539802 13.64323747
v 38.60991276 62.75539802 17.46789525
v 38.82404253 62.75539802 17.18325958
v 39.04195882 62.75539802 16.89440745
v 39.20682016 62.75539802 16.68145792
v 39.37547058 62.31923897 16.46429160
v 39.77340970 62.31923897 15.95616430
v 40.14481749 62.31923897 15.48388039
v 39.63318258 56.34820878 16.90073277
v 40.11070799 56.28222170 16.29983546
v 40.16187353 61.45818790 15.50285603
v 40.50106636 62.31923897 15.05376422
v 40.93311499 62.75539802 14.54563756
v 40.71519613 62.75539802 14.80075516
v 39.37547058 62.75539802 16.46429160
v 39.57254431 62.75539802 16.21128223
v 40.14481749 62.75539802 15.48388039
v 39.95721905 62.75539802 15.72213089
v 40.50106636 62.75539802 15.05376422
f 1 2 6
f 1 6 12
f 1 12 21
f 1 21 40
f 1 40 70
f 1 70 111
f 1 111 177
f 1 177 256
f 1 256 255
f 1 255 351
f 1 351 462
f 1 462 560
f 1 560 559
f 1 559 463
f 1 463 367
f 1 367 267
f 1 267 265
f 1 265 257
f 1 257 179
f 1 179 112
f 1 112 71
f 1 71 41
f 1 41 22
f 1 22 13
f 1 13 7
f 1 7 3
f 1 3 4
f 1 4 9
f 1 9 17
f 1 17 29
f 1 29 56
f 1 56 55
f 1 55 92
f 1 92 145
f 1 145 220
f 1 220 219
f 1 219 311
f 1 311 418
f 1 418 417
f 1 417 515
f 1 515 514
f 1 514 513
f 1 513 614
f 1 614 714
f 1 714 814
f 1 814 839
f 1 839 838
f 1 838 837
f 1 837 755
f 1 755 650
f 1 650 556
f 1 556 554
f 1 554 450
f 1 450 338
f 1 338 240
f 1 240 321
f 1 321 226
f 1 226 150
f 1 150 96
f 1 96 60
f 1 60 31
f 1 31 30
f 1 30 18
f 1 18 10
f 1 10 5
f 1 5 2
f 2 5 6
f 3 7 14
f 3 14 24
f 3 24 47
f 3 47 80
f 3 80 128
f 3 128 195
f 3 195 197
f 3 197 285
f 3 285 284
f 3 284 386
f 3 386 385
f 3 385 384
f 3 384 383
f 3 383 382
f 3 382 484
f 3 484 483
f 3 483 579
f 3 579 672
f 3 672 780
f 3 780 779
f 3 779 858
f 3 858 905
f 3 905 938
f 3 938 939
f 3 939 940
f 3 940 943
f 3 943 942
f 3 942 955
f 3 955 956
f 3 956 961
f 3 961 959
f 3 959 960
f 3 960 958
f 3 958 957
f 3 957 947
f 3 947 946
f 3 946 945
f 3 945 944
f 3 944 913
f 3 913 911
f 3 911 862
f 3 862 786
f 3 786 679
f 3 679 587
f 3 587 489
f 3 489 392
f 3 392 391
f 3 391 293
f 3 293 292
f 3 292 291
f 3 291 201
f 3 201 133
f 3 133 83
f 3 83 50
f 3 50 26
f 3 26 15
f 3 15 8
f 3 8 4
f 4 8 15
f 4 15 25
f 4 25 48
f 4 48 81
f 4 81 129
f 4 129 132
f 4 132 200
f 4 200 290
f 4 290 390
f 4 390 488
f 4 488 586
f 4 586 678
f 4 678 785
f 4 785 784
f 4 784 783
f 4 783 782
f 4 782 719
f 4 719 718
f 4 718 717
f 4 717 716
f 4 716 715
f 4 715 615
f 4 615 517
f 4 517 423
f 4 423 422
f 4 422 315
f 4 315 314
f 4 314 224
f 4 224 223
f 4 223 148
f 4 148 94
f 4 94 87
f 4 87 51
f 4 51 27
f 4 27 16
f 4 16 9
f 5 10 11
f 5 11 6
f 6 11 12
f 7 13 23
f 7 23 14
f 9 16 17
f 10 18 19
f 10 19 11
f 11 20 12
f 11 19 20
f 12 20 21
f 13 22 23
f 14 23 24
f 15 26 25
f 16 27 28
f 16 28 17
f 17 28 29
f 18 30 19
f 19 30 31
f 19 31 32
f 19 32 33
f 19 33 34
f 19 34 35
f 19 35 36
f 19 36 37
f 19 37 38
f 19 38 39
f 19 39 20
f 20 39 40
f 20 40 21
f 22 41 42
f 22 42 43
f 22 43 44
f 22 44 23
f 23 44 45
f 23 45 46
f 23 46 24
f 24 46 47
f 25 26 49
f 25 49 48
f 26 50 49
f 27 51 28
f 28 52 53
f 28 53 54
f 28 54 55
f 28 55 56
f 28 56 29
f 28 51 57
f 28 57 58
f 28 58 52
f 31 59 32
f 31 60 59
f 32 59 60
f 32 60 61
f 32 61 33
f 33 61 62
f 33 62 63
f 33 63 64
f 33 64 34
f 34 64 35
f 35 64 36
f 36 64 65
f 36 65 37
f 37 39 38
f 37 65 66
f 37 66 40
f 37 40 39
f 40 66 67
f 40 67 68
f 40 68 69
f 40 69 70
f 41 71 42
f 42 71 72
f 42 72 73
f 42 73 74
f 42 74 75
f 42 75 76
f 42 76 43
f 43 76 44
f 44 76 77
f 44 77 45
f 45 77 75
f 45 75 78
f 45 78 46
f 46 78 79
f 46 79 80
f 46 80 47
f 48 49 82
f 48 82 81
f 49 50 83
f 49 83 84
f 49 84 85
f 49 85 86
f 49 86 82
f 51 87 57
f 52 58 88
f 52 88 53
f 53 88 89
f 53 89 90
f 53 90 91
f 53 91 54
f 54 91 55
f 55 91 92
f 57 93 58
f 57 87 94
f 57 94 93
f 58 93 95
f 58 95 88
f 60 96 97
f 60 97 98
f 60 98 61
f 61 98 99
f 61 99 62
f 62 100 101
f 62 101 63
f 62 99 102
f 62 102 103
f 62 103 100
f 63 101 104
f 63 104 64
f 64 104 65
f 65 105 66
f 65 104 101
f 65 101 105
f 66 105 106
f 66 106 67
f 67 106 107
f 67 107 68
f 68 107 108
f 68 108 69
f 69 108 109
f 69 109 70
f 70 109 110
f 70 110 111
f 71 112 113
f 71 113 114
f 71 114 72
f 72 115 116
f 72 116 117
f 72 117 73
f 72 114 118
f 72 118 119
f 72 119 120
f 72 120 115
f 73 117 121
f 73 121 122
f 73 122 123
f 73 123 74
f 74 123 124
f 74 124 75
f 75 77 76
f 75 124 78
f 78 124 125
f 78 125 126
f 78 126 79
f 79 127 128
f 79 128 80
f 79 126 127
f 81 82 129
f 82 130 131
f 82 131 132
f 82 132 129
f 82 86 130
f 83 133 84
f 84 133 134
f 84 134 85
f 85 135 136
f 85 136 137
f 85 137 138
f 85 138 130
f 85 130 86
f 85 134 135
f 88 95 89
f 89 139 140
f 89 140 141
f 89 141 142
f 89 142 90
f 89 95 139
f 90 143 91
f 90 142 143
f 91 143 144
f 91 144 92
f 92 144 145
f 93 146 147
f 93 147 95
f 93 94 148
f 93 148 146
f 95 147 146
f 95 146 149
f 95 149 139
f 96 150 97
f 97 150 151
f 97 151 98
f 98 151 152
f 98 152 99
f 99 152 153
f 99 153 102
f 100 103 154
f 100 154 155
f 100 155 156
f 100 156 157
f 100 157 158
f 100 158 159
f 100 159 160
f 100 160 161
f 100 161 101
f 101 161 162
f 101 162 105
f 102 163 164
f 102 164 154
f 102 154 103
f 102 153 165
f 102 165 163
f 105 162 160
f 105 160 159
f 105 159 166
f 105 166 167
f 105 167 168
f 105 168 169
f 105 169 170
f 105 170 171
f 105 171 172
f 105 172 173
f 105 173 174
f 105 174 106
f 106 175 108
f 106 108 107
f 106 174 175
f 108 175 109
f 109 175 110
f 110 176 177
f 110 177 111
f 110 175 178
f 110 178 176
f 112 179 118
f 112 118 113
f 113 118 114
f 115 120 180
f 115 180 181
f 115 181 182
f 115 182 116
f 116 182 183
f 116 183 184
f 116 184 117
f 117 184 121
f 118 185 186
f 118 186 120
f 118 120 119
f 118 179 187
f 118 187 185
f 120 186 180
f 121 184 188
f 121 188 189
f 121 189 122
f 122 189 190
f 122 190 123
f 123 190 191
f 123 191 125
f 123 125 124
f 125 191 192
f 125 192 193
f 125 193 194
f 125 194 126
f 126 194 127
f 127 195 128
f 127 194 196
f 127 196 197
f 127 197 195
f 130 198 199
f 130 199 131
f 130 138 198
f 131 199 200
f 131 200 132
f 133 201 134
f 134 201 291
f 134 291 202
f 134 202 135
f 135 202 203
f 135 203 204
f 135 204 205
f 135 205 206
f 135 206 136
f 136 207 208
f 136 208 209
f 136 209 198
f 136 198 137
f 136 206 210
f 136 210 211
f 136 211 207
f 137 198 138
f 139 212 213
f 139 213 140
f 139 149 212
f 140 213 141
f 141 214 215
f 141 215 216
f 141 216 217
f 141 217 142
f 141 213 214
f 142 217 143
f 143 217 218
f 143 218 144
f 144 218 219
f 144 219 220
f 144 220 145
f 146 221 222
f 146 222 149
f 146 148 223
f 146 223 224
f 146 224 221
f 149 225 212
f 149 222 225
f 150 226 151
f 151 226 227
f 151 227 152
f 152 227 228
f 152 228 165
f 152 165 153
f 154 164 229
f 154 229 230
f 154 230 155
f 155 230 231
f 155 231 232
f 155 232 157
f 155 157 156
f 157 233 234
f 157 234 159
f 157 159 235
f 157 235 158
f 157 232 236
f 157 236 233
f 158 235 159
f 159 234 237
f 159 237 166
f 160 162 161
f 163 229 238
f 163 238 164
f 163 165 239
f 163 239 229
f 164 238 229
f 165 228 240
f 165 240 241
f 165 241 242
f 165 242 243
f 165 243 239
f 166 237 168
f 166 168 167
f 168 244 170
f 168 170 245
f 168 245 169
f 168 237 244
f 169 245 170
f 170 246 247
f 170 247 248
f 170 248 178
f 170 178 249
f 170 249 171
f 170 244 250
f 170 250 251
f 170 251 252
f 170 252 246
f 171 249 172
f 172 249 173
f 173 249 253
f 173 253 175
f 173 175 174
f 175 253 178
f 176 178 254
f 176 254 255
f 176 255 256
f 176 256 177
f 178 248 254
f 178 253 249
f 179 257 187
f 180 186 185
f 180 185 258
f 180 258 181
f 181 259 260
f 181 260 182
f 181 258 259
f 182 260 261
f 182 261 262
f 182 262 263
f 182 263 183
f 183 263 189
f 183 189 188
f 183 188 184
f 185 264 258
f 185 187 269
f 185 269 264
f 187 257 265
f 187 265 266
f 187 266 267
f 187 267 268
f 187 268 269
f 189 270 271
f 189 271 272
f 189 272 273
f 189 273 190
f 189 263 270
f 190 273 191
f 191 273 192
f 192 273 272
f 192 272 274
f 192 274 193
f 193 274 275
f 193 275 276
f 193 276 277
f 193 277 278
f 193 278 194
f 194 278 279
f 194 279 280
f 194 280 281
f 194 281 282
f 194 282 283
f 194 283 196
f 196 283 284
f 196 284 285
f 196 285 197
f 198 209 286
f 198 286 287
f 198 287 288
f 198 288 199
f 199 288 289
f 199 289 290
f 199 290 200
f 202 291 292
f 202 292 203
f 203 292 293
f 203 293 204
f 204 293 391
f 204 391 294
f 204 294 205
f 205 294 295
f 205 295 206
f 206 295 296
f 206 296 297
f 206 297 210
f 207 298 208
f 207 211 298
f 208 298 209
f 209 298 286
f 210 297 211
f 211 297 299
f 211 299 300
f 211 300 298
f 212 225 301
f 212 301 302
f 212 302 303
f 212 303 213
f 213 303 302
f 213 302 304
f 213 304 305
f 213 305 306
f 213 306 215
f 213 215 214
f 215 306 307
f 215 307 308
f 215 308 216
f 216 308 309
f 216 309 217
f 217 309 310
f 217 310 218
f 218 310 219
f 219 310 309
f 219 309 311
f 221 312 313
f 221 313 225
f 221 225 222
f 221 224 314
f 221 314 315
f 221 315 312
f 225 316 317
f 225 317 318
f 225 318 301
f 225 313 312
f 225 312 319
f 225 319 320
f 225 320 316
f 226 321 227
f 227 321 240
f 227 240 228
f 229 322 236
f 229 236 231
f 229 231 230
f 229 239 323
f 229 323 324
f 229 324 325
f 229 325 326
f 229 326 327
f 229 327 328
f 229 328 329
f 229 329 330
f 229 330 322
f 231 236 232
f 233 236 331
f 233 331 332
f 233 332 333
f 233 333 334
f 233 334 234
f 234 334 237
f 236 335 336
f 236 336 331
f 236 322 335
f 237 334 337
f 237 337 244
f 239 243 242
f 239 242 323
f 240 338 339
f 240 339 241
f 241 339 242
f 242 324 323
f 242 339 340
f 242 340 341
f 242 341 342
f 242 342 325
f 242 325 324
f 244 343 250
f 244 337 343
f 246 252 247
f 247 252 344
f 247 344 254
f 247 254 248
f 250 343 345
f 250 345 251
f 251 345 346
f 251 346 347
f 251 347 348
f 251 348 252
f 252 348 344
f 254 344 349
f 254 349 350
f 254 350 255
f 255 350 351
f 258 264 352
f 258 352 353
f 258 353 354
f 258 354 355
f 258 355 356
f 258 356 259
f 259 356 357
f 259 357 358
f 259 358 260
f 260 358 359
f 260 359 360
f 260 360 361
f 260 361 261
f 261 361 362
f 261 362 363
f 261 363 262
f 262 363 364
f 262 364 365
f 262 365 366
f 262 366 270
f 262 270 263
f 264 269 352
f 265 267 266
f 267 367 268
f 268 367 368
f 268 368 354
f 268 354 352
f 268 352 269
f 270 366 369
f 270 369 271
f 271 369 370
f 271 370 371
f 271 371 372
f 271 372 272
f 272 372 274
f 274 372 275
f 275 372 276
f 276 372 373
f 276 373 374
f 276 374 375
f 276 375 277
f 277 279 278
f 277 375 376
f 277 376 377
f 277 377 279
f 279 378 280
f 279 377 379
f 279 379 380
f 279 380 378
f 280 378 381
f 280 381 281
f 281 382 383
f 281 383 282
f 281 381 484
f 281 484 382
f 282 383 384
f 282 384 385
f 282 385 283
f 283 386 284
f 283 385 386
f 286 298 387
f 286 387 287
f 287 387 288
f 288 387 289
f 289 387 388
f 289 388 389
f 289 389 390
f 289 390 290
f 294 391 392
f 294 392 393
f 294 393 295
f 295 393 394
f 295 394 395
f 295 395 396
f 295 396 397
f 295 397 296
f 296 397 398
f 296 398 399
f 296 399 297
f 297 399 299
f 298 400 387
f 298 300 400
f 299 399 398
f 299 398 401
f 299 401 402
f 299 402 300
f 300 402 403
f 300 403 404
f 300 404 400
f 301 318 405
f 301 405 406
f 301 406 302
f 302 406 407
f 302 407 408
f 302 408 305
f 302 305 304
f 305 408 409
f 305 409 306
f 306 409 410
f 306 410 307
f 307 411 412
f 307 412 308
f 307 410 413
f 307 413 411
f 308 412 414
f 308 414 309
f 309 414 415
f 309 415 416
f 309 416 417
f 309 417 418
f 309 418 311
f 312 419 420
f 312 420 421
f 312 421 320
f 312 320 319
f 312 315 422
f 312 422 423
f 312 423 419
f 316 320 317
f 317 424 318
f 317 320 425
f 317 425 424
f 318 424 426
f 318 426 427
f 318 427 428
f 318 428 429
f 318 429 430
f 318 430 407
f 318 407 405
f 320 421 420
f 320 420 425
f 322 431 432
f 322 432 335
f 322 330 433
f 322 433 431
f 325 342 434
f 325 434 327
f 325 327 326
f 327 434 435
f 327 435 436
f 327 436 437
f 327 437 438
f 327 438 439
f 327 439 440
f 327 440 441
f 327 441 442
f 327 442 328
f 328 442 329
f 329 442 443
f 329 443 330
f 330 443 444
f 330 444 433
f 331 336 332
f 332 445 333
f 332 336 432
f 332 432 446
f 332 446 445
f 333 445 447
f 333 447 448
f 333 448 334
f 334 448 337
f 335 432 336
f 337 448 449
f 337 449 343
f 338 340 339
f 338 450 340
f 340 450 451
f 340 451 341
f 341 451 450
f 341 450 452
f 341 452 453
f 341 453 342
f 342 453 454
f 342 454 434
f 343 455 345
f 343 449 456
f 343 456 455
f 344 348 457
f 344 457 349
f 345 458 346
f 345 455 459
f 345 459 360
f 345 360 458
f 346 458 358
f 346 358 357
f 346 357 348
f 346 348 347
f 348 460 457
f 348 357 460
f 349 457 354
f 349 354 461
f 349 461 350
f 350 461 462
f 350 462 351
f 352 354 353
f 354 457 355
f 354 368 463
f 354 463 461
f 355 457 356
f 356 457 460
f 356 460 357
f 358 458 359
f 359 458 360
f 360 459 361
f 361 459 362
f 362 464 465
f 362 465 466
f 362 466 364
f 362 364 363
f 362 459 464
f 364 467 365
f 364 466 468
f 364 468 467
f 365 467 366
f 366 467 369
f 367 463 368
f 369 468 469
f 369 469 370
f 369 467 468
f 370 469 470
f 370 470 471
f 370 471 472
f 370 472 371
f 371 472 473
f 371 473 374
f 371 374 373
f 371 373 372
f 374 376 375
f 374 473 474
f 374 474 475
f 374 475 476
f 374 476 477
f 374 477 478
f 374 478 376
f 376 379 377
f 376 478 480
f 376 480 379
f 378 380 479
f 378 479 381
f 379 480 481
f 379 481 482
f 379 482 380
f 380 482 479
f 381 479 483
f 381 483 484
f 387 400 485
f 387 485 486
f 387 486 388
f 388 486 487
f 388 487 389
f 389 487 390
f 390 487 488
f 392 489 394
f 392 394 393
f 394 490 395
f 394 489 587
f 394 587 491
f 394 491 490
f 395 490 396
f 396 490 492
f 396 492 493
f 396 493 398
f 396 398 397
f 398 494 401
f 398 493 495
f 398 495 494
f 400 496 485
f 400 404 496
f 401 494 402
f 402 494 497
f 402 497 403
f 403 497 498
f 403 498 499
f 403 499 500
f 403 500 501
f 403 501 502
f 403 502 503
f 403 503 404
f 404 503 496
f 405 407 406
f 407 430 429
f 407 429 408
f 408 429 504
f 408 504 409
f 409 504 505
f 409 505 506
f 409 506 410
f 410 506 413
f 411 413 507
f 411 507 508
f 411 508 412
f 412 509 510
f 412 510 511
f 412 511 414
f 412 508 509
f 413 512 507
f 413 506 505
f 413 505 512
f 414 511 415
f 415 511 513
f 415 513 514
f 415 514 416
f 416 515 417
f 416 514 515
f 419 516 420
f 419 423 517
f 419 517 516
f 420 518 425
f 420 516 518
f 424 425 519
f 424 519 520
f 424 520 426
f 425 518 519
f 426 521 522
f 426 522 427
f 426 520 521
f 427 522 523
f 427 523 524
f 427 524 428
f 428 525 526
f 428 526 527
f 428 527 528
f 428 528 429
f 428 524 525
f 429 528 505
f 429 505 504
f 431 433 529
f 431 529 530
f 431 530 531
f 431 531 446
f 431 446 432
f 433 444 529
f 434 454 435
f 435 454 532
f 435 532 436
f 436 532 533
f 436 533 534
f 436 534 535
f 436 535 437
f 437 535 438
f 438 535 439
f 439 535 440
f 440 536 537
f 440 537 538
f 440 538 539
f 440 539 444
f 440 444 443
f 440 443 540
f 440 540 441
f 440 535 541
f 440 541 542
f 440 542 543
f 440 543 544
f 440 544 545
f 440 545 546
f 440 546 536
f 441 540 442
f 442 540 443
f 444 539 547
f 444 547 530
f 444 530 529
f 445 446 548
f 445 548 549
f 445 549 447
f 446 531 550
f 446 550 548
f 447 551 448
f 447 549 552
f 447 552 553
f 447 553 551
f 448 551 553
f 448 553 449
f 449 553 464
f 449 464 456
f 450 554 454
f 450 454 452
f 452 454 453
f 454 554 555
f 454 555 556
f 454 556 557
f 454 557 558
f 454 558 532
f 455 456 459
f 456 464 459
f 461 463 559
f 461 559 560
f 461 560 462
f 464 553 465
f 465 553 552
f 465 552 561
f 465 561 466
f 466 561 562
f 466 562 468
f 468 562 469
f 469 562 470
f 470 562 471
f 471 563 564
f 471 564 565
f 471 565 472
f 471 562 563
f 472 565 473
f 473 565 566
f 473 566 567
f 473 567 474
f 474 567 568
f 474 568 569
f 474 569 570
f 474 570 475
f 475 570 571
f 475 571 476
f 476 571 572
f 476 572 573
f 476 573 477
f 477 574 478
f 477 573 575
f 477 575 576
f 477 576 577
f 477 577 574
f 478 574 480
f 479 482 578
f 479 578 672
f 479 672 579
f 479 579 483
f 480 574 481
f 481 578 482
f 481 574 580
f 481 580 578
f 485 496 581
f 485 581 582
f 485 582 583
f 485 583 584
f 485 584 486
f 486 584 585
f 486 585 487
f 487 585 586
f 487 586 488
f 490 491 588
f 490 588 492
f 491 589 588
f 491 587 679
f 491 679 589
f 492 588 590
f 492 590 493
f 493 590 591
f 493 591 495
f 494 495 497
f 495 592 593
f 495 593 497
f 495 591 594
f 495 594 592
f 496 503 581
f 497 593 595
f 497 595 498
f 498 595 596
f 498 596 597
f 498 597 598
f 498 598 499
f 499 598 599
f 499 599 500
f 500 599 501
f 501 600 601
f 501 601 502
f 501 599 600
f 502 601 503
f 503 601 581
f 505 602 512
f 505 528 603
f 505 603 604
f 505 604 605
f 505 605 602
f 507 512 508
f 508 606 607
f 508 607 608
f 508 608 609
f 508 609 610
f 508 610 611
f 508 611 509
f 508 512 606
f 509 612 511
f 509 511 510
f 509 611 612
f 511 612 513
f 512 602 606
f 513 612 613
f 513 613 614
f 516 517 615
f 516 615 616
f 516 616 518
f 518 616 617
f 518 617 519
f 519 618 520
f 519 617 619
f 519 619 618
f 520 618 620
f 520 620 621
f 520 621 521
f 521 621 620
f 521 620 622
f 521 622 623
f 521 623 624
f 521 624 522
f 522 624 625
f 522 625 626
f 522 626 523
f 523 626 526
f 523 526 525
f 523 525 524
f 526 626 627
f 526 627 603
f 526 603 528
f 526 528 527
f 530 628 550
f 530 550 531
f 530 547 628
f 532 558 533
f 533 558 629
f 533 629 630
f 533 630 534
f 534 543 542
f 534 542 535
f 534 630 629
f 534 629 631
f 534 631 632
f 534 632 633
f 534 633 543
f 535 542 541
f 536 634 635
f 536 635 636
f 536 636 637
f 536 637 537
f 536 546 634
f 537 637 538
f 538 638 639
f 538 639 539
f 538 637 638
f 539 639 547
f 543 633 640
f 543 640 544
f 544 640 545
f 545 640 641
f 545 641 546
f 546 641 642
f 546 642 643
f 546 643 634
f 547 639 644
f 547 644 628
f 548 550 645
f 548 645 646
f 548 646 647
f 548 647 549
f 549 647 648
f 549 648 552
f 550 628 645
f 552 648 561
f 554 649 555
f 554 556 649
f 555 649 556
f 556 650 651
f 556 651 557
f 557 651 652
f 557 652 558
f 558 652 629
f 561 648 647
f 561 647 653
f 561 653 654
f 561 654 655
f 561 655 563
f 561 563 562
f 563 655 656
f 563 656 564
f 564 566 565
f 564 656 657
f 564 657 658
f 564 658 566
f 566 568 567
f 566 658 569
f 566 569 568
f 569 658 659
f 569 659 660
f 569 660 571
f 569 571 570
f 571 660 661
f 571 661 572
f 572 661 662
f 572 662 663
f 572 663 664
f 572 664 573
f 573 665 575
f 573 664 666
f 573 666 667
f 573 667 665
f 574 577 668
f 574 668 669
f 574 669 580
f 575 665 670
f 575 670 576
f 576 668 577
f 576 670 668
f 578 580 671
f 578 671 780
f 578 780 672
f 580 669 671
f 581 673 582
f 581 601 673
f 582 673 583
f 583 673 674
f 583 674 584
f 584 675 676
f 584 676 585
f 584 674 677
f 584 677 675
f 585 676 678
f 585 678 586
f 588 589 590
f 589 679 786
f 589 786 680
f 589 680 681
f 589 681 682
f 589 682 590
f 590 682 683
f 590 683 684
f 590 684 591
f 591 684 685
f 591 685 594
f 592 595 593
f 592 594 686
f 592 686 595
f 594 685 687
f 594 687 686
f 595 686 596
f 596 686 687
f 596 687 688
f 596 688 689
f 596 689 597
f 597 690 598
f 597 689 691
f 597 691 690
f 598 690 692
f 598 692 693
f 598 693 694
f 598 694 600
f 598 600 599
f 600 622 601
f 600 694 622
f 601 622 673
f 602 605 606
f 603 627 695
f 603 695 696
f 603 696 604
f 604 697 698
f 604 698 699
f 604 699 700
f 604 700 701
f 604 701 605
f 604 696 697
f 605 701 606
f 606 701 702
f 606 702 703
f 606 703 607
f 607 703 704
f 607 704 705
f 607 705 608
f 608 706 609
f 608 705 707
f 608 707 632
f 608 632 708
f 608 708 709
f 608 709 710
f 608 710 706
f 609 706 610
f 610 706 611
f 611 613 612
f 611 706 711
f 611 711 712
f 611 712 713
f 611 713 613
f 613 713 714
f 613 714 614
f 615 715 616
f 616 715 716
f 616 716 717
f 616 717 617
f 617 717 718
f 617 718 719
f 617 719 720
f 617 720 721
f 617 721 619
f 618 722 620
f 618 619 722
f 619 721 723
f 619 723 722
f 620 722 622
f 622 724 725
f 622 725 623
f 622 722 723
f 622 723 726
f 622 726 727
f 622 727 674
f 622 674 673
f 622 694 728
f 622 728 729
f 622 729 730
f 622 730 731
f 622 731 724
f 623 725 624
f 624 725 724
f 624 724 626
f 624 626 625
f 626 724 732
f 626 732 733
f 626 733 734
f 626 734 735
f 626 735 736
f 626 736 627
f 627 736 737
f 627 737 695
f 628 644 738
f 628 738 739
f 628 739 645
f 629 652 740
f 629 740 710
f 629 710 741
f 629 741 742
f 629 742 632
f 629 632 631
f 632 743 633
f 632 742 708
f 632 707 704
f 632 704 743
f 633 743 640
f 634 643 635
f 635 643 642
f 635 642 744
f 635 744 745
f 635 745 636
f 636 746 747
f 636 747 748
f 636 748 638
f 636 638 637
f 636 745 746
f 638 644 639
f 638 748 749
f 638 749 738
f 638 738 644
f 640 743 750
f 640 750 641
f 641 750 751
f 641 751 642
f 642 751 752
f 642 752 744
f 645 753 646
f 645 739 749
f 645 749 753
f 646 753 754
f 646 754 653
f 646 653 647
f 650 755 651
f 651 755 652
f 652 755 756
f 652 756 757
f 652 757 740
f 653 655 654
f 653 754 655
f 655 754 656
f 656 754 758
f 656 758 657
f 657 758 759
f 657 759 760
f 657 760 761
f 657 761 658
f 658 761 659
f 659 761 762
f 659 762 662
f 659 662 661
f 659 661 660
f 662 762 763
f 662 763 663
f 663 763 764
f 663 764 765
f 663 765 766
f 663 766 767
f 663 767 768
f 663 768 769
f 663 769 770
f 663 770 664
f 664 770 771
f 664 771 666
f 665 667 670
f 666 771 772
f 666 772 773
f 666 773 774
f 666 774 667
f 667 774 778
f 667 778 670
f 668 775 776
f 668 776 671
f 668 671 669
f 668 670 777
f 668 777 775
f 670 778 860
f 670 860 777
f 671 776 779
f 671 779 780
f 674 727 677
f 675 677 727
f 675 727 781
f 675 781 782
f 675 782 783
f 675 783 676
f 676 783 784
f 676 784 785
f 676 785 678
f 680 786 862
f 680 862 787
f 680 787 681
f 681 787 788
f 681 788 789
f 681 789 790
f 681 790 682
f 682 790 683
f 683 790 791
f 683 791 684
f 684 791 792
f 684 792 793
f 684 793 794
f 684 794 685
f 685 794 795
f 685 795 687
f 687 795 796
f 687 796 688
f 688 796 797
f 688 797 798
f 688 798 689
f 689 798 799
f 689 799 800
f 689 800 801
f 689 801 691
f 690 691 692
f 691 802 803
f 691 803 692
f 691 801 804
f 691 804 802
f 692 733 730
f 692 730 693
f 692 803 805
f 692 805 733
f 693 730 729
f 693 729 694
f 694 729 728
f 695 737 696
f 696 737 697
f 697 806 807
f 697 807 698
f 697 737 735
f 697 735 806
f 698 807 808
f 698 808 699
f 699 702 700
f 699 808 809
f 699 809 810
f 699 810 811
f 699 811 702
f 700 702 701
f 702 811 704
f 702 704 703
f 704 707 705
f 704 811 743
f 706 710 812
f 706 812 711
f 708 742 709
f 709 742 710
f 710 742 741
f 710 740 812
f 711 812 712
f 712 813 713
f 712 812 757
f 712 757 813
f 713 813 714
f 714 813 814
f 719 782 720
f 720 781 815
f 720 815 721
f 720 782 781
f 721 815 723
f 723 815 726
f 724 731 732
f 726 815 727
f 727 815 781
f 730 733 731
f 731 733 732
f 733 805 816
f 733 816 817
f 733 817 818
f 733 818 734
f 734 818 735
f 735 737 736
f 735 818 806
f 738 749 739
f 740 757 812
f 743 811 819
f 743 819 750
f 744 752 820
f 744 820 745
f 745 820 821
f 745 821 822
f 745 822 746
f 746 823 824
f 746 824 825
f 746 825 826
f 746 826 748
f 746 748 747
f 746 822 823
f 748 826 827
f 748 827 828
f 748 828 829
f 748 829 759
f 748 759 830
f 748 830 749
f 749 759 758
f 749 758 753
f 749 830 759
f 750 819 831
f 750 831 832
f 750 832 751
f 751 832 833
f 751 833 752
f 752 833 834
f 752 834 835
f 752 835 836
f 752 836 820
f 753 758 754
f 755 837 756
f 756 837 838
f 756 838 839
f 756 839 840
f 756 840 757
f 757 840 813
f 759 829 760
f 760 829 761
f 761 829 828
f 761 828 827
f 761 827 841
f 761 841 763
f 761 763 762
f 763 842 843
f 763 843 764
f 763 841 842
f 764 843 765
f 765 843 827
f 765 827 844
f 765 844 845
f 765 845 766
f 766 845 825
f 766 825 846
f 766 846 767
f 767 846 768
f 768 846 847
f 768 847 848
f 768 848 769
f 769 848 849
f 769 849 770
f 770 849 771
f 771 850 851
f 771 851 852
f 771 852 853
f 771 853 854
f 771 854 855
f 771 855 856
f 771 856 772
f 771 849 850
f 772 856 857
f 772 857 778
f 772 778 773
f 773 778 774
f 775 858 779
f 775 779 776
f 775 777 859
f 775 859 905
f 775 905 858
f 777 860 859
f 778 857 861
f 778 861 860
f 787 862 911
f 787 911 863
f 787 863 788
f 788 864 792
f 788 792 789
f 788 863 865
f 788 865 866
f 788 866 864
f 789 792 791
f 789 791 790
f 792 864 793
f 793 864 867
f 793 867 868
f 793 868 794
f 794 868 795
f 795 868 869
f 795 869 870
f 795 870 797
f 795 797 796
f 797 871 798
f 797 870 872
f 797 872 871
f 798 871 799
f 799 801 800
f 799 871 872
f 799 872 873
f 799 873 874
f 799 874 801
f 801 874 875
f 801 875 876
f 801 876 877
f 801 877 804
f 802 805 803
f 802 804 877
f 802 877 805
f 805 877 816
f 806 878 879
f 806 879 807
f 806 818 878
f 807 879 880
f 807 880 808
f 808 880 881
f 808 881 809
f 809 881 832
f 809 832 882
f 809 882 831
f 809 831 819
f 809 819 810
f 810 819 811
f 813 840 839
f 813 839 814
f 816 877 817
f 817 877 876
f 817 876 878
f 817 878 818
f 820 836 821
f 821 883 884
f 821 884 822
f 821 836 885
f 821 885 883
f 822 884 823
f 823 846 824
f 823 884 847
f 823 847 846
f 824 846 825
f 825 845 826
f 826 844 827
f 826 845 844
f 827 843 842
f 827 842 841
f 831 882 832
f 832 881 833
f 833 881 834
f 834 881 886
f 834 886 887
f 834 887 888
f 834 888 835
f 835 889 836
f 835 888 890
f 835 890 889
f 836 889 885
f 847 884 883
f 847 883 891
f 847 891 848
f 848 891 851
f 848 851 850
f 848 850 849
f 851 891 892
f 851 892 893
f 851 893 852
f 852 893 894
f 852 894 895
f 852 895 896
f 852 896 897
f 852 897 853
f 853 898 854
f 853 897 918
f 853 918 899
f 853 899 900
f 853 900 901
f 853 901 898
f 854 898 855
f 855 898 902
f 855 902 903
f 855 903 904
f 855 904 857
f 855 857 856
f 857 904 908
f 857 908 861
f 859 860 906
f 859 906 938
f 859 938 905
f 860 861 907
f 860 907 906
f 861 908 909
f 861 909 910
f 861 910 907
f 863 911 913
f 863 913 865
f 864 866 912
f 864 912 868
f 864 868 867
f 865 913 944
f 865 944 914
f 865 914 866
f 866 914 915
f 866 915 916
f 866 916 900
f 866 900 912
f 868 912 917
f 868 917 869
f 869 917 918
f 869 918 896
f 869 896 870
f 870 896 919
f 870 919 872
f 872 919 873
f 873 919 920
f 873 920 921
f 873 921 874
f 874 921 922
f 874 922 875
f 875 923 876
f 875 922 924
f 875 924 923
f 876 923 878
f 878 923 879
f 879 923 925
f 879 925 880
f 880 925 886
f 880 886 881
f 883 885 926
f 883 926 927
f 883 927 891
f 885 889 926
f 886 925 928
f 886 928 887
f 887 928 924
f 887 924 888
f 888 924 922
f 888 922 890
f 889 890 926
f 890 922 926
f 891 927 892
f 892 927 929
f 892 929 896
f 892 896 895
f 892 895 894
f 892 894 893
f 896 918 897
f 896 929 919
f 898 930 931
f 898 931 902
f 898 901 932
f 898 932 933
f 898 933 930
f 899 918 934
f 899 934 900
f 900 934 912
f 900 916 901
f 901 916 932
f 902 931 935
f 902 935 936
f 902 936 937
f 902 937 908
f 902 908 903
f 903 908 904
f 906 907 939
f 906 939 938
f 907 910 943
f 907 943 940
f 907 940 939
f 908 937 941
f 908 941 909
f 909 941 955
f 909 955 942
f 909 942 943
f 909 943 910
f 912 934 917
f 914 944 945
f 914 945 915
f 915 945 946
f 915 946 947
f 915 947 948
f 915 948 916
f 916 948 949
f 916 949 950
f 916 950 932
f 917 934 918
f 919 951 920
f 919 929 952
f 919 952 951
f 920 951 921
f 921 951 952
f 921 952 926
f 921 926 922
f 923 924 925
f 924 928 925
f 926 952 927
f 927 952 929
f 930 953 931
f 930 933 953
f 931 953 935
f 932 950 933
f 933 950 953
f 935 953 954
f 935 954 936
f 936 954 941
f 936 941 937
f 941 954 956
f 941 956 955
f 947 957 948
f 948 957 958
f 948 958 949
f 949 958 960
f 949 960 950
f 950 959 961
f 950 961 954
f 950 954 953
f 950 960 959
f 954 961 956

